<svg xmlns="http://www.w3.org/2000/svg" viewBox="0 0 100 100">
  <defs>
    <style>
      .a {
        fill: #F4F5F8;
      }

      .b, .e {
        fill: #E1E4EB;
      }

      .c, .f {
        fill: #fff;
      }

      .c, .d, .e {
        stroke: #959EB7;
        stroke-linecap: round;
        stroke-linejoin: round;
      }

      .d {
        fill: none;
      }
    </style>
  </defs>
  <title>quill-software-writing--text-writing-quill-FEATHER-OFFICE-app-SOFTWARE-DOC-PAPER-SHEET-edit</title>
  <g>
    <circle class="a" cx="49.392" cy="50" r="40"/>
    <g>
      <g>
        <g>
          <g>
            <path class="b" d="M80.323,70.207a3.3,3.3,0,0,1-3.3,3.3H20.1a3.3,3.3,0,0,1-3.3-3.3v-39.6H80.323Z"/>
            <path class="c" d="M80.323,24.007a3.3,3.3,0,0,0-3.3-3.3H20.1a3.3,3.3,0,0,0-3.3,3.3v6.6H80.323Z"/>
            <path class="d" d="M80.323,70.207a3.3,3.3,0,0,1-3.3,3.3H20.1a3.3,3.3,0,0,1-3.3-3.3v-39.6H80.323Z"/>
            <g>
              <circle class="e" cx="21.748" cy="25.657" r="1.65"/>
              <circle class="e" cx="28.348" cy="25.657" r="1.65"/>
              <circle class="e" cx="34.948" cy="25.657" r="1.65"/>
            </g>
          </g>
          <path class="f" d="M70.148,73.507H26.7v-35.2a1.1,1.1,0,0,1,1.1-1.1h41.25a1.1,1.1,0,0,1,1.1,1.1Z"/>
          <path class="d" d="M70.148,73.507H26.7v-35.2a1.1,1.1,0,0,1,1.1-1.1h41.25a1.1,1.1,0,0,1,1.1,1.1Z"/>
        </g>
        <line class="d" x1="43.748" y1="47.108" x2="63.273" y2="47.108"/>
        <line class="d" x1="33.848" y1="52.608" x2="63.273" y2="52.608"/>
        <line class="d" x1="33.848" y1="58.108" x2="63.273" y2="58.108"/>
        <line class="d" x1="33.848" y1="63.608" x2="63.273" y2="63.608"/>
      </g>
      <ellipse class="b" cx="49.523" cy="80.493" rx="13.2" ry="1.65"/>
      <g>
        <path class="f" d="M88.641,43.287a6.714,6.714,0,0,0-9.5,0L64.786,57.648a8.389,8.389,0,0,0-2.444,5.441l-.406,6.9,6.9-.406a8.4,8.4,0,0,0,5.442-2.444l14.36-14.36A6.715,6.715,0,0,0,88.641,43.287Z"/>
        <line class="d" x1="88.641" y1="43.287" x2="55.408" y2="76.521"/>
        <line class="d" x1="73.117" y1="62.372" x2="79.423" y2="62.001"/>
        <line class="d" x1="79.146" y1="56.343" x2="85.451" y2="55.972"/>
        <path class="d" d="M88.641,43.287a6.714,6.714,0,0,0-9.5,0L64.786,57.648a8.389,8.389,0,0,0-2.444,5.441l-.406,6.9,6.9-.406a8.4,8.4,0,0,0,5.442-2.444l14.36-14.36A6.715,6.715,0,0,0,88.641,43.287Z"/>
        <line class="d" x1="69.557" y1="58.811" x2="69.928" y2="52.506"/>
        <line class="d" x1="75.585" y1="52.783" x2="75.956" y2="46.477"/>
      </g>
    </g>
  </g>
</svg>
