<svg xmlns="http://www.w3.org/2000/svg" viewBox="0 0 100 100">
  <defs>
    <style>
      .a {
        fill: #F4F5F8;
      }

      .b {
        fill: #fff;
      }

      .b, .c, .d {
        stroke: #959EB7;
        stroke-linecap: round;
        stroke-linejoin: round;
      }

      .c {
        fill: none;
      }

      .d, .e {
        fill: #E1E4EB;
      }

      .f {
        fill: #959EB7;
      }
    </style>
  </defs>
  <title>stress-calendar--work-WORKLOAD-deadline-calendar-alert-TIMETABLE-APPROACHING-EXCLAMATION-MARK</title>
  <g>
    <circle class="a" cx="50" cy="50" r="40"/>
    <g>
      <g>
        <rect class="b" x="37.706" y="25.489" width="39.419" height="33.224" rx="2.4" ry="2.4" transform="translate(-9.375 17.442) rotate(-15.988)"/>
        <line class="c" x1="38.235" y1="46.718" x2="76.129" y2="35.861"/>
        <line class="c" x1="39.786" y1="52.131" x2="77.68" y2="41.274"/>
        <line class="c" x1="41.337" y1="57.545" x2="79.231" y2="46.687"/>
        <line class="c" x1="44.263" y1="39.133" x2="50.622" y2="61.328"/>
        <line class="c" x1="51.842" y1="36.961" x2="58.201" y2="59.157"/>
        <line class="c" x1="59.421" y1="34.79" x2="65.78" y2="56.985"/>
        <line class="c" x1="67" y1="32.619" x2="73.359" y2="54.813"/>
        <path class="d" d="M74.578,30.447,36.684,41.3l-2.131-7.437A2.4,2.4,0,0,1,36.2,30.9l33.279-9.535a2.4,2.4,0,0,1,2.969,1.646Z"/>
      </g>
      <g>
        <rect class="b" x="19.012" y="26.431" width="46.525" height="39.214" rx="2.4" ry="2.4"/>
        <path class="d" d="M65.538,38.394H19.012V28.831a2.4,2.4,0,0,1,2.4-2.4H63.138a2.4,2.4,0,0,1,2.4,2.4Z"/>
        <path class="b" d="M28.935,30.056a1.1,1.1,0,0,1-2.2,0V23.441a1.1,1.1,0,1,1,2.2,0Z"/>
        <path class="b" d="M37.755,30.056a1.1,1.1,0,0,1-2.205,0V23.441a1.1,1.1,0,1,1,2.205,0Z"/>
        <path class="b" d="M49.882,30.056a1.1,1.1,0,0,1-2.2,0V23.441a1.1,1.1,0,1,1,2.2,0Z"/>
        <path class="b" d="M58.7,30.056a1.1,1.1,0,0,1-2.2,0V23.441a1.1,1.1,0,1,1,2.2,0Z"/>
      </g>
      <ellipse class="e" cx="42.716" cy="72.26" rx="16.537" ry="2.205"/>
      <g>
        <circle class="f" cx="35.352" cy="44.967" r="1.749"/>
        <circle class="f" cx="48.348" cy="44.967" r="1.749"/>
        <path class="b" d="M41.793,53.548a8.907,8.907,0,0,0-8.985,7.491.8.8,0,0,0,.258.693.9.9,0,0,0,.741.216,50.509,50.509,0,0,1,15.971,0,.9.9,0,0,0,.741-.216.791.791,0,0,0,.258-.693A8.906,8.906,0,0,0,41.793,53.548Z"/>
        <path class="d" d="M36.194,61.625a6.831,6.831,0,0,1,5.6-3.459,6.831,6.831,0,0,1,5.6,3.459A50.394,50.394,0,0,0,36.194,61.625Z"/>
      </g>
      <g>
        <circle class="d" cx="68.727" cy="66.688" r="15.435"/>
        <path class="b" d="M68.727,67.566a1.837,1.837,0,0,1-1.781-1.385l-1.015-3.995a22.018,22.018,0,0,1-.626-2.588,3.429,3.429,0,1,1,6.844-.013,21.264,21.264,0,0,1-.638,2.648l-1,3.948A1.837,1.837,0,0,1,68.727,67.566Z"/>
        <path class="b" d="M68.727,77.62a3.43,3.43,0,1,1,3.429-3.431A3.434,3.434,0,0,1,68.727,77.62Z"/>
      </g>
    </g>
  </g>
</svg>
