<svg xmlns="http://www.w3.org/2000/svg" viewBox="0 0 100 100">
  <defs>
    <style>
      .a {
        fill: #F4F5F8;
      }

      .b {
        fill: none;
      }

      .b, .c {
        stroke: #959EB7;
        stroke-linecap: round;
        stroke-linejoin: round;
      }

      .c {
        fill: #fff;
      }

      .d {
        fill: #E1E4EB;
      }
    </style>
  </defs>
  <title>money-network--business-metaphors-money-network-CONNECT-AFFILIATE-FINANCE-GLOBAL-DISTRIBUTION</title>
  <g>
    <circle class="a" cx="50" cy="50" r="40"/>
    <g>
      <g>
        <line class="b" x1="39.9" y1="22.877" x2="42.895" y2="29.989"/>
        <line class="b" x1="68.234" y1="29.199" x2="63.423" y2="34.01"/>
        <line class="b" x1="70.375" y1="67.468" x2="63.423" y2="60.515"/>
        <line class="b" x1="32.637" y1="68.93" x2="38.38" y2="61.833"/>
        <line class="b" x1="20.954" y1="47.262" x2="31.428" y2="47.262"/>
        <circle class="c" cx="75.502" cy="22.482" r="9.897"/>
        <circle class="c" cx="16.119" cy="47.262" r="4.835"/>
        <circle class="c" cx="37.669" cy="17.579" r="5.748"/>
        <circle class="c" cx="76.155" cy="72.696" r="7.794"/>
        <circle class="c" cx="28.51" cy="73.411" r="6.092"/>
        <g>
          <circle class="d" cx="50.17" cy="47.262" r="18.743"/>
          <circle class="b" cx="50.17" cy="47.262" r="18.743"/>
          <path class="c" d="M57.071,51.3A5.742,5.742,0,0,0,51.7,45.586v-5.3a3.075,3.075,0,0,1,1.889,1.431,1.533,1.533,0,0,0,2.654-1.537A6.154,6.154,0,0,0,51.7,37.165v-.818a1.534,1.534,0,1,0-3.067,0v.8a5.723,5.723,0,0,0,0,11.424v5.405a2.282,2.282,0,0,1-1.842-.922A1.534,1.534,0,1,0,44.342,54.9a5.394,5.394,0,0,0,4.3,2.147v1.13a1.534,1.534,0,1,0,3.067,0V57.01A5.742,5.742,0,0,0,57.071,51.3ZM46.336,42.864a2.679,2.679,0,0,1,2.3-2.645v5.29A2.68,2.68,0,0,1,46.336,42.864ZM51.7,53.943v-5.29a2.671,2.671,0,0,1,0,5.29Z"/>
        </g>
      </g>
      <ellipse class="d" cx="50.17" cy="86.152" rx="11.025" ry="1.654"/>
    </g>
  </g>
</svg>
