<svg xmlns="http://www.w3.org/2000/svg" viewBox="0 0 100 100"  xmlns:v="https://vecta.io/nano"><style><![CDATA[.G{stroke:#959eb7}.H{stroke-linejoin:round}.I{fill:#e1e4eb}.J{stroke-linecap:round}]]></style><circle cx="50" cy="52.864" r="40" transform="matrix(.395481 -.918474 .918474 .395481 -18.328 77.881)" fill="#f4f5f8"/><ellipse cx="50.375" cy="84.088" rx="17.325" ry="2.502" class="I"/><path d="M67.518 27.156H32.483a2.5 2.5 0 0 0-2.5 2.5v5.005H70.02v-5.002a2.5 2.5 0 0 0-2.502-2.503zM29.98 57.186v21.271a2.5 2.5 0 0 0 2.5 2.5h35.038a2.5 2.5 0 0 0 2.5-2.5V57.186z" fill="#fff"/><g fill="none" class="G H"><path d="M29.98 63.443h40.04" class="J"/><path d="M29.98 78.457a2.5 2.5 0 0 0 2.5 2.5h35.038a2.5 2.5 0 0 0 2.5-2.5V57.186H29.98zm40.04-48.798a2.5 2.5 0 0 0-2.5-2.5H32.483a2.5 2.5 0 0 0-2.5 2.5v5.005H70.02z"/></g><path d="M55.775 66.341a1.251 1.251 0 0 1-1.187.855h-9.176a1.251 1.251 0 0 1-1.187-.855l-.417-1.251A1.251 1.251 0 0 1 45 63.443h10.01a1.251 1.251 0 0 1 1.187 1.647zm11.743 15.87a1.253 1.253 0 0 1-1.252 1.252H33.734a1.253 1.253 0 0 1-1.252-1.252V80.96h35.036zm-40.04-43.793l2.502-7.508h40.04l2.503 7.508H27.478z" class="I G H"/><path d="M37.237 7.136h25.025a2.5 2.5 0 0 1 2.5 2.5v34.037a2.5 2.5 0 0 1-2.5 2.5H37.237a2.5 2.5 0 0 1-2.5-2.5V9.639a2.5 2.5 0 0 1 2.5-2.503z" fill="#fff" class="G H"/><path d="M45.746 16.145h13.013M41.742 21.15h17.017m-17.017 5.005h17.017m-17.017 10.01h17.017" fill="none" class="J G H"/><rect x="27.478" y="34.664" width="45.045" height="22.522" rx="2.503" fill="#fff"/><g class="G H"><path d="M56.93,38.142a1.5,1.5,0,0,1-1.425,1.026H44.5a1.5,1.5,0,0,1-1.425-1.026l-.5-1.5a1.5,1.5,0,0,1,1.424-1.976H56.006A1.5,1.5,0,0,1,57.43,36.64Z" class="I"/><rect x="27.478" y="34.664" width="45.045" height="22.522" rx="2.503" fill="none"/></g></svg>