<svg xmlns="http://www.w3.org/2000/svg" xmlns:xlink="http://www.w3.org/1999/xlink" viewBox="0 0 100 100"><style><![CDATA[.M{fill:#fff}.N{stroke:#959eb7}.O{stroke-linejoin:round}.P{fill:none}.Q{stroke-linecap:round}.R{fill:#e1e4eb}]]></style><circle cx="50" cy="50.417" r="40" fill="#f4f5f8"/><g class="N O"><path d="M29.83 56.753h3.195v8.701H29.83z" class="M"/><path d="M31.96 65.451v-8.7h-2.13v-3.725a7.454 7.454 0 0 1 14.908 0v3.727h-3.2v8.7z" class="R"/><path d="M31.96 65.451h9.58v8.812h-9.58z" class="M"/><path d="M31.96 56.753a3.192 3.192 0 0 0-.587-1.846 3.2 3.2 0 0 1-.478-1.745m10.648 5.188v-4.792" class="P Q"/><rect x="34.518" y="54.318" width="4.488" height="4.977" rx="1" class="M"/><path d="M34.622 46.062l2.14 8.256 2.119-8.574" class="P Q"/><path d="M37.973 50.256l.908-3.64v-.872a7.485 7.485 0 0 0-4.259.318v.554l.908 3.64a1.259 1.259 0 0 0 2.443 0z" class="M"/><path d="M41.743 50.49l-1.058-4.1a7.389 7.389 0 0 0-1.8-.648v.872l-.987 3.954c1.23-2.103 2.666-.911 3.845-.078z" fill="#4acfff"/><path d="M32.6,47.225a7.406,7.406,0,0,1,2.019-1.163v.554l.987,3.954c-1.234-2.1-2.67-.913-3.849-.08Z" class="R"/><g class="M"><path d="M57.982 65.451h9.58v8.812h-9.58z"/><path d="M66.497 56.753h3.195v8.701h-3.195z"/></g><path d="M67.562 65.451v-8.7h2.129v-3.725a7.454 7.454 0 1 0-14.907 0v3.727h3.2v8.7z" class="R"/><path d="M67.562 56.753a3.191 3.191 0 0 1 .586-1.846 3.2 3.2 0 0 0 .479-1.745M57.978 58.35v-4.792" class="P Q"/><rect x="60.515" y="54.318" width="4.488" height="4.977" rx="1" class="M"/><path d="M64.9 46.062l-2.141 8.256-2.119-8.574" class="P Q"/><path d="M61.549 50.256l-.909-3.64v-.872a7.488 7.488 0 0 1 4.26.318v.554l-.909 3.64a1.258 1.258 0 0 1-2.442 0z" class="M"/><path d="M57.779 50.49l1.057-4.1a7.4 7.4 0 0 1 1.8-.648v.872l.987 3.954c-1.229-2.103-2.665-.911-3.844-.078z" fill="#4acfff"/><path d="M66.919,47.225A7.435,7.435,0,0,0,64.9,46.062v.554l-.987,3.954c1.233-2.1,2.67-.913,3.848-.08Z" class="R"/><path d="M41.539 62.433h16.443v12.994H41.539z" class="M"/></g><path d="M85.749 47.275a2.181 2.181 0 0 0-2.181-2.181h-5.977a28.2 28.2 0 0 0-4.3-10.369l4.231-4.225a2.18 2.18 0 0 0 0-3.084l-4.622-4.63a2.18 2.18 0 0 0-3.084 0l-4.228 4.228a28.18 28.18 0 0 0-10.369-4.3V16.74a2.182 2.182 0 0 0-2.181-2.182h-6.549a2.182 2.182 0 0 0-2.181 2.182v5.977a28.173 28.173 0 0 0-10.369 4.3l-4.228-4.228a2.18 2.18 0 0 0-3.084 0L22 27.413a2.178 2.178 0 0 0 0 3.087l4.227 4.228a28.221 28.221 0 0 0-4.3 10.369h-5.974a2.182 2.182 0 0 0-2.181 2.181v6.544A2.182 2.182 0 0 0 15.953 56h5.977a28.221 28.221 0 0 0 4.3 10.369L22 70.6a2.178 2.178 0 0 0 0 3.084l4.627 4.627a2.18 2.18 0 0 0 3.084 0l4.228-4.227a28.224 28.224 0 0 0 10.369 4.3v5.976a2.182 2.182 0 0 0 2.181 2.182h6.544a2.182 2.182 0 0 0 2.181-2.182v-5.982a28.231 28.231 0 0 0 10.369-4.3l4.228 4.227a2.18 2.18 0 0 0 3.084 0l4.627-4.627a2.18 2.18 0 0 0 0-3.084l-4.228-4.228A28.2 28.2 0 0 0 77.591 56h5.977a2.181 2.181 0 0 0 2.181-2.181zM49.761 73.449a22.9 22.9 0 1 1 22.9-22.9 22.9 22.9 0 0 1-22.9 22.9z" class="M"/><g class="N O"><g class="P"><circle cx="49.761" cy="50.547" r="22.902"/><path d="M85.749,47.275a2.181,2.181,0,0,0-2.181-2.181H77.591a28.2,28.2,0,0,0-4.3-10.369L77.522,30.5a2.18,2.18,0,0,0,0-3.084L72.9,22.786a2.18,2.18,0,0,0-3.084,0l-4.228,4.228a28.18,28.18,0,0,0-10.369-4.3V16.74a2.182,2.182,0,0,0-2.181-2.182H46.489a2.182,2.182,0,0,0-2.181,2.182v5.977a28.173,28.173,0,0,0-10.369,4.3l-4.228-4.228a2.18,2.18,0,0,0-3.084,0L22,27.413A2.178,2.178,0,0,0,22,30.5l4.227,4.228a28.221,28.221,0,0,0-4.3,10.369H15.953a2.182,2.182,0,0,0-2.181,2.181v6.544A2.182,2.182,0,0,0,15.953,56H21.93a28.221,28.221,0,0,0,4.3,10.369L22,70.6a2.178,2.178,0,0,0,0,3.084l4.627,4.627a2.18,2.18,0,0,0,3.084,0l4.228-4.227a28.224,28.224,0,0,0,10.369,4.3v5.976a2.182,2.182,0,0,0,2.181,2.182h6.544a2.182,2.182,0,0,0,2.181-2.182V78.378a28.231,28.231,0,0,0,10.369-4.3l4.228,4.227a2.18,2.18,0,0,0,3.084,0l4.627-4.627a2.18,2.18,0,0,0,0-3.084l-4.228-4.228A28.2,28.2,0,0,0,77.591,56h5.977a2.181,2.181,0,0,0,2.181-2.181Z"/></g><path d="M37.277 31.024a5.325 5.325 0 0 1 5.323 5.324v1.065c1.52 0 1.416 2.662-.266 2.662h-.004a5.309 5.309 0 0 1-10.377-1.6v-2.13a5.324 5.324 0 0 1 5.324-5.321z" class="M"/></g><path d="M38.874 39.676a.533.533 0 1 0 .532-.532.532.532 0 0 0-.532.532z" fill="#ffbe3d"/><path d="M37.543 40.557a2 2 0 0 1-2.349.221 2.313 2.313 0 0 1-.313-.221m4-2.923a.753.753 0 0 0-1.065 0m-3.194 0a.753.753 0 0 0-1.065 0" class="N O P Q"/><use xlink:href="#B" class="M"/><g class="N O"><use xlink:href="#B" class="P"/><path d="M62.253 30.981a5.324 5.324 0 0 0-5.325 5.324v1.065c-1.52 0-1.416 2.662.267 2.662h0a5.31 5.31 0 0 0 10.378-1.6v-2.127a5.324 5.324 0 0 0-5.32-5.324z" class="M"/></g><path d="M60.655 39.632a.532.532 0 1 1-.532-.532.533.533 0 0 1 .532.532z" fill="#bd704a"/><path d="M61.973 40.662a2 2 0 0 0 2.349.22 2.466 2.466 0 0 0 .313-.22m-3.982-3.098a.755.755 0 0 1 1.065 0m2.917 0a.754.754 0 0 1 1.064 0" class="N O P Q"/><use xlink:href="#C" class="M"/><use xlink:href="#C" class="N O P"/><use xlink:href="#D" class="R"/><g class="N O"><use xlink:href="#D" class="P"/><g class="Q"><path d="M57.982 51.393v-8.727" fill="#00b8f0"/><path d="M41.539 51.393v-8.727" class="P"/></g><rect x="46.972" y="47.029" width="5.579" height="6.187" rx="1" class="M"/><path d="M46.325 34.258l3.436 12.771 3.436-12.771" class="P Q"/><path d="M47.058 39.285l2.7-2.285v-3.269a13.1 13.1 0 0 0-6.852 2.088l3.1 3.388a.767.767 0 0 0 1.052.078zm5.416 0L49.774 37v-3.269a13.1 13.1 0 0 1 6.852 2.088l-3.1 3.388a.767.767 0 0 1-1.052.078z" class="R"/><path d="M52.504 34.258L49.761 37l-2.732-2.742.006-5.969h5.475l-.006 5.969z" stroke-width="1.009" class="M"/></g><use xlink:href="#E" class="M"/><g class="N O"><use xlink:href="#E" class="P"/><path d="M42.172,23.618v-.007l.643.319a.675.675,0,0,0,.951-.42l.956-3.346a1.612,1.612,0,0,1,1.9-1.142,15.76,15.76,0,0,0,3.143.4,15.749,15.749,0,0,0,3.142-.4,1.612,1.612,0,0,1,1.9,1.142l.956,3.346a.676.676,0,0,0,.951.42l.644-.319v.007a1.549,1.549,0,0,1-.16,3.067,7.59,7.59,0,0,1-14.859,0,1.549,1.549,0,0,1-.159-3.067Z" class="M"/></g><g fill="#ffbe3d"><circle cx="53.871" cy="26.084" r=".949"/><circle cx="45.65" cy="26.084" r=".949"/></g><path d="M47.863,28.3a3.165,3.165,0,0,0,3.8,0" class="N O P Q"/><g class="R"><circle cx="45.65" cy="26.084" r=".949"/><circle cx="53.871" cy="26.084" r=".949"/></g><path d="M51.658,28.3a3.165,3.165,0,0,1-3.8,0" class="N O P Q"/><path d="M46.915 22.8a1 1 0 1 0 1 1 1 1 0 0 0-1-1zm5.692 0a1 1 0 1 0 1 1 1 1 0 0 0-1-1z" fill="#959eb7"/><path d="M41.539 63.565a2.21 2.21 0 0 1-4.419 0V51.393h4.419zm20.861 0a2.21 2.21 0 0 1-4.419 0V51.393H62.4zM39.447 27.988a1 1 0 0 0 1 1h1.373a.5.5 0 0 0 .5-.5v-6.183a.5.5 0 0 0-.5-.5h-2.373z" class="M N O"/><path d="M36.574,26.833a1.436,1.436,0,0,0,1.436,1.436h1.437V22.523H38.01a1.436,1.436,0,0,0-1.436,1.437Z" class="N O R"/><path d="M60.075,28.988H57.7a.5.5,0,0,1-.5-.5V22.305a.5.5,0,0,1,.5-.5h2.373Z" class="M N O"/><path d="M61.512 28.269h-1.437v-5.746h1.437a1.436 1.436 0 0 1 1.436 1.437v2.873a1.436 1.436 0 0 1-1.436 1.436z" class="N O R"/><path d="M57.3 33.175c2.544 0 2.773-1.582 2.773-2.314v-1.873m-20.626-7.183V19.9a10.314 10.314 0 0 1 20.628 0v1.908" class="P Q N O"/><path d="M41.539 59.773h16.443v2.66H41.539z" class="M N O"/><path d="M49.761 73.449v-5.503" class="N O P Q"/><defs ><path id="B" d="M40.8,43.8a3.036,3.036,0,0,1-1.613-.355,7.55,7.55,0,0,0,3.176-3.437A3,3,0,0,0,40.7,35.934a2.553,2.553,0,0,0-.757-.118,11.486,11.486,0,0,1-6.389-2.129c-1.775,0-1.6,2.129-1.6,2.129h0a1.414,1.414,0,0,1-1.376-1.75A7.139,7.139,0,0,1,37.731,28.9a8.149,8.149,0,0,1,8.071,8.23v1.529A5.007,5.007,0,0,1,40.8,43.8Z"/><path id="C" d="M62.2 29.278a5.912 5.912 0 0 0-5.2 3.187 5.809 5.809 0 0 0-.642 2.653v2.6s4.159-1.482 4.159-4.35a29.164 29.164 0 0 1 7.521 3.525v-1.775a5.839 5.839 0 0 0-5.838-5.84z"/><path id="D" d="M62.409 51.393v-4.922a12.648 12.648 0 1 0-25.3 0l.007 4.922h4.419v11.04h16.447v-11.04z"/><path id="E" d="M58.618 17.941c-1.057-2.262-3.371-4.039-4.668-3.43-.87-1.6-2.279-2.12-4.189-2.243-5.06.219-7.351 2.449-8.858 5.673-1.058 2.262-.748 4.641.691 5.315.573.267 1.636.9 2.386 1.356a3.788 3.788 0 0 0 1.869.551l3.912.107c.656.001 1.337-.037 3.912-.107a3.781 3.781 0 0 0 1.868-.551c.75-.457 1.814-1.089 2.387-1.356 1.439-.674 1.749-3.056.69-5.315z"/></defs></svg>