<svg xmlns="http://www.w3.org/2000/svg" viewBox="0 0 100 100">
  <defs>
    <style>
      .a {
        fill: #F4F5F8;
      }

      .b, .d {
        fill: #E1E4EB;
      }

      .c {
        fill: #fff;
      }

      .c, .d, .e {
        stroke: #959EB7;
        stroke-linecap: round;
        stroke-linejoin: round;
      }

      .e {
        fill: none;
      }
    </style>
  </defs>
  <title>sheet-in-folder--text-folders-documents-FOLDER-PAPER-SHEET-DOC</title>
  <g>
    <circle class="a" cx="50" cy="51.53" r="40"/>
    <g>
      <ellipse class="b" cx="50.147" cy="81.115" rx="12.734" ry="1.997"/>
      <g>
        <g>
          <path class="c" d="M31.746,59.366a1.146,1.146,0,0,0,1.336.919l32.724-6.042a1.146,1.146,0,0,0,.92-1.335L59.974,16.279,48.617,8.47,24.356,12.949a1.146,1.146,0,0,0-.92,1.335Z"/>
          <path class="d" d="M59.974,16.279,51.521,17.84a1.161,1.161,0,0,1-1.348-.929L48.617,8.47Z"/>
          <line class="e" x1="30.55" y1="20.745" x2="42.692" y2="18.504"/>
          <line class="e" x1="31.969" y1="28.445" x2="54.645" y2="24.258"/>
          <line class="e" x1="33.388" y1="36.145" x2="56.065" y2="31.958"/>
          <line class="e" x1="34.808" y1="43.845" x2="57.484" y2="39.658"/>
          <line class="e" x1="36.227" y1="51.544" x2="58.903" y2="47.358"/>
        </g>
        <g>
          <path class="c" d="M32.662,59.146a1.148,1.148,0,0,0,.972,1.3L66.569,65.2a1.148,1.148,0,0,0,1.3-.97L73.2,27.367,64.943,16.333,40.526,12.807a1.147,1.147,0,0,0-1.3.971Z"/>
          <path class="d" d="M73.2,27.367l-8.508-1.228a1.161,1.161,0,0,1-.98-1.311l1.229-8.5Z"/>
          <line class="e" x1="43.896" y1="22.176" x2="56.117" y2="23.941"/>
          <line class="e" x1="42.775" y1="29.925" x2="65.598" y2="33.22"/>
          <line class="e" x1="41.654" y1="37.674" x2="64.477" y2="40.969"/>
          <line class="e" x1="40.533" y1="45.423" x2="63.356" y2="48.718"/>
          <line class="e" x1="39.412" y1="53.172" x2="62.235" y2="56.467"/>
        </g>
        <g>
          <path class="b" d="M77.8,66.113A3.21,3.21,0,0,1,74.774,69.5L25.647,72.287a3.21,3.21,0,0,1-3.387-3.024L20.342,35.456a3.211,3.211,0,0,1,3.023-3.388l7.586-.43a2.967,2.967,0,0,1,1.975.752l4.432,4.425a2.968,2.968,0,0,0,1.976.752l33.52-1.9a3.212,3.212,0,0,1,3.388,3.024Z"/>
          <path class="e" d="M77.8,66.113A3.21,3.21,0,0,1,74.774,69.5L25.647,72.287a3.21,3.21,0,0,1-3.387-3.024L20.342,35.456a3.211,3.211,0,0,1,3.023-3.388l7.586-.43a2.967,2.967,0,0,1,1.975.752l4.432,4.425a2.968,2.968,0,0,0,1.976.752l33.52-1.9a3.212,3.212,0,0,1,3.388,3.024Z"/>
        </g>
      </g>
    </g>
  </g>
</svg>
