<svg xmlns="http://www.w3.org/2000/svg" viewBox="0 0 100 100">
  <defs>
    <style>
      .a {
        fill: #F4F5F8;
      }

      .b {
        fill: none;
      }

      .b, .e {
        stroke: #959EB7;
        stroke-linecap: round;
        stroke-linejoin: round;
      }

      .c {
        fill: #E1E4EB;
      }

      .d, .e {
        fill: #fff;
      }
    </style>
  </defs>
  <title>avatar-add-2-2--user-action-CONTACT-add-FRIEND-PLUS-female-half</title>
  <g>
    <g>
      <path class="a" d="M90.5,51.094a40,40,0,1,0-76.436,16.5H86.936A39.844,39.844,0,0,0,90.5,51.094Z"/>
      <g>
        <line class="b" x1="11" y1="67.594" x2="89" y2="67.594"/>
        <line class="b" x1="6.5" y1="67.594" x2="9" y2="67.594"/>
        <line class="b" x1="91" y1="67.594" x2="93.5" y2="67.594"/>
      </g>
    </g>
    <g>
      <g>
        <path class="c" d="M43.739,44.735A20.239,20.239,0,0,0,23.957,64.893v2.814H63.521V64.893A20.239,20.239,0,0,0,43.739,44.735Z"/>
        <path class="b" d="M43.739,44.735A20.239,20.239,0,0,0,23.957,64.893v2.814H63.521V64.893A20.239,20.239,0,0,0,43.739,44.735Z"/>
        <path class="d" d="M48.347,45.347l-.141-.037V40.267H39.272V45.31l-.141.037-1.39,6.03,4.507,16.33H45.23l4.507-16.33Z"/>
        <path class="b" d="M48.347,45.347l-.141-.037V40.267H39.272V45.31l-.141.037-1.39,6.03,4.507,16.33H45.23l4.507-16.33Z"/>
        <line class="b" x1="30.976" y1="67.707" x2="30.976" y2="62.864"/>
        <line class="b" x1="56.502" y1="67.707" x2="56.502" y2="62.864"/>
        <g>
          <path class="d" d="M60.969,34.523a3.79,3.79,0,0,0-.2-1.157,5.38,5.38,0,0,0-1.738-9.432,15.3,15.3,0,0,0-30.588,0,5.38,5.38,0,0,0-1.738,9.432,3.79,3.79,0,0,0-.2,1.157c0,.037.011.071.013.108a7.656,7.656,0,1,0,14.664,3.083,7.705,7.705,0,0,0-.161-1.567h5.428a7.658,7.658,0,1,0,15.154,1.567,7.622,7.622,0,0,0-.651-3.083C60.958,34.594,60.969,34.56,60.969,34.523Z"/>
          <path class="b" d="M60.969,34.523a3.79,3.79,0,0,0-.2-1.157,5.38,5.38,0,0,0-1.738-9.432,15.3,15.3,0,0,0-30.588,0,5.38,5.38,0,0,0-1.738,9.432,3.79,3.79,0,0,0-.2,1.157c0,.037.011.071.013.108a7.656,7.656,0,1,0,14.664,3.083,7.705,7.705,0,0,0-.161-1.567h5.428a7.658,7.658,0,1,0,15.154,1.567,7.622,7.622,0,0,0-.651-3.083C60.958,34.594,60.969,34.56,60.969,34.523Z"/>
          <g>
            <path class="e" d="M56.5,26.865c-7.543-1.633-12.763-4.9-18.443-10.21-1.02,6.228-3.356,10.721-7.083,10.21a2.553,2.553,0,0,0,0,5.105c.054,0,.1-.012.157-.015a12.746,12.746,0,0,0,25.212,0c.053,0,.1.015.157.015a2.553,2.553,0,0,0,0-5.105Z"/>
            <circle class="c" cx="36.4" cy="32.29" r="1.595"/>
            <circle class="c" cx="51.078" cy="32.29" r="1.595"/>
            <path class="b" d="M47.568,35.53a5.515,5.515,0,0,1-7.658,0"/>
            <path class="b" d="M40.548,28.142a2.074,2.074,0,0,0-3.829,0"/>
            <path class="b" d="M50.759,28.142a2.074,2.074,0,0,0-3.829,0"/>
          </g>
        </g>
        <path class="e" d="M43.739,56.505a13.217,13.217,0,0,1-4.83-.9l3.339,12.1H45.23l3.339-12.1A13.217,13.217,0,0,1,43.739,56.505Z"/>
        <path class="e" d="M39.272,44.734l-1.53,6.643,4.506,16.33h-3.19L34.116,62.8a1.276,1.276,0,0,1-.4-1.644l3.428-1.87-4.445-5.5a1.277,1.277,0,0,1-.375-1.387C33.515,48.953,33.94,45.859,39.272,44.734Z"/>
        <path class="e" d="M48.206,44.734l1.53,6.643L45.23,67.707h3.19L53.362,62.8a1.276,1.276,0,0,0,.4-1.644l-3.428-1.87,4.445-5.5a1.277,1.277,0,0,0,.375-1.387C53.963,48.953,53.538,45.859,48.206,44.734Z"/>
      </g>
      <g>
        <ellipse class="a" cx="66.313" cy="84.553" rx="9.261" ry="1.158"/>
        <g>
          <path class="d" d="M80.2,64.005a1.158,1.158,0,0,0-1.157-1.158H71.522a1.158,1.158,0,0,1-1.158-1.157V54.165a1.157,1.157,0,0,0-1.157-1.157H63.419a1.157,1.157,0,0,0-1.158,1.157V61.69A1.157,1.157,0,0,1,61.1,62.847H53.579a1.158,1.158,0,0,0-1.158,1.158v5.788a1.157,1.157,0,0,0,1.158,1.158H61.1a1.157,1.157,0,0,1,1.158,1.157v7.525a1.158,1.158,0,0,0,1.158,1.158h5.788a1.158,1.158,0,0,0,1.157-1.158V72.108a1.158,1.158,0,0,1,1.158-1.157h7.525A1.157,1.157,0,0,0,80.2,69.793Z"/>
          <path class="b" d="M80.2,64.005a1.158,1.158,0,0,0-1.157-1.158H71.522a1.158,1.158,0,0,1-1.158-1.157V54.165a1.157,1.157,0,0,0-1.157-1.157H63.419a1.157,1.157,0,0,0-1.158,1.157V61.69A1.157,1.157,0,0,1,61.1,62.847H53.579a1.158,1.158,0,0,0-1.158,1.158v5.788a1.157,1.157,0,0,0,1.158,1.158H61.1a1.157,1.157,0,0,1,1.158,1.157v7.525a1.158,1.158,0,0,0,1.158,1.158h5.788a1.158,1.158,0,0,0,1.157-1.158V72.108a1.158,1.158,0,0,1,1.158-1.157h7.525A1.157,1.157,0,0,0,80.2,69.793Z"/>
        </g>
      </g>
    </g>
  </g>
</svg>
