<svg xmlns="http://www.w3.org/2000/svg" viewBox="0 0 100 100"><style><![CDATA[.F{fill:#fff}.G{stroke-linecap:round}.H{stroke:#959eb7}.I{stroke-linejoin:round}.J{fill:#e1e4eb}]]></style><circle cx="51.43" cy="50" r="40" fill="#f4f5f8"/><g class="H I"><path d="M83.043,43.688a2.12,2.12,0,0,1-2.121,2.121H38.505a2.12,2.12,0,0,1-2.121-2.121V20.359a2.12,2.12,0,0,1,2.121-2.121H80.922a2.12,2.12,0,0,1,2.121,2.121v10.6l6.915,7.779a1.06,1.06,0,0,1-.793,1.765H83.043Z" class="F"/><path d="M76.68 25.661H60.774m15.906 5.302H60.774m8.837 5.302h-8.837" fill="none" class="G"/><path d="M16.681,80.633a2.4,2.4,0,0,0,2.395,2.4h47.9a2.4,2.4,0,0,0,2.4-2.4V54.287a2.4,2.4,0,0,0-2.4-2.395h-47.9a2.4,2.4,0,0,0-2.395,2.395V66.263L8.873,75.047a1.2,1.2,0,0,0,.9,1.994h6.913Z" class="F"/><path d="M63.385 63.031H45.422m17.963 5.988H45.422m9.98 5.988h-9.98" fill="none" class="G"/><circle cx="48.076" cy="31.788" r="8.248" class="J"/></g><path d="M45.422,31.6a2.654,2.654,0,1,0,5.308,0V30.27a2.654,2.654,0,1,0-5.308,0Z" class="F"/><g class="H I"><path d="M45.422,31.6a2.654,2.654,0,1,0,5.308,0V30.27a2.654,2.654,0,1,0-5.308,0Z" fill="none"/><path d="M42.565 37.925a8.249 8.249 0 0 0 11.022 0 5.97 5.97 0 0 0-11.022 0zm2.879-7.998a2.653 2.653 0 0 1 4.836-1.134 4.835 4.835 0 0 1-4.836 1.134z" class="F"/><circle cx="29.848" cy="66.741" r="9.314" class="J"/></g><rect x="24.518" y="63.357" width="10.661" height="8.815" rx="1.322" class="F"/><g class="H I"><g fill="none"><rect x="24.518" y="63.357" width="10.661" height="8.815" rx="1.322"/><path d="M35.179 64.679v6.171a1.321 1.321 0 0 1-1.323 1.322H25.84a1.321 1.321 0 0 1-1.322-1.322v-6.171a1.321 1.321 0 0 1 1.322-1.322h8.016c.053 0 .1.005.155.009a1.322 1.322 0 0 1 1.168 1.313z"/><path d="M29.848 63.357v-1.616" class="G"/></g><circle cx="29.848" cy="60.686" r="1.122" class="F"/><path d="M28.548 73.918v-1.746h2.601v1.732" fill="none" class="G"/><g class="J"><circle cx="28.47" cy="67.352" r="1.378"/><circle cx="31.227" cy="67.352" r="1.378"/></g></g></svg>