<svg xmlns="http://www.w3.org/2000/svg" viewBox="0 0 100 100">
  <defs>
    <style>
      .a {
        fill: #F4F5F8;
      }

      .b, .e {
        fill: #fff;
      }

      .c {
        fill: none;
      }

      .c, .e, .g {
        stroke: #959EB7;
        stroke-linecap: round;
        stroke-linejoin: round;
      }

      .d {
        fill: #ffe500;
      }

      .f, .g {
        fill: #E1E4EB;
      }

      .h {
        fill: #959EB7;
      }
    </style>
  </defs>
  <title>property-rating-4--real-estate-house-PROPERTY-HOUSING-host-RENT-5-FIVE-STAR-VALUE-RANK-rating-female</title>
  <g>
    <g>
      <g>
        <path class="a" d="M90,54.373a40,40,0,1,0-76.436,16.5H86.436A39.841,39.841,0,0,0,90,54.373Z"/>
        <path class="b" d="M13.564,70.873a40,40,0,0,0,72.872,0Z"/>
      </g>
      <g>
        <line class="c" x1="11" y1="70.873" x2="89" y2="70.873"/>
        <line class="c" x1="6.5" y1="70.873" x2="9" y2="70.873"/>
        <line class="c" x1="91" y1="70.873" x2="93.5" y2="70.873"/>
      </g>
    </g>
    <g>
      <g>
        <g>
          <path class="b" d="M44.61,6.152l1.706,3.455a.94.94,0,0,0,.709.516l3.814.554a.943.943,0,0,1,.522,1.608L48.6,14.974a.944.944,0,0,0-.272.835l.652,3.8a.943.943,0,0,1-1.368.994L44.2,18.807a.938.938,0,0,0-.877,0L39.916,20.6a.943.943,0,0,1-1.368-.994l.652-3.8a.946.946,0,0,0-.271-.835l-2.76-2.689a.943.943,0,0,1,.523-1.608l3.813-.554a.944.944,0,0,0,.71-.516l1.7-3.455A.943.943,0,0,1,44.61,6.152Z"/>
          <path class="c" d="M44.61,6.152l1.706,3.455a.94.94,0,0,0,.709.516l3.814.554a.943.943,0,0,1,.522,1.608L48.6,14.974a.944.944,0,0,0-.272.835l.652,3.8a.943.943,0,0,1-1.368.994L44.2,18.807a.938.938,0,0,0-.877,0L39.916,20.6a.943.943,0,0,1-1.368-.994l.652-3.8a.946.946,0,0,0-.271-.835l-2.76-2.689a.943.943,0,0,1,.523-1.608l3.813-.554a.944.944,0,0,0,.71-.516l1.7-3.455A.943.943,0,0,1,44.61,6.152Z"/>
        </g>
        <g>
          <path class="b" d="M63.681,14.38l-.2,3.124a.766.766,0,0,0,.289.651l2.459,1.939a.766.766,0,0,1-.286,1.343l-3.034.772a.765.765,0,0,0-.53.477l-1.084,2.937a.766.766,0,0,1-1.366.143l-1.672-2.647a.764.764,0,0,0-.617-.356l-3.128-.124a.766.766,0,0,1-.559-1.255l2-2.408a.766.766,0,0,0,.148-.7l-.849-3.013a.766.766,0,0,1,1.02-.919l2.909,1.159a.765.765,0,0,0,.708-.074l2.6-1.739A.765.765,0,0,1,63.681,14.38Z"/>
          <path class="c" d="M63.681,14.38l-.2,3.124a.766.766,0,0,0,.289.651l2.459,1.939a.766.766,0,0,1-.286,1.343l-3.034.772a.765.765,0,0,0-.53.477l-1.084,2.937a.766.766,0,0,1-1.366.143l-1.672-2.647a.764.764,0,0,0-.617-.356l-3.128-.124a.766.766,0,0,1-.559-1.255l2-2.408a.766.766,0,0,0,.148-.7l-.849-3.013a.766.766,0,0,1,1.02-.919l2.909,1.159a.765.765,0,0,0,.708-.074l2.6-1.739A.765.765,0,0,1,63.681,14.38Z"/>
        </g>
        <g>
          <path class="b" d="M73.484,29.984l-1.338,2a.589.589,0,0,0-.057.546l.892,2.237a.589.589,0,0,1-.707.785L69.955,34.9a.587.587,0,0,0-.536.114l-1.852,1.539a.588.588,0,0,1-.965-.429l-.095-2.407a.59.59,0,0,0-.274-.475L64.2,31.958a.589.589,0,0,1,.111-1.051l2.259-.834a.59.59,0,0,0,.367-.408l.593-2.334a.589.589,0,0,1,1.034-.219L70.051,29a.587.587,0,0,0,.5.223l2.4-.156A.589.589,0,0,1,73.484,29.984Z"/>
          <path class="c" d="M73.484,29.984l-1.338,2a.589.589,0,0,0-.057.546l.892,2.237a.589.589,0,0,1-.707.785L69.955,34.9a.587.587,0,0,0-.536.114l-1.852,1.539a.588.588,0,0,1-.965-.429l-.095-2.407a.59.59,0,0,0-.274-.475L64.2,31.958a.589.589,0,0,1,.111-1.051l2.259-.834a.59.59,0,0,0,.367-.408l.593-2.334a.589.589,0,0,1,1.034-.219L70.051,29a.587.587,0,0,0,.5.223l2.4-.156A.589.589,0,0,1,73.484,29.984Z"/>
        </g>
        <g>
          <path class="d" d="M25.188,13.693l2.6,1.739a.762.762,0,0,0,.708.074l2.909-1.159a.766.766,0,0,1,1.02.919l-.849,3.013a.766.766,0,0,0,.148.7l2,2.408a.766.766,0,0,1-.559,1.255l-3.128.124a.764.764,0,0,0-.617.356l-1.672,2.647a.766.766,0,0,1-1.366-.143L25.3,22.686a.765.765,0,0,0-.53-.477l-3.034-.772a.765.765,0,0,1-.285-1.343l2.458-1.939A.766.766,0,0,0,24.2,17.5L24,14.38A.766.766,0,0,1,25.188,13.693Z"/>
          <path class="e" d="M25.188,13.693l2.6,1.739a.762.762,0,0,0,.708.074l2.909-1.159a.766.766,0,0,1,1.02.919l-.849,3.013a.766.766,0,0,0,.148.7l2,2.408a.766.766,0,0,1-.559,1.255l-3.128.124a.764.764,0,0,0-.617.356l-1.672,2.647a.766.766,0,0,1-1.366-.143L25.3,22.686a.765.765,0,0,0-.53-.477l-3.034-.772a.765.765,0,0,1-.285-1.343l2.458-1.939A.766.766,0,0,0,24.2,17.5L24,14.38A.766.766,0,0,1,25.188,13.693Z"/>
        </g>
        <g>
          <path class="d" d="M14.484,29.073l2.4.157a.59.59,0,0,0,.5-.224l1.491-1.89a.589.589,0,0,1,1.034.219l.593,2.334a.59.59,0,0,0,.367.408l2.259.834a.589.589,0,0,1,.111,1.051l-2.037,1.285a.592.592,0,0,0-.274.475l-.095,2.407a.588.588,0,0,1-.965.429L18.02,35.019a.589.589,0,0,0-.537-.114l-2.318.653a.589.589,0,0,1-.707-.785l.892-2.237a.59.59,0,0,0-.057-.545l-1.338-2A.589.589,0,0,1,14.484,29.073Z"/>
          <path class="e" d="M14.484,29.073l2.4.157a.59.59,0,0,0,.5-.224l1.491-1.89a.589.589,0,0,1,1.034.219l.593,2.334a.59.59,0,0,0,.367.408l2.259.834a.589.589,0,0,1,.111,1.051l-2.037,1.285a.592.592,0,0,0-.274.475l-.095,2.407a.588.588,0,0,1-.965.429L18.02,35.019a.589.589,0,0,0-.537-.114l-2.318.653a.589.589,0,0,1-.707-.785l.892-2.237a.59.59,0,0,0-.057-.545l-1.338-2A.589.589,0,0,1,14.484,29.073Z"/>
        </g>
      </g>
      <path class="e" d="M83.968,69.24A1.755,1.755,0,0,0,81.4,67.675a2.339,2.339,0,0,0-3.1-1.169,3.519,3.519,0,0,0-6.681,1.435,1.765,1.765,0,1,0-1.19,3.066H82.2A1.689,1.689,0,0,0,83.968,69.24Z"/>
      <g>
        <path class="f" d="M75.133,51.569v-6.48a1.178,1.178,0,0,0-1.179-1.178H71.6a1.178,1.178,0,0,0-1.178,1.178v6.48Z"/>
        <path class="c" d="M75.133,51.569v-6.48a1.178,1.178,0,0,0-1.179-1.178H71.6a1.178,1.178,0,0,0-1.178,1.178v6.48Z"/>
        <path class="f" d="M76.311,57.02,65.3,47.492a1.177,1.177,0,0,0-1.546,0l-10.693,9.3V71.007H76.311Z"/>
        <path class="c" d="M76.311,57.02,65.3,47.492a1.177,1.177,0,0,0-1.546,0l-10.693,9.3V71.007H76.311Z"/>
        <path class="g" d="M63.941,71.007H54.516V69.829a1.178,1.178,0,0,1,1.178-1.178h7.069a1.178,1.178,0,0,1,1.178,1.178Z"/>
        <path class="e" d="M62.174,68.651H55.105v-5.3a3.535,3.535,0,0,1,7.069,0Z"/>
        <line class="c" x1="59.817" y1="65.706" x2="59.817" y2="64.527"/>
        <circle class="b" cx="64.53" cy="53.925" r="2.356"/>
        <circle class="c" cx="64.53" cy="53.925" r="2.356"/>
        <g>
          <rect class="b" x="68.064" y="60.404" width="4.712" height="5.89" rx="1"/>
          <rect class="c" x="68.064" y="60.404" width="4.712" height="5.89" rx="1"/>
        </g>
        <path class="b" d="M66.071,43.511a2.355,2.355,0,0,0-3.083,0L50.475,54.337A1.775,1.775,0,1,0,52.8,57.02l10.956-9.528a1.177,1.177,0,0,1,1.546,0L76.258,57.02a1.776,1.776,0,1,0,2.327-2.683Z"/>
        <path class="c" d="M66.071,43.511a2.355,2.355,0,0,0-3.083,0L50.475,54.337A1.775,1.775,0,1,0,52.8,57.02l10.956-9.528a1.177,1.177,0,0,1,1.546,0L76.258,57.02a1.776,1.776,0,1,0,2.327-2.683Z"/>
      </g>
      <g>
        <ellipse class="f" cx="44.149" cy="90.151" rx="11.781" ry="1.473"/>
        <path class="b" d="M44.417,46.006a12.247,12.247,0,0,0-11.988,9.431.8.8,0,0,0,.323.83,27.882,27.882,0,0,0,3.777,2.3.819.819,0,0,1,.5.755v8.466H51.8V59.325a.819.819,0,0,1,.5-.755,27.82,27.82,0,0,0,3.777-2.3.8.8,0,0,0,.324-.83A12.249,12.249,0,0,0,44.417,46.006Z"/>
        <path class="c" d="M44.417,46.006a12.247,12.247,0,0,0-11.988,9.431.8.8,0,0,0,.323.83,27.882,27.882,0,0,0,3.777,2.3.819.819,0,0,1,.5.755v8.466H51.8V59.325a.819.819,0,0,1,.5-.755,27.82,27.82,0,0,0,3.777-2.3.8.8,0,0,0,.324-.83A12.249,12.249,0,0,0,44.417,46.006Z"/>
        <path class="c" d="M44.417,49.7s-3.692.411-2.872,1.641c.3.449.763.352,1.231.047A7.887,7.887,0,0,0,44.417,49.7Z"/>
        <path class="c" d="M44.417,49.7a26,26,0,0,0-1.231,6.973"/>
        <path class="c" d="M44.417,49.7s3.691.411,2.871,1.641c-.3.449-.763.352-1.231.047A7.9,7.9,0,0,1,44.417,49.7Z"/>
        <path class="c" d="M44.417,49.7a26.022,26.022,0,0,1,1.23,6.973"/>
        <line class="c" x1="36.623" y1="53.389" x2="37.033" y2="59.542"/>
        <line class="c" x1="52.21" y1="53.389" x2="51.8" y2="59.542"/>
        <path class="e" d="M36.53,58.57a26.914,26.914,0,0,1-3.6-2.176V71.62a2.051,2.051,0,1,0,4.1,0v-12.3A.82.82,0,0,0,36.53,58.57Z"/>
        <path class="e" d="M52.3,58.57a27.041,27.041,0,0,0,3.6-2.176V71.62a2.051,2.051,0,1,1-4.1,0v-12.3A.82.82,0,0,1,52.3,58.57Z"/>
        <path class="e" d="M47.446,46.356a.821.821,0,0,1-.632-.8l0-4.43H42.032l0,4.429a.82.82,0,0,1-.632.8c-.138.033-.275.068-.41.106a.816.816,0,0,1,.473.41c.019.035.685,1.188,2.958,1.188s2.938-1.153,2.965-1.2a.831.831,0,0,1,.483-.391C47.727,46.425,47.587,46.389,47.446,46.356Z"/>
        <path class="e" d="M44.417,49.7c-3.34,0-4.383-2.008-4.426-2.094a.821.821,0,0,1,1.468-.734c.019.035.685,1.188,2.958,1.188s2.938-1.153,2.965-1.2a.829.829,0,0,1,1.1-.336.812.812,0,0,1,.356,1.084C48.8,47.689,47.757,49.7,44.417,49.7Z"/>
        <polygon class="f" points="48.878 89.605 51.8 67.791 37.033 67.791 39.955 89.605 48.878 89.605"/>
        <polygon class="c" points="48.878 89.605 51.8 67.791 37.033 67.791 39.955 89.605 48.878 89.605"/>
        <path class="e" d="M50.713,89.605A1.2,1.2,0,0,0,51.755,87.8,3.607,3.607,0,0,0,48.628,86h-.6a3.61,3.61,0,0,0-3.61,3.61Z"/>
        <path class="e" d="M44.417,89.605A3.61,3.61,0,0,0,40.807,86h-.6a3.61,3.61,0,0,0-3.127,1.8,1.2,1.2,0,0,0,1.043,1.805Z"/>
        <line class="c" x1="44.417" y1="73.138" x2="44.417" y2="89.605"/>
      </g>
      <g>
        <g>
          <path class="e" d="M52.567,38.188A1.423,1.423,0,0,0,51.413,36.8v-.923a6.921,6.921,0,0,0-13.842,0V36.8a1.413,1.413,0,0,0,.145,2.8,6.922,6.922,0,0,0,13.552,0A1.428,1.428,0,0,0,52.567,38.188Z"/>
          <circle class="f" cx="40.743" cy="39.053" r="0.865"/>
          <circle class="f" cx="48.241" cy="39.053" r="0.865"/>
          <path class="c" d="M46.222,41.072a2.882,2.882,0,0,1-3.46,0"/>
          <circle class="h" cx="41.897" cy="36.746" r="0.865"/>
          <circle class="h" cx="47.087" cy="36.746" r="0.865"/>
        </g>
        <path class="b" d="M44.492,27.23a9.4,9.4,0,0,0-9.228,9.544V50.135a3,3,0,0,0,2.586,3.034,2.885,2.885,0,0,0,3.114-2.246.574.574,0,0,0-.436-.678,2.309,2.309,0,0,1-1.8-2.252V35.3c1.731-1.153,1.731-1.153,2.884-3.46,1.73,2.307,6.372,3.46,8.652,3.46V47.993a2.309,2.309,0,0,1-1.8,2.252.574.574,0,0,0-.436.678,2.885,2.885,0,0,0,3.114,2.246,3,3,0,0,0,2.586-3.034V36.774A9.4,9.4,0,0,0,44.492,27.23Z"/>
        <path class="c" d="M44.492,27.23a9.4,9.4,0,0,0-9.228,9.544V50.135a3,3,0,0,0,2.586,3.034,2.885,2.885,0,0,0,3.114-2.246.574.574,0,0,0-.436-.678,2.309,2.309,0,0,1-1.8-2.252V35.3c1.731-1.153,1.731-1.153,2.884-3.46,1.73,2.307,6.372,3.46,8.652,3.46V47.993a2.309,2.309,0,0,1-1.8,2.252.574.574,0,0,0-.436.678,2.885,2.885,0,0,0,3.114,2.246,3,3,0,0,0,2.586-3.034V36.774A9.4,9.4,0,0,0,44.492,27.23Z"/>
      </g>
    </g>
  </g>
</svg>
