<svg width="230" height="230" viewBox="0 0 230 230" fill="none" xmlns="http://www.w3.org/2000/svg">
<g clip-path="url(#clip0)">
<path d="M220.747 128.749C220.749 112.967 217.218 97.3839 210.414 83.1437C203.61 68.9035 193.704 56.367 181.424 46.4535C169.144 36.54 154.8 29.5009 139.445 25.8525C124.09 22.2042 108.113 22.039 92.6865 25.3692C77.2595 28.6994 62.7735 35.4404 50.291 45.098C37.8084 54.7555 27.6458 67.0846 20.5486 81.1811C13.4513 95.2776 9.59924 110.784 9.27501 126.563C8.95077 142.342 12.1625 157.993 18.6748 172.37H211.325C217.545 158.669 220.758 143.795 220.747 128.749Z" fill="#939EB9" fill-opacity="0.1"/>
<path d="M11.8964 172.369H218.103" stroke="#939EB9" stroke-linejoin="round"/>
<path d="M0 172.369H6.6092" stroke="#939EB9" stroke-linejoin="round"/>
<path d="M223.391 172.369H230" stroke="#939EB9" stroke-linejoin="round"/>
<path d="M165.206 121.785H148.31L152.35 86.8887C152.45 86.0311 152.861 85.24 153.506 84.6659C154.151 84.0917 154.984 83.7745 155.847 83.7744H157.669C158.532 83.7745 159.366 84.0917 160.01 84.6659C160.655 85.24 161.067 86.0311 161.167 86.8887L165.206 121.785Z" fill="#939EB9" fill-opacity="0.1" stroke="#939EB9" stroke-linejoin="round"/>
<path d="M170.485 104.892C170.486 104.43 170.395 103.972 170.218 103.545C170.041 103.117 169.782 102.729 169.456 102.402C169.129 102.075 168.741 101.816 168.314 101.639C167.887 101.462 167.429 101.371 166.966 101.371H145.138V122.139H170.477L170.485 104.892Z" fill="#EAECF2" stroke="#939EB9" stroke-linejoin="round"/>
<path d="M101.858 92.8607V194.637H174.006V128.936L101.858 92.8607Z" fill="white"/>
<path d="M101.858 92.8607V194.637H174.006V128.936L101.858 92.8607Z" fill="#939EB9" fill-opacity="0.1" stroke="#939EB9" stroke-linejoin="round"/>
<path d="M158.169 164.721C158.169 163.789 157.799 162.895 157.14 162.235C156.481 161.575 155.587 161.204 154.655 161.202H119.455C118.521 161.202 117.626 161.573 116.966 162.233C116.307 162.893 115.936 163.788 115.936 164.721V194.576H158.169V164.721Z" fill="#939EB9" fill-opacity="0.1"/>
<path d="M158.169 164.721C158.169 163.789 157.799 162.895 157.14 162.235C156.481 161.575 155.587 161.204 154.655 161.202H119.455C118.521 161.202 117.626 161.573 116.966 162.233C116.307 162.893 115.936 163.788 115.936 164.721V194.576H158.169V164.721Z" fill="#939EB9" fill-opacity="0.1" stroke="#939EB9" stroke-linejoin="round"/>
<path d="M182.805 127.641C182.805 128.241 182.651 128.831 182.359 129.355C182.066 129.879 181.645 130.319 181.135 130.634C180.625 130.95 180.042 131.13 179.443 131.157C178.844 131.184 178.247 131.058 177.711 130.79L96.0605 89.9633C95.4761 89.6705 94.9846 89.221 94.641 88.665C94.2974 88.1089 94.1152 87.4683 94.1147 86.8146V82.0137C94.1143 81.4138 94.2673 80.8238 94.5593 80.2998C94.8512 79.7758 95.2724 79.3351 95.7827 79.0198C96.293 78.7045 96.8755 78.525 97.4748 78.4984C98.0741 78.4718 98.6702 78.5989 99.2065 78.8677L180.859 119.691C181.444 119.984 181.935 120.434 182.279 120.99C182.622 121.546 182.804 122.186 182.805 122.84V127.641Z" fill="#E1E4EC" stroke="#939EB9" stroke-linejoin="round"/>
<path d="M122.973 140.085C127.832 140.085 131.771 136.146 131.771 131.287C131.771 126.427 127.832 122.488 122.973 122.488C118.114 122.488 114.175 126.427 114.175 131.287C114.175 136.146 118.114 140.085 122.973 140.085Z" fill="#939EB9" fill-opacity="0.1"/>
<path d="M137.051 161.202V194.574" stroke="#939EB9" stroke-linejoin="round"/>
<path d="M42.0265 194.637H101.858V122.777L42.0265 152.143V194.637Z" fill="white"/>
<path d="M42.0265 194.637H101.858V122.777L42.0265 152.143V194.637Z" fill="#939EB9" fill-opacity="0.1" stroke="#939EB9" stroke-linejoin="round"/>
<path d="M101.858 110.108L35.174 142.921C34.5894 143.213 34.0977 143.662 33.754 144.218C33.4103 144.774 33.2283 145.414 33.2283 146.067V150.868C33.227 151.47 33.3799 152.062 33.6726 152.588C33.9652 153.113 34.3878 153.555 34.8998 153.871C35.4119 154.187 35.9964 154.366 36.5975 154.392C37.1986 154.417 37.7962 154.288 38.3332 154.017L101.858 122.777V110.108Z" fill="#939EB9" fill-opacity="0.1" stroke="#939EB9" stroke-linejoin="round"/>
<path d="M93.0575 164.721C93.0575 163.788 92.6867 162.893 92.0268 162.233C91.3669 161.573 90.4719 161.202 89.5387 161.202H54.3461C53.8838 161.202 53.4259 161.293 52.9987 161.47C52.5715 161.646 52.1833 161.905 51.8563 162.232C51.5292 162.559 51.2698 162.947 51.0928 163.374C50.9158 163.801 50.8247 164.259 50.8247 164.721V194.637H93.0575V164.721Z" fill="#939EB9" fill-opacity="0.1" stroke="#939EB9" stroke-linejoin="round"/>
<path d="M50.8247 170H93.0575" stroke="#939EB9" stroke-linejoin="round"/>
<path d="M50.8247 178.799H93.0575" stroke="#939EB9" stroke-linejoin="round"/>
<path d="M50.8247 187.597H93.0575" stroke="#939EB9" stroke-linejoin="round"/>
<path d="M122.973 140.085C127.832 140.085 131.771 136.146 131.771 131.287C131.771 126.427 127.832 122.488 122.973 122.488C118.114 122.488 114.175 126.427 114.175 131.287C114.175 136.146 118.114 140.085 122.973 140.085Z" fill="#939EB9" fill-opacity="0.1" stroke="#939EB9" stroke-linejoin="round"/>
<path d="M198.175 178.749V168.071" stroke="#939EB9" stroke-linejoin="round"/>
<path d="M208.818 158.987C208.818 160.384 208.543 161.768 208.008 163.059C207.474 164.35 206.69 165.523 205.702 166.511C204.714 167.499 203.541 168.283 202.25 168.818C200.959 169.353 199.575 169.628 198.178 169.628C196.78 169.628 195.397 169.353 194.106 168.818C192.815 168.283 191.642 167.499 190.653 166.511C189.665 165.523 188.882 164.35 188.347 163.059C187.812 161.768 187.537 160.384 187.537 158.987C187.537 154.474 193.81 132.69 196.724 122.822C196.814 122.506 197.005 122.228 197.267 122.03C197.529 121.832 197.849 121.725 198.178 121.725C198.506 121.725 198.826 121.832 199.088 122.03C199.351 122.228 199.541 122.506 199.632 122.822C202.542 132.69 208.818 154.474 208.818 158.987Z" fill="#939EB9" fill-opacity="0.1"/>
<path d="M208.818 158.987C208.818 160.384 208.543 161.768 208.008 163.059C207.474 164.35 206.69 165.523 205.702 166.511C204.714 167.499 203.541 168.283 202.25 168.818C200.959 169.353 199.575 169.628 198.178 169.628C196.78 169.628 195.397 169.353 194.106 168.818C192.815 168.283 191.642 167.499 190.653 166.511C189.665 165.523 188.882 164.35 188.347 163.059C187.812 161.768 187.537 160.384 187.537 158.987C187.537 154.474 193.81 132.69 196.724 122.822C196.814 122.506 197.005 122.228 197.267 122.03C197.529 121.832 197.849 121.725 198.178 121.725C198.506 121.725 198.826 121.832 199.088 122.03C199.351 122.228 199.541 122.506 199.632 122.822C202.542 132.69 208.818 154.474 208.818 158.987Z" fill="#939EB9" fill-opacity="0.1" stroke="#939EB9" stroke-linejoin="round"/>
<path d="M56.6937 65.8689C55.6003 65.875 54.5175 66.0839 53.5002 66.4848C52.9503 63.024 51.1839 59.8728 48.5187 57.5977C45.8535 55.3225 42.4642 54.0726 38.9599 54.0726C35.4557 54.0726 32.0664 55.3225 29.4011 57.5977C26.7359 59.8728 24.9696 63.024 24.4197 66.4848C23.2054 66.0137 21.9022 65.816 20.6028 65.9059C19.3034 65.9957 18.0398 66.3709 16.9019 67.0047C15.7641 67.6385 14.7799 68.5154 14.0195 69.5729C13.2591 70.6304 12.7411 71.8425 12.5025 73.1229C12.2639 74.4034 12.3105 75.7207 12.6389 76.9811C12.9674 78.2415 13.5697 79.414 14.4029 80.4151C15.2361 81.4162 16.2797 82.2214 17.4595 82.7733C18.6393 83.3251 19.9263 83.6101 21.2288 83.608H56.6937C59.0461 83.608 61.3021 82.6735 62.9654 81.0101C64.6288 79.3468 65.5633 77.0908 65.5633 74.7384C65.5633 72.3861 64.6288 70.1301 62.9654 68.4667C61.3021 66.8033 59.0461 65.8689 56.6937 65.8689Z" fill="white" stroke="#939EB9" stroke-linejoin="round"/>
</g>
<defs>
<clipPath id="clip0">
<rect width="230" height="230" fill="white"/>
</clipPath>
</defs>
</svg>
