<svg xmlns="http://www.w3.org/2000/svg" viewBox="0 0 100 100">
  <defs>
    <style>
      .a {
        fill: #F4F5F8;
      }

      .b {
        fill: #fff;
      }

      .c {
        fill: none;
      }

      .c, .e {
        stroke: #959EB7;
        stroke-linecap: round;
        stroke-linejoin: round;
      }

      .d, .e {
        fill: #E1E4EB;
      }
    </style>
  </defs>
  <title>share-house-1--real-estate-construction-building-share-HOUSE-PROPERTY-BUY-SELL-RENT-BUSINESS-hand</title>
  <g>
    <circle class="a" cx="50" cy="54.355" r="40"/>
    <g>
      <g>
        <path class="b" d="M47.1,63.666H24.781V13.083A1.487,1.487,0,0,1,26.269,11.6h19.34A1.487,1.487,0,0,1,47.1,13.083Z"/>
        <path class="b" d="M61.974,63.666H47.1V20.522L60.6,27.275a2.48,2.48,0,0,1,1.371,2.218Z"/>
        <path class="c" d="M61.974,63.666H47.1V20.522L60.6,27.275a2.48,2.48,0,0,1,1.371,2.218Z"/>
        <line class="c" x1="59.246" y1="26.597" x2="59.246" y2="19.778"/>
        <path class="c" d="M47.1,63.666H24.781V13.083A1.487,1.487,0,0,1,26.269,11.6h19.34A1.487,1.487,0,0,1,47.1,13.083Z"/>
        <line class="c" x1="27.632" y1="11.596" x2="27.632" y2="5.645"/>
        <line class="c" x1="30.732" y1="11.596" x2="30.732" y2="7.876"/>
        <g>
          <rect class="d" x="27.756" y="16.059" width="5.951" height="5.951" rx="1.169"/>
          <rect class="c" x="27.756" y="16.059" width="5.951" height="5.951" rx="1.169"/>
        </g>
        <g>
          <rect class="d" x="38.17" y="16.059" width="5.951" height="5.951" rx="1.169"/>
          <rect class="c" x="38.17" y="16.059" width="5.951" height="5.951" rx="1.169"/>
        </g>
        <g>
          <rect class="d" x="27.756" y="26.597" width="5.951" height="5.951" rx="1.169"/>
          <rect class="c" x="27.756" y="26.597" width="5.951" height="5.951" rx="1.169"/>
        </g>
        <g>
          <rect class="d" x="38.17" y="26.597" width="5.951" height="5.951" rx="1.169"/>
          <rect class="c" x="38.17" y="26.597" width="5.951" height="5.951" rx="1.169"/>
        </g>
        <g>
          <rect class="d" x="27.756" y="36.705" width="5.951" height="5.951" rx="1.169"/>
          <rect class="c" x="27.756" y="36.705" width="5.951" height="5.951" rx="1.169"/>
        </g>
        <g>
          <rect class="d" x="38.17" y="36.705" width="5.951" height="5.951" rx="1.169"/>
          <rect class="c" x="38.17" y="36.705" width="5.951" height="5.951" rx="1.169"/>
        </g>
        <g>
          <rect class="d" x="27.756" y="47.119" width="5.951" height="5.951" rx="1.169"/>
          <rect class="c" x="27.756" y="47.119" width="5.951" height="5.951" rx="1.169"/>
        </g>
        <g>
          <rect class="d" x="38.17" y="47.119" width="5.951" height="5.951" rx="1.169"/>
          <rect class="c" x="38.17" y="47.119" width="5.951" height="5.951" rx="1.169"/>
        </g>
        <g>
          <rect class="d" x="51.254" y="29.572" width="5.951" height="5.951" rx="1.169"/>
          <rect class="c" x="51.254" y="29.572" width="5.951" height="5.951" rx="1.169"/>
        </g>
        <g>
          <rect class="d" x="51.254" y="39.862" width="5.951" height="5.951" rx="1.169"/>
          <rect class="c" x="51.254" y="39.862" width="5.951" height="5.951" rx="1.169"/>
        </g>
      </g>
      <g>
        <polygon class="b" points="59.753 40.509 59.753 72.89 77.965 72.89 77.965 49.615 59.753 40.509"/>
        <polygon class="c" points="59.753 40.509 59.753 72.89 77.965 72.89 77.965 49.615 59.753 40.509"/>
        <path class="d" d="M73.967,58.649a.888.888,0,0,0-.888-.889H64.195a.889.889,0,0,0-.889.889V72.89H73.967Z"/>
        <path class="c" d="M73.967,58.649a.888.888,0,0,0-.888-.889H64.195a.889.889,0,0,0-.889.889V72.89H73.967Z"/>
        <path class="e" d="M80.186,49.289a.888.888,0,0,1-1.286.794l-20.611-10.3a.89.89,0,0,1-.491-.8V37.771a.889.889,0,0,1,1.286-.794L79.695,47.282a.889.889,0,0,1,.491.8Z"/>
        <circle class="d" cx="65.083" cy="50.209" r="2.221"/>
        <line class="c" x1="68.637" y1="57.76" x2="68.637" y2="72.89"/>
        <g>
          <polygon class="b" points="44.65 66.2 59.753 66.2 59.753 48.061 44.65 55.474 44.65 66.2"/>
          <polygon class="c" points="44.65 67.297 59.753 67.297 59.753 48.061 44.65 55.474 44.65 67.297"/>
          <path class="e" d="M59.753,44.862,42.92,53.146a.887.887,0,0,0-.491.794v1.212a.888.888,0,0,0,1.286.8l16.038-7.886Z"/>
          <path class="e" d="M57.532,58.649a.889.889,0,0,0-.889-.889H47.759a.889.889,0,0,0-.888.889V67.3H57.532Z"/>
          <line class="c" x1="46.871" y1="59.981" x2="57.532" y2="59.981"/>
          <line class="c" x1="46.871" y1="62.202" x2="57.532" y2="62.202"/>
        </g>
        <circle class="c" cx="65.083" cy="50.209" r="2.221"/>
      </g>
      <g>
        <path class="b" d="M32.17,77.971a127.406,127.406,0,0,0,14.753,3.81,29.029,29.029,0,0,0,16.729-1.595c5.2-2.119,12.4-5.256,20.011-9.186a3.173,3.173,0,0,0,1.73-3.392,3.056,3.056,0,0,0-3.83-2.325l-18.5,7.953a5.589,5.589,0,0,1-2.209.455H56.68c3.925,0,6.415-1.208,7.3-3.545A2.125,2.125,0,0,0,61.977,67.3H52.309c-1.343,0-5.766-6.393-12.083-6.393H32.17Z"/>
        <path class="b" d="M25.776,80.085h4.849a1.545,1.545,0,0,0,1.545-1.544V60.317a1.545,1.545,0,0,0-1.545-1.545H25.776Z"/>
        <path class="c" d="M25.776,80.085h4.849a1.545,1.545,0,0,0,1.545-1.544V60.317a1.545,1.545,0,0,0-1.545-1.545H25.776Z"/>
        <rect class="d" x="12.988" y="56.64" width="12.787" height="25.576" rx="1.544"/>
        <rect class="c" x="12.988" y="56.64" width="12.787" height="25.576" rx="1.544"/>
        <path class="c" d="M32.17,77.971a127.406,127.406,0,0,0,14.753,3.81,29.029,29.029,0,0,0,16.729-1.595c5.2-2.119,12.4-5.256,20.011-9.186a3.173,3.173,0,0,0,1.73-3.392,3.056,3.056,0,0,0-3.83-2.325l-18.5,7.953a5.589,5.589,0,0,1-2.209.455H56.68c3.925,0,6.415-1.208,7.3-3.545A2.125,2.125,0,0,0,61.977,67.3H52.309c-1.343,0-5.766-6.393-12.083-6.393H32.17Z"/>
        <line class="c" x1="56.68" y1="73.691" x2="48.567" y2="73.691"/>
      </g>
    </g>
  </g>
</svg>
