<svg xmlns="http://www.w3.org/2000/svg" viewBox="0 0 100 100">
  <defs>
    <style>
      .a {
        fill: #F4F5F8;
      }

      .b {
        fill: none;
      }

      .b, .e, .f {
        stroke: #959EB7;
        stroke-linecap: round;
        stroke-linejoin: round;
      }

      .c, .e {
        fill: #E1E4EB;
      }

      .d, .f {
        fill: #fff;
      }
    </style>
  </defs>
  <title>house-15--real-estate-construction-houses-mansion-STORY-FLOOR-DWELLING-HOUSING-HOME-LIVING-SPACE</title>
  <g>
    <g>
      <path class="a" d="M90,50.129a40,40,0,1,0-76.436,16.5H86.436A39.841,39.841,0,0,0,90,50.129Z"/>
      <g>
        <line class="b" x1="11" y1="66.629" x2="89" y2="66.629"/>
        <line class="b" x1="6.5" y1="66.629" x2="9" y2="66.629"/>
        <line class="b" x1="91" y1="66.629" x2="93.5" y2="66.629"/>
      </g>
    </g>
    <g>
      <rect class="c" x="19.482" y="21.029" width="56.955" height="14.586" rx="1"/>
      <rect class="b" x="19.482" y="21.029" width="56.955" height="14.586" rx="1"/>
      <path class="d" d="M42.981,36.029a1.15,1.15,0,0,1-.771-.3L31.984,26.585,21.758,35.734a1.148,1.148,0,0,1-.887.289V68.954H43.1V36.024C43.059,36.027,43.02,36.029,42.981,36.029Z"/>
      <polygon class="b" points="43.097 68.954 20.871 68.954 20.871 35.615 31.984 25.891 43.097 35.615 43.097 68.954"/>
      <rect class="d" x="43.097" y="35.615" width="31.95" height="33.34"/>
      <rect class="b" x="43.097" y="35.615" width="31.95" height="33.34"/>
      <path class="c" d="M37.93,65.482H26.038a1,1,0,0,1-1-1V54.368H38.93V64.482A1,1,0,0,1,37.93,65.482Z"/>
      <path class="b" d="M37.93,65.482H26.038a1,1,0,0,1-1-1V54.368H38.93V64.482A1,1,0,0,1,37.93,65.482Z"/>
      <path class="c" d="M70.575,65.482h-10.5a1,1,0,0,1-1-1V54.368h12.5V64.482A1,1,0,0,1,70.575,65.482Z"/>
      <path class="b" d="M70.575,65.482h-10.5a1,1,0,0,1-1-1V54.368h12.5V64.482A1,1,0,0,1,70.575,65.482Z"/>
      <path class="e" d="M71.884,53.79a.372.372,0,0,1-.309.578H43.1V50.2H68.871a1.159,1.159,0,0,1,.964.515Z"/>
      <path class="c" d="M43.1,68.954h32.34a1,1,0,0,1,1,1V75.9H43.1Z"/>
      <path class="c" d="M20.482,68.954H43.1V75.9H19.482V69.954A1,1,0,0,1,20.482,68.954Z"/>
      <path class="b" d="M43.1,68.954h32.34a1,1,0,0,1,1,1V75.9H43.1Z"/>
      <rect class="c" x="29.206" y="41.866" width="5.557" height="8.335"/>
      <rect class="b" x="29.206" y="41.866" width="5.557" height="8.335"/>
      <rect class="b" x="29.206" y="54.368" width="5.557" height="11.113"/>
      <rect class="b" x="62.545" y="54.368" width="5.557" height="11.113"/>
      <path class="f" d="M53.516,68.954H43.1V57.147h9.419a1,1,0,0,1,1,1Z"/>
      <path class="e" d="M24.729,53.79a.371.371,0,0,0,.309.578H38.93a.372.372,0,0,0,.309-.578L37.19,50.716a1.159,1.159,0,0,0-.964-.515H27.741a1.157,1.157,0,0,0-.963.515Z"/>
      <rect class="f" x="28.048" y="39.088" width="7.872" height="2.778" rx="1"/>
      <rect class="f" x="46.802" y="39.088" width="7.872" height="2.778" rx="1"/>
      <rect class="f" x="60.693" y="39.088" width="7.872" height="2.778" rx="1"/>
      <path class="f" d="M74.353,13.157H70.186a1.158,1.158,0,1,0,0,2.315h4.167a1.158,1.158,0,1,0,0-2.315Z"/>
      <rect class="c" x="47.959" y="41.866" width="5.557" height="8.335"/>
      <rect class="b" x="47.959" y="41.866" width="5.557" height="8.335"/>
      <rect class="c" x="61.851" y="41.866" width="5.557" height="8.335"/>
      <rect class="b" x="61.851" y="41.866" width="5.557" height="8.335"/>
      <path class="f" d="M67.54,25.554l-2.911-1.747-2.911,1.747a1.155,1.155,0,0,0-.562.992v5.6H68.1v-5.6A1.157,1.157,0,0,0,67.54,25.554Z"/>
      <path class="c" d="M66.018,32.142H63.24V28.669a1.389,1.389,0,0,1,1.389-1.389h0a1.389,1.389,0,0,1,1.389,1.389Z"/>
      <path class="b" d="M66.018,32.142H63.24V28.669a1.389,1.389,0,0,1,1.389-1.389h0a1.389,1.389,0,0,1,1.389,1.389Z"/>
      <path class="f" d="M70.186,15.472h4.167V23.5a1,1,0,0,1-1,1H71.186a1,1,0,0,1-1-1Z"/>
      <rect class="f" x="43.097" y="68.954" width="10.419" height="6.946"/>
      <path class="e" d="M56.294,75.9H53.516V64.092h1.778a1,1,0,0,1,1,1Z"/>
      <path class="e" d="M50.737,68.954H45.875V60.925a1,1,0,0,1,1-1h2.862a1,1,0,0,1,1,1Z"/>
      <path class="b" d="M20.482,68.954H43.1V75.9H19.482V69.954A1,1,0,0,1,20.482,68.954Z"/>
      <rect class="b" x="43.097" y="71.038" width="10.419" height="2.084"/>
      <line class="b" x1="28.102" y1="30.058" x2="35.865" y2="30.058"/>
      <line class="b" x1="31.984" y1="26.585" x2="31.984" y2="30.058"/>
      <line class="b" x1="61.156" y1="32.142" x2="61.156" y2="33.531"/>
      <line class="b" x1="68.102" y1="32.142" x2="68.102" y2="33.531"/>
      <line class="b" x1="24.344" y1="73.122" x2="37.541" y2="73.122"/>
      <line class="b" x1="59.767" y1="73.122" x2="72.964" y2="73.122"/>
      <path class="e" d="M73.928,75.7l.005-.01.01.01h13.13a1.816,1.816,0,0,0-1.695-2.491,1.764,1.764,0,0,0-.41.082,3.866,3.866,0,0,0,.045-.447,4.011,4.011,0,0,0-7.684-1.615,2.893,2.893,0,0,0-3.962,2.4,1.789,1.789,0,0,0-1.125-.423,1.825,1.825,0,0,0-1.825,1.824,1.8,1.8,0,0,0,.13.667Z"/>
      <path class="e" d="M42.981,36.029a1.15,1.15,0,0,1-.771-.3L31.984,26.585,21.758,35.734a1.157,1.157,0,1,1-1.543-1.725l11-9.84a1.158,1.158,0,0,1,1.544,0l11,9.84a1.157,1.157,0,0,1-.772,2.02Z"/>
    </g>
  </g>
</svg>
