<svg xmlns="http://www.w3.org/2000/svg" xmlns:xlink="http://www.w3.org/1999/xlink" viewBox="0 0 100 100"><circle cx="50" cy="53.621" r="40" fill="#f4f5f8"/><g fill="#fff"><use xlink:href="#B"/><use xlink:href="#C"/></g><use xlink:href="#C" fill="none" stroke="#959eb7" stroke-linejoin="round"/><rect x="25.965" y="63.132" width="9.685" height="19.37" rx="1.114" fill="#e1e4eb"/><g fill="none" stroke="#959eb7" stroke-linejoin="round"><rect x="25.965" y="63.132" width="9.685" height="19.37" rx="1.114"/><use xlink:href="#B"/><path d="M59.055 76.045h-6.899M30.527 31.291l12.98-11.072 12.981 6.993 12.98-17.337" stroke-linecap="round"/></g><g fill="#fff"><use xlink:href="#D"/><use xlink:href="#E"/><use xlink:href="#F"/><path d="M61.055,38.311a.874.874,0,0,0-.874-.874H52.8a.874.874,0,0,0-.874.874V58.5h9.134Z"/></g><g stroke="#959eb7" stroke-linejoin="round"><g fill="#e1e4eb"><circle cx="30.527" cy="31.291" r="3.496"/><circle cx="43.507" cy="20.219" r="3.496"/><circle cx="56.488" cy="27.212" r="3.496"/><circle cx="69.468" cy="9.875" r="3.496"/></g><g fill="none"><use xlink:href="#D"/><use xlink:href="#E"/><use xlink:href="#F"/><path d="M61.055,38.311a.874.874,0,0,0-.874-.874H52.8a.874.874,0,0,0-.874.874V58.5h9.134Z"/></g></g><defs ><path id="B" d="M40.492,79.287a96.55,96.55,0,0,0,11.174,2.885,21.987,21.987,0,0,0,12.669-1.208c3.939-1.605,9.393-3.98,15.156-6.957a2.4,2.4,0,0,0,1.31-2.569,2.314,2.314,0,0,0-2.9-1.76L63.892,75.7a4.242,4.242,0,0,1-1.673.344H59.055c2.972,0,4.858-.915,5.531-2.685A1.61,1.61,0,0,0,63.067,71.2H55.744c-1.016,0-4.367-4.842-9.151-4.842h-6.1Z"/><path id="C" d="M35.649,80.888h3.729a1.114,1.114,0,0,0,1.114-1.114V65.86a1.114,1.114,0,0,0-1.114-1.114H35.649Z"/><path id="D" d="M34.22 47.533h-7.386a.874.874 0 0 0-.874.874V58.5h9.134V48.4a.874.874 0 0 0-.874-.867z"/><path id="E" d="M47.2 32.629h-7.386a.874.874 0 0 0-.874.874v25h9.135v-25a.874.874 0 0 0-.875-.874z"/><path id="F" d="M74.036,23.014a.874.874,0,0,0-.875-.874H65.775a.874.874,0,0,0-.874.874V58.5h9.135Z"/></defs></svg>