<svg xmlns="http://www.w3.org/2000/svg" viewBox="0 0 100 100">
  <defs>
    <style>
      .a {
        fill: #F4F5F8;
      }

      .b, .e, .g {
        fill: #fff;
      }

      .c {
        fill: none;
      }

      .c, .e, .f, .g, .h {
        stroke: #959EB7;
        stroke-linejoin: round;
      }

      .c, .e, .f {
        stroke-linecap: round;
      }

      .d, .f, .h {
        fill: #E1E4EB;
      }

      .i {
        fill: #ffe9bd;
      }
    </style>
  </defs>
  <title>coworker-1-1--teamwork-teams-COLLABORATION-GROUP-CREW-COOPERATE-full</title>
  <g>
    <circle class="a" cx="50.25" cy="51.506" r="40"/>
    <g>
      <g>
        <g>
          <path class="b" d="M40.162,47.886l-1.137-2.019a1.424,1.424,0,0,1,.542-1.941l2.483-1.4a1.425,1.425,0,0,1,1.941.542l1.137,2.02a1.874,1.874,0,0,1-.466,2.416,9.846,9.846,0,0,1-2.191,1.234A1.876,1.876,0,0,1,40.162,47.886Z"/>
          <path class="c" d="M40.162,47.886l-1.137-2.019a1.424,1.424,0,0,1,.542-1.941l2.483-1.4a1.425,1.425,0,0,1,1.941.542l1.137,2.02a1.874,1.874,0,0,1-.466,2.416,9.846,9.846,0,0,1-2.191,1.234A1.876,1.876,0,0,1,40.162,47.886Z"/>
        </g>
        <g>
          <g>
            <path class="d" d="M8.916,60c0-8.054,6.278-14.952,14.329-15.163A14.725,14.725,0,0,1,38.366,59.5a1.9,1.9,0,1,0,3.8.053v-4.75h5.7V59.3a7.772,7.772,0,0,1-7.095,7.844,7.6,7.6,0,0,1-8.105-7.583v6.456A27.624,27.624,0,0,0,35.282,77.4,12,12,0,0,1,36.7,83.544H12.241A21.2,21.2,0,0,1,13.3,76.416H8.916Z"/>
            <path class="c" d="M12.241,83.544A21.2,21.2,0,0,1,13.3,76.416H8.916V60c0-8.054,6.278-14.952,14.329-15.163A14.725,14.725,0,0,1,38.366,59.5a1.9,1.9,0,1,0,3.8.053v-4.75h5.7V59.3a7.772,7.772,0,0,1-7.095,7.844,7.6,7.6,0,0,1-8.105-7.583v6.456A27.624,27.624,0,0,0,35.282,77.4,12,12,0,0,1,36.7,83.544"/>
            <line class="c" x1="14.616" y1="58.366" x2="14.616" y2="76.416"/>
            <path class="b" d="M26.887,40.811v4.97a4.592,4.592,0,0,1-6.65,0v-4.97Z"/>
            <path class="c" d="M26.887,40.811v4.97a4.592,4.592,0,0,1-6.65,0v-4.97Z"/>
            <polyline class="c" points="29.93 46.237 23.562 60.266 17.37 46.276"/>
            <circle class="e" cx="23.562" cy="62.641" r="2.375"/>
            <circle class="f" cx="23.562" cy="62.641" r="0.95"/>
            <path class="e" d="M12.241,81.166a2.375,2.375,0,0,0,2.375-2.375V76.416H9.866v2.375A2.375,2.375,0,0,0,12.241,81.166Z"/>
          </g>
          <g>
            <path class="e" d="M67.341,79.029a2.386,2.386,0,1,1-4.75,0V62.166h4.75Z"/>
            <path class="d" d="M87.766,84.019c0-5.7-2.375-7.128-2.375-7.128V65.661l.625-1.667a5.066,5.066,0,0,0,.318-1.828h3.807a.95.95,0,0,0,.95-.95v-1c0-8.079-6.35-15.153-14.725-15.153S61.641,52.14,61.641,60.219v1a.95.95,0,0,0,.95.95H66.4a5.088,5.088,0,0,0,.318,1.828l.625,1.667v11.23s-2.375,1.428-2.375,7.128Z"/>
            <path class="c" d="M87.766,84.019c0-5.7-2.375-7.128-2.375-7.128V65.661l.625-1.667a5.066,5.066,0,0,0,.318-1.828h3.807a.95.95,0,0,0,.95-.95v-1c0-8.079-6.35-15.153-14.725-15.153S61.641,52.14,61.641,60.219v1a.95.95,0,0,0,.95.95H66.4a5.088,5.088,0,0,0,.318,1.828l.625,1.667v11.23s-2.375,1.428-2.375,7.128"/>
            <path class="e" d="M67.36,55.736v2.375A5.888,5.888,0,0,1,66.8,60.2a5.106,5.106,0,0,0-.411,1.97"/>
            <path class="e" d="M72.772,49.637a1.9,1.9,0,0,0,2.7-.638l.89-1.558L73.453,45.36a14.237,14.237,0,0,0-4.475,1.747Z"/>
            <path class="e" d="M79.96,49.637a1.9,1.9,0,0,1-2.7-.638l-.89-1.558,2.913-2.081a14.237,14.237,0,0,1,4.475,1.747Z"/>
            <path class="b" d="M79.691,41.266v4.515a4.592,4.592,0,0,1-6.65,0V41.266Z"/>
            <path class="c" d="M79.691,41.266v4.515a4.592,4.592,0,0,1-6.65,0V41.266Z"/>
            <path class="g" d="M86.379,75.84A.949.949,0,0,1,85,76.858c-4.337-2.331-6.33-4.61-8.718-9.578L67.264,48.534A1.425,1.425,0,1,1,69.833,47.3l9.014,18.746c2,4.155,3.517,6.042,6.835,7.938a.952.952,0,0,1,.461.644Z"/>
            <path class="h" d="M77.433,64.2l-1.713.823a.949.949,0,0,1-1.268-.444h0a.95.95,0,0,1,.445-1.268l1.712-.824a.95.95,0,0,1,1.268.445h0A.951.951,0,0,1,77.433,64.2Z"/>
            <path class="e" d="M85.372,55.736v2.375A5.888,5.888,0,0,0,85.93,60.2a5.106,5.106,0,0,1,.411,1.97"/>
            <path class="e" d="M90.139,62.166V79.029a2.5,2.5,0,0,1-2.375,2.612,1.989,1.989,0,0,1-.579-.085,2.568,2.568,0,0,1-1.8-2.527V65.662l.627-1.672a5.016,5.016,0,0,0,.314-1.824Z"/>
          </g>
          <g>
            <rect class="e" x="40.741" y="73.091" width="18.05" height="3.325"/>
            <rect class="f" x="46.916" y="73.091" width="5.7" height="3.325"/>
            <rect class="d" x="40.741" y="76.416" width="18.05" height="9.975"/>
            <polyline class="c" points="40.741 86.391 40.741 76.416 58.791 76.416 58.791 86.391"/>
            <line class="c" x1="49.766" y1="79.266" x2="49.766" y2="86.391"/>
            <path class="b" d="M49.054,44.133A15,15,0,0,0,35.041,59.257v.534a.95.95,0,0,0,.95.95h4.75v12.35h18.05V60.741h4.75a.95.95,0,0,0,.95-.95v-.95A14.726,14.726,0,0,0,49.054,44.133Z"/>
            <path class="c" d="M49.054,44.133A15,15,0,0,0,35.041,59.257v.534a.95.95,0,0,0,.95.95h4.75v12.35h18.05V60.741h4.75a.95.95,0,0,0,.95-.95v-.95A14.726,14.726,0,0,0,49.054,44.133Z"/>
            <polygon class="b" points="53.091 46.491 49.766 49.816 46.441 46.491 46.441 41.266 53.091 41.266 53.091 46.491"/>
            <polygon class="c" points="53.091 46.491 49.766 49.816 46.441 46.491 46.441 41.266 53.091 41.266 53.091 46.491"/>
            <line class="c" x1="40.741" y1="57.416" x2="40.741" y2="58.366"/>
            <line class="c" x1="58.791" y1="57.416" x2="58.791" y2="58.366"/>
            <path class="e" d="M49.766,49.816c3.333,2.081,2.275,1.431,3.037,1.9a.944.944,0,0,0,1.288-.262,15.99,15.99,0,0,0,1.779-5.8.947.947,0,0,0-.415-.914l-2.364-1.576C52.588,45.712,51.761,48.087,49.766,49.816Z"/>
            <path class="e" d="M49.766,49.816c-3.333,2.081-2.275,1.431-3.037,1.9a.944.944,0,0,1-1.288-.262,16.01,16.01,0,0,1-1.779-5.8.947.947,0,0,1,.415-.914l2.364-1.576C46.945,45.712,47.771,48.087,49.766,49.816Z"/>
            <rect class="f" x="40.741" y="58.366" width="18.05" height="4.275"/>
            <path class="e" d="M58.791,60.741v9.006a10.368,10.368,0,0,1-3.362,7.63l3.353,3.353a15.106,15.106,0,0,0,4.759-10.983V60.741Z"/>
            <path class="e" d="M40.741,60.741v9.006a10.368,10.368,0,0,0,3.362,7.63L40.75,80.73a15.106,15.106,0,0,1-4.759-10.983V60.741Z"/>
          </g>
          <line class="c" x1="32.666" y1="59.556" x2="32.666" y2="58.131"/>
        </g>
        <g>
          <circle class="b" cx="23.562" cy="13.241" r="4.75"/>
          <circle class="c" cx="23.562" cy="13.241" r="4.75"/>
          <path class="e" d="M33.062,30.341V27.966a9.5,9.5,0,1,0-19,0v2.375a1.9,1.9,0,0,0,0,3.8c.04,0,.077-.009.116-.012a9.487,9.487,0,0,0,18.767,0c.04,0,.077.012.117.012a1.9,1.9,0,1,0,0-3.8Z"/>
          <circle class="d" cx="18.099" cy="34.379" r="1.188"/>
          <circle class="d" cx="29.024" cy="34.379" r="1.188"/>
          <path class="c" d="M20.7,36.791a4.145,4.145,0,0,0,5.716,0"/>
          <path class="c" d="M28.787,31.291a1.548,1.548,0,0,0-2.858,0"/>
          <path class="c" d="M21.179,31.291a1.548,1.548,0,0,0-2.858,0"/>
          <path class="b" d="M34.487,27.016A10.925,10.925,0,0,0,23.562,16.091c-6.034,0-11.4,4.891-11.4,10.925v9.2a11.124,11.124,0,0,0,2.777,7.354.475.475,0,0,0,.825-.39c-.658-4.071-2.147-10.862,1.818-13.978a9.429,9.429,0,0,0,3.605-5.512c8.075,0,9.5,7.125,13.3,7.125Z"/>
          <path class="c" d="M34.487,27.016A10.925,10.925,0,0,0,23.562,16.091c-6.034,0-11.4,4.891-11.4,10.925v9.2a11.124,11.124,0,0,0,2.777,7.354.475.475,0,0,0,.825-.39c-.658-4.071-2.147-10.862,1.818-13.978a9.429,9.429,0,0,0,3.605-5.512c8.075,0,9.5,7.125,13.3,7.125Z"/>
        </g>
        <g>
          <path class="b" d="M85.866,30.341V27.966a9.5,9.5,0,1,0-19,0v2.375a1.9,1.9,0,0,0,0,3.8c.04,0,.077-.009.117-.012a9.487,9.487,0,0,0,18.767,0c.039,0,.076.012.116.012a1.9,1.9,0,1,0,0-3.8Z"/>
          <path class="i" d="M76.366,21.314a9.877,9.877,0,0,1,9.5,7.192v-.54a9.5,9.5,0,1,0-19,0v.54A9.877,9.877,0,0,1,76.366,21.314Z"/>
          <path class="c" d="M85.866,30.341V27.966a9.5,9.5,0,1,0-19,0v2.375a1.9,1.9,0,0,0,0,3.8c.04,0,.077-.009.117-.012a9.487,9.487,0,0,0,18.767,0c.039,0,.076.012.116.012a1.9,1.9,0,1,0,0-3.8Z"/>
          <circle class="d" cx="70.904" cy="34.379" r="1.187"/>
          <circle class="d" cx="81.829" cy="34.379" r="1.187"/>
          <path class="c" d="M73.508,36.791a4.145,4.145,0,0,0,5.716,0"/>
          <path class="c" d="M81.591,31.291a1.548,1.548,0,0,0-2.858,0"/>
          <path class="c" d="M73.983,31.291a1.548,1.548,0,0,0-2.858,0"/>
          <path class="b" d="M86.929,20.843a6.324,6.324,0,0,0-6.288-3.327l-1.729-.611a11.265,11.265,0,0,0-9.478.917l-.1.06a11.151,11.151,0,0,0-4.955,6.1,23.282,23.282,0,0,0-.982,3.884c-.471,3.5.662,10.622,8.081,13.044l.234.077a9.506,9.506,0,0,1-4.726-6.858c-.04,0-.077.012-.117.012a1.9,1.9,0,0,1,0-3.8h.161a2.528,2.528,0,0,0,2.022-1.011,2.527,2.527,0,0,1,1.772-1l1.591-.158a9.778,9.778,0,0,0,6.8-4.482,9.477,9.477,0,0,0,6.65,6.65,1.9,1.9,0,1,1,0,3.8c-.04,0-.077-.009-.116-.012a9.515,9.515,0,0,1-5.243,7.137h.134a7.123,7.123,0,0,1,1.425,4.275,14.349,14.349,0,0,1-1.4,6.24.876.876,0,0,0,1.051,1.212,10.591,10.591,0,0,0,7.476-10.122V29.952A19.474,19.474,0,0,0,86.929,20.843Z"/>
          <path class="c" d="M86.929,20.843a6.324,6.324,0,0,0-6.288-3.327l-1.729-.611a11.265,11.265,0,0,0-9.478.917l-.1.06a11.151,11.151,0,0,0-4.955,6.1,23.282,23.282,0,0,0-.982,3.884c-.471,3.5.662,10.622,8.081,13.044l.234.077a9.506,9.506,0,0,1-4.726-6.858c-.04,0-.077.012-.117.012a1.9,1.9,0,0,1,0-3.8h.161a2.528,2.528,0,0,0,2.022-1.011,2.527,2.527,0,0,1,1.772-1l1.591-.158a9.778,9.778,0,0,0,6.8-4.482,9.477,9.477,0,0,0,6.65,6.65,1.9,1.9,0,1,1,0,3.8c-.04,0-.077-.009-.116-.012a9.515,9.515,0,0,1-5.243,7.137h.134a7.123,7.123,0,0,1,1.425,4.275,14.349,14.349,0,0,1-1.4,6.24.876.876,0,0,0,1.051,1.212,10.591,10.591,0,0,0,7.476-10.122V29.952A19.474,19.474,0,0,0,86.929,20.843Z"/>
        </g>
      </g>
      <g>
        <path class="b" d="M59.267,31.291V28.916a9.5,9.5,0,0,0-19,0v2.375a1.9,1.9,0,0,0,0,3.8c.04,0,.077-.009.116-.012a9.487,9.487,0,0,0,18.767,0c.04,0,.077.012.117.012a1.9,1.9,0,0,0,0-3.8Z"/>
        <path class="c" d="M59.267,31.291V28.916a9.5,9.5,0,0,0-19,0v2.375a1.9,1.9,0,0,0,0,3.8c.04,0,.077-.009.116-.012a9.487,9.487,0,0,0,18.767,0c.04,0,.077.012.117.012a1.9,1.9,0,0,0,0-3.8Z"/>
        <circle class="d" cx="44.304" cy="35.329" r="1.188"/>
        <circle class="d" cx="55.229" cy="35.329" r="1.188"/>
        <path class="c" d="M46.909,37.741a4.145,4.145,0,0,0,5.716,0"/>
        <path class="b" d="M58.41,22.094a6.987,6.987,0,0,0,.384-1.772.475.475,0,0,0-.648-.48,1.916,1.916,0,0,1-1.254.049,5.787,5.787,0,0,1-1.036-.406,10.4,10.4,0,0,0-6.939-1.935,10.649,10.649,0,0,0-9.6,10.711v3.5l.525.263a.951.951,0,0,0,1.375-.85v-.363A8.536,8.536,0,0,1,45.362,23.5a5.034,5.034,0,0,0,4.405,2.093,6.347,6.347,0,0,0,2.174-.385,2.636,2.636,0,0,0,2.338,1.335,2.687,2.687,0,0,0,2.169-1.051,8.5,8.5,0,0,1,1.869,5.326v.363a.951.951,0,0,0,1.375.85l.525-.263v-3.8A10.4,10.4,0,0,0,58.41,22.094Z"/>
        <path class="c" d="M58.41,22.094a6.987,6.987,0,0,0,.384-1.772.475.475,0,0,0-.648-.48,1.916,1.916,0,0,1-1.254.049,5.787,5.787,0,0,1-1.036-.406,10.4,10.4,0,0,0-6.939-1.935,10.649,10.649,0,0,0-9.6,10.711v3.5l.525.263a.951.951,0,0,0,1.375-.85v-.363A8.536,8.536,0,0,1,45.362,23.5a5.034,5.034,0,0,0,4.405,2.093,6.347,6.347,0,0,0,2.174-.385,2.636,2.636,0,0,0,2.338,1.335,2.687,2.687,0,0,0,2.169-1.051,8.5,8.5,0,0,1,1.869,5.326v.363a.951.951,0,0,0,1.375.85l.525-.263v-3.8A10.4,10.4,0,0,0,58.41,22.094Z"/>
        <line class="c" x1="48.817" y1="30.816" x2="50.717" y2="30.816"/>
        <path class="d" d="M56.417,34.141h-3.8a1.9,1.9,0,0,1-1.9-1.9v-1.9a.475.475,0,0,1,.475-.475h5.7a.475.475,0,0,1,.475.475v2.85A.95.95,0,0,1,56.417,34.141Z"/>
        <path class="d" d="M46.917,34.141h-3.8a.95.95,0,0,1-.95-.95v-2.85a.475.475,0,0,1,.475-.475h5.7a.475.475,0,0,1,.475.475v1.9A1.9,1.9,0,0,1,46.917,34.141Z"/>
        <path class="c" d="M46.917,34.141h-3.8a.95.95,0,0,1-.95-.95v-2.85a.475.475,0,0,1,.475-.475h5.7a.475.475,0,0,1,.475.475v1.9A1.9,1.9,0,0,1,46.917,34.141Z"/>
        <path class="c" d="M52.617,34.141h3.8a.95.95,0,0,0,.95-.95v-2.85a.475.475,0,0,0-.475-.475h-5.7a.475.475,0,0,0-.475.475v1.9A1.9,1.9,0,0,0,52.617,34.141Z"/>
        <path class="c" d="M55.475,32.241a1.548,1.548,0,0,0-2.858,0"/>
        <path class="c" d="M46.917,32.241a1.548,1.548,0,0,0-2.858,0"/>
      </g>
    </g>
  </g>
</svg>
