<svg xmlns="http://www.w3.org/2000/svg" viewBox="0 0 100 100" ><style><![CDATA[.G{fill:#e1e4eb}.H{stroke:#959eb7}.I{stroke-linejoin:round}]]></style><circle cx="50" cy="50" r="40" fill="#f4f5f8"/><path d="M84.611,72.131a3.189,3.189,0,0,1-3.189,3.189H18.7a3.189,3.189,0,0,1-3.189-3.189V28.546h69.1Z" class="G"/><path d="M84.611,22.167a3.189,3.189,0,0,0-3.189-3.189H18.7a3.189,3.189,0,0,0-3.189,3.189v6.379h69.1Z" fill="#fff"/><g class="G H I"><circle cx="20.296" cy="23.762" r="1.595"/><circle cx="25.611" cy="23.762" r="1.595"/><circle cx="30.926" cy="23.762" r="1.595"/></g><g fill="none" class="H I"><path d="M84.611,72.131a3.189,3.189,0,0,1-3.189,3.189H18.7a3.189,3.189,0,0,1-3.189-3.189V28.546h69.1Z"/><path d="M84.611,22.167a3.189,3.189,0,0,0-3.189-3.189H18.7a3.189,3.189,0,0,0-3.189,3.189v6.379h69.1Z"/></g><path d="M56.689 25.357h31.098v19.868H56.689z" fill="#fff"/><g class="H I"><path d="M56.689 25.357h31.098v19.868H56.689z" fill="none"/><g fill="#fff"><rect x="70.931" y="24.05" width="2.614" height="2.614" rx=".5"/><rect x="86.48" y="24.05" width="2.614" height="2.614" rx=".5"/><rect x="70.931" y="43.703" width="2.614" height="2.614" rx=".5"/><rect x="55.382" y="24.05" width="2.614" height="2.614" rx=".5"/><rect x="55.382" y="43.703" width="2.614" height="2.614" rx=".5"/><rect x="86.48" y="43.703" width="2.614" height="2.614" rx=".5"/><rect x="86.48" y="33.984" width="2.614" height="2.614" rx=".5"/><rect x="55.382" y="33.984" width="2.614" height="2.614" rx=".5"/><rect x="48.343" y="56.711" width="31.098" height="13.149" rx="1"/><rect x="20.296" y="34.3" width="23.855" height="35.559" rx="1"/><path d="M43.143,34.3a1,1,0,0,1,1,1V52.66H20.3V35.3a1,1,0,0,1,1-1Z"/></g><g class="G"><path d="M28.69,52.66l3.87-5.418a2.3,2.3,0,0,1,3.735,0l3.87,5.418Z"/><path d="M20.982,52.66l5.049-6.732a2.3,2.3,0,0,1,3.672,0l5.049,6.732Z"/><circle cx="37.39" cy="39.864" r="2.318"/></g><g fill="none" stroke-linecap="round"><path d="M24.72 56.339h15.008M24.72 60.97h15.008"/><path d="M24.72 65.601h15.008m22.016-30.31h20.988m-16.738-4.609h16.738M61.744 39.9h20.988"/></g><path d="M85.587 49.15a.5.5 0 0 1-.369.853l-3.258-.1a.5.5 0 0 0-.38.157l-2.234 2.375a.5.5 0 0 1-.864-.343v-8.836a.5.5 0 0 1 .853-.353z" fill="#fff"/></g><ellipse cx="54.303" cy="84.34" rx="13" ry="1.5" class="G"/></svg>