<svg xmlns="http://www.w3.org/2000/svg" version="1.1" viewBox="0 0 24 24" width="24" height="24"><g transform="matrix(1,0,0,1,0,0)"><path d="M15.5,10.5H22a1.5,1.5,0,0,0,0-3h-.5a2,2,0,0,0-2-2H7.5A4,4,0,0,1,4.3,3.9L2.5,1.5H.5l.686,4.476A4.6,4.6,0,0,0,3.78,9.445a11.2,11.2,0,0,0,2.832.891" fill="none" stroke="currentColor" stroke-linecap="round" stroke-linejoin="round"></path><path d="M21.5 7.5L19.5 7.5" fill="none" stroke="currentColor" stroke-linecap="round" stroke-linejoin="round"></path><path d="M4.5 1.5L2.5 1.5" fill="none" stroke="currentColor" stroke-linecap="round" stroke-linejoin="round"></path><path d="M17.5 7.5L16.5 7.5" fill="none" stroke="currentColor" stroke-linecap="round" stroke-linejoin="round"></path><path d="M14.5 7.5L13.5 7.5" fill="none" stroke="currentColor" stroke-linecap="round" stroke-linejoin="round"></path><path d="M11.5 7.5L10.5 7.5" fill="none" stroke="currentColor" stroke-linecap="round" stroke-linejoin="round"></path><path d="M10.5,11.5h4a1,1,0,0,0,0-2H8.833" fill="none" stroke="currentColor" stroke-linecap="round" stroke-linejoin="round"></path><path d="M7.5,11.5a.742.742,0,0,1-.658-.474L6,8.5H8l2.5,3Z" fill="none" stroke="currentColor" stroke-linecap="round" stroke-linejoin="round"></path><path d="M19.5,20.75a3.25,3.25,0,0,0-6.5,0" fill="none" stroke="currentColor" stroke-linecap="round" stroke-linejoin="round"></path><path d="M19.5,20.5a2,2,0,0,1,2,2H9.5a3,3,0,0,1,3-3,6.222,6.222,0,0,1,.716.083" fill="none" stroke="currentColor" stroke-linecap="round" stroke-linejoin="round"></path></g></svg>