<svg xmlns="http://www.w3.org/2000/svg" version="1.1" viewBox="0 0 24 24" width="24" height="24"><g transform="matrix(1,0,0,1,0,0)"><path d="M19.5,20.5a1,1,0,0,1-1,1H5.5a1,1,0,0,1-1-1V4A3.5,3.5,0,0,1,8,.5h8A3.5,3.5,0,0,1,19.5,4Z" fill="none" stroke="currentColor" stroke-linecap="round" stroke-linejoin="round"></path><path d="M4.5 6.5L19.5 6.5" fill="none" stroke="currentColor" stroke-linecap="round" stroke-linejoin="round"></path><path d="M19.5 15.5L4.5 15.5" fill="none" stroke="currentColor" stroke-linecap="round" stroke-linejoin="round"></path><path d="M14.5,4.5h-5V3a.5.5,0,0,1,.5-.5h4a.5.5,0,0,1,.5.5Z" fill="none" stroke="currentColor" stroke-linecap="round" stroke-linejoin="round"></path><path d="M6.5 18L9.5 18" fill="none" stroke="currentColor" stroke-linecap="round" stroke-linejoin="round"></path><path d="M14.5 18L17.5 18" fill="none" stroke="currentColor" stroke-linecap="round" stroke-linejoin="round"></path><path d="M.5,13.5a1,1,0,0,0,1,1H2a.5.5,0,0,0,.5-.5V7.5h-1a1,1,0,0,0-1,1Z" fill="none" stroke="currentColor" stroke-linecap="round" stroke-linejoin="round"></path><path d="M21.5,14a.5.5,0,0,0,.5.5h.5a1,1,0,0,0,1-1v-5a1,1,0,0,0-1-1h-1Z" fill="none" stroke="currentColor" stroke-linecap="round" stroke-linejoin="round"></path><path d="M2.5 7.5L4.5 7.5" fill="none" stroke="currentColor" stroke-linecap="round" stroke-linejoin="round"></path><path d="M19.5 7.5L21.5 7.5" fill="none" stroke="currentColor" stroke-linecap="round" stroke-linejoin="round"></path><path d="M9.5,21.5V23a.5.5,0,0,1-.5.5H7a.5.5,0,0,1-.5-.5V21.5" fill="none" stroke="currentColor" stroke-linecap="round" stroke-linejoin="round"></path><path d="M17.5,21.5V23a.5.5,0,0,1-.5.5H15a.5.5,0,0,1-.5-.5V21.5" fill="none" stroke="currentColor" stroke-linecap="round" stroke-linejoin="round"></path></g></svg>