<svg xmlns="http://www.w3.org/2000/svg" version="1.1" viewBox="0 0 24 24" width="24" height="24"><g transform="matrix(1,0,0,1,0,0)"><path d="M.5,23.429c2.451.521,4.5-2,4.5-2a4.282,4.282,0,0,0,3.493,1.979A4.114,4.114,0,0,0,12,21.429a4.078,4.078,0,0,0,3.493,1.979A4.318,4.318,0,0,0,19,21.429s2.049,2.521,4.5,2" fill="none" stroke="currentColor" stroke-linecap="round" stroke-linejoin="round"></path><path d="M12.493 18.5L12.493 9.393" fill="none" stroke="currentColor" stroke-linecap="round" stroke-linejoin="round"></path><path d="M22.993 11.393L12.493 9.393 1.993 11.393" fill="none" stroke="currentColor" stroke-linecap="round" stroke-linejoin="round"></path><path d="M21.982 11.2L19.761 20.068" fill="none" stroke="currentColor" stroke-linecap="round" stroke-linejoin="round"></path><path d="M3.004 11.2L5.009 19.332" fill="none" stroke="currentColor" stroke-linecap="round" stroke-linejoin="round"></path><path d="M18.493,10.535V7.518a2.006,2.006,0,0,0-2-2h-8a2.006,2.006,0,0,0-2,2v3.017" fill="none" stroke="currentColor" stroke-linecap="round" stroke-linejoin="round"></path><path d="M14.993 7.5L9.993 7.5" fill="none" stroke="currentColor" stroke-linecap="round" stroke-linejoin="round"></path><path d="M14.493,5.5V1a.5.5,0,0,0-.5-.5h-3a.5.5,0,0,0-.5.5V5.5" fill="none" stroke="currentColor" stroke-linecap="round" stroke-linejoin="round"></path><path d="M14.493 3.5L10.493 3.5" fill="none" stroke="currentColor" stroke-linecap="round" stroke-linejoin="round"></path><path d="M21.177 14.467L12.493 12.393 3.844 14.445" fill="none" stroke="currentColor" stroke-linecap="round" stroke-linejoin="round"></path></g></svg>