<svg xmlns="http://www.w3.org/2000/svg" version="1.1" viewBox="0 0 24 24" width="24" height="24"><g transform="matrix(1,0,0,1,0,0)"><path d="M19.5,19.5a1,1,0,0,1-1,1H5.5a1,1,0,0,1-1-1v-7l.5-6a2,2,0,0,1,2-2H17a2,2,0,0,1,2,2l.5,6Z" fill="none" stroke="currentColor" stroke-linecap="round" stroke-linejoin="round"></path><path d="M19.5 12.5L4.5 12.5" fill="none" stroke="currentColor" stroke-linecap="round" stroke-linejoin="round"></path><path d="M10 4.5L10 0.5" fill="none" stroke="currentColor" stroke-linecap="round" stroke-linejoin="round"></path><path d="M14 4.5L14 0.5" fill="none" stroke="currentColor" stroke-linecap="round" stroke-linejoin="round"></path><path d="M7.5 0.5L16.5 0.5" fill="none" stroke="currentColor" stroke-linecap="round" stroke-linejoin="round"></path><path d="M7.000 16.500 A1.500 1.500 0 1 0 10.000 16.500 A1.500 1.500 0 1 0 7.000 16.500 Z" fill="none" stroke="currentColor" stroke-linecap="round" stroke-linejoin="round"></path><path d="M14.000 16.500 A1.500 1.500 0 1 0 17.000 16.500 A1.500 1.500 0 1 0 14.000 16.500 Z" fill="none" stroke="currentColor" stroke-linecap="round" stroke-linejoin="round"></path><path d="M6.5 20.5L1.5 23.5" fill="none" stroke="currentColor" stroke-linecap="round" stroke-linejoin="round"></path><path d="M17.5 20.5L22.5 23.5" fill="none" stroke="currentColor" stroke-linecap="round" stroke-linejoin="round"></path></g></svg>