<svg xmlns="http://www.w3.org/2000/svg" version="1.1" viewBox="0 0 24 24" width="24" height="24"><g transform="matrix(1,0,0,1,0,0)"><path d="M12 1.5L12 8.5" fill="none" stroke="currentColor" stroke-linecap="round" stroke-linejoin="round"></path><path d="M9,17.23V15.5a1,1,0,0,1,1-1h4a1,1,0,0,1,1,1v1.73" fill="none" stroke="currentColor" stroke-linecap="round" stroke-linejoin="round"></path><path d="M19,9.5V5.011A3.511,3.511,0,0,0,15.489,1.5H8.511A3.511,3.511,0,0,0,5,5.011V9.5" fill="none" stroke="currentColor" stroke-linecap="round" stroke-linejoin="round"></path><path d="M6 18.5L3.5 22.5" fill="none" stroke="currentColor" stroke-linecap="round" stroke-linejoin="round"></path><path d="M18 18.5L20.5 22.5" fill="none" stroke="currentColor" stroke-linecap="round" stroke-linejoin="round"></path><path d="M19,15.5a1.229,1.229,0,0,1-.99,1.206A37.157,37.157,0,0,1,12,17.5a37.142,37.142,0,0,1-6.01-.794A1.23,1.23,0,0,1,5,15.5v-6a20.53,20.53,0,0,1,7-1,20.53,20.53,0,0,1,7,1Z" fill="none" stroke="currentColor" stroke-linecap="round" stroke-linejoin="round"></path><path d="M6,16.708V18.5a27.327,27.327,0,0,0,6,1,27.327,27.327,0,0,0,6-1V16.708" fill="none" stroke="currentColor" stroke-linecap="round" stroke-linejoin="round"></path><path d="M5,13.5H7a1,1,0,0,0,0-2H5" fill="none" stroke="currentColor" stroke-linecap="round" stroke-linejoin="round"></path><path d="M19,13.5H17a1,1,0,0,1,0-2h2" fill="none" stroke="currentColor" stroke-linecap="round" stroke-linejoin="round"></path><path d="M11 14.5L11 17.458" fill="none" stroke="currentColor" stroke-linecap="round" stroke-linejoin="round"></path><path d="M13 14.5L13 17.458" fill="none" stroke="currentColor" stroke-linecap="round" stroke-linejoin="round"></path></g></svg>