<svg viewBox="0 0 24 24" height="24" width="24" xmlns="http://www.w3.org/2000/svg">,,,,,,<g transform="matrix(1,0,0,1,0,0)"><path d="M11.530 17.497 A6.000 6.000 0 1 0 23.530 17.497 A6.000 6.000 0 1 0 11.530 17.497 Z" fill="none" stroke="currentColor" stroke-linecap="round" stroke-linejoin="round"></path><path d="M20.2,15.753,17.3,19.627a.75.75,0,0,1-1.13.08l-1.5-1.5" fill="none" stroke="currentColor" stroke-linecap="round" stroke-linejoin="round"></path><path d="M9.53,18.5h-7a2,2,0,0,1-2-2V2.506a2,2,0,0,1,2-2h14a2,2,0,0,1,2,2v7" fill="none" stroke="currentColor" stroke-linecap="round" stroke-linejoin="round"></path><path d="M0.53 6.506L18.53 6.506" fill="none" stroke="currentColor" stroke-linecap="round" stroke-linejoin="round"></path><path d="M0.53 12.497L10.53 12.497" fill="none" stroke="currentColor" stroke-linecap="round" stroke-linejoin="round"></path><path d="M12.53 0.506L12.53 10.506" fill="none" stroke="currentColor" stroke-linecap="round" stroke-linejoin="round"></path><path d="M6.53 0.506L6.53 18.497" fill="none" stroke="currentColor" stroke-linecap="round" stroke-linejoin="round"></path></g></svg>
