<svg xmlns="http://www.w3.org/2000/svg" viewBox="0 0 24 24" fill="none" stroke="#000" stroke-linecap="round" stroke-linejoin="round"><path d="M14.8 12.56l.1.1a2.243 2.243 0 0 0 3.172 0l4.446-4.45a3.377 3.377 0 0 0 0-4.758l-1.972-1.97a3.372 3.372 0 0 0-4.757 0l-4.447 4.446a2.243 2.243 0 0 0 0 3.172l.1.1M9.2 11.438l-.1-.1a2.243 2.243 0 0 0-3.172 0l-4.447 4.45a3.375 3.375 0 0 0 0 4.758l1.97 1.97a3.371 3.371 0 0 0 4.758 0l4.446-4.446a2.241 2.241 0 0 0 0-3.172l-.1-.1"/><path d="M7.638 16.36l8.722-8.724"/></svg>