<svg xmlns="http://www.w3.org/2000/svg" version="1.1" viewBox="0 0 24 24" width="24" height="24"><g transform="matrix(1,0,0,1,0,0)"><path d="M19,14.5H16.967a1.342,1.342,0,0,0-.5,2.587l2.064.825a1.342,1.342,0,0,1-.5,2.588H16" fill="none" stroke="currentColor" stroke-linecap="round" stroke-linejoin="round"></path><path d="M17.5 21.501L17.5 20.501" fill="none" stroke="currentColor" stroke-linecap="round" stroke-linejoin="round"></path><path d="M17.5 14.501L17.5 13.501" fill="none" stroke="currentColor" stroke-linecap="round" stroke-linejoin="round"></path><path d="M11.500 17.501 A6.000 6.000 0 1 0 23.500 17.501 A6.000 6.000 0 1 0 11.500 17.501 Z" fill="none" stroke="currentColor" stroke-linecap="round" stroke-linejoin="round"></path><path d="M9.5,18.5h-8a1,1,0,0,1-1-1V3.5a1,1,0,0,1,1-1h18a1,1,0,0,1,1,1V10" fill="none" stroke="currentColor" stroke-linecap="round" stroke-linejoin="round"></path><path d="M5.5 0.501L5.5 5.501" fill="none" stroke="currentColor" stroke-linecap="round" stroke-linejoin="round"></path><path d="M15.5 0.501L15.5 5.501" fill="none" stroke="currentColor" stroke-linecap="round" stroke-linejoin="round"></path><path d="M0.5 7.501L20.5 7.501" fill="none" stroke="currentColor" stroke-linecap="round" stroke-linejoin="round"></path></g></svg>