<svg xmlns="http://www.w3.org/2000/svg" version="1.1" viewBox="0 0 24 24" width="24" height="24"><g transform="matrix(1,0,0,1,0,0)"><path d="M19.5,8.21c0,3.547-5.5,12.381-7.079,14.85a.5.5,0,0,1-.842,0C10,20.592,4.5,11.757,4.5,8.21a7.5,7.5,0,0,1,15,0Z" fill="none" stroke="currentColor" stroke-linecap="round" stroke-linejoin="round"></path><path d="M13.5,4.711H11.8A1.3,1.3,0,0,0,11.08,7.1l1.84,1.226a1.3,1.3,0,0,1-.723,2.387H10.5" fill="none" stroke="currentColor" stroke-linecap="round" stroke-linejoin="round"></path><path d="M12.5 4.711L12.5 3.711" fill="none" stroke="currentColor" stroke-linecap="round" stroke-linejoin="round"></path><path d="M11.5 11.711L11.5 10.711" fill="none" stroke="currentColor" stroke-linecap="round" stroke-linejoin="round"></path></g></svg>