<svg xmlns="http://www.w3.org/2000/svg" version="1.1" viewBox="0 0 24 24" width="24" height="24"><g transform="matrix(1,0,0,1,0,0)"><path d="M14.51,7.5H12.364a1.854,1.854,0,0,0-.829,3.512l1.95.976a1.854,1.854,0,0,1-.829,3.512H10.51" fill="none" stroke="currentColor" stroke-linecap="round" stroke-linejoin="round"></path><path d="M12.51 7.5L12.51 6" fill="none" stroke="currentColor" stroke-linecap="round" stroke-linejoin="round"></path><path d="M12.51 17L12.51 15.5" fill="none" stroke="currentColor" stroke-linecap="round" stroke-linejoin="round"></path><path d="M17 7.02L20.108 3.934" fill="none" stroke="currentColor" stroke-linecap="round" stroke-linejoin="round"></path><path d="M19.500 2.500 A2.000 2.000 0 1 0 23.500 2.500 A2.000 2.000 0 1 0 19.500 2.500 Z" fill="none" stroke="currentColor" stroke-linecap="round" stroke-linejoin="round"></path><path d="M17.962 17.979L20.077 20.107" fill="none" stroke="currentColor" stroke-linecap="round" stroke-linejoin="round"></path><path d="M19.510 21.500 A2.000 2.000 0 1 0 23.510 21.500 A2.000 2.000 0 1 0 19.510 21.500 Z" fill="none" stroke="currentColor" stroke-linecap="round" stroke-linejoin="round"></path><path d="M7 7.02L3.893 3.934" fill="none" stroke="currentColor" stroke-linecap="round" stroke-linejoin="round"></path><path d="M0.500 2.500 A2.000 2.000 0 1 0 4.500 2.500 A2.000 2.000 0 1 0 0.500 2.500 Z" fill="none" stroke="currentColor" stroke-linecap="round" stroke-linejoin="round"></path><path d="M6.039 17.979L3.923 20.107" fill="none" stroke="currentColor" stroke-linecap="round" stroke-linejoin="round"></path><path d="M0.490 21.500 A2.000 2.000 0 1 0 4.490 21.500 A2.000 2.000 0 1 0 0.490 21.500 Z" fill="none" stroke="currentColor" stroke-linecap="round" stroke-linejoin="round"></path><path d="M16.5 11.5L19.5 11.5" fill="none" stroke="currentColor" stroke-linecap="round" stroke-linejoin="round"></path><path d="M19.500 11.500 A2.000 2.000 0 1 0 23.500 11.500 A2.000 2.000 0 1 0 19.500 11.500 Z" fill="none" stroke="currentColor" stroke-linecap="round" stroke-linejoin="round"></path><path d="M7.5 11.5L4.5 11.5" fill="none" stroke="currentColor" stroke-linecap="round" stroke-linejoin="round"></path><path d="M0.500 11.500 A2.000 2.000 0 1 0 4.500 11.500 A2.000 2.000 0 1 0 0.500 11.500 Z" fill="none" stroke="currentColor" stroke-linecap="round" stroke-linejoin="round"></path></g></svg>