<svg xmlns="http://www.w3.org/2000/svg" version="1.1" xmlns:xlink="http://www.w3.org/1999/xlink" xmlns:svgjs="http://svgjs.com/svgjs" viewBox="0 0 24 24" width="24" height="24"><g transform="matrix(1,0,0,1,0,0)"><path d="M17.619 5.750 A1.437 1.437 0 1 0 20.493 5.750 A1.437 1.437 0 1 0 17.619 5.750 Z" fill="none" stroke="currentColor" stroke-linecap="round" stroke-linejoin="round"></path><path d="M20,1.452l.328,1.076a.736.736,0,0,0,.869.5l1.091-.253a.992.992,0,0,1,.944,1.644l-.763.823a.74.74,0,0,0,0,1.008l.763.823a.992.992,0,0,1-.944,1.644L21.2,8.468a.736.736,0,0,0-.869.5L20,10.048a.985.985,0,0,1-1.887,0l-.328-1.076a.736.736,0,0,0-.869-.5l-1.091.253a.992.992,0,0,1-.944-1.644l.763-.823a.74.74,0,0,0,0-1.008l-.763-.823a.992.992,0,0,1,.944-1.644l1.091.253a.736.736,0,0,0,.869-.5l.328-1.076A.985.985,0,0,1,20,1.452Z" fill="none" stroke="currentColor" stroke-linecap="round" stroke-linejoin="round"></path><path d="M7.031,9.375a1.3,1.3,0,0,0,1.938,0L9.6,8.681a1.306,1.306,0,0,1,2.274.942l-.048.934a1.307,1.307,0,0,0,1.371,1.371l.934-.048a1.306,1.306,0,0,1,.942,2.274l-.694.627a1.3,1.3,0,0,0,0,1.938l.694.627a1.306,1.306,0,0,1-.942,2.274l-.934-.048a1.307,1.307,0,0,0-1.371,1.371l.048.934a1.306,1.306,0,0,1-2.274.942l-.627-.694a1.3,1.3,0,0,0-1.938,0l-.627.694a1.306,1.306,0,0,1-2.274-.942l.048-.934a1.307,1.307,0,0,0-1.371-1.371l-.934.048a1.306,1.306,0,0,1-.942-2.274l.694-.627a1.3,1.3,0,0,0,0-1.938l-.694-.627a1.306,1.306,0,0,1,.942-2.274l.934.048a1.307,1.307,0,0,0,1.371-1.371L4.13,9.623A1.306,1.306,0,0,1,6.4,8.681Z" fill="none" stroke="currentColor" stroke-linecap="round" stroke-linejoin="round"></path><path d="M9.5,12.75H7.8a1.3,1.3,0,0,0-.723,2.387l1.84,1.226A1.3,1.3,0,0,1,8.2,18.75H6.5" fill="none" stroke="currentColor" stroke-linecap="round" stroke-linejoin="round"></path><path d="M8.5 12.75L8.5 11.75" fill="none" stroke="currentColor" stroke-linecap="round" stroke-linejoin="round"></path><path d="M7.5 19.75L7.5 18.75" fill="none" stroke="currentColor" stroke-linecap="round" stroke-linejoin="round"></path></g></svg>