<svg xmlns="http://www.w3.org/2000/svg" version="1.1" viewBox="0 0 24 24" width="24" height="24"><g transform="matrix(1,0,0,1,0,0)"><path d="M14,9.5H11.193A1.108,1.108,0,0,0,10,10.693C10,12,14,13,14,14.307A1.172,1.172,0,0,1,12.807,15.5H10" fill="none" stroke="currentColor" stroke-linecap="round" stroke-linejoin="round"></path><path d="M12 9.5L12 8" fill="none" stroke="currentColor" stroke-linecap="round" stroke-linejoin="round"></path><path d="M12 17L12 15.5" fill="none" stroke="currentColor" stroke-linecap="round" stroke-linejoin="round"></path><path d="M3 8.5L3 15.5" fill="none" stroke="currentColor" stroke-linecap="round" stroke-linejoin="round"></path><path d="M10.500 2.000 A1.500 1.500 0 1 0 13.500 2.000 A1.500 1.500 0 1 0 10.500 2.000 Z" fill="none" stroke="currentColor" stroke-linecap="round" stroke-linejoin="round"></path><path d="M1.500 7.000 A1.500 1.500 0 1 0 4.500 7.000 A1.500 1.500 0 1 0 1.500 7.000 Z" fill="none" stroke="currentColor" stroke-linecap="round" stroke-linejoin="round"></path><path d="M1.500 17.000 A1.500 1.500 0 1 0 4.500 17.000 A1.500 1.500 0 1 0 1.500 17.000 Z" fill="none" stroke="currentColor" stroke-linecap="round" stroke-linejoin="round"></path><path d="M19.500 7.000 A1.500 1.500 0 1 0 22.500 7.000 A1.500 1.500 0 1 0 19.500 7.000 Z" fill="none" stroke="currentColor" stroke-linecap="round" stroke-linejoin="round"></path><path d="M19.500 17.000 A1.500 1.500 0 1 0 22.500 17.000 A1.500 1.500 0 1 0 19.500 17.000 Z" fill="none" stroke="currentColor" stroke-linecap="round" stroke-linejoin="round"></path><path d="M10.500 22.000 A1.500 1.500 0 1 0 13.500 22.000 A1.500 1.500 0 1 0 10.500 22.000 Z" fill="none" stroke="currentColor" stroke-linecap="round" stroke-linejoin="round"></path><path d="M4.311 17.729L10.689 21.271" fill="none" stroke="currentColor" stroke-linecap="round" stroke-linejoin="round"></path><path d="M13.311 21.271L19.689 17.729" fill="none" stroke="currentColor" stroke-linecap="round" stroke-linejoin="round"></path><path d="M21 15.5L21 8.5" fill="none" stroke="currentColor" stroke-linecap="round" stroke-linejoin="round"></path><path d="M19.689 6.271L13.311 2.729" fill="none" stroke="currentColor" stroke-linecap="round" stroke-linejoin="round"></path><path d="M10.689 2.729L4.311 6.271" fill="none" stroke="currentColor" stroke-linecap="round" stroke-linejoin="round"></path></g></svg>