<svg xmlns="http://www.w3.org/2000/svg" viewBox="0 0 24 24"  fill="none" stroke="#000" stroke-linejoin="round"><ellipse cx="4.5" cy="3.001" rx="3" ry="1.5"/><g stroke-linecap="round"><path d="M7.5,5.5c0,.828-1.344,1.5-3,1.5s-3-.672-3-1.5"/><path d="M7.5,3V8c0,.828-1.344,1.5-3,1.5s-3-.672-3-1.5V3"/></g><ellipse cx="19.5" cy="3.001" rx="3" ry="1.5"/><g stroke-linecap="round"><path d="M22.5,5.5c0,.828-1.344,1.5-3,1.5s-3-.672-3-1.5"/><path d="M22.5,3V8c0,.828-1.344,1.5-3,1.5s-3-.672-3-1.5V3"/></g><ellipse cx="4.5" cy="16.001" rx="3" ry="1.5"/><g stroke-linecap="round"><path d="M7.5,18.5c0,.828-1.344,1.5-3,1.5s-3-.672-3-1.5"/><path d="M7.5,16v5c0,.828-1.344,1.5-3,1.5s-3-.672-3-1.5V16"/></g><ellipse cx="19.5" cy="16.001" rx="3" ry="1.5"/><g stroke-linecap="round"><path d="M22.5,18.5c0,.828-1.344,1.5-3,1.5s-3-.672-3-1.5"/><path d="M22.5 16v5c0 .828-1.344 1.5-3 1.5s-3-.672-3-1.5v-5M7.386 8.408l9.233 7.175"/><path d="M7.386 15.583l9.233-7.175"/></g></svg>