<svg xmlns="http://www.w3.org/2000/svg" version="1.1" viewBox="0 0 24 24" width="24" height="24"><g transform="matrix(1,0,0,1,0,0)"><path d="M1.000 12.001 A11.000 11.000 0 1 0 23.000 12.001 A11.000 11.000 0 1 0 1.000 12.001 Z" fill="none" stroke="currentColor" stroke-linecap="round" stroke-linejoin="round"></path><path d="M14.5,17.005H13a1,1,0,0,1-1-1v-6.5a.5.5,0,0,0-.5-.5H10" fill="none" stroke="currentColor" stroke-linecap="round" stroke-linejoin="round"></path><path d="M11.745 6.504L11.745 6.504" fill="none" stroke="currentColor" stroke-linecap="round" stroke-linejoin="round"></path><path d="M11.745,6.5a.25.25,0,1,0,.25.25.25.25,0,0,0-.25-.25" fill="none" stroke="currentColor" stroke-linecap="round" stroke-linejoin="round"></path></g></svg>
