<svg xmlns="http://www.w3.org/2000/svg" version="1.1" viewBox="0 0 24 24" width="24" height="24"><g transform="matrix(1,0,0,1,0,0)"><path d="M0.5 23.501L0.5 13.501" fill="none" stroke="currentColor" stroke-linecap="round" stroke-linejoin="round"></path><path d="M.5,15.5h7a3,3,0,0,1,3,3h6a3,3,0,0,1,3,3H.5Z" fill="none" stroke="currentColor" stroke-linecap="round" stroke-linejoin="round"></path><path d="M10.5 18.501L7.5 18.501" fill="none" stroke="currentColor" stroke-linecap="round" stroke-linejoin="round"></path><path d="M14.608 8.495 A1.786 1.786 0 1 0 18.180 8.495 A1.786 1.786 0 1 0 14.608 8.495 Z" fill="none" stroke="currentColor" stroke-linecap="round" stroke-linejoin="round"></path><path d="M17.9,1.623l.524,1.72a1.177,1.177,0,0,0,1.39.807l1.744-.4A1.585,1.585,0,0,1,23.07,6.373L21.85,7.689a1.188,1.188,0,0,0,0,1.613l1.22,1.316a1.585,1.585,0,0,1-1.509,2.627l-1.744-.4a1.176,1.176,0,0,0-1.39.806L17.9,15.366a1.575,1.575,0,0,1-3.018,0l-.524-1.719a1.175,1.175,0,0,0-1.39-.806l-1.744.4a1.585,1.585,0,0,1-1.509-2.627L10.938,9.3a1.188,1.188,0,0,0,0-1.613L9.718,6.373a1.585,1.585,0,0,1,1.509-2.627l1.744.4a1.176,1.176,0,0,0,1.39-.807l.524-1.72A1.576,1.576,0,0,1,17.9,1.623Z" fill="none" stroke="currentColor" stroke-linecap="round" stroke-linejoin="round"></path></g></svg>