<svg viewBox="0 0 24 24" height="24" width="24" xmlns="http://www.w3.org/2000/svg">,,,,<g transform="matrix(1,0,0,1,0,0)"><path d="M20.5,13.907A4.313,4.313,0,0,0,23,9.858a4.711,4.711,0,0,0-4.954-4.635A6.707,6.707,0,0,0,12,1.5,6.605,6.605,0,0,0,5.325,7.609,3.561,3.561,0,0,0,1,11.018,3.186,3.186,0,0,0,3.5,14.3" fill="none" stroke="currentColor" stroke-linecap="round" stroke-linejoin="round"></path><path d="M9.5 17.501L6 17.501 6 21.001" fill="none" stroke="currentColor" stroke-linecap="round" stroke-linejoin="round"></path><path d="M17.417,18.734A5.572,5.572,0,0,1,6.6,17.5" fill="none" stroke="currentColor" stroke-linecap="round" stroke-linejoin="round"></path><path d="M14.5 15.501L18 15.501 18 12.001" fill="none" stroke="currentColor" stroke-linecap="round" stroke-linejoin="round"></path><path d="M6.583,14.268A5.572,5.572,0,0,1,17.4,15.5" fill="none" stroke="currentColor" stroke-linecap="round" stroke-linejoin="round"></path></g></svg>