<svg xmlns="http://www.w3.org/2000/svg" version="1.1" xmlns:xlink="http://www.w3.org/1999/xlink" xmlns:svgjs="http://svgjs.com/svgjs" viewBox="0 0 24 24" width="24" height="24"><g transform="matrix(1,0,0,1,0,0)"><path d="M11,18.5H1.5a1,1,0,0,1-1-1V1.5a1,1,0,0,1,1-1h15a1,1,0,0,1,1,1v10" fill="none" stroke="currentColor" stroke-linecap="round" stroke-linejoin="round"></path><path d="M15.7,22.3l-4.2,1.2,1.2-4.2,7.179-7.179a2.121,2.121,0,0,1,3,3Z" fill="none" stroke="currentColor" stroke-linecap="round" stroke-linejoin="round"></path><path d="M18.979 13.021L21.979 16.021" fill="none" stroke="currentColor" stroke-linecap="round" stroke-linejoin="round"></path><path d="M12.7 19.3L15.7 22.3" fill="none" stroke="currentColor" stroke-linecap="round" stroke-linejoin="round"></path><path d="M6 4.5L13 4.5" fill="none" stroke="currentColor" stroke-linecap="round" stroke-linejoin="round"></path><path d="M4 7.5L13 7.5" fill="none" stroke="currentColor" stroke-linecap="round" stroke-linejoin="round"></path><path d="M4 10.5L13 10.5" fill="none" stroke="currentColor" stroke-linecap="round" stroke-linejoin="round"></path><path d="M4 13.5L10.5 13.5" fill="none" stroke="currentColor" stroke-linecap="round" stroke-linejoin="round"></path></g></svg>