<svg xmlns="http://www.w3.org/2000/svg" viewBox="0 0 24 24"><path d="M1.5 22A1.5 1.5 0 0 1 0 20.5v-16A1.5 1.5 0 0 1 1.5 3h1.586c.2-.6.774-1 1.414-1h2a2 2 0 0 1 2-2c1.103 0 2 .897 2 2h2a1.49 1.49 0 0 1 1.414 1H15.5A1.5 1.5 0 0 1 17 4.5V8a.5.5 0 1 1-1 0V4.5a.5.5 0 0 0-.5-.5H14v.5A1.5 1.5 0 0 1 12.5 6h-8A1.5 1.5 0 0 1 3 4.5V4H1.5a.5.5 0 0 0-.5.5v16a.5.5 0 0 0 .5.5h8a.5.5 0 1 1 0 1h-8zm3-19a.5.5 0 0 0-.5.5v1a.5.5 0 0 0 .5.5h8a.5.5 0 0 0 .5-.5v-1a.5.5 0 0 0-.5-.5h-2.27a2.01 2.01 0 0 1-1.729.999A2.01 2.01 0 0 1 6.771 3H4.5zm4-2a1 1 0 1 0 1 1 1 1 0 0 0-1-1zm4 23a1.5 1.5 0 0 1-1.5-1.5V11a1.5 1.5 0 0 1 1.5-1.5h7.086a1.49 1.49 0 0 1 1.061.439l1.914 1.914a1.51 1.51 0 0 1 .44 1.06V22.5a1.5 1.5 0 0 1-1.5 1.5h-9zm0-13.5a.5.5 0 0 0-.5.5v11.5a.5.5 0 0 0 .5.5h9a.5.5 0 0 0 .5-.5v-9.586a.5.5 0 0 0-.146-.353l-1.914-1.914a.5.5 0 0 0-.354-.146H12.5zm2 4.5a.5.5 0 1 1 0-1h5a.5.5 0 1 1 0 1h-5zm0 3a.5.5 0 1 1 0-1h5a.5.5 0 1 1 0 1h-5z"/></svg>