<svg xmlns="http://www.w3.org/2000/svg" version="1.1" viewBox="0 0 24 24" width="24" height="24"><g transform="matrix(1,0,0,1,0,0)"><path d="M15,17.5c-3.59,0-6.5-1-6.5-5.5s2.91-5.5,6.5-5.5" fill="none" stroke="currentColor" stroke-linecap="round" stroke-linejoin="round"></path><path d="M7.004 12.5L12.504 12.5" fill="none" stroke="currentColor" stroke-linecap="round" stroke-linejoin="round"></path><path d="M7.004 10.5L13.504 10.5" fill="none" stroke="currentColor" stroke-linecap="round" stroke-linejoin="round"></path><path d="M23.5,12A4,4,0,0,0,20.97,8.286a3.988,3.988,0,0,0-5.252-5.252,3.989,3.989,0,0,0-7.428,0A3.988,3.988,0,0,0,3.038,8.286a3.989,3.989,0,0,0,0,7.428A3.988,3.988,0,0,0,8.29,20.966a3.989,3.989,0,0,0,7.428,0,3.988,3.988,0,0,0,5.252-5.252A4,4,0,0,0,23.5,12Z" fill="none" stroke="currentColor" stroke-linecap="round" stroke-linejoin="round"></path></g></svg>