<svg xmlns="http://www.w3.org/2000/svg" viewBox="0 0 24 24"  fill="none" stroke="currentColor" stroke-linejoin="round"><rect x=".5" y="3.501" width="22" height="20" rx="1"/><path d="M3.5 1.501v3m4-3v3m4-3v3m4-3v3m4-3v3" stroke-linecap="round"/><path d="M12.5 8.5h3a0 0 0 0 1 0 0v4a0 0 0 0 1 0 0h-4a0 0 0 0 1 0 0v-3a1 1 0 0 1 1-1z"/><path d="M15.5 8.5h3a1 1 0 0 1 1 1v3a0 0 0 0 1 0 0h-4a0 0 0 0 1 0 0v-4a0 0 0 0 1 0 0z"/><path d="M11.5 12.501h4v4h-4z"/><path d="M15.5 12.501h4v4h-4z"/><path d="M11.5 16.501h4v4h-4z"/><path d="M15.5 16.5h4a0 0 0 0 1 0 0v3a1 1 0 0 1-1 1h-3a0 0 0 0 1 0 0v-4a0 0 0 0 1 0 0zm-11-4h3a0 0 0 0 1 0 0v4a0 0 0 0 1 0 0h-4a0 0 0 0 1 0 0v-3a1 1 0 0 1 1-1z"/><path d="M7.5 12.501h4v4h-4z"/><path d="M3.5 16.5h4a0 0 0 0 1 0 0v4a0 0 0 0 1 0 0h-3a1 1 0 0 1-1-1v-3a0 0 0 0 1 0 0z"/><path d="M7.5 16.501h4v4h-4z"/></svg>
