<svg viewBox="0 0 24 24" height="24" width="24" xmlns="http://www.w3.org/2000/svg">,,,<g transform="matrix(1,0,0,1,0,0)"><path d="M20.5,13.906A4.311,4.311,0,0,0,23,9.857a4.711,4.711,0,0,0-4.954-4.635A6.706,6.706,0,0,0,12,1.5,6.605,6.605,0,0,0,5.325,7.609,3.561,3.561,0,0,0,1,11.018,3.186,3.186,0,0,0,3.5,14.3" fill="none" stroke="currentColor" stroke-linecap="round" stroke-linejoin="round"></path><path d="M6.000 16.500 A6.000 6.000 0 1 0 18.000 16.500 A6.000 6.000 0 1 0 6.000 16.500 Z" fill="none" stroke="currentColor" stroke-linecap="round" stroke-linejoin="round"></path><path d="M14.121 14.379L9.879 18.621" fill="none" stroke="currentColor" stroke-linecap="round" stroke-linejoin="round"></path><path d="M14.121 18.621L9.879 14.379" fill="none" stroke="currentColor" stroke-linecap="round" stroke-linejoin="round"></path></g></svg>