<svg xmlns="http://www.w3.org/2000/svg" version="1.1" viewBox="0 0 24 24" width="24" height="24"><g transform="matrix(1,0,0,1,0,0)"><path d="M19.946,2.725A3.275,3.275,0,0,1,23.22,6c0,1.417-2.01,4.13-2.88,5.238a.5.5,0,0,1-.787,0c-.87-1.107-2.88-3.82-2.88-5.238A3.273,3.273,0,0,1,19.946,2.725Z" fill="none" stroke="currentColor" stroke-linecap="round" stroke-linejoin="round"></path><path d="M21.173,6a1.227,1.227,0,1,1-1.227-1.227A1.226,1.226,0,0,1,21.173,6Z" fill="none" stroke="currentColor" stroke-linecap="round" stroke-linejoin="round"></path><path d="M9.041,13.544c-.291,1.741-2.683,5.849-3.668,7.488a.5.5,0,0,1-.854.006C3.544,19.459,1.228,15.557.86,13.544A3.92,3.92,0,0,1,4.95,8.725,3.916,3.916,0,0,1,9.041,13.544Z" fill="none" stroke="currentColor" stroke-linecap="round" stroke-linejoin="round"></path><path d="M6.823,12.633A1.873,1.873,0,1,1,4.95,10.761,1.873,1.873,0,0,1,6.823,12.633Z" fill="none" stroke="currentColor" stroke-linecap="round" stroke-linejoin="round"></path><path d="M7.946 20.725L19.446 13.225" fill="none" stroke="currentColor" stroke-linecap="round" stroke-linejoin="round"></path></g></svg>