<svg xmlns="http://www.w3.org/2000/svg" viewBox="0 0 24 24"  fill="none" stroke="#000" xmlns:v="https://vecta.io/nano"><g stroke-linecap="round" stroke-linejoin="round"><path d="M19.479 8V2.5a2 2 0 0 0-2-2h-12a2 2 0 0 0-2 2v16a2 2 0 0 0 2 2h8l3 3v-3h1a2 2 0 0 0 1.721-.982M1.485 3.764A2 2 0 0 0 .479 5.5v16a2 2 0 0 0 2 2h8a2 2 0 0 0 1.712-.967M5.479 3.5h4"/><path d="M7.479 8V3.5"/></g><path d="M15.7,7.221l-4.2-1.2,1.2,4.2L19.879,17.4a2.121,2.121,0,0,0,3-3Z" stroke-linejoin="round"/><path d="M18.979 16.5l3-3M12.7 10.221l3-3M12.479 3.5h4m-10 8h4m-4 3h6.5m-6.5 3h9" stroke-linejoin="round" stroke-linecap="round"/></svg>