<svg viewBox="0 0 24 24" height="24" width="24" xmlns="http://www.w3.org/2000/svg">,,,,,,,,,,<g transform="matrix(1,0,0,1,0,0)"><path d="M21.5,4.5a2,2,0,0,1-2,2H2.5a2,2,0,0,1-2-2v-2a2,2,0,0,1,2-2h17a2,2,0,0,1,2,2Z" fill="none" stroke="currentColor" stroke-linecap="round" stroke-linejoin="round"></path><path d="M2.5,12.5a2,2,0,0,1-2-2v-2a2,2,0,0,1,2-2h17a2,2,0,0,1,2,2V10" fill="none" stroke="currentColor" stroke-linecap="round" stroke-linejoin="round"></path><path d="M4.75,3.25A.25.25,0,1,0,5,3.5a.25.25,0,0,0-.25-.25h0" fill="none" stroke="currentColor" stroke-linecap="round" stroke-linejoin="round"></path><path d="M8.25,3.25a.25.25,0,1,0,.25.25.25.25,0,0,0-.25-.25h0" fill="none" stroke="currentColor" stroke-linecap="round" stroke-linejoin="round"></path><path d="M4.75,9.25A.25.25,0,1,0,5,9.5a.25.25,0,0,0-.25-.25h0" fill="none" stroke="currentColor" stroke-linecap="round" stroke-linejoin="round"></path><path d="M8.25,9.25a.25.25,0,1,0,.25.25.25.25,0,0,0-.25-.25h0" fill="none" stroke="currentColor" stroke-linecap="round" stroke-linejoin="round"></path><path d="M9,18.5H2.5a2,2,0,0,1-2-2v-2a2,2,0,0,1,2-2h8" fill="none" stroke="currentColor" stroke-linecap="round" stroke-linejoin="round"></path><path d="M4.75,15.25A.25.25,0,1,0,5,15.5a.25.25,0,0,0-.25-.25h0" fill="none" stroke="currentColor" stroke-linecap="round" stroke-linejoin="round"></path><path d="M8.25,15.25a.25.25,0,1,0,.25.25.25.25,0,0,0-.25-.25h0" fill="none" stroke="currentColor" stroke-linecap="round" stroke-linejoin="round"></path><path d="M11.500 17.500 A6.000 6.000 0 1 0 23.500 17.500 A6.000 6.000 0 1 0 11.500 17.500 Z" fill="none" stroke="currentColor" stroke-linecap="round" stroke-linejoin="round"></path><path d="M19.5 17.5L17.5 17.5 17.5 14.5" fill="none" stroke="currentColor" stroke-linecap="round" stroke-linejoin="round"></path></g></svg>
