<svg xmlns="http://www.w3.org/2000/svg" viewBox="0 0 24 24"  fill="none" stroke="#000" stroke-linecap="round" stroke-linejoin="round"><path d="M3.747 10.417h0H1a.5.5 0 0 0-.5.5v2a.5.5 0 0 0 .5.5h2.746a11.821 11.821 0 0 0 1 2.921l-1.94 1.945a.5.5 0 0 0 0 .708l2.122 2.12a.5.5 0 0 0 .707 0l1.942-1.943a11.8 11.8 0 0 0 2.922 1v2.746a.5.5 0 0 0 .5.5h2a.5.5 0 0 0 .5-.5v-2.742a11.8 11.8 0 0 0 2.92-1l1.944 1.943a.5.5 0 0 0 .707 0l2.12-2.122a.5.5 0 0 0 0-.707l-1.94-1.946a11.821 11.821 0 0 0 1-2.921H23a.5.5 0 0 0 .5-.5v-2a.5.5 0 0 0-.5-.5h-2.747M7.5 4.32v7.6a.5.5 0 0 0 .5.5h8a.5.5 0 0 0 .5-.5v-7.6m-12 2.6L11.673.7a.5.5 0 0 1 .654 0L19.5 6.92m-6 5.5v-2.5a1.5 1.5 0 0 0-3 0v2.5"/><path d="M15.354,14.92a4.5,4.5,0,0,1-6.71,0"/></svg>