<svg xmlns="http://www.w3.org/2000/svg" viewBox="0 0 24 24"  fill="none" stroke="#000" stroke-linejoin="round"><circle cx="17.5" cy="17.504" r="6"/><g stroke-linecap="round"><path d="M19.62 15.383l-4.242 4.242"/><path d="M19.62 19.625l-4.242-4.242M10.5 23.5h-9a1 1 0 0 1-1-1v-21a1 1 0 0 1 1-1h13.293a1 1 0 0 1 .707.3l3.707 3.7a1 1 0 0 1 .293.707V9.5m-16-3.996v4m9-4v4"/><path d="M9.5 12.504v4m6-11v4"/></g><path d="M8 5.5A1.5 1.5 0 0 1 9.5 7v1a1.5 1.5 0 0 1-3 0V7A1.5 1.5 0 0 1 8 5.5zm-3 7A1.5 1.5 0 0 1 6.5 14v1a1.5 1.5 0 0 1-3 0v-1A1.5 1.5 0 0 1 5 12.5z"/></svg>