<svg xmlns="http://www.w3.org/2000/svg" viewBox="0 0 24 24" fill-rule="evenodd" stroke-linecap="round" stroke-linejoin="round"  xmlns:v="https://vecta.io/nano"><path d="M11.547.796A11.42 11.42 0 005.063 2.71C.55 5.724-1.21 11.533.865 16.547a11.41 11.41 0 0012.75 6.814c5.322-1.06 9.173-5.75 9.173-11.176h-.005V10.92H12.658v3.375h6.598a8.12 8.12 0 01-6.275 5.873A8.122 8.122 0 013.873 15.3a8.122 8.122 0 012.998-9.883A8.12 8.12 0 0117.147 6.43l2.304-2.302A11.38 11.38 0 0011.548.796h-.001z" fill="#ea4335"/><path d="M3.632 14.64L.928 16.68c2.116 4.93 7.414 7.732 12.688 6.683a11.353 11.353 0 006.152-3.47l-2.55-2.038a8.126 8.126 0 01-13.587-3.216l.001.001z" fill="#34a853"/><path d="M2.106 5.585A11.419 11.419 0 0 0 .865 16.547l.108.252 2.8-1.786-.098-.272a8.12 8.12 0 0 1 .999-7.144L2.106 5.585z" fill="#fbbc05"/><path d="M12.658 10.92v3.375h6.598a8.107 8.107 0 01-2.038 3.56l2.55 2.04a11.376 11.376 0 003.02-7.708h-.005V10.92H12.658z" fill="#4788f4"/></svg>