<svg xmlns="http://www.w3.org/2000/svg" viewBox="0 0 24 24" fill="none" stroke="#000" stroke-linejoin="round"><path d="M17 17l-3.5-1.5v-2s.866-.35.866-2.5c.684 0 .944-2-.007-2a2.63 2.63 0 0 0 .44-2c-.5-2-5.33-2-5.822 0-2.066-.43-.422 1.712-.422 2-.98 0-.98 2 0 2 0 2.15.945 2.5.945 2.5v2L6 17" stroke-linecap="round"/><path d="M20.5,22.5a1,1,0,0,1-1,1H3.5V.5h16a1,1,0,0,1,1,1Z"/><g stroke-linecap="round"><path d="M3.5.5h-2a1 1 0 0 0-1 1v21a1 1 0 0 0 1 1h2m17-21h1a2.006 2.006 0 0 1 2 2v2h-3"/><path d="M20.5 6.5h3v5h-3"/><path d="M20.5 11.5h3v5h-3"/><path d="M20.5,16.5h3v2a2.006,2.006,0,0,1-2,2h-1"/></g></svg>