<svg xmlns="http://www.w3.org/2000/svg" version="1.1" viewBox="0 0 24 24" width="24" height="24"><g transform="matrix(1,0,0,1,0,0)"><path d="M2.500 16.000 A2.500 2.500 0 1 0 7.500 16.000 A2.500 2.500 0 1 0 2.500 16.000 Z" fill="none" stroke="currentColor" stroke-linecap="round" stroke-linejoin="round"></path><path d="M0.5 13.5L0.5 23.5" fill="none" stroke="currentColor" stroke-linecap="round" stroke-linejoin="round"></path><path d="M23.5 16L23.5 23.5" fill="none" stroke="currentColor" stroke-linecap="round" stroke-linejoin="round"></path><path d="M0.5 18.5H23.5V21.5H0.5z" fill="none" stroke="currentColor" stroke-linecap="round" stroke-linejoin="round"></path><path d="M9.5,18.5h12v-3a2,2,0,0,0-2-2H10a.5.5,0,0,0-.5.5Z" fill="none" stroke="currentColor" stroke-linecap="round" stroke-linejoin="round"></path><path d="M13.500 5.500 A5.000 5.000 0 1 0 23.500 5.500 A5.000 5.000 0 1 0 13.500 5.500 Z" fill="none" stroke="currentColor" stroke-linecap="round" stroke-linejoin="round"></path><path d="M18.5,7.5v-2A.5.5,0,0,0,18,5h-.5" fill="none" stroke="currentColor" stroke-linecap="round" stroke-linejoin="round"></path><path d="M17.5 7.5L19.5 7.5" fill="none" stroke="currentColor" stroke-linecap="round" stroke-linejoin="round"></path><path d="M18 2.75L18 2.75" fill="none" stroke="currentColor" stroke-linecap="round" stroke-linejoin="round"></path><path d="M18,2.75a.25.25,0,1,0,.25.25A.25.25,0,0,0,18,2.75" fill="none" stroke="currentColor" stroke-linecap="round" stroke-linejoin="round"></path></g></svg>