<svg xmlns="http://www.w3.org/2000/svg" version="1.1" viewBox="0 0 24 24" width="24" height="24"><g transform="matrix(1,0,0,1,0,0)"><path d="M3.5,17.5V23a.5.5,0,0,0,.5.5H14a.5.5,0,0,0,.5-.5V17.5" fill="none" stroke="currentColor" stroke-linecap="round" stroke-linejoin="round"></path><path d="M14 14L17.5 17.5" fill="none" stroke="currentColor" stroke-linecap="round" stroke-linejoin="round"></path><path d="M.5,17.5,8.293,9.707a1,1,0,0,1,1.414,0L10,10" fill="none" stroke="currentColor" stroke-linecap="round" stroke-linejoin="round"></path><path d="M17.433.5A5.954,5.954,0,0,0,11.5,6.567a5.94,5.94,0,0,0,.781,3.192L10.8,12.864a.25.25,0,0,0,.333.333l3.105-1.479A6.064,6.064,0,1,0,17.433.5Z" fill="none" stroke="currentColor" stroke-linecap="round" stroke-linejoin="round"></path><path d="M18.5,4.5H17.144a.895.895,0,0,0-.332,1.725l1.376.55A.895.895,0,0,1,17.856,8.5H16.5" fill="none" stroke="currentColor" stroke-linecap="round" stroke-linejoin="round"></path><path d="M17.5 4.5L17.5 4" fill="none" stroke="currentColor" stroke-linecap="round" stroke-linejoin="round"></path><path d="M17.5 9L17.5 8.5" fill="none" stroke="currentColor" stroke-linecap="round" stroke-linejoin="round"></path><path d="M7.5,23.5V20a1.5,1.5,0,0,1,3,0v3.5" fill="none" stroke="currentColor" stroke-linecap="round" stroke-linejoin="round"></path></g></svg>