<svg xmlns="http://www.w3.org/2000/svg" version="1.1" viewBox="0 0 24 24" width="24" height="24"><g transform="matrix(1,0,0,1,0,0)"><path d="M3.5,11.914v10.5a.5.5,0,0,0,.5.5h8.5" fill="none" stroke="currentColor" stroke-linecap="round" stroke-linejoin="round"></path><path d="M.5,11.414,11.327,1.53a1,1,0,0,1,1.349,0l9.77,8.921" fill="none" stroke="currentColor" stroke-linecap="round" stroke-linejoin="round"></path><path d="M10.501 5.914 L13.501 5.914 L13.501 8.914 L10.501 8.914 Z" fill="none" stroke="currentColor" stroke-linecap="round" stroke-linejoin="round"></path><path d="M16.311 16.445 A1.437 1.437 0 1 0 19.185 16.445 A1.437 1.437 0 1 0 16.311 16.445 Z" fill="none" stroke="currentColor" stroke-linecap="round" stroke-linejoin="round"></path><path d="M18.969,10.884l.424,1.392a.952.952,0,0,0,1.125.653l1.411-.327a1.283,1.283,0,0,1,1.221,2.126l-.987,1.064a.962.962,0,0,0,0,1.306l.987,1.065a1.282,1.282,0,0,1-1.221,2.125l-1.411-.327a.952.952,0,0,0-1.125.653l-.424,1.392a1.275,1.275,0,0,1-2.442,0L16.1,20.614a.951.951,0,0,0-1.124-.653l-1.411.327a1.282,1.282,0,0,1-1.221-2.125l.987-1.065a.962.962,0,0,0,0-1.306l-.987-1.064A1.283,1.283,0,0,1,13.568,12.6l1.411.327a.951.951,0,0,0,1.124-.653l.424-1.392A1.275,1.275,0,0,1,18.969,10.884Z" fill="none" stroke="currentColor" stroke-linecap="round" stroke-linejoin="round"></path></g></svg>