<svg xmlns="http://www.w3.org/2000/svg" version="1.1" viewBox="0 0 24 24" width="24" height="24"><g transform="matrix(1,0,0,1,0,0)"><path d="M3.5,11.3V21.8a.5.5,0,0,0,.5.5h7" fill="none" stroke="currentColor" stroke-linecap="round" stroke-linejoin="round"></path><path d="M.5,10.8,11.326.913a1,1,0,0,1,1.348,0L23.5,10.8" fill="none" stroke="currentColor" stroke-linecap="round" stroke-linejoin="round"></path><path d="M10.500 5.297 L13.500 5.297 L13.500 8.297 L10.500 8.297 Z" fill="none" stroke="currentColor" stroke-linecap="round" stroke-linejoin="round"></path><path d="M19,14.3H16.967a1.342,1.342,0,0,0-.5,2.587l2.064.826a1.342,1.342,0,0,1-.5,2.587H16" fill="none" stroke="currentColor" stroke-linecap="round" stroke-linejoin="round"></path><path d="M17.5 21.297L17.5 20.297" fill="none" stroke="currentColor" stroke-linecap="round" stroke-linejoin="round"></path><path d="M17.5 14.297L17.5 13.297" fill="none" stroke="currentColor" stroke-linecap="round" stroke-linejoin="round"></path><path d="M11.500 17.297 A6.000 6.000 0 1 0 23.500 17.297 A6.000 6.000 0 1 0 11.500 17.297 Z" fill="none" stroke="currentColor" stroke-linecap="round" stroke-linejoin="round"></path></g></svg>
