<svg viewBox="0 0 24 24" height="24" width="24" xmlns="http://www.w3.org/2000/svg">,,,,<g transform="matrix(1,0,0,1,0,0)"><path d="M18.250 9.333 A2.250 2.250 0 1 0 22.750 9.333 A2.250 2.250 0 1 0 18.250 9.333 Z" fill="none" stroke="currentColor" stroke-linecap="round" stroke-linejoin="round"></path><path d="M20.5,12.582a3,3,0,0,0-3,3v2.5H19l.5,4.5h2l.5-4.5h1.5v-2.5A3,3,0,0,0,20.5,12.582Z" fill="none" stroke="currentColor" stroke-linecap="round" stroke-linejoin="round"></path><path d="M3.5,8.083v6a.5.5,0,0,0,.5.5H14a.5.5,0,0,0,.5-.5v-6" fill="none" stroke="currentColor" stroke-linecap="round" stroke-linejoin="round"></path><path d="M.5,8.083,8.338,1.167a1,1,0,0,1,1.324,0L16,6.76" fill="none" stroke="currentColor" stroke-linecap="round" stroke-linejoin="round"></path><path d="M7.5,14.583v-4a1.5,1.5,0,1,1,3,0v4" fill="none" stroke="currentColor" stroke-linecap="round" stroke-linejoin="round"></path></g></svg>