<svg xmlns="http://www.w3.org/2000/svg" version="1.1" viewBox="0 0 24 24" width="24" height="24"><g transform="matrix(1,0,0,1,0,0)"><path d="M3.5,11.85v10.5a.5.5,0,0,0,.5.5H8.5" fill="none" stroke="currentColor" stroke-linecap="round" stroke-linejoin="round"></path><path d="M.5,11.35,11.43,1.37a.845.845,0,0,1,1.14,0L23.5,11.35" fill="none" stroke="currentColor" stroke-linecap="round" stroke-linejoin="round"></path><path d="M10.500 5.850 L13.500 5.850 L13.500 8.850 L10.500 8.850 Z" fill="none" stroke="currentColor" stroke-linecap="round" stroke-linejoin="round"></path><path d="M13.5,21.041c4.26,2.187,3.5,1.78,6.663,1.78,1.3,0,1.961-.845,2.345-2.085l0-.008.945-2.6,0-.006a.988.988,0,0,0-.948-1.274h-2.43a1,1,0,0,1-.785-.384,1.312,1.312,0,0,1-.173-1l.437-2.054a.84.84,0,0,0-.161-.746.853.853,0,0,0-1.353.045l-2.423,3.722a.993.993,0,0,1-.81.417l-1.311,0" fill="none" stroke="currentColor" stroke-linecap="round" stroke-linejoin="round"></path><path d="M10.500 15.850 L13.500 15.850 L13.500 22.850 L10.500 22.850 Z" fill="none" stroke="currentColor" stroke-linecap="round" stroke-linejoin="round"></path></g></svg>