<svg xmlns="http://www.w3.org/2000/svg" version="1.1" viewBox="0 0 24 24" width="24" height="24"><g transform="matrix(1,0,0,1,0,0)"><path d="M3.5,11.914v10.5a.5.5,0,0,0,.5.5h7.5" fill="none" stroke="currentColor" stroke-linecap="round" stroke-linejoin="round"></path><path d="M.5,11.414,11.326,1.53a1,1,0,0,1,1.349,0L23.5,11.414" fill="none" stroke="currentColor" stroke-linecap="round" stroke-linejoin="round"></path><path d="M10.500 5.914 L13.500 5.914 L13.500 8.914 L10.500 8.914 Z" fill="none" stroke="currentColor" stroke-linecap="round" stroke-linejoin="round"></path><path d="M11.499 16.914 A6.000 6.000 0 1 0 23.499 16.914 A6.000 6.000 0 1 0 11.499 16.914 Z" fill="none" stroke="currentColor" stroke-linecap="round" stroke-linejoin="round"></path><path d="M17.5,19.914v-3.5a.5.5,0,0,0-.5-.5H16" fill="none" stroke="currentColor" stroke-linecap="round" stroke-linejoin="round"></path><path d="M16.749,13.414a.25.25,0,1,1-.25.25.25.25,0,0,1,.25-.25" fill="none" stroke="currentColor" stroke-linecap="round" stroke-linejoin="round"></path><path d="M15.999 19.914L18.999 19.914" fill="none" stroke="currentColor" stroke-linecap="round" stroke-linejoin="round"></path></g></svg>