<svg xmlns="http://www.w3.org/2000/svg" version="1.1" viewBox="0 0 24 24" width="24" height="24"><g transform="matrix(1,0,0,1,0,0)"><path d="M1.898 17.5L9.5 17.501" fill="none" stroke="currentColor" stroke-linecap="round" stroke-linejoin="round"></path><path d="M2.512 5.5L21.496 5.5" fill="none" stroke="currentColor" stroke-linecap="round" stroke-linejoin="round"></path><path d="M12 11.501L0.511 11.5" fill="none" stroke="currentColor" stroke-linecap="round" stroke-linejoin="round"></path><path d="M11.378,23.484A11.5,11.5,0,1,1,23.114,9" fill="none" stroke="currentColor" stroke-linecap="round" stroke-linejoin="round"></path><path d="M11.269.526c-6,6.5-5.891,14.958.109,22.958" fill="none" stroke="currentColor" stroke-linecap="round" stroke-linejoin="round"></path><path d="M12.73.526A16.127,16.127,0,0,1,17,9" fill="none" stroke="currentColor" stroke-linecap="round" stroke-linejoin="round"></path><path d="M11.500 18.251 A2.250 2.250 0 1 0 16.000 18.251 A2.250 2.250 0 1 0 11.500 18.251 Z" fill="none" stroke="currentColor" stroke-linecap="round" stroke-linejoin="round"></path><path d="M19.000 21.251 A2.250 2.250 0 1 0 23.500 21.251 A2.250 2.250 0 1 0 19.000 21.251 Z" fill="none" stroke="currentColor" stroke-linecap="round" stroke-linejoin="round"></path><path d="M19.000 13.751 A2.250 2.250 0 1 0 23.500 13.751 A2.250 2.250 0 1 0 19.000 13.751 Z" fill="none" stroke="currentColor" stroke-linecap="round" stroke-linejoin="round"></path><path d="M15.675 17.096L19.325 14.906" fill="none" stroke="currentColor" stroke-linecap="round" stroke-linejoin="round"></path><path d="M15.838 19.086L19.162 20.416" fill="none" stroke="currentColor" stroke-linecap="round" stroke-linejoin="round"></path></g></svg>
