<svg xmlns="http://www.w3.org/2000/svg" viewBox="0 0 24 24" fill="none" stroke="#000" stroke-linejoin="round"><path d="M16.966 4.787a1.1 1.1 0 0 1 .534.944v4.64L12 13.908 6.5 10.37V5.73a1.1 1.1 0 0 1 .534-.944l4.4-2.64a1.1 1.1 0 0 1 1.132 0z"/><g stroke-linecap="round"><path d="M12 8.408v5.5"/><path d="M17.5,17.208l-5.5-3.3,5.5-3.538,5,3.213a1.1,1.1,0,0,1,.5.925V18.57a1.1,1.1,0,0,1-.5.925l-4.4,2.83a1.1,1.1,0,0,1-1.19,0L12,19.17V13.908"/><path d="M17.5 17.208V22.5M12 13.908v5.262l-4.9 3.155a1.1 1.1 0 0 1-1.19 0l-4.4-2.83A1.1 1.1 0 0 1 1 18.57v-4.062a1.1 1.1 0 0 1 .5-.925l5-3.213 5.5 3.538-5.5 3.3"/><path d="M6.5 17.208l-5.37-3.22m5.37 3.22V22.5M12 8.408L6.64 5.192m10.72 0L12 8.408m10.87 5.58l-5.37 3.22"/></g></svg>