<svg xmlns="http://www.w3.org/2000/svg" version="1.1" xmlns:xlink="http://www.w3.org/1999/xlink" xmlns:svgjs="http://svgjs.com/svgjs" viewBox="0 0 24 24" width="24" height="24"><g transform="matrix(1,0,0,1,0,0)"><path d="M20 20.652L16.071 21.438" fill="none" stroke="currentColor" stroke-linecap="round" stroke-linejoin="round"></path><path d="M16.5,17l-1.854.761a1.2,1.2,0,0,1-.982-2.188l1.853-.9a1.657,1.657,0,0,1,1.308-.075l3.383,1.294" fill="none" stroke="currentColor" stroke-linecap="round" stroke-linejoin="round"></path><path d="M9,21.5h1.4l2.33,1.771a.684.684,0,0,0,.944.074l3.5-2.807a.684.684,0,0,0,.105-.949l-1.922-2.118" fill="none" stroke="currentColor" stroke-linecap="round" stroke-linejoin="round"></path><path d="M13.51,15.675l-.25-.206a1.471,1.471,0,0,0-.87-.285,1.452,1.452,0,0,0-.545.105L9,16.5" fill="none" stroke="currentColor" stroke-linecap="round" stroke-linejoin="round"></path><path d="M6,22.5H8a1,1,0,0,0,1-1v-5a1,1,0,0,0-1-1H6Z" fill="none" stroke="currentColor" stroke-linecap="round" stroke-linejoin="round"></path><path d="M23,22.5H21a1,1,0,0,1-1-1v-5a1,1,0,0,1,1-1h2Z" fill="none" stroke="currentColor" stroke-linecap="round" stroke-linejoin="round"></path><path d="M16.5.5H4a3,3,0,0,0-3,3V23a.5.5,0,0,0,.5.5H4" fill="none" stroke="currentColor" stroke-linecap="round" stroke-linejoin="round"></path><path d="M4 4.5L11 4.5" fill="none" stroke="currentColor" stroke-linecap="round" stroke-linejoin="round"></path><path d="M4 7.5L11 7.5" fill="none" stroke="currentColor" stroke-linecap="round" stroke-linejoin="round"></path><path d="M4 10.5L7.5 10.5" fill="none" stroke="currentColor" stroke-linecap="round" stroke-linejoin="round"></path><path d="M14,13V3A2.5,2.5,0,0,1,16.5.5c1.38,0,2.5,1.119,2.5,3H14" fill="none" stroke="currentColor" stroke-linecap="round" stroke-linejoin="round"></path></g></svg>
