<svg xmlns="http://www.w3.org/2000/svg" version="1.1" xmlns:xlink="http://www.w3.org/1999/xlink" xmlns:svgjs="http://svgjs.com/svgjs" viewBox="0 0 24 24" width="24" height="24"><g transform="matrix(1,0,0,1,0,0)"><path d="M0.536 11.998 A11.500 11.500 0 1 0 23.536 11.998 A11.500 11.500 0 1 0 0.536 11.998 Z" fill="none" stroke="currentColor" stroke-linecap="round" stroke-linejoin="round"></path><path d="M6.536 7.748 A2.250 2.250 0 1 0 11.036 7.748 A2.250 2.250 0 1 0 6.536 7.748 Z" fill="none" stroke="currentColor" stroke-linecap="round" stroke-linejoin="round"></path><path d="M13.036 17.748 A1.250 1.250 0 1 0 15.536 17.748 A1.250 1.250 0 1 0 13.036 17.748 Z" fill="none" stroke="currentColor" stroke-linecap="round" stroke-linejoin="round"></path><path d="M17.036 10.248 A1.750 1.750 0 1 0 20.536 10.248 A1.750 1.750 0 1 0 17.036 10.248 Z" fill="none" stroke="currentColor" stroke-linecap="round" stroke-linejoin="round"></path><path d="M11.036,7.5a9.307,9.307,0,0,1,6,2.5" fill="none" stroke="currentColor" stroke-linecap="round" stroke-linejoin="round"></path><path d="M19.135,11.964l.4.534s1.5,2,1.5,6.5" fill="none" stroke="currentColor" stroke-linecap="round" stroke-linejoin="round"></path><path d="M16.859,1.555,17.036,2a19.176,19.176,0,0,1,1,6.662" fill="none" stroke="currentColor" stroke-linecap="round" stroke-linejoin="round"></path><path d="M17.536,11.5A10.3,10.3,0,0,1,15.4,17.181" fill="none" stroke="currentColor" stroke-linecap="round" stroke-linejoin="round"></path><path d="M13.688,18.846,13.536,19s-2.5,2.5-8,2.5" fill="none" stroke="currentColor" stroke-linecap="round" stroke-linejoin="round"></path><path d="M12.036.5a17.085,17.085,0,0,0-3.25,5" fill="none" stroke="currentColor" stroke-linecap="round" stroke-linejoin="round"></path><path d="M7.618,9.672,7.536,10a12.694,12.694,0,0,0,1,8c1.7,3.406,6,5,6,5l.373.139" fill="none" stroke="currentColor" stroke-linecap="round" stroke-linejoin="round"></path><path d="M6.536,7.748S2.7,8.023.761,9.721" fill="none" stroke="currentColor" stroke-linecap="round" stroke-linejoin="round"></path><path d="M.816,14.532l.22-.034s6.881-1.058,12.474,2.27" fill="none" stroke="currentColor" stroke-linecap="round" stroke-linejoin="round"></path></g></svg>