<svg xmlns="http://www.w3.org/2000/svg" version="1.1" viewBox="0 0 24 24" width="24" height="24"><g transform="matrix(1,0,0,1,0,0)"><path d="M17,19.7c3.848.325,6.5,1.01,6.5,1.8,0,1.1-5.148,2-11.5,2S.5,22.6.5,21.5c0-.79,2.635-1.473,6.458-1.8" fill="none" stroke="currentColor" stroke-linecap="round" stroke-linejoin="round"></path><path d="M18.250 4.750 A2.250 2.250 0 1 0 22.750 4.750 A2.250 2.250 0 1 0 18.250 4.750 Z" fill="none" stroke="currentColor" stroke-linecap="round" stroke-linejoin="round"></path><path d="M20.5,8a3,3,0,0,0-3,3v2.5H19l.5,4.5h2l.5-4.5h1.5V11A3,3,0,0,0,20.5,8Z" fill="none" stroke="currentColor" stroke-linecap="round" stroke-linejoin="round"></path><path d="M1.250 4.750 A2.250 2.250 0 1 0 5.750 4.750 A2.250 2.250 0 1 0 1.250 4.750 Z" fill="none" stroke="currentColor" stroke-linecap="round" stroke-linejoin="round"></path><path d="M3.5,8a3,3,0,0,0-3,3v2.5H2L2.5,18h2L5,13.5H6.5V11A3,3,0,0,0,3.5,8Z" fill="none" stroke="currentColor" stroke-linecap="round" stroke-linejoin="round"></path><path d="M9.250 3.250 A2.750 2.750 0 1 0 14.750 3.250 A2.750 2.750 0 1 0 9.250 3.250 Z" fill="none" stroke="currentColor" stroke-linecap="round" stroke-linejoin="round"></path><path d="M15.5,10.5a3.5,3.5,0,0,0-7,0v3h1.583l.417,5h3l.417-5H15.5Z" fill="none" stroke="currentColor" stroke-linecap="round" stroke-linejoin="round"></path></g></svg>