<svg xmlns="http://www.w3.org/2000/svg" version="1.1" xmlns:xlink="http://www.w3.org/1999/xlink" xmlns:svgjs="http://svgjs.com/svgjs" viewBox="0 0 24 24" width="24" height="24"><g transform="matrix(1,0,0,1,0,0)"><path d="M9.5,7A.5.5,0,0,0,9,6.5H1A.5.5,0,0,0,.5,7V23a.5.5,0,0,0,.5.5H9.5Z" fill="none" stroke="currentColor" stroke-linecap="round" stroke-linejoin="round"></path><path d="M1.5,6.5V4A.5.5,0,0,1,2,3.5H8a.5.5,0,0,1,.5.5V6.5" fill="none" stroke="currentColor" stroke-linecap="round" stroke-linejoin="round"></path><path d="M4.5 3.5L4.5 0.5" fill="none" stroke="currentColor" stroke-linecap="round" stroke-linejoin="round"></path><path d="M23.5,23a.5.5,0,0,1-.5.5H16.5V10a.5.5,0,0,1,.5-.5h6a.5.5,0,0,1,.5.5Z" fill="none" stroke="currentColor" stroke-linecap="round" stroke-linejoin="round"></path><path d="M17.5,9.5V8a.5.5,0,0,1,.5-.5h4a.5.5,0,0,1,.5.5V9.5" fill="none" stroke="currentColor" stroke-linecap="round" stroke-linejoin="round"></path><path d="M9.5 12.5L16.5 12.5" fill="none" stroke="currentColor" stroke-linecap="round" stroke-linejoin="round"></path><path d="M9.5 23.5L16.5 23.5" fill="none" stroke="currentColor" stroke-linecap="round" stroke-linejoin="round"></path><path d="M2.5 9.5L7.5 9.5" fill="none" stroke="currentColor" stroke-linecap="round" stroke-linejoin="round"></path><path d="M2.5 12.5L7.5 12.5" fill="none" stroke="currentColor" stroke-linecap="round" stroke-linejoin="round"></path><path d="M2.5 15.5L7.5 15.5" fill="none" stroke="currentColor" stroke-linecap="round" stroke-linejoin="round"></path><path d="M18.5 12.5L21.5 12.5" fill="none" stroke="currentColor" stroke-linecap="round" stroke-linejoin="round"></path><path d="M18.5 15.5L21.5 15.5" fill="none" stroke="currentColor" stroke-linecap="round" stroke-linejoin="round"></path><path d="M2.5 18.5L7.5 18.5" fill="none" stroke="currentColor" stroke-linecap="round" stroke-linejoin="round"></path><path d="M18.5 18.5L21.5 18.5" fill="none" stroke="currentColor" stroke-linecap="round" stroke-linejoin="round"></path><path d="M11.5 15.5L14.5 15.5" fill="none" stroke="currentColor" stroke-linecap="round" stroke-linejoin="round"></path><path d="M11.5 18.5L14.5 18.5" fill="none" stroke="currentColor" stroke-linecap="round" stroke-linejoin="round"></path><path d="M5.5,23.5V21a.5.5,0,0,0-.5-.5H4a.5.5,0,0,0-.5.5v2.5" fill="none" stroke="currentColor" stroke-linecap="round" stroke-linejoin="round"></path><path d="M19.5,23.5V21a.5.5,0,0,1,.5-.5h1a.5.5,0,0,1,.5.5v2.5" fill="none" stroke="currentColor" stroke-linecap="round" stroke-linejoin="round"></path></g></svg>