<svg xmlns="http://www.w3.org/2000/svg" version="1.1" xmlns:xlink="http://www.w3.org/1999/xlink" xmlns:svgjs="http://svgjs.com/svgjs" viewBox="0 0 24 24" width="24" height="24"><g transform="matrix(1,0,0,1,0,0)"><path d="M1.5,4.5a1,1,0,0,0-1,1v16a2,2,0,0,0,2,2h9a2,2,0,0,0,2-2V5.5a1,1,0,0,0-1-1" fill="none" stroke="currentColor" stroke-linecap="round" stroke-linejoin="round"></path><path d="M.5,7.5h13" fill="none" stroke="currentColor" stroke-linecap="round" stroke-linejoin="round"></path><path d="M.5,11.5h13" fill="none" stroke="currentColor" stroke-linecap="round" stroke-linejoin="round"></path><path d="M2.504 18.5L3.504 18.5" fill="none" stroke="currentColor" stroke-linecap="round" stroke-linejoin="round"></path><path d="M5.504 18.5L6.504 18.5" fill="none" stroke="currentColor" stroke-linecap="round" stroke-linejoin="round"></path><path d="M8.504 18.5L9.504 18.5" fill="none" stroke="currentColor" stroke-linecap="round" stroke-linejoin="round"></path><path d="M2.504 20.5L3.504 20.5" fill="none" stroke="currentColor" stroke-linecap="round" stroke-linejoin="round"></path><path d="M5.504 20.5L6.504 20.5" fill="none" stroke="currentColor" stroke-linecap="round" stroke-linejoin="round"></path><path d="M8.504 20.5L9.504 20.5" fill="none" stroke="currentColor" stroke-linecap="round" stroke-linejoin="round"></path><path d="M2.504 16.5L3.504 16.5" fill="none" stroke="currentColor" stroke-linecap="round" stroke-linejoin="round"></path><path d="M5.504 16.5L6.504 16.5" fill="none" stroke="currentColor" stroke-linecap="round" stroke-linejoin="round"></path><path d="M8.504 16.5L9.504 16.5" fill="none" stroke="currentColor" stroke-linecap="round" stroke-linejoin="round"></path><path d="M2.504 14.5L4.504 14.5" fill="none" stroke="currentColor" stroke-linecap="round" stroke-linejoin="round"></path><path d="M6.504 14.5L7.504 14.5" fill="none" stroke="currentColor" stroke-linecap="round" stroke-linejoin="round"></path><path d="M9.504 14.5L11.504 14.5" fill="none" stroke="currentColor" stroke-linecap="round" stroke-linejoin="round"></path><path d="M11.504 20.5L11.504 16.5" fill="none" stroke="currentColor" stroke-linecap="round" stroke-linejoin="round"></path><path d="M3.5,7.5V1.309A.5.5,0,0,1,4.228.862L5.5,1.5,6.727.685a.5.5,0,0,1,.554,0L8.5,1.5,9.78.862a.5.5,0,0,1,.724.447V7.5" fill="none" stroke="currentColor" stroke-linecap="round" stroke-linejoin="round"></path><path d="M5.504 3.5L8.504 3.5" fill="none" stroke="currentColor" stroke-linecap="round" stroke-linejoin="round"></path><path d="M5.504 5.5L6.504 5.5" fill="none" stroke="currentColor" stroke-linecap="round" stroke-linejoin="round"></path><path d="M15.504 0.500 L23.504 0.500 L23.504 11.500 L15.504 11.500 Z" fill="none" stroke="currentColor" stroke-linecap="round" stroke-linejoin="round"></path><path d="M18.504 0.5L18.504 11.5" fill="none" stroke="currentColor" stroke-linecap="round" stroke-linejoin="round"></path><path d="M21.504 4L21.504 2.5" fill="none" stroke="currentColor" stroke-linecap="round" stroke-linejoin="round"></path><path d="M17.504 17.5L19.504 19.5 21.504 17.5" fill="none" stroke="currentColor" stroke-linecap="round" stroke-linejoin="round"></path><path d="M19.504 19.5L19.504 14.5" fill="none" stroke="currentColor" stroke-linecap="round" stroke-linejoin="round"></path></g></svg>
