<svg xmlns="http://www.w3.org/2000/svg" version="1.1" xmlns:xlink="http://www.w3.org/1999/xlink" xmlns:svgjs="http://svgjs.com/svgjs" viewBox="0 0 24 24" width="24" height="24"><g transform="matrix(1,0,0,1,0,0)"><path d="M20.5,23.5a1,1,0,0,0,1-1V6.473A5.975,5.975,0,0,0,15.525.5H3.5a1,1,0,0,0-1,1v21a1,1,0,0,0,1,1Z" fill="none" stroke="#000000" stroke-linecap="round" stroke-linejoin="round"></path><path d="M16.5.579V4.5a1,1,0,0,0,1,1h3.92" fill="none" stroke="#000000" stroke-linecap="round" stroke-linejoin="round"></path><path d="M8.479,15a1.5,1.5,0,0,1-1.5,1.5h-1.5v-3h1.5A1.5,1.5,0,0,1,8.479,15Z" fill="none" stroke="#000000" stroke-linecap="round" stroke-linejoin="round"></path><path d="M5.479 19.499L5.479 16.499" fill="none" stroke="#000000" stroke-linecap="round" stroke-linejoin="round"></path><path d="M10.479,13.5a3,3,0,1,1,0,6Z" fill="none" stroke="#000000" stroke-linecap="round" stroke-linejoin="round"></path><path d="M15.479,19.5v-5a1,1,0,0,1,1-1h2" fill="none" stroke="#000000" stroke-linecap="round" stroke-linejoin="round"></path><path d="M15.479 16.499L17.479 16.499" fill="none" stroke="#000000" stroke-linecap="round" stroke-linejoin="round"></path></g></svg>