<svg xmlns="http://www.w3.org/2000/svg" version="1.1" xmlns:xlink="http://www.w3.org/1999/xlink" xmlns:svgjs="http://svgjs.com/svgjs" viewBox="0 0 24 24" width="24" height="24"><g transform="matrix(1,0,0,1,0,0)"><path d="M14.5,23.5H8A1.505,1.505,0,0,1,6.5,22V8A1.505,1.505,0,0,1,8,6.5h7A1.5,1.5,0,0,1,16.5,8v8" fill="none" stroke="currentColor" stroke-linecap="round" stroke-linejoin="round"></path><path d="M11.5 21.25L11.5 21.25" fill="none" stroke="currentColor" stroke-linecap="round" stroke-linejoin="round"></path><path d="M11.5,21.25a.25.25,0,1,0,.25.25.25.25,0,0,0-.25-.25" fill="none" stroke="currentColor" stroke-linecap="round" stroke-linejoin="round"></path><path d="M6.5 19.5L13.5 19.5" fill="none" stroke="currentColor" stroke-linecap="round" stroke-linejoin="round"></path><path d="M3,6A3,3,0,0,1,6,3" fill="none" stroke="currentColor" stroke-linecap="round" stroke-linejoin="round"></path><path d="M.5,6A5.5,5.5,0,0,1,6,.5" fill="none" stroke="currentColor" stroke-linecap="round" stroke-linejoin="round"></path><path d="M20,6a3,3,0,0,0-3-3" fill="none" stroke="currentColor" stroke-linecap="round" stroke-linejoin="round"></path><path d="M22.5,6A5.5,5.5,0,0,0,17,.5" fill="none" stroke="currentColor" stroke-linecap="round" stroke-linejoin="round"></path><path d="M16.5,11l2.4,1.8A4,4,0,0,1,20.5,16v3.5l3,4" fill="none" stroke="currentColor" stroke-linecap="round" stroke-linejoin="round"></path><path d="M18,23.5l-.9-1.2a3,3,0,0,1-.6-1.8v-1l-2.714-3.166a1.188,1.188,0,0,1-.286-.773,1.061,1.061,0,0,1,1.811-.75L18,17.5" fill="none" stroke="currentColor" stroke-linecap="round" stroke-linejoin="round"></path></g></svg>