<svg xmlns="http://www.w3.org/2000/svg" version="1.1" viewBox="0 0 24 24" width="24" height="24"><g transform="matrix(1,0,0,1,0,0)"><path d="M0.500 0.500 L23.500 0.500 L23.500 23.500 L0.500 23.500 Z" fill="none" stroke="currentColor" stroke-linecap="round" stroke-linejoin="round"></path><path d="M23.5 17.5L0.5 17.5" fill="none" stroke="currentColor" stroke-linecap="round" stroke-linejoin="round"></path><path d="M9.5,3.5A2.5,2.5,0,0,0,7.04,5.6,1.5,1.5,0,1,0,6.5,8.5h3a2.5,2.5,0,0,0,0-5Z" fill="none" stroke="currentColor" stroke-linecap="round" stroke-linejoin="round"></path><path d="M3.5,17.5s2-5,4.5-5,4.5,3,4.5,3l3.015-5.168a1.677,1.677,0,0,1,2.948.1L22,17.5" fill="none" stroke="currentColor" stroke-linecap="round" stroke-linejoin="round"></path></g></svg>