<svg xmlns="http://www.w3.org/2000/svg" version="1.1" xmlns:xlink="http://www.w3.org/1999/xlink" xmlns:svgjs="http://svgjs.com/svgjs" viewBox="0 0 24 24" width="24" height="24"><g transform="matrix(1,0,0,1,0,0)"><path d="M7.5 19.499L16.5 19.499" fill="none" stroke="#000000" stroke-linecap="round" stroke-linejoin="round"></path><path d="M7.5 16.499L16.5 16.499" fill="none" stroke="#000000" stroke-linecap="round" stroke-linejoin="round"></path><path d="M5.5,16.5h-3a2.006,2.006,0,0,1-2-2v-6a2.006,2.006,0,0,1,2-2h19a2.006,2.006,0,0,1,2,2v6a2.006,2.006,0,0,1-2,2h-3" fill="none" stroke="#000000" stroke-linecap="round" stroke-linejoin="round"></path><path d="M5.5,4.5V.5h9.586a1,1,0,0,1,.707.293l2.414,2.414a1,1,0,0,1,.293.707V4.5" fill="none" stroke="#000000" stroke-linecap="round" stroke-linejoin="round"></path><path d="M18.5,22.5a1,1,0,0,1-1,1H6.5a1,1,0,0,1-1-1v-9h13Z" fill="none" stroke="#000000" stroke-linecap="round" stroke-linejoin="round"></path><path d="M2.500 9.499 A1.000 1.000 0 1 0 4.500 9.499 A1.000 1.000 0 1 0 2.500 9.499 Z" fill="none" stroke="#000000" stroke-linecap="round" stroke-linejoin="round"></path><path d="M14.5 0.499L14.5 4.499 18.5 4.499" fill="none" stroke="#000000" stroke-linecap="round" stroke-linejoin="round"></path></g></svg>