<svg xmlns="http://www.w3.org/2000/svg" viewBox="0 0 24 24"  fill="none" stroke="#000" stroke-linejoin="round" xmlns:v="https://vecta.io/nano"><path d="M15.5,1.022a.5.5,0,0,1,.5-.5h6.993a.5.5,0,0,1,.5.5V23a.5.5,0,0,1-.5.5H15.5Z"/><path d="M15.496 23.5H7.505V12.511h7.991" stroke-linecap="round"/><path d="M11.854,8.868a.5.5,0,0,0-.707,0L7.505,12.511H15.5Z"/><g stroke-linecap="round"><path d="M7.505,23.5H2.01a.5.5,0,0,1-.5-.5v-4.5H7.505"/><path d="M7.505 15.508H2.777a.5.5 0 0 0-.416.222l-1.332 2a.5.5 0 0 0 .416.777h6.06m9.989-15.986v.999m1.998-.999v.999m1.998-.999v.999m-3.996 2.997v.999m1.998-.999v.999m1.998-.999v.999m-3.996 2.997v.999m1.998-.999v.999m1.998-.999v.999m-3.996 2.997v.999m1.998-.999v.999m1.998-.999v.999m-11.925.477v.999m1.998-.999v.999m1.998-.999v.999m-3.996 2.997v.999m1.998-.999v.999m1.998-.999v.999m3.933-2.475v.999m1.998-.999v.999m1.998-.999v.999"/></g><path d="M8.567,6.517A2.205,2.205,0,0,0,10.5,4.367,2.146,2.146,0,0,0,8.274,2.223,3,3,0,0,0,5.559.5a3.1,3.1,0,0,0-3.1,2.827A1.612,1.612,0,0,0,.512,4.905,1.633,1.633,0,0,0,2.231,6.517Z"/></svg>