<svg viewBox="0 0 24 24" height="24" width="24" xmlns="http://www.w3.org/2000/svg">,,,,,,,,,,,,,<g transform="matrix(1,0,0,1,0,0)"><path d="M21.5,5.5h1a1,1,0,0,1,1,1v13a1,1,0,0,1-1,1H1.5a1,1,0,0,1-1-1V6.5a1,1,0,0,1,1-1h1" fill="none" stroke="currentColor" stroke-linecap="round" stroke-linejoin="round"></path><path d="M7 23.5L17 23.5" fill="none" stroke="currentColor" stroke-linecap="round" stroke-linejoin="round"></path><path d="M10.5 20.5L10.5 23.5" fill="none" stroke="currentColor" stroke-linecap="round" stroke-linejoin="round"></path><path d="M13.5 20.5L13.5 23.5" fill="none" stroke="currentColor" stroke-linecap="round" stroke-linejoin="round"></path><path d="M4.5,15.5V1.5a1,1,0,0,1,1-1h13a1,1,0,0,1,1,1v14" fill="none" stroke="currentColor" stroke-linecap="round" stroke-linejoin="round"></path><path d="M6.500 7.501 L10.500 7.501 L10.500 11.501 L6.500 11.501 Z" fill="none" stroke="currentColor" stroke-linecap="round" stroke-linejoin="round"></path><path d="M12.601 10.501L17.5 10.501" fill="none" stroke="currentColor" stroke-linecap="round" stroke-linejoin="round"></path><path d="M12.601 8.001L17.5 8.001" fill="none" stroke="currentColor" stroke-linecap="round" stroke-linejoin="round"></path><path d="M6.5 13.5L17.5 13.5" fill="none" stroke="currentColor" stroke-linecap="round" stroke-linejoin="round"></path><path d="M0.5 17.5L23.5 17.5" fill="none" stroke="currentColor" stroke-linecap="round" stroke-linejoin="round"></path><path d="M4.5 4.5L19.5 4.5" fill="none" stroke="currentColor" stroke-linecap="round" stroke-linejoin="round"></path><path d="M6.75,2.5a.25.25,0,1,1-.25.25.25.25,0,0,1,.25-.25" fill="none" stroke="currentColor" stroke-linecap="round" stroke-linejoin="round"></path><path d="M8.75,2.5a.25.25,0,1,1-.25.25.25.25,0,0,1,.25-.25" fill="none" stroke="currentColor" stroke-linecap="round" stroke-linejoin="round"></path><path d="M10.75,2.5a.25.25,0,1,1-.25.25.25.25,0,0,1,.25-.25" fill="none" stroke="currentColor" stroke-linecap="round" stroke-linejoin="round"></path></g></svg>