<svg xmlns="http://www.w3.org/2000/svg" version="1.1" viewBox="0 0 24 24" width="24" height="24"><g transform="matrix(1,0,0,1,0,0)"><path d="M0.500 0.500 L23.500 0.500 L23.500 23.500 L0.500 23.500 Z" fill="none" stroke="currentColor" stroke-linecap="round" stroke-linejoin="round"></path><path d="M.5,9.5H4.232a.5.5,0,0,0,.416-.223L6.084,7.123a.5.5,0,0,1,.832,0L8,8.743a.5.5,0,0,0,.873-.075l1.1-2.463a.5.5,0,0,1,.934.052l2.026,6.417a.5.5,0,0,0,.966-.048l1.7-8.143a.5.5,0,0,1,.97-.035L17.9,9.137a.5.5,0,0,0,.481.363H23.5" fill="none" stroke="currentColor" stroke-linecap="round" stroke-linejoin="round"></path><path d="M4.5 20.5L4.5 21.5" fill="none" stroke="currentColor" stroke-linecap="round" stroke-linejoin="round"></path><path d="M10.5 20.5L10.5 21.5" fill="none" stroke="currentColor" stroke-linecap="round" stroke-linejoin="round"></path><path d="M16.5 20.5L16.5 21.5" fill="none" stroke="currentColor" stroke-linecap="round" stroke-linejoin="round"></path><path d="M7.5 18.5L7.5 21.5" fill="none" stroke="currentColor" stroke-linecap="round" stroke-linejoin="round"></path><path d="M13.5 18.5L13.5 21.5" fill="none" stroke="currentColor" stroke-linecap="round" stroke-linejoin="round"></path><path d="M19.5 18.5L19.5 21.5" fill="none" stroke="currentColor" stroke-linecap="round" stroke-linejoin="round"></path></g></svg>