<svg xmlns="http://www.w3.org/2000/svg" version="1.1" xmlns:xlink="http://www.w3.org/1999/xlink" xmlns:svgjs="http://svgjs.com/svgjs" viewBox="0 0 24 24" width="24" height="24"><g transform="matrix(1,0,0,1,0,0)"><path d="M10.5 20.5L13.5 20.5" fill="none" stroke="currentColor" stroke-linecap="round" stroke-linejoin="round"></path><path d="M10.5 22.5L13.5 22.5" fill="none" stroke="currentColor" stroke-linecap="round" stroke-linejoin="round"></path><path d="M12 22.5L12 23.5" fill="none" stroke="currentColor" stroke-linecap="round" stroke-linejoin="round"></path><path d="M17.869,12.044A5.714,5.714,0,0,0,12,6.5a5.713,5.713,0,0,0-5.869,5.544A5.725,5.725,0,0,0,10.5,17.367V18.5h3V17.367A5.725,5.725,0,0,0,17.869,12.044Z" fill="none" stroke="currentColor" stroke-linecap="round" stroke-linejoin="round"></path><path d="M7.212,19.923,6,20.5A1.874,1.874,0,0,1,3.5,18l.576-1.213a1.874,1.874,0,0,0-1.065-2.571l-1.265-.45a1.875,1.875,0,0,1,0-3.534l1.265-.45A1.874,1.874,0,0,0,4.077,7.212L3.5,6A1.874,1.874,0,0,1,6,3.5l1.213.576A1.874,1.874,0,0,0,9.783,3.012l.45-1.265a1.875,1.875,0,0,1,3.534,0l.45,1.265a1.874,1.874,0,0,0,2.571,1.065L18,3.5A1.874,1.874,0,0,1,20.5,6l-.576,1.213a1.874,1.874,0,0,0,1.065,2.571l1.265.45a1.875,1.875,0,0,1,0,3.534l-1.265.45a1.874,1.874,0,0,0-1.065,2.571L20.5,18A1.874,1.874,0,0,1,18,20.5l-1.213-.576" fill="none" stroke="currentColor" stroke-linecap="round" stroke-linejoin="round"></path></g></svg>