<svg xmlns="http://www.w3.org/2000/svg" viewBox="0 0 24 24"  fill="none" stroke="#000" xmlns:v="https://vecta.io/nano"><g stroke-linecap="round" stroke-linejoin="round"><path d="M10.5,15.5V13a1.5,1.5,0,0,1,3,0v2.5"/><path d="M8.5 9.682V15.5h7V9.682m-9 1.818l4.827-4.388a1 1 0 0 1 1.346 0L17.5 11.5"/></g><path d="M20.254,13.5H23a.5.5,0,0,0,.5-.5V11a.5.5,0,0,0-.5-.5H20.253a11.8,11.8,0,0,0-1-2.922l1.942-1.942a.5.5,0,0,0,0-.707L19.07,2.808a.5.5,0,0,0-.707,0L16.42,4.75a11.769,11.769,0,0,0-2.92-1V1A.5.5,0,0,0,13,.5H11a.5.5,0,0,0-.5.5V3.748a11.777,11.777,0,0,0-2.921,1L5.636,2.807a.5.5,0,0,0-.707,0L2.807,4.929a.5.5,0,0,0,0,.707L4.75,7.579a11.821,11.821,0,0,0-1,2.921H1a.5.5,0,0,0-.5.5v2a.5.5,0,0,0,.5.5H3.746a11.821,11.821,0,0,0,1,2.921L2.807,18.364a.5.5,0,0,0,0,.707l2.122,2.121a.5.5,0,0,0,.707,0l1.942-1.944A11.765,11.765,0,0,0,10.5,20.254V23a.5.5,0,0,0,.5.5h2a.5.5,0,0,0,.5-.5V20.254a11.8,11.8,0,0,0,2.92-1l1.944,1.943a.5.5,0,0,0,.707,0l2.121-2.122a.5.5,0,0,0,0-.707L19.25,16.421A11.821,11.821,0,0,0,20.254,13.5Z" stroke-linejoin="round"/></svg>