<svg xmlns="http://www.w3.org/2000/svg" version="1.1" viewBox="0 0 24 24" width="24" height="24"><g transform="matrix(1,0,0,1,0,0)"><path d="M16.784,13.812l-.885.77,2.5,7.51a.5.5,0,0,1-.77.561L11.4,18.082,5.166,22.653a.5.5,0,0,1-.77-.561l2.5-7.51L.925,9.13a.5.5,0,0,1,.325-.88H8.4l2.534-6.676a.5.5,0,0,1,.935,0l.474,1.252" fill="none" stroke="currentColor" stroke-linecap="round" stroke-linejoin="round"></path><path d="M13.250 6.750 A5.000 5.000 0 1 0 23.250 6.750 A5.000 5.000 0 1 0 13.250 6.750 Z" fill="none" stroke="currentColor" stroke-linecap="round" stroke-linejoin="round"></path><path d="M18.25 4.75L18.25 8.75" fill="none" stroke="currentColor" stroke-linecap="round" stroke-linejoin="round"></path><path d="M16.25 6.75L20.25 6.75" fill="none" stroke="currentColor" stroke-linecap="round" stroke-linejoin="round"></path></g></svg>