<svg xmlns="http://www.w3.org/2000/svg" viewBox="0 0 24 24" fill="none" stroke="#000" stroke-linejoin="round"><path d="M.504 23.5h23" stroke-linecap="round"/><path d="M4.5 19a.5.5 0 0 0-.5-.5H2a.5.5 0 0 0-.5.5v4.5h3zm6-5a.5.5 0 0 0-.5-.5H8a.5.5 0 0 0-.5.5v9.5h3zm6 2a.5.5 0 0 0-.5-.5h-2a.5.5 0 0 0-.5.5v7.5h3zm6-7a.5.5 0 0 0-.5-.5h-2a.5.5 0 0 0-.5.5v14.5h3z"/><circle cx="3.004" cy="11.5" r="1.5"/><circle cx="9.004" cy="6.5" r="1.5"/><circle cx="15.004" cy="8.5" r="1.5"/><circle cx="21.004" cy="2" r="1.5"/><path d="M4.265 10.45l3.587-3m2.575-.476l3.154 1.05M19.804 2.9l-3.76 4.385" stroke-linecap="round"/></svg>