<svg xmlns="http://www.w3.org/2000/svg" viewBox="0 0 24 24" fill="none" stroke="#000" stroke-linejoin="round"><path d="M6.778,22.5a1,1,0,0,1-1,1h-4a1,1,0,0,1-1-1V1.5a1,1,0,0,1,1-1h4a1,1,0,0,1,1,1Z"/><path d="M12.778,22.5a1,1,0,0,1-1,1h-4a1,1,0,0,1-1-1V9.5a1,1,0,0,1,1-1h4a1,1,0,0,1,1,1Z"/><path d="M9.778 20v1.5m-6-19v13m6-5V18m-6.004 0v3" stroke-linecap="round"/><path d="M23.172 20.688a1 1 0 0 1-.64 1.261l-3.8 1.24a1 1 0 0 1-1.261-.641L11.884 5.437a1 1 0 0 1 .64-1.261l3.8-1.24a1 1 0 0 1 1.261.641z"/><path d="M15.046 5.457l3.102 9.507m.772 2.378l.93 2.852" stroke-linecap="round"/></svg>