<svg xmlns="http://www.w3.org/2000/svg" viewBox="0 0 24 24" fill="none" stroke="#000" stroke-linejoin="round"><circle cx="12" cy="2.75" r="2.25"/><path d="M16.5,9.5a4.644,4.644,0,0,0-9,0Z"/><circle cx="5" cy="16.75" r="2.25"/><path d="M9.5,23.5a4.644,4.644,0,0,0-9,0Z"/><circle cx="19" cy="16.75" r="2.25"/><path d="M23.5,23.5a4.644,4.644,0,0,0-9,0Z"/><path d="M15 18.918a8.026 8.026 0 0 1-6 0m7.5-14.032a8.011 8.011 0 0 1 3.438 7.614M7.5 4.886A8.011 8.011 0 0 0 4.062 12.5" stroke-linecap="round"/></svg>