<svg xmlns="http://www.w3.org/2000/svg" version="1.1" xmlns:xlink="http://www.w3.org/1999/xlink" xmlns:svgjs="http://svgjs.com/svgjs" viewBox="0 0 24 24" width="24" height="24"><g transform="matrix(1,0,0,1,0,0)"><path d="M0.5 9.5L23.5 9.5" fill="none" stroke="currentColor" stroke-linecap="round" stroke-linejoin="round"></path><path d="M14.5,5.5h8a1,1,0,0,1,1,1v15a1,1,0,0,1-1,1H1.5a1,1,0,0,1-1-1V6.5a1,1,0,0,1,1-1h8" fill="none" stroke="currentColor" stroke-linecap="round" stroke-linejoin="round"></path><path d="M15 14.5L21 14.5" fill="none" stroke="currentColor" stroke-linecap="round" stroke-linejoin="round"></path><path d="M15 17.5L18.5 17.5" fill="none" stroke="currentColor" stroke-linecap="round" stroke-linejoin="round"></path><path d="M12.963,20c-.408-.63-1.761-1.088-3.455-1.715-.478-.178-.4-1.426-.188-1.659a3.524,3.524,0,0,0,.918-2.734A2.188,2.188,0,0,0,8,11.5a2.188,2.188,0,0,0-2.238,2.392,3.524,3.524,0,0,0,.918,2.734c.212.233.29,1.481-.188,1.659C4.8,18.912,3.445,19.37,3.037,20" fill="none" stroke="currentColor" stroke-linecap="round" stroke-linejoin="round"></path><path d="M14.5,7a.5.5,0,0,1-.5.5H10A.5.5,0,0,1,9.5,7V4a2.5,2.5,0,0,1,5,0Z" fill="none" stroke="currentColor" stroke-linecap="round" stroke-linejoin="round"></path></g></svg>