<svg width="24" height="24" viewBox="0 0 24 24" fill="none" xmlns="http://www.w3.org/2000/svg">
<path d="M0.5 24C0.224 24 0 23.776 0 23.5V0.5C0 0.224 0.224 0 0.5 0C0.776 0 1 0.224 1 0.5V4H2.051C2.285 2.845 3.301 2 4.5 2H6.5C7.699 2 8.715 2.845 8.949 4H16.5C16.776 4 17 4.224 17 4.5C17 4.776 16.776 5 16.5 5H1V8H16.5C16.776 8 17 8.224 17 8.5C17 8.776 16.776 9 16.5 9H1V16H2.051C2.285 14.845 3.301 14 4.5 14H6.5C7.699 14 8.715 14.845 8.949 16H16.5C16.776 16 17 16.224 17 16.5C17 16.776 16.776 17 16.5 17H1V20H16.5C16.776 20 17 20.224 17 20.5C17 20.776 16.776 21 16.5 21H1V23.5C1 23.776 0.776 24 0.5 24ZM7.914 16C7.705 15.414 7.141 15 6.5 15H4.5C3.859 15 3.295 15.414 3.086 16H7.914ZM7.914 4C7.705 3.414 7.141 3 6.5 3H4.5C3.859 3 3.295 3.414 3.086 4H7.914Z" fill="#3E3F42"/>
<path d="M23.5 24C23.224 24 23 23.776 23 23.5V21H19V23.5C19 23.776 18.776 24 18.5 24C18.224 24 18 23.776 18 23.5V2.5C18 2.224 18.224 2 18.5 2C18.776 2 19 2.224 19 2.5V4H23V2.5C23 2.224 23.224 2 23.5 2C23.776 2 24 2.224 24 2.5V23.5C24 23.776 23.776 24 23.5 24ZM23 20V17H19V20H23ZM23 16V13H19V16H23ZM23 12V9H19V12H23ZM23 8V5H19V8H23Z" fill="#3E3F42"/>
</svg>
