<svg width="24" height="24" viewBox="0 0 24 24" fill="none" xmlns="http://www.w3.org/2000/svg">
<path d="M4.5 13.5C3.121 13.5 2 12.378 2 11C2 9.621 3.121 8.5 4.5 8.5C5.879 8.5 7 9.621 7 11C7 12.378 5.879 13.5 4.5 13.5ZM4.5 9.5C3.673 9.5 3 10.173 3 11C3 11.827 3.673 12.5 4.5 12.5C5.327 12.5 6 11.827 6 11C6 10.173 5.327 9.5 4.5 9.5Z" fill="#3E3F42"/>
<path d="M9 13.5C8.449 13.5 8 13.052 8 12.5V8.842C8 8.116 8.568 7.53 9.295 7.509C9.508 7.503 9.72 7.5 9.932 7.5C14.547 7.5 18.559 8.914 20.664 11.282C20.881 11.526 21 11.841 21 12.167C21 12.902 20.402 13.5 19.667 13.5H9ZM9.937 8.5C9.734 8.5 9.529 8.503 9.324 8.509C9.142 8.514 9 8.66 9 8.842V12.5H19.667C19.851 12.5 20 12.351 20 12.167C20 12.085 19.97 12.007 19.916 11.946C18.027 9.82 14.203 8.5 9.937 8.5Z" fill="#3E3F42"/>
<path d="M23.5 18.5C23.224 18.5 23 18.276 23 18V15.5H1V18C1 18.276 0.776 18.5 0.5 18.5C0.224 18.5 0 18.276 0 18V6C0 5.724 0.224 5.5 0.5 5.5C0.776 5.5 1 5.724 1 6V14.5H23V8C23 7.724 23.224 7.5 23.5 7.5C23.776 7.5 24 7.724 24 8V18C24 18.276 23.776 18.5 23.5 18.5Z" fill="#3E3F42"/>
</svg>
