<svg width="24" height="24" viewBox="0 0 24 24" fill="none" xmlns="http://www.w3.org/2000/svg">
<path d="M4 24C3.173 24 2.5 23.327 2.5 22.5V1.5C2.5 0.673 3.173 0 4 0H20C20.827 0 21.5 0.673 21.5 1.5V22.5C21.5 23.327 20.827 24 20 24H4ZM3.5 22.5C3.5 22.776 3.724 23 4 23H20C20.276 23 20.5 22.776 20.5 22.5V12H3.5V22.5ZM20.5 11V9H3.5V11H20.5ZM20.5 8V1.5C20.5 1.224 20.276 1 20 1H4C3.724 1 3.5 1.224 3.5 1.5V8H20.5Z" fill="#3E3F42"/>
<path d="M6 7C5.173 7 4.5 6.327 4.5 5.5V3.5C4.5 2.673 5.173 2 6 2H10C10.827 2 11.5 2.673 11.5 3.5V5.5C11.5 6.327 10.827 7 10 7H6ZM6 3C5.724 3 5.5 3.224 5.5 3.5V5.5C5.5 5.776 5.724 6 6 6H10C10.276 6 10.5 5.776 10.5 5.5V3.5C10.5 3.224 10.276 3 10 3H6Z" fill="#3E3F42"/>
<path d="M14 7C13.173 7 12.5 6.327 12.5 5.5V3.5C12.5 2.673 13.173 2 14 2H18C18.827 2 19.5 2.673 19.5 3.5V5.5C19.5 6.327 18.827 7 18 7H14ZM14 3C13.724 3 13.5 3.224 13.5 3.5V5.5C13.5 5.776 13.724 6 14 6H18C18.276 6 18.5 5.776 18.5 5.5V3.5C18.5 3.224 18.276 3 18 3H14Z" fill="#3E3F42"/>
</svg>
