<svg width="24" height="24" viewBox="0 0 24 24" fill="none" xmlns="http://www.w3.org/2000/svg">
<path d="M20.5 24C20.224 24 20 23.776 20 23.5V23H4V23.5C4 23.776 3.776 24 3.5 24C3.224 24 3 23.776 3 23.5V23H2C0.897 23 0 22.103 0 21V16.5C0 16.488 0.001 16.473 0.004 16.458C0.004 16.443 0.005 16.428 0.007 16.416L2 4.459V2C2 0.897 2.897 0 4 0H20C21.103 0 22 0.897 22 2V4.459L23.993 16.418C23.995 16.43 23.996 16.444 23.996 16.459C23.999 16.474 24 16.489 24 16.5V21C24 22.103 23.103 23 22 23H21V23.5C21 23.776 20.776 24 20.5 24ZM1 21C1 21.552 1.449 22 2 22H22C22.552 22 23 21.552 23 21V17H1V21ZM22.91 16L21.743 9H2.257L1.09 16H22.91ZM21.576 8L21.076 5H20.052L20.172 5.862C20.179 5.908 20.182 5.956 20.182 6.005C20.179 6.276 20.073 6.527 19.882 6.714C19.694 6.898 19.445 7 19.182 7H14.2C13.66 7 13.211 6.561 13.2 6.02L13.181 5.114H11.071L11.052 6.02C11.041 6.56 10.592 6.999 10.052 6.999H5.074C4.805 7 4.557 6.898 4.369 6.714C4.178 6.527 4.072 6.277 4.069 6.01C4.069 5.961 4.072 5.911 4.079 5.862L4.199 5H2.924L2.424 8H21.576ZM14.2 5.999L19.177 6L18.984 4.579C18.982 4.579 18.973 4.544 18.973 4.5C18.973 4.499 18.904 4 18.904 4H14.157L14.2 5.999ZM5.278 4.5C5.278 4.543 5.269 4.577 5.264 4.594L5.069 6H10.052L10.094 4H5.349C5.349 4 5.347 4 5.346 4.001L5.278 4.498C5.278 4.499 5.278 4.499 5.278 4.5ZM13.159 4.114L13.157 4.021C13.157 3.456 13.605 3 14.157 3H18.9C19.401 3 19.826 3.371 19.894 3.862L19.913 4H21V2C21 1.449 20.552 1 20 1H4C3.449 1 3 1.449 3 2V4H4.338L4.357 3.862C4.425 3.371 4.851 3 5.347 3H10.094C10.645 3 11.094 3.448 11.094 4L11.092 4.114H13.159Z" fill="#3E3F42"/>
</svg>
