<svg width="24" height="24" viewBox="0 0 24 24" fill="none" xmlns="http://www.w3.org/2000/svg">
<g clip-path="url(#clip0)">
<path d="M10.5 11C10.224 11 10 10.776 10 10.5V8.5C9.349 8.687 8.676 8.782 8 8.782C7.324 8.782 6.651 8.687 6 8.501V10.5C6 10.776 5.776 11 5.5 11C5.224 11 5 10.776 5 10.5V8.5C5 8.406 5.013 8.312 5.04 8.222C5.162 7.797 5.558 7.5 6 7.5C6.094 7.5 6.187 7.513 6.278 7.54C6.838 7.701 7.418 7.782 8 7.782C8.583 7.782 9.162 7.7 9.724 7.539C9.814 7.513 9.906 7.5 9.999 7.5C10.266 7.5 10.517 7.604 10.706 7.792C10.895 7.981 11 8.232 11 8.499V10.5C11 10.776 10.776 11 10.5 11Z" fill="#3E3F42"/>
<path d="M18.5 11C18.224 11 18 10.776 18 10.5V8.504C17.994 8.504 17.989 8.505 17.984 8.505C17.338 8.689 16.671 8.782 16 8.782C15.324 8.782 14.652 8.687 14.001 8.501L14 10.5C14 10.776 13.776 11 13.5 11C13.224 11 13 10.776 13 10.5V8.5C13 8.407 13.013 8.314 13.039 8.224C13.113 7.967 13.283 7.754 13.517 7.625C13.665 7.543 13.832 7.5 13.999 7.5C14.093 7.5 14.187 7.513 14.279 7.54C14.839 7.701 15.419 7.782 16.001 7.782C16.584 7.782 17.163 7.7 17.725 7.539C17.814 7.513 17.907 7.5 18 7.5C18.267 7.5 18.518 7.604 18.707 7.792C18.895 7.981 19 8.232 19 8.499V10.5C19 10.776 18.776 11 18.5 11Z" fill="#3E3F42"/>
<path d="M17.5 20C17.309 20 17.137 19.894 17.052 19.723L16.188 17.995C16.127 17.998 16.064 18 16 18H8.00005C7.93605 18 7.87305 17.998 7.81105 17.996L6.94705 19.724C6.86205 19.894 6.69105 20 6.50005 20C6.42305 20 6.34605 19.982 6.27705 19.948C6.03005 19.824 5.93005 19.523 6.05305 19.277L6.74205 17.898C1.80805 17.104 0.154045 11.806 0.0840454 11.576C-0.0709547 11.065 -0.0169546 10.524 0.236045 10.053C0.488045 9.582 0.909045 9.238 1.42005 9.083C1.60805 9.026 1.80305 8.997 2.00105 8.997C2.18205 8.984 2.45805 8.348 2.82105 7.107C2.96005 6.632 3.08005 6.223 3.22405 5.935C3.82005 4.741 5.02005 4 6.35405 4H17.646C18.98 4 20.179 4.741 20.776 5.934C20.919 6.22 21.038 6.627 21.176 7.097C21.657 8.744 21.899 8.995 22 9C22.003 9 22.007 9 22.01 9.001C22.202 9.002 22.39 9.03 22.571 9.083C23.087 9.238 23.508 9.581 23.761 10.052C24.014 10.522 24.069 11.063 23.916 11.575C23.846 11.806 22.187 17.105 17.258 17.898L17.947 19.277C18.007 19.396 18.016 19.532 17.974 19.659C17.932 19.786 17.843 19.888 17.723 19.948C17.654 19.982 17.577 20 17.5 20ZM1.96605 9.998C1.87805 10.001 1.79205 10.015 1.70905 10.04C1.45305 10.117 1.24305 10.29 1.11705 10.525C0.991045 10.76 0.964045 11.031 1.04105 11.287C1.11205 11.52 2.82905 17 8.00005 17H16C21.171 17 22.888 11.52 22.958 11.286C23.035 11.031 23.007 10.761 22.88 10.526C22.754 10.291 22.544 10.12 22.289 10.043C22.194 10.014 22.098 10 22.002 10C21.565 10 21.171 10.291 21.044 10.709C21.01 10.818 20.695 11.793 19.971 12.794C19.966 12.803 19.955 12.819 19.94 12.837C18.901 14.252 17.539 15 16 15H8.00005C6.45705 15 5.09205 14.248 4.05205 12.826C4.05205 12.826 4.03405 12.802 4.02905 12.794C3.30505 11.793 2.99105 10.819 2.95705 10.711C2.87905 10.452 2.70605 10.241 2.47105 10.115C2.33505 10.042 2.18705 10.003 2.03205 9.998C2.02105 9.999 2.00705 10 2.00005 10C1.98805 10 1.97605 9.999 1.96605 9.998ZM5.53005 13C6.24905 13.664 7.07805 14 8.00005 14H16C16.922 14 17.75 13.664 18.47 13H5.53005ZM19.31 12C19.843 11.195 20.077 10.448 20.087 10.415C20.229 9.947 20.537 9.553 20.949 9.299C20.627 8.782 20.412 8.047 20.219 7.387C20.099 6.976 19.986 6.589 19.882 6.381C19.455 5.529 18.599 5 17.646 5H6.35405C5.40105 5 4.54405 5.529 4.11805 6.382C4.01505 6.588 3.90205 6.974 3.78205 7.383C3.58905 8.046 3.37405 8.78 3.05205 9.297C3.46705 9.554 3.77105 9.948 3.91305 10.419C3.92305 10.449 4.16005 11.2 4.69005 12H19.31Z" fill="#3E3F42"/>
</g>
<defs>
<clipPath id="clip0">
<rect width="24" height="24" fill="white"/>
</clipPath>
</defs>
</svg>
