<svg width="24" height="24" viewBox="0 0 24 24" fill="none" xmlns="http://www.w3.org/2000/svg">
<path d="M4.5 19C3.121 19 2 17.878 2 16.5C2 15.122 3.121 14 4.5 14C5.879 14 7 15.122 7 16.5C7 17.878 5.879 19 4.5 19ZM4.5 15C3.673 15 3 15.673 3 16.5C3 17.327 3.673 18 4.5 18C5.327 18 6 17.327 6 16.5C6 15.673 5.327 15 4.5 15Z" fill="#3E3F42"/>
<path d="M9 19C8.449 19 8 18.552 8 18V14.342C8 13.616 8.568 13.03 9.295 13.009C9.504 13.003 9.711 13 9.918 13C14.542 13 18.559 14.414 20.663 16.781C20.881 17.026 21 17.34 21 17.667C21 18.402 20.402 19 19.667 19H9ZM9.936 14C9.733 14 9.529 14.003 9.323 14.009C9.142 14.014 9 14.16 9 14.342V18H19.667C19.851 18 20 17.851 20 17.667C20 17.585 19.97 17.507 19.916 17.446C18.027 15.321 14.202 14 9.936 14Z" fill="#3E3F42"/>
<path d="M4.5 9C3.121 9 2 7.879 2 6.5C2 5.121 3.121 4 4.5 4C5.879 4 7 5.121 7 6.5C7 7.879 5.879 9 4.5 9ZM4.5 5C3.673 5 3 5.673 3 6.5C3 7.327 3.673 8 4.5 8C5.327 8 6 7.327 6 6.5C6 5.673 5.327 5 4.5 5Z" fill="#3E3F42"/>
<path d="M9 9C8.449 9 8 8.551 8 8V4.342C8 3.616 8.568 3.03 9.295 3.009C9.509 3.003 9.722 3 9.934 3C14.548 3 18.559 4.414 20.664 6.782C20.881 7.026 21 7.341 21 7.667C21 8.402 20.402 9 19.667 9H9ZM9.937 4C9.733 4 9.529 4.003 9.323 4.009C9.142 4.014 9 4.16 9 4.342V8H19.667C19.851 8 20 7.851 20 7.667C20 7.585 19.97 7.507 19.916 7.446C18.027 5.32 14.203 4 9.937 4Z" fill="#3E3F42"/>
<path d="M23.5 24C23.224 24 23 23.776 23 23.5V21H1V23.5C1 23.776 0.776 24 0.5 24C0.224 24 0 23.776 0 23.5V0.5C0 0.224 0.224 0 0.5 0C0.776 0 1 0.224 1 0.5V10H23V3.5C23 3.224 23.224 3 23.5 3C23.776 3 24 3.224 24 3.5V23.5C24 23.776 23.776 24 23.5 24ZM23 20V11H1V20H23Z" fill="#3E3F42"/>
</svg>
