<svg width="116" height="116" viewBox="0 0 116 116" fill="none" xmlns="http://www.w3.org/2000/svg">
<path d="M23.9997 51.9752C24.2015 51.9752 24.4033 51.9752 24.6051 51.9752C24.7335 51.7 24.7335 51.2964 24.6051 50.8379C24.4767 50.1591 24.2749 49.7005 23.8713 49.7556C23.4678 49.8289 23.4678 50.3609 23.5962 51.0396C23.6512 51.4432 23.798 51.7734 23.9997 51.9752Z" fill="black"/>
<path d="M20.4408 52.5805C20.716 52.7089 20.9178 52.7823 20.9728 52.709C21.0462 52.6356 20.9728 52.5805 20.8994 52.4338C20.771 52.1586 20.4225 51.9569 20.1657 51.8284C19.4869 51.5533 18.7532 51.6267 18.1478 52.1036C17.9461 52.232 17.7443 52.4338 17.8176 52.5805C17.8176 52.6539 17.891 52.6539 17.9461 52.6539C18.0745 52.6539 18.6798 52.3788 19.3585 52.3237C19.7621 52.3054 20.1657 52.4521 20.4408 52.5805Z" fill="black"/>
<path d="M19.8357 52.9109C19.4321 52.9842 19.2303 53.1126 19.1019 53.241C18.9735 53.3695 18.9001 53.4428 18.9001 53.5162V53.5896H18.9735C19.0469 53.5896 19.2487 53.5162 19.2487 53.5162C19.7807 53.3144 20.1292 53.3144 20.4594 53.3878C20.6612 53.3878 20.7345 53.4612 20.7896 53.3878C20.7896 53.3878 20.7896 53.3144 20.7896 53.2594C20.7712 53.0576 20.3677 52.8558 19.8357 52.9109Z" fill="black"/>
<path d="M20.0371 53.3877C20.1655 53.1125 20.1655 52.5072 20.0371 52.0486C19.9087 51.3699 19.7069 50.9663 19.23 50.9663C18.8264 51.0397 18.8264 51.5717 18.9548 52.3054C19.0282 52.7823 19.23 53.0392 19.285 53.2409C19.6335 53.7913 19.8353 53.6445 20.0371 53.3877Z" fill="black"/>
<path d="M22.7887 54.1214C23.0638 54.2498 23.3206 54.1948 23.4674 53.993C23.5408 53.7912 23.394 53.5161 23.1372 53.3877C22.862 53.2593 22.6052 53.3143 22.4585 53.5161C22.3117 53.7179 22.5135 53.993 22.7887 54.1214Z" fill="black"/>
<path d="M24.458 52.6539C24.2562 52.6539 24.0544 52.8557 24.0544 53.1859C24.0544 53.4611 24.1828 53.7179 24.458 53.7179C24.6598 53.7179 24.8616 53.5161 24.8616 53.1859C24.8065 52.9107 24.6598 52.6539 24.458 52.6539Z" fill="black"/>
<path d="M10.2416 57.882C10.1682 57.8086 10.1132 57.8086 10.0398 57.882C9.96643 57.882 9.91139 57.882 9.83802 57.882C9.70961 57.882 9.56286 57.8086 9.50783 57.6802C9.4528 57.5518 9.43445 57.35 9.50783 57.0748L9.5812 56.9464C9.78299 56.5429 10.0581 55.9375 9.70961 55.3322C9.43445 54.8552 9.10426 54.5984 8.62732 54.525C8.15038 54.4517 7.69179 54.6534 7.41663 55.002C6.93969 55.5339 6.88466 56.2127 6.93969 56.4695C6.93969 56.5429 7.01306 56.5979 7.0681 56.5979C7.14147 56.5979 7.26988 56.5245 7.34325 56.3227V56.2494C7.34325 56.1209 7.41663 55.9742 7.54504 55.7724C7.67344 55.5706 7.87523 55.4422 8.07701 55.4422C8.27879 55.3689 8.55395 55.4422 8.75573 55.5706C9.08592 55.7724 9.23267 56.176 9.08592 56.5795C8.88414 56.7813 8.81076 57.1115 8.81076 57.4601C8.88414 58.0654 9.2877 58.3406 9.61789 58.3956C9.94808 58.3956 10.2232 58.1938 10.2232 58.0654C10.2966 57.9553 10.2416 57.9553 10.2416 57.882Z" fill="black"/>
<path d="M29.7596 56.7447C29.7596 56.6713 29.6862 56.4145 29.5578 56.0109L29.2826 55.4056C29.7596 54.7268 29.7596 54.0665 29.6862 53.7363C29.6128 53.3327 29.411 52.9291 29.0808 52.5256C28.7506 52.122 27.9435 51.7184 26.9346 51.4433L26.4026 51.3149C26.4026 51.3149 26.4026 50.0308 26.3293 49.4988C26.3293 49.0953 26.2559 48.4899 26.0541 47.8846C25.8523 47.0775 25.4487 46.3437 24.9168 45.8668C26.2559 44.4543 27.1364 42.84 27.1364 41.5009C27.1364 38.9511 23.9812 38.144 20.019 39.7583L19.2118 40.0884C19.2118 40.0884 17.7443 38.6209 17.671 38.6209C13.3235 34.732 -0.56284 50.2326 3.85803 53.9931L4.79357 54.8002C4.51841 55.4789 4.46338 56.2127 4.51841 57.0198C4.64682 58.0287 5.19713 59.0376 5.98592 59.8448C6.79305 60.5785 7.85699 61.0555 8.93928 61.0555C10.6819 65.0911 14.6442 67.4942 19.2669 67.6409C24.2381 67.7693 28.4571 65.4213 30.1998 61.2573C30.3282 60.9821 30.8052 59.643 30.8052 58.4323C30.9152 57.2033 30.2365 56.7447 29.7596 56.7447ZM9.36119 59.8998C9.23278 59.8998 9.031 59.9732 8.88425 59.8998C7.41674 59.8264 5.7291 58.4873 5.6007 56.8731C5.47229 55.1304 6.33445 53.7913 7.94871 53.4428C8.15049 53.3694 8.35228 53.3694 8.62743 53.3694C9.50794 53.4428 10.847 54.1032 11.1772 56.0476C11.434 57.882 11.0488 59.6247 9.36119 59.8998ZM7.6919 52.3788C6.68298 52.5806 5.82082 53.1126 5.27051 53.9197C4.94032 53.6446 4.33497 53.1126 4.26159 52.9108C3.38109 51.2965 5.19713 48.0864 6.4812 46.3254C9.56297 41.9045 14.4608 38.5476 16.6804 39.1346C17.084 39.263 18.2946 40.6754 18.2946 40.6754C18.2946 40.6754 16.02 41.9595 13.9288 43.7022C11.1039 45.7934 8.95762 48.9485 7.6919 52.3788ZM23.5226 59.2211L23.596 59.1477C23.596 59.0743 23.5226 59.0743 23.5226 59.0743C23.5226 59.0743 21.1746 59.4045 18.955 58.5974C19.2302 57.7903 19.8355 58.0654 20.8261 58.1938C22.5688 58.3222 24.183 58.0654 25.3203 57.7169C26.3293 57.4417 27.6684 56.8364 28.6773 56.0476C29.0075 56.7814 29.1542 57.6619 29.1542 57.6619C29.1542 57.6619 29.4294 57.5885 29.6311 57.7352C29.8329 57.8636 29.9613 58.1388 29.9063 58.8175C29.7045 60.1566 29.0992 61.1655 28.237 62.1744C27.705 62.7798 26.9529 63.3118 26.1642 63.7153C25.7606 63.9171 25.2837 64.1189 24.8251 64.2473C21.193 65.3846 17.5792 64.1739 16.4419 61.4223C16.3685 61.2206 16.2401 61.0188 16.2401 60.7436C15.7632 58.9276 16.1668 56.7814 17.5242 55.4422C17.5976 55.3689 17.6526 55.2405 17.6526 55.1121C17.6526 54.9837 17.5792 54.9103 17.5242 54.8369C17.0473 54.1582 15.4513 53.0209 15.7815 50.8013C15.9833 49.187 17.3958 48.123 18.6615 48.1781H18.9917C19.5237 48.1781 20.074 48.3065 20.4592 48.3065C21.193 48.3065 21.9267 48.2331 22.7339 47.5727C23.009 47.371 23.2108 47.1692 23.6144 47.0958C23.6877 47.0958 23.7428 47.0224 23.9446 47.0958C24.1463 47.0958 24.3481 47.1692 24.4765 47.2976C25.1552 47.7745 25.2103 48.7651 25.2837 49.5722C25.2837 50.0492 25.357 51.1131 25.357 51.3883C25.4304 52.067 25.5588 52.1954 25.9624 52.3238C26.1642 52.3972 26.3659 52.4522 26.6411 52.5256C27.5216 52.8007 28.0536 53.0025 28.3838 53.3327C28.5855 53.5345 28.6589 53.7363 28.714 53.9381C28.8424 54.6718 28.1086 55.6073 26.2926 56.4879C24.2747 57.4234 21.9267 57.6252 20.2574 57.4234L19.6521 57.35C18.313 57.1482 17.5792 58.8909 18.368 60.0282C18.9 60.762 20.3125 61.3123 21.6516 61.3123C24.8801 61.3123 27.3565 59.9732 28.237 58.7625L28.3104 58.6341C28.3838 58.5607 28.3104 58.5057 28.237 58.5607C27.5033 59.0927 24.1463 61.1105 20.5876 60.5052C20.5876 60.5052 20.1841 60.4318 19.7805 60.3034C19.4503 60.175 18.845 59.8998 18.6982 59.2211C21.7066 60.1016 23.5226 59.2211 23.5226 59.2211ZM13.4519 46.3437C14.5342 45.0596 15.9283 43.9223 17.139 43.317C17.2124 43.317 17.2124 43.317 17.2124 43.3903C17.139 43.5921 16.9372 43.9223 16.8822 44.1975C16.8822 44.2708 16.9555 44.2708 16.9555 44.2708C17.6893 43.7389 19.0284 43.1886 20.1841 43.1335C20.2574 43.1335 20.2574 43.2069 20.2574 43.2069C20.0557 43.3353 19.9272 43.5371 19.7255 43.7389C19.7255 43.7389 19.7255 43.8122 19.7988 43.8122C20.606 43.8122 21.7433 44.0874 22.477 44.546C22.5504 44.546 22.477 44.6744 22.4037 44.6744C21.2663 44.3993 19.4503 44.1975 17.5059 44.6744C15.7632 45.078 14.4791 45.7567 13.5436 46.4171C13.4519 46.3987 13.3968 46.3987 13.4519 46.3437Z" fill="black"/>
<path d="M109.5 49.3523C107.831 49.3523 107.079 50.563 106.749 51.2967C106.547 51.7737 106.547 51.9021 106.419 51.9021C106.217 51.9021 106.345 51.4985 106.492 51.095C106.694 50.2145 106.565 49.5541 106.565 49.5541H104.217V60.8355H107.446V57.2768C107.849 57.9556 108.528 58.6159 109.592 58.6159C111.94 58.6159 113.077 56.6715 113.077 53.9933C113.059 50.9666 111.647 49.3523 109.5 49.3523ZM108.638 56.4697C107.904 56.4697 107.354 55.5342 107.354 54.2501C107.354 52.966 107.886 52.0305 108.638 52.0305C109.519 52.0305 109.922 52.8376 109.922 54.2501C109.904 55.736 109.574 56.4697 108.638 56.4697Z" fill="black"/>
<path d="M45.6822 49.3523C44.2697 49.3523 43.6093 50.4896 43.2608 51.1683C43.059 51.5719 43.059 51.9021 42.8572 51.9021C42.6555 51.9021 42.7839 51.6269 42.6555 51.0216C42.4537 50.2145 41.775 49.3523 40.3808 49.3523C38.9133 49.3523 38.2346 50.6364 37.9594 51.2968C37.7576 51.7737 37.7576 51.9021 37.6292 51.9021C37.4275 51.9021 37.5559 51.4985 37.7026 51.095C37.9044 50.2145 37.776 49.5541 37.776 49.5541H35.428V58.4142H38.5831V53.9933C38.5831 53.1128 38.9133 52.0488 39.592 52.0488C40.3258 52.0488 40.4725 52.5808 40.4725 53.5897V58.4142H43.7011V53.9933C43.7011 53.1862 44.0312 52.0488 44.71 52.0488C45.4437 52.0488 45.5905 52.856 45.5905 53.5897V58.3591H48.6722V53.1311C48.6356 50.8382 47.8284 49.3523 45.6822 49.3523ZM100.182 49.3523C98.7693 49.3523 98.1089 50.4896 97.7604 51.1683C97.5586 51.5719 97.5586 51.9021 97.3568 51.9021C97.1551 51.9021 97.2835 51.5719 97.1551 51.0216C96.8799 50.2145 96.3479 49.3523 94.8804 49.3523C93.4129 49.3523 92.7342 50.6364 92.459 51.2968C92.2572 51.7737 92.2572 51.9021 92.1288 51.9021C91.927 51.9021 92.0555 51.4985 92.2022 51.095C92.404 50.2145 92.2756 49.5541 92.2756 49.5541H89.9276V58.4142H93.1561V53.9933C93.1561 53.1128 93.4863 52.0488 94.165 52.0488C94.8988 52.0488 95.0455 52.5808 95.0455 53.5897V58.4142H98.274V53.9933C98.274 53.1862 98.6042 52.0488 99.2829 52.0488C100.017 52.0488 100.163 52.856 100.163 53.5897V58.3591H103.319V53.1311C103.135 50.8382 102.328 49.3523 100.182 49.3523ZM54.1387 49.3523C51.6623 49.3523 49.9013 50.2328 49.9013 50.2328V52.911C49.9013 52.911 51.8457 51.7737 53.46 51.7737C54.7441 51.7737 54.8725 52.4524 54.7991 53.0578C54.7991 53.0578 54.4689 52.9844 53.3316 52.9844C50.7084 52.9844 49.3693 54.1951 49.3693 56.0662C49.3693 57.8822 50.8368 58.616 52.1209 58.616C53.9369 58.616 54.7441 57.4053 55.0009 56.7999C55.2027 56.3963 55.2027 56.1212 55.3311 56.1212C55.5328 56.1212 55.4595 56.323 55.4595 56.7265C55.4595 57.4053 55.4595 57.9372 55.5879 58.3958H58.0276V54.03C57.9542 51.2968 57.0187 49.3523 54.1387 49.3523ZM53.3316 56.3413C52.5978 56.5431 52.1943 56.2679 52.1943 55.8093C52.1943 55.1306 52.928 54.8004 53.9369 54.8004C54.4139 54.8004 54.8174 54.8738 54.8174 54.8738C54.7991 55.1306 54.1387 56.1395 53.3316 56.3413ZM63.2556 46.8759H66.4841V58.4142H63.2556C63.2556 58.3591 63.2556 46.8759 63.2556 46.8759ZM70.0428 53.9933C70.0428 53.1862 70.7766 52.4524 72.1157 52.4524C73.5832 52.4524 74.7939 53.1862 75.069 53.3329V50.2328C75.069 50.2328 74.1335 49.3523 71.8405 49.3523C69.4191 49.3523 67.4197 50.7648 67.4197 53.8466C67.4197 56.9283 69.2357 58.616 71.8405 58.616C73.8584 58.616 75.1241 57.4786 75.1241 57.4786V54.5253C74.7205 54.7271 73.6566 55.4608 72.1707 55.4608C70.5748 55.5342 70.0428 54.8004 70.0428 53.9933ZM81.5811 49.3523C79.71 49.3523 79.0313 51.095 78.9029 51.4252C78.7745 51.7553 78.7011 51.9021 78.5727 51.9021C78.3709 51.9021 78.4994 51.4985 78.5727 51.2968C78.7011 50.8198 79.0497 49.6825 79.0497 48.215C79.0497 47.2061 78.9213 46.8759 78.9213 46.8759H76.1697V58.4142H79.3982V53.9933C79.3982 53.2595 79.6734 52.0488 80.4805 52.0488C81.1592 52.0488 81.361 52.5258 81.361 53.5164V58.4142H84.5895V53.7181C84.4611 51.4435 84.1309 49.3523 81.5811 49.3523ZM85.5434 49.5541V58.4142H88.7719V49.5541C88.7719 49.5541 88.2399 49.8843 87.1576 49.8843C86.0754 49.8292 85.5434 49.5541 85.5434 49.5541Z" fill="black"/>
<path d="M87.1573 49.2972C88.2312 49.2972 89.1018 48.7223 89.1018 48.0131C89.1018 47.304 88.2312 46.7291 87.1573 46.7291C86.0834 46.7291 85.2129 47.304 85.2129 48.0131C85.2129 48.7223 86.0834 49.2972 87.1573 49.2972Z" fill="black"/>
<path d="M59.0366 49.5541V58.4142H62.2468V49.5541C62.2468 49.5541 61.7148 49.8843 60.6325 49.8843C60.6325 49.8292 59.0366 49.5541 59.0366 49.5541Z" fill="black"/>
<path d="M60.6324 49.2972C61.7063 49.2972 62.5769 48.7223 62.5769 48.0131C62.5769 47.304 61.7063 46.7291 60.6324 46.7291C59.5585 46.7291 58.688 47.304 58.688 48.0131C58.688 48.7223 59.5585 49.2972 60.6324 49.2972Z" fill="black"/>
</svg>
