<svg viewBox="0 0 150 90" fill="none" xmlns="http://www.w3.org/2000/svg">
    <path d="M49.7508 44.1815C50.3906 44.1815 50.9513 44.0983 51.433 43.9317C51.9226 43.765 52.3293 43.5309 52.6532 43.2294C52.9848 42.92 53.2336 42.555 53.3994 42.1344C53.5654 41.706 53.6482 41.2339 53.6482 40.7181C53.6482 39.6787 53.3244 38.8615 52.6768 38.2664C52.0371 37.6713 51.0618 37.3737 49.7508 37.3737H47.1209V44.1815H49.7508ZM49.7508 35.3862C50.8407 35.3862 51.7883 35.5131 52.5939 35.7671C53.3994 36.0209 54.0668 36.382 54.5959 36.8501C55.1251 37.3103 55.516 37.8697 55.7687 38.5282C56.0294 39.1868 56.1596 39.9167 56.1596 40.7181C56.1596 41.5195 56.0214 42.2574 55.745 42.9318C55.4687 43.5984 55.0619 44.1736 54.5248 44.6576C53.9878 45.1417 53.3166 45.5185 52.511 45.7883C51.7133 46.0501 50.7933 46.181 49.7508 46.181H47.1209V52.477H44.5977V35.3862H49.7508Z" fill="#FF0000"/>
    <path d="M60.4415 42.7057C60.8284 41.9123 61.2944 41.2894 61.8393 40.8371C62.3842 40.385 63.0398 40.1588 63.8058 40.1588C64.0665 40.1588 64.3113 40.1905 64.5403 40.254C64.7773 40.3095 64.9825 40.3968 65.1563 40.5158L65.0023 42.2654C64.947 42.4795 64.8167 42.5867 64.6113 42.5867C64.5008 42.5867 64.335 42.5669 64.1138 42.5272C63.8927 42.4795 63.6557 42.4558 63.4031 42.4558C63.0319 42.4558 62.7042 42.5113 62.4198 42.6224C62.1355 42.7255 61.8788 42.8843 61.6498 43.0984C61.4287 43.3047 61.2312 43.5627 61.0575 43.8721C60.8837 44.1736 60.7219 44.5187 60.5718 44.9075V52.477H58.2617V40.385H59.5885C59.8413 40.385 60.0111 40.4325 60.0979 40.5278C60.1927 40.615 60.2599 40.7737 60.2993 41.0037L60.4415 42.7057Z" fill="#FF0000"/>
    <path d="M69.3538 40.385V52.477H67.0438V40.385H69.3538ZM69.7921 36.6478C69.7921 36.862 69.7487 37.0683 69.6619 37.2667C69.5749 37.4571 69.4565 37.6277 69.3064 37.7785C69.1643 37.9213 68.9945 38.0363 68.797 38.1236C68.5996 38.2029 68.3942 38.2426 68.181 38.2426C67.9678 38.2426 67.7664 38.2029 67.5769 38.1236C67.3874 38.0363 67.2176 37.9213 67.0675 37.7785C66.9254 37.6277 66.8108 37.4571 66.724 37.2667C66.645 37.0683 66.6055 36.862 66.6055 36.6478C66.6055 36.4257 66.645 36.2194 66.724 36.0289C66.8108 35.8306 66.9254 35.66 67.0675 35.5171C67.2176 35.3663 67.3874 35.2513 67.5769 35.172C67.7664 35.0847 67.9678 35.041 68.181 35.041C68.3942 35.041 68.5996 35.0847 68.797 35.172C68.9945 35.2513 69.1643 35.3663 69.3064 35.5171C69.4565 35.66 69.5749 35.8306 69.6619 36.0289C69.7487 36.2194 69.7921 36.4257 69.7921 36.6478Z" fill="#FF0000"/>
    <path d="M81.1349 42.6462C81.0645 42.7335 80.9929 42.805 80.9225 42.8605C80.8591 42.9081 80.764 42.9318 80.6373 42.9318C80.5117 42.9318 80.3768 42.8843 80.2348 42.789C80.101 42.6859 79.9273 42.5788 79.7138 42.4677C79.5084 42.3487 79.2561 42.2416 78.9557 42.1464C78.6635 42.0433 78.2997 41.9916 77.8655 41.9916C77.2972 41.9916 76.7957 42.0948 76.3613 42.3011C75.927 42.5074 75.5636 42.801 75.2714 43.1818C74.9871 43.5627 74.77 44.0268 74.6199 44.5743C74.4698 45.1218 74.3948 45.7368 74.3948 46.419C74.3948 47.1253 74.4738 47.756 74.6318 48.3114C74.7897 48.8589 75.0148 49.3231 75.307 49.7039C75.5992 50.0769 75.9545 50.3625 76.3731 50.5609C76.7917 50.7513 77.2577 50.8466 77.7716 50.8466C78.268 50.8466 78.6787 50.7869 79.0026 50.6679C79.3265 50.541 79.5952 50.4061 79.8088 50.2633C80.0224 50.1205 80.1996 49.9895 80.3416 49.8706C80.4836 49.7436 80.6303 49.6801 80.7805 49.6801C80.9694 49.6801 81.1161 49.7516 81.2182 49.8944L81.8812 50.7513C81.6054 51.0925 81.2933 51.382 80.9459 51.6201C80.6068 51.8581 80.243 52.0526 79.8558 52.2033C79.4685 52.354 79.0625 52.4652 78.6353 52.5365C78.2175 52.608 77.7904 52.6437 77.3564 52.6437C76.6062 52.6437 75.9033 52.5048 75.2477 52.2271C74.6002 51.9494 74.0355 51.5448 73.5538 51.0131C73.0799 50.4815 72.7048 49.8309 72.4284 49.0613C72.1519 48.2837 72.0137 47.4029 72.0137 46.419C72.0137 45.5225 72.1362 44.6934 72.381 43.9317C72.6336 43.1699 73.0009 42.5154 73.4827 41.9678C73.9723 41.4124 74.5725 40.9801 75.2833 40.6706C75.9941 40.3532 76.8076 40.1945 77.7235 40.1945C78.5848 40.1945 79.3429 40.3333 79.9977 40.6111C80.6537 40.8888 81.2381 41.2815 81.751 41.7893L81.1349 42.6462Z" fill="#FF0000"/>
    <path d="M91.7999 45.086C91.7999 44.6259 91.733 44.2013 91.5993 43.8126C91.4725 43.4238 91.2836 43.0866 91.0301 42.801C90.7778 42.5154 90.4692 42.2932 90.1066 42.1344C89.7428 41.9758 89.325 41.8964 88.8509 41.8964C87.8792 41.8964 87.1129 42.1781 86.552 42.7415C85.9993 43.3048 85.6484 44.0863 85.4982 45.086H91.7999ZM93.7081 50.7513C93.4229 51.0845 93.0955 51.3742 92.7247 51.6201C92.3527 51.8581 91.9584 52.0526 91.5394 52.2033C91.1216 52.354 90.6863 52.4652 90.2368 52.5365C89.7944 52.608 89.3555 52.6437 88.9213 52.6437C88.0928 52.6437 87.3218 52.5048 86.6119 52.2271C85.9089 51.9414 85.2964 51.5288 84.7753 50.9894C84.2625 50.4418 83.8588 49.7674 83.5666 48.966C83.2826 48.1568 83.1406 47.2284 83.1406 46.181C83.1406 45.34 83.2709 44.5584 83.5314 43.8364C83.7919 43.1065 84.1639 42.4717 84.6451 41.9321C85.1344 41.3925 85.7306 40.9681 86.4335 40.6586C87.1364 40.3492 87.9262 40.1945 88.8028 40.1945C89.5374 40.1945 90.2134 40.3175 90.8294 40.5635C91.4526 40.8015 91.99 41.1506 92.4395 41.6108C92.8901 42.0709 93.2422 42.6383 93.4945 43.3128C93.755 43.9872 93.8853 44.7568 93.8853 45.6216C93.8853 45.9787 93.8454 46.2207 93.7667 46.3477C93.6881 46.4667 93.5414 46.5262 93.329 46.5262H85.4384C85.463 47.2482 85.5651 47.879 85.747 48.4186C85.9289 48.9502 86.1777 49.3945 86.4933 49.7516C86.8172 50.1087 87.1998 50.3745 87.6422 50.549C88.0846 50.7236 88.5787 50.8108 89.1232 50.8108C89.636 50.8108 90.0784 50.7513 90.4504 50.6323C90.8294 50.5133 91.1522 50.3863 91.4209 50.2515C91.6978 50.1087 91.9267 49.9777 92.1086 49.8587C92.2975 49.7397 92.4641 49.6801 92.6061 49.6801C92.7951 49.6801 92.9418 49.7516 93.0438 49.8944L93.7081 50.7513Z" fill="#FF0000"/>
    <path d="M107.135 50.343V52.4548H97.4082V35.5129H99.9289V50.343H107.135Z" fill="black"/>
    <path d="M115.577 47.134C114.638 47.1655 113.841 47.2401 113.187 47.3582C112.532 47.4682 111.999 47.6177 111.588 47.8064C111.179 47.9953 110.883 48.2194 110.701 48.479C110.52 48.7306 110.429 49.0137 110.429 49.3284C110.429 49.6273 110.477 49.8868 110.571 50.1071C110.674 50.3194 110.808 50.4964 110.973 50.638C111.147 50.7717 111.348 50.87 111.577 50.9329C111.805 50.9958 112.054 51.0274 112.323 51.0274C112.677 51.0274 113.001 50.9919 113.293 50.9212C113.593 50.8503 113.873 50.7521 114.134 50.6261C114.393 50.4925 114.642 50.3312 114.879 50.1424C115.115 49.9537 115.348 49.7374 115.577 49.4936V47.134ZM108.808 42.1435C109.478 41.5064 110.205 41.0305 110.985 40.7159C111.774 40.4013 112.639 40.2439 113.577 40.2439C114.263 40.2439 114.871 40.358 115.399 40.5861C115.928 40.8064 116.374 41.117 116.736 41.5181C117.099 41.9193 117.371 42.399 117.553 42.9575C117.742 43.5159 117.837 44.1334 117.837 44.8098V52.4548H116.807C116.579 52.4548 116.406 52.4195 116.287 52.3487C116.168 52.27 116.073 52.1285 116.003 51.9239L115.754 50.874C115.447 51.157 115.143 51.4088 114.844 51.629C114.543 51.8414 114.228 52.0263 113.897 52.1835C113.573 52.333 113.225 52.447 112.855 52.5257C112.484 52.6043 112.074 52.6436 111.625 52.6436C111.151 52.6436 110.706 52.5807 110.287 52.4548C109.877 52.3212 109.518 52.1206 109.211 51.8532C108.902 51.5857 108.658 51.2515 108.476 50.8503C108.304 50.4492 108.217 49.9812 108.217 49.4464C108.217 48.9744 108.342 48.5222 108.595 48.0896C108.855 47.6492 109.273 47.2558 109.849 46.9098C110.434 46.5637 111.19 46.2805 112.121 46.0604C113.06 45.8401 114.212 45.7143 115.577 45.6829V44.8098C115.577 43.9052 115.383 43.2288 114.997 42.7805C114.61 42.3322 114.042 42.108 113.293 42.108C112.788 42.108 112.362 42.1709 112.015 42.2968C111.675 42.4226 111.379 42.5643 111.127 42.7215C110.883 42.871 110.666 43.0086 110.477 43.1345C110.295 43.2603 110.106 43.3232 109.909 43.3232C109.751 43.3232 109.612 43.28 109.495 43.1935C109.384 43.1069 109.293 43.0047 109.222 42.8867L108.808 42.1435Z" fill="black"/>
    <path d="M123.229 49.5053C123.608 50.0009 124.019 50.347 124.46 50.5437C124.902 50.7402 125.384 50.8386 125.903 50.8386C126.977 50.8386 127.801 50.4571 128.377 49.6942C128.96 48.9313 129.253 47.779 129.253 46.2374C129.253 44.8137 128.997 43.7716 128.484 43.1109C127.971 42.4424 127.245 42.108 126.306 42.108C125.644 42.108 125.068 42.2575 124.579 42.5564C124.097 42.8552 123.648 43.28 123.229 43.8305V49.5053ZM123.229 42.1199C123.727 41.5693 124.291 41.1249 124.921 40.7867C125.553 40.4485 126.271 40.2793 127.076 40.2793C127.778 40.2793 128.409 40.417 128.969 40.6923C129.537 40.9597 130.018 41.349 130.412 41.8603C130.808 42.3636 131.11 42.9771 131.324 43.7008C131.536 44.4244 131.643 45.2423 131.643 46.1547C131.643 47.1222 131.521 48.0031 131.277 48.7975C131.04 49.592 130.696 50.2722 130.247 50.8386C129.805 51.4049 129.264 51.8453 128.626 52.1599C127.986 52.4667 127.268 52.6201 126.471 52.6201C126.085 52.6201 125.731 52.5808 125.407 52.5021C125.083 52.4313 124.784 52.3252 124.508 52.1835C124.239 52.042 123.991 51.8689 123.762 51.6644C123.533 51.4599 123.316 51.2279 123.112 50.9684L123.005 51.9711C122.941 52.2936 122.744 52.4548 122.413 52.4548H120.922V35.041H123.229V42.1199Z" fill="black"/>
    <path d="M141.301 42.5327C141.238 42.6351 141.171 42.7098 141.101 42.757C141.029 42.7963 140.939 42.8159 140.828 42.8159C140.702 42.8159 140.56 42.7727 140.402 42.6861C140.252 42.5996 140.067 42.5053 139.846 42.4031C139.633 42.3007 139.38 42.2064 139.088 42.1199C138.797 42.0333 138.45 41.9901 138.047 41.9901C137.716 41.9901 137.412 42.0333 137.137 42.1199C136.868 42.1985 136.639 42.3126 136.45 42.462C136.26 42.6036 136.114 42.7766 136.012 42.9811C135.909 43.1777 135.857 43.3901 135.857 43.6182C135.857 43.9171 135.944 44.1648 136.118 44.3615C136.3 44.5581 136.532 44.7272 136.816 44.8688C137.108 45.0104 137.436 45.1401 137.798 45.2581C138.169 45.3683 138.545 45.4862 138.923 45.612C139.31 45.7379 139.684 45.8834 140.047 46.0486C140.418 46.2059 140.745 46.4065 141.029 46.6503C141.321 46.8862 141.554 47.1734 141.727 47.5116C141.909 47.8498 142 48.2627 142 48.7503C142 49.3088 141.897 49.8278 141.692 50.3077C141.495 50.7795 141.199 51.1886 140.805 51.5347C140.418 51.8808 139.937 52.1521 139.36 52.3488C138.785 52.5453 138.126 52.6437 137.384 52.6437C136.556 52.6437 135.791 52.506 135.089 52.2307C134.387 51.9554 133.799 51.6055 133.326 51.1808L133.87 50.2958C133.933 50.1858 134.012 50.1031 134.107 50.0481C134.202 49.9852 134.327 49.9538 134.486 49.9538C134.635 49.9538 134.79 50.0088 134.947 50.1189C135.104 50.2291 135.294 50.3509 135.515 50.4846C135.735 50.6104 136.004 50.7285 136.32 50.8386C136.635 50.9408 137.03 50.992 137.503 50.992C137.897 50.992 138.241 50.9448 138.532 50.8503C138.824 50.7481 139.065 50.6144 139.255 50.4492C139.452 50.2762 139.597 50.0795 139.692 49.8593C139.786 49.6391 139.834 49.4071 139.834 49.1633C139.834 48.8487 139.743 48.5891 139.562 48.3845C139.389 48.1722 139.156 47.9913 138.864 47.8419C138.58 47.6924 138.253 47.5626 137.882 47.4525C137.511 47.3425 137.132 47.2244 136.746 47.0986C136.359 46.9728 135.981 46.8273 135.61 46.6621C135.239 46.497 134.907 46.2884 134.616 46.0368C134.332 45.7851 134.098 45.4783 133.918 45.1166C133.744 44.7548 133.657 44.3142 133.657 43.7952C133.657 43.3311 133.752 42.8868 133.941 42.462C134.138 42.0373 134.419 41.6636 134.781 41.3411C135.152 41.0187 135.605 40.7631 136.141 40.5743C136.686 40.3777 137.306 40.2794 138 40.2794C138.797 40.2794 139.514 40.4052 140.154 40.6569C140.8 40.9086 141.353 41.2547 141.811 41.6951L141.301 42.5327Z" fill="black"/>
    <path d="M41.8479 44.924C41.8479 54.2708 34.2708 61.8479 24.924 61.8479C15.5771 61.8479 8 54.2708 8 44.924C8 35.5771 15.5771 28 24.924 28C34.2708 28 41.8479 35.5771 41.8479 44.924Z" fill="#FF0000"/>
    <path d="M22.884 52.0495L15.9968 45.1623L22.884 38.2751L21.0312 36.4223L12.291 45.1623L21.0312 53.9024L22.884 52.0495Z" fill="white"/>
    <path d="M26.9648 51.915L33.8519 45.0278L26.9648 38.1406L28.8177 36.2878L37.5577 45.0278L28.8177 53.7679L26.9648 51.915Z" fill="white"/>
</svg>
