<svg width="200" height="200" viewBox="0 0 200 200" fill="none" xmlns="http://www.w3.org/2000/svg">
    <path fill-rule="evenodd" clip-rule="evenodd" d="M9.74073 124L14.4815 128.718L9.74073 133.435L5 128.718L9.74073 124Z" fill="#5A80F9"/>
    <path fill-rule="evenodd" clip-rule="evenodd" d="M20.4751 124L25.2158 128.718L20.4751 133.435L15.7344 128.718L20.4751 124Z" fill="#FA4B57"/>
    <path fill-rule="evenodd" clip-rule="evenodd" d="M31.3409 133.28L25.1914 139.399H25.2138L20.4731 144.117L18.8407 142.492L18.796 142.515L14.2566 137.975L14.0777 137.797L9.56055 133.257L14.2566 128.54L18.796 133.079L18.9749 133.257L20.4508 134.725L26.6226 128.584L31.3409 133.28Z" fill="#FA4B57"/>
    <path fill-rule="evenodd" clip-rule="evenodd" d="M31.2095 124L35.9502 128.718L31.2095 133.435L26.4688 128.718L31.2095 124Z" fill="#5A80F9"/>
    <path d="M46.0365 138.837H51.8123V141.022H43.3164V127.821H46.0365V138.837ZM52.8005 136.025C52.8005 135.053 52.9879 134.185 53.3627 133.424C53.7375 132.663 54.2755 132.073 54.9767 131.655C55.6838 131.239 56.5029 131.03 57.4339 131.03C58.7575 131.03 59.8366 131.435 60.6708 132.245C61.5109 133.056 61.9795 134.154 62.0762 135.545L62.0943 136.217C62.0943 137.721 61.6741 138.93 60.8339 139.843C59.9938 140.749 58.8663 141.203 57.452 141.203C56.0374 141.203 54.9072 140.749 54.0609 139.843C53.2206 138.936 52.8005 137.703 52.8005 136.144V136.025ZM55.4209 136.217C55.4209 137.147 55.5963 137.86 55.9468 138.356C56.2974 138.846 56.7991 139.091 57.452 139.091C58.0866 139.091 58.5824 138.849 58.9389 138.365C59.2956 137.876 59.4738 137.096 59.4738 136.025C59.4738 135.114 59.2956 134.406 58.9389 133.904C58.5824 133.402 58.0805 133.152 57.4339 133.152C56.7931 133.152 56.2974 133.402 55.9468 133.904C55.5963 134.4 55.4209 135.171 55.4209 136.217ZM63.3002 136.044C63.3002 134.515 63.6417 133.297 64.3247 132.39C65.0138 131.483 65.9537 131.03 67.1446 131.03C68.0996 131.03 68.8885 131.386 69.5111 132.099V127.095H72.1406V141.022H69.774L69.647 139.979C68.9943 140.796 68.154 141.203 67.1264 141.203C65.9718 141.203 65.044 140.749 64.3429 139.843C63.6477 138.93 63.3002 137.664 63.3002 136.044ZM65.9205 136.234C65.9205 137.153 66.0808 137.857 66.4011 138.346C66.7214 138.837 67.1869 139.081 67.7974 139.081C68.6074 139.081 69.1786 138.739 69.5111 138.057V134.185C69.1846 133.503 68.6195 133.161 67.8156 133.161C66.5521 133.161 65.9205 134.185 65.9205 136.234ZM73.7907 136.044C73.7907 134.54 74.1473 133.326 74.8606 132.409C75.5799 131.49 76.547 131.03 77.7621 131.03C78.838 131.03 79.6752 131.398 80.2736 132.136L80.3824 131.211H82.758V140.695C82.758 141.554 82.5615 142.3 82.1686 142.934C81.7817 143.569 81.2347 144.053 80.5275 144.386C79.8203 144.719 78.9921 144.884 78.0431 144.884C77.3239 144.884 76.6227 144.739 75.9397 144.449C75.2565 144.165 74.7398 143.796 74.3891 143.343L75.5497 141.748C76.2026 142.478 76.9944 142.845 77.9253 142.845C78.6204 142.845 79.1614 142.657 79.5483 142.281C79.9351 141.913 80.1286 141.387 80.1286 140.705V140.178C79.5241 140.861 78.7292 141.203 77.744 141.203C76.5651 141.203 75.6102 140.743 74.8787 139.826C74.1535 138.9 73.7907 137.676 73.7907 136.154V136.044ZM76.411 136.234C76.411 137.122 76.5894 137.822 76.946 138.329C77.3027 138.831 77.7923 139.081 78.4149 139.081C79.2128 139.081 79.784 138.783 80.1286 138.184V134.058C79.7779 133.459 79.2128 133.161 78.4331 133.161C77.8043 133.161 77.3087 133.418 76.946 133.931C76.5894 134.445 76.411 135.213 76.411 136.234ZM87.5455 141.022H84.9159V127.095H87.5455V141.022ZM93.3754 137.314L95.1889 131.211H97.9996L94.0555 142.544L93.838 143.061C93.2515 144.343 92.2843 144.985 90.9365 144.985C90.5557 144.985 90.1688 144.926 89.7759 144.811V142.826L90.1749 142.835C90.6705 142.835 91.0393 142.76 91.281 142.608C91.5289 142.458 91.7223 142.207 91.8613 141.856L92.1695 141.05L88.7331 131.211H91.553L93.3754 137.314Z" fill="#3E3F42" fill-opacity="0.7"/>
    <path d="M10.459 68.4873V75H6.65039V56.5156H13.8613C15.2493 56.5156 16.4681 56.7695 17.5176 57.2773C18.5755 57.7852 19.388 58.5088 19.9551 59.4482C20.5221 60.3792 20.8057 61.4414 20.8057 62.6348C20.8057 64.446 20.1836 65.8763 18.9395 66.9258C17.7038 67.9668 15.9899 68.4873 13.7979 68.4873H10.459ZM10.459 65.4023H13.8613C14.8685 65.4023 15.6344 65.1654 16.1592 64.6914C16.6924 64.2174 16.959 63.5404 16.959 62.6602C16.959 61.7546 16.6924 61.0225 16.1592 60.4639C15.626 59.9053 14.8896 59.6175 13.9502 59.6006H10.459V65.4023ZM30.2764 68.2334H27.2422V75H23.4336V56.5156H30.3018C32.4854 56.5156 34.1696 57.0023 35.3545 57.9756C36.5394 58.9489 37.1318 60.3242 37.1318 62.1016C37.1318 63.3626 36.8568 64.4163 36.3066 65.2627C35.765 66.1006 34.9398 66.7692 33.8311 67.2686L37.8301 74.8223V75H33.7422L30.2764 68.2334ZM27.2422 65.1484H30.3145C31.2708 65.1484 32.0114 64.9072 32.5361 64.4248C33.0609 63.9339 33.3232 63.2611 33.3232 62.4062C33.3232 61.5345 33.0736 60.849 32.5742 60.3496C32.0833 59.8503 31.3258 59.6006 30.3018 59.6006H27.2422V65.1484ZM44.0889 75H40.2803V56.5156H44.0889V75ZM54.4609 70.417L58.6504 56.5156H62.8906L56.4541 75H52.4805L46.0693 56.5156H50.2969L54.4609 70.417ZM74.1133 71.1914H67.4355L66.166 75H62.1162L68.9971 56.5156H72.5264L79.4453 75H75.3955L74.1133 71.1914ZM68.4639 68.1064H73.085L70.7617 61.1875L68.4639 68.1064ZM93.5625 59.6006H87.9004V75H84.0918V59.6006H78.5059V56.5156H93.5625V59.6006ZM106.867 66.9893H99.5547V71.9404H108.137V75H95.7461V56.5156H108.111V59.6006H99.5547V64.0059H106.867V66.9893ZM120.654 71.9404H128.741V75H116.846V56.5156H120.654V71.9404ZM141.627 71.1914H134.949L133.68 75H129.63L136.511 56.5156H140.04L146.959 75H142.909L141.627 71.1914ZM135.978 68.1064H140.599L138.275 61.1875L135.978 68.1064ZM148.686 75V56.5156H155.16C157.403 56.5156 159.104 56.9473 160.264 57.8105C161.423 58.6654 162.003 59.9222 162.003 61.5811C162.003 62.4867 161.77 63.2865 161.305 63.9805C160.839 64.666 160.192 65.1696 159.362 65.4912C160.31 65.7282 161.055 66.2064 161.597 66.9258C162.147 67.6452 162.422 68.5254 162.422 69.5664C162.422 71.3438 161.855 72.6895 160.721 73.6035C159.587 74.5176 157.97 74.9831 155.871 75H148.686ZM152.494 66.9512V71.9404H155.757C156.654 71.9404 157.352 71.7288 157.852 71.3057C158.359 70.874 158.613 70.2816 158.613 69.5283C158.613 67.8356 157.737 66.9766 155.985 66.9512H152.494ZM152.494 64.2598H155.312C157.234 64.2259 158.194 63.46 158.194 61.9619C158.194 61.124 157.949 60.5231 157.458 60.1592C156.976 59.7868 156.21 59.6006 155.16 59.6006H152.494V64.2598ZM176.412 66.9893H169.1V71.9404H177.682V75H165.291V56.5156H177.656V59.6006H169.1V64.0059H176.412V66.9893ZM183.725 71.9404H191.812V75H179.916V56.5156H183.725V71.9404ZM193.957 73.1973C193.957 72.6133 194.152 72.1393 194.541 71.7754C194.939 71.4115 195.434 71.2295 196.026 71.2295C196.627 71.2295 197.122 71.4115 197.512 71.7754C197.91 72.1393 198.108 72.6133 198.108 73.1973C198.108 73.7728 197.914 74.2425 197.524 74.6064C197.135 74.9619 196.636 75.1396 196.026 75.1396C195.425 75.1396 194.93 74.9619 194.541 74.6064C194.152 74.2425 193.957 73.7728 193.957 73.1973Z" fill="#3E3F42"/>
</svg>
