<svg width="118" height="116" viewBox="0 0 118 116" fill="none" xmlns="http://www.w3.org/2000/svg">
<path fill-rule="evenodd" clip-rule="evenodd" d="M24.346 63.1951C24.346 68.5681 20.2184 71.6282 14.0981 71.6282C11.554 71.6282 8.86746 71.1301 6.12759 69.9381V62.8215C8.60059 64.1736 11.6607 65.2055 14.0981 65.2055C15.7349 65.2055 16.838 64.7608 16.838 63.3908C16.838 59.8325 5.64722 61.1669 5.64722 52.9117C5.64722 47.6276 9.72145 44.4785 15.6816 44.4785C18.119 44.4785 20.5564 44.8522 22.9938 45.8485V52.8761C20.7521 51.6485 17.9055 50.9546 15.6638 50.9546C14.1159 50.9546 13.084 51.3994 13.084 52.5736C13.084 55.9006 24.346 54.3172 24.346 63.1951ZM33.1172 61.9319C33.1172 66.3264 37.7607 64.9565 38.7037 64.5828V70.6319C37.7251 71.1835 35.946 71.6282 33.5442 71.6282C29.1675 71.6282 25.8938 68.3724 25.8938 63.9601L25.9294 40.1019L33.1172 38.554V44.9589H38.7037V51.3104H33.1172V61.9319ZM48.4 53.3743V71.0945H41.0343V44.9589H47.635L47.8662 47.1651C49.6632 43.9626 53.3638 44.6031 54.3423 44.9589V51.8086C53.4172 51.5062 50.2503 51.0436 48.4 53.3743ZM56.1215 36.4546L63.5049 34.8712V40.9558L56.1215 42.5393V36.4546ZM56.1215 44.9589H63.5049V71.0945H56.1215V44.9589ZM77.1509 51.0792C75.4607 51.0792 74.3932 51.7019 73.6282 52.5558L73.6638 63.6399C74.3755 64.4227 75.4073 65.0632 77.1331 65.0632C79.8552 65.0632 81.6877 62.0565 81.6877 58.0534C81.7055 54.1215 79.8374 51.0792 77.1509 51.0792ZM78.8589 71.6282C76.2791 71.6282 74.7135 70.5252 73.646 69.7424L73.6282 78.1221L66.2626 79.7055V44.9589H72.9877L73.1478 46.8092C74.2331 45.8485 76.0301 44.4785 78.9123 44.4785C84.0896 44.4785 88.9466 49.1933 88.9466 57.8755C88.9466 67.3405 84.1251 71.6282 78.8589 71.6282ZM101.685 50.5454C99.8528 50.5454 97.8067 51.862 97.8067 55.2246H105.421C105.421 51.862 103.5 50.5454 101.685 50.5454ZM112.289 60.7221H97.8779C98.216 64.2092 100.742 65.3301 103.607 65.3301C106.525 65.3301 108.891 64.6718 110.848 63.6043V69.6178C108.855 70.8988 106.204 71.6282 102.682 71.6282C95.5117 71.6282 90.4767 67.0736 90.4767 58.089C90.4767 50.492 94.7466 44.4608 101.739 44.4608C108.731 44.4608 112.378 50.4031 112.378 58.0356C112.378 58.7651 112.325 60.3307 112.289 60.7221Z" fill="#8898AA"/>
</svg>
