<svg width="200" height="200" viewBox="0 0 200 200" fill="none" xmlns="http://www.w3.org/2000/svg">
    <path fill-rule="evenodd" clip-rule="evenodd" d="M9.74073 124L14.4815 128.718L9.74073 133.435L5 128.718L9.74073 124Z" fill="#5A80F9"/>
    <path fill-rule="evenodd" clip-rule="evenodd" d="M20.4751 124L25.2158 128.718L20.4751 133.435L15.7344 128.718L20.4751 124Z" fill="#FA4B57"/>
    <path fill-rule="evenodd" clip-rule="evenodd" d="M31.3409 133.28L25.1914 139.399H25.2138L20.4731 144.117L18.8407 142.492L18.796 142.515L14.2566 137.975L14.0777 137.797L9.56055 133.257L14.2566 128.54L18.796 133.079L18.9749 133.257L20.4508 134.725L26.6226 128.584L31.3409 133.28Z" fill="#FA4B57"/>
    <path fill-rule="evenodd" clip-rule="evenodd" d="M31.2095 124L35.9502 128.718L31.2095 133.435L26.4688 128.718L31.2095 124Z" fill="#5A80F9"/>
    <path d="M46.0365 138.837H51.8123V141.022H43.3164V127.821H46.0365V138.837ZM52.8005 136.025C52.8005 135.053 52.9879 134.185 53.3627 133.424C53.7375 132.663 54.2755 132.073 54.9767 131.655C55.6838 131.239 56.5029 131.03 57.4339 131.03C58.7575 131.03 59.8366 131.435 60.6708 132.245C61.5109 133.056 61.9795 134.154 62.0762 135.545L62.0943 136.217C62.0943 137.721 61.6741 138.93 60.8339 139.843C59.9938 140.749 58.8663 141.203 57.452 141.203C56.0374 141.203 54.9072 140.749 54.0609 139.843C53.2206 138.936 52.8005 137.703 52.8005 136.144V136.025ZM55.4209 136.217C55.4209 137.147 55.5963 137.86 55.9468 138.356C56.2974 138.846 56.7991 139.091 57.452 139.091C58.0866 139.091 58.5824 138.849 58.9389 138.365C59.2956 137.876 59.4738 137.096 59.4738 136.025C59.4738 135.114 59.2956 134.406 58.9389 133.904C58.5824 133.402 58.0805 133.152 57.4339 133.152C56.7931 133.152 56.2974 133.402 55.9468 133.904C55.5963 134.4 55.4209 135.171 55.4209 136.217ZM63.3002 136.044C63.3002 134.515 63.6417 133.297 64.3247 132.39C65.0138 131.483 65.9537 131.03 67.1446 131.03C68.0996 131.03 68.8885 131.386 69.5111 132.099V127.095H72.1406V141.022H69.774L69.647 139.979C68.9943 140.796 68.154 141.203 67.1264 141.203C65.9718 141.203 65.044 140.749 64.3429 139.843C63.6477 138.93 63.3002 137.664 63.3002 136.044ZM65.9205 136.234C65.9205 137.153 66.0808 137.857 66.4011 138.346C66.7214 138.837 67.1869 139.081 67.7974 139.081C68.6074 139.081 69.1786 138.739 69.5111 138.057V134.185C69.1846 133.503 68.6195 133.161 67.8156 133.161C66.5521 133.161 65.9205 134.185 65.9205 136.234ZM73.7907 136.044C73.7907 134.54 74.1473 133.326 74.8606 132.409C75.5799 131.49 76.547 131.03 77.7621 131.03C78.838 131.03 79.6752 131.398 80.2736 132.136L80.3824 131.211H82.758V140.695C82.758 141.554 82.5615 142.3 82.1686 142.934C81.7817 143.569 81.2347 144.053 80.5275 144.386C79.8203 144.719 78.9921 144.884 78.0431 144.884C77.3239 144.884 76.6227 144.739 75.9397 144.449C75.2565 144.165 74.7398 143.796 74.3891 143.343L75.5497 141.748C76.2026 142.478 76.9944 142.845 77.9253 142.845C78.6204 142.845 79.1614 142.657 79.5483 142.281C79.9351 141.913 80.1286 141.387 80.1286 140.705V140.178C79.5241 140.861 78.7292 141.203 77.744 141.203C76.5651 141.203 75.6102 140.743 74.8787 139.826C74.1535 138.9 73.7907 137.676 73.7907 136.154V136.044ZM76.411 136.234C76.411 137.122 76.5894 137.822 76.946 138.329C77.3027 138.831 77.7923 139.081 78.4149 139.081C79.2128 139.081 79.784 138.783 80.1286 138.184V134.058C79.7779 133.459 79.2128 133.161 78.4331 133.161C77.8043 133.161 77.3087 133.418 76.946 133.931C76.5894 134.445 76.411 135.213 76.411 136.234ZM87.5455 141.022H84.9159V127.095H87.5455V141.022ZM93.3754 137.314L95.1889 131.211H97.9996L94.0555 142.544L93.838 143.061C93.2515 144.343 92.2843 144.985 90.9365 144.985C90.5557 144.985 90.1688 144.926 89.7759 144.811V142.826L90.1749 142.835C90.6705 142.835 91.0393 142.76 91.281 142.608C91.5289 142.458 91.7223 142.207 91.8613 141.856L92.1695 141.05L88.7331 131.211H91.553L93.3754 137.314Z" fill="#3E3F42" fill-opacity="0.7"/>
    <path d="M21.0469 69.668L23.5352 56.5156H27.3311L23.2305 75H19.3965L16.3877 62.6348L13.3789 75H9.54492L5.44434 56.5156H9.24023L11.7412 69.6426L14.7881 56.5156H18.0127L21.0469 69.668ZM44.4443 75H40.6357V67.0781H33.209V75H29.4004V56.5156H33.209V64.0059H40.6357V56.5156H44.4443V75ZM51.833 75H48.0244V56.5156H51.833V75ZM68.9082 59.6006H63.2461V75H59.4375V59.6006H53.8516V56.5156H68.9082V59.6006ZM82.2129 66.9893H74.9004V71.9404H83.4824V75H71.0918V56.5156H83.457V59.6006H74.9004V64.0059H82.2129V66.9893ZM96 71.9404H104.087V75H92.1914V56.5156H96V71.9404ZM116.973 71.1914H110.295L109.025 75H104.976L111.856 56.5156H115.386L122.305 75H118.255L116.973 71.1914ZM111.323 68.1064H115.944L113.621 61.1875L111.323 68.1064ZM124.031 75V56.5156H130.506C132.749 56.5156 134.45 56.9473 135.609 57.8105C136.769 58.6654 137.349 59.9222 137.349 61.5811C137.349 62.4867 137.116 63.2865 136.65 63.9805C136.185 64.666 135.537 65.1696 134.708 65.4912C135.656 65.7282 136.401 66.2064 136.942 66.9258C137.493 67.6452 137.768 68.5254 137.768 69.5664C137.768 71.3438 137.201 72.6895 136.066 73.6035C134.932 74.5176 133.316 74.9831 131.217 75H124.031ZM127.84 66.9512V71.9404H131.103C132 71.9404 132.698 71.7288 133.197 71.3057C133.705 70.874 133.959 70.2816 133.959 69.5283C133.959 67.8356 133.083 66.9766 131.331 66.9512H127.84ZM127.84 64.2598H130.658C132.579 64.2259 133.54 63.46 133.54 61.9619C133.54 61.124 133.295 60.5231 132.804 60.1592C132.321 59.7868 131.555 59.6006 130.506 59.6006H127.84V64.2598ZM151.758 66.9893H144.445V71.9404H153.027V75H140.637V56.5156H153.002V59.6006H144.445V64.0059H151.758V66.9893ZM159.07 71.9404H167.157V75H155.262V56.5156H159.07V71.9404ZM169.303 73.1973C169.303 72.6133 169.497 72.1393 169.887 71.7754C170.285 71.4115 170.78 71.2295 171.372 71.2295C171.973 71.2295 172.468 71.4115 172.857 71.7754C173.255 72.1393 173.454 72.6133 173.454 73.1973C173.454 73.7728 173.259 74.2425 172.87 74.6064C172.481 74.9619 171.981 75.1396 171.372 75.1396C170.771 75.1396 170.276 74.9619 169.887 74.6064C169.497 74.2425 169.303 73.7728 169.303 73.1973Z" fill="#3E3F42"/>
</svg>
