<svg width="116" height="116" viewBox="0 0 116 116" fill="none" xmlns="http://www.w3.org/2000/svg">
<path d="M5 64.5497L16.0085 47.3515H6.29724C6.20722 46.8124 6.1712 46.2655 6.18974 45.7192C6.17217 45.173 6.20835 44.6248 6.29724 44.0869H21.9469L22.1536 44.631L11.0355 61.8293H21.4094C21.4994 62.3683 21.5354 62.9152 21.5169 63.4615C21.5388 63.972 21.5028 64.4832 21.4094 64.9854H5.10853L5 64.5497ZM36.6269 51.2706C36.687 50.6547 36.6117 50.0331 36.4064 49.45C36.2011 48.8668 35.8709 48.3364 35.4392 47.8966C34.3958 47.1735 33.1403 46.8282 31.8772 46.9168C30.9739 46.9309 30.0724 47.0036 29.1784 47.1347C28.3739 47.2522 27.5799 47.4341 26.804 47.6787C26.2522 46.6837 25.9906 45.5517 26.0495 44.4132C27.0292 44.0807 28.0431 43.8615 29.0719 43.7596C30.1415 43.5788 31.2264 43.5059 32.3103 43.5418C34.5139 43.4028 36.6946 44.0586 38.4627 45.3919C39.8664 46.5906 40.621 48.6575 40.621 51.3779V64.5476L37.1665 65.2012C35.8103 65.418 34.4376 65.5274 33.0649 65.5274C31.87 65.5378 30.6875 65.4273 29.5029 65.2012C28.5278 65.0042 27.6068 64.5955 26.804 64.0035C26.0631 63.4738 25.4685 62.762 25.0768 61.9356C24.6236 60.986 24.4014 59.9413 24.4287 58.8878C24.383 57.8198 24.6451 56.7612 25.1833 55.8401C25.6189 54.9474 26.2916 54.194 27.1265 53.6637C27.9974 53.0993 28.9419 52.6597 29.9329 52.3577C31.0203 52.045 32.1481 51.8991 33.2789 51.922C34.0001 51.8949 34.7222 51.9312 35.4372 52.0304C35.9767 52.0304 36.4088 52.1388 36.8409 52.1388V51.2685L36.6269 51.2706ZM36.6269 55.1897C36.1173 55.1636 35.6119 55.0907 35.1157 54.9812C34.4676 54.9812 33.927 54.8728 33.497 54.8728C32.1326 54.7906 30.776 55.1326 29.6104 55.8526C29.1843 56.1841 28.844 56.6146 28.6185 57.1073C28.393 57.6001 28.289 58.1405 28.3152 58.6825C28.2543 59.2828 28.3641 59.8881 28.6317 60.4278C28.8993 60.9675 29.3137 61.4192 29.8265 61.7302C30.2894 61.9928 30.807 62.1421 31.3377 62.1659C31.8366 62.2525 32.3428 62.2889 32.8489 62.2743C33.4985 62.2925 34.1485 62.2563 34.7922 62.1659L36.5184 61.8397V55.2001L36.6269 55.1897ZM45.0461 44.0869C45.3696 44.0869 45.5856 43.9785 45.9092 43.9785H47.6354C47.9589 43.9785 48.175 44.0869 48.4985 44.0869C48.5572 44.2629 48.5933 44.4458 48.606 44.631C48.606 44.9573 48.7135 45.1751 48.7135 45.5013C48.7135 45.8276 48.821 46.1549 48.821 46.4811C48.8179 46.6687 48.8551 46.8532 48.9285 47.0252L49.9001 45.7192C50.3198 45.297 50.7912 44.9312 51.3039 44.631C52.5598 43.9295 53.9707 43.5574 55.4054 43.5428C56.5425 43.5282 57.6919 43.7513 58.7514 44.1964C59.7924 44.6186 60.7151 45.2913 61.4389 46.1559C62.2252 47.1172 62.8125 48.2276 63.1662 49.4215C63.6222 50.938 63.8409 52.517 63.8143 54.1015C63.9866 57.2075 62.9399 60.2572 60.9004 62.5912C58.9571 64.6592 56.2489 65.6389 52.6972 65.6389C52.0837 65.6571 51.4697 65.6208 50.8625 65.5305C50.2147 65.4214 49.6752 65.3127 49.2438 65.2043V74.8916C48.9202 74.8916 48.5957 75 48.1646 75H46.2214C45.8978 75 45.5732 74.8916 45.2497 74.8916V44.0869H45.0461ZM49.0391 61.7209C49.5641 61.9166 50.106 62.0624 50.6578 62.1566C51.3728 62.2558 52.0949 62.292 52.8161 62.265C53.7464 62.2889 54.6498 62.1399 55.5036 61.8293C56.3019 61.5537 57.0108 61.0644 57.5544 60.4138C58.1699 59.6726 58.6456 58.8241 58.9581 57.9101C59.3282 56.7499 59.5104 55.537 59.4977 54.3183C59.5655 52.5018 59.1558 50.6995 58.31 49.0942C57.4696 47.7705 55.9781 47.0096 54.4235 47.1347C53.7625 47.1367 53.1062 47.2469 52.4802 47.4609C51.8656 47.6948 51.312 48.067 50.8615 48.5491C50.3445 49.0776 49.9404 49.7072 49.6738 50.3992C49.3471 51.2674 49.2004 52.192 49.2417 53.1092V61.7084L49.0391 61.7209ZM68.6849 47.2326H65.9973C65.9005 46.9916 65.8636 46.7304 65.8899 46.4717V44.7311C65.8899 44.4048 65.9973 44.187 65.9973 43.9702H72.5818V65.0855C72.2582 65.0855 71.9337 65.1939 71.6101 65.1939H69.6668C69.3433 65.1939 69.0187 65.0855 68.6952 65.0855L68.6849 47.2326ZM81.3141 55.6129C81.4216 57.8987 81.9622 59.6404 83.0403 60.6202C84.4181 61.8019 86.2023 62.3883 88.0061 62.2524C89.8842 62.2629 91.75 61.9325 93.5113 61.2727C93.7725 61.7475 93.9548 62.2623 94.0509 62.7965C94.1746 63.3691 94.2473 63.9516 94.268 64.5372C93.3391 64.9559 92.3592 65.2485 91.3541 65.4075C90.1798 65.6337 88.9767 65.7432 87.7921 65.7338C86.1391 65.7994 84.4892 65.541 82.9339 64.9729C81.6855 64.383 80.5523 63.5721 79.5879 62.5787C78.6916 61.5775 78.0277 60.3876 77.6446 59.0953C77.2029 57.6874 76.9842 56.2181 76.9965 54.7415C77.0027 53.2739 77.1826 51.823 77.5361 50.3877C77.9072 49.1132 78.5314 47.928 79.3709 46.9043C80.2288 45.9318 81.2521 45.1324 82.3933 44.5101C83.8077 43.8304 85.3605 43.4949 86.9269 43.5303C88.1484 43.4767 89.366 43.7036 90.4878 44.1938C91.6096 44.6841 92.6063 45.4248 93.4028 46.3602C94.1706 47.235 94.7249 48.2787 95.0215 49.408C95.4267 50.6723 95.6107 51.9981 95.5611 53.3271V54.5257C95.5611 54.9614 95.4536 55.2866 95.4536 55.6139L81.3141 55.6129ZM91.6766 52.5651C91.6826 51.8271 91.5734 51.0926 91.353 50.3888C91.1312 49.743 90.8419 49.1228 90.4899 48.5387C90.0919 47.9925 89.5749 47.5457 88.9787 47.2326C88.3055 46.9114 87.5644 46.7618 86.8204 46.7969C86.119 46.7611 85.4181 46.8787 84.766 47.1418C84.1138 47.4048 83.5259 47.807 83.0424 48.3208C82.0868 49.5367 81.5221 51.0179 81.4237 52.5662L91.6766 52.5651ZM100.096 44.0765C100.419 44.0765 100.635 43.9681 100.959 43.9681H102.685C103.009 43.9681 103.225 44.0765 103.548 44.0765C103.688 44.6093 103.76 45.1577 103.764 45.7088C103.852 46.2846 103.888 46.8671 103.872 47.4494C104.422 46.4767 105.2 45.6547 106.139 45.0552C107.202 44.3764 108.443 44.0351 109.701 44.0754H110.349C110.535 44.0476 110.726 44.0859 110.888 44.1838C110.888 44.3923 110.996 44.7279 110.996 44.9447V45.8151C111.013 46.1454 110.977 46.4764 110.888 46.7949C110.888 47.1211 110.781 47.4484 110.781 47.7746C110.574 47.7746 110.349 47.6662 110.133 47.6662H109.593C108.896 47.6596 108.203 47.7698 107.542 47.9925C106.855 48.2052 106.226 48.578 105.707 49.0807C105.107 49.6892 104.662 50.4362 104.412 51.257C104.074 52.3853 103.928 53.563 103.98 54.7405V65.2022C103.657 65.2022 103.332 65.3106 103.009 65.3106H101.065C100.742 65.3106 100.311 65.2022 99.9862 65.2022V44.0869L100.096 44.0765ZM76.4559 31.6792H72.4722L75.2786 28.8493C75.0719 28.523 74.8465 28.3052 74.6305 27.9789C74.3202 27.7525 74.0313 27.4978 73.7674 27.218L70.9527 30.0448V26.1153C70.6003 26.0254 70.2366 25.9889 69.8736 26.0069C69.5104 25.9834 69.1459 26.0201 68.7944 26.1153V30.1428L65.8795 27.2034C65.5446 27.3973 65.2512 27.6563 65.0164 27.9654C64.8097 28.2916 64.4768 28.5095 64.2618 28.8357L67.0682 31.6656H63.1693L63.0618 32.7538C63.0374 33.1235 63.0737 33.4946 63.1693 33.8524H67.1633L64.2484 36.7917C64.6753 37.438 65.2252 37.9946 65.8671 38.424L68.6735 35.5941V39.6216C69.0259 39.7115 69.3896 39.748 69.7526 39.73C70.1158 39.7534 70.4803 39.7168 70.8318 39.6216V35.5941L73.6382 38.424C73.9731 38.2302 74.2665 37.9712 74.5013 37.6621C74.7796 37.3967 75.0322 37.1053 75.2559 36.7917L72.4722 33.9639H76.4663C76.5554 33.6086 76.5916 33.2418 76.5738 32.8757C76.5965 32.473 76.5603 32.0691 76.4663 31.6771L76.4559 31.6792ZM71.4902 32.7673C71.4802 33.2468 71.4072 33.7227 71.2731 34.1828C70.8287 34.36 70.348 34.433 69.8694 34.3913C69.394 34.3811 68.922 34.3075 68.4657 34.1724C68.29 33.7242 68.2177 33.2395 68.259 32.7569C68.2691 32.2775 68.3421 31.8015 68.4761 31.3414C68.9205 31.1643 69.4012 31.0913 69.8798 31.133C70.3552 31.1431 70.8272 31.2167 71.2835 31.3519C71.4081 31.814 71.4805 32.2888 71.4995 32.7673H71.4902Z" fill="#FF4A00"/>
</svg>
