<svg viewBox="0 0 151 151" fill="none" xmlns="http://www.w3.org/2000/svg">
    <path fill-rule="evenodd" clip-rule="evenodd" d="M79.3848 23.8744C77.6055 22.6775 76.2716 20.2388 78.3781 17.6441C75.046 15.1879 74.0706 9.35273 76.7936 5.85255C78.016 4.32511 79.7075 3.24294 81.6067 2.77338C83.5059 2.30382 85.5068 2.47303 87.3002 3.25484C89.2489 4.18919 90.9416 5.58274 92.2328 7.31574C92.2328 7.31574 92.2585 3.68016 95.1129 2.99965C97.9673 2.31915 100.541 5.35173 101.927 7.81051C103.313 10.2693 103.803 14.1213 103.351 16.1155C103.935 14.9498 104.645 14.2532 105.292 14.5889C105.94 14.9246 105.903 16.2147 105.265 17.3104C106.309 17.2314 107.549 16.9344 107.874 18.0508C108.199 19.1672 107.3 20.3108 106.021 20.5801C106.608 23.3842 106.032 27.4717 104.909 29.6854C103.785 31.899 101.524 33.7664 100.281 34.158C99.0379 34.5496 81.1625 25.0728 79.3837 23.8764L79.3848 23.8744Z" fill="#00092F"/>
    <path fill-rule="evenodd" clip-rule="evenodd" d="M93.5702 128.292L69.3347 127.464L70.29 124.806L92.4845 125.615L93.5702 128.292Z" fill="#464646"/>
    <path fill-rule="evenodd" clip-rule="evenodd" d="M84.8756 106.062C84.562 109.535 82.4032 134.486 82.0695 137.093C81.7358 139.701 80.178 141.129 80.0275 138.255C79.877 135.382 78.375 106.514 78.375 106.514L81.5038 102.68C81.5038 102.68 85.1897 102.594 84.8761 106.064L84.8756 106.062Z" fill="#2C2C2C"/>
    <path fill-rule="evenodd" clip-rule="evenodd" d="M88.3003 105.484C89.8526 109.17 97.9522 134.817 98.6272 137.34C99.3021 139.863 98.6508 141.98 97.0789 138.681C95.507 135.383 83.2901 105.891 83.2901 105.891C83.2901 105.891 86.7485 101.799 88.3003 105.484Z" fill="#464646"/>
    <path fill-rule="evenodd" clip-rule="evenodd" d="M79.879 105.247C78.9091 107.231 69.7504 129.931 69.7504 129.931L66.8814 128.688C66.8814 128.688 73.5868 109.577 75.2181 105.128C76.8494 100.68 80.8499 103.266 79.8805 105.247H79.879Z" fill="#464646"/>
    <path fill-rule="evenodd" clip-rule="evenodd" d="M98.23 46.1761C101.288 45.9597 104.848 46.1379 107.978 49.2394C112.124 53.1985 114.591 58.5995 114.868 64.3258C115.26 71.5406 113.274 83.0709 109.355 91.8476C105.437 100.624 101.833 104.125 95.5931 105.678C89.3527 107.23 70.3987 106.171 64.6758 106.34C58.9529 106.509 69.7499 89.2911 69.7499 89.2911L87.2589 75.4832C87.2589 75.4832 95.1713 46.3905 98.2315 46.1756L98.23 46.1761Z" fill="#FFD853"/>
    <path fill-rule="evenodd" clip-rule="evenodd" d="M91.4214 44.322C95.2393 44.9169 98.9175 46.1997 102.277 48.1081C105.472 49.9453 110.567 57.0644 110.567 57.0644L102.787 63.5997L103.524 78.2089L73.0478 76.7855L71.7361 64.1126C69.5318 63.5341 67.3774 62.7802 65.2934 61.8582C61.9573 60.3668 60.5037 58.9892 60.5037 58.9892C60.5037 58.9892 64.1322 51.9928 65.8295 49.372C67.5267 46.7511 71.4356 44.7337 76.3531 44.2405C78.9181 43.9526 81.4979 43.8182 84.0788 43.8378C86.5341 43.8763 88.9859 44.0384 91.425 44.3235L91.4214 44.322Z" fill="#78E8FD"/>
    <path fill-rule="evenodd" clip-rule="evenodd" d="M99.965 56.1721C98.8924 61.4571 99.0414 69.5105 97.8168 70.352C96.5922 71.1936 88.3994 68.4973 84.104 67.3894C79.2569 66.1391 74.1194 63.7961 73.454 63.2571C72.7885 62.718 72.554 58.6581 72.7885 56.3584C72.2248 58.9088 71.8721 61.5014 71.7341 64.1097C71.6797 66.5972 71.7573 69.0858 71.9666 71.5651L104.25 74.4431C104.25 74.4431 101.038 50.8871 99.965 56.1721Z" fill="#37A4B9"/>
    <path fill-rule="evenodd" clip-rule="evenodd" d="M91.4053 43.3002C92.8997 43.5881 94.6085 44.0471 94.6397 45.2294C94.6709 46.4118 93.1046 48.493 91.9499 50.1782C90.7953 51.8634 89.5958 53.7921 88.8459 53.7227C88.0959 53.6532 86.606 48.2192 86.606 48.2192C86.606 48.2192 83.737 53.1222 82.8461 52.9752C81.9552 52.8283 80.5902 49.1353 80.1513 47.2996C79.7124 45.464 79.8493 43.9635 80.2283 43.3022C80.6073 42.6408 81.9049 42.2492 84.264 42.6554C86.6231 43.0616 89.9099 43.0122 91.4048 43.2997L91.4053 43.3002Z" fill="#37A4B9"/>
    <path fill-rule="evenodd" clip-rule="evenodd" d="M81.2712 17.3712C79.7793 21.573 77.7892 29.3068 79.6832 34.0119C81.5772 38.7171 84.6103 40.4994 84.6103 40.4994L84.0773 43.8365L86.606 48.2195L91.4607 44.3403L91.3359 40.062C93.6335 39.7386 95.7196 38.5464 97.1645 36.7309C99.9328 33.3415 101.866 29.8801 101.928 27.0856C99.2332 26.0718 97.0789 25.1492 93.245 21.6969C90.6692 19.2769 88.3661 16.5821 86.377 13.6606C84.4541 14.5607 82.721 15.8202 81.2712 17.3712Z" fill="#E88D95"/>
    <path fill-rule="evenodd" clip-rule="evenodd" d="M100.905 28.8265C98.0866 29.5735 97.7388 33.8407 97.7388 33.8407C97.7388 33.8407 93.5702 37.1386 93.5702 39.4448C95.5967 38.4542 97.3042 36.914 98.4978 34.9999C100.267 32.2376 103.934 28.0237 100.905 28.8265Z" fill="#DA6771"/>
    <path fill-rule="evenodd" clip-rule="evenodd" d="M71.734 64.1126L71.6928 66.2447C71.6928 66.2447 76.5535 67.4175 81.0432 68.5767C84.0008 69.3729 86.892 70.3981 89.6905 71.643C89.6905 71.643 94.0815 71.3621 96.9445 71.5337C99.8075 71.7054 103.376 74.1682 104.1 75.0772C104.824 75.9862 102.835 75.4799 100.261 75.4799C97.6884 75.4799 64.5359 75.8387 60.4981 75.2056C56.4604 74.5724 57.4504 70.0187 58.4737 67.7059L61.8722 60.0205C63.4961 60.9351 65.1668 61.7641 66.8774 62.504C68.329 63.045 71.732 64.1146 71.732 64.1146L71.734 64.1126Z" fill="#E88D95"/>
    <path fill-rule="evenodd" clip-rule="evenodd" d="M70.9992 66.2948C70.2507 66.3592 67.1849 66.4598 65.8149 66.9531C67.5895 65.6396 69.5977 64.6756 71.7325 64.1123L71.6913 66.2444C71.6913 66.2444 71.6359 66.2404 70.9977 66.2948H70.9992Z" fill="#DA6771"/>
    <path fill-rule="evenodd" clip-rule="evenodd" d="M97.316 71.5679C98.608 72.1356 99.6868 73.0983 100.397 74.3176C100.506 74.4892 100.571 74.6849 100.586 74.8875C100.601 75.0901 100.566 75.2934 100.484 75.4793H105.143C105.921 75.4793 103.838 74.0931 101.972 73.0477C100.555 72.2033 98.9625 71.6969 97.318 71.5679H97.316Z" fill="#DA6771"/>
    <path fill-rule="evenodd" clip-rule="evenodd" d="M111.574 68.4254C110.923 64.0319 107.655 58.3638 104.863 52.5986C102.071 46.8335 99.0298 40.5514 99.0298 40.5514C99.0298 40.5514 101.178 37.409 101.928 35.4828C102.678 33.5565 102.738 29.0905 101.928 28.6083C101.118 28.1261 99.7566 29.9134 99.2367 30.9397C98.7168 31.966 98.4872 34.1681 98.4872 34.1681C97.4025 34.9961 96.3873 35.9114 95.4516 36.9047C94.0926 38.39 93.771 39.2704 94.3524 39.9997L95.6761 41.6667C95.6761 41.6667 97.2571 50.914 98.4047 56.8015C99.5523 62.689 100.882 69.5086 101.269 71.4938C101.655 73.4789 103.965 75.3166 105.833 75.6211C107.702 75.9256 112.419 74.1282 111.571 68.427L111.574 68.4254Z" fill="#E88D95"/>
    <path fill-rule="evenodd" clip-rule="evenodd" d="M46.0625 135.993C45.6866 137.176 44.318 140.077 44.318 140.077C44.318 140.077 45.0508 141.584 44.4947 142.893C43.9385 144.202 39.3501 144.575 37.4027 144.399C35.4553 144.222 35.6914 139.909 35.6914 139.909L40.3296 138.846L42.0721 134.722C42.0721 134.722 46.4375 134.81 46.061 135.993H46.0625Z" fill="#E88D95"/>
    <path fill-rule="evenodd" clip-rule="evenodd" d="M37.146 144.063C37.1344 142.748 36.877 141.446 36.387 140.225C35.5907 138.343 34.6329 137.67 34.6329 137.67C34.6329 137.67 30.7124 137.387 29.1571 140.43C27.6018 143.472 28.4419 146.551 29.0177 147.064C29.5935 147.576 32.3794 147.604 35.9974 147.086C39.6153 146.568 44.6547 146.897 44.9064 144.788C45.1037 143.113 43.257 143.113 42.1079 143.291L37.1465 144.063H37.146Z" fill="#ABF9FF"/>
    <path fill-rule="evenodd" clip-rule="evenodd" d="M72.6974 131.873L74.2195 135.422C74.2195 135.422 76.4297 135.111 76.8268 136.872C77.2239 138.632 71.8388 142.562 71.8388 142.562L68.7292 140.952L71.1572 136.66L69.3714 133.756L72.6974 131.873Z" fill="#E88D95"/>
    <path fill-rule="evenodd" clip-rule="evenodd" d="M71.961 141.933C71.2258 141.322 70.4064 140.819 69.5279 140.441C68.6073 140.032 67.5842 139.911 66.5935 140.095C66.0247 140.453 65.5527 140.946 65.2192 141.53C64.8857 142.113 64.7008 142.77 64.6808 143.442C64.5897 145.785 66.512 147.418 67.3324 148.142C68.1528 148.866 68.7387 148.346 69.7519 147.462C70.7651 146.577 77.9406 139.685 78.9126 138.674C79.8845 137.664 78.6297 135.853 77.544 136.535C76.4583 137.218 71.9651 141.933 71.9651 141.933H71.961Z" fill="#ABF9FF"/>
    <path fill-rule="evenodd" clip-rule="evenodd" d="M60.7589 79.8789C56.0849 81.717 45.1958 84.0152 43.2479 88.6746C41.3 93.334 44.7166 98.8923 48.2133 104.888C51.7099 110.884 68.5077 135.382 68.5077 135.382L74.3066 132.153C74.3066 132.153 64.861 104.137 63.943 101.399C63.0249 98.6617 87.2589 79.9629 87.2589 79.9629C87.2589 79.9629 65.4338 78.0382 60.7589 79.8773V79.8789Z" fill="#616161"/>
    <path fill-rule="evenodd" clip-rule="evenodd" d="M98.0493 80.8233C98.9362 83.2821 99.6821 87.8262 98.7087 90.96C97.7353 94.0937 95.9534 97.5174 88.7281 98.5417C81.5028 99.566 70.0424 102.108 68.6018 102.462C67.1613 102.815 64.5711 108.36 60.4982 115.137L47.2655 137.159L40.3291 134.998C40.3291 134.998 44.3744 119.827 46.659 110.737C48.9436 101.648 51.4306 93.3563 55.1497 90.0449C58.8689 86.7335 78.9071 80.8208 78.9071 80.8208C78.9071 80.8208 97.163 78.362 98.0493 80.8208V80.8233Z" fill="#8B8B8B"/>
    <path fill-rule="evenodd" clip-rule="evenodd" d="M131.431 82.4298C132.633 87.7652 136.899 117.156 138.053 123.294C139.206 129.433 139.288 134.073 139.837 137.186C140.385 140.3 137.415 142.358 136.398 137.879L123.791 82.3729C123.791 82.3729 130.23 77.095 131.431 82.4298Z" fill="#464646"/>
    <path fill-rule="evenodd" clip-rule="evenodd" d="M18.1905 81.5457C16.9618 87.0537 12.5949 117.4 11.4131 123.738C10.2312 130.076 10.1487 134.866 9.58798 138.083C9.02727 141.299 12.0674 143.422 13.1083 138.797C14.1492 134.173 21.5331 101.378 22.9037 95.2882C24.2743 89.1989 26.0113 81.4874 26.0113 81.4874C26.0113 81.4874 19.4201 76.0378 18.1905 81.5457Z" fill="#464646"/>
    <path fill-rule="evenodd" clip-rule="evenodd" d="M141.478 80.8234C141.505 81.7727 141.385 83.642 137.027 83.4996C132.669 83.3572 89.3995 83.2842 72.7885 82.7345C56.1775 82.1849 16.3055 82.7904 13.6564 82.8181C11.0074 82.8458 9.6494 82.5664 9.61366 80.8234C9.57793 79.0803 9.5432 77.451 9.52005 76.3261C9.49689 75.2011 10.6239 75.2031 12.5179 75.2031C14.4119 75.2031 32.2747 74.9208 44.923 75.2031C57.5713 75.4855 109.418 75.484 119.914 75.484H137.678C139.509 75.484 141.41 75.3355 141.42 77.5331C141.429 79.7306 141.453 79.8751 141.478 80.8234Z" fill="#E6E6E6"/>
    <path fill-rule="evenodd" clip-rule="evenodd" d="M75.6812 70.3566C76.3533 70.3371 77.0077 70.5741 77.5115 71.0194C78.0153 71.4647 78.3309 72.085 78.3941 72.7545C78.4626 74.051 77.5465 75.4725 75.5 75.4775C73.4534 75.4825 56.5273 75.3396 56.5273 75.3396L56.6955 70.4109C56.6955 70.4109 73.7106 70.4613 75.6812 70.3566Z" fill="#8B8B8B"/>
    <path fill-rule="evenodd" clip-rule="evenodd" d="M53.229 54.0579C52.5862 52.7729 51.1653 50.9875 47.491 51.1612C43.8167 51.3348 27.787 51.3202 24.4836 51.3202C21.1803 51.3202 19.8026 53.0316 21.6111 55.9942C23.4196 58.9568 29.3222 69.7513 30.2881 71.3338C31.254 72.9163 33.8763 75.0408 36.5963 75.0776C39.3164 75.1143 58.7204 75.3871 60.5002 75.366C62.2799 75.3448 63.3374 73.0904 61.5858 70.4207C59.8342 67.7511 53.9503 55.5024 53.2305 54.0579H53.229Z" fill="#E6E6E6"/>
    <path fill-rule="evenodd" clip-rule="evenodd" d="M40.912 62.8735C41.1037 61.8719 42.9208 60.8692 43.9914 61.8719C45.0619 62.8745 45.4747 66.4437 44.7519 67.5319C44.0291 68.6201 42.0752 67.3758 42.0752 67.3758C41.9222 67.6784 41.6916 67.9349 41.4069 68.1191C41.1222 68.3032 40.7936 68.4084 40.4549 68.4238C39.2741 68.4801 37.7047 66.5413 37.1767 64.4676C36.6487 62.3938 37.5794 61.8719 38.5755 61.8719C39.0146 61.8573 39.4515 61.9395 39.8552 62.1126C40.259 62.2857 40.6198 62.5455 40.912 62.8735Z" fill="white"/>
    <path fill-rule="evenodd" clip-rule="evenodd" d="M40.3069 60.2034C39.8237 58.4417 38.1074 57.9474 36.6558 58.1246C37.0136 60.1515 39.1865 60.6267 40.3069 60.2034Z" fill="white"/>
    <path fill-rule="evenodd" clip-rule="evenodd" d="M90.9951 24.524C90.4414 24.2371 89.919 24.9966 89.7725 25.585C89.626 26.1734 89.5093 27.1122 90.0866 27.2813C90.6639 27.4504 91.2498 26.5766 91.3313 26.0733C91.4129 25.5699 91.5714 24.825 90.9951 24.526V24.524Z" fill="#1A1A1A"/>
    <path fill-rule="evenodd" clip-rule="evenodd" d="M84.176 22.5594C83.7365 22.4003 83.1497 22.8503 82.9483 23.5379C82.747 24.2254 82.8054 24.9618 83.2901 25.2628C83.7748 25.5638 84.3119 24.7897 84.5051 24.2249C84.6984 23.6602 84.7226 22.7567 84.176 22.5594Z" fill="#1A1A1A"/>
    <path d="M86.2713 17.9374C85.76 15.9175 84.337 16.0051 83.5176 17.4341M86.0428 26.5892C85.5325 27.1257 84.1387 27.8475 84.1065 28.2265C84.0612 28.7691 84.8947 29.431 84.8947 29.431L86.0428 26.5892ZM87.9193 34.1875C87.7013 33.7848 86.4374 33.3822 85.4343 33.5211L87.9193 34.1875ZM93.0663 23.844C92.335 22.8529 91.2609 22.0637 90.1717 22.5454L93.0663 23.844Z" stroke="#1A1A1A" stroke-width="1.587" stroke-linecap="round" stroke-linejoin="round"/>
    <path fill-rule="evenodd" clip-rule="evenodd" d="M84.6103 40.499C86.0448 41.3975 88.4749 40.9691 88.4749 40.9691L84.0783 43.8291C84.0783 43.8291 84.4664 41.7473 84.6103 40.499Z" fill="#DA6771"/>
</svg>
