<svg viewBox="0 0 422 422" fill="none" xmlns="http://www.w3.org/2000/svg">
    <path d="M176.454 288.711C175.497 287.195 174.25 285.884 172.785 284.853C171.319 283.821 169.663 283.09 167.914 282.702C167.001 282.435 166.049 282.333 165.1 282.4C156.864 282.36 158.348 270.913 155.22 265.87C153.271 262.734 150.577 260.13 147.377 258.289C144.177 256.449 140.571 255.428 136.881 255.32C133.401 255.385 130.001 256.381 127.035 258.204C123.438 260.326 120.191 260.547 116.867 257.686C110.876 252.53 104.92 248.699 96.752 248.191C89.0371 247.836 81.4957 250.551 75.7785 255.743C72.7775 258.405 70.2673 261.573 68.3626 265.103C66.4172 268.718 64.5323 272.288 60.249 269.01C53.753 264.036 46.534 262.035 38.5553 265.002C35.0481 266.387 31.8539 268.461 29.1615 271.101C26.4691 273.742 24.3331 276.895 22.8794 280.374C21.5224 283.798 20.6068 287.381 20.1547 291.037C19.3698 295.8 17.3836 296.817 13.4238 299.055C6.67184 302.868 5.93052 311.547 8.13336 318.326C10.1393 324.496 15.448 330.221 22.4476 329.358C26.0248 328.919 28.53 327.587 31.4376 330.596C34.3452 333.605 36.5916 336.771 40.1421 339.205C53.0257 348.033 69.8804 346.58 83.4576 340.174C91.1801 336.531 97.4778 331.231 103.937 325.781C111.36 319.522 115.586 330.001 121.239 333.543C124.537 335.649 128.316 336.883 132.222 337.129C136.127 337.376 140.031 336.626 143.567 334.95C146.978 333.258 149.96 330.813 152.289 327.801C154.421 325.064 155.432 320.709 158.458 318.824C161.272 317.065 164.837 318.102 167.876 316.714C171.33 314.926 174.155 312.124 175.971 308.685C179.477 302.644 180.39 294.778 176.454 288.711ZM165.371 315.987C161.612 316.885 158.291 315.949 155.506 319.388C152.72 322.827 151.602 326.876 148.184 329.963C145.428 332.507 142.053 334.283 138.395 335.112C134.737 335.941 130.926 335.794 127.343 334.687C123.784 333.53 120.547 331.555 117.89 328.919C115.24 326.296 113.714 322.557 109.569 322.122C105.741 321.72 103.318 324.294 100.708 326.632C97.5638 329.456 94.2028 332.028 90.6555 334.324C84.1205 338.676 76.7988 341.711 69.1011 343.258C61.2005 344.844 53.0013 343.909 45.6604 340.585C42.1581 338.942 38.974 336.692 36.2554 333.94C33.7234 331.364 32.0861 327.662 28.1671 326.992C24.5604 326.376 21.5164 328.578 17.8084 327.312C16.1309 326.657 14.606 325.665 13.3287 324.396C12.0515 323.127 11.0491 321.608 10.384 319.935C7.77888 314.142 7.2753 304.899 13.2578 300.932C16.5874 298.724 19.8692 298.144 21.1788 293.809C22.3674 289.851 22.3604 285.759 23.9513 281.844C25.2832 278.377 27.3148 275.221 29.9196 272.573C32.5243 269.925 35.6464 267.842 39.0913 266.454C42.8301 265.001 46.9186 264.703 50.8285 265.598C55.0288 266.629 57.3175 269.613 60.9565 271.388C64.3635 273.052 67.0839 270.952 68.6299 268.046C70.437 264.33 72.8192 260.922 75.6885 257.949C78.388 255.222 81.623 253.083 85.1898 251.668C88.7567 250.252 92.5779 249.591 96.4129 249.726C100.227 249.933 103.961 250.906 107.392 252.587C111.331 254.512 113.799 257.866 117.41 260.095C121.349 262.525 124.648 261.277 128.323 259.235C131.628 257.329 135.466 256.558 139.25 257.04C143.01 257.594 146.544 259.177 149.46 261.614C152.376 264.051 154.561 267.248 155.774 270.849C156.933 274.598 156.442 278.867 159.56 281.73C160.754 282.918 162.314 283.67 163.988 283.865C164.339 283.929 164.697 283.953 165.054 283.936C166.089 284.143 167.137 284.281 168.191 284.348C174.408 286.036 177.825 292.712 177.535 298.827C177.217 305.51 172.332 314.322 165.371 315.987Z" fill="#B7E9D4"/>
    <path d="M202.54 203.379C202.222 200.565 201.91 197.763 201.568 194.96C200.395 185.345 199.082 175.748 197.63 166.169C197.518 165.432 196.397 165.747 196.504 166.479C198.226 177.864 199.746 189.278 201.063 200.72C201.497 201.637 201.991 202.525 202.54 203.379Z" fill="black"/>
    <path d="M205.282 211.814C205.131 208.075 204.027 204.437 202.075 201.245C200.933 199.39 199.35 197.846 197.468 196.75C195.586 195.654 193.462 195.04 191.286 194.963C185.69 195.029 181.069 199.367 175.631 200.689C172.452 201.463 168.835 201.276 166.303 203.348C165.213 204.238 164.429 205.859 165.205 207.033C165.559 207.444 166.016 207.754 166.529 207.932C167.041 208.11 167.592 208.149 168.125 208.046C169.188 207.826 170.276 207.743 171.36 207.798C171.48 207.805 171.598 207.838 171.704 207.894C171.81 207.951 171.903 208.03 171.975 208.126C172.239 208.585 171.641 209.043 171.158 209.252C169.605 209.94 168.164 210.856 166.883 211.971C166.499 212.225 166.182 212.569 165.962 212.973C165.741 213.378 165.623 213.83 165.617 214.29C165.774 215.372 167.039 215.944 168.13 215.915C169.222 215.885 170.276 215.462 171.366 215.437C171.525 215.413 171.688 215.43 171.84 215.485C171.992 215.541 172.127 215.634 172.234 215.755C172.45 216.087 172.234 216.531 171.983 216.835C171.023 217.689 170.01 218.481 168.95 219.208C168.004 220.079 167.441 221.686 168.339 222.609C169.169 223.463 170.589 223.126 171.692 222.673C173.253 222.03 174.756 221.266 176.247 220.468C176.2 220.89 176.164 221.322 176.14 221.75C175.825 225.253 176.48 228.775 178.035 231.93C181.37 238.078 188.934 239.405 195.318 238.516C198.623 238.143 201.732 236.762 204.225 234.562C206.583 232.268 208.073 229.229 208.445 225.961C208.57 225.039 208.633 224.11 208.635 223.179C208.657 219.144 207.491 215.191 205.282 211.814ZM204.494 231.964C202.714 234.226 200.229 235.828 197.434 236.517C194.157 237.396 190.719 237.493 187.398 236.798C184.663 236.301 182.189 234.865 180.401 232.737C178.669 230.34 177.719 227.467 177.683 224.51C177.443 221.1 178.032 217.682 179.401 214.549C180.642 211.734 182.78 209.409 185.482 207.938C188.523 206.431 191.989 206.015 195.3 206.76C201.911 208.181 206.131 214.047 206.923 220.546C207.027 221.423 207.08 222.305 207.08 223.189C207.177 226.313 206.271 229.387 204.494 231.959V231.964Z" fill="#F97580"/>
    <path d="M257.375 206.791C305.687 206.791 344.851 171.305 344.851 127.53C344.851 83.7549 305.687 48.2683 257.375 48.2683C209.063 48.2683 169.899 83.7549 169.899 127.53C169.899 171.305 209.063 206.791 257.375 206.791Z" fill="#B7E9D4"/>
    <path d="M185.018 225.064C185.804 225.064 186.441 224.427 186.441 223.64C186.441 222.854 185.804 222.217 185.018 222.217C184.231 222.217 183.594 222.854 183.594 223.64C183.594 224.427 184.231 225.064 185.018 225.064Z" fill="black"/>
    <path d="M246.368 241.694C245.262 242.593 244.243 243.593 243.322 244.681C240.886 247.739 238.252 250.633 235.438 253.346C232.598 256.072 229 257.876 225.117 258.523C220.91 258.869 216.709 257.785 213.194 255.447C209.634 253.248 206.822 250.066 203.649 247.339C201.795 245.743 197.479 246.186 196.15 248.239C194.98 250.413 194.639 252.938 195.189 255.345C196.779 265.629 204.705 274.476 214.528 277.917C219.491 279.531 224.753 280.011 229.926 279.322C235.1 278.634 240.053 276.793 244.421 273.937C247.681 271.832 250.549 269.173 252.893 266.081C249.095 258.475 246.876 250.18 246.368 241.694Z" fill="#FCAFB7"/>
    <path d="M201.305 222.671C202.091 222.671 202.729 222.034 202.729 221.248C202.729 220.461 202.091 219.824 201.305 219.824C200.519 219.824 199.882 220.461 199.882 221.248C199.882 222.034 200.519 222.671 201.305 222.671Z" fill="black"/>
    <path d="M200.748 226.473C200.704 228.444 200.172 230.373 199.201 232.089C198.723 232.795 198.092 233.385 197.355 233.814C196.617 234.243 195.793 234.501 194.943 234.569C193.418 234.556 191.942 234.029 190.754 233.072C189.119 231.693 187.852 229.93 187.066 227.941C191.673 228.782 196.424 228.272 200.748 226.473Z" fill="#F97580"/>
    <path d="M182.134 221.43C182.395 220.745 182.9 220.181 183.553 219.846C184.205 219.512 184.959 219.431 185.667 219.62C186.393 219.8 186.704 218.679 185.977 218.495C184.971 218.231 183.904 218.354 182.985 218.84C182.065 219.325 181.362 220.138 181.013 221.117C180.747 221.82 181.869 222.118 182.138 221.426L182.134 221.43Z" fill="black"/>
    <path d="M199.229 217.777C199.8 217.657 200.392 217.675 200.955 217.83C201.518 217.984 202.035 218.272 202.464 218.668C203.016 219.173 203.84 218.353 203.286 217.846C202.709 217.311 202.011 216.924 201.251 216.717C200.492 216.51 199.694 216.489 198.925 216.656C198.194 216.809 198.503 217.931 199.235 217.782L199.229 217.777Z" fill="black"/>
    <path d="M194.714 296.728L244.638 300.084C243.592 295.365 242.08 290.519 238.693 287.074C234.912 283.224 229.339 281.693 223.962 281.235C216.235 280.681 208.475 281.701 201.153 284.234C198.452 285.009 195.917 286.277 193.677 287.974C192.563 288.83 191.646 289.916 190.988 291.158C190.331 292.4 189.949 293.769 189.868 295.172C189.885 295.82 190.025 296.459 190.281 297.054C191.737 296.743 193.228 296.633 194.714 296.728Z" fill="#F97580"/>
    <path d="M148.045 205.599C147.61 204.534 146.79 199.644 146.25 198.598C146.084 198.306 145.841 198.067 145.547 197.906C145.254 197.745 144.921 197.67 144.587 197.687C144.252 197.705 143.929 197.815 143.654 198.006C143.379 198.197 143.162 198.461 143.028 198.768C142.697 199.453 142.674 203.754 142.02 204.127C141.08 204.558 140.055 204.774 139.021 204.757C137.987 204.741 136.97 204.493 136.044 204.031C133.653 203.047 131.568 201.39 129.011 200.781C128.126 200.552 127.187 200.681 126.397 201.141C124.556 202.276 124.991 204.318 125.916 205.75C129.924 211.983 140.72 210.814 144.352 217.278C145.089 218.588 145.428 220.082 146.04 221.453C146.296 222.161 146.705 222.805 147.237 223.337C147.77 223.87 148.414 224.278 149.122 224.534C150.574 224.912 155.786 224.541 148.045 205.599Z" fill="#FCAFB7"/>
    <path d="M322.724 169.444C316.296 176.869 310.167 184.534 304.336 192.44C298.496 200.361 292.973 208.5 287.769 216.859C282.564 225.217 277.699 233.757 273.175 242.48C268.66 251.18 264.492 260.042 260.669 269.066C256.853 278.075 253.396 287.223 250.299 296.51C249.909 297.678 249.526 298.851 249.149 300.027C248.924 300.721 250.028 301.02 250.252 300.328C253.252 291.02 256.618 281.839 260.347 272.784C264.07 263.747 268.15 254.865 272.585 246.137C276.993 237.441 281.739 228.922 286.823 220.581C291.908 212.239 297.305 204.109 303.013 196.191C308.743 188.249 314.781 180.538 321.128 173.058C321.929 172.115 322.733 171.178 323.542 170.245C324.019 169.695 323.213 168.889 322.733 169.444H322.724Z" fill="black"/>
    <path d="M262.906 241.436C262.554 238.78 261.748 235.809 259.273 234.919C257.25 234.196 254.505 235.077 253.203 233.372C252.372 232.281 252.339 230.329 250.986 230.115C250.579 230.1 250.18 230.229 249.859 230.48C249.538 230.731 249.316 231.087 249.232 231.485C249.086 232.287 249.109 233.11 249.299 233.902C249.454 234.942 249.534 235.993 249.54 237.044C249.372 237.186 249.244 237.37 249.17 237.578C249.096 237.785 249.078 238.008 249.118 238.225C249.175 238.482 249.296 238.72 249.471 238.917C249.021 244.923 246.382 250.554 242.055 254.743C241.352 255.408 240.907 256.3 240.797 257.261C240.687 258.222 240.919 259.192 241.453 259.998C242.279 261.233 243.207 262.224 244.382 261.99C245.53 261.649 246.546 260.961 247.289 260.021C248.966 258.239 250.486 256.316 251.831 254.273C252.417 253.247 253.186 252.336 254.1 251.587C255.909 251.564 257.683 251.083 259.256 250.188C260.333 249.552 261.245 248.673 261.92 247.62C262.596 246.567 263.015 245.371 263.144 244.127C263.222 243.223 263.141 242.312 262.906 241.436Z" fill="#FCAFB7"/>
    <path d="M262.484 238.917C261.93 238.018 261.155 237.276 260.233 236.762C259.219 236.286 258.128 235.996 257.011 235.905C255.864 235.73 254.708 235.627 253.549 235.594C252.48 235.521 251.406 235.629 250.373 235.913C249.957 236.015 249.574 236.22 249.258 236.509C248.942 236.798 248.704 237.161 248.565 237.566C248.494 237.984 248.544 238.412 248.711 238.802C248.877 239.191 249.152 239.524 249.503 239.761C250.484 240.43 251.575 240.921 252.726 241.212L252.768 241.222C252.419 241.308 252.065 241.399 251.73 241.503C250.568 241.876 248.963 242.391 248.61 243.734C248.257 245.078 249.543 245.794 250.592 246.193C251.317 246.466 252.059 246.691 252.813 246.866C252.518 246.97 252.218 247.06 251.927 247.182C250.929 247.467 250.041 248.048 249.38 248.848C249.173 249.253 249.112 249.717 249.207 250.161C249.302 250.606 249.547 251.004 249.901 251.29C250.765 251.908 251.816 252.211 252.877 252.146C257.225 252.366 261.687 250.505 263.27 246.195C263.683 244.998 263.826 243.726 263.69 242.468C263.554 241.21 263.143 239.997 262.484 238.917ZM262.02 246.231C261.598 247.171 260.993 248.018 260.241 248.722C259.489 249.427 258.604 249.974 257.638 250.333C256.499 250.752 255.299 250.98 254.086 251.008C252.985 251.175 251.86 251.023 250.843 250.569C249.391 249.564 251.335 248.72 252.159 248.353C253.288 247.86 254.472 247.503 255.686 247.291C256.372 247.165 256.141 246.202 255.531 246.15C254.33 246.047 253.143 245.815 251.992 245.459C251.315 245.249 249.074 244.747 249.954 243.673C250.822 242.958 251.876 242.504 252.992 242.364C254.153 242.08 255.344 241.93 256.54 241.92C256.689 241.913 256.83 241.848 256.933 241.74C257.036 241.631 257.093 241.488 257.093 241.338C257.093 241.189 257.036 241.045 256.933 240.937C256.83 240.828 256.689 240.764 256.54 240.757C254.541 240.632 252.588 240.105 250.798 239.209C250.259 238.928 249.33 238.305 249.813 237.592C250.21 237.005 251.162 236.88 251.799 236.815C253.596 236.679 255.404 236.773 257.177 237.096C258.03 237.141 258.863 237.381 259.609 237.798C260.355 238.215 260.996 238.798 261.481 239.502C262.096 240.5 262.465 241.631 262.557 242.799C262.65 243.968 262.465 245.143 262.016 246.226L262.02 246.231Z" fill="black"/>
    <path d="M226.558 178.969C227.466 194.547 227.913 210.143 227.897 225.756C227.879 241.273 227.402 256.78 226.465 272.277C225.938 280.99 225.266 289.693 224.449 298.385C224.382 299.112 225.543 299.107 225.612 298.385C227.07 282.845 228.066 267.273 228.602 251.67C229.13 236.163 229.201 220.649 228.813 205.129C228.594 196.407 228.23 187.686 227.721 178.965C227.677 178.239 226.515 178.235 226.558 178.965V178.969Z" fill="black"/>
    <path d="M248.626 252.001C246.471 258.282 244.382 264.584 242.421 270.927C239.874 279.169 237.492 287.458 235.275 295.794C234.994 296.85 234.716 297.907 234.441 298.964C234.406 299.1 234.425 299.244 234.495 299.365C234.565 299.486 234.68 299.574 234.815 299.611C234.949 299.648 235.093 299.631 235.215 299.562C235.337 299.494 235.427 299.38 235.466 299.246C237.639 290.9 239.979 282.6 242.485 274.348C244.7 267.047 247.053 259.788 249.543 252.57C249.209 252.43 248.899 252.238 248.626 252.001Z" fill="black"/>
    <path d="M282.383 171.222C278.408 179.214 274.596 187.279 270.946 195.417C267.329 203.487 263.872 211.624 260.578 219.827C258.49 225.023 256.499 230.253 254.541 235.499C254.892 235.576 255.244 235.652 255.597 235.719C257.123 231.621 258.69 227.537 260.298 223.467C263.571 215.187 267.011 206.97 270.617 198.818C274.195 190.738 277.933 182.728 281.833 174.788C282.33 173.777 282.829 172.768 283.329 171.76C283.636 171.145 282.691 170.602 282.383 171.222Z" fill="black"/>
    <path d="M245.463 204.266C244.943 209.246 244.207 214.203 243.459 219.152C242.44 225.882 241.349 232.599 240.214 239.312C238.981 246.653 237.715 253.988 236.416 261.318C235.208 268.15 233.979 274.978 232.729 281.805C231.779 286.99 230.815 292.174 229.837 297.357L229.562 298.8C229.422 299.529 230.54 299.841 230.679 299.108C231.624 294.161 232.548 289.21 233.452 284.254C234.687 277.532 235.902 270.806 237.098 264.078C238.398 256.747 239.672 249.413 240.92 242.075C242.077 235.237 243.206 228.393 244.261 221.537C245.071 216.279 245.86 211.013 246.463 205.726C246.52 205.24 246.573 204.753 246.624 204.266C246.701 203.526 245.542 203.531 245.466 204.266H245.463Z" fill="black"/>
    <path d="M388.248 164.128C387.226 160.948 385.398 158.086 382.942 155.821C380.357 153.436 377.556 151.874 376.341 148.375C375.104 144.818 376.341 141.06 375.38 137.421C374.462 133.938 372.347 130.889 369.406 128.81C366.663 127.006 363.484 125.978 360.204 125.833C356.925 125.689 353.667 126.434 350.776 127.99C347.855 129.537 345.712 131.814 342.204 132.01C338.382 132.224 335.411 129.882 332.115 128.333C325.064 124.984 317.251 123.563 309.472 124.216C301.692 124.869 294.225 127.572 287.831 132.049C281.951 136.279 277.151 141.834 273.82 148.265C272.335 151.148 271.675 154.729 269.488 157.185C266.674 160.35 262.357 159.989 258.784 161.753C255.613 163.308 253.048 165.874 251.495 169.047C249.941 172.22 249.487 175.819 250.204 179.278C250.786 182.551 251.422 185.414 250.126 188.661C248.843 191.871 245.965 194.124 244.412 197.224C242.903 200.145 242.239 203.429 242.496 206.707C242.752 209.984 243.919 213.125 245.864 215.776C250.425 221.983 257.229 223.417 264.432 222.093C273.263 220.47 274.463 228.918 279.614 233.874C282.162 236.266 285.184 238.097 288.484 239.248C291.785 240.4 295.29 240.845 298.773 240.557C305.386 240.066 311.646 237.388 316.567 232.944C319.149 230.617 321.353 227.903 323.1 224.898C324.812 221.976 325.673 218.568 329.149 217.289C332.845 215.92 336.604 218.274 340.367 218.341C344.233 218.356 348.022 217.255 351.278 215.171C354.647 213.009 357.475 210.105 359.547 206.68C361.647 203.294 362.411 199.6 363.983 196.019C367.641 187.7 377.099 191.219 382.906 185.491C385.601 182.718 387.515 179.281 388.453 175.529C389.392 171.777 389.321 167.844 388.248 164.128ZM386.767 175.505C385.878 178.979 384.06 182.146 381.509 184.666C378.583 187.409 375.882 187.634 372.128 188.135C363.751 189.26 362.952 196.141 360.008 202.539C357.25 208.528 352.369 213.998 345.929 216.012C342.669 217.004 339.19 217.02 335.922 216.057C332.383 215.105 328.888 214.818 325.904 217.413C323.372 219.607 322.369 223.353 320.508 226.091C318.481 229.104 315.937 231.736 312.993 233.862C307.175 238.053 299.955 239.815 292.861 238.777C289.767 238.277 286.808 237.148 284.167 235.459C281.526 233.771 279.259 231.559 277.506 228.96C275.622 226.147 274.632 223.021 271.457 221.357C268.09 219.595 265.183 220.586 261.688 221.084C258.546 221.485 255.357 220.925 252.539 219.478C249.722 218.032 247.409 215.766 245.904 212.979C242.408 206.677 243.986 199.6 248.247 194.13C250.197 191.623 251.862 189.506 252.366 186.252C252.964 182.377 251.225 178.81 251.447 174.958C251.895 167.191 257.71 163.374 264.536 161.653C272.231 159.713 272.927 152.64 276.493 146.674C279.782 141.166 284.222 136.433 289.51 132.799C295.572 128.746 302.572 126.315 309.841 125.736C317.11 125.158 324.406 126.452 331.032 129.495C334.538 131.087 337.547 133.55 341.57 133.567C346.154 133.587 348.672 130.593 352.554 128.845C359.398 125.763 368.185 127.476 372.266 134.069C374.441 137.586 374.17 140.841 374.204 144.752C374.229 146.681 374.686 148.58 375.543 150.308C376.4 152.037 377.634 153.551 379.154 154.739C385.611 160.219 389.213 166.79 386.767 175.505Z" fill="#FCAFB7"/>
    <path d="M341.771 249.789C337.549 257.054 335.569 265.405 336.08 273.792C331.741 268 326.825 262.663 321.408 257.864C320.291 256.88 318.641 258.516 319.764 259.509C326.166 265.159 331.854 271.571 336.701 278.601C336.848 278.837 337.075 279.012 337.339 279.095C337.604 279.179 337.889 279.166 338.145 279.058C338.401 278.95 338.609 278.755 338.734 278.507C338.859 278.259 338.891 277.975 338.825 277.705C337.317 268.486 339.068 259.029 343.778 250.962C343.92 250.696 343.954 250.386 343.872 250.097C343.79 249.807 343.599 249.56 343.34 249.408C343.08 249.257 342.771 249.211 342.479 249.282C342.186 249.353 341.932 249.535 341.771 249.789Z" fill="black"/>
    <path d="M377.524 240.696C377.227 240.621 376.913 240.664 376.646 240.815C376.38 240.966 376.182 241.214 376.095 241.508L372.695 250.511C371.656 249.266 370.833 247.856 370.26 246.34C370.171 246.047 369.973 245.799 369.707 245.648C369.441 245.497 369.126 245.454 368.829 245.528C368.533 245.612 368.282 245.809 368.13 246.077C367.979 246.345 367.938 246.661 368.018 246.959C368.928 249.434 370.391 251.67 372.294 253.497C372.44 253.636 372.619 253.735 372.814 253.786C373.009 253.836 373.214 253.835 373.409 253.784C373.604 253.732 373.782 253.632 373.927 253.492C374.072 253.351 374.179 253.176 374.237 252.983L378.336 242.127C378.416 241.83 378.375 241.513 378.224 241.245C378.072 240.977 377.82 240.78 377.524 240.696Z" fill="black"/>
    <path d="M360.308 291.865C359.232 293.998 358.441 296.264 357.957 298.603L352.936 289.178C352.232 287.858 350.225 289.038 350.928 290.352L357.566 302.809C357.699 303.023 357.898 303.188 358.132 303.281C358.367 303.373 358.624 303.387 358.868 303.321C359.111 303.255 359.326 303.113 359.482 302.915C359.638 302.717 359.726 302.474 359.733 302.222C359.98 299.02 360.858 295.899 362.315 293.037C362.992 291.708 360.987 290.53 360.308 291.865Z" fill="black"/>
    <path d="M356.434 183.037C354.283 185.025 352.6 187.464 351.504 190.18C350.099 188.33 348.926 186.314 348.012 184.178C347.856 183.912 347.602 183.719 347.304 183.64C347.007 183.561 346.69 183.603 346.423 183.756C346.162 183.916 345.972 184.171 345.894 184.467C345.815 184.763 345.854 185.078 346.001 185.347C347.261 188.264 348.977 190.961 351.086 193.338C351.231 193.479 351.41 193.58 351.605 193.632C351.801 193.683 352.006 193.683 352.202 193.631C352.398 193.58 352.576 193.479 352.721 193.337C352.866 193.196 352.972 193.02 353.028 192.826C353.924 189.695 355.67 186.873 358.074 184.676C359.181 183.666 357.534 182.023 356.434 183.037Z" fill="black"/>
    <path d="M291.028 277.946C290.809 277.73 290.514 277.609 290.206 277.609C289.898 277.609 289.603 277.73 289.384 277.946C287.93 279.707 286.874 281.762 286.289 283.969C285.196 283.03 284.314 281.87 283.701 280.565C283.544 280.3 283.29 280.107 282.993 280.029C282.695 279.95 282.379 279.991 282.111 280.143C281.849 280.302 281.659 280.557 281.581 280.853C281.502 281.149 281.541 281.465 281.689 281.733C282.731 283.909 284.394 285.727 286.468 286.96C286.622 287.048 286.794 287.1 286.971 287.112C287.149 287.124 287.326 287.096 287.491 287.029C287.655 286.962 287.803 286.858 287.921 286.726C288.04 286.593 288.127 286.436 288.175 286.265C288.495 283.82 289.482 281.511 291.028 279.59C291.238 279.368 291.355 279.074 291.355 278.768C291.355 278.462 291.238 278.168 291.028 277.946Z" fill="black"/>
    <path d="M311.295 105.126C310.998 105.051 310.684 105.093 310.417 105.245C310.151 105.396 309.953 105.644 309.865 105.937L306.466 114.94C305.426 113.696 304.603 112.286 304.03 110.769C303.941 110.477 303.743 110.229 303.477 110.078C303.211 109.927 302.898 109.884 302.601 109.958C302.305 110.042 302.054 110.239 301.902 110.507C301.75 110.774 301.71 111.091 301.789 111.388C302.699 113.864 304.161 116.1 306.064 117.926C306.21 118.066 306.389 118.165 306.584 118.215C306.779 118.265 306.984 118.265 307.179 118.213C307.374 118.162 307.552 118.061 307.697 117.921C307.842 117.781 307.949 117.606 308.007 117.413C309.374 113.795 310.741 110.177 312.107 106.558C312.187 106.26 312.147 105.943 311.995 105.675C311.843 105.407 311.592 105.21 311.295 105.126Z" fill="black"/>
    <path d="M292.071 80.8354C291.774 80.7602 291.459 80.8027 291.193 80.9539C290.926 81.1052 290.729 81.3535 290.641 81.6471L283.842 99.6524C281.357 96.9931 279.423 93.8684 278.152 90.4584C278.063 90.1657 277.865 89.9182 277.599 89.7672C277.333 89.6161 277.019 89.573 276.722 89.6468C276.427 89.7309 276.176 89.9278 276.024 90.1952C275.872 90.4625 275.831 90.7789 275.911 91.0759C277.512 95.4391 280.095 99.3753 283.462 102.58C283.608 102.719 283.787 102.818 283.982 102.868C284.177 102.919 284.382 102.918 284.577 102.866C284.772 102.815 284.95 102.714 285.095 102.574C285.24 102.434 285.346 102.259 285.404 102.066C287.897 95.4661 290.39 88.8661 292.884 82.266C292.963 81.9685 292.922 81.6519 292.77 81.3843C292.618 81.1166 292.367 80.9195 292.071 80.8354Z" fill="black"/>
    <path d="M273.746 305.932C273.071 305.228 272.335 304.584 271.547 304.009C271.468 303.904 271.36 303.824 271.236 303.781C268.683 301.995 265.694 300.933 262.587 300.709L256.034 300.268L240.229 299.206L220.942 297.909L203.948 296.769C200.977 296.568 198.006 296.368 195.033 296.169C191.513 295.912 187.999 296.742 184.967 298.546C181.934 300.351 179.528 303.043 178.075 306.259C176.413 310.057 176.507 314.397 176.233 318.464L174.996 336.866C174.691 341.401 174.386 345.935 174.082 350.47C173.848 353.151 174.224 355.85 175.181 358.365C176.778 362.389 179.833 365.663 183.736 367.535C186.963 369.059 190.336 369.163 193.801 369.396L207.848 370.34L226.885 371.62L244.903 372.831L256.328 373.598C257.25 373.661 258.175 373.739 259.1 373.73C263.37 373.657 267.457 371.983 270.551 369.039C273.645 366.095 275.521 362.096 275.806 357.835C275.884 356.749 275.947 355.663 276.025 354.578L277.165 337.621L278.261 321.304C278.34 320.138 278.459 318.962 278.469 317.787C278.484 313.374 276.791 309.126 273.746 305.932ZM199.01 297.599L213.103 298.545L231.781 299.801L249.62 301L261.001 301.765L262.587 301.872C265.248 302.073 267.816 302.94 270.053 304.394C259.05 313.791 247.435 322.448 235.285 330.306C231.909 332.491 228.486 334.612 225.016 336.67C214.334 327.491 204.094 317.832 194.296 307.693C191.576 304.879 188.896 302.026 186.255 299.132C187.357 298.538 188.526 298.078 189.737 297.762C192.799 297.214 195.93 297.159 199.01 297.599ZM175.659 344.3L176.878 326.154L177.784 312.694C177.899 310.133 178.592 307.632 179.813 305.379C181.121 303.075 182.978 301.131 185.22 299.72C192.92 308.135 200.933 316.246 209.26 324.055C199.822 330.432 190.716 337.267 181.942 344.559C179.692 346.432 177.469 348.347 175.264 350.278C175.264 350.177 175.264 350.076 175.278 349.973C175.406 348.081 175.533 346.19 175.659 344.301V344.3ZM268.673 369.135C265.574 371.581 261.677 372.792 257.736 372.532C255.401 372.384 253.068 372.217 250.733 372.06L235.01 371.004L216.046 369.73L199.306 368.604L190.285 367.998C187.852 367.865 185.48 367.193 183.339 366.029C181.462 364.98 179.816 363.564 178.497 361.866C177.178 360.168 176.215 358.222 175.663 356.144C175.316 354.731 175.16 353.278 175.199 351.824C175.255 351.802 175.307 351.771 175.354 351.734C183.91 344.192 192.841 337.086 202.113 330.441C204.723 328.572 207.36 326.74 210.022 324.946C210.057 324.917 210.089 324.885 210.117 324.85C211.889 326.507 213.656 328.168 215.462 329.797C218.45 332.501 221.474 335.164 224.535 337.786C224.599 337.844 224.675 337.888 224.758 337.912C224.841 337.937 224.929 337.941 225.015 337.926C225.121 337.932 225.226 337.905 225.317 337.85C230.592 334.716 235.774 331.434 240.863 328.004L240.873 328.015C250.26 334.417 258.582 342.222 266.988 349.828C269.548 352.144 272.124 354.441 274.715 356.721C274.685 357.132 274.663 357.542 274.632 357.952C274.456 360.124 273.837 362.237 272.812 364.161C271.787 366.084 270.379 367.777 268.673 369.135ZM277.265 318.786C277.042 322.366 276.784 325.943 276.544 329.523L275.299 348.054C275.137 350.448 274.976 352.842 274.815 355.235C266.172 347.63 257.88 339.599 248.848 332.447C246.588 330.657 244.271 328.941 241.897 327.299C248.711 322.679 255.347 317.809 261.806 312.691C264.926 310.215 267.998 307.681 271.022 305.088C273.131 306.662 274.809 308.742 275.9 311.136C276.991 313.531 277.461 316.162 277.265 318.786Z" fill="black"/>
    <path d="M100.526 365.386L116.956 363.588C117.261 363.58 117.552 363.455 117.768 363.239C117.984 363.022 118.109 362.732 118.118 362.426C118.116 362.119 117.993 361.824 117.775 361.607C117.558 361.389 117.264 361.266 116.956 361.264L100.526 363.061C100.221 363.07 99.9303 363.195 99.7142 363.411C99.4982 363.627 99.373 363.917 99.3641 364.223C99.366 364.53 99.4889 364.825 99.7064 365.043C99.9239 365.26 100.218 365.384 100.526 365.386Z" fill="black"/>
    <path d="M65.0175 306.175L93.0313 304.044C94.5139 303.931 94.5266 301.606 93.0313 301.72L65.0175 303.85C63.5363 303.962 63.5236 306.288 65.0175 306.175Z" fill="black"/>
    <path d="M93.7276 280.394L121.069 279.952C121.37 279.941 121.656 279.814 121.865 279.597C122.075 279.381 122.192 279.091 122.192 278.789C122.192 278.488 122.075 278.198 121.865 277.981C121.656 277.764 121.37 277.637 121.069 277.627L93.7276 278.07C93.4293 278.084 93.1481 278.213 92.9422 278.43C92.7363 278.646 92.6215 278.933 92.6215 279.232C92.6215 279.53 92.7363 279.818 92.9422 280.034C93.1481 280.25 93.4293 280.379 93.7276 280.394Z" fill="black"/>
    <path d="M53.4055 211.247L65.7068 210.564C67.1937 210.482 67.2035 208.157 65.7068 208.24L53.4055 208.924C51.9173 209.005 51.9074 211.33 53.4055 211.247Z" fill="black"/>
    <path d="M99.2065 164.224L120.392 162.175C120.698 162.166 120.989 162.041 121.205 161.825C121.421 161.609 121.546 161.318 121.554 161.013C121.552 160.705 121.429 160.411 121.211 160.194C120.994 159.976 120.7 159.853 120.392 159.851L99.2065 161.899C98.9008 161.907 98.6098 162.032 98.3935 162.248C98.1771 162.464 98.0517 162.755 98.0432 163.061C98.0454 163.369 98.1687 163.663 98.3864 163.881C98.6041 164.099 98.8987 164.222 99.2065 164.224Z" fill="black"/>
    <path d="M220.36 278.077C219.656 271.473 218.215 264.969 216.064 258.686C213.768 251.665 208.89 244.775 201.696 243.128C199.171 242.673 196.58 242.744 194.083 243.336C191.587 243.929 189.24 245.03 187.189 246.572C187.274 246.624 187.36 246.669 187.443 246.724C188.822 247.585 189.914 248.836 190.582 250.319C191.927 253.484 190.723 256.368 188.792 258.886C187.148 261.021 184.763 262.461 182.108 262.923C179.154 263.439 176.143 263.893 173.159 264.111C171.31 267.245 169.22 270.231 166.908 273.041C164.583 275.759 161.895 278.174 159.82 281.089C158.703 282.491 157.873 284.099 157.378 285.822C156.883 287.545 156.733 289.348 156.935 291.129C157.756 295.69 161.99 299.078 166.514 300.08C171.038 301.081 175.77 300.104 180.159 298.624C184.548 297.144 188.78 295.164 193.284 294.078C200.775 292.27 208.807 292.99 215.659 288.471C217.238 287.26 218.494 285.677 219.314 283.864C220.135 282.051 220.494 280.063 220.36 278.077Z" fill="#FCAFB7"/>
    <path d="M189.555 250.508C188.935 249.131 187.92 247.968 186.639 247.168C182.349 244.372 177.082 244.953 172.573 243.04C167.988 241.094 164.797 236.812 162.642 232.324C160.487 227.835 159.147 222.988 156.967 218.512C156.246 216.966 155.328 215.521 154.234 214.213C153.47 214.678 152.723 215.176 151.968 215.659C154.286 225.691 150.42 225.878 149.121 225.539C148.294 225.241 147.544 224.765 146.922 224.144C146.301 223.523 145.824 222.773 145.525 221.947C145.311 221.47 145.127 220.979 144.95 220.487C142.158 222.574 139.499 224.834 136.99 227.254C137.546 230.804 138.467 234.288 139.737 237.649C142.528 245.845 145.8 254.636 153.066 259.343C157.849 262.438 163.74 263.297 169.436 263.441C173.548 263.431 177.65 263.019 181.682 262.211C184.148 261.783 186.362 260.445 187.888 258.462C189.689 256.122 190.804 253.446 189.555 250.508Z" fill="#FCAFB7"/>
    <path d="M217.76 197.791C218.137 203.303 218.368 208.824 218.568 214.345C218.821 221.355 219.012 228.366 219.14 235.379C219.29 242.935 219.393 250.491 219.447 258.047C219.498 265.174 219.498 272.307 219.447 279.444C219.399 285.186 219.319 290.928 219.107 296.667C219.085 297.246 219.062 297.824 219.038 298.402C219.005 299.15 220.163 299.149 220.2 298.402C220.436 292.883 220.527 287.358 220.586 281.834C220.661 274.82 220.673 267.806 220.624 260.792C220.584 253.235 220.494 245.679 220.354 238.123C220.223 230.996 220.042 223.866 219.811 216.734C219.619 210.994 219.389 205.255 219.035 199.524C218.998 198.946 218.96 198.368 218.921 197.791C218.87 197.049 217.707 197.043 217.759 197.791H217.76Z" fill="black"/>
    <path d="M201.452 114.536C201.254 114.548 201.069 114.635 200.934 114.779C200.799 114.923 200.723 115.113 200.723 115.31C200.723 115.508 200.799 115.698 200.934 115.841C201.069 115.985 201.254 116.072 201.452 116.084C201.649 116.072 201.834 115.985 201.969 115.841C202.105 115.698 202.18 115.508 202.18 115.31C202.18 115.113 202.105 114.923 201.969 114.779C201.834 114.635 201.649 114.548 201.452 114.536Z" fill="black"/>
    <path d="M211.474 132.761C211.277 132.773 211.092 132.86 210.956 133.004C210.821 133.147 210.746 133.337 210.746 133.535C210.746 133.732 210.821 133.922 210.956 134.066C211.092 134.21 211.277 134.297 211.474 134.309C211.671 134.297 211.856 134.21 211.992 134.066C212.127 133.922 212.202 133.732 212.202 133.535C212.202 133.337 212.127 133.147 211.992 133.004C211.856 132.86 211.671 132.773 211.474 132.761Z" fill="black"/>
    <path d="M240.177 113.171C239.98 113.183 239.795 113.269 239.659 113.413C239.524 113.557 239.449 113.747 239.449 113.944C239.449 114.142 239.524 114.332 239.659 114.476C239.795 114.619 239.98 114.706 240.177 114.718C240.374 114.706 240.559 114.619 240.695 114.476C240.83 114.332 240.906 114.142 240.906 113.944C240.906 113.747 240.83 113.557 240.695 113.413C240.559 113.269 240.374 113.183 240.177 113.171Z" fill="black"/>
    <path d="M247.922 147.34C247.725 147.352 247.54 147.438 247.405 147.582C247.269 147.726 247.194 147.916 247.194 148.114C247.194 148.311 247.269 148.501 247.405 148.645C247.54 148.789 247.725 148.875 247.922 148.887C248.119 148.875 248.305 148.789 248.44 148.645C248.575 148.501 248.651 148.311 248.651 148.114C248.651 147.916 248.575 147.726 248.44 147.582C248.305 147.438 248.119 147.352 247.922 147.34Z" fill="black"/>
    <path d="M258.858 128.661C258.66 128.673 258.475 128.759 258.34 128.903C258.205 129.047 258.129 129.237 258.129 129.435C258.129 129.632 258.205 129.822 258.34 129.966C258.475 130.11 258.66 130.196 258.858 130.208C259.055 130.196 259.24 130.11 259.375 129.966C259.511 129.822 259.586 129.632 259.586 129.435C259.586 129.237 259.511 129.047 259.375 128.903C259.24 128.759 259.055 128.673 258.858 128.661Z" fill="black"/>
    <path d="M277.535 119.093C277.338 119.105 277.153 119.191 277.018 119.335C276.882 119.479 276.807 119.669 276.807 119.866C276.807 120.064 276.882 120.254 277.018 120.398C277.153 120.542 277.338 120.628 277.535 120.64C277.732 120.628 277.918 120.542 278.053 120.398C278.188 120.254 278.264 120.064 278.264 119.866C278.264 119.669 278.188 119.479 278.053 119.335C277.918 119.191 277.732 119.105 277.535 119.093Z" fill="black"/>
    <path d="M255.213 90.3896C255.016 90.4015 254.831 90.4882 254.695 90.632C254.56 90.7758 254.484 90.9658 254.484 91.1633C254.484 91.3608 254.56 91.5508 254.695 91.6946C254.831 91.8384 255.016 91.9251 255.213 91.937C255.41 91.9251 255.595 91.8384 255.73 91.6946C255.866 91.5508 255.941 91.3608 255.941 91.1633C255.941 90.9658 255.866 90.7758 255.73 90.632C255.595 90.4882 255.41 90.4015 255.213 90.3896Z" fill="black"/>
    <path d="M228.787 96.7688C228.59 96.7807 228.405 96.8674 228.27 97.0112C228.134 97.1549 228.059 97.345 228.059 97.5425C228.059 97.7399 228.134 97.93 228.27 98.0738C228.405 98.2175 228.59 98.3042 228.787 98.3161C228.984 98.3042 229.17 98.2175 229.305 98.0738C229.44 97.93 229.516 97.7399 229.516 97.5425C229.516 97.345 229.44 97.1549 229.305 97.0112C229.17 96.8674 228.984 96.7807 228.787 96.7688Z" fill="black"/>
    <path d="M250.201 58.9534C250.004 58.9653 249.819 59.052 249.683 59.1957C249.548 59.3395 249.473 59.5296 249.473 59.727C249.473 59.9245 249.548 60.1146 249.683 60.2583C249.819 60.4021 250.004 60.4888 250.201 60.5007C250.398 60.4888 250.583 60.4021 250.719 60.2583C250.854 60.1146 250.929 59.9245 250.929 59.727C250.929 59.5296 250.854 59.3395 250.719 59.1957C250.583 59.052 250.398 58.9653 250.201 58.9534Z" fill="black"/>
    <path d="M272.981 66.2427C272.783 66.2546 272.598 66.3413 272.463 66.485C272.328 66.6288 272.252 66.8189 272.252 67.0163C272.252 67.2138 272.328 67.4039 272.463 67.5477C272.598 67.6914 272.783 67.7781 272.981 67.79C273.178 67.7781 273.363 67.6914 273.498 67.5477C273.634 67.4039 273.709 67.2138 273.709 67.0163C273.709 66.8189 273.634 66.6288 273.498 66.485C273.363 66.3413 273.178 66.2546 272.981 66.2427Z" fill="black"/>
    <path d="M230.61 80.3672C230.413 80.3791 230.228 80.4658 230.093 80.6096C229.957 80.7533 229.882 80.9434 229.882 81.1409C229.882 81.3383 229.957 81.5284 230.093 81.6722C230.228 81.8159 230.413 81.9026 230.61 81.9145C230.807 81.9026 230.992 81.8159 231.128 81.6722C231.263 81.5284 231.339 81.3383 231.339 81.1409C231.339 80.9434 231.263 80.7533 231.128 80.6096C230.992 80.4658 230.807 80.3791 230.61 80.3672Z" fill="black"/>
    <path d="M296.217 142.784C296.02 142.796 295.835 142.882 295.7 143.026C295.564 143.17 295.489 143.36 295.489 143.557C295.489 143.755 295.564 143.945 295.7 144.089C295.835 144.232 296.02 144.319 296.217 144.331C296.414 144.319 296.6 144.232 296.735 144.089C296.87 143.945 296.946 143.755 296.946 143.557C296.946 143.36 296.87 143.17 296.735 143.026C296.6 142.882 296.414 142.796 296.217 142.784Z" fill="black"/>
    <path d="M289.382 171.032C289.185 171.044 289 171.131 288.865 171.275C288.729 171.418 288.654 171.608 288.654 171.806C288.654 172.003 288.729 172.193 288.865 172.337C289 172.481 289.185 172.568 289.382 172.58C289.579 172.568 289.765 172.481 289.9 172.337C290.035 172.193 290.111 172.003 290.111 171.806C290.111 171.608 290.035 171.418 289.9 171.275C289.765 171.131 289.579 171.044 289.382 171.032Z" fill="black"/>
    <path d="M267.058 170.577C266.861 170.589 266.676 170.675 266.541 170.819C266.405 170.963 266.33 171.153 266.33 171.35C266.33 171.548 266.405 171.738 266.541 171.882C266.676 172.025 266.861 172.112 267.058 172.124C267.256 172.112 267.441 172.025 267.576 171.882C267.711 171.738 267.787 171.548 267.787 171.35C267.787 171.153 267.711 170.963 267.576 170.819C267.441 170.675 267.256 170.589 267.058 170.577Z" fill="black"/>
    <path d="M227.88 161.009C227.683 161.02 227.498 161.107 227.362 161.251C227.227 161.395 227.152 161.585 227.152 161.782C227.152 161.98 227.227 162.17 227.362 162.314C227.498 162.457 227.683 162.544 227.88 162.556C228.077 162.544 228.262 162.457 228.398 162.314C228.533 162.17 228.608 161.98 228.608 161.782C228.608 161.585 228.533 161.395 228.398 161.251C228.262 161.107 228.077 161.02 227.88 161.009Z" fill="black"/>
    <path d="M195.072 167.393C194.875 167.405 194.69 167.492 194.555 167.636C194.419 167.779 194.344 167.97 194.344 168.167C194.344 168.364 194.419 168.555 194.555 168.698C194.69 168.842 194.875 168.929 195.072 168.941C195.27 168.929 195.455 168.842 195.59 168.698C195.725 168.555 195.801 168.364 195.801 168.167C195.801 167.97 195.725 167.779 195.59 167.636C195.455 167.492 195.27 167.405 195.072 167.393Z" fill="black"/>
    <path d="M191.428 151.44C191.23 151.452 191.045 151.539 190.91 151.683C190.775 151.827 190.699 152.017 190.699 152.214C190.699 152.412 190.775 152.602 190.91 152.745C191.045 152.889 191.23 152.976 191.428 152.988C191.625 152.976 191.81 152.889 191.945 152.745C192.081 152.602 192.156 152.412 192.156 152.214C192.156 152.017 192.081 151.827 191.945 151.683C191.81 151.539 191.625 151.452 191.428 151.44Z" fill="black"/>
    <path d="M144.956 149.619C144.758 149.631 144.573 149.717 144.438 149.861C144.303 150.005 144.227 150.195 144.227 150.392C144.227 150.59 144.303 150.78 144.438 150.924C144.573 151.067 144.758 151.154 144.956 151.166C145.153 151.154 145.338 151.067 145.473 150.924C145.609 150.78 145.684 150.59 145.684 150.392C145.684 150.195 145.609 150.005 145.473 149.861C145.338 149.717 145.153 149.631 144.956 149.619Z" fill="black"/>
    <path d="M130.833 107.703C130.636 107.715 130.45 107.801 130.315 107.945C130.18 108.089 130.104 108.279 130.104 108.477C130.104 108.674 130.18 108.864 130.315 109.008C130.45 109.152 130.636 109.238 130.833 109.25C131.03 109.238 131.215 109.152 131.35 109.008C131.486 108.864 131.561 108.674 131.561 108.477C131.561 108.279 131.486 108.089 131.35 107.945C131.215 107.801 131.03 107.715 130.833 107.703Z" fill="black"/>
    <path d="M101.218 130.028C101.021 130.04 100.836 130.127 100.701 130.27C100.565 130.414 100.49 130.604 100.49 130.802C100.49 130.999 100.565 131.189 100.701 131.333C100.836 131.477 101.021 131.564 101.218 131.575C101.415 131.564 101.6 131.477 101.736 131.333C101.871 131.189 101.947 130.999 101.947 130.802C101.947 130.604 101.871 130.414 101.736 130.27C101.6 130.127 101.415 130.04 101.218 130.028Z" fill="black"/>
    <path d="M54.7461 153.263C54.549 153.275 54.3638 153.362 54.2285 153.506C54.0931 153.65 54.0177 153.84 54.0177 154.037C54.0177 154.235 54.0931 154.425 54.2285 154.568C54.3638 154.712 54.549 154.799 54.7461 154.811C54.9432 154.799 55.1284 154.712 55.2637 154.568C55.3991 154.425 55.4745 154.235 55.4745 154.037C55.4745 153.84 55.3991 153.65 55.2637 153.506C55.1284 153.362 54.9432 153.275 54.7461 153.263Z" fill="black"/>
    <path d="M50.1898 109.526C49.9927 109.538 49.8075 109.624 49.6722 109.768C49.5368 109.912 49.4614 110.102 49.4614 110.3C49.4614 110.497 49.5368 110.687 49.6722 110.831C49.8075 110.975 49.9927 111.061 50.1898 111.073C50.3869 111.061 50.5721 110.975 50.7075 110.831C50.8428 110.687 50.9182 110.497 50.9182 110.3C50.9182 110.102 50.8428 109.912 50.7075 109.768C50.5721 109.624 50.3869 109.538 50.1898 109.526Z" fill="black"/>
    <path d="M82.0833 112.715C81.8861 112.727 81.701 112.813 81.5656 112.957C81.4302 113.101 81.3549 113.291 81.3549 113.489C81.3549 113.686 81.4302 113.876 81.5656 114.02C81.701 114.164 81.8861 114.25 82.0833 114.262C82.2804 114.25 82.4655 114.164 82.6009 114.02C82.7363 113.876 82.8117 113.686 82.8117 113.489C82.8117 113.291 82.7363 113.101 82.6009 112.957C82.4655 112.813 82.2804 112.727 82.0833 112.715Z" fill="black"/>
    <path d="M106.23 73.0764C106.033 73.0883 105.848 73.175 105.712 73.3188C105.577 73.4626 105.502 73.6526 105.502 73.8501C105.502 74.0476 105.577 74.2376 105.712 74.3814C105.848 74.5252 106.033 74.6119 106.23 74.6238C106.427 74.6119 106.612 74.5252 106.748 74.3814C106.883 74.2376 106.958 74.0476 106.958 73.8501C106.958 73.6526 106.883 73.4626 106.748 73.3188C106.612 73.175 106.427 73.0883 106.23 73.0764Z" fill="black"/>
    <path d="M36.5227 136.406C36.3256 136.418 36.1404 136.504 36.0051 136.648C35.8697 136.792 35.7943 136.982 35.7943 137.179C35.7943 137.377 35.8697 137.567 36.0051 137.711C36.1404 137.855 36.3256 137.941 36.5227 137.953C36.7198 137.941 36.905 137.855 37.0404 137.711C37.1757 137.567 37.2511 137.377 37.2511 137.179C37.2511 136.982 37.1757 136.792 37.0404 136.648C36.905 136.504 36.7198 136.418 36.5227 136.406Z" fill="black"/>
    <path d="M163.636 183.79C163.439 183.801 163.254 183.888 163.118 184.032C162.983 184.176 162.908 184.366 162.908 184.563C162.908 184.761 162.983 184.951 163.118 185.095C163.254 185.238 163.439 185.325 163.636 185.337C163.833 185.325 164.018 185.238 164.154 185.095C164.289 184.951 164.365 184.761 164.365 184.563C164.365 184.366 164.289 184.176 164.154 184.032C164.018 183.888 163.833 183.801 163.636 183.79Z" fill="black"/>
    <path d="M324.92 187.434C324.723 187.446 324.538 187.533 324.403 187.676C324.267 187.82 324.192 188.01 324.192 188.208C324.192 188.405 324.267 188.595 324.403 188.739C324.538 188.883 324.723 188.97 324.92 188.981C325.117 188.97 325.303 188.883 325.438 188.739C325.573 188.595 325.649 188.405 325.649 188.208C325.649 188.01 325.573 187.82 325.438 187.676C325.303 187.533 325.117 187.446 324.92 187.434Z" fill="black"/>
    <path d="M356.812 146.434C356.615 146.446 356.43 146.533 356.295 146.676C356.159 146.82 356.084 147.01 356.084 147.208C356.084 147.405 356.159 147.595 356.295 147.739C356.43 147.883 356.615 147.97 356.812 147.981C357.009 147.97 357.194 147.883 357.33 147.739C357.465 147.595 357.541 147.405 357.541 147.208C357.541 147.01 357.465 146.82 357.33 146.676C357.194 146.533 357.009 146.446 356.812 146.434Z" fill="black"/>
    <path d="M382.332 103.602C382.135 103.614 381.95 103.701 381.814 103.845C381.679 103.988 381.604 104.178 381.604 104.376C381.604 104.573 381.679 104.763 381.814 104.907C381.95 105.051 382.135 105.138 382.332 105.15C382.529 105.138 382.714 105.051 382.85 104.907C382.985 104.763 383.06 104.573 383.06 104.376C383.06 104.178 382.985 103.988 382.85 103.845C382.714 103.701 382.529 103.614 382.332 103.602Z" fill="black"/>
    <path d="M414.218 150.53C414.021 150.542 413.836 150.629 413.701 150.773C413.565 150.916 413.49 151.106 413.49 151.304C413.49 151.501 413.565 151.691 413.701 151.835C413.836 151.979 414.021 152.066 414.218 152.078C414.415 152.066 414.601 151.979 414.736 151.835C414.871 151.691 414.947 151.501 414.947 151.304C414.947 151.106 414.871 150.916 414.736 150.773C414.601 150.629 414.415 150.542 414.218 150.53Z" fill="black"/>
    <path d="M404.194 164.197C403.997 164.209 403.812 164.296 403.677 164.44C403.541 164.583 403.466 164.773 403.466 164.971C403.466 165.168 403.541 165.358 403.677 165.502C403.812 165.646 403.997 165.733 404.194 165.745C404.392 165.733 404.577 165.646 404.712 165.502C404.848 165.358 404.923 165.168 404.923 164.971C404.923 164.773 404.848 164.583 404.712 164.44C404.577 164.296 404.392 164.209 404.194 164.197Z" fill="black"/>
    <path d="M397.361 133.673C397.164 133.685 396.979 133.771 396.843 133.915C396.708 134.059 396.633 134.249 396.633 134.447C396.633 134.644 396.708 134.834 396.843 134.978C396.979 135.122 397.164 135.208 397.361 135.22C397.558 135.208 397.743 135.122 397.879 134.978C398.014 134.834 398.089 134.644 398.089 134.447C398.089 134.249 398.014 134.059 397.879 133.915C397.743 133.771 397.558 133.685 397.361 133.673Z" fill="black"/>
    <path d="M316.264 148.707C316.067 148.719 315.882 148.806 315.746 148.95C315.611 149.093 315.535 149.283 315.535 149.481C315.535 149.678 315.611 149.868 315.746 150.012C315.882 150.156 316.067 150.243 316.264 150.255C316.461 150.243 316.646 150.156 316.781 150.012C316.917 149.868 316.992 149.678 316.992 149.481C316.992 149.283 316.917 149.093 316.781 148.95C316.646 148.806 316.461 148.719 316.264 148.707Z" fill="black"/>
</svg>
