<svg viewBox="0 0 151 151" fill="none" xmlns="http://www.w3.org/2000/svg">
    <path d="M75.4577 14.3999C75.6802 14.3615 75.9091 14.3921 76.1136 14.4878C76.3181 14.5835 76.4883 14.7395 76.6013 14.935C76.9132 15.3788 77.2482 15.8059 77.605 16.2144C77.9943 16.6249 78.4423 16.9755 78.9343 17.2548C79.4376 17.5357 80.103 17.7999 80.6421 17.4597C80.752 17.3944 80.8433 17.3021 80.9075 17.1915C80.9716 17.081 81.0064 16.9558 81.0085 16.828C80.9942 16.7076 81.0073 16.5856 81.0468 16.471C81.0863 16.3564 81.1511 16.2522 81.2365 16.1661C81.3075 16.1031 81.3973 16.0653 81.4921 16.0587C81.5868 16.0522 81.681 16.0772 81.76 16.1299C81.9734 16.292 81.9538 16.6247 81.9829 16.8637C82.0243 17.4589 81.9533 18.0565 81.7736 18.6254C81.663 18.9659 81.5916 19.3178 81.5606 19.6744C81.5704 19.8418 81.592 20.0083 81.6251 20.1727C81.6464 20.3664 81.6783 20.5588 81.7207 20.749C81.9048 21.4548 82.1593 22.1405 82.4802 22.7955C82.527 22.8992 82.5004 23.0658 82.3609 23.088L80.5384 23.3759C80.4875 23.3877 80.4341 23.38 80.3887 23.3543C80.3433 23.3285 80.3092 23.2867 80.2933 23.237C80.069 22.5984 79.7148 22.0132 79.2529 21.5186C79.0337 21.3203 78.7857 21.1564 78.5175 21.0324C78.1878 20.8562 77.8576 20.7017 77.5108 20.5552C76.8959 20.3202 76.338 19.9569 75.8743 19.4896C75.4106 19.0223 75.0517 18.4615 74.8215 17.8447C74.5587 17.0801 74.5065 16.2588 74.6705 15.467C74.6979 15.2361 74.7849 15.0163 74.9229 14.8293C75.0609 14.6422 75.2452 14.4942 75.4577 14.3999ZM76.2877 19.3542C76.8038 19.7793 77.3885 20.1134 78.0167 20.3423C78.5951 20.5525 79.1267 20.874 79.5815 21.2885C80.0251 21.7784 80.3723 22.3476 80.6048 22.9662L82.0217 22.7427C81.8101 22.2891 81.6252 21.8236 81.468 21.3484C81.382 21.0788 81.3157 20.8033 81.2697 20.524C81.2172 20.2724 81.1806 20.0177 81.16 19.7614C81.2056 19.1725 81.3217 18.5912 81.5058 18.03C81.5777 17.7572 81.6169 17.4769 81.6226 17.1949C81.6185 17.058 81.5888 16.9171 81.5722 16.7812C81.5616 16.6931 81.5803 16.4253 81.4761 16.4867C81.3477 16.5622 81.4036 17.0122 81.3608 17.1537C81.2926 17.368 81.1625 17.5573 80.9868 17.6978C80.8011 17.8403 80.5856 17.939 80.3564 17.9867C80.1272 18.0344 79.8902 18.0297 79.6631 17.9731C78.646 17.6789 77.7462 17.0743 77.0895 16.2436C76.9035 16.0294 76.7287 15.8058 76.5656 15.5737C76.4258 15.3453 76.2603 15.1337 76.0723 14.943C75.5433 14.4694 75.1628 15.0875 75.0531 15.5747C74.9173 16.2577 74.9595 16.9641 75.1758 17.6261C75.392 18.288 75.7749 18.8831 76.2877 19.3542Z" fill="black"/>
    <path d="M72.3159 16.52C72.5226 18.18 73.2743 19.7245 74.453 20.9115C74.4818 20.9503 74.4957 20.9981 74.4921 21.0462C74.4886 21.0943 74.4679 21.1396 74.4338 21.1737C74.3997 21.2079 74.3545 21.2287 74.3064 21.2323C74.2583 21.2359 74.2105 21.2221 74.1717 21.1934C72.9215 19.9296 72.1284 18.2851 71.9178 16.52C71.8871 16.2658 72.2857 16.2678 72.3159 16.52Z" fill="black"/>
    <path d="M71.3667 20.1648C72.013 21.0371 72.8413 21.7585 73.7942 22.2788C74.0187 22.4021 73.8179 22.7464 73.5929 22.6226C72.5823 22.0659 71.7052 21.2955 71.0229 20.3651C70.8694 20.1597 71.2162 19.9604 71.3667 20.1648Z" fill="black"/>
    <path d="M97.2666 59.5067C97.3754 59.2148 97.4987 58.9269 97.625 58.6425C97.8855 58.0549 98.1784 57.4822 98.5023 56.9271C99.1472 55.8248 99.9093 54.7953 100.775 53.8568C101.472 53.1018 102.603 52.0891 103.703 52.6885C104.696 53.2296 103.763 54.5262 103.781 55.3129C103.763 56.6145 104.061 57.8824 104.146 59.176C104.25 60.3103 104.091 61.4535 103.681 62.5161C103.274 63.485 102.487 64.467 101.416 64.7107C100.344 64.9543 99.5367 64.2169 99.2045 63.256C98.8285 62.1683 99.128 60.9976 98.9407 59.8922C98.8383 60.1763 98.6333 60.4117 98.3659 60.5521C98.2191 60.6515 98.0428 60.6978 97.8661 60.6831C97.6894 60.6685 97.523 60.5939 97.3946 60.4718C97.2661 60.3496 97.1833 60.1872 97.1598 60.0115C97.1364 59.8357 97.1737 59.6573 97.2656 59.5057L97.2666 59.5067ZM97.9492 60.2451C98.5084 60.2511 98.6634 59.547 98.763 59.1211C98.8134 58.9107 99.0796 58.9555 99.1471 59.1211C99.6001 60.2244 99.2649 61.3942 99.438 62.5337C99.5704 63.407 100.092 64.463 101.133 64.3578C102.195 64.2501 102.988 63.2052 103.351 62.2846C103.702 61.3189 103.839 60.2885 103.754 59.2646C103.677 57.9418 103.365 56.6473 103.383 55.3164C103.402 54.9571 103.476 54.6028 103.603 54.266C103.744 53.9534 103.786 53.6049 103.722 53.2679C103.558 52.8531 102.928 52.8833 102.584 52.991C102.128 53.1583 101.718 53.4333 101.39 53.7929C99.9169 55.2963 98.7345 57.0594 97.9028 58.9933C97.7617 59.2672 97.6506 59.5556 97.5717 59.8535C97.5248 60.1097 97.7096 60.2421 97.9486 60.2451H97.9492Z" fill="black"/>
    <path d="M135.24 74.887L136.134 71.337C136.432 70.1552 136.7 68.9608 137.028 67.787C137.129 67.4271 137.475 67.1906 137.802 67.488C138.196 67.8464 137.837 68.4031 138.098 68.8229C138.722 69.824 140.183 69.2195 140.971 68.7871C141.413 68.5431 141.828 68.2523 142.208 67.9199C142.582 67.5942 142.9 67.2248 143.241 66.8664C143.376 66.6867 143.55 66.54 143.75 66.437C143.949 66.3341 144.17 66.2777 144.395 66.272C144.576 66.2974 144.747 66.3704 144.89 66.4835C145.034 66.5966 145.145 66.7457 145.212 66.9157C145.528 67.8357 145.498 68.839 145.128 69.7384C144.872 70.4593 144.457 71.113 143.913 71.6502C143.368 72.1874 142.709 72.5942 141.985 72.84C141.378 72.9986 140.781 73.1901 140.194 73.4138C139.727 73.6383 139.321 73.9729 139.011 74.3889C138.702 74.8049 138.498 75.2898 138.417 75.8021C138.402 75.8527 138.368 75.8956 138.322 75.9215C138.277 75.9475 138.222 75.9545 138.172 75.941L135.38 75.1311C135.334 75.1185 135.295 75.0888 135.271 75.0481L135.264 75.039C135.26 75.0311 135.256 75.0229 135.254 75.0144C135.234 74.9749 135.229 74.9297 135.24 74.887ZM138.073 75.5001C138.243 74.7417 138.655 74.0592 139.247 73.5557C140.011 72.9114 140.963 72.772 141.88 72.4574C142.796 72.1371 143.59 71.5399 144.152 70.7484C144.714 69.9569 145.016 69.0103 145.016 68.0397C145.054 67.6223 144.946 67.2047 144.71 66.8584C144.362 66.4602 143.89 66.7793 143.6 67.0698C143.27 67.3994 142.978 67.7603 142.632 68.0764C142.3 68.3805 141.943 68.6558 141.565 68.8994C140.793 69.3936 139.783 69.8879 138.842 69.7324C138.429 69.6684 138.058 69.4439 137.81 69.1077C137.697 68.9533 137.623 68.7742 137.593 68.5853C137.579 68.4759 137.577 68.3653 137.588 68.2556C137.598 68.1338 137.655 67.9294 137.57 67.8232C137.444 67.6662 137.415 67.8887 137.39 67.9848C137.352 68.1358 137.314 68.2843 137.277 68.4343L137.039 69.378C136.884 69.9921 136.73 70.6062 136.575 71.2202C136.273 72.4148 135.972 73.6094 135.672 74.804L138.073 75.5001Z" fill="black"/>
    <path d="M93.0089 22.2326C93.6909 19.1366 93.021 15.6107 94.8209 13.0015C96.2932 10.8673 99.1793 9.98146 101.723 10.4848C104.267 10.9881 106.458 12.6783 108.019 14.7475C109.58 16.8167 109.817 19.1165 111.153 21.3412C111.738 22.3156 113.314 23.722 113.596 25.1781C113.752 25.9056 113.726 26.6605 113.519 27.3753C113.312 28.0901 112.931 28.7425 112.411 29.2742C111.344 30.2774 109.81 30.5648 108.367 30.8094C104.161 31.5216 99.7254 32.2152 95.7229 30.7389C94.2939 30.2119 92.873 29.3115 92.338 27.885C91.6605 26.076 92.5937 24.1176 93.0089 22.2326ZM103.192 26.9715C103.218 27.2231 103.617 27.2267 103.591 26.9715C103.398 25.0293 103.511 23.0688 103.925 21.1615C103.906 21.1479 103.883 21.1409 103.865 21.1268C103.727 21.3199 103.576 21.5034 103.412 21.6759C103.091 23.4221 103.017 25.2047 103.192 26.9715ZM98.1062 27.5825C98.1817 27.8271 98.5662 27.7219 98.4907 27.4763C98.0589 26.058 97.8311 24.5854 97.8142 23.1029C97.6768 23.0596 97.5404 23.0123 97.4055 22.9594C97.4119 24.5264 97.6479 26.084 98.1062 27.5825ZM94.6332 19.3782C94.7999 20.2482 95.2579 21.0355 95.9318 21.6105C96.63 22.2312 97.4783 22.6587 98.3926 22.8506C99.3069 23.0426 100.255 22.9923 101.144 22.7047C102.179 22.34 103.064 21.643 103.661 20.7226C103.677 20.6967 103.698 20.6746 103.723 20.6581C103.749 20.6415 103.777 20.6309 103.808 20.6271C103.838 20.6232 103.868 20.6262 103.897 20.6357C103.926 20.6453 103.952 20.6612 103.974 20.6823C104.157 20.8812 104.406 21.0068 104.675 21.0359C104.944 21.0649 105.215 20.9955 105.436 20.8404C105.647 20.6806 105.817 20.4726 105.932 20.2339C106.046 19.9951 106.102 19.7324 106.094 19.4678C106.003 19.1565 105.804 18.8879 105.533 18.7102C105.261 18.5324 104.936 18.4571 104.614 18.4979C104.58 18.5066 104.544 18.5063 104.511 18.4971C104.477 18.4878 104.446 18.47 104.421 18.4452C104.397 18.4205 104.379 18.3897 104.369 18.356C104.36 18.3222 104.36 18.2866 104.369 18.2527C104.4 18.0977 104.419 17.9402 104.439 17.7831C102.588 16.9577 100.753 15.9389 99.5437 14.2719C99.1234 14.6655 98.6931 15.0566 98.2446 15.4149C97.7864 15.8033 97.2545 16.0952 96.6807 16.2731C96.0064 16.4497 95.3042 16.4938 94.613 16.403C94.4578 17.3893 94.4653 18.3943 94.6352 19.3782H94.6332Z" fill="black"/>
    <path d="M101.207 17.667C101.608 17.5691 102.031 17.6179 102.399 17.8045C102.767 17.991 103.056 18.303 103.215 18.6842C103.315 18.9208 102.928 19.0235 102.83 18.7904C102.703 18.5098 102.482 18.2823 102.205 18.1473C101.928 18.0124 101.613 17.9783 101.313 18.051C101.265 18.057 101.217 18.0456 101.177 18.0188C101.136 17.9919 101.107 17.9515 101.094 17.9049C101.081 17.8583 101.086 17.8086 101.106 17.7649C101.127 17.7212 101.163 17.6864 101.207 17.667Z" fill="black"/>
    <path d="M95.9242 16.8149C96.1405 16.6908 96.3866 16.6285 96.6358 16.6347C96.8851 16.6409 97.1278 16.7154 97.3376 16.8501C97.5525 16.9886 97.3527 17.3334 97.1363 17.1944C96.9879 17.0945 96.8145 17.0382 96.6358 17.0319C96.457 17.0256 96.2801 17.0695 96.1251 17.1587C96.0803 17.1765 96.0306 17.1777 95.9851 17.162C95.9395 17.1463 95.9011 17.1148 95.8768 17.0732C95.8525 17.0316 95.8439 16.9826 95.8526 16.9352C95.8613 16.8879 95.8867 16.8452 95.9242 16.8149Z" fill="black"/>
    <path d="M101.66 18.9254C101.682 18.9042 101.708 18.8882 101.737 18.8785C101.765 18.8689 101.796 18.8659 101.826 18.8698C101.856 18.8737 101.885 18.8843 101.91 18.9009C101.936 18.9175 101.957 18.9396 101.973 18.9656C102.003 19.0188 102.02 19.078 102.023 19.1388C102.037 19.1902 102.038 19.2442 102.026 19.2961C102.014 19.348 101.99 19.3963 101.956 19.4368C101.951 19.4463 101.949 19.4559 101.943 19.465C101.923 19.498 101.894 19.5242 101.859 19.5404C101.824 19.5566 101.785 19.5618 101.747 19.5556C101.702 19.5575 101.658 19.5447 101.621 19.5189C101.584 19.4932 101.557 19.456 101.544 19.4131C101.539 19.3985 101.539 19.3849 101.536 19.3708C101.529 19.3495 101.525 19.327 101.525 19.3044C101.519 19.2352 101.528 19.1656 101.551 19.1002C101.574 19.0348 101.611 18.9752 101.66 18.9254Z" fill="black"/>
    <path d="M96.781 18.206C96.7895 18.1919 96.8021 18.1783 96.8122 18.1642C96.8222 18.1501 96.8222 18.1481 96.8293 18.1416C96.8363 18.135 96.8479 18.1134 96.86 18.1003C96.8826 18.0757 96.9117 18.0581 96.9441 18.0496C96.9764 18.0412 97.0104 18.0422 97.0422 18.0525C97.0502 18.0525 97.0568 18.048 97.0648 18.0475C97.0999 18.0471 97.1345 18.0563 97.1648 18.074C97.1951 18.0918 97.22 18.1174 97.237 18.1481C97.2634 18.2059 97.2767 18.2689 97.2757 18.3325C97.2748 18.396 97.2596 18.4586 97.2314 18.5156C97.2293 18.5422 97.2218 18.5681 97.2095 18.5917C97.1971 18.6153 97.1801 18.6363 97.1595 18.6532C97.1389 18.6701 97.115 18.6827 97.0894 18.6902C97.0638 18.6977 97.037 18.6999 97.0105 18.6968C97.0009 18.6998 96.9954 18.7068 96.9853 18.7094C96.9343 18.7228 96.8801 18.7158 96.8343 18.6897C96.7884 18.6637 96.7546 18.6206 96.7402 18.5699C96.7239 18.5069 96.7198 18.4413 96.7281 18.3766C96.73 18.316 96.7483 18.2571 96.781 18.206Z" fill="black"/>
    <path d="M98.2985 18.6813C98.1581 18.9999 98.0866 19.5465 98.5446 19.6346C98.7963 19.685 98.6896 20.067 98.4384 20.0187C98.2288 19.9632 98.047 19.8326 97.9275 19.6517C97.8081 19.4707 97.7593 19.2522 97.7907 19.0377C97.841 18.4734 98.2723 18.0516 98.3977 17.5121C98.4555 17.2604 98.8401 17.3681 98.7817 17.6178C98.655 17.9869 98.4932 18.343 98.2985 18.6813Z" fill="black"/>
    <path d="M97.4347 20.0383C97.9098 20.3958 98.4876 20.5902 99.0822 20.5927C99.6767 20.5951 100.256 20.4054 100.734 20.0519C100.764 20.0349 100.799 20.0261 100.834 20.0263C100.868 20.0265 100.902 20.0358 100.933 20.0531C100.963 20.0704 100.988 20.0953 101.006 20.1253C101.023 20.1552 101.033 20.1892 101.034 20.224C101.033 20.7779 100.829 21.3122 100.46 21.7247C100.09 22.1373 99.5813 22.399 99.0308 22.4598C98.7791 22.4916 98.7791 22.0929 99.0308 22.0612C99.4104 22.0119 99.765 21.845 100.045 21.5838C100.325 21.3226 100.516 20.9804 100.591 20.6051C100.068 20.8911 99.4744 21.0221 98.8796 20.9827C98.2848 20.9433 97.7136 20.7351 97.2329 20.3826C97.03 20.2341 97.2284 19.8858 97.4347 20.0383Z" fill="black"/>
    <path d="M121.82 75.313C121.464 75.313 121.176 75.0245 121.176 74.6687C121.176 74.3129 121.464 74.0244 121.82 74.0244C122.176 74.0244 122.464 74.3129 122.464 74.6687C122.464 75.0245 122.176 75.313 121.82 75.313Z" fill="black"/>
    <path d="M116.003 73.829C115.647 73.829 115.359 73.5406 115.359 73.1848C115.359 72.829 115.647 72.5405 116.003 72.5405C116.359 72.5405 116.647 72.829 116.647 73.1848C116.647 73.5406 116.359 73.829 116.003 73.829Z" fill="black"/>
    <path d="M122 71.9192C122.357 72.0098 122.68 72.2022 122.931 72.4729C123.181 72.7436 123.347 73.081 123.409 73.4443C123.448 73.6959 123.064 73.8031 123.025 73.55C122.98 73.254 122.849 72.9778 122.648 72.756C122.447 72.5342 122.185 72.3767 121.895 72.3032C121.643 72.2554 121.749 71.8713 122 71.9192Z" fill="black"/>
    <path d="M114.819 71.0805C115.579 70.7503 116.306 70.5389 117.089 70.9245C117.32 71.0377 117.118 71.3815 116.888 71.2682C116.586 71.15 116.26 71.1027 115.936 71.1298C115.612 71.1569 115.299 71.2578 115.02 71.4248C114.788 71.5239 114.585 71.1827 114.819 71.0805Z" fill="black"/>
    <path d="M116.264 75.0539C117.674 75.4173 119.056 75.8592 120.462 76.2287C120.491 76.2371 120.518 76.2521 120.541 76.2724C120.563 76.2928 120.581 76.318 120.592 76.3462C120.604 76.3744 120.609 76.4048 120.607 76.4352C120.605 76.4656 120.596 76.4951 120.581 76.5216C120.352 76.9125 120.031 77.2418 119.647 77.4809C119.262 77.7201 118.825 77.8619 118.373 77.8942C118.039 77.9071 117.707 77.8412 117.404 77.7017C117.1 77.5622 116.834 77.3531 116.627 77.0914C116.237 76.5538 116.023 75.9094 116.012 75.2457C116.013 75.2151 116.02 75.1851 116.034 75.1579C116.048 75.1307 116.067 75.1069 116.092 75.0884C116.116 75.07 116.144 75.0573 116.174 75.0513C116.204 75.0453 116.235 75.0462 116.264 75.0539ZM116.898 76.7929C117.066 77.0229 117.289 77.2076 117.547 77.3306C117.804 77.4535 118.088 77.5109 118.373 77.4976C118.711 77.4731 119.039 77.3747 119.335 77.2095C119.63 77.0442 119.886 76.8161 120.084 76.5412C118.865 76.2141 117.659 75.8411 116.439 75.5165C116.481 75.9739 116.639 76.4131 116.898 76.7929Z" fill="black"/>
    <path d="M123.191 134.273C125.857 132.484 128.296 130.377 130.452 127.997C130.879 127.467 131.36 126.984 131.888 126.555C132.101 126.37 132.373 126.269 132.655 126.271C132.921 126.294 133.177 126.386 133.398 126.539C133.618 126.691 133.794 126.898 133.91 127.14C134.59 128.589 133.658 130.588 132.531 132.123C130.913 134.328 125.891 137.362 125.891 137.362L123.191 134.273Z" fill="black"/>
    <path d="M32.7293 74.9734C32.3961 74.8969 32.537 74.3845 32.8707 74.461C33.4118 74.5853 34.129 74.6623 34.2101 73.937C34.2821 73.2953 33.9614 72.6837 34.1759 72.045C34.2841 71.7229 34.797 71.8608 34.6877 72.1864C34.4361 72.9314 34.9676 73.713 34.6082 74.459C34.2549 75.1928 33.4002 75.1274 32.7293 74.9734Z" fill="black"/>
    <path d="M34.9192 72.1501C34.9178 72.1297 34.919 72.1093 34.9227 72.0892C34.9227 72.0857 34.9227 72.0832 34.9227 72.0796C34.9282 72.0654 34.9347 72.0516 34.9424 72.0384C34.9462 72.0283 34.9507 72.0186 34.956 72.0092C34.9887 71.9286 35.0484 71.8619 35.1249 71.8206C35.2014 71.7792 35.2899 71.7657 35.3753 71.7824C35.4606 71.799 35.5375 71.8449 35.5928 71.912C35.6481 71.9791 35.6783 72.0634 35.6783 72.1504C35.6783 72.2373 35.6481 72.3216 35.5928 72.3887C35.5375 72.4559 35.4606 72.5017 35.3753 72.5184C35.2899 72.535 35.2014 72.5215 35.1249 72.4802C35.0484 72.4388 34.9887 72.3721 34.956 72.2915C34.9503 72.2816 34.9453 72.2714 34.9409 72.2608C34.934 72.2478 34.9278 72.2343 34.9222 72.2206C34.9222 72.2171 34.9222 72.2145 34.9222 72.211C34.9187 72.1909 34.9177 72.1705 34.9192 72.1501Z" fill="black"/>
    <path d="M29.297 72.1484C29.296 72.1282 29.2974 72.1079 29.301 72.088C29.301 72.0845 29.301 72.0815 29.301 72.0779C29.3056 72.0623 29.3151 72.0513 29.3207 72.0367C29.3249 72.0267 29.3296 72.017 29.3348 72.0075C29.3676 71.927 29.4273 71.8603 29.5038 71.819C29.5803 71.7777 29.6688 71.7642 29.7541 71.7809C29.8394 71.7976 29.9163 71.8435 29.9715 71.9106C30.0268 71.9777 30.057 72.062 30.057 72.1489C30.057 72.2359 30.0268 72.3201 29.9715 72.3872C29.9163 72.4544 29.8394 72.5002 29.7541 72.5169C29.6688 72.5336 29.5803 72.5201 29.5038 72.4788C29.4273 72.4375 29.3676 72.3709 29.3348 72.2903C29.3282 72.2808 29.3252 72.2692 29.3197 72.2591C29.3141 72.2491 29.3051 72.2345 29.3005 72.2194C29.3008 72.2162 29.3008 72.213 29.3005 72.2098C29.297 72.1895 29.2959 72.1689 29.297 72.1484Z" fill="black"/>
    <path d="M31.639 70.1316C31.8609 70.3898 31.488 70.7673 31.2635 70.507C31.0453 70.2555 30.7411 70.0943 30.4105 70.055C30.0798 70.0156 29.7463 70.1009 29.4751 70.2941C29.1968 70.4955 28.931 70.0329 29.2069 69.8356C29.5795 69.5824 30.0313 69.4729 30.4785 69.5273C30.9256 69.5817 31.3379 69.7964 31.639 70.1316Z" fill="black"/>
    <path d="M34.5514 69.839C34.2237 69.9396 34.0838 69.4272 34.41 69.3271C34.7903 69.2127 35.1958 69.2119 35.5766 69.325C35.9574 69.438 36.2968 69.6599 36.5531 69.9633C36.7691 70.225 36.3951 70.6025 36.1777 70.3388C35.9876 70.1025 35.731 69.9286 35.4412 69.8395C35.1513 69.7504 34.8414 69.7502 34.5514 69.839Z" fill="black"/>
    <path d="M19.252 69.7323C19.7128 68.5945 20.3961 67.5601 21.2618 66.6897C20.9141 66.139 20.741 65.4961 20.7652 64.8454C20.7895 64.1946 21.0099 63.5663 21.3975 63.0431C21.7852 62.5198 22.322 62.126 22.9375 61.9133C23.553 61.7005 24.2185 61.6789 24.8465 61.8511C25.1681 60.7282 25.7446 59.6947 26.5312 58.8311C26.928 58.4039 27.419 58.0752 27.9652 57.8711C28.5115 57.6671 29.0978 57.5934 29.6775 57.6558C30.255 57.7394 30.7856 58.021 31.1783 58.4525C31.5711 58.8841 31.8018 59.4387 31.8308 60.0215C33.3262 59.5923 34.9235 59.6878 36.3572 60.2921C37.7909 60.8964 38.9745 61.9732 39.7114 63.3435C40.124 64.0695 40.2701 64.9167 40.1247 65.7389C40.0413 66.1454 39.8273 66.5135 39.5152 66.7871C39.2032 67.0606 38.8102 67.2246 38.3962 67.2539C39.1487 67.6335 39.7636 68.2389 40.1547 68.9854C40.5459 69.7319 40.6937 70.582 40.5775 71.4167C40.4613 72.2514 40.0869 73.0289 39.5068 73.6402C38.9266 74.2515 38.1698 74.6659 37.3422 74.8256C37.2919 74.9811 37.2416 75.1356 37.1847 75.2876C36.9497 75.9129 36.6347 76.505 36.2475 77.0493C36.3009 77.0431 36.3548 77.0546 36.401 77.082C37.5851 77.7854 38.6697 78.6441 39.6259 79.6354C39.8634 79.8815 39.4879 80.2575 39.2504 80.0109C38.3264 79.0517 37.2778 78.221 36.1327 77.541C36.099 77.5223 36.0702 77.4957 36.0487 77.4636C36.0273 77.4315 36.0138 77.3947 36.0094 77.3563C35.6609 77.7931 35.2531 78.1792 34.7979 78.5034C33.7463 79.2463 32.4429 79.5415 31.1739 79.3244C30.2449 79.1546 29.3781 78.7396 28.6633 78.1224C30.0186 79.8882 31.7612 81.3192 33.757 82.3051C34.0635 82.4561 33.7948 82.9141 33.4887 82.7636C31.1118 81.5854 29.0896 79.7983 27.6279 77.5843C26.9533 77.997 26.1519 78.1508 25.3725 78.0172C24.5534 77.8323 23.8306 77.3534 23.3408 76.6714C22.8511 75.9893 22.6284 75.1514 22.7149 74.3162C22.1436 74.5402 21.5121 74.5581 20.9291 74.3668C20.346 74.1755 19.8479 73.7871 19.5202 73.2682C19.2109 72.7376 19.026 72.1436 18.9795 71.5311C18.933 70.9186 19.0262 70.3036 19.252 69.7323ZM26.349 72.18C26.5634 74.7324 27.9093 77.607 30.4491 78.5724C30.9859 78.7809 31.5592 78.8792 32.1347 78.8614C32.7103 78.8436 33.2764 78.71 33.7993 78.4687C34.9 77.9114 35.7887 77.0101 36.3305 75.9017C36.966 74.6375 37.2736 73.2338 37.225 71.8196C37.2502 70.499 36.8527 69.2049 36.0905 68.1262C34.6907 66.3328 32.1267 66.0122 30.0298 66.4828C29.0211 66.6753 28.101 67.187 27.4054 67.9425C26.6979 68.8378 26.3157 69.9471 26.3218 71.0883C26.3108 71.4518 26.3202 71.8156 26.35 72.178L26.349 72.18ZM24.9225 73.2406C25.0015 73.5398 25.1701 73.8078 25.4057 74.0085C25.6414 74.2092 25.9327 74.3331 26.2407 74.3635C26.1367 74.0385 26.0508 73.708 25.9835 73.3734C25.9057 72.9791 25.8504 72.5807 25.8179 72.18C25.7993 71.9425 25.7923 71.7024 25.7903 71.4618C25.4571 71.6058 25.1865 71.8644 25.0275 72.1907C24.8686 72.517 24.8317 72.8894 24.9235 73.2406H24.9225Z" fill="black"/>
    <path d="M30.6494 74.9805C30.6892 74.9715 30.7308 74.9744 30.7689 74.9889C30.8071 75.0034 30.8401 75.0289 30.8639 75.0621C31.1545 75.4267 31.5275 75.7171 31.9522 75.9096C32.3769 76.1021 32.8413 76.1911 33.307 76.1694C33.6488 76.1533 33.6478 76.6848 33.307 76.7004C32.844 76.72 32.3817 76.6462 31.9477 76.4835C31.5137 76.3207 31.1168 76.0724 30.7808 75.7531C30.802 76.4909 31.0811 77.198 31.5695 77.7513C31.7397 77.9421 31.4588 78.225 31.2877 78.0327C30.9375 77.6398 30.6785 77.1743 30.5291 76.6697C30.3797 76.165 30.3436 75.6336 30.4234 75.1134C30.426 75.088 30.4346 75.0636 30.4483 75.0421C30.4621 75.0206 30.4808 75.0027 30.5028 74.9897C30.5248 74.9768 30.5495 74.9692 30.575 74.9676C30.6005 74.966 30.626 74.9704 30.6494 74.9805Z" fill="black"/>
    <path d="M61.3146 30.3915C61.0797 31.7186 60.8448 33.0459 60.6099 34.3733C60.5651 34.625 60.1816 34.5188 60.2259 34.2676C60.4608 32.9402 60.6956 31.6127 60.9305 30.2853C60.9748 30.0336 61.3563 30.1403 61.3146 30.3915Z" fill="#84D0AB"/>
    <path d="M59.9551 17.9241L59.7256 26.357C59.7187 26.405 59.6948 26.4489 59.6582 26.4807C59.6216 26.5124 59.5747 26.5299 59.5262 26.5299C59.4778 26.5299 59.4309 26.5124 59.3943 26.4807C59.3577 26.4489 59.3337 26.405 59.3269 26.357L59.5569 17.9241C59.5641 17.8765 59.5882 17.833 59.6247 17.8016C59.6612 17.7702 59.7078 17.7529 59.756 17.7529C59.8042 17.7529 59.8508 17.7702 59.8873 17.8016C59.9238 17.833 59.9479 17.8765 59.9551 17.9241Z" fill="#84D0AB"/>
    <path d="M58.2537 30.5704L57.7675 36.6607C57.7474 36.9124 57.3488 36.9169 57.3694 36.6607C57.5315 34.6313 57.6934 32.6012 57.8551 30.5704C57.8757 30.3167 58.2744 30.3147 58.2537 30.5704Z" fill="#84D0AB"/>
    <path d="M56.7684 21.6722C56.758 23.9362 56.7473 26.2003 56.7362 28.4647C56.729 28.5123 56.705 28.5558 56.6684 28.5872C56.6319 28.6186 56.5853 28.6359 56.5371 28.6359C56.489 28.6359 56.4424 28.6186 56.4059 28.5872C56.3693 28.5558 56.3453 28.5123 56.3381 28.4647C56.3485 26.2007 56.3592 23.9365 56.3703 21.6722C56.3775 21.6246 56.4015 21.5811 56.4381 21.5497C56.4746 21.5183 56.5212 21.501 56.5694 21.501C56.6175 21.501 56.6641 21.5183 56.7006 21.5497C56.7372 21.5811 56.7612 21.6246 56.7684 21.6722Z" fill="#84D0AB"/>
    <path d="M55.9541 9.96062C55.7695 12.7696 55.585 15.5785 55.4004 18.3874C55.3838 18.6421 54.9852 18.6441 55.0018 18.3874C55.187 15.5788 55.3716 12.7699 55.5554 9.96062C55.5726 9.70594 55.9707 9.70443 55.9541 9.96062Z" fill="#84D0AB"/>
    <path d="M53.8259 27.7613V35.7256C53.8191 35.7735 53.7952 35.8175 53.7585 35.8492C53.7219 35.881 53.6751 35.8985 53.6266 35.8985C53.5781 35.8985 53.5313 35.881 53.4947 35.8492C53.458 35.8175 53.4341 35.7735 53.4273 35.7256V27.7613C53.4341 27.7133 53.458 27.6694 53.4947 27.6376C53.5313 27.6059 53.5781 27.5884 53.6266 27.5884C53.6751 27.5884 53.7219 27.6059 53.7585 27.6376C53.7952 27.6694 53.8191 27.7133 53.8259 27.7613Z" fill="#84D0AB"/>
    <path d="M57.9564 16.0563L58.426 9.26125C58.4436 9.00959 58.8422 9.00506 58.8241 9.26125L58.3545 16.0563C58.3364 16.3079 57.9382 16.3109 57.9564 16.0563Z" fill="#84D0AB"/>
    <path d="M62.2694 5.27418L62.0354 12.7703C62.0273 13.026 61.6292 13.027 61.6367 12.7703L61.8708 5.27418C61.8788 5.01849 62.277 5.01748 62.2694 5.27418Z" fill="#84D0AB"/>
    <path d="M63.4819 16.5221C63.241 19.5666 62.9997 22.6112 62.7581 25.6561C62.7385 25.9077 62.3399 25.9123 62.36 25.6561L63.0833 16.5221C63.1034 16.2684 63.5021 16.2664 63.4819 16.5221Z" fill="#84D0AB"/>
    <path d="M58.1284 7.15042C58.3043 5.66927 58.4798 4.18796 58.6549 2.70649C58.6846 2.45482 59.0833 2.4518 59.0531 2.70649C58.8779 4.18763 58.7026 5.66894 58.5271 7.15042C58.4969 7.40158 58.0982 7.4046 58.1284 7.15042Z" fill="#84D0AB"/>
    <path d="M52.0446 4.8022L52.2314 9.48874C52.2414 9.74493 51.8433 9.74493 51.8328 9.48874L51.646 4.8022C51.636 4.5455 52.0341 4.546 52.0446 4.8022Z" fill="#84D0AB"/>
    <path d="M53.0513 17.2288L52.7271 24.0172C52.7151 24.2724 52.3164 24.2739 52.329 24.0172L52.6526 17.2288C52.6647 16.9731 53.0628 16.9721 53.0513 17.2288Z" fill="#84D0AB"/>
    <path d="M76.9888 141.47C78.8889 139.701 82.519 141.174 85.015 141.954C87.511 142.734 89.3894 143.382 91.6086 144.764C92.1623 145.107 92.7965 145.659 92.5891 146.274C92.3697 146.925 91.4637 146.937 90.7857 146.822L79.6323 144.935C78.7965 144.876 77.9968 144.571 77.3336 144.058C76.7316 143.487 76.3053 141.944 76.9888 141.47Z" fill="black"/>
    <path d="M37.297 128.034C37.4103 127.804 37.754 128.006 37.6413 128.235C37.3356 128.857 37.0464 129.485 36.7736 130.121C36.6729 130.356 36.3296 130.154 36.4293 129.92C36.7034 129.284 36.9927 128.656 37.297 128.034Z" fill="black"/>
    <path d="M35.3571 126.31C35.2434 127.58 35.0982 128.846 34.9217 130.109C34.8865 130.36 34.5025 130.254 34.5377 130.002C34.7088 128.775 34.8491 127.544 34.9585 126.31C34.9816 126.057 35.3798 126.054 35.3571 126.31Z" fill="black"/>
    <path d="M32.767 125.855L33.1279 130.1C33.15 130.356 32.7514 130.352 32.7298 130.1L32.3689 125.855C32.3472 125.6 32.7459 125.601 32.767 125.855Z" fill="black"/>
    <path d="M30.6958 125.904L31.8509 130.178C31.8568 130.226 31.8452 130.274 31.8183 130.314C31.7915 130.354 31.7511 130.383 31.7045 130.396C31.6579 130.409 31.6083 130.405 31.5647 130.384C31.5211 130.363 31.4864 130.328 31.4669 130.283L30.3117 126.01C30.3057 125.962 30.3171 125.914 30.344 125.873C30.3708 125.833 30.4112 125.804 30.4578 125.791C30.5045 125.778 30.5541 125.782 30.5978 125.803C30.6415 125.824 30.6763 125.86 30.6958 125.904Z" fill="black"/>
    <path d="M28.5989 126.667L29.985 130.17C30.0797 130.408 29.6941 130.512 29.601 130.276L28.2148 126.773C28.1207 126.535 28.5058 126.431 28.5989 126.667Z" fill="black"/>
    <path d="M27.1871 128.185L28.2043 130.171C28.3211 130.399 27.9773 130.601 27.8605 130.372C27.5213 129.71 27.1822 129.048 26.8433 128.386C26.727 128.158 27.0698 127.956 27.1871 128.185Z" fill="black"/>
    <path d="M24.0921 133.534C24.1898 133.301 24.5753 133.404 24.4767 133.64L23.8757 135.082C23.7785 135.315 23.3925 135.213 23.4911 134.976L24.0921 133.534Z" fill="black"/>
    <path d="M22.7788 132.943C22.7983 132.899 22.8331 132.863 22.8768 132.842C22.9204 132.821 22.9701 132.817 23.0168 132.83C23.0634 132.843 23.1038 132.872 23.1306 132.912C23.1574 132.953 23.1689 133.001 23.1629 133.049C22.976 133.746 22.789 134.443 22.6021 135.141C22.5827 135.185 22.5479 135.221 22.5042 135.241C22.4605 135.262 22.4108 135.266 22.3642 135.254C22.3176 135.241 22.2772 135.211 22.2503 135.171C22.2235 135.131 22.2121 135.082 22.2181 135.034C22.4053 134.336 22.5922 133.639 22.7788 132.943Z" fill="black"/>
    <path d="M21.4224 132.701V135.2C21.4152 135.248 21.3911 135.291 21.3546 135.323C21.3181 135.354 21.2715 135.371 21.2233 135.371C21.1751 135.371 21.1285 135.354 21.092 135.323C21.0555 135.291 21.0314 135.248 21.0242 135.2V132.701C21.0314 132.654 21.0555 132.61 21.092 132.579C21.1285 132.548 21.1751 132.53 21.2233 132.53C21.2715 132.53 21.3181 132.548 21.3546 132.579C21.3911 132.61 21.4152 132.654 21.4224 132.701Z" fill="black"/>
    <path d="M19.1871 132.326C19.3737 133.259 19.5602 134.192 19.7468 135.124C19.7971 135.375 19.4131 135.481 19.3628 135.229C19.1762 134.297 18.9896 133.365 18.8031 132.432C18.7527 132.18 19.1368 132.075 19.1871 132.326Z" fill="black"/>
    <path d="M17.0358 132.634L17.9801 135.043C18.0737 135.282 17.6887 135.385 17.596 135.149L16.6518 132.74C16.5597 132.501 16.9432 132.398 17.0358 132.634Z" fill="black"/>
    <path d="M14.7376 133.632L15.5933 135.011C15.7292 135.23 15.3849 135.43 15.2495 135.213L14.3938 133.834C14.2579 133.615 14.6027 133.414 14.7376 133.632Z" fill="black"/>
    <path d="M141.976 56.8937C142.099 56.6682 142.443 56.869 142.321 57.095L139.854 61.6416C139.732 61.8671 139.388 61.6663 139.51 61.4403C140.333 59.9249 141.155 58.4094 141.976 56.8937Z" fill="black"/>
    <path d="M137.471 57.5312C137.733 58.8842 137.995 60.2373 138.256 61.5906C138.306 61.8422 137.92 61.9484 137.872 61.6963C137.61 60.3433 137.349 58.9902 137.087 57.6369C137.039 57.3852 137.423 57.2795 137.471 57.5312Z" fill="black"/>
    <path d="M131.694 57.924L134.814 62.611C134.957 62.8249 134.613 63.0247 134.47 62.8123L131.349 58.1248C131.207 57.9109 131.552 57.711 131.694 57.924Z" fill="black"/>
    <path d="M10.3047 63.989C10.4175 63.6914 10.5916 63.4209 10.8156 63.1949C11.0397 62.9689 11.3087 62.7926 11.6053 62.6773C11.9259 62.6005 12.2624 62.6246 12.5687 62.7464C12.875 62.8681 13.1362 63.0815 13.3167 63.3573C13.7402 64.06 13.9436 64.8735 13.9005 65.6928C13.8564 66.1361 13.9456 66.5825 14.1567 66.9748C14.5297 67.4107 14.9837 66.7145 15.1463 66.4302C15.2215 66.2499 15.332 66.0865 15.4715 65.9497C15.611 65.8129 15.7764 65.7055 15.9582 65.6339C16.1104 65.582 16.2756 65.5817 16.428 65.633C16.5805 65.6843 16.7119 65.7844 16.8018 65.9178C16.8194 65.9484 16.8287 65.9831 16.8287 66.0184C16.8287 66.0538 16.8194 66.0885 16.8018 66.1191C15.6101 68.3096 14.9253 70.7397 14.798 73.2302C14.7854 73.4849 14.3868 73.4869 14.3999 73.2302C14.5281 70.7188 15.2081 68.2664 16.3915 66.0476C16.1902 65.8851 15.8499 66.104 15.7176 66.2711C15.5327 66.5903 15.326 66.8964 15.099 67.1872C14.9927 67.303 14.8594 67.3906 14.7109 67.442C14.5624 67.4935 14.4035 67.5073 14.2484 67.4821C14.1129 67.4415 13.9894 67.3683 13.8889 67.2689C13.7883 67.1694 13.7137 67.0469 13.6715 66.9119C13.5652 66.5727 13.5112 66.2193 13.5115 65.8639C13.503 65.4257 13.4652 64.9884 13.3982 64.5552C13.2744 63.9185 12.8888 63.1595 12.1837 63.0322C11.5354 62.9154 11.0487 63.4399 10.7648 63.9553C10.4549 64.5889 10.2509 65.269 10.1608 65.9686C9.60707 69.2 10.2961 72.5212 12.0896 75.2657C12.231 75.4806 11.8882 75.6804 11.7458 75.467C9.95972 72.7181 9.2416 69.4105 9.72691 66.1684C9.81615 65.4184 10.0107 64.6847 10.3047 63.989Z" fill="black"/>
    <path d="M10.1759 59.5524C10.3098 59.3339 10.6546 59.5342 10.5197 59.7537C8.96934 62.285 8.13825 65.1911 8.11575 68.1593C8.10919 68.9947 8.1686 69.8293 8.29343 70.6554C8.33118 70.907 7.94765 71.0142 7.90889 70.7616C7.45419 67.7431 7.83363 64.6578 9.00616 61.8395C9.33597 61.0478 9.72708 60.2831 10.1759 59.5524Z" fill="black"/>
    <path d="M6.18548 62.3732C6.20496 62.3289 6.23973 62.2931 6.28342 62.2724C6.32711 62.2516 6.37682 62.2473 6.42343 62.2602C6.47005 62.2731 6.51046 62.3023 6.53728 62.3426C6.56411 62.3828 6.57556 62.4314 6.56953 62.4794C5.701 65.5153 5.76607 68.7423 6.75626 71.7407C6.8368 71.9843 6.45426 72.089 6.37222 71.8464C5.36237 68.7787 5.29732 65.4783 6.18548 62.3732Z" fill="black"/>
    <path d="M17.8885 106.112C16.994 106.206 16.1261 106.472 15.3326 106.895C14.9636 107.087 14.4769 107.289 14.1049 106.999C13.9713 106.865 13.8803 106.695 13.8435 106.51C13.8067 106.325 13.8257 106.133 13.8981 105.959C14.1348 105.092 14.4777 104.257 14.9188 103.474C15.3199 102.708 15.931 102.072 16.6805 101.641C17.1134 101.411 17.7073 101.245 17.9212 100.755C18.1306 100.274 17.6132 99.9428 17.5523 99.4913C17.5306 99.4077 17.5275 99.3203 17.5432 99.2353C17.5589 99.1504 17.5929 99.0698 17.643 98.9994C17.693 98.929 17.7579 98.8703 17.833 98.8276C17.9081 98.7848 17.9916 98.759 18.0777 98.752C18.5242 98.752 18.8111 99.2759 19.0673 99.5714C20.5345 101.257 22.3979 102.552 24.4897 103.339C24.7278 103.428 24.6246 103.813 24.384 103.723C22.6353 103.069 21.0356 102.071 19.6798 100.787C19.3487 100.473 19.0337 100.142 18.7361 99.7954C18.5926 99.6283 18.4643 99.4405 18.3062 99.2875C18.2458 99.2291 18.1311 99.1164 18.036 99.1551C17.9408 99.1939 17.9353 99.3247 17.9418 99.4068C17.9849 99.598 18.0709 99.7768 18.1935 99.9297C18.3193 100.122 18.382 100.349 18.3727 100.578C18.3415 100.785 18.2637 100.981 18.1452 101.153C18.0267 101.325 17.8706 101.468 17.6887 101.57C17.2986 101.822 16.8526 101.964 16.4746 102.239C16.1339 102.494 15.8366 102.802 15.5943 103.153C15.1181 103.876 14.743 104.661 14.4794 105.486C14.3787 105.777 14.0767 106.353 14.3063 106.644C14.5791 106.984 15.2626 106.476 15.5409 106.347C16.3045 105.995 17.1239 105.779 17.962 105.709C19.8968 105.539 21.821 106.135 23.3204 107.37C23.5172 107.535 23.2339 107.815 23.0386 107.652C22.3233 107.07 21.5004 106.634 20.6167 106.37C19.733 106.105 18.806 106.018 17.8885 106.112Z" fill="black"/>
    <path d="M12.5758 113.526C13.1502 112.56 13.9608 111.755 14.9313 111.188C15.9018 110.62 17.0006 110.309 18.1245 110.282C18.7638 110.267 19.4016 110.351 20.0146 110.534C20.0593 110.553 20.0955 110.588 20.1166 110.632C20.1377 110.675 20.1422 110.725 20.1292 110.772C20.1163 110.819 20.0867 110.86 20.0461 110.887C20.0055 110.914 19.9566 110.925 19.9084 110.918C18.5966 110.555 17.2017 110.633 15.9388 111.141C14.6759 111.648 13.6151 112.558 12.92 113.728C12.89 113.766 12.847 113.793 12.7992 113.802C12.7513 113.811 12.7017 113.802 12.6596 113.778C12.6176 113.753 12.5859 113.714 12.5705 113.668C12.555 113.621 12.5569 113.571 12.5758 113.526Z" fill="black"/>
    <path d="M52.8465 143.5C52.9437 143.267 53.3297 143.369 53.2311 143.606L52.6301 145.047C52.5325 145.281 52.1469 145.178 52.2455 144.942L52.8465 143.5Z" fill="black"/>
    <path d="M51.5327 142.911C51.5519 142.867 51.5867 142.83 51.6306 142.809C51.6744 142.788 51.7244 142.784 51.7713 142.797C51.8182 142.81 51.8589 142.839 51.8857 142.88C51.9125 142.92 51.9237 142.969 51.9173 143.018C51.7307 143.715 51.5438 144.412 51.3566 145.109C51.3371 145.153 51.3024 145.189 51.2588 145.21C51.2151 145.23 51.1655 145.235 51.119 145.222C51.0724 145.209 51.032 145.18 51.0051 145.14C50.9783 145.1 50.9667 145.051 50.9726 145.003L51.5327 142.911Z" fill="black"/>
    <path d="M50.1768 142.67V145.169C50.1696 145.216 50.1455 145.26 50.109 145.291C50.0725 145.323 50.0259 145.34 49.9777 145.34C49.9295 145.34 49.8829 145.323 49.8464 145.291C49.8099 145.26 49.7858 145.216 49.7786 145.169V142.67C49.7858 142.623 49.8099 142.579 49.8464 142.548C49.8829 142.516 49.9295 142.499 49.9777 142.499C50.0259 142.499 50.0725 142.516 50.109 142.548C50.1455 142.579 50.1696 142.623 50.1768 142.67Z" fill="black"/>
    <path d="M47.9415 142.292C48.1277 143.224 48.3143 144.157 48.5012 145.089C48.5515 145.341 48.1675 145.447 48.1167 145.195C47.9304 144.263 47.744 143.33 47.5575 142.398C47.5071 142.149 47.8912 142.041 47.9415 142.292Z" fill="black"/>
    <path d="M45.7902 142.603L46.7345 145.01C46.8281 145.249 46.443 145.352 46.3504 145.116C46.0353 144.313 45.7204 143.51 45.4057 142.707C45.3125 142.47 45.6976 142.367 45.7902 142.603Z" fill="black"/>
    <path d="M43.4921 143.601L44.3477 144.98C44.4836 145.199 44.1394 145.399 44.004 145.181L43.1483 143.802C43.0124 143.583 43.3567 143.383 43.4921 143.601Z" fill="black"/>
    <path d="M109.756 138.52C109.853 138.287 110.239 138.389 110.14 138.626L109.539 140.068C109.442 140.301 109.056 140.198 109.155 139.962L109.756 138.52Z" fill="black"/>
    <path d="M108.443 137.93C108.462 137.886 108.497 137.85 108.54 137.83C108.584 137.809 108.634 137.804 108.68 137.817C108.727 137.83 108.767 137.859 108.794 137.899C108.821 137.939 108.832 137.988 108.827 138.036C108.64 138.733 108.453 139.43 108.266 140.127C108.246 140.171 108.212 140.207 108.168 140.228C108.124 140.248 108.075 140.253 108.028 140.24C107.982 140.227 107.941 140.198 107.914 140.158C107.888 140.118 107.876 140.069 107.882 140.021C108.069 139.325 108.256 138.627 108.443 137.93Z" fill="black"/>
    <path d="M107.086 137.688V140.187C107.079 140.234 107.055 140.278 107.018 140.309C106.982 140.341 106.935 140.358 106.887 140.358C106.839 140.358 106.792 140.341 106.756 140.309C106.719 140.278 106.695 140.234 106.688 140.187V137.688C106.695 137.641 106.719 137.597 106.756 137.566C106.792 137.534 106.839 137.517 106.887 137.517C106.935 137.517 106.982 137.534 107.018 137.566C107.055 137.597 107.079 137.641 107.086 137.688Z" fill="black"/>
    <path d="M104.851 137.309C105.037 138.242 105.224 139.174 105.411 140.107C105.461 140.358 105.077 140.464 105.027 140.213C104.84 139.28 104.653 138.348 104.467 137.415C104.417 137.167 104.801 137.058 104.851 137.309Z" fill="black"/>
    <path d="M102.7 137.621L103.644 140.03C103.738 140.269 103.352 140.372 103.26 140.136L102.316 137.727C102.222 137.488 102.607 137.385 102.7 137.621Z" fill="black"/>
    <path d="M100.401 138.618L101.257 139.997C101.393 140.215 101.049 140.416 100.913 140.198L100.058 138.819C99.9217 138.601 100.264 138.401 100.401 138.618Z" fill="black"/>
    <path d="M125.605 146.624C125.702 146.391 126.088 146.493 125.989 146.73L125.388 148.172C125.291 148.405 124.905 148.302 125.004 148.065L125.605 146.624Z" fill="black"/>
    <path d="M124.291 146.034C124.311 145.989 124.345 145.954 124.389 145.933C124.433 145.912 124.482 145.908 124.529 145.921C124.575 145.934 124.616 145.963 124.643 146.003C124.669 146.043 124.681 146.091 124.675 146.139L124.114 148.231C124.095 148.275 124.06 148.311 124.016 148.332C123.973 148.353 123.923 148.357 123.876 148.344C123.83 148.331 123.789 148.302 123.763 148.262C123.736 148.222 123.724 148.173 123.73 148.125C123.917 147.428 124.104 146.731 124.291 146.034Z" fill="black"/>
    <path d="M122.935 145.793V148.291C122.927 148.339 122.903 148.382 122.867 148.414C122.83 148.445 122.784 148.463 122.736 148.463C122.687 148.463 122.641 148.445 122.604 148.414C122.568 148.382 122.544 148.339 122.537 148.291V145.793C122.544 145.745 122.568 145.702 122.604 145.67C122.641 145.639 122.687 145.622 122.736 145.622C122.784 145.622 122.83 145.639 122.867 145.67C122.903 145.702 122.927 145.745 122.935 145.793Z" fill="black"/>
    <path d="M120.699 145.413C120.886 146.345 121.072 147.278 121.259 148.211C121.309 148.462 120.925 148.568 120.875 148.316C120.688 147.384 120.502 146.451 120.315 145.519C120.265 145.271 120.649 145.161 120.699 145.413Z" fill="black"/>
    <path d="M118.548 145.725L119.491 148.134C119.585 148.373 119.2 148.476 119.107 148.24C118.793 147.437 118.478 146.634 118.163 145.831C118.07 145.592 118.455 145.488 118.548 145.725Z" fill="black"/>
    <path d="M116.25 146.722L117.106 148.101C117.241 148.319 116.897 148.52 116.762 148.303L115.906 146.924C115.77 146.705 116.115 146.505 116.25 146.722Z" fill="black"/>
    <path d="M27.3576 145.832C27.4548 145.598 27.8403 145.701 27.7417 145.938L27.1407 147.379C27.0436 147.612 26.658 147.51 26.7567 147.273L27.3576 145.832Z" fill="black"/>
    <path d="M26.044 145.241C26.0635 145.197 26.0983 145.161 26.1419 145.141C26.1855 145.12 26.2351 145.115 26.2817 145.128C26.3282 145.141 26.3686 145.17 26.3955 145.21C26.4224 145.25 26.4339 145.299 26.4281 145.347L25.8679 147.438C25.8484 147.482 25.8137 147.518 25.77 147.539C25.7264 147.559 25.6768 147.564 25.6303 147.551C25.5837 147.538 25.5433 147.509 25.5164 147.469C25.4895 147.429 25.478 147.38 25.4838 147.332L26.044 145.241Z" fill="black"/>
    <path d="M24.688 144.999V147.498C24.6811 147.546 24.6572 147.59 24.6206 147.621C24.584 147.653 24.5371 147.671 24.4887 147.671C24.4402 147.671 24.3933 147.653 24.3567 147.621C24.3201 147.59 24.2962 147.546 24.2893 147.498V144.999C24.2962 144.951 24.3201 144.907 24.3567 144.875C24.3933 144.844 24.4402 144.826 24.4887 144.826C24.5371 144.826 24.584 144.844 24.6206 144.875C24.6572 144.907 24.6811 144.951 24.688 144.999Z" fill="black"/>
    <path d="M22.4522 144.622C22.6388 145.554 22.8254 146.487 23.0119 147.419C23.0623 147.671 22.6782 147.777 22.6279 147.525C22.4417 146.593 22.2551 145.66 22.0682 144.728C22.0184 144.478 22.4024 144.37 22.4522 144.622Z" fill="black"/>
    <path d="M20.301 144.933L21.2457 147.342C21.3393 147.58 20.9538 147.684 20.8612 147.447L19.9169 145.038C19.8233 144.8 20.2084 144.696 20.301 144.933Z" fill="black"/>
    <path d="M18.0032 145.93L18.8589 147.309C18.9948 147.527 18.65 147.728 18.5151 147.51L17.6594 146.131C17.5235 145.913 17.8683 145.712 18.0032 145.93Z" fill="black"/>
    <path d="M94.2426 51.6607C94.091 51.8519 93.9299 52.0353 93.7599 52.2103C92.8928 53.0539 91.8811 53.7347 90.7731 54.2201L83.9907 43.8726C84.9782 43.6526 85.9426 43.2882 86.913 42.9902C88.423 45.6896 90.5466 47.9833 92.6878 50.1975C93.1632 50.7288 93.6833 51.2184 94.2426 51.6607Z" fill="#84D0AB"/>
    <path d="M79.0777 22.2976C79.7854 21.0161 81.6321 20.7816 82.9644 21.3871C84.2967 21.9926 85.243 23.1951 86.1712 24.3266C87.0993 25.4581 88.1342 26.6127 89.5324 27.0521C92.0526 27.8459 96.7965 25.1329 99.7053 25.3518C99.9974 25.3304 100.291 25.3326 100.583 25.3584C102.943 25.5728 104.633 27.483 105.817 29.3654C107.199 31.5844 108.286 33.9734 109.053 36.4725C109.915 39.1009 110.34 41.8529 110.311 44.6189C110.279 47.1965 109.606 49.7256 108.353 51.9782C107.261 53.8667 105.438 55.95 103.077 56.0154C102.579 56.0306 102.083 55.9458 101.619 55.766C101.155 55.5861 100.731 55.315 100.374 54.9685C100.036 54.6371 99.7925 54.2214 99.669 53.7645C99.5372 53.119 99.5835 52.4498 99.8029 51.8287C100.009 51.1366 100.29 50.4651 100.545 49.7902L101.3 47.796C101.814 46.4376 102.327 45.0786 102.841 43.719C102.932 43.4784 102.547 43.3762 102.457 43.6133C101.832 45.3685 101.032 47.0565 100.07 48.6521C99.6365 49.3438 99.141 49.9947 98.5899 50.597C98.0663 51.2308 97.4091 51.741 96.6652 52.0909C96.2602 52.2434 95.8216 52.2838 95.3956 52.2079C94.9696 52.1319 94.572 51.9425 94.2446 51.6596C93.6854 51.2173 93.1652 50.7277 92.6898 50.1964C90.5486 47.9817 88.4246 45.6885 86.9151 42.9891C86.7726 42.7345 86.6282 42.4813 86.4973 42.2185C86.5242 42.2216 86.5514 42.2192 86.5774 42.2115C86.6033 42.2038 86.6275 42.191 86.6483 42.1737C87.1014 41.8123 87.5207 41.4105 87.9011 40.9733C89.0217 39.6103 89.9193 38.0785 90.5607 36.4347C89.7255 36.3821 88.9032 36.2018 88.1226 35.9002C83.4063 33.7565 80.7508 30.3635 79.1371 25.4399C78.7968 24.4151 78.5557 23.2419 79.0777 22.2976ZM101.975 39.2992C101.99 39.3187 102.009 39.3346 102.031 39.3458C102.053 39.357 102.077 39.3633 102.101 39.3641C102.216 40.5713 102.531 41.751 103.032 42.8553C103.139 43.0883 103.482 42.886 103.377 42.6539C102.489 40.6969 102.224 38.5147 102.616 36.402C102.663 36.1504 102.279 36.0447 102.232 36.2963C102.081 37.1031 102.023 37.9241 102.056 38.744C101.622 38.0837 101.435 37.2906 101.53 36.5057C101.56 36.251 101.161 36.254 101.132 36.5057C101.076 37.0042 101.122 37.5088 101.267 37.989C101.412 38.4691 101.653 38.9149 101.975 39.2992ZM97.2878 34.4209C97.4955 34.1085 97.7037 33.7961 97.9124 33.4837C98.0549 33.2698 97.7111 33.0705 97.5681 33.2824L96.9435 34.2191C96.8026 34.434 97.1478 34.6333 97.2898 34.4209H97.2878ZM95.8613 37.3719C96.0179 37.1706 95.6716 36.9693 95.517 37.1706L94.6966 38.2331C94.5401 38.4345 94.8864 38.6358 95.0409 38.4345C95.3157 38.0788 95.5899 37.7246 95.8633 37.3719H95.8613ZM92.9339 42.0857L93.5626 41.1515C93.7066 40.9376 93.3613 40.7387 93.2188 40.9501L92.5902 41.8843C92.4482 42.0977 92.7935 42.2971 92.936 42.0857H92.9339ZM91.0409 45.5083C91.2493 45.1959 91.4575 44.8835 91.6655 44.5711C91.8085 44.3572 91.4642 44.1579 91.3218 44.3698L90.6971 45.3065C90.5562 45.5214 90.902 45.7207 91.0429 45.5083H91.0409ZM90.8466 41.9508C91.4224 41.2995 91.9706 40.6252 92.491 39.9279C92.7054 39.6406 92.9143 39.3494 93.1177 39.0541C93.2717 38.8321 93.4197 38.6056 93.5671 38.3796C93.6094 38.3152 93.6532 38.2523 93.6945 38.1873C93.8767 37.9038 94.054 37.6169 94.2265 37.3266L94.2341 37.3146C95.267 35.5853 96.1297 33.7599 96.8101 31.864C96.8967 31.6219 96.5116 31.5187 96.4256 31.7583C96.1353 32.5696 95.811 33.3679 95.4526 34.1531C95.0937 34.9363 94.6976 35.7019 94.2753 36.4513C94.0166 36.9087 93.7465 37.3595 93.465 37.8038L93.4433 37.8385C93.1608 38.2825 92.8675 38.7187 92.5635 39.1472L92.5363 39.1839C92.2675 39.5609 91.9882 39.9299 91.7028 40.2943C91.6343 40.3819 91.5659 40.469 91.4964 40.5555C91.1944 40.933 90.8854 41.3055 90.5653 41.6679C90.3987 41.8602 90.6785 42.143 90.8486 41.9508H90.8466Z" fill="#FCAA2A"/>
    <path d="M117.992 79.553C118.609 79.6204 119.233 79.573 119.833 79.4131C119.679 80.4959 119.526 81.5789 119.372 82.6621C118.776 82.4875 118.19 82.2856 117.619 82.0667C116.43 81.6091 115.26 81.0821 114.085 80.5778C114.305 79.6497 114.505 78.7171 114.686 77.7803C115.522 78.7701 116.704 79.404 117.992 79.553Z" fill="black"/>
    <path d="M119.756 82.7692L120.251 79.2847C121.231 78.9192 122.089 78.2866 122.728 77.4585C123.367 76.6304 123.761 75.6398 123.866 74.5991C124.21 71.5379 122.137 68.7922 119.236 68.4665C118.067 68.3572 116.895 68.6363 115.901 69.2605C114.907 69.8847 114.147 70.8193 113.738 71.9194C113.728 71.9194 113.719 71.9164 113.71 71.9164C113.367 71.9148 113.036 72.0384 112.779 72.264C112.521 72.4896 112.355 72.8016 112.312 73.1412C112.269 73.4807 112.351 73.8244 112.543 74.1074C112.736 74.3905 113.025 74.5933 113.357 74.6777C113.455 75.6434 113.8 76.5679 114.357 77.3624C114.167 78.3866 113.951 79.4055 113.71 80.4192C112.517 79.896 111.289 79.4565 110.035 79.104C110.067 78.5674 110.106 78.0314 110.159 77.4963C110.312 75.7416 110.657 74.0089 111.186 72.3291C111.628 70.8224 112.415 69.4397 113.486 68.2914C114.587 67.1895 116.064 66.5442 117.621 66.4844C118.701 66.4297 119.78 66.5937 120.795 66.9667C121.809 67.3397 122.738 67.9139 123.526 68.6548C125.187 70.2609 126.127 72.4655 126.761 74.649C127.394 77.0797 127.774 79.569 127.897 82.0777C127.577 82.2791 127.243 82.4576 126.898 82.6117C124.668 83.5932 122.148 83.418 119.756 82.7692Z" fill="black"/>
    <path d="M125.587 97.3393C126.345 96.2662 127.579 95.6854 128.773 95.1025C128.785 95.2133 128.795 95.324 128.806 95.4352C128.853 97.1539 128.684 98.8717 128.303 100.548C128.153 100.954 127.967 101.346 127.749 101.719C127.195 102.625 126.394 103.354 125.44 103.821C125.092 103.995 124.731 104.141 124.36 104.258C124.434 103.248 124.508 102.238 124.581 101.228C124.68 99.8751 124.805 98.4472 125.587 97.3393Z" fill="black"/>
    <path d="M102.333 128.212C103.736 127.442 105.05 126.519 106.251 125.462C107.059 124.796 107.846 124.103 108.623 123.402C107.879 122.481 107.149 121.549 106.454 120.591C105.447 119.205 104.499 117.778 103.61 116.312C103.173 115.593 102.755 114.865 102.354 114.126L102.314 114.051V113.221C102.344 113.272 102.378 113.328 102.396 113.361C102.496 113.549 102.597 113.737 102.698 113.925C102.896 114.288 103.097 114.649 103.302 115.007C104.141 116.469 105.042 117.891 106.005 119.275C107.952 122.062 110.098 124.706 112.426 127.186C114.738 129.655 117.185 131.995 119.755 134.195C120.049 134.454 120.363 134.689 120.694 134.9C121.804 133.972 122.926 133.061 124.06 132.164C124.037 132.162 124.016 132.156 123.996 132.145C123.976 132.134 123.958 132.119 123.944 132.102C121.066 128.666 118.259 125.173 115.522 121.622C112.778 118.063 110.107 114.448 107.51 110.778C106.096 108.782 104.705 106.768 103.337 104.738L103.883 104.831C106.273 108.363 108.728 111.848 111.25 115.285C113.909 118.906 116.642 122.471 119.448 125.981C121.018 127.945 122.611 129.892 124.227 131.82C124.248 131.845 124.263 131.875 124.27 131.907C124.277 131.94 124.275 131.973 124.265 132.005C125.177 131.284 126.092 130.57 127.012 129.86C126.606 129.114 126.083 128.42 125.612 127.716C125.092 126.94 124.572 126.163 124.052 125.386L120.909 120.687L114.624 111.287L111.237 106.226L111.38 106.258C111.521 106.29 111.662 106.325 111.803 106.359L112.551 107.477L114.162 109.885C115.118 111.316 116.075 112.746 117.031 114.176C117.869 113.061 118.643 111.9 119.349 110.698C119.74 110.031 120.069 109.331 120.332 108.604C120.462 108.639 120.592 108.674 120.723 108.708C120.028 110.422 119.112 112.038 117.996 113.513C117.758 113.853 117.506 114.183 117.258 114.516L117.409 114.74L123.878 124.41L125.696 127.128L126.605 128.487C126.909 128.912 127.188 129.353 127.442 129.81C127.466 129.856 127.473 129.91 127.459 129.96C127.446 130.011 127.414 130.054 127.37 130.082C125.164 131.776 122.98 133.501 120.847 135.286C120.815 135.316 120.775 135.335 120.731 135.341C120.688 135.346 120.644 135.338 120.606 135.317C119.884 134.849 119.209 134.31 118.592 133.709C117.955 133.149 117.326 132.581 116.704 132.004C115.448 130.84 114.225 129.641 113.035 128.408C111.585 126.9 110.198 125.334 108.875 123.711C108.433 124.111 107.992 124.51 107.54 124.896C106.238 126.071 104.845 127.139 103.374 128.092C103.03 128.301 102.676 128.493 102.313 128.666V127.698C102.314 127.858 102.331 128.038 102.333 128.212Z" fill="#FF9052"/>
    <path d="M121.63 124.827L125.849 130.429C126.003 130.634 125.657 130.832 125.505 130.63L117.995 120.657L110.486 110.683L106.414 105.275C106.606 105.31 106.798 105.347 106.99 105.382L114.121 114.853L121.63 124.827Z" fill="#FF9052"/>
    <path d="M117.823 127.857C119.308 129.669 120.821 131.457 122.361 133.22C122.528 133.412 122.248 133.695 122.079 133.501C119.327 130.347 116.663 127.12 114.086 123.819C111.508 120.518 109.023 117.147 106.631 113.706C105.286 111.772 103.971 109.817 102.685 107.842C102.545 107.626 102.89 107.426 103.029 107.64C105.304 111.136 107.674 114.569 110.137 117.937C112.607 121.314 115.169 124.62 117.823 127.857Z" fill="#FF9052"/>
    <path d="M103.748 112.266C105.657 115.332 107.704 118.305 109.888 121.186C112.069 124.06 114.382 126.829 116.828 129.491C118.205 130.992 119.622 132.457 121.076 133.885C121.259 134.065 120.976 134.346 120.794 134.167C118.208 131.626 115.741 128.97 113.395 126.198C111.063 123.437 108.86 120.573 106.788 117.605C105.613 115.923 104.484 114.21 103.399 112.467C103.267 112.249 103.612 112.049 103.748 112.266Z" fill="#FF9052"/>
    <path d="M118.129 93.6316L118.793 89.771C118.884 90.1507 119.063 90.5037 119.316 90.8015C119.569 91.0993 119.888 91.3335 120.247 91.4854C121.153 91.8618 122.082 91.5427 122.899 91.0928C122.647 92.2689 122.395 93.445 122.144 94.6211C120.907 94.0326 119.567 93.6925 118.199 93.62C118.175 93.6194 118.151 93.6233 118.129 93.6316Z" fill="#DE9E55"/>
    <path d="M120.467 91.1463C120.133 91.0204 119.837 90.8108 119.607 90.5376C119.377 90.2644 119.221 89.9367 119.155 89.5859L122.971 90.5926C122.221 91.0461 121.34 91.4629 120.467 91.1463Z" fill="#DE9E55"/>
    <path d="M111.804 106.358C111.663 106.325 111.522 106.29 111.38 106.257L111.237 106.224C111.097 106.192 110.956 106.159 110.815 106.129C109.544 105.858 108.268 105.614 106.99 105.38C106.798 105.346 106.607 105.309 106.415 105.274C105.572 105.123 104.729 104.976 103.885 104.832L103.339 104.739L102.315 104.564V79.7436C104.268 78.7208 106.509 78.3875 108.675 78.7978C109.135 78.8773 109.588 78.9845 110.037 79.1043C111.291 79.4569 112.518 79.8964 113.711 80.4195C113.835 80.4699 113.96 80.5242 114.084 80.5776C115.259 81.0809 116.429 81.6089 117.618 82.0665C118.189 82.2854 118.776 82.4872 119.371 82.6619C119.498 82.6996 119.627 82.7344 119.755 82.7691C122.147 83.4179 124.667 83.5931 126.9 82.6116C127.245 82.4574 127.579 82.2789 127.899 82.0775C130.657 80.3662 132.275 77.1499 134.151 74.4082C134.514 73.8488 134.94 73.3334 135.422 72.8726C136.932 73.5495 138.442 74.2316 139.991 74.7983C140.002 74.8768 140.013 74.9559 140.021 75.0334C140.885 82.9795 136.407 91.2382 129.278 94.8516C129.111 94.9362 128.942 95.0192 128.775 95.1033C127.581 95.6862 126.347 96.267 125.589 97.3401C124.806 98.4474 124.683 99.8759 124.582 101.228C124.509 102.239 124.435 103.249 124.361 104.258L124.109 107.691C124.085 108.286 123.982 108.875 123.802 109.443C122.771 109.221 121.745 108.972 120.723 108.707C120.592 108.674 120.462 108.638 120.332 108.604C117.49 107.858 114.665 107.017 111.804 106.358ZM122.165 95.0711C122.195 95.0858 122.229 95.0929 122.262 95.092C122.296 95.091 122.328 95.082 122.358 95.0656C122.387 95.0493 122.412 95.0261 122.43 94.998C122.449 94.97 122.46 94.9379 122.464 94.9045C122.485 94.8804 122.5 94.851 122.506 94.8194L123.362 90.8214L123.37 90.8169C123.396 90.8011 123.419 90.7787 123.435 90.7519C123.451 90.725 123.459 90.6946 123.46 90.6634C123.493 90.6433 123.519 90.6142 123.536 90.5796C123.553 90.5451 123.559 90.5064 123.555 90.4683C123.55 90.4301 123.535 90.394 123.511 90.3643C123.486 90.3346 123.454 90.3124 123.417 90.3005C123.389 90.255 123.344 90.222 123.292 90.2081C123.24 90.1943 123.185 90.2007 123.138 90.226L119.061 89.1499C119.037 89.1298 119.009 89.1153 118.978 89.1073C118.948 89.0993 118.917 89.098 118.886 89.1036L118.728 89.0618C118.702 89.0544 118.674 89.0528 118.647 89.057C118.62 89.0612 118.594 89.0711 118.571 89.0862C118.549 89.1012 118.529 89.121 118.515 89.1441C118.5 89.1673 118.491 89.1932 118.487 89.2203C118.485 89.2257 118.483 89.2313 118.481 89.2369C118.221 90.7469 117.961 92.2569 117.701 93.7669C117.663 93.9869 117.953 94.0961 118.053 93.9512C118.071 93.972 118.093 93.989 118.117 94.0009C118.142 94.0127 118.169 94.0193 118.196 94.0201C119.578 94.0915 120.929 94.4494 122.165 95.0711Z" fill="#DE9E55"/>
    <path d="M118.056 93.9502C117.956 94.0951 117.665 93.9859 117.704 93.7659C117.964 92.2559 118.224 90.7459 118.484 89.236C118.486 89.2303 118.488 89.2248 118.49 89.2193C118.494 89.1923 118.503 89.1663 118.518 89.1431C118.532 89.12 118.552 89.1002 118.574 89.0852C118.597 89.0702 118.623 89.0602 118.65 89.056C118.677 89.0518 118.704 89.0534 118.731 89.0608L118.889 89.1026C118.92 89.097 118.951 89.0983 118.981 89.1063C119.011 89.1143 119.04 89.1289 119.063 89.1489L123.14 90.225C123.188 90.1997 123.243 90.1933 123.295 90.2072C123.347 90.221 123.392 90.254 123.42 90.2995C123.457 90.3114 123.489 90.3336 123.514 90.3633C123.538 90.393 123.553 90.4291 123.558 90.4673C123.562 90.5054 123.556 90.5441 123.539 90.5787C123.522 90.6132 123.496 90.6423 123.463 90.6624C123.462 90.6936 123.454 90.724 123.438 90.7509C123.422 90.7777 123.399 90.8001 123.373 90.8159L123.365 90.8204L122.509 94.8184C122.503 94.85 122.488 94.8794 122.467 94.9035C122.463 94.9369 122.452 94.9689 122.433 94.997C122.415 95.0251 122.39 95.0483 122.361 95.0646C122.331 95.081 122.299 95.09 122.265 95.091C122.232 95.0919 122.198 95.0847 122.168 95.0701C120.933 94.4484 119.583 94.0902 118.202 94.0181C118.175 94.0178 118.147 94.0116 118.122 93.9999C118.097 93.9882 118.074 93.9712 118.056 93.9502ZM119.155 89.5863C119.221 89.937 119.377 90.2647 119.607 90.5379C119.837 90.8111 120.133 91.0207 120.467 91.1466C121.34 91.4632 122.221 91.0459 122.971 90.5929L119.155 89.5863ZM122.899 91.0927C122.081 91.5427 121.155 91.8618 120.247 91.4853C119.888 91.3335 119.569 91.0993 119.316 90.8015C119.063 90.5037 118.884 90.1507 118.793 89.771L118.129 93.6315C118.151 93.6235 118.175 93.6197 118.199 93.6205C119.566 93.6931 120.906 94.033 122.142 94.6211C122.395 93.4453 122.647 92.2692 122.899 91.0927Z" fill="white"/>
    <path d="M39.2097 107.2C40.735 105.818 42.0521 104.222 43.1201 102.462V110.247C41.7329 109.344 40.4247 108.325 39.2097 107.2Z" fill="#FCAFB7"/>
    <path d="M15.9054 72.7588C16.7916 73.567 17.5813 74.4752 18.2584 75.4652C19.7493 77.6154 21.3791 79.7435 23.56 81.1876C25.741 82.6317 28.5894 83.3016 31.0205 82.3337C33.0252 81.5354 34.4769 79.7707 36.3347 78.6724C38.3134 77.5141 40.6588 77.1522 42.8946 77.6602C42.9711 77.6779 43.0456 77.702 43.1206 77.7247V101.689C43.1085 101.711 43.097 101.732 43.0844 101.752C42.6898 102.429 42.2633 103.085 41.8049 103.721C40.0203 106.31 37.5555 108.356 34.6822 109.635C31.9556 110.774 28.9044 110.869 26.1125 109.9C24.7456 109.417 23.5131 108.617 22.5166 107.564C21.5885 106.563 20.7419 104.89 21.3992 103.538C22.0616 102.172 23.7649 102.039 25.0932 101.902C26.5712 101.775 28.0141 101.381 29.3519 100.74C32.113 99.3188 34.3282 97.0265 35.6542 94.2184C37.0997 91.0495 37.7648 87.5803 37.5935 84.1014C37.5863 84.0538 37.5622 84.0103 37.5257 83.9789C37.4892 83.9475 37.4426 83.9302 37.3944 83.9302C37.3463 83.9302 37.2997 83.9475 37.2631 83.9789C37.2266 84.0103 37.2026 84.0538 37.1954 84.1014C37.2185 84.9752 37.2049 85.85 37.145 86.7223C36.9064 90.1766 35.9265 93.6647 33.8281 96.4633C33.4069 97.0234 32.9438 97.5507 32.4429 98.0407C31.4415 95.9551 30.6978 93.7553 30.2282 91.4898C26.1875 92.0938 22.0239 90.5048 18.9032 87.8694C15.7825 85.2339 13.5981 81.6431 11.9572 77.9033C11.8062 77.5571 11.6633 77.2037 11.5309 76.8489C10.5408 74.1802 14.0153 71.057 15.9054 72.7588ZM26.3943 103.838C26.2383 104.618 26.0821 105.399 25.9257 106.18C25.8754 106.432 26.2599 106.537 26.3103 106.286L26.7784 103.943C26.8277 103.692 26.4447 103.586 26.3943 103.838ZM32.616 108.24L30.7421 105.663C30.5911 105.458 30.2473 105.657 30.3983 105.865L32.2723 108.441C32.4202 108.646 32.767 108.448 32.616 108.24ZM37.5361 104.311L36.5798 101.037C36.5603 100.992 36.5256 100.957 36.4819 100.936C36.4383 100.915 36.3887 100.911 36.3422 100.924C36.2956 100.937 36.2552 100.966 36.2283 101.006C36.2015 101.046 36.1899 101.094 36.1957 101.142L37.1491 104.417C37.1677 104.463 37.2023 104.5 37.2465 104.521C37.2906 104.543 37.3412 104.548 37.3887 104.535C37.4362 104.522 37.4772 104.492 37.5041 104.451C37.531 104.41 37.5419 104.36 37.5346 104.311H37.5361ZM38.5931 96.9757L40.912 95.3031C41.1183 95.1546 40.9195 94.8093 40.7106 94.9593L38.3918 96.6314C38.1834 96.7804 38.3822 97.1257 38.5906 96.9757H38.5931ZM32.7227 85.4946C32.8791 85.807 33.0353 86.1194 33.1913 86.4318C33.3061 86.6613 33.6499 86.459 33.5356 86.2305C33.3793 85.9184 33.2231 85.6062 33.067 85.2938C32.9497 85.0633 32.606 85.2646 32.7202 85.4946H32.7227ZM26.2544 86.4937L28.5944 88.1336C28.8048 88.2811 29.0036 87.9353 28.7957 87.7893L26.4532 86.15C26.2423 86.0025 26.043 86.3478 26.2519 86.4937H26.2544ZM22.799 87.0776L23.5037 85.2037C23.5943 84.9626 23.2087 84.8599 23.1196 85.0975C22.8847 85.722 22.6499 86.3466 22.415 86.9714C22.3219 87.2125 22.7074 87.3152 22.7965 87.0766L22.799 87.0776ZM16.989 83.2825L19.331 83.0439C19.5827 83.0182 19.5862 82.6196 19.331 82.6458L16.989 82.8843C16.7338 82.91 16.7318 83.3086 16.9865 83.2825H16.989ZM15.0995 77.7141L15.3346 76.5428C15.3849 76.2912 15.0009 76.186 14.95 76.4371L14.715 77.6079C14.6621 77.8591 15.0467 77.9663 15.097 77.7146L15.0995 77.7141Z" fill="#FCAFB7"/>
    <path d="M43.121 89.553V73.1846C43.121 72.7034 43.1134 72.2222 43.121 71.741C43.1489 71.471 43.2618 71.2168 43.4436 71.0152C45.1801 68.3727 46.9165 65.7302 48.6526 63.0877L53.8616 55.1602L54.1576 54.7102L54.3292 54.4485V39.6299H60.8882V44.4649L69.3557 31.5796L72.5454 26.7254C72.5633 26.6959 72.5886 26.6716 72.6187 26.6547C72.6488 26.6378 72.6827 26.6289 72.7173 26.6289C72.7518 26.6289 72.7857 26.6378 72.8158 26.6547C72.8459 26.6716 72.8712 26.6959 72.8891 26.7254C74.0267 28.4562 75.164 30.187 76.3012 31.9178C78.9629 35.9693 81.6248 40.0206 84.2871 44.0718L93.4448 58.0086L100.451 68.6717C101.002 69.5106 101.553 70.3495 102.105 71.1884C102.273 71.4247 102.348 71.7151 102.314 72.0033V134.107C102.314 134.16 102.293 134.212 102.255 134.249C102.217 134.287 102.166 134.308 102.113 134.308H45.7132C44.9501 134.347 44.1856 134.347 43.4225 134.308C43.389 134.307 43.3554 134.307 43.3218 134.308C43.2684 134.308 43.2172 134.287 43.1795 134.249C43.1417 134.212 43.1205 134.16 43.1205 134.107V89.553H43.121ZM43.5191 72.3526V132.489C43.5441 132.961 43.5441 133.435 43.5191 133.908H101.22C101.451 133.888 101.682 133.883 101.913 133.894V73.1463C101.948 72.6437 101.95 72.1393 101.919 71.6363C101.912 71.6213 101.903 71.6071 101.893 71.5941C101.834 71.5176 101.785 71.43 101.732 71.3494C101.512 71.0139 101.292 70.6783 101.072 70.3428L95.0746 61.2153L86.0946 47.5483C83.2541 43.2264 80.414 38.9039 77.5742 34.5809L72.7678 27.2665L72.7175 27.186L65.1227 38.744L58.9086 48.2016L54.5014 54.9091C53.1984 56.8922 51.8954 58.8753 50.5925 60.8585C48.5983 63.8926 46.6044 66.9268 44.6109 69.9612L43.7773 71.2296C43.7119 71.3441 43.6394 71.4543 43.5604 71.5598C43.5396 71.5849 43.5227 71.6129 43.5101 71.6429C43.5012 71.8795 43.5042 72.1163 43.5191 72.3526Z" fill="black"/>
    <path d="M69.8003 48.3554C71.1079 47.8745 72.5322 47.8094 73.8782 48.169C75.2242 48.5286 76.4262 49.2954 77.3197 50.3644C78.2132 51.4334 78.7545 52.7524 78.8696 54.1409C78.9847 55.5293 78.6679 56.9195 77.9626 58.121C77.2573 59.3225 76.1979 60.2767 74.9295 60.853C73.6611 61.4294 72.2455 61.5997 70.8766 61.3406C69.5077 61.0815 68.2522 60.4058 67.2821 59.4058C66.312 58.4059 65.6745 57.1305 65.457 55.7544C65.4035 55.4056 65.3757 55.0533 65.374 54.7004C65.3838 53.3193 65.8121 51.9736 66.6023 50.8409C67.3925 49.7081 68.5075 48.8415 69.8003 48.3554Z" fill="black"/>
    <path d="M61.306 61.5663C61.8207 60.7393 62.4404 59.9825 63.1497 59.3149C65.2116 57.0872 67.4434 55.023 69.8249 53.141C71.6316 51.7505 73.6471 50.6549 75.7965 49.895C78.0786 51.7488 78.3635 54.9787 77.1817 57.6086C76.2228 57.7838 75.2886 58.6067 74.4571 59.1186C73.23 59.9244 72.1246 60.9017 71.1744 62.0208C70.254 63.1477 69.2457 64.1998 68.1589 65.1671C67.0548 66.1411 65.6409 66.6915 64.169 66.7204C62.7093 66.6756 61.2255 65.7641 60.8384 64.3643C60.6233 63.4064 60.7911 62.4023 61.306 61.5663Z" fill="#84D0AB"/>
    <path d="M61.3977 70.8091C58.5057 69.4141 55.4545 68.377 52.3115 67.7206C51.6385 67.6213 50.978 67.4509 50.341 67.2122C50.0741 67.1228 49.8491 66.939 49.7083 66.6953C49.5931 66.4536 49.543 66.1859 49.5631 65.9188C49.5831 65.6518 49.6725 65.3946 49.8225 65.1727C50.7285 63.8525 52.9251 63.6461 54.8186 63.8409C57.5391 64.1203 62.6973 66.9158 62.6973 66.9158L61.3977 70.8091Z" fill="black"/>
    <path d="M80.8273 102.038C81.1797 101.425 81.8883 101.079 82.4692 100.723C83.1396 100.311 83.8141 99.9052 84.5027 99.5236C85.8549 98.7385 87.3038 98.1331 88.8127 97.7227C89.1681 97.5799 89.5549 97.5332 89.9341 97.5873C90.0707 97.6337 90.1921 97.7164 90.2853 97.8265C90.3785 97.9366 90.44 98.07 90.4631 98.2124C90.4676 98.3725 90.4386 98.5317 90.378 98.6798C90.3173 98.828 90.2263 98.9618 90.1108 99.0726C90.0967 99.0913 90.0776 99.1054 90.0605 99.123C90.2228 99.0948 90.3884 99.0916 90.5517 99.1134C90.7728 99.1349 90.983 99.2196 91.1573 99.3573C91.3317 99.495 91.4627 99.6799 91.5347 99.8901C91.5815 100.107 91.5713 100.333 91.505 100.545C91.4388 100.757 91.3188 100.949 91.1567 101.101C91.023 101.228 90.8701 101.334 90.7037 101.415C90.9806 101.478 91.2262 101.637 91.3968 101.864C91.5396 102.061 91.6186 102.297 91.6231 102.54C91.6276 102.783 91.5574 103.021 91.422 103.223C91.0314 103.78 90.2975 103.948 89.6739 104.118L84.9929 105.395L83.5609 105.786C83.2649 105.864 82.9534 105.86 82.6592 105.775C82.365 105.691 82.0992 105.528 81.8899 105.305C81.6829 105.042 81.5095 104.755 81.3734 104.449C81.2099 104.14 81.0619 103.814 80.8792 103.515C80.7501 103.339 80.665 103.135 80.631 102.919C80.6026 102.612 80.6713 102.304 80.8273 102.038ZM81.2139 103.296C81.3422 103.501 81.4434 103.73 81.5567 103.944C81.6996 104.214 81.8375 104.488 81.9855 104.755C82.1223 105.012 82.3416 105.216 82.608 105.333C82.8745 105.451 83.1727 105.475 83.4547 105.403L86.7208 104.512C87.8242 104.21 88.931 103.921 90.0313 103.609C90.5522 103.461 91.3027 103.136 91.2252 102.475C91.1336 101.697 90.2391 101.711 89.6462 101.762C89.4212 101.782 89.3774 101.423 89.5934 101.371C90.2079 101.22 91.3112 100.918 91.1678 100.058C91.1206 99.8913 91.0191 99.7455 90.8794 99.6436C90.7398 99.5416 90.57 99.4893 90.3972 99.4949C89.9779 99.5122 89.5694 99.6333 89.2083 99.8473C88.9798 99.957 88.782 99.6339 89.007 99.5035C89.2712 99.3521 89.5091 99.1591 89.7117 98.9317C89.8672 98.757 90.1425 98.4686 90.0569 98.2104C89.9563 97.9029 89.6543 97.9437 89.4026 97.995C89.0785 98.0621 88.7575 98.1421 88.4397 98.2351C87.1785 98.6258 85.9634 99.1522 84.8157 99.805C84.2238 100.13 83.6425 100.473 83.0656 100.824C82.4957 101.12 81.9583 101.474 81.462 101.881C81.2557 102.062 81.1098 102.301 81.0443 102.567C81.0176 102.694 81.019 102.825 81.0483 102.951C81.0776 103.077 81.1341 103.195 81.2139 103.297V103.296Z" fill="black"/>
    <path d="M74.7038 86.5732C74.7571 86.3216 75.1412 86.4288 75.0878 86.6794C74.7226 88.401 74.0026 90.0276 72.9738 91.4555C72.8228 91.6619 72.4795 91.4631 72.6295 91.2542C73.6395 89.8554 74.346 88.261 74.7038 86.5732Z" fill="black"/>
    <path d="M64.8081 92.9502C66.5278 88.9463 67.1959 84.5695 66.749 80.235C66.7475 80.2141 66.7496 80.1932 66.755 80.173C66.5293 80.179 66.3046 80.1397 66.0942 80.0576C65.8838 79.9755 65.692 79.8522 65.5299 79.6949C65.3282 79.4722 65.1772 79.2084 65.0872 78.9217C64.9972 78.635 64.9704 78.3322 65.0087 78.0342C65.047 77.7362 65.1494 77.45 65.3089 77.1953C65.4684 76.9407 65.6812 76.7236 65.9326 76.5591C66.0274 76.4983 66.1264 76.4444 66.229 76.398C66.1733 76.2551 66.1471 76.1024 66.152 75.9491L66.14 74.3711C66.1115 73.7778 66.1554 73.1831 66.2708 72.6004C66.3901 72.0129 66.72 71.4893 67.1985 71.1281C67.8078 70.8106 68.476 70.6221 69.1615 70.5745C69.3271 70.5433 69.5339 70.4507 69.5138 70.283C69.5032 70.2 69.4348 70.1351 69.4131 70.054C69.3628 69.8723 69.5485 69.7173 69.7151 69.6272C71.002 68.9362 72.4971 68.7393 73.919 69.0735C74.3582 69.2443 74.8382 69.2805 75.2981 69.1777C75.639 68.9934 75.9385 68.7411 76.1779 68.4363C76.9514 67.7899 77.9452 67.4683 78.9508 67.5389C82.7595 67.5031 82.301 70.2679 82.3735 71.0662C82.406 71.8691 82.2959 72.6715 82.0483 73.4359C81.9662 73.9253 81.724 74.3735 81.3597 74.7104C81.3351 74.7285 81.3064 74.7365 81.2812 74.7522C81.3713 75.8595 81.5107 76.9668 81.627 78.0701C81.8618 79.5601 81.8489 81.0786 81.5888 82.5644C81.4517 83.216 81.1647 83.8267 80.7505 84.348C80.3362 84.8694 79.8062 85.287 79.2025 85.5678C77.2067 86.4934 74.8466 86.3228 72.718 86.1511C72.0073 86.1238 71.3057 85.981 70.6408 85.7283C70.0366 85.4609 69.5135 85.0391 69.1242 84.5052C68.6948 83.9173 68.3902 83.2477 68.2293 82.5377C68.0568 82.2104 67.9835 81.8399 68.0184 81.4716V81.1958C67.9942 80.9155 67.9771 80.6351 67.9706 80.3573C67.965 80.1408 67.9706 79.9244 67.9706 79.708C67.7312 79.9288 67.4348 80.078 67.1149 80.1388C67.1337 80.1664 67.1452 80.1982 67.1486 80.2314C67.6009 84.6366 66.9139 89.0841 65.1534 93.1475C65.0508 93.386 64.7075 93.1832 64.8081 92.9502ZM68.9994 83.5378C69.2774 84.1404 69.7035 84.6627 70.2381 85.0559C70.8299 85.4329 71.5063 85.6565 72.2061 85.7067C73.4801 85.8651 74.7651 85.9156 76.0476 85.8577C76.9596 85.8281 77.8613 85.6556 78.7198 85.3463C79.3112 85.1295 79.8414 84.7727 80.265 84.3064C80.6885 83.8401 80.9928 83.2781 81.1519 82.6686C81.4427 81.2807 81.4814 79.8517 81.2661 78.4501C81.1514 77.2728 80.9933 76.0986 80.8916 74.9198C80.583 74.9902 80.2652 75.0114 79.9499 74.9827C78.8271 74.9087 77.7206 74.6751 76.6636 74.2891C76.4403 74.1906 76.2022 74.1299 75.959 74.1094C75.8368 74.101 75.7147 74.1264 75.606 74.183C75.4974 74.2396 75.4065 74.3251 75.3434 74.43C75.2943 74.578 75.2565 74.7294 75.2302 74.883C75.0751 75.3718 74.4681 75.5328 73.9562 75.557C72.8282 75.6081 71.7054 75.3748 70.6911 74.8785C70.6474 74.8488 70.5979 74.8286 70.5459 74.8191C70.4939 74.8097 70.4405 74.8112 70.3891 74.8236C70.3127 74.8676 70.2568 74.94 70.2336 75.025C70.1169 75.4148 70.0455 75.8167 70.0207 76.2229C70.004 76.3431 69.9812 76.4624 69.9522 76.5803C69.9492 78.4365 69.946 80.2928 69.9426 82.1491C69.9597 82.2754 69.9484 82.4039 69.9098 82.5253C69.8711 82.6467 69.806 82.7581 69.7192 82.8513C69.5805 82.9462 69.4199 83.0042 69.2526 83.0199C69.0853 83.0356 68.9167 83.0084 68.7628 82.9409C68.8294 83.1448 68.9084 83.3445 68.9994 83.5388V83.5378ZM67.9968 79.0078C68.0048 78.9893 68.0158 78.9723 68.0295 78.9575C68.0335 78.1837 68.0372 77.4097 68.0405 76.6356C68.0198 76.6476 67.9969 76.6554 67.9731 76.6585C67.9494 76.6616 67.9253 76.66 67.9021 76.6537C66.6267 76.2783 65.1091 77.2104 65.4207 78.6535C65.4689 78.9397 65.6073 79.203 65.8157 79.4051C66.0241 79.6071 66.2916 79.7373 66.5792 79.7766C66.8668 79.8159 67.1594 79.7624 67.4144 79.6237C67.6694 79.4851 67.8734 79.2686 67.9968 79.0058V79.0078Z" fill="black"/>
    <path d="M85.3623 99.0832C82.9757 100.072 80.3683 100.407 77.8093 100.053C77.5723 97.193 76.7342 94.4157 75.35 91.9022C76.3065 92.5985 77.376 93.1247 78.5114 93.4575C80.3864 93.9434 82.3073 94.2302 84.2424 94.3132C84.6153 94.3429 84.9928 94.3756 85.3623 94.437V91.7125C85.3623 91.6505 85.3583 91.5846 85.3567 91.5182H75.1134C75.0268 91.3838 74.9398 91.2499 74.8487 91.12H82.369C83.4159 91.12 84.4709 91.0818 85.5173 91.12C85.5319 91.12 85.547 91.12 85.5616 91.12C85.615 91.12 85.6662 91.1412 85.704 91.179C85.7417 91.2168 85.7629 91.268 85.7629 91.3214V99.0923C85.6291 99.1577 85.4972 99.2287 85.3643 99.2972L85.3623 99.0832Z" fill="black"/>
    <path d="M59.8383 116.849C59.8383 116.91 59.8423 116.976 59.8443 117.042H72.5621C72.3263 116.724 72.1168 116.388 71.9354 116.036C72.6028 115.831 73.2378 115.533 73.8214 115.15C75.7255 113.863 76.6904 111.684 77.2441 109.524C80.0104 109.785 82.7356 110.377 85.3613 111.286V105.089L85.76 104.981V114.049C85.76 115.096 85.7982 116.151 85.76 117.197C85.76 117.212 85.76 117.227 85.76 117.242C85.7593 117.295 85.7378 117.345 85.7001 117.382C85.6624 117.42 85.6116 117.44 85.5586 117.44H62.8286C61.7817 117.44 60.7267 117.479 59.6803 117.44C59.6657 117.44 59.6506 117.44 59.636 117.44C59.583 117.44 59.5322 117.42 59.4945 117.382C59.4568 117.345 59.4353 117.295 59.4346 117.242V116.125C59.5648 116.177 59.6977 116.225 59.8333 116.271L59.8383 116.849Z" fill="black"/>
    <path d="M66.3539 102.633C66.4571 102.636 66.5549 102.68 66.6266 102.754C66.6983 102.829 66.7384 102.928 66.7384 103.031C66.7384 103.134 66.6983 103.234 66.6266 103.308C66.5549 103.382 66.4571 103.426 66.3539 103.43C66.2507 103.426 66.1529 103.382 66.0812 103.308C66.0095 103.234 65.9694 103.134 65.9694 103.031C65.9694 102.928 66.0095 102.829 66.0812 102.754C66.1529 102.68 66.2507 102.636 66.3539 102.633Z" fill="white"/>
    <path d="M69.1646 99.8223C69.2678 99.8259 69.3656 99.8695 69.4373 99.9438C69.509 100.018 69.5491 100.117 69.5491 100.221C69.5491 100.324 69.509 100.423 69.4373 100.498C69.3656 100.572 69.2678 100.615 69.1646 100.619C69.0614 100.615 68.9636 100.572 68.8919 100.498C68.8202 100.423 68.7801 100.324 68.7801 100.221C68.7801 100.117 68.8202 100.018 68.8919 99.9438C68.9636 99.8695 69.0614 99.8259 69.1646 99.8223Z" fill="white"/>
    <path d="M77.8812 105.59C77.8404 105.606 77.7971 105.615 77.7534 105.616C77.6501 105.612 77.5524 105.569 77.4807 105.495C77.409 105.42 77.3689 105.321 77.3689 105.218C77.3689 105.114 77.409 105.015 77.4807 104.941C77.5524 104.867 77.6501 104.823 77.7534 104.819C77.8146 104.819 77.8751 104.833 77.93 104.86C77.9966 104.897 78.0511 104.953 78.0874 105.02C78.1236 105.088 78.1402 105.164 78.1351 105.24C78.13 105.316 78.1034 105.39 78.0585 105.452C78.0136 105.513 77.9522 105.561 77.8812 105.59Z" fill="white"/>
    <path d="M71.6636 107.005C71.7668 107.009 71.8646 107.053 71.9363 107.127C72.008 107.201 72.0481 107.3 72.0481 107.404C72.0481 107.507 72.008 107.606 71.9363 107.681C71.8646 107.755 71.7668 107.798 71.6636 107.802C71.5604 107.798 71.4627 107.755 71.3909 107.681C71.3192 107.606 71.2791 107.507 71.2791 107.404C71.2791 107.3 71.3192 107.201 71.3909 107.127C71.4627 107.053 71.5604 107.009 71.6636 107.005Z" fill="white"/>
    <path d="M69.007 103.57C69.1102 103.573 69.208 103.617 69.2797 103.691C69.3514 103.766 69.3915 103.865 69.3915 103.968C69.3915 104.071 69.3514 104.171 69.2797 104.245C69.208 104.319 69.1102 104.363 69.007 104.367C68.9038 104.363 68.8061 104.319 68.7343 104.245C68.6626 104.171 68.6226 104.071 68.6226 103.968C68.6226 103.865 68.6626 103.766 68.7343 103.691C68.8061 103.617 68.9038 103.573 69.007 103.57Z" fill="white"/>
    <path d="M54.7305 102.714C54.8367 98.8341 55.872 94.9322 58.0837 91.9167C60.2953 88.9013 63.7608 86.8718 67.3611 86.9967C68.8505 87.0225 70.3111 87.4117 71.616 88.1302C72.9209 88.8488 74.0306 89.8751 74.8487 91.12C74.9398 91.2498 75.0269 91.3837 75.1134 91.5181C75.1945 91.6444 75.2725 91.7728 75.35 91.9022C76.7343 94.4156 77.5723 97.193 77.8093 100.053C77.8486 100.423 77.8818 100.793 77.9069 101.162C76.0408 101.864 74.2606 102.776 72.6008 103.88C72.5596 103.109 72.4714 102.341 72.3366 101.58C71.7555 98.4455 70.4174 95.5006 68.4387 93.0014C68.4218 92.9804 68.4005 92.9633 68.3763 92.9511C68.3698 92.9487 68.3631 92.9469 68.3562 92.9456C68.3412 92.9397 68.3254 92.9363 68.3094 92.9355C68.3 92.9363 68.2907 92.9382 68.2817 92.941C68.2695 92.9424 68.2575 92.9453 68.246 92.9496C68.2326 92.9563 68.2199 92.9644 68.2082 92.9737C68.2025 92.9773 68.1969 92.9812 68.1916 92.9853C68.1756 93.0002 68.1615 93.0171 68.1498 93.0357C68.1291 93.067 68.1171 93.1034 68.1153 93.1409C68.1134 93.1785 68.1217 93.2158 68.1393 93.2491C68.1442 93.2615 68.1503 93.2735 68.1574 93.2848C68.7105 93.9871 69.2139 94.7271 69.6639 95.4995C71.2166 98.154 72.097 101.148 72.2283 104.22C72.229 104.255 72.2386 104.289 72.2563 104.319C72.274 104.349 72.2992 104.374 72.3293 104.391C72.3595 104.408 72.3936 104.418 72.4284 104.418C72.4632 104.418 72.4975 104.409 72.5278 104.392C72.8802 104.174 73.2295 103.956 73.5823 103.742C74.9521 102.871 76.4106 102.148 77.9331 101.586C79.6034 100.953 81.4203 100.813 83.1678 101.183C83.8725 101.287 84.5319 101.593 85.0664 102.064C85.1818 102.19 85.2816 102.329 85.3633 102.479C85.5515 102.807 85.6533 103.178 85.6593 103.556C85.6607 103.943 85.5585 104.324 85.3633 104.658C85.2829 104.802 85.1855 104.935 85.0734 105.056C84.8044 105.316 84.5139 105.554 84.2052 105.766C83.8981 105.994 83.5842 106.213 83.2634 106.423C81.454 107.598 79.4648 108.47 77.3744 109.004C77.0221 109.095 76.6637 109.174 76.3058 109.248C75.6696 109.379 75.027 109.478 74.3806 109.544C74.0831 109.573 73.7821 109.591 73.4811 109.608C72.1898 109.695 70.8927 109.63 69.6166 109.414C68.7957 109.288 68.007 109.005 67.2937 108.58C66.6385 108.141 66.0852 107.567 65.6709 106.896C64.7734 105.45 64.0568 103.9 63.5373 102.279C62.9711 100.629 62.5728 98.9259 62.3484 97.1957C62.3428 97.1587 62.3273 97.124 62.3036 97.095C62.2789 97.0643 62.2466 97.0406 62.2098 97.0262C62.1731 97.0118 62.1333 97.0073 62.0942 97.013C62.0854 97.0138 62.0767 97.0152 62.0681 97.017C62.0582 97.0198 62.0486 97.0235 62.0394 97.0281C62.0281 97.0331 62.0175 97.0393 62.0077 97.0467C62.001 97.0515 61.9948 97.0569 61.989 97.0628C61.9793 97.0741 61.9713 97.0868 61.9654 97.1006C61.9624 97.1071 61.9588 97.1122 61.9563 97.1192C61.949 97.1445 61.947 97.1711 61.9503 97.1972C62.0072 97.6366 62.0726 98.0745 62.1516 98.5109C62.4774 100.333 62.9952 102.115 63.6963 103.827C64.0301 104.65 64.4066 105.455 64.8243 106.239C65.1955 106.973 65.6733 107.647 66.2422 108.241C67.4749 109.466 69.2003 109.831 70.8729 109.972C71.5351 110.023 72.1996 110.04 72.8635 110.022C73.8691 110.003 74.8719 109.909 75.8634 109.741C76.2545 109.673 76.6421 109.59 77.0281 109.498C77.1006 109.505 77.1726 109.512 77.2451 109.52C76.6884 111.68 75.7255 113.859 73.8224 115.146C73.2388 115.529 72.6038 115.827 71.9364 116.031C70.4744 116.44 68.9689 116.674 67.4517 116.729C65.5039 116.942 63.5381 116.931 61.5929 116.695C60.9976 116.602 60.4111 116.459 59.8393 116.269C59.7051 116.223 59.5722 116.175 59.4407 116.123C58.6062 115.838 57.8558 115.35 57.2571 114.703C56.6584 114.056 56.2301 113.27 56.011 112.415C55.127 109.258 54.6959 105.992 54.7305 102.714ZM73.0689 99.3696C73.1721 99.3659 73.2699 99.3224 73.3416 99.248C73.4133 99.1737 73.4534 99.0745 73.4534 98.9712C73.4534 98.8679 73.4133 98.7687 73.3416 98.6944C73.2699 98.6201 73.1721 98.5765 73.0689 98.5728C72.9657 98.5765 72.8679 98.6201 72.7962 98.6944C72.7245 98.7687 72.6844 98.8679 72.6844 98.9712C72.6844 99.0745 72.7245 99.1737 72.7962 99.248C72.8679 99.3224 72.9657 99.3659 73.0689 99.3696ZM71.6636 92.4981C71.7668 92.4944 71.8646 92.4509 71.9363 92.3765C72.008 92.3022 72.0481 92.203 72.0481 92.0997C72.0481 91.9964 72.008 91.8972 71.9363 91.8229C71.8646 91.7486 71.7668 91.705 71.6636 91.7013C71.5604 91.705 71.4626 91.7486 71.3909 91.8229C71.3192 91.8972 71.2791 91.9964 71.2791 92.0997C71.2791 92.203 71.3192 92.3022 71.3909 92.3765C71.4626 92.4509 71.5604 92.4944 71.6636 92.4981ZM64.0129 96.2459C64.082 96.2448 64.1495 96.2255 64.2088 96.19C64.268 96.1546 64.3169 96.1042 64.3505 96.0439C64.3842 95.9836 64.4014 95.9155 64.4004 95.8464C64.3995 95.7774 64.3804 95.7098 64.3451 95.6505C64.3375 95.6353 64.3291 95.6205 64.32 95.6062C64.3068 95.5881 64.292 95.5712 64.2757 95.5558C64.2423 95.5268 64.2054 95.5019 64.166 95.4819C64.1181 95.4618 64.0668 95.4512 64.015 95.4506C63.962 95.4508 63.9096 95.4616 63.8609 95.4824C63.8481 95.4882 63.8356 95.4949 63.8237 95.5025C63.7948 95.5178 63.7685 95.5375 63.7457 95.5609C63.7126 95.5922 63.6872 95.6305 63.6712 95.6731C63.6651 95.6872 63.6571 95.6998 63.6521 95.7144C63.6417 95.7501 63.6357 95.787 63.6344 95.8241C63.6332 95.8579 63.6359 95.8917 63.6425 95.9248C63.6425 95.9344 63.6425 95.9434 63.647 95.953C63.6548 95.9846 63.6663 96.0152 63.6812 96.0441L63.6918 96.0622C63.7229 96.1194 63.7693 96.1668 63.8257 96.1992C63.8821 96.2316 63.9464 96.2478 64.0114 96.2459H64.0129ZM62.9167 92.03C62.9782 92.03 63.0389 92.0153 63.0936 91.9872C63.1484 91.9591 63.1956 91.9183 63.2315 91.8682C63.2673 91.8182 63.2907 91.7603 63.2996 91.6994C63.3086 91.6385 63.303 91.5764 63.2831 91.5181C63.2628 91.4363 63.2157 91.3635 63.1493 91.3116C63.0829 91.2596 63.001 91.2314 62.9167 91.2314C62.8324 91.2314 62.7505 91.2596 62.684 91.3116C62.6176 91.3635 62.5705 91.4363 62.5503 91.5181C62.5304 91.5764 62.5247 91.6385 62.5337 91.6994C62.5427 91.7603 62.5661 91.8182 62.6019 91.8682C62.6377 91.9183 62.685 91.9591 62.7397 91.9872C62.7945 92.0153 62.8551 92.03 62.9167 92.03ZM60.5742 107.021C60.6774 107.018 60.7751 106.974 60.8469 106.9C60.9186 106.825 60.9586 106.726 60.9586 106.623C60.9586 106.52 60.9186 106.42 60.8469 106.346C60.7751 106.272 60.6774 106.228 60.5742 106.225C60.471 106.228 60.3733 106.272 60.3017 106.347C60.2301 106.421 60.1902 106.52 60.1904 106.624C60.1906 106.727 60.2309 106.826 60.3028 106.9C60.3746 106.974 60.4725 107.018 60.5757 107.021H60.5742ZM59.4382 101.703C59.4524 101.707 59.4669 101.71 59.4814 101.712C59.5588 101.715 59.6352 101.693 59.6992 101.649C59.7632 101.606 59.8114 101.543 59.8368 101.47C59.8735 101.369 59.8735 101.258 59.8368 101.157C59.8114 101.084 59.7631 101.021 59.6992 100.977C59.6352 100.934 59.5588 100.912 59.4814 100.915C59.4668 100.917 59.4524 100.92 59.4382 100.924C59.3445 100.938 59.2589 100.985 59.197 101.056C59.1352 101.128 59.1013 101.219 59.1014 101.314C59.1016 101.409 59.1359 101.5 59.198 101.572C59.2602 101.643 59.3459 101.69 59.4397 101.703H59.4382ZM58.3882 94.0599C58.4914 94.0563 58.5892 94.0127 58.6609 93.9384C58.7326 93.8641 58.7727 93.7648 58.7727 93.6616C58.7727 93.5583 58.7326 93.459 58.6609 93.3847C58.5892 93.3104 58.4914 93.2668 58.3882 93.2632C58.285 93.267 58.1873 93.3108 58.1157 93.3852C58.0442 93.4597 58.0043 93.559 58.0045 93.6623C58.0047 93.7656 58.0449 93.8647 58.1168 93.9389C58.1886 94.0131 58.2865 94.0565 58.3897 94.0599H58.3882ZM57.451 109.832C57.5567 109.832 57.6581 109.79 57.7329 109.716C57.8076 109.641 57.8496 109.539 57.8496 109.434C57.8496 109.328 57.8076 109.227 57.7329 109.152C57.6581 109.077 57.5567 109.035 57.451 109.035C57.3453 109.035 57.2439 109.078 57.1693 109.152C57.0947 109.227 57.0529 109.329 57.0531 109.435C57.0533 109.54 57.0955 109.642 57.1704 109.716C57.2453 109.791 57.3468 109.833 57.4525 109.832H57.451ZM56.9829 102.649C57.0861 102.645 57.1839 102.602 57.2556 102.527C57.3273 102.453 57.3674 102.354 57.3674 102.25C57.3674 102.147 57.3273 102.048 57.2556 101.974C57.1839 101.899 57.0861 101.856 56.9829 101.852C56.8797 101.856 56.782 101.9 56.7104 101.974C56.6388 102.049 56.599 102.148 56.5991 102.251C56.5993 102.354 56.6396 102.454 56.7115 102.528C56.7833 102.602 56.8812 102.645 56.9844 102.649H56.9829Z" fill="#FEE253"/>
    <path d="M78.4737 114.732C81.154 116.032 83.5337 118.158 84.3688 120.88C85.0422 123.076 84.6607 125.416 84.2032 127.651C83.6807 130.205 83.0656 132.742 82.4511 135.278C82.2656 136.313 81.8901 137.305 81.3437 138.203C81.048 138.661 80.6411 139.036 80.1611 139.294C79.681 139.552 79.1435 139.684 78.5986 139.678C76.6356 139.546 75.6732 137.363 75.338 135.535C74.6208 131.624 74.7019 127.608 75.5765 123.73C70.7165 123.362 65.9759 122.044 61.6236 119.85C59.6546 118.853 57.594 117.406 57.3408 115.32C57.0509 112.931 59.4447 110.876 61.9573 110.473C64.47 110.07 75.793 113.433 78.4737 114.732Z" fill="#E9686D"/>
    <path d="M78.2069 76.4653C79.0067 76.0405 80.1221 75.7717 80.7935 76.5745C80.9571 76.7698 80.6767 77.0532 80.5116 76.8564C79.958 76.1965 79.056 76.4648 78.4077 76.8091C78.1812 76.9294 77.9799 76.5856 78.2069 76.4653Z" fill="black"/>
    <path d="M73.2199 77.0739C73.4585 77.162 73.3553 77.547 73.1142 77.4579C72.7477 77.3143 72.3447 77.2928 71.9651 77.3965C71.5854 77.5003 71.2493 77.7237 71.0068 78.0337C70.8522 78.2351 70.5065 78.0337 70.663 77.8324C70.9502 77.4469 71.3545 77.1647 71.8153 77.028C72.2762 76.8913 72.7689 76.9074 73.2199 77.0739Z" fill="black"/>
    <path d="M75.7194 81.5902C75.4763 81.6728 75.3716 81.2882 75.6137 81.2062C76.0667 81.0552 76.5424 81.1262 76.9979 81.0109C77.1798 80.9739 77.3477 80.8867 77.4826 80.7592C77.5577 80.6562 77.6079 80.5372 77.6293 80.4116C77.6507 80.2859 77.6427 80.157 77.6059 80.0349C77.458 78.9779 77.2964 77.921 77.1414 76.864C77.1046 76.6123 77.4882 76.5046 77.5254 76.7577L77.7977 78.614L77.9306 79.52C77.9919 79.81 78.0256 80.1051 78.0312 80.4014C78.0179 80.6089 77.9427 80.8078 77.8153 80.9722C77.6879 81.1366 77.5142 81.2592 77.3165 81.324C76.8041 81.5313 76.2374 81.4176 75.7194 81.5902Z" fill="black"/>
    <path d="M73.0584 81.8119C74.3576 82.4976 75.8687 82.6647 77.2864 82.2795C77.3344 82.2735 77.3829 82.285 77.4232 82.3118C77.4634 82.3386 77.4926 82.379 77.5055 82.4256C77.5184 82.4723 77.5141 82.522 77.4934 82.5657C77.4726 82.6093 77.4368 82.6441 77.3926 82.6636C75.9581 83.0488 74.4331 82.9078 73.0936 82.266C72.8706 83.4589 74.1506 84.2838 75.2031 84.4781C75.4547 84.5244 75.348 84.9085 75.0969 84.8621C73.762 84.616 72.2535 83.4528 72.7684 81.9312C72.777 81.9024 72.7919 81.8759 72.812 81.8535C72.8322 81.8312 72.8571 81.8137 72.8849 81.8023C72.9127 81.7908 72.9427 81.7857 72.9727 81.7874C73.0027 81.7891 73.032 81.7975 73.0584 81.8119Z" fill="black"/>
    <path d="M78.5733 77.6431C78.7275 77.6494 78.8733 77.7151 78.9802 77.8265C79.087 77.9378 79.1467 78.0862 79.1467 78.2405C79.1467 78.3949 79.087 78.5432 78.9802 78.6546C78.8733 78.7659 78.7275 78.8316 78.5733 78.838C78.4191 78.8316 78.2733 78.7659 78.1664 78.6546C78.0596 78.5432 77.9999 78.3949 77.9999 78.2405C77.9999 78.0862 78.0596 77.9378 78.1664 77.8265C78.2733 77.7151 78.4191 77.6494 78.5733 77.6431Z" fill="black"/>
    <path d="M71.956 78.1704C72.1102 78.1767 72.256 78.2425 72.3629 78.3538C72.4697 78.4652 72.5294 78.6135 72.5294 78.7679C72.5294 78.9222 72.4697 79.0706 72.3629 79.1819C72.256 79.2933 72.1102 79.359 71.956 79.3653C71.8018 79.359 71.656 79.2933 71.5491 79.1819C71.4422 79.0706 71.3826 78.9222 71.3826 78.7679C71.3826 78.6135 71.4422 78.4652 71.5491 78.3538C71.656 78.2425 71.8018 78.1767 71.956 78.1704Z" fill="black"/>
    <path d="M98.8783 66.8021V133.327C98.8711 133.374 98.847 133.418 98.8105 133.449C98.774 133.481 98.7274 133.498 98.6792 133.498C98.631 133.498 98.5845 133.481 98.5479 133.449C98.5114 133.418 98.4874 133.374 98.4802 133.327V66.8021C98.4874 66.7544 98.5114 66.711 98.5479 66.6796C98.5845 66.6481 98.631 66.6309 98.6792 66.6309C98.7274 66.6309 98.774 66.6481 98.8105 66.6796C98.847 66.711 98.8711 66.7544 98.8783 66.8021Z" fill="black"/>
    <path d="M94.6619 62.4295V132.233C94.6547 132.281 94.6306 132.324 94.5941 132.356C94.5576 132.387 94.511 132.405 94.4628 132.405C94.4146 132.405 94.368 132.387 94.3315 132.356C94.295 132.324 94.2709 132.281 94.2637 132.233V62.4295C94.2709 62.3819 94.295 62.3384 94.3315 62.307C94.368 62.2756 94.4146 62.2583 94.4628 62.2583C94.511 62.2583 94.5576 62.2756 94.5941 62.307C94.6306 62.3384 94.6547 62.3819 94.6619 62.4295Z" fill="black"/>
    <path d="M89.8208 57.9007V73.8292C89.8136 73.8768 89.7895 73.9203 89.753 73.9517C89.7165 73.9831 89.6699 74.0004 89.6217 74.0004C89.5736 74.0004 89.527 73.9831 89.4904 73.9517C89.4539 73.9203 89.4299 73.8768 89.4227 73.8292V57.9007C89.4299 57.8531 89.4539 57.8096 89.4904 57.7782C89.527 57.7468 89.5736 57.7295 89.6217 57.7295C89.6699 57.7295 89.7165 57.7468 89.753 57.7782C89.7895 57.8096 89.8136 57.8531 89.8208 57.9007Z" fill="black"/>
    <path d="M89.9774 79.607V93.2675C89.9706 93.3155 89.9467 93.3594 89.91 93.3911C89.8734 93.4229 89.8266 93.4404 89.7781 93.4404C89.7296 93.4404 89.6828 93.4229 89.6462 93.3911C89.6096 93.3594 89.5856 93.3155 89.5788 93.2675V92.5693C89.5856 92.5214 89.6096 92.4774 89.6462 92.4457C89.6828 92.4139 89.7296 92.3964 89.7781 92.3964C89.8266 92.3964 89.8734 92.4139 89.91 92.4457C89.9467 92.4774 89.9706 92.5214 89.9774 92.5693V93.2675C89.9706 93.3155 89.9467 93.3594 89.91 93.3911C89.8734 93.4229 89.8266 93.4404 89.7781 93.4404C89.7296 93.4404 89.6828 93.4229 89.6462 93.3911C89.6096 93.3594 89.5856 93.3155 89.5788 93.2675V79.607C89.5856 79.559 89.6096 79.5151 89.6462 79.4833C89.6828 79.4516 89.7296 79.4341 89.7781 79.4341C89.8266 79.4341 89.8734 79.4516 89.91 79.4833C89.9467 79.5151 89.9706 79.559 89.9774 79.607Z" fill="black"/>
    <path d="M90.4454 105.686V132.075C90.4382 132.122 90.4142 132.166 90.3777 132.197C90.3411 132.229 90.2945 132.246 90.2464 132.246C90.1982 132.246 90.1516 132.229 90.1151 132.197C90.0786 132.166 90.0545 132.122 90.0473 132.075V105.686C90.0545 105.638 90.0786 105.595 90.1151 105.563C90.1516 105.532 90.1982 105.515 90.2464 105.515C90.2945 105.515 90.3411 105.532 90.3777 105.563C90.4142 105.595 90.4382 105.638 90.4454 105.686Z" fill="black"/>
    <path d="M85.1364 48.6871V60.7117C85.1295 60.7597 85.1056 60.8036 85.069 60.8354C85.0324 60.8672 84.9855 60.8847 84.937 60.8847C84.8885 60.8847 84.8417 60.8672 84.8051 60.8354C84.7685 60.8036 84.7445 60.7597 84.7377 60.7117V48.6871C84.7445 48.6391 84.7685 48.5952 84.8051 48.5634C84.8417 48.5316 84.8885 48.5142 84.937 48.5142C84.9855 48.5142 85.0324 48.5316 85.069 48.5634C85.1056 48.5952 85.1295 48.6391 85.1364 48.6871Z" fill="black"/>
    <path d="M85.1364 66.4903V88.5091C85.1295 88.5571 85.1056 88.6011 85.069 88.6328C85.0324 88.6646 84.9855 88.6821 84.937 88.6821C84.8885 88.6821 84.8417 88.6646 84.8051 88.6328C84.7685 88.6011 84.7445 88.5571 84.7377 88.5091V66.4903C84.7445 66.4423 84.7685 66.3984 84.8051 66.3666C84.8417 66.3349 84.8885 66.3174 84.937 66.3174C84.9855 66.3174 85.0324 66.3349 85.069 66.3666C85.1056 66.3984 85.1295 66.4423 85.1364 66.4903Z" fill="black"/>
    <path d="M79.8286 41.1912V64.7714C79.8214 64.819 79.7974 64.8625 79.7608 64.8939C79.7243 64.9253 79.6777 64.9426 79.6295 64.9426C79.5814 64.9426 79.5348 64.9253 79.4983 64.8939C79.4617 64.8625 79.4377 64.819 79.4305 64.7714V41.1912C79.4377 41.1436 79.4617 41.1001 79.4983 41.0687C79.5348 41.0373 79.5814 41.02 79.6295 41.02C79.6777 41.02 79.7243 41.0373 79.7608 41.0687C79.7974 41.1001 79.8214 41.1436 79.8286 41.1912Z" fill="black"/>
    <path d="M73.7383 32.4466V45.0959C73.7311 45.1435 73.707 45.187 73.6705 45.2184C73.634 45.2498 73.5874 45.2671 73.5392 45.2671C73.491 45.2671 73.4444 45.2498 73.4079 45.2184C73.3714 45.187 73.3473 45.1435 73.3401 45.0959V32.4466C73.3473 32.399 73.3714 32.3555 73.4079 32.3241C73.4444 32.2927 73.491 32.2754 73.5392 32.2754C73.5874 32.2754 73.634 32.2927 73.6705 32.3241C73.707 32.3555 73.7311 32.399 73.7383 32.4466Z" fill="black"/>
    <path d="M68.4271 36.6627V46.0322C68.4203 46.0802 68.3964 46.1241 68.3597 46.1559C68.3231 46.1877 68.2763 46.2052 68.2278 46.2052C68.1793 46.2052 68.1325 46.1877 68.0959 46.1559C68.0593 46.1241 68.0353 46.0802 68.0285 46.0322V36.6627C68.0353 36.6147 68.0593 36.5708 68.0959 36.539C68.1325 36.5072 68.1793 36.4897 68.2278 36.4897C68.2763 36.4897 68.3231 36.5072 68.3597 36.539C68.3964 36.5708 68.4203 36.6147 68.4271 36.6627Z" fill="black"/>
    <path d="M63.2736 47.1258V57.4305C63.2664 57.4782 63.2423 57.5217 63.2058 57.5531C63.1692 57.5845 63.1227 57.6018 63.0745 57.6018C63.0263 57.6018 62.9797 57.5845 62.9432 57.5531C62.9067 57.5217 62.8826 57.4782 62.8754 57.4305V47.1258C62.8826 47.0782 62.9067 47.0347 62.9432 47.0033C62.9797 46.9719 63.0263 46.9546 63.0745 46.9546C63.1227 46.9546 63.1692 46.9719 63.2058 47.0033C63.2423 47.0347 63.2664 47.0782 63.2736 47.1258Z" fill="black"/>
    <path d="M62.9614 72.7359V85.2292C62.9546 85.2772 62.9307 85.3211 62.894 85.3528C62.8574 85.3846 62.8106 85.4021 62.7621 85.4021C62.7136 85.4021 62.6668 85.3846 62.6302 85.3528C62.5936 85.3211 62.5696 85.2772 62.5628 85.2292V72.7359C62.5696 72.6879 62.5936 72.644 62.6302 72.6122C62.6668 72.5805 62.7136 72.563 62.7621 72.563C62.8106 72.563 62.8574 72.5805 62.894 72.6122C62.9307 72.644 62.9546 72.6879 62.9614 72.7359Z" fill="black"/>
    <path d="M55.4673 71.9552V92.1001C55.4604 92.1481 55.4365 92.192 55.3999 92.2237C55.3633 92.2555 55.3164 92.273 55.268 92.273C55.2195 92.273 55.1726 92.2555 55.136 92.2237C55.0994 92.192 55.0755 92.1481 55.0686 92.1001V71.9552C55.0755 71.9072 55.0994 71.8632 55.136 71.8315C55.1726 71.7997 55.2195 71.7822 55.268 71.7822C55.3164 71.7822 55.3633 71.7997 55.3999 71.8315C55.4365 71.8632 55.4604 71.9072 55.4673 71.9552Z" fill="black"/>
    <path d="M49.377 73.9849V87.4149C49.3701 87.4629 49.3462 87.5068 49.3096 87.5385C49.273 87.5703 49.2261 87.5878 49.1776 87.5878C49.1292 87.5878 49.0823 87.5703 49.0457 87.5385C49.0091 87.5068 48.9852 87.4629 48.9783 87.4149V73.9849C48.9852 73.937 49.0091 73.893 49.0457 73.8613C49.0823 73.8295 49.1292 73.812 49.1776 73.812C49.2261 73.812 49.273 73.8295 49.3096 73.8613C49.3462 73.893 49.3701 73.937 49.377 73.9849Z" fill="black"/>
    <path d="M49.377 91.1627V132.235C49.3701 132.283 49.3462 132.327 49.3096 132.358C49.273 132.39 49.2261 132.408 49.1776 132.408C49.1292 132.408 49.0823 132.39 49.0457 132.358C49.0091 132.327 48.9852 132.283 48.9783 132.235V91.1627C48.9852 91.1147 49.0091 91.0708 49.0457 91.039C49.0823 91.0072 49.1292 90.9897 49.1776 90.9897C49.2261 90.9897 49.273 91.0072 49.3096 91.039C49.3462 91.0708 49.3701 91.1147 49.377 91.1627Z" fill="black"/>
    <path d="M56.7151 118.179V133.795C56.7082 133.843 56.6843 133.887 56.6477 133.919C56.6111 133.951 56.5642 133.968 56.5158 133.968C56.4673 133.968 56.4204 133.951 56.3838 133.919C56.3472 133.887 56.3233 133.843 56.3164 133.795V118.179C56.3233 118.131 56.3472 118.087 56.3838 118.055C56.4204 118.023 56.4673 118.006 56.5158 118.006C56.5642 118.006 56.6111 118.023 56.6477 118.055C56.6843 118.087 56.7082 118.131 56.7151 118.179Z" fill="black"/>
    <path d="M63.8982 125.833V133.484C63.891 133.532 63.8669 133.575 63.8304 133.607C63.7939 133.638 63.7473 133.655 63.6991 133.655C63.651 133.655 63.6044 133.638 63.5679 133.607C63.5313 133.575 63.5073 133.532 63.5001 133.484V125.833C63.5073 125.786 63.5313 125.742 63.5679 125.711C63.6044 125.679 63.651 125.662 63.6991 125.662C63.7473 125.662 63.7939 125.679 63.8304 125.711C63.8669 125.742 63.891 125.786 63.8982 125.833Z" fill="black"/>
    <path d="M71.0818 127.08V133.639C71.0749 133.687 71.051 133.731 71.0144 133.762C70.9778 133.794 70.9309 133.812 70.8825 133.812C70.834 133.812 70.7871 133.794 70.7505 133.762C70.7139 133.731 70.69 133.687 70.6831 133.639V127.08C70.69 127.032 70.7139 126.988 70.7505 126.956C70.7871 126.925 70.834 126.907 70.8825 126.907C70.9309 126.907 70.9778 126.925 71.0144 126.956C71.051 126.988 71.0749 127.032 71.0818 127.08Z" fill="black"/>
</svg>
