<svg xmlns="http://www.w3.org/2000/svg" version="1.1" xmlns:xlink="http://www.w3.org/1999/xlink" xmlns:svgjs="http://svgjs.com/svgjs" viewBox="0 0 24 24" width="24" height="24"><g transform="matrix(1,0,0,1,0,0)"><path d="M0.5 21.189L23.5 21.189" fill="none" stroke="#000000" stroke-linecap="round" stroke-linejoin="round"></path><path d="M3.5 11.189L3.5 21.189" fill="none" stroke="#000000" stroke-linecap="round" stroke-linejoin="round"></path><path d="M20.5 21.189L20.5 11.189" fill="none" stroke="#000000" stroke-linecap="round" stroke-linejoin="round"></path><path d="M12.3,2.909a.5.5,0,0,0-.594,0L1.72,10.287a.5.5,0,0,0,.3.9H21.982a.5.5,0,0,0,.3-.9Z" fill="none" stroke="#000000" stroke-linecap="round" stroke-linejoin="round"></path><path d="M20.5,8.98V4.689a.5.5,0,0,0-.5-.5H18a.5.5,0,0,0-.5.5V6.767" fill="none" stroke="#000000" stroke-linecap="round" stroke-linejoin="round"></path><path d="M10.5,19.189v-4.5a.5.5,0,0,0-.5-.5H7a.5.5,0,0,0-.5.5v4.5" fill="none" stroke="#000000" stroke-linecap="round" stroke-linejoin="round"></path><path d="M13.500 14.189 L18.500 14.189 L18.500 18.189 L13.500 18.189 Z" fill="none" stroke="#000000" stroke-linecap="round" stroke-linejoin="round"></path><path d="M5.5,21.189v-1.5a.5.5,0,0,1,.5-.5h5a.5.5,0,0,1,.5.5v1.5" fill="none" stroke="#000000" stroke-linecap="round" stroke-linejoin="round"></path></g></svg>