<svg xmlns="http://www.w3.org/2000/svg" version="1.1" xmlns:xlink="http://www.w3.org/1999/xlink" xmlns:svgjs="http://svgjs.com/svgjs" viewBox="0 0 24 24" width="24" height="24"><g transform="matrix(1,0,0,1,0,0)"><path d="M13.5,14.274h9.486a.5.5,0,0,1,.5.53,9,9,0,0,1-8.985,8.47h-5A9,9,0,0,1,.515,14.8a.5.5,0,0,1,.5-.53H6.5" fill="none" stroke="#000000" stroke-linecap="round" stroke-linejoin="round"></path><path d="M17.27,2.136l.9-.9a2,2,0,0,1,3.329,1.5V14.274" fill="none" stroke="#000000" stroke-linecap="round" stroke-linejoin="round"></path><path d="M17.27,5.488a2.37,2.37,0,1,0-3.351-3.352l-.205.205a.5.5,0,0,0,0,.707l2.644,2.645a.5.5,0,0,0,.708,0Z" fill="none" stroke="#000000" stroke-linecap="round" stroke-linejoin="round"></path><path d="M11.408 3.356L9.592 4.193" fill="none" stroke="#000000" stroke-linecap="round" stroke-linejoin="round"></path><path d="M15.893 7.855L15.107 9.694" fill="none" stroke="#000000" stroke-linecap="round" stroke-linejoin="round"></path><path d="M13.211 6.071L11.789 7.478" fill="none" stroke="#000000" stroke-linecap="round" stroke-linejoin="round"></path><path d="M13.5,13.274a1,1,0,0,0-1-1h-5a1,1,0,0,0-1,1v5.5a.5.5,0,0,0,.5.5h6a.5.5,0,0,0,.5-.5Z" fill="none" stroke="#000000" stroke-linecap="round" stroke-linejoin="round"></path></g></svg>