<svg xmlns="http://www.w3.org/2000/svg" version="1.1" viewBox="0 0 24 24" width="24" height="24"><g transform="matrix(1,0,0,1,0,0)"><path d="M17.5 4L21.5 4" fill="none" stroke="currentColor" stroke-linecap="round" stroke-linejoin="round"></path><path d="M0.500 4.000 A1.000 1.000 0 1 0 2.500 4.000 A1.000 1.000 0 1 0 0.500 4.000 Z" fill="none" stroke="currentColor" stroke-linecap="round" stroke-linejoin="round"></path><path d="M15.5,3.5A2.5,2.5,0,0,1,18,1H6A2.5,2.5,0,0,0,3.5,3.5v19A.5.5,0,0,0,4,23H15a.5.5,0,0,0,.5-.5Z" fill="none" stroke="currentColor" stroke-linecap="round" stroke-linejoin="round"></path><path d="M18,1a2.5,2.5,0,0,1,2.008,1.01" fill="none" stroke="currentColor" stroke-linecap="round" stroke-linejoin="round"></path><path d="M21.500 4.000 A1.000 1.000 0 1 0 23.500 4.000 A1.000 1.000 0 1 0 21.500 4.000 Z" fill="none" stroke="currentColor" stroke-linecap="round" stroke-linejoin="round"></path><path d="M20.5,6v8.5a.5.5,0,0,1-.5.5H17.5" fill="none" stroke="currentColor" stroke-linecap="round" stroke-linejoin="round"></path><path d="M3.5 17H15.5V20H3.5z" fill="none" stroke="currentColor" stroke-linecap="round" stroke-linejoin="round"></path></g></svg>
