<svg xmlns="http://www.w3.org/2000/svg" version="1.1" xmlns:xlink="http://www.w3.org/1999/xlink" xmlns:svgjs="http://svgjs.com/svgjs" viewBox="0 0 24 24" width="24" height="24"><g transform="matrix(1,0,0,1,0,0)"><path d="M10.5,20.378h11v-2a2,2,0,0,0-2-2H11a.5.5,0,0,0-.5.5Z" fill="none" stroke="#000000" stroke-linecap="round" stroke-linejoin="round"></path><path d="M5.000 18.378 A2.000 2.000 0 1 0 9.000 18.378 A2.000 2.000 0 1 0 5.000 18.378 Z" fill="none" stroke="#000000" stroke-linecap="round" stroke-linejoin="round"></path><path d="M21.5 12.378L21.5 7.4" fill="none" stroke="#000000" stroke-linecap="round" stroke-linejoin="round"></path><path d="M2.5 7.4L2.5 12.381" fill="none" stroke="#000000" stroke-linecap="round" stroke-linejoin="round"></path><path d="M23.5,8.878,12.594.817a1,1,0,0,0-1.189,0L.5,8.878" fill="none" stroke="#000000" stroke-linecap="round" stroke-linejoin="round"></path><path d="M2.5 16.378L2.5 23.378" fill="none" stroke="#000000" stroke-linecap="round" stroke-linejoin="round"></path><path d="M2.5 20.378L21.5 20.378 21.5 23.378" fill="none" stroke="#000000" stroke-linecap="round" stroke-linejoin="round"></path></g></svg>