<svg xmlns="http://www.w3.org/2000/svg" version="1.1" viewBox="0 0 24 24" width="24" height="24"><g transform="matrix(1,0,0,1,0,0)"><path d="M0.500 1.500 L23.500 1.500 L23.500 12.500 L0.500 12.500 Z" fill="none" stroke="currentColor" stroke-linecap="round" stroke-linejoin="round"></path><path d="M2.5,12.5v-1a1,1,0,0,1,1-1h17a1,1,0,0,1,1,1v1" fill="none" stroke="currentColor" stroke-linecap="round" stroke-linejoin="round"></path><path d="M3.5 4.5L20.5 4.5" fill="none" stroke="currentColor" stroke-linecap="round" stroke-linejoin="round"></path><path d="M3.5 7.5L20.5 7.5" fill="none" stroke="currentColor" stroke-linecap="round" stroke-linejoin="round"></path><path d="M4,14.5a3.491,3.491,0,0,0-1,2,3.491,3.491,0,0,0,1,2" fill="none" stroke="currentColor" stroke-linecap="round" stroke-linejoin="round"></path><path d="M4,22.5a3.491,3.491,0,0,0,1-2,3.491,3.491,0,0,0-1-2" fill="none" stroke="currentColor" stroke-linecap="round" stroke-linejoin="round"></path><path d="M20,14.5a3.491,3.491,0,0,0-1,2,3.491,3.491,0,0,0,1,2" fill="none" stroke="currentColor" stroke-linecap="round" stroke-linejoin="round"></path><path d="M20,22.5a3.491,3.491,0,0,0,1-2,3.491,3.491,0,0,0-1-2" fill="none" stroke="currentColor" stroke-linecap="round" stroke-linejoin="round"></path><path d="M12 15.5L12 21.5" fill="none" stroke="currentColor" stroke-linecap="round" stroke-linejoin="round"></path><path d="M9.402 17L14.598 20" fill="none" stroke="currentColor" stroke-linecap="round" stroke-linejoin="round"></path><path d="M14.598 17L9.402 20" fill="none" stroke="currentColor" stroke-linecap="round" stroke-linejoin="round"></path></g></svg>
