<svg xmlns="http://www.w3.org/2000/svg" version="1.1" xmlns:xlink="http://www.w3.org/1999/xlink" xmlns:svgjs="http://svgjs.com/svgjs" viewBox="0 0 24 24" width="24" height="24"><g transform="matrix(1,0,0,1,0,0)"><path d="M2.000 2.500 A2.000 2.000 0 1 0 6.000 2.500 A2.000 2.000 0 1 0 2.000 2.500 Z" fill="none" stroke="#000000" stroke-linecap="round" stroke-linejoin="round"></path><path d="M8.5,21.5a1.5,1.5,0,0,1-1.472-1.794L7.67,16.5H5A2.5,2.5,0,0,1,2.5,14V8A1.5,1.5,0,0,1,4.8,6.728L7.336,8.315A4.481,4.481,0,0,0,9.721,9H10.5a1.5,1.5,0,0,1,0,3H9.721a7.5,7.5,0,0,1-3.975-1.14L5.5,10.706V13.5H8.28a2.5,2.5,0,0,1,2.451,2.991l-.76,3.8A1.5,1.5,0,0,1,8.5,21.5Z" fill="none" stroke="#000000" stroke-linecap="round" stroke-linejoin="round"></path><path d="M.5,11v4.5a1,1,0,0,0,1,1H5" fill="none" stroke="#000000" stroke-linecap="round" stroke-linejoin="round"></path><path d="M3.5 16.5L3.5 23.5" fill="none" stroke="#000000" stroke-linecap="round" stroke-linejoin="round"></path><path d="M1 23.5L3.5 21" fill="none" stroke="#000000" stroke-linecap="round" stroke-linejoin="round"></path><path d="M6 23.5L3.5 21" fill="none" stroke="#000000" stroke-linecap="round" stroke-linejoin="round"></path><path d="M23.5,14.5H15a1,1,0,0,1-1-1h0a1,1,0,0,1,1-1h8.5" fill="none" stroke="#000000" stroke-linecap="round" stroke-linejoin="round"></path><path d="M20.5 14.5L20.5 23.5" fill="none" stroke="#000000" stroke-linecap="round" stroke-linejoin="round"></path><path d="M18.5 23.5L22.5 23.5" fill="none" stroke="#000000" stroke-linecap="round" stroke-linejoin="round"></path><path d="M16 12.5L15.5 9.5 18.5 9.5 18 12.5" fill="none" stroke="#000000" stroke-linecap="round" stroke-linejoin="round"></path><path d="M23.5 12.5L23.5 8.914 22.5 5.5 21.5 5.5 20.5 8.914 20.5 12.5" fill="none" stroke="#000000" stroke-linecap="round" stroke-linejoin="round"></path></g></svg>