<svg xmlns="http://www.w3.org/2000/svg" version="1.1" viewBox="0 0 24 24" width="24" height="24"><g transform="matrix(1,0,0,1,0,0)"><path d="M19.473 4.5L21.5 4.5 23.5 16.5 0.5 16.5 2.5 4.5 4.778 4.5" fill="none" stroke="currentColor" stroke-linecap="round" stroke-linejoin="round"></path><path d="M23.5,16.5V21A1.5,1.5,0,0,1,22,22.5H2A1.5,1.5,0,0,1,.5,21V16.5" fill="none" stroke="currentColor" stroke-linecap="round" stroke-linejoin="round"></path><path d="M1.833 8.5L22.167 8.5" fill="none" stroke="currentColor" stroke-linecap="round" stroke-linejoin="round"></path><path d="M10.552,6.01a.5.5,0,0,1-.5.49H5.074a.5.5,0,0,1-.5-.569l.278-2a.5.5,0,0,1,.5-.431h4.742a.5.5,0,0,1,.5.51Z" fill="none" stroke="currentColor" stroke-linecap="round" stroke-linejoin="round"></path><path d="M13.7,6.01a.5.5,0,0,0,.5.49h4.977a.5.5,0,0,0,.5-.569l-.278-2A.5.5,0,0,0,18.9,3.5H14.157a.5.5,0,0,0-.5.51Z" fill="none" stroke="currentColor" stroke-linecap="round" stroke-linejoin="round"></path><path d="M2.5,4.5V2A1.5,1.5,0,0,1,4,.5H20A1.5,1.5,0,0,1,21.5,2V4.5" fill="none" stroke="currentColor" stroke-linecap="round" stroke-linejoin="round"></path><path d="M3.5 22.5L3.5 23.5" fill="none" stroke="currentColor" stroke-linecap="round" stroke-linejoin="round"></path><path d="M20.5 22.5L20.5 23.5" fill="none" stroke="currentColor" stroke-linecap="round" stroke-linejoin="round"></path><path d="M10.605 4.614L13.647 4.614" fill="none" stroke="currentColor" stroke-linecap="round" stroke-linejoin="round"></path></g></svg>
