<svg xmlns="http://www.w3.org/2000/svg" version="1.1" viewBox="0 0 24 24" width="24" height="24"><g transform="matrix(1,0,0,1,0,0)"><path d="M.5,10.823,11.326.939a1,1,0,0,1,1.348,0L23.5,10.823" fill="none" stroke="currentColor" stroke-linecap="round" stroke-linejoin="round"></path><path d="M6.5,21.323v1.5a.5.5,0,0,1-.5.5H4a.5.5,0,0,1-.5-.5v-1.5" fill="none" stroke="currentColor" stroke-linecap="round" stroke-linejoin="round"></path><path d="M20.5,21.323v1.5a.5.5,0,0,1-.5.5H18a.5.5,0,0,1-.5-.5v-1.5" fill="none" stroke="currentColor" stroke-linecap="round" stroke-linejoin="round"></path><path d="M21,21.323a.5.5,0,0,0,.5-.5V17.53a.5.5,0,0,0-.146-.354L19.5,15.323H4.5L2.646,17.176a.5.5,0,0,0-.146.354v3.293a.5.5,0,0,0,.5.5Z" fill="none" stroke="currentColor" stroke-linecap="round" stroke-linejoin="round"></path><path d="M19.5,15.323l-1.874-4.686a.5.5,0,0,0-.465-.314H6.839a.5.5,0,0,0-.465.314L4.5,15.323" fill="none" stroke="currentColor" stroke-linecap="round" stroke-linejoin="round"></path><path d="M2.5 19.323L7 19.323" fill="none" stroke="currentColor" stroke-linecap="round" stroke-linejoin="round"></path><path d="M17 19.323L21.5 19.323" fill="none" stroke="currentColor" stroke-linecap="round" stroke-linejoin="round"></path></g></svg>
