<svg xmlns="http://www.w3.org/2000/svg" version="1.1" xmlns:xlink="http://www.w3.org/1999/xlink" xmlns:svgjs="http://svgjs.com/svgjs" viewBox="0 0 24 24" width="24" height="24"><g transform="matrix(1,0,0,1,0,0)"><path d="M0.5 12.5L10.5 12.5" fill="none" stroke="#000000" stroke-linecap="round" stroke-linejoin="round"></path><path d="M13.5 9.5L23.5 9.5" fill="none" stroke="#000000" stroke-linecap="round" stroke-linejoin="round"></path><path d="M16.5 9.5L17.5 7.5" fill="none" stroke="#000000" stroke-linecap="round" stroke-linejoin="round"></path><path d="M19.5 9.5L20.5 7.5" fill="none" stroke="#000000" stroke-linecap="round" stroke-linejoin="round"></path><path d="M3.5,9.5h1a1,1,0,0,1,1,1v2a0,0,0,0,1,0,0h-3a0,0,0,0,1,0,0v-2A1,1,0,0,1,3.5,9.5Z" fill="none" stroke="#000000" stroke-linecap="round" stroke-linejoin="round" transform="translate(8 22) rotate(180)"></path><path d="M8.5 0.5L8.5 4.5" fill="none" stroke="#000000" stroke-linecap="round" stroke-linejoin="round"></path><path d="M15.5 4.5L15.5 0.5" fill="none" stroke="#000000" stroke-linecap="round" stroke-linejoin="round"></path><path d="M1.5.5a1,1,0,0,0-1,1v3h23v-3a1,1,0,0,0-1-1Z" fill="none" stroke="#000000" stroke-linecap="round" stroke-linejoin="round"></path><path d="M15.5 23.5L15.5 17.5" fill="none" stroke="#000000" stroke-linecap="round" stroke-linejoin="round"></path><path d="M8.5 17.5L8.5 23.5" fill="none" stroke="#000000" stroke-linecap="round" stroke-linejoin="round"></path><path d="M22.5,23.5a1,1,0,0,0,1-1v-5H.5v5a1,1,0,0,0,1,1Z" fill="none" stroke="#000000" stroke-linecap="round" stroke-linejoin="round"></path><path d="M1.5,15.5h21a1,1,0,0,1,1,1v1a0,0,0,0,1,0,0H.5a0,0,0,0,1,0,0v-1A1,1,0,0,1,1.5,15.5Z" fill="none" stroke="#000000" stroke-linecap="round" stroke-linejoin="round"></path></g></svg>