<svg xmlns="http://www.w3.org/2000/svg" version="1.1" xmlns:xlink="http://www.w3.org/1999/xlink" xmlns:svgjs="http://svgjs.com/svgjs" viewBox="0 0 24 24" width="24" height="24"><g transform="matrix(1,0,0,1,0,0)"><path d="M5.000 6.999 A2.500 2.500 0 1 0 10.000 6.999 A2.500 2.500 0 1 0 5.000 6.999 Z" fill="none" stroke="#000000" stroke-linecap="round" stroke-linejoin="round"></path><path d="M14.953,23.5l-.219-2.628A1.509,1.509,0,0,0,13.239,19.5H10.352a3.517,3.517,0,0,1-3.481-3.143L6.525,13.27a1.5,1.5,0,1,1,2.951-.546l.358,3.154c.009.053.016.1.02.157a.5.5,0,0,0,.5.462H13.24a4.527,4.527,0,0,1,4.485,4.126l.239,2.865" fill="none" stroke="#000000" stroke-linecap="round" stroke-linejoin="round"></path><path d="M1.5,13.5H3.158a1,1,0,0,1,.985.83l.688,3.994A4,4,0,0,0,8.745,21.5H12.5l.25,2" fill="none" stroke="#000000" stroke-linecap="round" stroke-linejoin="round"></path><path d="M19 0.498L19 2.998" fill="none" stroke="#000000" stroke-linecap="round" stroke-linejoin="round"></path><path d="M15.5,6.5a3.5,3.5,0,0,1,7,0V7a.5.5,0,0,1-.5.5H16a.5.5,0,0,1-.5-.5Z" fill="none" stroke="#000000" stroke-linecap="round" stroke-linejoin="round"></path></g></svg>