<svg xmlns="http://www.w3.org/2000/svg" version="1.1" xmlns:xlink="http://www.w3.org/1999/xlink" xmlns:svgjs="http://svgjs.com/svgjs" viewBox="0 0 24 24" width="24" height="24"><g transform="matrix(1,0,0,1,0,0)"><path d="M23.5,13.5a4,4,0,0,0-4-4H4.5a4,4,0,0,0-4,4v8a2,2,0,0,0,2,2c1.464,0,2.854-1.8,4.7-4.557a1,1,0,0,1,.83-.443h7.932a1,1,0,0,1,.83.443c1.85,2.752,3.24,4.557,4.7,4.557a2,2,0,0,0,2-2Z" fill="none" stroke="#000000" stroke-linecap="round" stroke-linejoin="round"></path><path d="M5.5 12.5L5.5 16.5" fill="none" stroke="#000000" stroke-linecap="round" stroke-linejoin="round"></path><path d="M7.5 14.5L3.5 14.5" fill="none" stroke="#000000" stroke-linecap="round" stroke-linejoin="round"></path><path d="M18.5,12.25a.25.25,0,0,1,.25.25" fill="none" stroke="#000000" stroke-linecap="round" stroke-linejoin="round"></path><path d="M18.25,12.5a.25.25,0,0,1,.25-.25" fill="none" stroke="#000000" stroke-linecap="round" stroke-linejoin="round"></path><path d="M18.5,12.75a.25.25,0,0,1-.25-.25" fill="none" stroke="#000000" stroke-linecap="round" stroke-linejoin="round"></path><path d="M18.75,12.5a.25.25,0,0,1-.25.25" fill="none" stroke="#000000" stroke-linecap="round" stroke-linejoin="round"></path><path d="M16.5,14.25a.25.25,0,0,1,.25.25" fill="none" stroke="#000000" stroke-linecap="round" stroke-linejoin="round"></path><path d="M16.25,14.5a.25.25,0,0,1,.25-.25" fill="none" stroke="#000000" stroke-linecap="round" stroke-linejoin="round"></path><path d="M16.5,14.75a.25.25,0,0,1-.25-.25" fill="none" stroke="#000000" stroke-linecap="round" stroke-linejoin="round"></path><path d="M16.75,14.5a.25.25,0,0,1-.25.25" fill="none" stroke="#000000" stroke-linecap="round" stroke-linejoin="round"></path><path d="M18.5,16.25a.25.25,0,0,1,.25.25" fill="none" stroke="#000000" stroke-linecap="round" stroke-linejoin="round"></path><path d="M18.25,16.5a.25.25,0,0,1,.25-.25" fill="none" stroke="#000000" stroke-linecap="round" stroke-linejoin="round"></path><path d="M18.5,16.75a.25.25,0,0,1-.25-.25" fill="none" stroke="#000000" stroke-linecap="round" stroke-linejoin="round"></path><path d="M18.75,16.5a.25.25,0,0,1-.25.25" fill="none" stroke="#000000" stroke-linecap="round" stroke-linejoin="round"></path><path d="M20.5,14.25a.25.25,0,0,1,.25.25" fill="none" stroke="#000000" stroke-linecap="round" stroke-linejoin="round"></path><path d="M20.25,14.5a.25.25,0,0,1,.25-.25" fill="none" stroke="#000000" stroke-linecap="round" stroke-linejoin="round"></path><path d="M20.5,14.75a.25.25,0,0,1-.25-.25" fill="none" stroke="#000000" stroke-linecap="round" stroke-linejoin="round"></path><path d="M20.75,14.5a.25.25,0,0,1-.25.25" fill="none" stroke="#000000" stroke-linecap="round" stroke-linejoin="round"></path><path d="M10.000 2.500 A2.000 2.000 0 1 0 14.000 2.500 A2.000 2.000 0 1 0 10.000 2.500 Z" fill="none" stroke="#000000" stroke-linecap="round" stroke-linejoin="round"></path><path d="M17.000 2.500 A2.000 2.000 0 1 0 21.000 2.500 A2.000 2.000 0 1 0 17.000 2.500 Z" fill="none" stroke="#000000" stroke-linecap="round" stroke-linejoin="round"></path><path d="M3.000 2.500 A2.000 2.000 0 1 0 7.000 2.500 A2.000 2.000 0 1 0 3.000 2.500 Z" fill="none" stroke="#000000" stroke-linecap="round" stroke-linejoin="round"></path><path d="M22.5,7.5a4.063,4.063,0,0,0-7,0,4.063,4.063,0,0,0-7,0,4.063,4.063,0,0,0-7,0" fill="none" stroke="#000000" stroke-linecap="round" stroke-linejoin="round"></path></g></svg>