<svg xmlns="http://www.w3.org/2000/svg" version="1.1" viewBox="0 0 24 24" width="24" height="24"><g transform="matrix(1,0,0,1,0,0)"><path d="M23.5,19.5a2,2,0,0,1-2,2H2.5a2,2,0,0,1-2-2v-2a2,2,0,0,1,2-2h19a2,2,0,0,1,2,2Z" fill="none" stroke="currentColor" stroke-linecap="round" stroke-linejoin="round"></path><path d="M4.75,18.25A.25.25,0,1,0,5,18.5a.25.25,0,0,0-.25-.25h0" fill="none" stroke="currentColor" stroke-linecap="round" stroke-linejoin="round"></path><path d="M8.25,18.25a.25.25,0,1,0,.25.25.25.25,0,0,0-.25-.25h0" fill="none" stroke="currentColor" stroke-linecap="round" stroke-linejoin="round"></path><path d="M19.131,7.5a4.918,4.918,0,0,0-6.818,0" fill="none" stroke="currentColor" stroke-linecap="round" stroke-linejoin="round"></path><path d="M21.176,5.511a7.868,7.868,0,0,0-10.909,0" fill="none" stroke="currentColor" stroke-linecap="round" stroke-linejoin="round"></path><path d="M23.222,3.521a10.82,10.82,0,0,0-15,0" fill="none" stroke="currentColor" stroke-linecap="round" stroke-linejoin="round"></path><path d="M15.722 15.5L15.722 10.5" fill="none" stroke="currentColor" stroke-linecap="round" stroke-linejoin="round"></path><path d="M4 21.5L2.5 23.5" fill="none" stroke="currentColor" stroke-linecap="round" stroke-linejoin="round"></path><path d="M20 21.5L21.5 23.5" fill="none" stroke="currentColor" stroke-linecap="round" stroke-linejoin="round"></path></g></svg>
