<svg xmlns="http://www.w3.org/2000/svg" version="1.1" viewBox="0 0 24 24" width="24" height="24"><g transform="matrix(1,0,0,1,0,0)"><path d="M16.854 4.5L19.5 4.5 23.5 16.5 0.5 16.5 4.5 4.5 7.166 4.5" fill="none" stroke="currentColor" stroke-linecap="round" stroke-linejoin="round"></path><path d="M23.5,16.5V21A1.5,1.5,0,0,1,22,22.5H2A1.5,1.5,0,0,1,.5,21V16.5" fill="none" stroke="currentColor" stroke-linecap="round" stroke-linejoin="round"></path><path d="M3.166 8.5L20.833 8.5" fill="none" stroke="currentColor" stroke-linecap="round" stroke-linejoin="round"></path><path d="M17.281,5.842a.5.5,0,0,1-.475.658H7.2a.5.5,0,0,1-.475-.658L7.5,3.5h8.64a.5.5,0,0,1,.474.342Z" fill="none" stroke="currentColor" stroke-linecap="round" stroke-linejoin="round"></path><path d="M4.5,4.5V2A1.5,1.5,0,0,1,6,.5H18A1.5,1.5,0,0,1,19.5,2V4.5" fill="none" stroke="currentColor" stroke-linecap="round" stroke-linejoin="round"></path><path d="M3.5 22.5L3.5 23.5" fill="none" stroke="currentColor" stroke-linecap="round" stroke-linejoin="round"></path><path d="M20.5 22.5L20.5 23.5" fill="none" stroke="currentColor" stroke-linecap="round" stroke-linejoin="round"></path></g></svg>
