<svg xmlns="http://www.w3.org/2000/svg" version="1.1" viewBox="0 0 24 24" width="24" height="24"><g transform="matrix(1,0,0,1,0,0)"><path d="M3,10.25H21a1,1,0,0,1,1,1v4a0,0,0,0,1,0,0H2a0,0,0,0,1,0,0v-4A1,1,0,0,1,3,10.25Z" fill="none" stroke="currentColor" stroke-linecap="round" stroke-linejoin="round"></path><path d="M22,15.25v1a1,1,0,0,1-1,1H3a1,1,0,0,1-1-1v-1" fill="none" stroke="currentColor" stroke-linecap="round" stroke-linejoin="round"></path><path d="M3 17.25L3 19.75" fill="none" stroke="currentColor" stroke-linecap="round" stroke-linejoin="round"></path><path d="M21 17.25L21 19.75" fill="none" stroke="currentColor" stroke-linecap="round" stroke-linejoin="round"></path><path d="M3,10.25v-4a2,2,0,0,1,2-2H19a2,2,0,0,1,2,2v4" fill="none" stroke="currentColor" stroke-linecap="round" stroke-linejoin="round"></path><path d="M3,10.25a3,3,0,0,1,3-3H9a3,3,0,0,1,3,3" fill="none" stroke="currentColor" stroke-linecap="round" stroke-linejoin="round"></path><path d="M12,10.25a3,3,0,0,1,3-3h3a3,3,0,0,1,3,3" fill="none" stroke="currentColor" stroke-linecap="round" stroke-linejoin="round"></path></g></svg>
