<svg xmlns="http://www.w3.org/2000/svg" version="1.1" xmlns:xlink="http://www.w3.org/1999/xlink" xmlns:svgjs="http://svgjs.com/svgjs" viewBox="0 0 24 24" width="24" height="24"><g transform="matrix(1,0,0,1,0,0)"><path d="M23.5,21.5H.5V11a.5.5,0,0,1,.5-.5H23a.5.5,0,0,1,.5.5Z" fill="none" stroke="#000000" stroke-linecap="round" stroke-linejoin="round"></path><path d="M0.5 21.5L0.5 23.5" fill="none" stroke="#000000" stroke-linecap="round" stroke-linejoin="round"></path><path d="M23.5 21.5L23.5 23.5" fill="none" stroke="#000000" stroke-linecap="round" stroke-linejoin="round"></path><path d="M13.46,7.071a.5.5,0,0,0-.118-.4.5.5,0,0,0-.377-.173H4.035a.5.5,0,0,0-.378.173.5.5,0,0,0-.117.4A4,4,0,0,0,7.5,10.5h2A4,4,0,0,0,13.46,7.071Z" fill="none" stroke="#000000" stroke-linecap="round" stroke-linejoin="round"></path><path d="M8.5,6.5V2a1.5,1.5,0,0,1,3,0" fill="none" stroke="#000000" stroke-linecap="round" stroke-linejoin="round"></path><path d="M14.5 10.5L14.5 21.5" fill="none" stroke="#000000" stroke-linecap="round" stroke-linejoin="round"></path><path d="M0.5 14.5L14.5 14.5" fill="none" stroke="#000000" stroke-linecap="round" stroke-linejoin="round"></path><path d="M7.5,12.25a.25.25,0,0,1,.25.25" fill="none" stroke="#000000" stroke-linecap="round" stroke-linejoin="round"></path><path d="M7.75,12.5a.25.25,0,1,1-.25-.25" fill="none" stroke="#000000" stroke-linecap="round" stroke-linejoin="round"></path><path d="M16.500 12.500 L21.500 12.500 L21.500 19.500 L16.500 19.500 Z" fill="none" stroke="#000000" stroke-linecap="round" stroke-linejoin="round"></path></g></svg>