<svg width="24" height="24" viewBox="0 0 24 24" fill="none" xmlns="http://www.w3.org/2000/svg">
<g clip-path="url(#clip0)">
<path d="M13.51 10.9971C13.234 10.9971 13.01 10.7731 13.01 10.4971V4.99707C13.01 4.72107 13.234 4.49707 13.51 4.49707C13.786 4.49707 14.01 4.72107 14.01 4.99707V9.99707H18.51C18.786 9.99707 19.01 10.2211 19.01 10.4971C19.01 10.7731 18.786 10.9971 18.51 10.9971H13.51Z" fill="#3E3F42"/>
<path d="M19.584 18.1971C19.424 18.1971 19.273 18.1201 19.179 17.9901C19.1 17.8811 19.069 17.7491 19.09 17.6171C19.111 17.4851 19.183 17.3691 19.291 17.2911C22.5 14.9681 23.807 10.8851 22.543 7.13009C21.776 4.85209 20.168 3.00809 18.015 1.93909C16.754 1.31309 15.411 0.996094 14.022 0.996094C13.048 0.996094 12.079 1.15609 11.142 1.47109C6.43901 3.05409 3.90001 8.16909 5.48301 12.8721C5.57101 13.1331 5.43001 13.4171 5.16901 13.5061C5.11701 13.5231 5.06301 13.5321 5.01001 13.5321C4.79501 13.5321 4.60401 13.3951 4.53601 13.1921C2.77701 7.96509 5.59701 2.28209 10.823 0.523094C11.863 0.173094 12.939 -0.00390625 14.022 -0.00390625C15.565 -0.00390625 17.058 0.348094 18.459 1.04409C20.852 2.23209 22.638 4.28009 23.491 6.81109C24.895 10.9831 23.443 15.5201 19.876 18.1021C19.791 18.1641 19.689 18.1971 19.584 18.1971Z" fill="#3E3F42"/>
<path d="M0.509003 23.998C0.233003 23.998 0.00900269 23.774 0.00900269 23.498V13.498C0.00900269 13.222 0.233003 12.998 0.509003 12.998C0.785003 12.998 1.009 13.222 1.009 13.498V14.997H7.509C9.249 14.997 10.728 16.297 10.973 17.997H16.509C18.439 17.997 20.009 19.567 20.009 21.497C20.009 21.773 19.785 21.997 19.509 21.997H1.009V23.498C1.009 23.773 0.785003 23.998 0.509003 23.998ZM18.959 20.997C18.724 19.856 17.698 18.997 16.51 18.997H10.532C10.525 18.998 10.517 18.998 10.511 18.998H7.511C7.235 18.998 7.011 18.774 7.011 18.498C7.011 18.222 7.235 17.998 7.511 17.998H9.959C9.725 16.856 8.698 15.997 7.511 15.997H1.011V20.997H18.959Z" fill="#3E3F42"/>
</g>
<defs>
<clipPath id="clip0">
<rect width="24" height="24" fill="white"/>
</clipPath>
</defs>
</svg>
