<svg width="24" height="24" viewBox="0 0 24 24" fill="none" xmlns="http://www.w3.org/2000/svg">
<path d="M1.5 13C0.673 13 0 12.327 0 11.5V2.5C0 1.673 0.673 1 1.5 1H22.5C23.327 1 24 1.673 24 2.5V11.5C24 12.327 23.327 13 22.5 13H1.5ZM22.5 12C22.776 12 23 11.776 23 11.5V2.5C23 2.224 22.776 2 22.5 2H1.5C1.224 2 1 2.224 1 2.5V11.5C1 11.776 1.224 12 1.5 12H2V11.5C2 10.673 2.673 10 3.5 10H20.5C21.327 10 22 10.673 22 11.5V12H22.5ZM21 12V11.5C21 11.224 20.776 11 20.5 11H3.5C3.224 11 3 11.224 3 11.5V12H21Z" fill="#3E3F42"/>
<path d="M3.5 5C3.224 5 3 4.776 3 4.5C3 4.224 3.224 4 3.5 4H20.5C20.776 4 21 4.224 21 4.5C21 4.776 20.776 5 20.5 5H3.5Z" fill="#3E3F42"/>
<path d="M3.5 8C3.224 8 3 7.776 3 7.5C3 7.224 3.224 7 3.5 7H20.5C20.776 7 21 7.224 21 7.5C21 7.776 20.776 8 20.5 8H3.5Z" fill="#3E3F42"/>
<path d="M3.99999 23C3.86499 23 3.73899 22.948 3.64499 22.852C3.55099 22.757 3.49899 22.632 3.49999 22.498C3.50099 22.364 3.55299 22.239 3.64799 22.145C4.09399 21.703 4.39399 21.12 4.49399 20.5C4.39299 19.88 4.09299 19.297 3.64799 18.855C3.02999 18.242 2.62399 17.43 2.50499 16.568C2.49899 16.522 2.49899 16.477 2.50499 16.432C2.62399 15.569 3.02999 14.757 3.64799 14.144C3.74199 14.052 3.86699 14 3.99999 14C4.13399 14 4.25999 14.052 4.35499 14.148C4.44899 14.243 4.50099 14.369 4.49999 14.502C4.49899 14.635 4.44699 14.761 4.35199 14.855C3.90599 15.297 3.60599 15.88 3.50599 16.5C3.60699 17.12 3.90699 17.703 4.35199 18.145C4.96999 18.758 5.37599 19.57 5.49499 20.432C5.50099 20.478 5.50099 20.523 5.49499 20.568C5.37599 21.431 4.96999 22.243 4.35199 22.856C4.25799 22.948 4.13299 23 3.99999 23Z" fill="#3E3F42"/>
<path d="M20 23C19.865 23 19.74 22.948 19.645 22.852C19.451 22.656 19.452 22.339 19.648 22.145C20.094 21.703 20.393 21.12 20.494 20.5C20.393 19.88 20.093 19.297 19.648 18.855C19.03 18.242 18.624 17.43 18.505 16.568C18.499 16.523 18.499 16.476 18.505 16.431C18.624 15.57 19.03 14.757 19.648 14.145C19.742 14.051 19.867 14 20 14C20.135 14 20.26 14.052 20.355 14.148C20.549 14.344 20.547 14.661 20.351 14.855C19.905 15.297 19.606 15.88 19.505 16.5C19.606 17.12 19.906 17.703 20.351 18.145C20.969 18.758 21.375 19.57 21.494 20.432C21.5 20.477 21.5 20.524 21.494 20.569C21.375 21.43 20.969 22.243 20.351 22.855C20.258 22.948 20.133 23 20 23Z" fill="#3E3F42"/>
<path d="M12 22C11.724 22 11.5 21.776 11.5 21.5V19.366L9.65199 20.433C9.57599 20.477 9.48999 20.5 9.40199 20.5C9.22399 20.5 9.05799 20.404 8.96899 20.25C8.83099 20.011 8.91299 19.705 9.15199 19.567L11 18.5L9.15199 17.433C8.91299 17.295 8.83099 16.989 8.96899 16.75C9.05799 16.595 9.22399 16.5 9.40199 16.5C9.48899 16.5 9.57599 16.523 9.65199 16.567L11.5 17.634V15.5C11.5 15.224 11.724 15 12 15C12.276 15 12.5 15.224 12.5 15.5V17.634L14.348 16.567C14.424 16.523 14.51 16.5 14.598 16.5C14.776 16.5 14.942 16.596 15.031 16.75C15.097 16.865 15.115 17 15.081 17.129C15.047 17.258 14.964 17.366 14.848 17.433L13 18.5L14.848 19.567C14.964 19.634 15.046 19.742 15.081 19.871C15.116 20 15.098 20.135 15.031 20.25C14.942 20.404 14.776 20.5 14.598 20.5C14.51 20.5 14.424 20.477 14.348 20.433L12.5 19.366V21.5C12.5 21.776 12.276 22 12 22Z" fill="#3E3F42"/>
</svg>
