<svg width="24" height="24" viewBox="0 0 24 24" fill="none" xmlns="http://www.w3.org/2000/svg">
<path d="M20.5 24C20.224 24 20 23.776 20 23.5V23H4V23.5C4 23.776 3.776 24 3.5 24C3.224 24 3 23.776 3 23.5V22.914C2.41 22.705 2 22.14 2 21.5V1.5C2 0.673 2.673 0 3.5 0H20.5C21.327 0 22 0.673 22 1.5V21.5C22 22.14 21.59 22.705 21 22.914V23.5C21 23.776 20.776 24 20.5 24ZM3 21.5C3 21.776 3.224 22 3.5 22H20.5C20.776 22 21 21.776 21 21.5V5H3V21.5ZM21 4V1.5C21 1.224 20.776 1 20.5 1H3.5C3.224 1 3 1.224 3 1.5V4H21Z" fill="#3E3F42"/>
<path d="M12 17.5C9.794 17.5 8 15.706 8 13.5C8 11.294 9.794 9.5 12 9.5C14.206 9.5 16 11.294 16 13.5C16 15.706 14.206 17.5 12 17.5ZM12 10.5C10.346 10.5 9 11.846 9 13.5C9 15.154 10.346 16.5 12 16.5C13.654 16.5 15 15.154 15 13.5C15 11.846 13.654 10.5 12 10.5Z" fill="#3E3F42"/>
<path d="M4.5 3C4.224 3 4 2.776 4 2.5C4 2.224 4.224 2 4.5 2H8.5C8.776 2 9 2.224 9 2.5C9 2.776 8.776 3 8.5 3H4.5Z" fill="#3E3F42"/>
<path d="M12 20C8.416 20 5.5 17.084 5.5 13.5C5.5 9.916 8.416 7 12 7C15.584 7 18.5 9.916 18.5 13.5C18.5 17.084 15.584 20 12 20ZM12 8C8.967 8 6.5 10.467 6.5 13.5C6.5 16.533 8.967 19 12 19C15.033 19 17.5 16.533 17.5 13.5C17.5 10.467 15.033 8 12 8Z" fill="#3E3F42"/>
<path d="M19.25 3.25C19.6642 3.25 20 2.91421 20 2.5C20 2.08579 19.6642 1.75 19.25 1.75C18.8358 1.75 18.5 2.08579 18.5 2.5C18.5 2.91421 18.8358 3.25 19.25 3.25Z" fill="#3E3F42"/>
<path d="M16.75 3.25C17.1642 3.25 17.5 2.91421 17.5 2.5C17.5 2.08579 17.1642 1.75 16.75 1.75C16.3358 1.75 16 2.08579 16 2.5C16 2.91421 16.3358 3.25 16.75 3.25Z" fill="#3E3F42"/>
<path d="M14.25 3.25C14.6642 3.25 15 2.91421 15 2.5C15 2.08579 14.6642 1.75 14.25 1.75C13.8358 1.75 13.5 2.08579 13.5 2.5C13.5 2.91421 13.8358 3.25 14.25 3.25Z" fill="#3E3F42"/>
</svg>
