<svg width="24" height="24" viewBox="0 0 24 24" fill="none" xmlns="http://www.w3.org/2000/svg">
<path d="M8.5 7C8.366 7 8.24 6.947 8.145 6.852C8.051 6.757 8 6.631 8 6.498C8.001 6.364 8.053 6.239 8.148 6.145C8.467 5.829 8.68 5.411 8.75 4.967C8.735 4.565 8.448 4.219 8.116 3.82C7.71 3.331 7.25 2.778 7.25 2C7.25 1.977 7.252 1.954 7.255 1.931C7.348 1.258 7.666 0.623 8.148 0.145C8.243 0.052 8.368 0 8.5 0C8.634 0 8.76 0.052 8.855 0.148C8.949 0.243 9.001 0.369 9 0.502C9 0.636 8.947 0.761 8.852 0.855C8.534 1.171 8.321 1.589 8.251 2.033C8.266 2.435 8.553 2.781 8.885 3.18C9.291 3.669 9.75 4.222 9.75 5C9.75 5.023 9.748 5.046 9.745 5.069C9.652 5.742 9.335 6.377 8.852 6.855C8.758 6.948 8.633 7 8.5 7Z" fill="#3E3F42"/>
<path d="M15.5 7C15.365 7 15.24 6.947 15.145 6.852C15.051 6.757 15 6.631 15 6.498C15 6.364 15.053 6.239 15.148 6.145C15.467 5.829 15.68 5.411 15.749 4.968C15.734 4.565 15.447 4.219 15.115 3.82C14.71 3.331 14.25 2.778 14.25 2C14.25 1.976 14.252 1.952 14.255 1.928C14.348 1.258 14.665 0.623 15.148 0.145C15.243 0.052 15.368 0 15.5 0C15.634 0 15.76 0.052 15.855 0.148C15.949 0.243 16.001 0.369 16 0.502C16 0.636 15.947 0.761 15.852 0.855C15.533 1.171 15.32 1.589 15.251 2.032C15.266 2.435 15.553 2.781 15.885 3.18C16.291 3.669 16.75 4.222 16.75 5C16.75 5.024 16.748 5.048 16.745 5.072C16.652 5.742 16.335 6.377 15.852 6.855C15.758 6.949 15.633 7 15.5 7Z" fill="#3E3F42"/>
<path d="M12 7C11.865 7 11.739 6.947 11.645 6.852C11.551 6.757 11.5 6.631 11.5 6.498C11.501 6.364 11.553 6.239 11.648 6.145C11.967 5.829 12.18 5.411 12.249 4.968C12.234 4.565 11.947 4.219 11.615 3.82C11.21 3.331 10.75 2.778 10.75 2C10.75 1.977 10.752 1.954 10.755 1.931C10.848 1.258 11.166 0.623 11.648 0.145C11.743 0.052 11.868 0 12 0C12.134 0 12.261 0.052 12.355 0.148C12.449 0.243 12.5 0.368 12.5 0.502C12.5 0.636 12.447 0.761 12.352 0.855C12.033 1.171 11.82 1.589 11.751 2.032C11.766 2.435 12.053 2.781 12.385 3.18C12.791 3.669 13.25 4.222 13.25 5C13.25 5.024 13.248 5.048 13.245 5.072C13.152 5.742 12.835 6.377 12.352 6.855C12.258 6.948 12.133 7 12 7Z" fill="#3E3F42"/>
<path d="M19.501 24C19.309 24 19.132 23.888 19.049 23.715L17.756 21H6.244L4.951 23.715C4.869 23.888 4.692 24 4.5 24C4.426 24 4.354 23.984 4.286 23.952C4.036 23.833 3.93 23.534 4.049 23.285L8.487 13.964C6.799 12.883 5.689 11.071 5.503 9.072C5.487 8.789 5.578 8.529 5.757 8.331C5.936 8.133 6.181 8.016 6.448 8.002L6.493 8H17.5C18.052 8 18.5 8.448 18.501 8.998L18.5 9.047C18.313 11.062 17.202 12.877 15.512 13.961L19.952 23.285C20.07 23.534 19.964 23.832 19.715 23.951C19.648 23.983 19.574 24 19.501 24ZM17.28 20L14.631 14.437C13.799 14.806 12.917 14.993 12.005 14.994C11.803 14.994 11.598 14.984 11.395 14.966C10.695 14.901 10.015 14.723 9.37 14.438L6.721 20H17.28ZM6.497 9.002C6.745 11.628 8.843 13.722 11.488 13.969C11.662 13.985 11.837 13.994 12.01 13.994C14.828 13.994 17.24 11.792 17.502 8.98L6.508 9C6.5 9.001 6.497 9.002 6.497 9.002Z" fill="#3E3F42"/>
</svg>
