<svg width="24" height="24" viewBox="0 0 24 24" fill="none" xmlns="http://www.w3.org/2000/svg">
<path d="M8.5 14C8.224 14 8 13.776 8 13.5C8 13.224 8.224 13 8.5 13H10.5C10.776 13 11 13.224 11 13.5C11 13.776 10.776 14 10.5 14H8.5Z" fill="#3E3F42"/>
<path d="M4.5 10C4.224 10 4 9.776 4 9.5C4 9.224 4.224 9 4.5 9H13.5C13.776 9 14 9.224 14 9.5C14 9.776 13.776 10 13.5 10H4.5Z" fill="#3E3F42"/>
<path d="M12.5 24C11.397 24 10.5 23.103 10.5 22C10.5 21.23 10.951 20.527 11.639 20.197L11.63 20H7.04L6.494 23.576C6.457 23.818 6.245 24 6 24C5.975 24 5.95 23.998 5.924 23.994C5.652 23.953 5.464 23.697 5.505 23.424L6.45 17.237C4.318 16.103 3 13.92 3 11.5C3 11.224 3.224 11 3.5 11H15V0.5C15 0.224 15.224 0 15.5 0C15.776 0 16 0.224 16 0.5V1.029C18.823 1.283 21 3.642 21 6.5C21 9.365 18.813 11.727 15.981 11.972C15.819 14.211 14.511 16.208 12.514 17.256L12.631 20.004C13.673 20.072 14.5 20.941 14.5 22C14.5 23.103 13.603 24 12.5 24ZM12.5 21C11.949 21 11.5 21.448 11.5 22C11.5 22.552 11.949 23 12.5 23C13.052 23 13.5 22.552 13.5 22C13.5 21.448 13.052 21 12.5 21ZM11.588 19L11.531 17.673C10.876 17.89 10.194 18 9.5 18C8.781 18 8.076 17.882 7.4 17.65L7.193 19H11.588ZM4.022 12C4.275 14.824 6.633 17 9.5 17C12.367 17 14.724 14.824 14.978 12H4.022ZM16 10.973C18.263 10.723 20 8.807 20 6.5C20 4.193 18.263 2.277 16 2.027V10.973Z" fill="#3E3F42"/>
</svg>
