<svg width="24" height="24" viewBox="0 0 24 24" fill="none" xmlns="http://www.w3.org/2000/svg">
<path d="M16.465 23.751C16.308 23.751 16.158 23.676 16.065 23.551L13.215 19.751H7.75699L4.90699 23.551C4.81299 23.676 4.66399 23.751 4.50699 23.751C4.39799 23.751 4.29499 23.717 4.20699 23.651C4.09999 23.571 4.03099 23.454 4.01199 23.322C3.99299 23.19 4.02699 23.058 4.10699 22.951L6.50699 19.751H2.50699C1.12799 19.751 0.00698853 18.629 0.00698853 17.251C0.00698853 15.873 1.12799 14.751 2.50699 14.751H13.724C13.862 14.751 13.995 14.693 14.089 14.592C14.095 14.586 14.118 14.563 14.124 14.557L19.641 9.713C20.09 9.233 20.755 8.948 21.446 8.948C22.096 8.948 22.713 9.192 23.185 9.636C23.677 10.099 23.959 10.726 23.98 11.402C24.001 12.079 23.758 12.722 23.295 13.214L16.49 19.307C16.222 19.583 15.83 19.749 15.427 19.751H14.463L16.863 22.951C16.943 23.057 16.977 23.189 16.958 23.321C16.939 23.453 16.87 23.571 16.763 23.651C16.677 23.716 16.574 23.751 16.465 23.751ZM2.50699 15.751C1.67999 15.751 1.00699 16.424 1.00699 17.251C1.00699 18.078 1.67999 18.751 2.50699 18.751H15.427C15.563 18.751 15.695 18.694 15.79 18.595C15.794 18.591 15.813 18.573 15.817 18.568L22.598 12.499C23.152 11.907 23.116 10.942 22.501 10.364C22.216 10.096 21.845 9.948 21.456 9.948L21.405 9.95C20.996 9.963 20.616 10.134 20.336 10.432L14.794 15.301C14.528 15.582 14.133 15.751 13.724 15.751H2.50699V15.751Z" fill="#3E3F42"/>
<path d="M6.50699 2.25098C6.23099 2.25098 6.00699 2.02698 6.00699 1.75098V0.750977C6.00699 0.474977 6.23099 0.250977 6.50699 0.250977C6.78299 0.250977 7.00699 0.474977 7.00699 0.750977V1.75098C7.00699 2.02698 6.78199 2.25098 6.50699 2.25098Z" fill="#3E3F42"/>
<path d="M9.66199 3.57094C9.52899 3.57094 9.40299 3.51894 9.30899 3.42494C9.21399 3.32994 9.16199 3.20494 9.16199 3.07094C9.16199 2.93694 9.21399 2.81194 9.30799 2.71694L10.015 2.00894C10.109 1.91494 10.235 1.86194 10.368 1.86194C10.501 1.86194 10.627 1.91394 10.721 2.00794C10.916 2.20294 10.917 2.51994 10.722 2.71494L10.015 3.42294C9.92099 3.51894 9.79499 3.57094 9.66199 3.57094Z" fill="#3E3F42"/>
<path d="M11.007 6.75098C10.731 6.75098 10.507 6.52698 10.507 6.25098C10.507 5.97498 10.731 5.75098 11.007 5.75098H12.007C12.283 5.75098 12.507 5.97498 12.507 6.25098C12.507 6.52698 12.283 6.75098 12.007 6.75098H11.007Z" fill="#3E3F42"/>
<path d="M10.369 10.642C10.235 10.642 10.11 10.59 10.015 10.496L9.30799 9.78796C9.21399 9.69396 9.16199 9.56796 9.16199 9.43396C9.16199 9.29996 9.21399 9.17496 9.30899 9.07996C9.40299 8.98596 9.52899 8.93396 9.66199 8.93396C9.79499 8.93396 9.92099 8.98596 10.016 9.07996L10.723 9.78696C10.817 9.88096 10.869 10.007 10.869 10.141C10.869 10.275 10.817 10.4 10.722 10.495C10.628 10.59 10.502 10.642 10.369 10.642Z" fill="#3E3F42"/>
<path d="M6.50699 12.251C6.23099 12.251 6.00699 12.027 6.00699 11.751V10.751C6.00699 10.475 6.23099 10.251 6.50699 10.251C6.78299 10.251 7.00699 10.475 7.00699 10.751V11.751C7.00699 12.027 6.78199 12.251 6.50699 12.251Z" fill="#3E3F42"/>
<path d="M2.591 10.6419C2.457 10.6419 2.332 10.5899 2.237 10.4959C2.142 10.4019 2.091 10.2759 2.091 10.1419C2.091 10.0079 2.143 9.88294 2.237 9.78794L2.944 9.08094C3.038 8.98694 3.164 8.93494 3.298 8.93494C3.432 8.93494 3.557 8.98694 3.652 9.08094C3.847 9.27594 3.847 9.59294 3.652 9.78794L2.945 10.4949C2.85 10.5899 2.724 10.6419 2.591 10.6419Z" fill="#3E3F42"/>
<path d="M1.00699 6.75098C0.730988 6.75098 0.506989 6.52698 0.506989 6.25098C0.506989 5.97498 0.730988 5.75098 1.00699 5.75098H2.00699C2.28299 5.75098 2.50699 5.97498 2.50699 6.25098C2.50699 6.52698 2.28299 6.75098 2.00699 6.75098H1.00699Z" fill="#3E3F42"/>
<path d="M3.298 3.57094C3.164 3.57094 3.039 3.51894 2.944 3.42394L2.237 2.71594C2.143 2.62194 2.091 2.49594 2.091 2.36194C2.091 2.22794 2.143 2.10294 2.238 2.00794C2.333 1.91394 2.458 1.86194 2.591 1.86194C2.725 1.86194 2.85 1.91394 2.945 2.00894L3.652 2.71694C3.746 2.81094 3.798 2.93694 3.798 3.07094C3.798 3.20494 3.746 3.32994 3.651 3.42494C3.556 3.51894 3.431 3.57094 3.298 3.57094Z" fill="#3E3F42"/>
<path d="M6.50699 9.26892C4.85299 9.26892 3.50699 7.92292 3.50699 6.26892C3.50699 4.61492 4.85299 3.26892 6.50699 3.26892C8.16099 3.26892 9.50699 4.61492 9.50699 6.26892C9.50699 7.92292 8.16099 9.26892 6.50699 9.26892ZM6.50699 4.26892C5.40399 4.26892 4.50699 5.16592 4.50699 6.26892C4.50699 7.37192 5.40399 8.26892 6.50699 8.26892C7.60999 8.26892 8.50699 7.37192 8.50699 6.26892C8.50699 5.16592 7.60899 4.26892 6.50699 4.26892Z" fill="#3E3F42"/>
</svg>
