<svg width="24" height="24" viewBox="0 0 24 24" fill="none" xmlns="http://www.w3.org/2000/svg">
<path d="M19.5 19.5C17.019 19.5 15 17.481 15 15C15 13.294 15.968 11.741 17.486 10.979L16.534 8.395L11.401 15.299C11.307 15.425 11.157 15.501 10.999 15.501C10.991 15.501 10.96 15.5 10.952 15.499L8.966 15.5C8.715 17.761 6.797 19.5 4.499 19.5C2.019 19.5 0 17.481 0 15C0 12.519 2.019 10.5 4.5 10.5C5.45 10.5 6.35 10.791 7.117 11.344L8.397 9.922L7.413 7.5H6.5C6.224 7.5 6 7.275 6 7C6 6.725 6.224 6.5 6.5 6.5H9.5C9.776 6.5 10 6.724 10 7C10 7.276 9.776 7.5 9.5 7.5H8.493L9.258 9.383L16.039 7.049L15.725 6.196C15.632 5.946 15.643 5.674 15.755 5.431C15.867 5.188 16.067 5.004 16.317 4.912C16.351 4.9 16.385 4.889 16.421 4.88L17.879 4.515C17.919 4.505 17.96 4.5 18.001 4.5C18.23 4.5 18.429 4.656 18.485 4.879C18.518 5.008 18.498 5.143 18.429 5.257C18.36 5.372 18.251 5.452 18.122 5.485L16.663 5.85L18.424 10.631C18.777 10.544 19.138 10.5 19.5 10.5C21.981 10.5 24 12.519 24 15C24 17.481 21.981 19.5 19.5 19.5ZM17.835 11.925C16.712 12.535 16 13.714 16 15C16 16.93 17.57 18.5 19.5 18.5C21.43 18.5 23 16.93 23 15C23 13.07 21.43 11.5 19.5 11.5C19.257 11.5 19.013 11.526 18.772 11.578L19.969 14.827C20.064 15.086 19.931 15.374 19.673 15.469C19.617 15.489 19.559 15.5 19.5 15.5C19.292 15.5 19.103 15.369 19.031 15.173L17.835 11.925ZM4.5 11.5C2.57 11.5 1 13.07 1 15C1 16.93 2.57 18.5 4.5 18.5C6.244 18.5 7.715 17.202 7.96 15.5H4.5C4.303 15.5 4.124 15.384 4.043 15.204C3.963 15.024 3.996 14.813 4.128 14.666L6.443 12.094C5.866 11.704 5.199 11.5 4.5 11.5ZM10.257 14.5L8.816 10.952L7.861 12.013C8.478 12.707 8.864 13.575 8.967 14.5H10.257ZM7.96 14.5C7.868 13.861 7.6 13.259 7.187 12.762L5.623 14.5H7.96ZM11.129 13.989L15.318 8.354L9.635 10.31L11.129 13.989Z" fill="#3E3F42"/>
</svg>
