<svg width="24" height="24" viewBox="0 0 24 24" fill="none" xmlns="http://www.w3.org/2000/svg">
<path d="M7.47202 18.5C7.88623 18.5 8.22202 18.1642 8.22202 17.75C8.22202 17.3358 7.88623 17 7.47202 17C7.0578 17 6.72202 17.3358 6.72202 17.75C6.72202 18.1642 7.0578 18.5 7.47202 18.5Z" fill="#3E3F42"/>
<path d="M13.472 18.5C13.8862 18.5 14.222 18.1642 14.222 17.75C14.222 17.3358 13.8862 17 13.472 17C13.0578 17 12.722 17.3358 12.722 17.75C12.722 18.1642 13.0578 18.5 13.472 18.5Z" fill="#3E3F42"/>
<path d="M13.472 24C13.196 24 12.972 23.776 12.972 23.5V23H7.972V23.5C7.972 23.776 7.748 24 7.472 24C7.196 24 6.972 23.776 6.972 23.5V23H4.802C3.975 23 3.302 22.327 3.301 21.501C3.301 21.361 3.32 21.222 3.359 21.087L4.788 16.087C4.934 15.576 5.342 15.188 5.845 15.054L3.077 3.98C3.038 3.823 3.025 3.659 3.039 3.491C3.04 3.476 3.042 3.462 3.045 3.447C3.067 3.258 3.116 3.095 3.191 2.945L4.249 0.829C4.504 0.318 5.018 0 5.59 0H15.354C15.926 0 16.44 0.318 16.695 0.83L17.754 2.945C17.914 3.266 17.954 3.634 17.867 3.981L17.612 5H18.472C19.85 5 20.972 6.121 20.972 7.5V12C20.972 12.276 20.748 12.5 20.472 12.5C20.196 12.5 19.972 12.276 19.972 12V7.5C19.972 6.673 19.299 6 18.472 6H17.362L15.099 15.052C15.606 15.184 16.016 15.573 16.163 16.087L17.589 21.087C17.816 21.882 17.354 22.714 16.559 22.941C16.425 22.98 16.286 23 16.146 23H13.972V23.5C13.972 23.776 13.748 24 13.472 24ZM6.23 16C6.008 16 5.811 16.149 5.75 16.362L4.321 21.362C4.308 21.407 4.302 21.454 4.302 21.5C4.302 21.775 4.526 22 4.802 22H16.147C16.194 22 16.24 21.993 16.285 21.981C16.413 21.944 16.519 21.86 16.584 21.743C16.649 21.626 16.665 21.491 16.628 21.363L15.203 16.363C15.141 16.149 14.944 16 14.722 16H6.23ZM14.082 15L16.832 4H4.113L6.862 15H7.972V8.5C7.972 8.224 8.196 8 8.472 8C8.748 8 8.972 8.224 8.972 8.5V15H11.972V8.5C11.972 8.224 12.196 8 12.472 8C12.748 8 12.972 8.224 12.972 8.5L14.082 15ZM16.663 3L15.8 1.277C15.716 1.106 15.544 1 15.354 1H5.59C5.4 1 5.229 1.106 5.143 1.276L4.282 3H16.663Z" fill="#3E3F42"/>
<path d="M10.472 21C9.64502 21 8.97202 20.327 8.97202 19.5C8.97202 18.673 9.64502 18 10.472 18C11.299 18 11.972 18.673 11.972 19.5C11.972 20.327 11.299 21 10.472 21ZM10.472 19C10.196 19 9.97202 19.224 9.97202 19.5C9.97202 19.776 10.196 20 10.472 20C10.748 20 10.972 19.776 10.972 19.5C10.972 19.224 10.748 19 10.472 19Z" fill="#3E3F42"/>
</svg>
