<svg width="24" height="24" viewBox="0 0 24 24" fill="none" xmlns="http://www.w3.org/2000/svg">
<path d="M20.5 23.003C19.122 23.003 18 21.881 18 20.503V19.003H17.087C16.259 19.003 15.587 18.333 15.584 17.508C15.584 17.466 15.585 17.421 15.589 17.376L16.301 10.702L6.009 9.011L1.099 9.993C1.066 9.999 1.033 10.003 1 10.003C0.885 10.003 0.772 9.96301 0.683 9.89001C0.567 9.79401 0.5 9.65301 0.5 9.50301V2.503C0.5 2.352 0.567 2.211 0.683 2.116C0.772 2.043 0.885 2.003 1 2.003C1.033 2.003 1.066 2.006 1.099 2.013L6.01 2.995L17.92 1.037C18.118 1.015 18.304 1.005 18.489 1.005C21.046 1.005 23.184 2.919 23.464 5.457C23.606 6.75 23.248 8.024 22.455 9.054L21.576 17.638C21.512 18.402 20.856 19.004 20.082 19.004H19V20.504C19 21.331 19.673 22.004 20.5 22.004H22.5C22.776 22.004 23 22.228 23 22.504C23 22.78 22.776 23.004 22.5 23.004H20.5V23.003ZM16.585 17.473C16.585 17.475 16.584 17.488 16.585 17.501C16.586 17.779 16.81 18.003 17.085 18.003H20.077C20.338 18.003 20.557 17.802 20.579 17.545L21.34 10.111C20.659 10.586 19.875 10.881 19.04 10.973C18.859 10.993 18.675 11.003 18.493 11.003C18.314 11.003 18.133 10.993 17.956 10.974L17.29 10.865L16.585 17.473ZM18.09 9.983C18.209 9.995 18.347 10.003 18.486 10.003C18.634 10.003 18.783 9.995 18.929 9.979C19.991 9.862 20.944 9.339 21.612 8.505C22.28 7.671 22.584 6.627 22.467 5.565C22.243 3.534 20.536 2.002 18.495 2.002C18.349 2.002 18.2 2.01 18.054 2.026L6.5 3.927V8.078L18.09 9.983ZM1.5 8.893L5.5 8.09301V3.913L1.5 3.113V8.893Z" fill="#3E3F42"/>
</svg>
