<svg width="24" height="24" viewBox="0 0 24 24" fill="none" xmlns="http://www.w3.org/2000/svg">
<path d="M5.5 24C4.949 24 4.5 23.552 4.5 23V19.576C4.5 19.477 4.529 19.381 4.584 19.299L6.5 16.425V7.727L4.584 4.853C4.529 4.771 4.5 4.675 4.5 4.576V1C4.5 0.449 4.949 0 5.5 0H8.5C9.051 0 9.5 0.449 9.5 1V4.576C9.5 4.675 9.471 4.771 9.416 4.853L7.5 7.727V16.424L9.416 19.298C9.471 19.381 9.5 19.477 9.5 19.576V23C9.5 23.552 9.051 24 8.5 24H5.5ZM5.5 23H8.5V19.727L7 17.477L5.5 19.727V23ZM7 6.675L8.5 4.425V1H5.5V4.425L7 6.675Z" fill="#3E3F42"/>
<path d="M14 24C12.622 24 11.5 22.878 11.5 21.5V10.5C11.5 10.427 11.505 8.67395 11.948 6.52395C12.363 4.50895 13.26 1.76195 15.175 0.119953C15.192 0.104953 15.227 0.0839531 15.248 0.0739531C15.256 0.0669531 15.284 0.0509531 15.315 0.0379531C15.344 0.0259531 15.374 0.0179531 15.405 0.0119531C15.436 0.00595312 15.467 0.00195312 15.5 0.00195312C15.533 0.00195312 15.563 0.00595312 15.595 0.0119531C15.626 0.0179531 15.655 0.0249531 15.685 0.0369531C15.717 0.0499531 15.745 0.0659531 15.773 0.0849531C15.772 0.0839531 15.772 0.0839531 15.772 0.0839531C15.774 0.0839531 15.8 0.0969531 15.826 0.119953C17.741 1.76095 18.638 4.50795 19.052 6.52295C19.495 8.67495 19.5 10.427 19.5 10.5V21.5C19.5 22.878 18.378 24 17 24H14ZM15.5 1.18695C12.542 4.15495 12.5 10.436 12.5 10.5V21.5C12.5 22.327 13.173 23 14 23H17C17.827 23 18.5 22.327 18.5 21.5V10.5C18.5 10.436 18.458 4.15395 15.5 1.18695Z" fill="#3E3F42"/>
<path d="M15.5 17.35C15.242 17.35 14.998 17.252 14.811 17.074L14.773 17.036L14.19 16.423C13.745 15.957 13.5 15.344 13.5 14.7V13.359C13.5 12.677 13.784 12.016 14.279 11.547L14.812 11.041C14.999 10.864 15.244 10.766 15.501 10.766C15.758 10.766 16.002 10.863 16.189 11.04L16.722 11.546C17.217 12.016 17.501 12.676 17.501 13.358V14.7C17.501 15.345 17.256 15.957 16.812 16.424L16.225 17.04C16.041 17.233 15.792 17.343 15.525 17.35C15.522 17.35 15.501 17.35 15.5 17.35ZM14.967 12.272C14.67 12.554 14.5 12.95 14.5 13.359V14.7C14.5 15.087 14.647 15.454 14.913 15.734L15.5 16.35L16.087 15.734C16.353 15.454 16.5 15.087 16.5 14.7V13.359C16.5 12.95 16.329 12.554 16.033 12.272L15.5 11.766L14.967 12.272Z" fill="#3E3F42"/>
</svg>
