<svg width="24" height="24" viewBox="0 0 24 24" fill="none" xmlns="http://www.w3.org/2000/svg">
<g clip-path="url(#clip0)">
<path d="M9.99899 6C8.34499 6 6.99899 4.654 6.99899 3C6.99899 1.653 7.90599 0.467 9.20699 0.11C9.22899 0.102 9.24799 0.098 9.25999 0.096C9.50899 0.032 9.75799 0 9.99899 0H20.999C22.653 0 23.999 1.346 23.999 3C23.999 4.654 22.653 6 20.999 6H9.99899ZM9.24699 1.148C8.49499 1.452 7.99899 2.179 7.99899 3C7.99899 4.103 8.89599 5 9.99899 5H20.999C22.102 5 22.999 4.103 22.999 3C22.999 1.897 22.102 1 20.999 1H18.999L20.095 2.096C20.29 2.291 20.29 2.608 20.095 2.803C20.001 2.897 19.875 2.949 19.741 2.949C19.607 2.949 19.482 2.897 19.387 2.803L17.585 1H14.756L15.852 2.096C16.047 2.291 16.047 2.608 15.852 2.803C15.758 2.897 15.632 2.949 15.498 2.949C15.364 2.949 15.239 2.897 15.144 2.803L13.342 1H10.514L11.61 2.096C11.805 2.291 11.805 2.608 11.61 2.803C11.515 2.897 11.39 2.949 11.256 2.949C11.122 2.949 10.997 2.897 10.902 2.803L9.24699 1.148Z" fill="#3E3F42"/>
<path d="M6.49799 20C2.93899 20 0.0229884 17.104 -0.00101157 13.544C-0.0250116 9.96 2.87099 7.025 6.45499 7H11.999C12.937 7 13.814 7.362 14.475 8.02C15.137 8.68 15.503 9.558 15.505 10.493C15.508 12.067 14.483 13.425 12.99 13.859C12.904 15.442 12.247 16.93 11.127 18.065C9.90699 19.301 8.27999 19.988 6.54399 20H6.49799ZM6.46099 8C4.99499 8.01 3.61899 8.593 2.58599 9.64C1.55299 10.687 0.989988 12.072 0.999988 13.538C1.01999 16.549 3.48699 19 6.49899 19L6.53899 19.25L6.53699 19C8.00599 18.99 9.38299 18.408 10.415 17.363C11.447 16.317 12.009 14.932 11.999 13.463C11.997 13.216 12.173 13.007 12.416 12.966C13.628 12.763 14.507 11.724 14.504 10.495C14.503 9.827 14.242 9.2 13.768 8.729C13.297 8.259 12.684 8 12.042 8H6.49899H6.46099Z" fill="#3E3F42"/>
<path d="M6.49899 17C4.56899 17 2.99899 15.43 2.99899 13.5C2.99899 11.57 4.56899 10 6.49899 10C8.42899 10 9.99899 11.57 9.99899 13.5C9.99899 15.43 8.42899 17 6.49899 17ZM6.49899 11C5.11999 11 3.99899 12.121 3.99899 13.5C3.99899 14.878 5.11999 16 6.49899 16C7.87799 16 8.99899 14.878 8.99899 13.5C8.99899 12.122 7.87799 11 6.49899 11Z" fill="#3E3F42"/>
<path d="M5.49899 13.75C5.91321 13.75 6.24899 13.4142 6.24899 13C6.24899 12.5858 5.91321 12.25 5.49899 12.25C5.08478 12.25 4.74899 12.5858 4.74899 13C4.74899 13.4142 5.08478 13.75 5.49899 13.75Z" fill="#3E3F42"/>
<path d="M23.082 13.466C22.972 13.466 22.863 13.429 22.776 13.362C22.671 13.281 22.603 13.163 22.586 13.03C22.569 12.897 22.605 12.766 22.686 12.66C23.146 12.064 23.092 11.214 22.559 10.682C21.849 9.972 21.632 8.911 22.007 7.979L21.02 7.998C20.562 8.589 20.608 9.438 21.144 9.975C21.689 10.52 21.955 11.301 21.855 12.065C21.824 12.313 21.61 12.501 21.36 12.501C21.338 12.501 21.317 12.5 21.295 12.497C21.163 12.48 21.045 12.412 20.964 12.306C20.883 12.2 20.847 12.069 20.865 11.937C20.924 11.479 20.765 11.01 20.438 10.683C19.725 9.968 19.52 8.914 19.882 8H18.907C18.437 8.585 18.49 9.437 19.028 9.974C19.43 10.376 19.685 10.909 19.746 11.474C19.76 11.607 19.722 11.737 19.638 11.841C19.554 11.945 19.435 12.01 19.302 12.024C19.286 12.026 19.266 12.027 19.247 12.027C18.992 12.027 18.779 11.835 18.752 11.58C18.716 11.241 18.563 10.922 18.322 10.681C17.426 9.786 17.342 8.36 18.126 7.366C18.324 7.131 18.607 7 18.905 7H22.007C22.138 7.002 22.256 7.024 22.362 7.064C22.61 7.158 22.807 7.342 22.915 7.584C23.024 7.826 23.032 8.095 22.939 8.343C22.71 8.91 22.84 9.548 23.266 9.975C24.154 10.862 24.244 12.279 23.477 13.272C23.383 13.395 23.238 13.466 23.082 13.466Z" fill="#3E3F42"/>
<path d="M13.705 23.9999C13.616 23.9999 13.527 23.9949 13.437 23.9859C13.128 23.9439 12.866 23.7729 12.712 23.5159L11.06 20.8939C10.992 20.7829 10.948 20.6669 10.926 20.5469C10.878 20.2849 10.935 20.0189 11.086 19.7989C11.238 19.5789 11.466 19.4309 11.729 19.3829C12.307 19.2709 12.768 18.8259 12.902 18.2489C13.16 17.1119 14.185 16.2939 15.342 16.2939C15.527 16.2939 15.713 16.3149 15.894 16.3559C16.003 16.3809 16.114 16.3929 16.225 16.3929C16.919 16.3929 17.534 15.9019 17.688 15.2239C17.944 14.0959 18.968 13.2759 20.124 13.2759C20.213 13.2759 20.303 13.2809 20.394 13.2909C20.705 13.3339 20.968 13.5059 21.122 13.7659L22.771 16.3819C22.839 16.4919 22.884 16.6079 22.906 16.7299C22.954 16.9919 22.897 17.2569 22.746 17.4769C22.595 17.6969 22.366 17.8449 22.103 17.8929C21.521 18.0049 21.058 18.4539 20.927 19.0349C20.78 19.6869 20.387 20.2419 19.823 20.5979C19.423 20.8509 18.963 20.9839 18.494 20.9839C18.308 20.9839 18.121 20.9629 17.938 20.9219C17.828 20.8969 17.716 20.8839 17.604 20.8839C16.911 20.8839 16.296 21.3759 16.143 22.0529C15.882 23.1989 14.88 23.9999 13.705 23.9999ZM13.562 22.9889C13.605 22.9979 13.658 22.9999 13.71 22.9999C14.4 22.9999 15.013 22.5079 15.166 21.8299C15.314 21.1789 15.706 20.6239 16.271 20.2679C16.672 20.0159 17.131 19.8819 17.6 19.8819C17.786 19.8819 17.974 19.9029 18.157 19.9439C18.266 19.9689 18.377 19.9809 18.488 19.9809C19.182 19.9809 19.797 19.4899 19.95 18.8119C20.169 17.8429 20.94 17.0949 21.916 16.9069L21.398 16.0789C21.351 16.0739 21.303 16.0719 21.256 16.0719C20.562 16.0719 19.947 16.5619 19.795 17.2379C19.539 18.3669 18.514 19.1859 17.358 19.1859C17.172 19.1859 16.986 19.1649 16.803 19.1239C16.694 19.0989 16.583 19.0869 16.472 19.0869C15.778 19.0869 15.163 19.5789 15.01 20.2559C14.786 21.2419 14.004 21.9769 13.04 22.1589L13.562 22.9889ZM12.434 21.1969C12.48 21.2009 12.527 21.2039 12.574 21.2039C13.268 21.2039 13.882 20.7139 14.035 20.0379C14.036 20.0349 14.037 20.0319 14.037 20.0279C14.296 18.9039 15.319 18.0889 16.474 18.0889C16.659 18.0889 16.844 18.1099 17.025 18.1509C17.136 18.1759 17.249 18.1889 17.361 18.1889C17.641 18.1889 17.917 18.1089 18.157 17.9569C18.496 17.7429 18.731 17.4109 18.82 17.0199C19.043 16.0359 19.826 15.2999 20.793 15.1179L20.269 14.2869C20.227 14.2779 20.174 14.2749 20.122 14.2749C19.42 14.2749 18.82 14.7559 18.664 15.4439C18.408 16.5719 17.383 17.3919 16.225 17.3919C16.04 17.3919 15.855 17.3709 15.674 17.3299C15.563 17.3049 15.45 17.2919 15.338 17.2919C15.058 17.2919 14.783 17.3719 14.542 17.5239C14.205 17.7359 13.97 18.0659 13.88 18.4539C13.659 19.4299 12.888 20.1769 11.913 20.3639L12.434 21.1969Z" fill="#3E3F42"/>
</g>
<defs>
<clipPath id="clip0">
<rect width="24" height="24" fill="white"/>
</clipPath>
</defs>
</svg>
