<svg width="24" height="24" viewBox="0 0 24 24" fill="none" xmlns="http://www.w3.org/2000/svg">
<g clip-path="url(#clip0)">
<path d="M2.5 20.001C2.224 20.001 2 19.777 2 19.501C2 19.225 2.224 19.001 2.5 19.001C3.051 19.001 3.5 18.553 3.5 18.001V11.501C3.5 6.95795 6.995 3.27695 11.5 3.01795V0.501953C11.5 0.225953 11.724 0.00195312 12 0.00195312C12.276 0.00195312 12.5 0.225953 12.5 0.501953V3.01795C17.005 3.27695 20.5 6.95795 20.5 11.501V18.001C20.5 18.553 20.948 19.001 21.5 19.001C21.776 19.001 22 19.225 22 19.501C22 19.777 21.776 20.001 21.5 20.001H2.5ZM19.767 19.001C19.592 18.7 19.5 18.358 19.5 18.001V11.501C19.5 7.37295 16.146 4.01195 12.02 4.00095C12.013 4.00095 12.006 4.00195 12 4.00195C11.994 4.00195 11.987 4.00195 11.98 4.00095C7.854 4.01195 4.5 7.37295 4.5 11.501V18.001C4.5 18.358 4.407 18.7 4.233 19.001H19.767V19.001Z" fill="#3E3F42"/>
<path d="M12.006 24.004C11.805 24.004 11.602 23.983 11.403 23.943C10.22 23.703 9.3 22.783 9.06 21.6C9.005 21.33 9.18 21.065 9.45 21.01C9.485 21.003 9.517 21 9.548 21C9.786 21 9.992 21.168 10.039 21.4C10.199 22.189 10.812 22.802 11.601 22.962C11.735 22.989 11.87 23.003 12.005 23.003C12.395 23.003 12.775 22.888 13.104 22.669C13.55 22.374 13.853 21.923 13.959 21.4C14.007 21.168 14.213 21 14.45 21C14.481 21 14.513 21.003 14.545 21.009C14.818 21.065 14.993 21.329 14.939 21.599C14.779 22.384 14.324 23.061 13.656 23.503C13.163 23.831 12.592 24.004 12.006 24.004Z" fill="#3E3F42"/>
<path d="M17 11.501C16.724 11.501 16.5 11.277 16.5 11.001C16.5 9.47097 15.648 8.09797 14.278 7.41797C14.158 7.35897 14.069 7.25597 14.026 7.12897C13.983 7.00197 13.993 6.86697 14.052 6.74697C14.137 6.57597 14.309 6.46997 14.5 6.46997C14.577 6.46997 14.653 6.48797 14.722 6.52197C16.435 7.37197 17.5 9.08797 17.5 11.001C17.5 11.276 17.276 11.501 17 11.501Z" fill="#3E3F42"/>
</g>
<defs>
<clipPath id="clip0">
<rect width="24" height="24" fill="white"/>
</clipPath>
</defs>
</svg>
