<svg width="24" height="24" viewBox="0 0 24 24" fill="none" xmlns="http://www.w3.org/2000/svg">
<path d="M12.302 18.5C10.923 18.5 9.802 16.93 9.802 15C9.802 13.07 10.923 11.5 12.302 11.5C13.68 11.5 14.802 13.07 14.802 15C14.802 16.93 13.681 18.5 12.302 18.5ZM12.302 12.5C11.489 12.5 10.802 13.645 10.802 15C10.802 16.355 11.489 17.5 12.302 17.5C13.115 17.5 13.802 16.355 13.802 15C13.802 13.645 13.115 12.5 12.302 12.5Z" fill="#3E3F42"/>
<path d="M12.3 24C11.197 24 8.98401 20.837 8.14601 16.56L7.01401 17.692C7.66601 18.674 7.54501 19.99 6.69601 20.838L4.22101 23.313C4.03201 23.502 3.78101 23.606 3.51401 23.606C3.24701 23.606 2.99601 23.502 2.80701 23.313L0.686005 21.192C0.497005 21.003 0.393005 20.752 0.393005 20.485C0.393005 20.218 0.497005 19.967 0.686005 19.778L3.16001 17.302C3.63201 16.83 4.26001 16.57 4.92801 16.57C5.42601 16.57 5.89801 16.713 6.30701 16.985L7.95001 15.342C7.85101 14.561 7.80001 13.773 7.80001 13C7.80001 10.347 8.41201 7.179 9.47801 4.309C10.253 2.226 11.4 0 12.3 0C13.453 0 15.145 3.74 16.032 7.261L16.961 6.332C16.297 5.334 16.431 4.004 17.31 3.155L19.779 0.686C19.96 0.504 20.218 0.4 20.486 0.4C20.754 0.4 21.011 0.504 21.193 0.685L23.314 2.806C23.503 2.995 23.607 3.246 23.607 3.513C23.607 3.78 23.503 4.031 23.314 4.22C23.314 4.22 20.804 6.731 20.783 6.751C20.316 7.202 19.7 7.451 19.048 7.451C18.559 7.451 18.077 7.305 17.67 7.036L16.296 8.41C16.631 10.033 16.8 11.576 16.8 13C16.8 19.239 13.605 24 12.3 24ZM8.99201 15.604C9.64001 19.971 11.794 22.753 12.305 22.992C12.795 22.751 15.8 19.077 15.8 13C15.8 7.021 13.016 1.611 12.29 1.033C11.57 1.624 8.80001 7.07 8.80001 13C8.80001 13.754 8.84901 14.516 8.94501 15.267C9.00101 15.372 9.01701 15.49 8.99201 15.604ZM4.92901 17.57C4.52801 17.57 4.15201 17.726 3.86801 18.009L1.39401 20.486L3.51501 22.606L5.99001 20.131C6.575 19.546 6.575 18.594 5.99001 18.009C5.70601 17.726 5.32901 17.57 4.92901 17.57ZM18.1 6.115C18.367 6.332 18.701 6.452 19.048 6.452C19.438 6.452 19.808 6.303 20.088 6.032L22.606 3.514L20.485 1.393L18.01 3.868C17.442 4.417 17.393 5.298 17.886 5.9C17.933 5.923 17.974 5.953 18.01 5.988C18.047 6.025 18.077 6.068 18.1 6.115Z" fill="#3E3F42"/>
</svg>
