<svg width="24" height="24" viewBox="0 0 24 24" fill="none" xmlns="http://www.w3.org/2000/svg">
<path d="M10.298 23.5049C10.069 23.5049 9.84501 23.4249 9.66801 23.2809C9.46101 23.1129 9.33101 22.8739 9.30301 22.6079C9.27501 22.3429 9.35301 22.0819 9.52101 21.8749C9.80301 21.5409 9.95901 21.1239 9.96301 20.6949V19.1659C9.96301 18.2319 10.61 17.4199 11.5 17.1929V12.0079C11.5 11.7319 11.724 11.5079 12 11.5079C12.276 11.5079 12.5 11.7319 12.5 12.0079V17.1929C13.39 17.4189 14.037 18.2319 14.037 19.1659V20.6979C14.04 21.1239 14.193 21.5399 14.469 21.8669C14.618 22.0499 14.698 22.2749 14.698 22.5029C14.698 23.0539 14.25 23.5029 13.699 23.5029C13.698 23.5049 10.298 23.5049 10.298 23.5049ZM12 18.1299C11.428 18.1299 10.963 18.5949 10.963 19.1669V20.6999C10.957 21.3649 10.719 22.0079 10.292 22.5129L13.698 22.5049C13.277 22.0049 13.042 21.3639 13.037 20.7029V19.1669C13.037 18.5949 12.571 18.1299 12 18.1299Z" fill="#3E3F42"/>
<path d="M3.91899 21.736C3.73799 21.736 3.55999 21.686 3.40399 21.593L0.487993 19.838C0.290993 19.721 0.138993 19.536 0.0609931 19.319C-0.0290069 19.067 -0.0170068 18.795 0.0969932 18.554C0.210993 18.312 0.411993 18.129 0.663993 18.039C1.07599 17.899 1.42499 17.621 1.64999 17.256L2.43899 15.943C2.81099 15.328 3.46299 14.961 4.18399 14.961C4.38599 14.961 4.58299 14.99 4.77399 15.048L6.75699 11.752C6.84699 11.602 7.01099 11.51 7.18599 11.51C7.27699 11.51 7.36599 11.535 7.44399 11.582C7.55799 11.651 7.63899 11.76 7.67099 11.89C7.70299 12.02 7.68299 12.154 7.61399 12.268L5.62999 15.565C6.27599 16.219 6.40999 17.25 5.92699 18.05L5.13999 19.363C4.92399 19.729 4.84199 20.164 4.90899 20.585C4.94299 20.819 4.89599 21.054 4.77699 21.252C4.59699 21.55 4.26899 21.736 3.91899 21.736ZM4.18599 15.958C3.81799 15.958 3.48599 16.145 3.29599 16.458L2.50399 17.774C2.15499 18.341 1.61899 18.769 0.993993 18.981L3.91999 20.735C3.81699 20.09 3.94499 19.42 4.27999 18.852L5.07099 17.532C5.36399 17.047 5.21299 16.415 4.73599 16.115C4.72999 16.112 4.72399 16.109 4.71799 16.105C4.71299 16.102 4.70899 16.099 4.70499 16.096C4.54599 16.007 4.36699 15.958 4.18599 15.958Z" fill="#3E3F42"/>
<path d="M20.08 21.736C19.999 21.736 19.917 21.726 19.838 21.706C19.579 21.642 19.36 21.481 19.222 21.252C19.103 21.054 19.056 20.82 19.089 20.592C19.157 20.165 19.075 19.729 18.859 19.361L18.071 18.046C17.588 17.247 17.722 16.216 18.368 15.563L16.384 12.266C16.315 12.152 16.295 12.017 16.327 11.887C16.359 11.757 16.44 11.648 16.555 11.579C16.632 11.532 16.722 11.507 16.812 11.507C16.987 11.507 17.151 11.6 17.241 11.749L19.225 15.045C19.416 14.987 19.613 14.958 19.815 14.958C20.535 14.958 21.188 15.325 21.559 15.939L22.352 17.257C22.574 17.619 22.921 17.895 23.327 18.034C23.583 18.126 23.786 18.309 23.9 18.551C24.015 18.793 24.028 19.064 23.938 19.316C23.859 19.534 23.707 19.719 23.509 19.837L20.595 21.591C20.439 21.686 20.261 21.736 20.08 21.736ZM19.728 18.869C20.054 19.421 20.181 20.092 20.077 20.743L22.994 18.981C22.376 18.769 21.842 18.342 21.496 17.78L20.701 16.458C20.515 16.15 20.174 15.958 19.812 15.958C19.631 15.958 19.452 16.006 19.294 16.098C19.289 16.102 19.284 16.105 19.278 16.108C19.271 16.112 19.263 16.117 19.255 16.12C18.788 16.407 18.632 17.044 18.927 17.53L19.715 18.845C19.72 18.854 19.724 18.862 19.728 18.869Z" fill="#3E3F42"/>
<path d="M6.54999 10.51C6.28299 10.51 6.03199 10.406 5.84299 10.217C5.65399 10.028 5.54999 9.77697 5.54999 9.50997C5.54999 9.44197 5.55699 9.37397 5.57099 9.30797C5.89999 7.68697 7.34299 6.50897 8.99899 6.50897H11.499V0.990967C11.499 0.714967 11.723 0.490967 11.999 0.490967C12.275 0.490967 12.499 0.714967 12.499 0.990967V6.50897H15C16.657 6.50897 18.099 7.68697 18.43 9.30997C18.483 9.57097 18.432 9.83797 18.285 10.061C18.138 10.284 17.912 10.436 17.651 10.489C17.587 10.502 17.519 10.509 17.451 10.509H6.54999V10.51ZM8.99899 7.50897C7.81599 7.50897 6.78599 8.34997 6.54999 9.50997H17.45C17.213 8.35097 16.183 7.50897 15 7.50897H8.99899Z" fill="#3E3F42"/>
</svg>
