<svg width="24" height="24" viewBox="0 0 24 24" fill="none" xmlns="http://www.w3.org/2000/svg">
<g clip-path="url(#clip0)">
<path d="M3.5 24C2.673 24 2 23.327 2 22.5V8.513L0.797 9.402C0.711 9.466 0.608 9.5 0.5 9.5C0.342 9.5 0.192 9.424 0.0979998 9.297C0.0189998 9.19 -0.0140002 9.058 0.00499977 8.926C0.0249998 8.794 0.0949998 8.677 0.202 8.598L11.702 0.098C11.789 0.034 11.892 0 12 0C12.108 0 12.211 0.034 12.297 0.098L23.797 8.598C23.904 8.677 23.974 8.794 23.994 8.926C24.014 9.058 23.981 9.19 23.901 9.298C23.809 9.424 23.658 9.5 23.5 9.5C23.392 9.5 23.289 9.466 23.203 9.402L22 8.513V22.5C22 23.327 21.327 24 20.5 24H3.5ZM3 22.5C3 22.776 3.224 23 3.5 23H20.5C20.776 23 21 22.776 21 22.5V7.774L12 1.122L3 7.774V22.5Z" fill="#3E3F42"/>
<path d="M8.76299 20.5C8.59599 20.5 8.44099 20.418 8.34799 20.28C8.19399 20.052 8.25399 19.74 8.48199 19.586C9.19099 19.107 9.65499 18.348 9.75899 17.5C9.65499 16.652 9.19099 15.893 8.48199 15.415C7.51199 14.76 6.88599 13.717 6.76399 12.552C6.75999 12.518 6.75999 12.483 6.76399 12.448C6.88499 11.285 7.51099 10.241 8.48099 9.586C8.56599 9.53 8.66299 9.5 8.76299 9.5C8.92999 9.5 9.08499 9.582 9.17799 9.721C9.25299 9.831 9.27999 9.965 9.25399 10.096C9.22799 10.227 9.15399 10.341 9.04299 10.415C8.33399 10.893 7.86999 11.652 7.76599 12.5C7.86999 13.348 8.33399 14.107 9.04299 14.585C10.013 15.24 10.639 16.283 10.761 17.448C10.765 17.482 10.765 17.517 10.761 17.552C10.64 18.716 10.014 19.759 9.04399 20.414C8.95899 20.47 8.86299 20.5 8.76299 20.5Z" fill="#3E3F42"/>
<path d="M15.882 20.5C15.715 20.5 15.56 20.418 15.467 20.28C15.313 20.051 15.373 19.74 15.602 19.586C16.311 19.107 16.775 18.348 16.879 17.5C16.775 16.652 16.311 15.893 15.602 15.415C14.632 14.76 14.006 13.717 13.884 12.552C13.88 12.519 13.88 12.482 13.884 12.446C14.005 11.284 14.631 10.241 15.601 9.586C15.685 9.53 15.782 9.5 15.882 9.5C16.049 9.5 16.204 9.582 16.297 9.72C16.372 9.831 16.399 9.964 16.374 10.095C16.348 10.226 16.273 10.34 16.163 10.414C15.454 10.893 14.99 11.652 14.887 12.5C14.99 13.348 15.454 14.107 16.164 14.585C17.134 15.24 17.76 16.283 17.881 17.448C17.885 17.481 17.885 17.518 17.881 17.554C17.76 18.716 17.134 19.759 16.164 20.414C16.078 20.471 15.982 20.5 15.882 20.5Z" fill="#3E3F42"/>
</g>
<defs>
<clipPath id="clip0">
<rect width="24" height="24" fill="white"/>
</clipPath>
</defs>
</svg>
