<svg width="24" height="24" viewBox="0 0 24 24" fill="none" xmlns="http://www.w3.org/2000/svg">
<path d="M18.5 24C18.261 24 18.055 23.83 18.01 23.595L17.31 20H12.5V23.5C12.5 23.776 12.276 24 12 24C11.724 24 11.5 23.776 11.5 23.5V20H6.69L5.991 23.595C5.945 23.83 5.739 24 5.5 24C5.468 24 5.436 23.997 5.404 23.991C5.134 23.938 4.957 23.675 5.009 23.405L8.393 6H8C7.173 6 6.5 5.327 6.5 4.5V4C5.397 4 4.5 3.103 4.5 2C4.5 0.897 5.397 0 6.5 0H17.5C18.603 0 19.5 0.897 19.5 2C19.5 3.103 18.603 4 17.5 4V4.5C17.5 5.327 16.827 6 16 6H15.606L18.99 23.405C19.016 23.536 18.989 23.669 18.914 23.78C18.839 23.891 18.726 23.966 18.595 23.991C18.563 23.997 18.532 24 18.5 24ZM17.116 19L16.922 18H12.5V19H17.116ZM11.5 19V18H7.079L6.885 19H11.5ZM16.727 17L14.588 6H12.5V17H16.727ZM11.5 17V6H9.412L7.273 17H11.5ZM7.5 4.5C7.5 4.776 7.724 5 8 5H16C16.276 5 16.5 4.776 16.5 4.5V4H7.5V4.5ZM6.5 1C5.949 1 5.5 1.449 5.5 2C5.5 2.551 5.949 3 6.5 3H17.5C18.052 3 18.5 2.551 18.5 2C18.5 1.449 18.052 1 17.5 1H6.5Z" fill="#3E3F42"/>
</svg>
