<svg width="24" height="24" viewBox="0 0 24 24" fill="none" xmlns="http://www.w3.org/2000/svg">
<g clip-path="url(#clip0)">
<path d="M8.75 12.998C8.336 12.998 8 12.662 8 12.248C8 11.834 8.336 11.498 8.75 11.498C9.164 11.498 9.5 11.835 9.5 12.248C9.5 12.661 9.164 12.998 8.75 12.998Z" fill="#3E3F42"/>
<path d="M15.25 12.998C14.836 12.998 14.5 12.662 14.5 12.248C14.5 11.834 14.836 11.498 15.25 11.498C15.664 11.498 16 11.835 16 12.248C16 12.661 15.664 12.998 15.25 12.998Z" fill="#3E3F42"/>
<path d="M12.006 19C11.652 19 11.297 18.952 10.951 18.856C9.934 18.576 9.087 17.916 8.566 16.999C8.43 16.759 8.514 16.453 8.754 16.317C8.829 16.275 8.914 16.252 9.001 16.252C9.181 16.252 9.347 16.349 9.436 16.505C9.959 17.426 10.944 17.998 12.007 17.998C12.514 17.998 13.016 17.865 13.458 17.614C13.921 17.351 14.304 16.968 14.567 16.505C14.655 16.349 14.822 16.252 15.001 16.252C15.087 16.252 15.173 16.275 15.248 16.318C15.364 16.384 15.447 16.491 15.483 16.62C15.518 16.749 15.502 16.884 15.435 17C15.083 17.62 14.57 18.133 13.951 18.484C13.355 18.822 12.683 19 12.006 19Z" fill="#3E3F42"/>
<path d="M11.996 23.997C7.194 23.997 2.937 20.641 1.8 15.989C0.791 15.887 0 15.033 0 13.998C0 13.034 0.676 12.223 1.602 12.037C2.104 8.46805 4.454 5.36005 7.772 3.89105C7.806 3.87205 7.837 3.86105 7.857 3.85405C8.833 3.43005 9.88 3.15705 10.951 3.04905C11.303 3.01405 11.66 2.99605 12.012 2.99605C13.201 2.99605 14.366 3.19505 15.481 3.58805C15.384 2.48805 14.787 1.50905 13.838 0.924047C13.604 0.779047 13.531 0.471047 13.675 0.236047C13.767 0.0870469 13.926 -0.00195312 14.101 -0.00195312C14.194 -0.00195312 14.284 0.0240469 14.364 0.0730469C15.727 0.914047 16.534 2.40905 16.498 4.00705C17.267 4.37305 17.989 4.83005 18.647 5.36805C20.706 7.05105 22.033 9.41405 22.399 12.038C23.324 12.224 24 13.034 24 13.998C24 15.033 23.209 15.888 22.2 15.988C21.239 19.926 18.075 22.976 14.09 23.785C13.4 23.925 12.696 23.997 11.996 23.997ZM2.2 14.985C2.437 14.985 2.643 15.153 2.69 15.385C3.586 19.795 7.499 22.996 11.996 22.996C11.996 22.996 11.996 22.996 11.997 22.996C12.629 22.996 13.266 22.932 13.891 22.805C17.638 22.045 20.55 19.132 21.31 15.386C21.357 15.154 21.564 14.986 21.802 14.986C21.821 14.986 21.841 14.987 21.86 14.989C21.91 14.995 21.956 14.998 22.002 14.999C22.552 14.999 23 14.551 23 13.999C23 13.447 22.552 12.999 22 12.999H21.95C21.692 12.999 21.478 12.806 21.452 12.549C21.199 10.024 19.977 7.74905 18.013 6.14305C17.496 5.72105 16.938 5.35305 16.348 5.04805C16.236 5.48105 16.062 5.88905 15.83 6.26505C15.005 7.60305 13.57 8.40105 11.993 8.40105C11.161 8.40105 10.347 8.17005 9.638 7.73205C8.659 7.12905 7.949 6.16605 7.653 5.05605C4.812 6.52805 2.866 9.37105 2.548 12.548C2.522 12.805 2.308 12.998 2.05 12.998H2C1.449 12.998 1 13.446 1 13.998C1 14.263 1.106 14.514 1.297 14.704C1.488 14.893 1.739 14.997 2.004 14.997C2.047 14.997 2.091 14.994 2.135 14.988C2.16 14.987 2.18 14.985 2.2 14.985ZM8.585 4.63705C8.786 5.56105 9.365 6.39005 10.163 6.88205C10.715 7.22205 11.348 7.40205 11.995 7.40205C13.222 7.40205 14.338 6.78105 14.98 5.74005C15.193 5.39505 15.342 5.02205 15.425 4.63005C14.339 4.20905 13.195 3.99605 12.021 3.99605C11.7 3.99605 11.374 4.01205 11.053 4.04505C10.208 4.12905 9.38 4.32805 8.585 4.63705Z" fill="#3E3F42"/>
</g>
<defs>
<clipPath id="clip0">
<rect width="24" height="24" fill="white"/>
</clipPath>
</defs>
</svg>
