<svg width="24" height="24" viewBox="0 0 24 24" fill="none" xmlns="http://www.w3.org/2000/svg">
<path d="M1.5 24C0.673 24 0 23.327 0 22.5V1.5C0 0.673 0.673 0 1.5 0H22.5C23.327 0 24 0.673 24 1.5V3.5C24 4.327 23.327 5 22.5 5H21.809L20.223 8.171C19.985 8.646 19.524 8.955 19 8.995V10C19 10.551 18.552 11 18 11H14C13.448 11 13 10.551 13 10V8.995C12.476 8.954 12.015 8.646 11.777 8.17L10.191 5H8V21H12V18.618L10.915 16.448C10.846 16.31 10.809 16.155 10.809 16C10.809 15.448 11.258 15 11.809 15H20C20.552 15 21 15.448 21 16V21H22.5C23.327 21 24 21.673 24 22.5C24 23.327 23.327 24 22.5 24H1.5ZM1 22.5C1 22.776 1.224 23 1.5 23H22.5C22.776 23 23 22.776 23 22.5C23 22.224 22.776 22 22.5 22H8C7.449 22 7 21.552 7 21V5C7 4.449 7.449 4 8 4H22.5C22.776 4 23 3.776 23 3.5V1.5C23 1.224 22.776 1 22.5 1H5V15C5 15.552 4.551 16 4 16H1V22.5ZM20 21V16H11.809L12.894 18.17C12.963 18.308 13 18.463 13 18.618V21H20ZM4 15V1H1.5C1.224 1 1 1.224 1 1.5V3H1.5C1.776 3 2 3.224 2 3.5C2 3.776 1.776 4 1.5 4H1V6H1.5C1.776 6 2 6.224 2 6.5C2 6.776 1.776 7 1.5 7H1V9H1.5C1.776 9 2 9.224 2 9.5C2 9.776 1.776 10 1.5 10H1V12H1.5C1.776 12 2 12.224 2 12.5C2 12.776 1.776 13 1.5 13H1V15H4ZM14 10H18V9H14V10ZM12.671 7.723C12.756 7.894 12.928 8 13.118 8H18.882C19.072 8 19.243 7.894 19.329 7.724L20.691 5H11.309L12.671 7.723Z" fill="#3E3F42"/>
<path d="M23.5 18C23.224 18 23 17.776 23 17.5V15.5C23 14.673 22.327 14 21.5 14H14.5C14.224 14 14 13.776 14 13.5C14 13.224 14.224 13 14.5 13H21.5C22.878 13 24 14.122 24 15.5V17.5C24 17.776 23.776 18 23.5 18Z" fill="#3E3F42"/>
</svg>
