<svg width="24" height="24" viewBox="0 0 24 24" fill="none" xmlns="http://www.w3.org/2000/svg">
<path d="M7 23.5C6.724 23.5 6.5 23.276 6.5 23C6.5 21.811 7.677 20.782 9.584 20.293L9.934 17.5H1.5C0.673 17.5 0 16.827 0 16V2C0 1.173 0.673 0.5 1.5 0.5H22.5C23.327 0.5 24 1.173 24 2V16C24 16.827 23.327 17.5 22.5 17.5H14.066L14.416 20.293C16.323 20.782 17.5 21.811 17.5 23C17.5 23.276 17.276 23.5 17 23.5H7ZM16.338 22.5C15.963 21.922 14.966 21.406 13.7 21.16L13.607 21.143C13.499 21.123 13.406 21.108 13.311 21.094C13.254 21.086 13.198 21.079 13.141 21.072L13.081 21.065C13.016 21.057 12.951 21.049 12.885 21.042C12.824 21.036 12.763 21.032 12.702 21.028L12.58 21.02C12.535 21.017 12.49 21.013 12.445 21.011C12.302 21.004 12.159 21 12.017 21H12C11.684 21.002 11.383 21.017 11.088 21.046L10.967 21.06C10.868 21.071 10.771 21.083 10.674 21.097C10.59 21.109 10.506 21.124 10.422 21.139L10.295 21.162C9.032 21.408 8.037 21.924 7.662 22.501H16.338V22.5ZM10.617 20.094C10.626 20.093 10.758 20.075 10.758 20.075C10.854 20.064 10.949 20.054 11.046 20.045C11.133 20.037 11.221 20.03 11.309 20.024C11.309 20.024 11.452 20.014 11.503 20.012C11.664 20.005 11.826 20 11.988 20H12.031C12.194 20 12.357 20.005 12.521 20.013L12.659 20.022C12.766 20.029 12.872 20.037 12.978 20.047C13.065 20.055 13.152 20.064 13.238 20.075C13.238 20.075 13.38 20.094 13.384 20.094L13.059 17.5H10.942L10.617 20.094ZM1.5 1.5C1.224 1.5 1 1.724 1 2V16C1 16.276 1.224 16.5 1.5 16.5H22.5C22.776 16.5 23 16.276 23 16V2C23 1.724 22.776 1.5 22.5 1.5H1.5Z" fill="#3E3F42"/>
</svg>
