<svg width="24" height="24" viewBox="0 0 24 24" fill="none" xmlns="http://www.w3.org/2000/svg">
<path d="M7.5 24C7.224 24 7 23.776 7 23.5V8.961C5.3 8.716 4 7.238 4 5.5V0.5C4 0.224 4.224 0 4.5 0C4.776 0 5 0.224 5 0.5V5.5C5 6.687 5.859 7.713 7 7.948V0.5C7 0.224 7.224 0 7.5 0C7.776 0 8 0.224 8 0.5V7.948C9.141 7.713 10 6.687 10 5.5V0.5C10 0.224 10.224 0 10.5 0C10.776 0 11 0.224 11 0.5V5.5C11 7.238 9.7 8.716 8 8.961V23.5C8 23.776 7.776 24 7.5 24Z" fill="#3E3F42"/>
<path d="M16.5 24C16.224 24 16 23.776 16 23.5V8.961C14.3 8.716 13 7.238 13 5.5V3.5C13 1.57 14.57 0 16.5 0C18.43 0 20 1.57 20 3.5V5.5C20 7.238 18.7 8.716 17 8.961V23.5C17 23.776 16.776 24 16.5 24ZM16.5 1C15.122 1 14 2.121 14 3.5V5.5C14 6.879 15.122 8 16.5 8C17.878 8 19 6.879 19 5.5V3.5C19 2.121 17.878 1 16.5 1Z" fill="#3E3F42"/>
</svg>
