<svg width="24" height="24" viewBox="0 0 24 24" fill="none" xmlns="http://www.w3.org/2000/svg">
<path d="M0.5 21.688C0.224 21.688 0 21.464 0 21.188C0 20.912 0.224 20.688 0.5 20.688H3V11.686H2.02C1.707 11.686 1.408 11.537 1.22 11.286C0.889 10.845 0.979 10.217 1.42 9.88596L11.409 2.50596C11.583 2.37696 11.789 2.30896 12.003 2.30896C12.217 2.30896 12.423 2.37696 12.597 2.50496L17 5.75996V4.68796C17 4.13696 17.448 3.68796 18 3.68796H20C20.552 3.68796 21 4.13696 21 4.68796V8.71696L22.579 9.88396C22.832 10.074 22.982 10.373 22.982 10.686C22.982 11.237 22.534 11.686 21.982 11.686H21V20.688H23.5C23.776 20.688 24 20.912 24 21.188C24 21.464 23.776 21.688 23.5 21.688H0.5ZM20 20.688V11.686H4V20.688H5V19.688C5 19.136 5.449 18.688 6 18.688V14.688C6 14.136 6.449 13.688 7 13.688H10C10.551 13.688 11 14.136 11 14.688V18.688C11.551 18.688 12 19.136 12 19.688V20.688H20ZM11 20.688V19.688H6V20.688H11ZM10 18.688V14.688H7V18.688H10ZM2.017 10.688L21.982 10.686L20.277 9.42596C20.23 9.40196 20.186 9.36996 20.147 9.32996L17.289 7.21796C17.232 7.19096 17.182 7.15396 17.138 7.10596L12.003 3.30996L2.017 10.688ZM20 7.97696V4.68796H18V6.49896L20 7.97696Z" fill="#3E3F42"/>
<path d="M14 18.688C13.448 18.688 13 18.24 13 17.688V14.688C13 14.136 13.448 13.688 14 13.688H18C18.552 13.688 19 14.136 19 14.688V17.688C19 18.24 18.552 18.688 18 18.688H14ZM14 17.688H18V14.688H14V17.688Z" fill="#3E3F42"/>
</svg>
