<svg width="24" height="24" viewBox="0 0 24 24" fill="none" xmlns="http://www.w3.org/2000/svg">
<path d="M4.5 24C3.121 24 2 22.878 2 21.5V2.5C2 1.121 3.121 0 4.5 0H19.5C20.878 0 22 1.121 22 2.5V21.5C22 22.878 20.878 24 19.5 24H4.5ZM3 21.5C3 22.327 3.673 23 4.5 23H19.5C20.327 23 21 22.327 21 21.5V7H3V21.5ZM21 6V2.5C21 1.673 20.327 1 19.5 1H4.5C3.673 1 3 1.673 3 2.5V6H21Z" fill="#3E3F42"/>
<path d="M12 21C10.13 21 8.341 20.107 7.21 18.609C7.204 18.602 7.198 18.596 7.193 18.589C7.185 18.579 7.178 18.568 7.171 18.555C6.408 17.529 6 16.295 6 15C6 11.692 8.692 9 12 9C15.308 9 18 11.692 18 15C18 16.301 17.589 17.538 16.812 18.58C16.811 18.582 16.809 18.584 16.808 18.586C15.677 20.098 13.88 21 12 21ZM8.31 18.37C9.259 19.409 10.589 20 12 20C13.411 20 14.741 19.409 15.689 18.371L13.673 16.853C13.215 17.266 12.617 17.5 12 17.5C11.383 17.5 10.785 17.266 10.327 16.853L8.31 18.37ZM16.288 17.57C16.755 16.794 17 15.911 17 15C17 12.418 15.044 10.284 12.5 10.032V12.551C13.655 12.785 14.5 13.801 14.5 15C14.5 15.361 14.42 15.72 14.267 16.048L16.288 17.57ZM11.5 10.032C8.956 10.284 7 12.418 7 15C7 15.911 7.245 16.793 7.712 17.569L9.733 16.048C9.58 15.72 9.5 15.361 9.5 15C9.5 13.801 10.345 12.785 11.5 12.551V10.032ZM12 13.5C11.173 13.5 10.5 14.173 10.5 15C10.5 15.827 11.173 16.5 12 16.5C12.827 16.5 13.5 15.827 13.5 15C13.5 14.173 12.827 13.5 12 13.5Z" fill="#3E3F42"/>
<path d="M5.19103 5C5.00003 5 4.82903 4.894 4.74403 4.724L4.10603 3.448C3.98603 3.209 3.96703 2.938 4.05103 2.685C4.13503 2.431 4.31303 2.226 4.55203 2.106C4.69103 2.037 4.84603 2 5.00003 2H9.38203C9.93303 2 10.382 2.449 10.382 3C10.382 3.155 10.345 3.31 10.276 3.448L9.77603 4.448C9.60603 4.788 9.26303 5 8.88203 5H5.19103ZM8.88203 4L9.38203 3H5.00003L5.50003 4H8.88203Z" fill="#3E3F42"/>
<path d="M14 4.5C14.4142 4.5 14.75 4.16421 14.75 3.75C14.75 3.33579 14.4142 3 14 3C13.5858 3 13.25 3.33579 13.25 3.75C13.25 4.16421 13.5858 4.5 14 4.5Z" fill="#3E3F42"/>
<path d="M17.5 4.5C17.9142 4.5 18.25 4.16421 18.25 3.75C18.25 3.33579 17.9142 3 17.5 3C17.0858 3 16.75 3.33579 16.75 3.75C16.75 4.16421 17.0858 4.5 17.5 4.5Z" fill="#3E3F42"/>
</svg>
