<svg width="24" height="24" viewBox="0 0 24 24" fill="none" xmlns="http://www.w3.org/2000/svg">
<g clip-path="url(#clip0)">
<path d="M14.25 24.002C13.287 24 12.502 23.215 12.5 22.253V13.345C11.93 13.842 11.25 14.19 10.5 14.368V17.002C10.5 17.829 9.827 18.502 9 18.502H7C6.173 18.502 5.5 17.829 5.5 17.002V14.502H4.75C3.785 14.502 3 13.717 3 12.752C3 11.787 3.785 11.002 4.75 11.002H9.4C9.874 11.002 10.301 10.738 10.514 10.314L10.631 10.079C11.269 8.79795 12.554 8.00195 13.985 8.00195H17.5C19.43 8.00195 21 9.57195 21 11.502V16.252C21 17.217 20.215 18.002 19.25 18.002C18.988 18.002 18.732 17.943 18.5 17.833V22.252C18.498 23.215 17.713 24 16.751 24.002H14.25ZM16.75 23.002C17.162 23.001 17.499 22.664 17.5 22.251V12.002C17.5 11.726 17.724 11.502 18 11.502C18.276 11.502 18.5 11.726 18.5 12.002V16.252C18.5 16.666 18.836 17.002 19.25 17.002C19.664 17.002 20 16.665 20 16.252V11.502C20 10.123 18.878 9.00195 17.5 9.00195H13.986C12.937 9.00295 11.994 9.58595 11.526 10.525L11.408 10.762C11.204 11.168 10.892 11.494 10.499 11.713V13.331C11.367 13.066 12.095 12.505 12.573 11.726C12.663 11.579 12.826 11.487 12.999 11.487C13.045 11.487 13.091 11.493 13.135 11.506C13.349 11.567 13.499 11.764 13.499 11.987V22.252C13.5 22.664 13.837 23.001 14.25 23.002H15V17.002C15 16.726 15.224 16.502 15.5 16.502C15.776 16.502 16 16.726 16 17.002V23.002H16.75ZM6.5 17.002C6.5 17.278 6.724 17.502 7 17.502H9C9.276 17.502 9.5 17.278 9.5 17.002V11.999C9.466 12.001 9.433 12.002 9.4 12.002H6.5V17.002ZM4.75 12.002C4.336 12.002 4 12.338 4 12.752C4 13.166 4.336 13.502 4.75 13.502H5.5V12.002H4.75Z" fill="#3E3F42"/>
<path d="M15.5 7.00193C13.846 7.00193 12.5 5.65593 12.5 4.00193V1.35693C12.499 0.93393 12.766 0.55193 13.164 0.40693C13.915 0.13893 14.701 0.00292969 15.5 0.00292969C16.299 0.00292969 17.084 0.13793 17.833 0.40593C18.234 0.55193 18.501 0.93393 18.5 1.35893V4.00193C18.5 5.65593 17.154 7.00193 15.5 7.00193ZM13.5 4.00193C13.5 5.10493 14.397 6.00193 15.5 6.00193C16.603 6.00193 17.5 5.10493 17.5 4.00193H13.5ZM17.5 3.00193V1.35693C16.855 1.11893 16.184 1.00293 15.5 1.00293C14.816 1.00293 14.144 1.11893 13.503 1.34793L13.5 3.00193H17.5Z" fill="#3E3F42"/>
</g>
<defs>
<clipPath id="clip0">
<rect width="24" height="24" fill="white"/>
</clipPath>
</defs>
</svg>
