<svg width="24" height="24" viewBox="0 0 24 24" fill="none" xmlns="http://www.w3.org/2000/svg">
<path d="M21.5 21C21.224 21 21 20.776 21 20.5V20H3V20.5C3 20.776 2.776 21 2.5 21C2.224 21 2 20.776 2 20.5V19.949C0.845 19.715 0 18.699 0 17.5V15.5C0 14.122 1.121 13 2.5 13H21.5C22.878 13 24 14.122 24 15.5V17.5C24 18.699 23.155 19.715 22 19.949V20.5C22 20.776 21.776 21 21.5 21ZM2.5 14C1.673 14 1 14.673 1 15.5V17.5C1 18.327 1.673 19 2.5 19H21.5C22.327 19 23 18.327 23 17.5V15.5C23 14.673 22.327 14 21.5 14H2.5Z" fill="#3E3F42"/>
<path d="M19.5 18C18.673 18 18 17.327 18 16.5C18 15.673 18.673 15 19.5 15C20.327 15 21 15.673 21 16.5C21 17.327 20.327 18 19.5 18ZM19.5 16C19.224 16 19 16.224 19 16.5C19 16.776 19.224 17 19.5 17C19.776 17 20 16.776 20 16.5C20 16.224 19.776 16 19.5 16Z" fill="#3E3F42"/>
<path d="M3 17C2.724 17 2.5 16.776 2.5 16.5C2.5 16.224 2.724 16 3 16H15C15.276 16 15.5 16.224 15.5 16.5C15.5 16.776 15.276 17 15 17H3Z" fill="#3E3F42"/>
<path d="M19 12C18.724 12 18.5 11.776 18.5 11.5C18.5 7.365 15.135 4 11 4C6.865 4 3.5 7.365 3.5 11.5C3.5 11.776 3.276 12 3 12C2.724 12 2.5 11.776 2.5 11.5C2.5 6.813 6.313 3 11 3C15.687 3 19.5 6.813 19.5 11.5C19.5 11.776 19.276 12 19 12Z" fill="#3E3F42"/>
<path d="M7 9C6.891 9 6.787 8.965 6.7 8.9C6.593 8.82 6.524 8.703 6.505 8.571C6.486 8.438 6.52 8.307 6.6 8.2C7.633 6.822 9.278 6 11 6C11.276 6 11.5 6.224 11.5 6.5C11.5 6.776 11.276 7 11 7C9.591 7 8.245 7.673 7.4 8.8C7.306 8.925 7.156 9 7 9Z" fill="#3E3F42"/>
<path d="M12.5 12C12.224 12 12 11.776 12 11.5C12 10.949 11.551 10.5 11 10.5C10.449 10.5 10 10.949 10 11.5C10 11.776 9.776 12 9.5 12C9.224 12 9 11.776 9 11.5C9 10.397 9.897 9.5 11 9.5C12.103 9.5 13 10.397 13 11.5C13 11.776 12.776 12 12.5 12Z" fill="#3E3F42"/>
</svg>
