<svg width="24" height="24" viewBox="0 0 24 24" fill="none" xmlns="http://www.w3.org/2000/svg">
<g clip-path="url(#clip0)">
<path d="M4.5 24C3.673 24 3 23.327 3 22.5V13.5C3 13.224 3.225 13 3.5 13C3.775 13 4 13.224 4 13.5V22.5C4 22.776 4.225 23 4.5 23H19.5C19.776 23 20 22.776 20 22.5V14C20 13.724 20.224 13.5 20.5 13.5C20.776 13.5 21 13.724 21 14V22.5C21 23.327 20.327 24 19.5 24H4.5Z" fill="#3E3F42"/>
<path d="M23.5 13.5C23.366 13.5 23.241 13.448 23.146 13.354L21.177 11.385C20.982 11.19 20.982 10.873 21.177 10.678C21.271 10.584 21.397 10.532 21.531 10.532C21.665 10.532 21.79 10.584 21.885 10.678L23.854 12.647C23.948 12.741 24 12.866 24 13C24 13.134 23.948 13.259 23.854 13.354C23.76 13.449 23.634 13.5 23.5 13.5Z" fill="#3E3F42"/>
<path d="M0.500006 13.5C0.366006 13.5 0.241006 13.448 0.146006 13.354C-0.0489941 13.159 -0.0489941 12.842 0.146006 12.647L11.646 1.147C11.741 1.052 11.867 1 12 1C12.133 1 12.259 1.052 12.354 1.146L13.917 2.709C14.112 2.904 14.112 3.221 13.917 3.416C13.823 3.51 13.697 3.562 13.563 3.562C13.429 3.562 13.304 3.51 13.209 3.416L12 2.207L0.854006 13.354C0.759006 13.448 0.634006 13.5 0.500006 13.5Z" fill="#3E3F42"/>
<path d="M13.307 17.7C13.212 17.7 13.119 17.673 13.039 17.622C12.834 17.493 12.752 17.236 12.844 17.011L15.704 10H13.563C13.296 10 13.045 9.896 12.856 9.707C12.667 9.518 12.563 9.267 12.563 8.999C12.563 8.833 12.605 8.667 12.685 8.521L17.03 0.522C17.205 0.2 17.542 0 17.909 0H21.253C21.805 0.001 22.253 0.45 22.253 1.001C22.252 1.188 22.2 1.37 22.103 1.527L19.325 6H21.954C22.222 6 22.473 6.104 22.661 6.294C22.85 6.483 22.953 6.734 22.953 7.001C22.953 7.25 22.86 7.49 22.692 7.674L13.676 17.537C13.582 17.641 13.447 17.7 13.307 17.7ZM13.563 9H16.448C16.615 9 16.77 9.083 16.863 9.221C16.956 9.36 16.974 9.534 16.911 9.689L14.828 14.796L21.954 7H18.426C18.245 7 18.077 6.902 17.989 6.743C17.901 6.584 17.905 6.39 18.001 6.236L21.252 1H17.909L13.563 9Z" fill="#3E3F42"/>
</g>
<defs>
<clipPath id="clip0">
<rect width="24" height="24" fill="white"/>
</clipPath>
</defs>
</svg>
