<svg width="24" height="24" viewBox="0 0 24 24" fill="none" xmlns="http://www.w3.org/2000/svg">
<path d="M1.5 24C0.673 24 0 23.327 0 22.5V1.5C0 0.673 0.673 0 1.5 0H22.5C23.327 0 24 0.673 24 1.5V22.5C24 23.327 23.327 24 22.5 24H1.5ZM22.5 23C22.776 23 23 22.776 23 22.5V1.5C23 1.224 22.776 1 22.5 1H1.5C1.224 1 1 1.224 1 1.5V22.5C1 22.776 1.224 23 1.5 23H3V7C3 6.449 3.449 6 4 6H17C17.552 6 18 6.449 18 7V23H22.5ZM17 23V7H11V23H17ZM10 23V7H4V23H10Z" fill="#3E3F42"/>
<path d="M20.5 12.5C19.673 12.5 19 11.827 19 11C19 10.173 19.673 9.5 20.5 9.5C21.327 9.5 22 10.173 22 11C22 11.827 21.327 12.5 20.5 12.5ZM20.5 10.5C20.224 10.5 20 10.724 20 11C20 11.276 20.224 11.5 20.5 11.5C20.776 11.5 21 11.276 21 11C21 10.724 20.776 10.5 20.5 10.5Z" fill="#3E3F42"/>
<path d="M20.5 17.5C19.673 17.5 19 16.827 19 16C19 15.173 19.673 14.5 20.5 14.5C21.327 14.5 22 15.173 22 16C22 16.827 21.327 17.5 20.5 17.5ZM20.5 15.5C20.224 15.5 20 15.724 20 16C20 16.276 20.224 16.5 20.5 16.5C20.776 16.5 21 16.276 21 16C21 15.724 20.776 15.5 20.5 15.5Z" fill="#3E3F42"/>
<path d="M8.5 4C8.224 4 8 3.776 8 3.5C8 3.224 8.224 3 8.5 3H12.5C12.776 3 13 3.224 13 3.5C13 3.776 12.776 4 12.5 4H8.5Z" fill="#3E3F42"/>
</svg>
