<svg width="24" height="24" viewBox="0 0 24 24" fill="none" xmlns="http://www.w3.org/2000/svg">
<path d="M1.5 24C0.673 24 0 23.327 0 22.5V3.5C0 2.673 0.673 2 1.5 2H3.5C3.776 2 4 2.224 4 2.5C4 2.776 3.776 3 3.5 3H1.5C1.224 3 1 3.224 1 3.5V22.5C1 22.776 1.224 23 1.5 23H10C10.276 23 10.5 23.224 10.5 23.5C10.5 23.776 10.276 24 10 24H1.5Z" fill="#3E3F42"/>
<path d="M18.5 10C18.224 10 18 9.776 18 9.5V3.5C18 3.224 17.776 3 17.5 3H15.5C15.224 3 15 2.776 15 2.5C15 2.224 15.224 2 15.5 2H17.5C18.327 2 19 2.673 19 3.5V9.5C19 9.776 18.776 10 18.5 10Z" fill="#3E3F42"/>
<path d="M3 22C2.449 22 2 21.552 2 21V5C2 4.449 2.449 4 3 4H5V2.5C5 2.224 5.224 2 5.5 2H7.05C7.284 0.845 8.3 0 9.5 0C10.7 0 11.716 0.845 11.95 2H13.5C13.776 2 14 2.224 14 2.5V4H16C16.552 4 17 4.449 17 5V9.5C17 9.776 16.776 10 16.5 10C16.224 10 16 9.776 16 9.5V5H14V5.5C14 5.776 13.776 6 13.5 6H5.5C5.224 6 5 5.776 5 5.5V5H3V21H10C10.276 21 10.5 21.224 10.5 21.5C10.5 21.776 10.276 22 10 22H3ZM13 5V3H11.5C11.224 3 11 2.776 11 2.5C11 1.673 10.327 1 9.5 1C8.673 1 8 1.673 8 2.5C8 2.776 7.776 3 7.5 3H6V5H13Z" fill="#3E3F42"/>
<path d="M5.5 8.99902C5.224 8.99902 5 8.77502 5 8.49902C5 8.22302 5.224 7.99902 5.5 7.99902H13.5C13.776 7.99902 14 8.22302 14 8.49902C14 8.77502 13.776 8.99902 13.5 8.99902H5.5Z" fill="#3E3F42"/>
<path d="M5.5 11.999C5.224 11.999 5 11.775 5 11.499C5 11.223 5.224 10.999 5.5 10.999H11.5C11.776 10.999 12 11.223 12 11.499C12 11.775 11.776 11.999 11.5 11.999H5.5Z" fill="#3E3F42"/>
<path d="M5.5 14.999C5.224 14.999 5 14.775 5 14.499C5 14.223 5.224 13.999 5.5 13.999H9.5C9.776 13.999 10 14.223 10 14.499C10 14.775 9.776 14.999 9.5 14.999H5.5Z" fill="#3E3F42"/>
<path d="M17.5 23.999C13.916 23.999 11 21.083 11 17.499C11 13.915 13.916 10.999 17.5 10.999C21.084 10.999 24 13.915 24 17.499C24 21.083 21.084 23.999 17.5 23.999ZM17.5 11.999C14.467 11.999 12 14.466 12 17.499C12 20.532 14.467 22.999 17.5 22.999C20.533 22.999 23 20.532 23 17.499C23 14.466 20.533 11.999 17.5 11.999Z" fill="#3E3F42"/>
<path d="M16.667 20.429C16.396 20.429 16.136 20.342 15.918 20.179C15.872 20.144 15.828 20.106 15.787 20.065L14.285 18.563C14.09 18.368 14.09 18.051 14.285 17.856C14.379 17.762 14.505 17.71 14.639 17.71C14.773 17.71 14.898 17.762 14.993 17.856L16.493 19.356C16.5 19.363 16.51 19.372 16.52 19.379C16.563 19.411 16.615 19.429 16.669 19.429C16.681 19.429 16.693 19.428 16.705 19.426C16.771 19.417 16.83 19.382 16.869 19.329L19.774 15.455C19.868 15.33 20.017 15.255 20.174 15.255C20.283 15.255 20.386 15.289 20.474 15.355C20.581 15.435 20.651 15.552 20.67 15.685C20.689 15.817 20.655 15.949 20.575 16.056L17.67 19.93C17.47 20.197 17.177 20.37 16.846 20.418C16.786 20.425 16.726 20.429 16.667 20.429Z" fill="#3E3F42"/>
</svg>
