<svg width="24" height="24" viewBox="0 0 24 24" fill="none" xmlns="http://www.w3.org/2000/svg">
<path d="M22.5 22.925C22.224 22.925 22 22.701 22 22.425V15.925H17V22.425C17 22.701 16.776 22.925 16.5 22.925C16.224 22.925 16 22.701 16 22.425V21.925H14V22.425C14 22.701 13.776 22.925 13.5 22.925C13.224 22.925 13 22.701 13 22.425V15.925H12C11.449 15.925 11 15.477 11 14.925V9.92497H8V17.925C8.551 17.925 9 18.373 9 18.925V19.925C9 20.477 8.551 20.925 8 20.925H3C2.449 20.925 2 20.477 2 19.925V18.925C2 18.373 2.449 17.925 3 17.925V9.92497H1V22.425C1 22.701 0.776 22.925 0.5 22.925C0.224 22.925 0 22.701 0 22.425V9.92497C0 9.37397 0.449 8.92497 1 8.92497H11V6.42497C11 6.40998 11.002 6.39297 11.005 6.37697C11.009 6.34597 11.015 6.32197 11.02 6.30497C11.027 6.27597 11.034 6.24697 11.05 6.21297C11.065 6.18097 11.083 6.15697 11.094 6.14197C11.11 6.11898 11.127 6.09597 11.148 6.07297C11.158 6.06097 11.17 6.04897 11.181 6.03997L16.861 1.30597C17.041 1.15697 17.268 1.07397 17.501 1.07397C17.734 1.07397 17.962 1.15597 18.141 1.30497L23.821 6.03897C23.832 6.04797 23.843 6.05997 23.853 6.07197C23.875 6.09497 23.89 6.11597 23.9 6.13097C23.917 6.15397 23.936 6.17797 23.951 6.21197C23.963 6.23797 23.971 6.26397 23.977 6.28997C23.984 6.31697 23.992 6.34497 23.995 6.37797C23.999 6.39497 24 6.41097 24 6.42497V14.925C24 15.477 23.552 15.925 23 15.925V22.425C23 22.701 22.776 22.925 22.5 22.925ZM16 20.925V19.925H14V20.925H16ZM3 19.925H8V18.925H3V19.925ZM16 18.925V17.925H14V18.925H16ZM7 17.925V9.92497H4V17.925H7ZM16 16.925V15.925H14V16.925H16ZM23 14.925V6.92497H12V14.925H13V11.425C13 10.322 13.897 9.42497 15 9.42497C16.103 9.42497 17 10.322 17 11.425V14.925H23ZM16 14.925V11.425C16 10.874 15.552 10.425 15 10.425C14.448 10.425 14 10.874 14 11.425V14.925H16ZM22.119 5.92497L17.5 2.07497L12.881 5.92497H22.119Z" fill="#3E3F42"/>
<path d="M20 13.4249C18.897 13.4249 18 12.5279 18 11.4249C18 10.3219 18.897 9.42493 20 9.42493C21.103 9.42493 22 10.3219 22 11.4249C22 12.5279 21.103 13.4249 20 13.4249ZM20 10.4249C19.448 10.4249 19 10.8739 19 11.4249C19 11.9769 19.448 12.4249 20 12.4249C20.552 12.4249 21 11.9759 21 11.4249C21 10.8739 20.552 10.4249 20 10.4249Z" fill="#3E3F42"/>
</svg>
