<svg width="24" height="24" viewBox="0 0 24 24" fill="none" xmlns="http://www.w3.org/2000/svg">
<g clip-path="url(#clip0)">
<path d="M10.5 24C10.224 24 10 23.776 10 23.5V16.494C9.916 16.499 9.837 16.5 9.76 16.5H9.2C7.3 16.5 6.145 15.706 5.511 15.04C4.98 14.482 4.584 13.749 4.47 13.126C3.054 12.599 2.09 11.303 1.998 9.78196C1.997 9.76296 1.997 9.74396 1.998 9.72496C2.084 8.22896 3.023 6.94196 4.407 6.40196C4.506 5.64396 4.863 4.94196 5.421 4.41096C6.047 3.81596 6.863 3.48796 7.719 3.48796C7.747 3.48796 7.775 3.48796 7.803 3.48896C7.903 2.53696 8.346 1.65996 9.057 1.01096C9.781 0.349962 10.717 -0.0140381 11.692 -0.0140381C11.754 -0.0140381 11.815 -0.0130381 11.877 -0.0100381C11.929 -0.00803808 11.981 -0.00403809 12.033 -3.80855e-05C14.319 0.00396192 16.196 1.52796 16.35 3.49096C16.359 3.49096 16.368 3.49096 16.378 3.49096C17.999 3.49096 19.373 4.68496 19.607 6.28196L19.781 6.47496C21.075 7.04296 21.945 8.31496 22.001 9.72996C21.956 10.645 21.602 11.492 21.001 12.149V20H21.501C21.777 20 22.001 20.224 22.001 20.5C22.001 20.776 21.776 21 21.5 21H13.5C13.224 21 13 20.776 13 20.5C13 20.224 13.224 20 13.5 20H14V16.399C13.463 16.285 12.945 16.074 12.483 15.782C12.016 16.047 11.518 16.24 11 16.36V23.5C11 23.776 10.776 24 10.5 24ZM20 20V12.929C19.861 13.004 19.718 13.07 19.572 13.127C19.071 15.093 17.265 16.506 15.225 16.506C15.15 16.506 15.075 16.504 15 16.5V20H20ZM15.011 15.5C15.077 15.503 15.142 15.505 15.207 15.505C16.898 15.505 18.346 14.306 18.652 12.653C18.686 12.467 18.82 12.319 19.001 12.265C19.407 12.144 19.787 11.929 20.099 11.641C20.129 11.599 20.166 11.563 20.208 11.532C20.685 11.042 20.966 10.401 21.001 9.72396C20.958 8.69296 20.289 7.75396 19.297 7.35696C19.227 7.32896 19.163 7.28496 19.112 7.22896L18.757 6.83496C18.685 6.75596 18.64 6.65296 18.63 6.54696C18.522 5.39396 17.532 4.49096 16.375 4.49096C16.316 4.49096 16.257 4.49296 16.198 4.49796C16.191 4.49796 16.169 4.49896 16.162 4.49896C16.042 4.49896 15.927 4.45796 15.838 4.38296L15.539 4.13396C15.424 4.03896 15.359 3.89896 15.359 3.74996C15.359 2.23396 13.852 0.999962 12 0.999962C11.993 0.999962 11.964 0.998962 11.957 0.997962C11.914 0.993962 11.872 0.991962 11.83 0.989962C11.786 0.987962 11.741 0.986962 11.697 0.986962C10.134 0.986962 8.854 2.21096 8.783 3.77296C8.777 3.91296 8.711 4.04496 8.603 4.13396L8.303 4.38396C8.215 4.45796 8.101 4.49996 7.982 4.49996C7.976 4.49996 7.949 4.49896 7.943 4.49896C7.89 4.49396 7.841 4.49096 7.791 4.48896H7.726C7.123 4.48896 6.549 4.71896 6.11 5.13696C5.655 5.56996 5.395 6.15396 5.379 6.78296C5.374 7.00196 5.228 7.18996 5.017 7.24996C3.887 7.57496 3.077 8.57896 2.998 9.75096C3.082 10.945 3.912 11.956 5.069 12.269C5.294 12.33 5.449 12.542 5.438 12.775C5.427 12.995 5.613 13.697 6.235 14.35C6.735 14.874 7.655 15.499 9.2 15.499L9.768 15.5C9.842 15.5 9.919 15.498 10 15.493V10.961C8.3 10.716 7 9.23796 7 7.49996C7 7.22396 7.224 6.99996 7.5 6.99996C7.776 6.99996 8 7.22396 8 7.49996C8 8.68696 8.859 9.71296 10 9.94796V6.99996C10 6.72396 10.224 6.49996 10.5 6.49996C10.776 6.49996 11 6.72396 11 6.99996V11.82L18.351 9.52296C18.399 9.50796 18.45 9.49996 18.5 9.49996C18.72 9.49996 18.912 9.64096 18.977 9.85096C19.06 10.114 18.912 10.395 18.649 10.478L11 12.867V15.329C11.431 15.205 11.843 15.017 12.229 14.768C12.309 14.716 12.403 14.688 12.5 14.688C12.607 14.688 12.713 14.723 12.798 14.786C13.418 15.247 14.176 15.5 14.933 15.5C14.934 15.5 15.007 15.5 15.011 15.5Z" fill="#3E3F42"/>
</g>
<defs>
<clipPath id="clip0">
<rect width="24" height="24" fill="white"/>
</clipPath>
</defs>
</svg>
