<svg width="24" height="24" viewBox="0 0 24 24" fill="none" xmlns="http://www.w3.org/2000/svg">
<path d="M4.501 24C3.302 24 2.286 23.155 2.052 22H1.5C0.673 22 0 21.327 0 20.5V7.5C0 6.673 0.673 6 1.5 6H2.001V5.5C2.001 4.301 2.846 3.285 4.001 3.051V0.5C4.001 0.224 4.225 0 4.501 0C4.777 0 5.001 0.224 5.001 0.5V3H7.501C8.88 3 10.001 4.121 10.001 5.5V6H22.5C23.327 6 24 6.673 24 7.5V20.5C24 21.327 23.327 22 22.5 22H9.95C9.716 23.155 8.7 24 7.501 24H4.501ZM4.501 4C3.674 4 3.001 4.673 3.001 5.5V21.5C3.001 22.327 3.674 23 4.501 23H7.501C8.322 23 8.991 22.336 9.001 21.517C9.001 21.511 9.001 6.521 9.001 6.521C9 6.514 9 6.507 9 6.5C9 6.493 9 6.486 9.001 6.479V5.5C9.001 4.673 8.328 4 7.501 4H4.501ZM22.5 21C22.776 21 23 20.776 23 20.5V7.5C23 7.224 22.776 7 22.5 7H10.001V21H22.5ZM1.5 7C1.224 7 1 7.224 1 7.5V20.5C1 20.776 1.224 21 1.5 21H2.001V7H1.5Z" fill="#3E3F42"/>
<path d="M12.501 11C12.225 11 12.001 10.776 12.001 10.5V8.5C12.001 8.224 12.225 8 12.501 8H20.5C20.776 8 21 8.224 21 8.5V10.5C21 10.776 20.776 11 20.5 11H12.501ZM20 10V9H13.001V10H20Z" fill="#3E3F42"/>
<path d="M13.25 14C13.6642 14 14 13.6642 14 13.25C14 12.8358 13.6642 12.5 13.25 12.5C12.8358 12.5 12.5 12.8358 12.5 13.25C12.5 13.6642 12.8358 14 13.25 14Z" fill="#3E3F42"/>
<path d="M16.5 14C16.9142 14 17.25 13.6642 17.25 13.25C17.25 12.8358 16.9142 12.5 16.5 12.5C16.0858 12.5 15.75 12.8358 15.75 13.25C15.75 13.6642 16.0858 14 16.5 14Z" fill="#3E3F42"/>
<path d="M13.25 16.75C13.6642 16.75 14 16.4142 14 16C14 15.5858 13.6642 15.25 13.25 15.25C12.8358 15.25 12.5 15.5858 12.5 16C12.5 16.4142 12.8358 16.75 13.25 16.75Z" fill="#3E3F42"/>
<path d="M16.5 16.75C16.9142 16.75 17.25 16.4142 17.25 16C17.25 15.5858 16.9142 15.25 16.5 15.25C16.0858 15.25 15.75 15.5858 15.75 16C15.75 16.4142 16.0858 16.75 16.5 16.75Z" fill="#3E3F42"/>
<path d="M13.25 19.5C13.6642 19.5 14 19.1642 14 18.75C14 18.3358 13.6642 18 13.25 18C12.8358 18 12.5 18.3358 12.5 18.75C12.5 19.1642 12.8358 19.5 13.25 19.5Z" fill="#3E3F42"/>
<path d="M19.75 14C20.1642 14 20.5 13.6642 20.5 13.25C20.5 12.8358 20.1642 12.5 19.75 12.5C19.3358 12.5 19 12.8358 19 13.25C19 13.6642 19.3358 14 19.75 14Z" fill="#3E3F42"/>
<path d="M19.75 16.75C20.1642 16.75 20.5 16.4142 20.5 16C20.5 15.5858 20.1642 15.25 19.75 15.25C19.3358 15.25 19 15.5858 19 16C19 16.4142 19.3358 16.75 19.75 16.75Z" fill="#3E3F42"/>
<path d="M19.75 19.5C20.1642 19.5 20.5 19.1642 20.5 18.75C20.5 18.3358 20.1642 18 19.75 18C19.3358 18 19 18.3358 19 18.75C19 19.1642 19.3358 19.5 19.75 19.5Z" fill="#3E3F42"/>
<path d="M16.5 19.5C16.9142 19.5 17.25 19.1642 17.25 18.75C17.25 18.3358 16.9142 18 16.5 18C16.0858 18 15.75 18.3358 15.75 18.75C15.75 19.1642 16.0858 19.5 16.5 19.5Z" fill="#3E3F42"/>
<path d="M21.5 5C21.224 5 21 4.776 21 4.5V2.981C21 2.828 20.932 2.686 20.812 2.59L18.961 1.109C18.873 1.039 18.762 1 18.649 1H12.5C12.224 1 12 1.224 12 1.5V4.5C12 4.776 11.776 5 11.5 5C11.224 5 11 4.776 11 4.5V1.5C11 0.673 11.673 0 12.5 0H18.649C18.989 0 19.322 0.117 19.587 0.329L21.438 1.81C21.795 2.096 22 2.523 22 2.981V4.5C22 4.776 21.776 5 21.5 5Z" fill="#3E3F42"/>
<path d="M13.498 3C13.222 3 12.998 2.776 12.998 2.5C12.998 2.224 13.222 2 13.498 2H16.998C17.274 2 17.498 2.224 17.498 2.5C17.498 2.776 17.274 3 16.998 3H13.498Z" fill="#3E3F42"/>
<path d="M13.498 5C13.222 5 12.998 4.776 12.998 4.5C12.998 4.224 13.222 4 13.498 4H19.498C19.774 4 19.998 4.224 19.998 4.5C19.998 4.776 19.774 5 19.498 5H13.498Z" fill="#3E3F42"/>
</svg>
