<svg width="24" height="24" viewBox="0 0 24 24" fill="none" xmlns="http://www.w3.org/2000/svg">
<g clip-path="url(#clip0)">
<path d="M7.5 24C6.673 24 6 23.327 6 22.5V8.00002C6.001 6.37002 6.998 4.90302 8.5 4.29402V3.03102C5.956 3.28402 4 5.41802 4 8.00002V20.5C4 20.775 3.776 21 3.5 21C3.224 21 3 20.775 3 20.5V8.00002C3 5.33002 4.742 3.02502 7.236 2.26302L4.296 0.956023C4.175 0.902023 4.081 0.804023 4.033 0.679023C3.985 0.554023 3.989 0.419023 4.043 0.296023C4.123 0.116023 4.303 -0.000976562 4.5 -0.000976562C4.571 -0.000976562 4.639 0.0140234 4.704 0.0430234L9.106 2.00002H12.535C12.662 1.38402 13.163 0.902023 13.802 0.817023L19.868 0.00902344C19.913 0.00302344 19.958 2.34375e-05 20.002 2.34375e-05C20.222 2.34375e-05 20.431 0.0710234 20.607 0.206023C20.819 0.369023 20.956 0.604023 20.991 0.868023C20.997 0.911023 21 0.955023 21 1.00002V4.00002C21.002 4.26302 20.9 4.51502 20.713 4.70502C20.526 4.89602 20.276 5.00202 20.008 5.00402C19.957 5.00402 19.913 5.00102 19.869 4.99502L13.802 4.18602C13.161 4.10102 12.659 3.61802 12.534 3.00002H11.5V4.29402C13.001 4.90302 13.999 6.37002 14 8.00002V22.5C14 23.327 13.327 24 12.5 24H7.5ZM9.5 4.64802C9.5 4.86702 9.353 5.06502 9.143 5.12702C7.882 5.50302 7.001 6.68402 7 8.00002V22.5C7 22.775 7.224 23 7.5 23H12.5C12.776 23 13 22.776 13 22.5V21H11C10.449 21 10 20.552 10 20V10C10 9.44902 10.449 9.00002 11 9.00002H13V8.00002C12.999 6.68402 12.118 5.50302 10.857 5.12702C10.647 5.06402 10.5 4.86702 10.5 4.64802V3.00002H9.5V4.64802ZM11 20H13V10H11V20ZM13.934 1.80802C13.686 1.84102 13.5 2.05402 13.5 2.30402V2.70002C13.5 2.95002 13.687 3.16302 13.934 3.19502L20 4.00402V1.00002L13.934 1.80802Z" fill="#3E3F42"/>
</g>
<defs>
<clipPath id="clip0">
<rect width="24" height="24" fill="white"/>
</clipPath>
</defs>
</svg>
