<svg width="24" height="24" viewBox="0 0 24 24" fill="none" xmlns="http://www.w3.org/2000/svg">
<path d="M11.932 20.555C9.46198 20.516 7.48498 18.475 7.52398 16.006C7.49698 14.467 8.33798 13.065 9.71898 12.354C9.72498 12.35 9.75398 12.335 9.78398 12.322C9.91298 12.264 10.051 12.234 10.192 12.234C10.313 12.234 10.432 12.256 10.546 12.299C10.796 12.394 10.994 12.58 11.103 12.823C11.163 12.938 11.239 13.054 11.325 13.164C11.582 12.326 11.524 11.416 11.152 10.615C11.017 10.323 11.031 9.98197 11.189 9.70197C11.321 9.46897 11.535 9.30197 11.792 9.23097C11.88 9.20697 11.97 9.19397 12.061 9.19397C12.232 9.19397 12.401 9.23897 12.552 9.32397C12.557 9.32697 12.562 9.32997 12.566 9.33297C14.947 10.715 16.44 13.266 16.479 16.005C16.48 16.051 16.48 16.099 16.479 16.147C16.44 18.577 14.432 20.553 12.002 20.553L11.932 20.555ZM10.192 13.236C9.13698 13.78 8.50498 14.837 8.52498 16.005C8.49498 17.935 10.03 19.524 11.947 19.555H12.006C13.892 19.555 15.45 18.02 15.48 16.132C15.481 16.095 15.481 16.059 15.48 16.023C15.447 13.625 14.136 11.392 12.058 10.195C12.661 11.488 12.619 13.009 11.948 14.266C11.88 14.394 11.759 14.486 11.618 14.518C11.584 14.526 11.545 14.531 11.506 14.531C11.401 14.531 11.297 14.497 11.211 14.434C10.792 14.127 10.444 13.721 10.205 13.261C10.205 13.26 10.195 13.243 10.192 13.236Z" fill="#3E3F42"/>
<path d="M2.50099 22C2.22499 22 2.00099 21.776 2.00099 21.5V7H1.89099C1.43099 7 1.03199 6.688 0.920991 6.242L0.170991 3.242C0.150991 3.162 0.140991 3.081 0.140991 3C0.140991 2.733 0.244991 2.482 0.433991 2.293C0.621991 2.104 0.872991 2 1.13999 2H22.86C22.942 2 23.024 2.01 23.103 2.03C23.362 2.094 23.58 2.256 23.718 2.485C23.855 2.714 23.896 2.982 23.831 3.242L23.081 6.242C22.969 6.688 22.57 7 22.111 7H22.001V21.5C22.001 21.776 21.777 22 21.501 22H2.50099ZM21.001 21V19H19.001V21H21.001ZM18.001 21V7H6.00099V21H18.001ZM5.00099 21V19H3.00099V21H5.00099ZM21.001 18V16H19.001V18H21.001ZM5.00099 18V16H3.00099V18H5.00099ZM21.001 15V13H19.001L21.001 15ZM5.00099 15V13H3.00099V15H5.00099ZM21.001 12V10H19.001V12H21.001ZM5.00099 12V10H3.00099V12H5.00099ZM21.001 9V7H19.001V9H21.001ZM5.00099 9V7H3.00099V9H5.00099ZM1.13999 3L1.88999 6H22.11L22.86 3H1.13999Z" fill="#3E3F42"/>
</svg>
