<svg width="24" height="24" viewBox="0 0 24 24" fill="none" xmlns="http://www.w3.org/2000/svg">
<path d="M11 19C10.449 19 10 18.552 10 18V16H8C7.449 16 7 15.552 7 15V13C7 12.448 7.449 12 8 12H10V10C10 9.449 10.449 9 11 9H13C13.552 9 14 9.449 14 10V12H16C16.552 12 17 12.448 17 13V15C17 15.552 16.552 16 16 16H14V18C14 18.552 13.552 19 13 19H11ZM8 15H10.5C10.776 15 11 15.224 11 15.5V18H13V15.5C13 15.224 13.224 15 13.5 15H16V13H13.5C13.224 13 13 12.776 13 12.5V10H11V12.5C11 12.776 10.776 13 10.5 13H8V15Z" fill="#3E3F42"/>
<path d="M2.5 22C1.121 22 0 20.878 0 19.5V7.5C0 6.121 1.121 5 2.5 5H8V4C8 2.897 8.897 2 10 2H14C15.103 2 16 2.897 16 4V5H21.5C22.878 5 24 6.121 24 7.5V19.5C24 20.878 22.878 22 21.5 22H2.5ZM2.5 6C1.673 6 1 6.673 1 7.5V19.5C1 20.327 1.673 21 2.5 21H21.5C22.327 21 23 20.327 23 19.5V7.5C23 6.673 22.327 6 21.5 6H2.5ZM15 5V4C15 3.449 14.552 3 14 3H10C9.449 3 9 3.449 9 4V5H15Z" fill="#3E3F42"/>
</svg>
