<svg width="24" height="24" viewBox="0 0 24 24" fill="none" xmlns="http://www.w3.org/2000/svg">
<path d="M12 24C5.659 24 0.5 21.084 0.5 17.5C0.526 16.444 0.927 15.439 1.629 14.665C1.724 14.56 1.859 14.5 2 14.5C2.124 14.5 2.244 14.546 2.336 14.63C2.54 14.815 2.556 15.132 2.371 15.336C1.829 15.933 1.52 16.706 1.5 17.513C1.5 20.536 6.21 23 12 23C17.79 23 22.5 20.533 22.5 17.5C22.48 16.704 22.171 15.934 21.629 15.335C21.539 15.236 21.494 15.108 21.5 14.975C21.506 14.842 21.565 14.719 21.664 14.629C21.756 14.546 21.875 14.499 21.999 14.499C22.14 14.499 22.275 14.559 22.37 14.664C23.072 15.439 23.473 16.442 23.499 17.487C23.5 21.081 18.341 24 12 24Z" fill="#3E3F42"/>
<path d="M5.69299 15C5.55199 15 5.41599 14.94 5.32199 14.835C5.13699 14.631 5.15299 14.314 5.35699 14.129C6.18899 13.376 6.70499 12.346 6.80899 11.228C6.80699 10.362 6.43199 9.426 6.03499 8.435C5.62099 7.4 5.19299 6.33 5.19299 5.226C5.32199 3.821 5.95299 2.552 6.97099 1.629C7.06399 1.546 7.18299 1.5 7.30699 1.5C7.44799 1.5 7.58299 1.56 7.67799 1.664C7.86299 1.868 7.84699 2.185 7.64299 2.37C6.81099 3.124 6.29499 4.155 6.19099 5.273C6.19299 6.138 6.56799 7.074 6.96399 8.065C7.37799 9.1 7.80699 10.17 7.80699 11.275C7.67799 12.68 7.04699 13.949 6.02899 14.871C5.93699 14.954 5.81799 15 5.69299 15Z" fill="#3E3F42"/>
<path d="M16.693 15C16.552 15 16.417 14.94 16.322 14.836C16.137 14.632 16.153 14.315 16.357 14.13C17.189 13.377 17.704 12.347 17.809 11.229C17.807 10.364 17.433 9.428 17.036 8.437C16.622 7.401 16.193 6.331 16.193 5.226C16.322 3.821 16.953 2.552 17.971 1.629C18.063 1.546 18.182 1.5 18.307 1.5C18.448 1.5 18.583 1.56 18.678 1.664C18.863 1.868 18.848 2.185 18.643 2.37C17.811 3.124 17.296 4.154 17.191 5.272C17.193 6.137 17.567 7.073 17.964 8.064C18.378 9.1 18.807 10.17 18.807 11.275C18.678 12.68 18.047 13.948 17.029 14.871C16.937 14.954 16.817 15 16.693 15Z" fill="#3E3F42"/>
<path d="M11 16.5C10.859 16.5 10.724 16.44 10.629 16.336C10.444 16.132 10.459 15.815 10.664 15.63C11.718 14.675 12.37 13.37 12.502 11.954C12.5 10.846 12.01 9.621 11.536 8.436C11.026 7.163 10.5 5.846 10.5 4.5C10.656 2.797 11.424 1.253 12.664 0.13C12.756 0.046 12.875 0 13 0C13.141 0 13.276 0.06 13.371 0.164C13.556 0.368 13.541 0.685 13.336 0.87C12.282 1.825 11.63 3.13 11.498 4.546C11.5 5.654 11.99 6.879 12.465 8.064C12.974 9.339 13.5 10.655 13.5 12C13.344 13.703 12.575 15.247 11.336 16.371C11.243 16.454 11.124 16.5 11 16.5Z" fill="#3E3F42"/>
</svg>
