<svg width="24" height="24" viewBox="0 0 24 24" fill="none" xmlns="http://www.w3.org/2000/svg">
<path d="M10.5 23C10.224 23 10 22.776 10 22.5C10 22.224 10.224 22 10.5 22H14V14H7C6.724 14 6.5 13.776 6.5 13.5C6.5 13.224 6.724 13 7 13H21.5C21.776 13 22 12.776 22 12.5V1.5C22 1.224 22.224 1 22.5 1C22.776 1 23 1.224 23 1.5V12.5C23 13.327 22.327 14 21.5 14H15V22H18.5C18.776 22 19 22.224 19 22.5C19 22.776 18.776 23 18.5 23H10.5Z" fill="#3E3F42"/>
<path d="M6.5 8.5C6.224 8.5 6 8.276 6 8V1.5C6 1.224 6.224 1 6.5 1C6.776 1 7 1.224 7 1.5V8C7 8.276 6.776 8.5 6.5 8.5Z" fill="#3E3F42"/>
<path d="M14.437 10.001C12.788 10.001 11.526 9.17105 11.5 8.07005C11.474 6.95005 12.771 6.04005 14.453 6.00005C14.495 5.99905 14.538 5.99805 14.58 5.99805C16.218 5.99805 17.473 6.82805 17.499 7.92905C17.512 8.51305 17.178 9.05105 16.559 9.44205C16.018 9.78405 15.303 9.98205 14.546 9.99905C14.51 10.001 14.473 10.001 14.437 10.001ZM14.477 7.00005C13.332 7.02705 12.489 7.57605 12.5 8.04805C12.51 8.49905 13.316 9.00105 14.455 9.00105L14.525 9.00005C15.103 8.98705 15.636 8.84405 16.026 8.59805C16.337 8.40105 16.506 8.17205 16.501 7.95305C16.49 7.50205 15.692 6.99805 14.565 6.99805L14.477 7.00005Z" fill="#3E3F42"/>
<path d="M1.5 21.5C1.224 21.5 1 21.276 1 21C1 20.647 1.013 20.298 1.038 19.962C1.058 19.703 1.276 19.5 1.536 19.5C1.542 19.5 1.568 19.501 1.574 19.501C1.707 19.511 1.829 19.573 1.916 19.674C2.003 19.775 2.045 19.904 2.035 20.038C2.012 20.349 2 20.673 2 21C2 21.276 1.776 21.5 1.5 21.5Z" fill="#3E3F42"/>
<path d="M1.83401 18.4999C1.79701 18.4999 1.76001 18.4959 1.72401 18.4879C1.45401 18.4259 1.28501 18.1579 1.34601 17.8889C1.50101 17.2059 1.70901 16.5309 1.96401 15.8819C2.04001 15.6889 2.22201 15.5649 2.42901 15.5649C2.49101 15.5649 2.55301 15.5769 2.61101 15.5989C2.86801 15.6999 2.99501 15.9909 2.89401 16.2469C2.65701 16.8509 2.46401 17.4779 2.32001 18.1099C2.26901 18.3399 2.06901 18.4999 1.83401 18.4999Z" fill="#3E3F42"/>
<path d="M3.28999 14.7781C3.20299 14.7781 3.11699 14.7551 3.04199 14.7121C2.92599 14.6451 2.84299 14.5371 2.80799 14.4091C2.77299 14.2801 2.79099 14.1451 2.85699 14.0291C3.20499 13.4231 3.60299 12.8371 4.03999 12.2891C4.13599 12.1691 4.27799 12.1011 4.43099 12.1011C4.54399 12.1011 4.65399 12.1401 4.74199 12.2101C4.84699 12.2931 4.91299 12.4121 4.92799 12.5451C4.94299 12.6781 4.90599 12.8081 4.82199 12.9131C4.41699 13.4221 4.04699 13.9651 3.72299 14.5291C3.63499 14.6821 3.46899 14.7781 3.28999 14.7781Z" fill="#3E3F42"/>
<path d="M5.77999 11.639C5.64199 11.639 5.50899 11.581 5.41499 11.481C5.32399 11.383 5.27599 11.256 5.27999 11.123C5.28399 10.989 5.34099 10.866 5.43799 10.774C5.94899 10.295 6.50099 9.85099 7.07899 9.45299C7.16299 9.39499 7.26099 9.36499 7.36199 9.36499C7.52699 9.36499 7.67999 9.44599 7.77399 9.58099C7.92999 9.80799 7.87299 10.12 7.64599 10.277C7.10999 10.646 6.59599 11.059 6.12099 11.504C6.02899 11.591 5.90699 11.639 5.77999 11.639Z" fill="#3E3F42"/>
<path d="M9.08099 9.36308C8.89099 9.36308 8.71399 9.25208 8.63099 9.08108C8.51099 8.83308 8.61499 8.53308 8.86299 8.41308C9.18699 8.25608 9.50699 8.11408 9.81399 7.99108C9.87399 7.96708 9.93599 7.95508 9.99999 7.95508C10.206 7.95508 10.388 8.07808 10.464 8.26908C10.566 8.52508 10.442 8.81608 10.186 8.91908C9.89999 9.03408 9.60099 9.16608 9.29899 9.31308C9.23099 9.34608 9.15599 9.36308 9.08099 9.36308Z" fill="#3E3F42"/>
</svg>
