<svg width="24" height="24" viewBox="0 0 24 24" fill="none" xmlns="http://www.w3.org/2000/svg">
<g clip-path="url(#clip0)">
<path d="M0.500002 11.3201C0.360002 11.3201 0.225002 11.2611 0.130002 11.1571C0.040002 11.0591 -0.00599802 10.9311 1.97854e-06 10.7971C0.00600198 10.6641 0.064002 10.5411 0.162002 10.4501L10.988 0.566119C11.267 0.312119 11.626 0.172119 12 0.172119C12.374 0.172119 12.733 0.312119 13.011 0.566119L23.837 10.4501C23.936 10.5401 23.993 10.6631 24 10.7971C24.007 10.9311 23.96 11.0581 23.869 11.1571C23.775 11.2601 23.64 11.3201 23.5 11.3201C23.375 11.3201 23.255 11.2731 23.163 11.1891L12.337 1.30512C12.244 1.22012 12.124 1.17312 12 1.17312C11.876 1.17312 11.757 1.22012 11.663 1.30512L0.837002 11.1891C0.745002 11.2731 0.625002 11.3201 0.500002 11.3201Z" fill="#3E3F42"/>
<path d="M17.5 23.82C16.673 23.82 16 23.147 16 22.32V21.82H8V22.32C8 23.147 7.327 23.82 6.5 23.82C5.673 23.82 5 23.147 5 22.32V21.734C4.41 21.525 4 20.96 4 20.32V18.32C4 17.413 4.488 16.595 5.253 16.155L3.743 15.249C3.507 15.107 3.43 14.8 3.572 14.563C3.661 14.413 3.825 14.32 4 14.32C4.091 14.32 4.18 14.345 4.258 14.392L6.1 15.497L6.396 13.136C6.489 12.387 7.129 11.822 7.884 11.822H16.118C16.873 11.822 17.513 12.387 17.606 13.136L17.902 15.498L19.744 14.393C19.82 14.344 19.909 14.32 20 14.32C20.175 14.32 20.339 14.413 20.429 14.563C20.571 14.8 20.494 15.107 20.258 15.249L18.748 16.155C19.512 16.594 20 17.413 20 18.32V20.32C20 20.96 19.59 21.525 19 21.734V22.32C19 23.147 18.327 23.82 17.5 23.82ZM17 22.32C17 22.596 17.224 22.82 17.5 22.82C17.776 22.82 18 22.596 18 22.32V21.82H17V22.32ZM6 22.32C6 22.596 6.224 22.82 6.5 22.82C6.776 22.82 7 22.595 7 22.32V21.82H6V22.32ZM5 20.32C5 20.596 5.224 20.82 5.5 20.82H18.5C18.776 20.82 19 20.596 19 20.32V19.82H17C16.724 19.82 16.5 19.596 16.5 19.32C16.5 19.044 16.724 18.82 17 18.82H19V18.32C19 17.497 18.33 16.824 17.507 16.82C17.502 16.82 6.5 16.82 6.5 16.82C5.673 16.82 5 17.493 5 18.32V18.82H7C7.276 18.82 7.5 19.044 7.5 19.32C7.5 19.596 7.276 19.82 7 19.82H5V20.32ZM16.933 15.82L16.612 13.259C16.581 13.009 16.368 12.821 16.116 12.821H7.883C7.631 12.821 7.418 13.009 7.387 13.259L7.066 15.82H16.933Z" fill="#3E3F42"/>
</g>
<defs>
<clipPath id="clip0">
<rect width="24" height="24" fill="white"/>
</clipPath>
</defs>
</svg>
