<svg xmlns="http://www.w3.org/2000/svg" version="1.1" xmlns:xlink="http://www.w3.org/1999/xlink" xmlns:svgjs="http://svgjs.com/svgjs" viewBox="0 0 24 24" width="24" height="24"><g transform="matrix(1,0,0,1,0,0)"><path d="M23.5,19.5v3a1,1,0,0,1-1,1H1.5a1,1,0,0,1-1-1v-10a1,1,0,0,1,1-1h21a1,1,0,0,1,1,1v7Z" fill="none" stroke="currentColor" stroke-linecap="round" stroke-linejoin="round"></path><path d="M4.128,6.987C5,8.064,6.5,9.89,6.5,11.5" fill="none" stroke="currentColor" stroke-linecap="round" stroke-linejoin="round"></path><path d="M8.775,6.863C7.9,7.94,6.5,9.891,6.5,11.5" fill="none" stroke="currentColor" stroke-linecap="round" stroke-linejoin="round"></path><path d="M1.500 6.000 A1.500 1.500 0 1 0 4.500 6.000 A1.500 1.500 0 1 0 1.500 6.000 Z" fill="none" stroke="currentColor" stroke-linecap="round" stroke-linejoin="round"></path><path d="M8.500 6.000 A1.500 1.500 0 1 0 11.500 6.000 A1.500 1.500 0 1 0 8.500 6.000 Z" fill="none" stroke="currentColor" stroke-linecap="round" stroke-linejoin="round"></path><path d="M5.000 2.000 A1.500 1.500 0 1 0 8.000 2.000 A1.500 1.500 0 1 0 5.000 2.000 Z" fill="none" stroke="currentColor" stroke-linecap="round" stroke-linejoin="round"></path><path d="M17.000 2.000 A1.500 1.500 0 1 0 20.000 2.000 A1.500 1.500 0 1 0 17.000 2.000 Z" fill="none" stroke="currentColor" stroke-linecap="round" stroke-linejoin="round"></path><path d="M16.225,6.863C17.1,7.94,18.5,9.89,18.5,11.5" fill="none" stroke="currentColor" stroke-linecap="round" stroke-linejoin="round"></path><path d="M20.876,6.987C20,8.064,18.5,9.891,18.5,11.5" fill="none" stroke="currentColor" stroke-linecap="round" stroke-linejoin="round"></path><path d="M13.500 6.000 A1.500 1.500 0 1 0 16.500 6.000 A1.500 1.500 0 1 0 13.500 6.000 Z" fill="none" stroke="currentColor" stroke-linecap="round" stroke-linejoin="round"></path><path d="M20.500 6.000 A1.500 1.500 0 1 0 23.500 6.000 A1.500 1.500 0 1 0 20.500 6.000 Z" fill="none" stroke="currentColor" stroke-linecap="round" stroke-linejoin="round"></path><path d="M6.5 11.5L6.5 3.5" fill="none" stroke="currentColor" stroke-linecap="round" stroke-linejoin="round"></path><path d="M18.5 11.5L18.5 3.5" fill="none" stroke="currentColor" stroke-linecap="round" stroke-linejoin="round"></path><path d="M3.499 15.5L20.499 15.5" fill="none" stroke="currentColor" stroke-linecap="round" stroke-linejoin="round"></path><path d="M3.499 19.5L20.499 19.5" fill="none" stroke="currentColor" stroke-linecap="round" stroke-linejoin="round"></path><path d="M3.499 23.5L3.499 11.5" fill="none" stroke="currentColor" stroke-linecap="round" stroke-linejoin="round"></path><path d="M20.499 23.5L20.499 11.5" fill="none" stroke="currentColor" stroke-linecap="round" stroke-linejoin="round"></path></g></svg>
