<svg width="24" height="24" viewBox="0 0 24 24" fill="none" xmlns="http://www.w3.org/2000/svg">
<path d="M1.74902 24C1.19802 24 0.749017 23.552 0.749017 23V19.865C0.714017 19.845 0.681017 19.823 0.649017 19.799C0.435017 19.639 0.297017 19.405 0.259017 19.141C0.221017 18.877 0.289017 18.613 0.449017 18.4L2.69902 15.4C2.88702 15.149 3.18602 15 3.49902 15H10.249C10.265 15 10.294 15.003 10.309 15.006C10.309 15.006 10.326 15.008 10.34 15.01C10.393 15.02 10.44 15.037 10.483 15.06C10.546 15.095 10.588 15.13 10.624 15.172C10.633 15.181 10.642 15.191 10.649 15.201L13.649 19.201C13.729 19.307 13.763 19.439 13.744 19.571C13.725 19.703 13.656 19.821 13.549 19.901C13.462 19.966 13.358 20.001 13.249 20.001C13.092 20.001 12.942 19.926 12.849 19.801L12.749 19.668V23C12.749 23.552 12.301 24 11.749 24H1.74902ZM11.749 23V18.333L10.249 16.333L8.74902 18.333V23H9.74902V21.5C9.74902 21.224 9.97302 21 10.249 21C10.525 21 10.749 21.224 10.749 21.5V23H11.749ZM1.74902 23H7.74902V19.661C7.56102 19.875 7.28602 20 6.99902 20H1.74902V23V23ZM1.24902 19H6.99902L9.24902 16H3.50002L1.24902 19Z" fill="#3E3F42"/>
<path d="M14.752 21C14.476 21 14.252 20.776 14.252 20.5C14.252 20.224 14.476 20 14.752 20H15.749V5.672C15.56 5.881 15.294 6 15.01 6H7.74899V13.5C7.74899 13.776 7.52499 14 7.24899 14C6.97299 14 6.74899 13.776 6.74899 13.5V5.84C6.71999 5.822 6.69199 5.802 6.66599 5.782C6.23499 5.437 6.16499 4.807 6.50899 4.376L9.70899 0.376C9.89899 0.138 10.183 0 10.489 0H19.01C19.316 0 19.6 0.138 19.791 0.376L23.641 5.188C23.813 5.403 23.778 5.718 23.563 5.891C23.473 5.961 23.362 6 23.25 6C23.097 6 22.955 5.932 22.859 5.813L22.749 5.676V20C22.749 20.552 22.301 21 21.749 21H14.752ZM21.749 20V4.426L19.245 1.297L16.749 4.423V20H21.749ZM7.28999 5H15.01L18.203 1H10.49L7.28999 5Z" fill="#3E3F42"/>
<path d="M18.249 8C17.973 8 17.749 7.776 17.749 7.5V6.5C17.749 6.224 17.973 6 18.249 6C18.525 6 18.749 6.224 18.749 6.5V7.5C18.749 7.776 18.525 8 18.249 8Z" fill="#3E3F42"/>
<path d="M20.249 8C19.973 8 19.749 7.776 19.749 7.5V6.5C19.749 6.224 19.973 6 20.249 6C20.525 6 20.749 6.224 20.749 6.5V7.5C20.749 7.776 20.525 8 20.249 8Z" fill="#3E3F42"/>
<path d="M18.249 12C17.973 12 17.749 11.776 17.749 11.5V10.5C17.749 10.224 17.973 10 18.249 10C18.525 10 18.749 10.224 18.749 10.5V11.5C18.749 11.776 18.525 12 18.249 12Z" fill="#3E3F42"/>
<path d="M20.249 12C19.973 12 19.749 11.776 19.749 11.5V10.5C19.749 10.224 19.973 10 20.249 10C20.525 10 20.749 10.224 20.749 10.5V11.5C20.749 11.776 20.525 12 20.249 12Z" fill="#3E3F42"/>
<path d="M18.249 16C17.973 16 17.749 15.776 17.749 15.5V14.5C17.749 14.224 17.973 14 18.249 14C18.525 14 18.749 14.224 18.749 14.5V15.5C18.749 15.776 18.525 16 18.249 16Z" fill="#3E3F42"/>
<path d="M20.249 16C19.973 16 19.749 15.776 19.749 15.5V14.5C19.749 14.224 19.973 14 20.249 14C20.525 14 20.749 14.224 20.749 14.5V15.5C20.749 15.776 20.525 16 20.249 16Z" fill="#3E3F42"/>
</svg>
