<svg width="24" height="24" viewBox="0 0 24 24" fill="none" xmlns="http://www.w3.org/2000/svg">
<g clip-path="url(#clip0)">
<path d="M6.982 18.0001C3.002 18.0001 0 16.5181 0 14.5541C0 13.6751 0.625 12.8491 1.76 12.2291C1.834 12.1891 1.916 12.1681 1.999 12.1681C2.182 12.1681 2.35 12.2671 2.438 12.4281C2.57 12.6701 2.481 12.9751 2.239 13.1071C1.44 13.5431 1 14.0571 1 14.5541C1 15.8571 3.795 17.0001 6.982 17.0001C10.169 17.0001 12.964 15.8571 12.964 14.5541C12.964 13.2511 10.169 12.1071 6.982 12.1071C6.706 12.1071 6.482 11.8831 6.482 11.6071C6.482 11.3311 6.706 11.1071 6.982 11.1071C10.962 11.1071 13.964 12.5891 13.964 14.5541C13.964 16.5181 10.963 18.0001 6.982 18.0001Z" fill="#3E3F42"/>
<path d="M4.53302 14.464C4.25702 14.464 4.03302 14.24 4.03302 13.964V1C4.03302 0.83 4.11802 0.673 4.26102 0.58C4.34202 0.528 4.43602 0.5 4.53302 0.5C4.60402 0.5 4.67202 0.515 4.73702 0.544L9.01902 2.459C9.23602 2.556 9.41202 2.727 9.51402 2.942C9.75102 3.44 9.53902 4.038 9.04102 4.275L5.03302 6.185V13.964C5.03302 14.24 4.80902 14.464 4.53302 14.464ZM5.03302 5.077L8.61102 3.372L5.03302 1.772V5.077V5.077Z" fill="#3E3F42"/>
<path d="M10.75 23.5C9.785 23.5 9 22.715 9 21.75C9 20.785 9.785 20 10.75 20C11.715 20 12.5 20.785 12.5 21.75C12.5 22.715 11.715 23.5 10.75 23.5ZM10.75 21C10.336 21 10 21.336 10 21.75C10 22.164 10.336 22.5 10.75 22.5C11.164 22.5 11.5 22.164 11.5 21.75C11.5 21.336 11.164 21 10.75 21Z" fill="#3E3F42"/>
<path d="M15.2 23.5C15.138 23.5 15.077 23.489 15.019 23.466C14.521 23.273 14.128 22.896 13.912 22.407C13.696 21.917 13.684 21.374 13.878 20.875C14.175 20.111 14.926 19.598 15.747 19.598C15.994 19.598 16.237 19.644 16.469 19.733L18.202 20.36L23.02 3.86C23.082 3.648 23.28 3.5 23.5 3.5C23.547 3.5 23.594 3.507 23.64 3.52C23.905 3.597 24.057 3.875 23.98 4.14L18.622 22.484C18.387 23.092 17.842 23.475 17.225 23.481L15.203 23.5H15.2ZM15.746 20.599C15.328 20.599 14.961 20.849 14.81 21.237C14.713 21.486 14.719 21.759 14.827 22.004C14.923 22.222 15.09 22.396 15.301 22.499L17.215 22.481C17.421 22.479 17.601 22.354 17.676 22.162L17.92 21.322L16.118 20.67C15.994 20.622 15.871 20.599 15.746 20.599Z" fill="#3E3F42"/>
</g>
<defs>
<clipPath id="clip0">
<rect width="24" height="24" fill="white"/>
</clipPath>
</defs>
</svg>
