<svg width="24" height="24" viewBox="0 0 24 24" fill="none" xmlns="http://www.w3.org/2000/svg">
<g clip-path="url(#clip0)">
<path d="M12 16.49C7.451 16.49 3.75 12.789 3.75 8.23999C3.75 3.69099 7.451 -0.0100098 12 -0.0100098C16.549 -0.0100098 20.25 3.69099 20.25 8.23999C20.25 12.789 16.549 16.49 12 16.49ZM12 0.98999C8.002 0.98999 4.75 4.24199 4.75 8.23999C4.75 12.238 8.002 15.49 12 15.49C15.998 15.49 19.25 12.238 19.25 8.23999C19.25 4.24199 15.998 0.98999 12 0.98999Z" fill="#3E3F42"/>
<path d="M12 24.01C11.724 24.01 11.5 23.786 11.5 23.51V18.981C9.81899 18.896 8.17699 18.384 6.73699 17.494C6.62299 17.424 6.54399 17.314 6.51299 17.184C6.48199 17.054 6.50399 16.92 6.57399 16.806C6.66599 16.658 6.82499 16.569 6.99999 16.569C7.09299 16.569 7.18399 16.595 7.26299 16.644C8.67599 17.518 10.291 17.985 11.934 17.998C11.947 17.995 11.971 17.991 12 17.991C12.016 17.991 12.042 17.994 12.063 17.998C13.707 17.986 15.323 17.519 16.737 16.644C16.815 16.595 16.906 16.569 16.999 16.569C17.174 16.569 17.333 16.658 17.425 16.807C17.495 16.921 17.517 17.055 17.486 17.185C17.455 17.315 17.376 17.425 17.262 17.495C15.823 18.385 14.181 18.897 12.499 18.982V23.511C12.5 23.786 12.276 24.01 12 24.01Z" fill="#3E3F42"/>
<path d="M15.5 5.76001C15.9142 5.76001 16.25 5.42422 16.25 5.01001C16.25 4.5958 15.9142 4.26001 15.5 4.26001C15.0858 4.26001 14.75 4.5958 14.75 5.01001C14.75 5.42422 15.0858 5.76001 15.5 5.76001Z" fill="#3E3F42"/>
<path d="M17 9.26001C17.4142 9.26001 17.75 8.92422 17.75 8.51001C17.75 8.0958 17.4142 7.76001 17 7.76001C16.5858 7.76001 16.25 8.0958 16.25 8.51001C16.25 8.92422 16.5858 9.26001 17 9.26001Z" fill="#3E3F42"/>
<path d="M13.5 9.76001C13.9142 9.76001 14.25 9.42422 14.25 9.01001C14.25 8.5958 13.9142 8.26001 13.5 8.26001C13.0858 8.26001 12.75 8.5958 12.75 9.01001C12.75 9.42422 13.0858 9.76001 13.5 9.76001Z" fill="#3E3F42"/>
<path d="M15 13.26C15.4142 13.26 15.75 12.9242 15.75 12.51C15.75 12.0958 15.4142 11.76 15 11.76C14.5858 11.76 14.25 12.0958 14.25 12.51C14.25 12.9242 14.5858 13.26 15 13.26Z" fill="#3E3F42"/>
<path d="M11 13.26C11.4142 13.26 11.75 12.9242 11.75 12.51C11.75 12.0958 11.4142 11.76 11 11.76C10.5858 11.76 10.25 12.0958 10.25 12.51C10.25 12.9242 10.5858 13.26 11 13.26Z" fill="#3E3F42"/>
</g>
<defs>
<clipPath id="clip0">
<rect width="24" height="24" fill="white"/>
</clipPath>
</defs>
</svg>
