<svg width="24" height="20" viewBox="0 0 24 20" fill="none" xmlns="http://www.w3.org/2000/svg">
<path d="M0.5 19.379C0.224 19.379 0 19.155 0 18.879C0 18.603 0.224 18.379 0.5 18.379H3V9.377H2.02C1.707 9.377 1.408 9.228 1.22 8.977C0.889 8.536 0.979 7.908 1.42 7.577L11.409 0.197C11.583 0.068 11.789 0 12.003 0C12.217 0 12.423 0.0680001 12.597 0.196L17 3.451V2.379C17 1.828 17.448 1.379 18 1.379H20C20.552 1.379 21 1.828 21 2.379V6.408L22.579 7.575C22.832 7.765 22.982 8.064 22.982 8.377C22.982 8.928 22.534 9.377 21.982 9.377H21V18.379H23.5C23.776 18.379 24 18.603 24 18.879C24 19.155 23.776 19.379 23.5 19.379H0.5ZM20 18.379V9.377H4V18.379H5V17.379C5 16.827 5.449 16.379 6 16.379V12.379C6 11.827 6.449 11.379 7 11.379H10C10.551 11.379 11 11.827 11 12.379V16.379C11.551 16.379 12 16.827 12 17.379V18.379H20ZM11 18.379V17.379H6V18.379H11ZM10 16.379V12.379H7V16.379H10ZM2.017 8.379L21.982 8.377L20.277 7.117C20.23 7.093 20.186 7.061 20.147 7.021L17.289 4.909C17.232 4.882 17.182 4.845 17.138 4.797L12.003 1.001L2.017 8.379ZM20 5.668V2.379H18V4.19L20 5.668Z" fill="#3E3F42"/>
<path d="M14 16.3789C13.448 16.3789 13 15.9309 13 15.3789V12.3789C13 11.8269 13.448 11.3789 14 11.3789H18C18.552 11.3789 19 11.8269 19 12.3789V15.3789C19 15.9309 18.552 16.3789 18 16.3789H14ZM14 15.3789H18V12.3789H14V15.3789Z" fill="#3E3F42"/>
</svg>
