<svg xmlns="http://www.w3.org/2000/svg" version="1.1" xmlns:xlink="http://www.w3.org/1999/xlink" xmlns:svgjs="http://svgjs.com/svgjs" viewBox="0 0 24 24" width="24" height="24"><g transform="matrix(1,0,0,1,0,0)"><path d="M23,22.277a1,1,0,0,1-1,1H2a1,1,0,0,1-1-1v-10.1a1,1,0,0,1,.277-.691l10-10.455a1,1,0,0,1,1.446,0l10,10.455a1,1,0,0,1,.277.691Z" fill="none" stroke="currentColor" stroke-linecap="round" stroke-linejoin="round"></path><path d="M1 12.277L23 12.277" fill="none" stroke="currentColor" stroke-linecap="round" stroke-linejoin="round"></path><path d="M12 0.723L12 12.277" fill="none" stroke="currentColor" stroke-linecap="round" stroke-linejoin="round"></path><path d="M8 4.458L8 23.277" fill="none" stroke="currentColor" stroke-linecap="round" stroke-linejoin="round"></path><path d="M16 4.458L16 23.277" fill="none" stroke="currentColor" stroke-linecap="round" stroke-linejoin="round"></path><path d="M20 8.64L20 23.277" fill="none" stroke="currentColor" stroke-linecap="round" stroke-linejoin="round"></path><path d="M4 8.64L4 23.277" fill="none" stroke="currentColor" stroke-linecap="round" stroke-linejoin="round"></path><path d="M1 19.277L8 19.277" fill="none" stroke="currentColor" stroke-linecap="round" stroke-linejoin="round"></path><path d="M16 19.277L23 19.277" fill="none" stroke="currentColor" stroke-linecap="round" stroke-linejoin="round"></path></g></svg>