<svg width="24" height="24" viewBox="0 0 24 24" fill="none" xmlns="http://www.w3.org/2000/svg">
<path d="M22 7.10999C21.866 7.10999 21.741 7.05799 21.646 6.96399C19.1 4.41699 15.71 3.01499 12.1 3.01499C8.49 3.01499 5.1 4.41699 2.554 6.96199C2.531 6.98599 2.505 7.00699 2.477 7.02599C2.395 7.08099 2.299 7.10999 2.2 7.10999C2.032 7.10999 1.877 7.02699 1.784 6.88699C1.649 6.68499 1.678 6.41699 1.853 6.24999C4.583 3.52099 8.224 2.01599 12.1 2.01599C15.978 2.01599 19.619 3.52199 22.354 6.25699C22.549 6.45199 22.549 6.76899 22.354 6.96399C22.259 7.05799 22.133 7.10999 22 7.10999Z" fill="#3E3F42"/>
<path d="M5.03 10.94C4.896 10.94 4.771 10.888 4.676 10.794C4.481 10.599 4.481 10.282 4.676 10.087C6.659 8.10396 9.296 7.01196 12.101 7.01196C14.906 7.01196 17.543 8.10396 19.525 10.087C19.72 10.282 19.72 10.599 19.525 10.794C19.431 10.888 19.305 10.94 19.171 10.94C19.037 10.94 18.912 10.888 18.817 10.794C17.023 8.99996 14.637 8.01196 12.1 8.01196C9.563 8.01196 7.177 8.99996 5.382 10.794C5.289 10.888 5.163 10.94 5.03 10.94Z" fill="#3E3F42"/>
<path d="M16.344 14.7669C16.219 14.7669 16.101 14.7209 16.008 14.6379C16.002 14.6329 15.995 14.6269 15.989 14.6209C14.952 13.5839 13.57 13.0129 12.099 13.0129C11.924 13.0129 11.747 13.0209 11.572 13.0379C10.305 13.1589 9.111 13.7209 8.212 14.6209C8.164 14.6689 8.108 14.7059 8.046 14.7309C7.986 14.7559 7.922 14.7679 7.857 14.7679C7.723 14.7679 7.598 14.7159 7.503 14.6219C7.408 14.5279 7.357 14.4019 7.357 14.2679C7.357 14.1339 7.409 14.0089 7.503 13.9139C8.729 12.6879 10.361 12.0129 12.099 12.0129C13.839 12.0129 15.471 12.6879 16.697 13.9139C16.791 14.0079 16.843 14.1339 16.843 14.2679C16.843 14.4019 16.791 14.5269 16.697 14.6219C16.603 14.7169 16.477 14.7669 16.344 14.7669Z" fill="#3E3F42"/>
<path d="M12.1 22.01C10.721 22.01 9.60001 20.888 9.60001 19.51C9.60001 18.132 10.721 17.01 12.1 17.01C13.479 17.01 14.6 18.132 14.6 19.51C14.6 20.888 13.478 22.01 12.1 22.01ZM12.1 18.01C11.273 18.01 10.6 18.683 10.6 19.51C10.6 20.337 11.273 21.01 12.1 21.01C12.927 21.01 13.6 20.337 13.6 19.51C13.6 18.683 12.927 18.01 12.1 18.01Z" fill="#3E3F42"/>
</svg>
