<svg width="24" height="24" viewBox="0 0 24 24" fill="none" xmlns="http://www.w3.org/2000/svg">
<path d="M16.938 7.84003C16.671 7.84003 16.42 7.73603 16.231 7.54803L14.11 5.42703C13.921 5.23803 13.817 4.98703 13.817 4.72003C13.817 4.45303 13.921 4.20203 14.11 4.01303L16.585 1.53703C17.056 1.06603 17.684 0.80603 18.353 0.80603C19.022 0.80603 19.649 1.06603 20.121 1.53703C21.094 2.51103 21.094 4.09703 20.121 5.07103L17.646 7.54803C17.457 7.73603 17.205 7.84003 16.938 7.84003ZM18.353 1.80603C17.952 1.80603 17.575 1.96203 17.292 2.24403L14.817 4.72003L16.938 6.84103L19.413 4.36403C19.997 3.78003 19.997 2.82803 19.413 2.24403C19.131 1.96103 18.754 1.80603 18.353 1.80603Z" fill="#3E3F42"/>
<path d="M3.503 20.654C2.835 20.654 2.207 20.394 1.735 19.921C1.263 19.449 1.003 18.821 1.003 18.153C1.003 17.485 1.263 16.857 1.736 16.385L4.211 13.911C4.393 13.729 4.65 13.625 4.918 13.625C5.186 13.625 5.443 13.729 5.625 13.911L7.746 16.031C7.935 16.22 8.039 16.471 8.039 16.738C8.039 17.005 7.935 17.256 7.746 17.445L5.27 19.922C4.798 20.394 4.17 20.654 3.503 20.654ZM2.442 17.093C2.159 17.376 2.003 17.753 2.002 18.154C2.002 18.555 2.158 18.932 2.441 19.215C2.724 19.498 3.101 19.654 3.502 19.655C3.903 19.655 4.279 19.499 4.563 19.216L7.038 16.74L4.917 14.62L2.442 17.093Z" fill="#3E3F42"/>
<path d="M8.453 15.1191C8.354 15.1191 8.258 15.0901 8.176 15.0351C8.14 15.0111 8.107 14.9821 8.078 14.9491C7.151 14.0221 6.635 12.7701 6.636 11.4341C6.638 10.0981 7.157 8.84309 8.1 7.90109C9.043 6.95809 10.299 6.43909 11.636 6.43909C12.973 6.43909 14.228 6.95809 15.171 7.90109C15.265 7.99509 15.317 8.12109 15.317 8.25509C15.317 8.38909 15.265 8.51409 15.171 8.60909L13.739 10.0411C14.407 11.0371 14.311 12.3541 13.478 13.2501C12.978 13.7141 12.352 13.9621 11.702 13.9621C11.19 13.9621 10.688 13.8051 10.264 13.5161L8.807 14.9731C8.712 15.0671 8.586 15.1191 8.453 15.1191ZM11.635 7.43809C10.565 7.43809 9.561 7.85309 8.807 8.60809C7.373 10.0411 7.248 12.3131 8.475 13.8901L9.852 12.5131C9.86 12.5021 9.87 12.4911 9.878 12.4821C9.891 12.4701 9.903 12.4601 9.913 12.4521L12.688 9.67509C12.696 9.66409 12.705 9.65409 12.712 9.64609C12.721 9.63709 12.732 9.62809 12.744 9.61909L14.088 8.27409C13.39 7.73409 12.528 7.43809 11.635 7.43809ZM10.992 12.7871C11.212 12.9021 11.456 12.9611 11.709 12.9611C12.102 12.9611 12.479 12.8121 12.772 12.5421C13.213 12.0661 13.3 11.3551 13.007 10.7721L10.992 12.7871Z" fill="#3E3F42"/>
<path d="M11.695 16.9991C11.435 16.9991 11.172 16.9801 10.914 16.9431C10.641 16.9031 10.451 16.6491 10.49 16.3771C10.525 16.1321 10.737 15.9481 10.983 15.9481C11.007 15.9481 11.032 15.9501 11.057 15.9531C11.267 15.9831 11.482 15.9991 11.695 15.9991C11.916 15.9991 12.14 15.9821 12.359 15.9501C13.546 15.7731 14.594 15.1431 15.31 14.1761C16.026 13.2091 16.323 12.0231 16.146 10.8361C16.105 10.5631 16.294 10.3081 16.567 10.2681C16.593 10.2641 16.617 10.2631 16.641 10.2631C16.891 10.2631 17.099 10.4421 17.136 10.6891C17.583 13.6891 15.506 16.4921 12.507 16.9391C12.24 16.9791 11.966 16.9991 11.695 16.9991Z" fill="#3E3F42"/>
<path d="M11.697 20C11.382 20 11.062 19.982 10.747 19.947C10.473 19.916 10.275 19.668 10.306 19.394C10.334 19.141 10.549 18.95 10.806 18.95C10.822 18.95 10.839 18.951 10.856 18.952C11.135 18.984 11.417 19 11.697 19C11.974 19 12.254 18.984 12.528 18.953C14.519 18.731 16.304 17.747 17.555 16.182C18.806 14.617 19.372 12.659 19.15 10.668C19.12 10.394 19.318 10.146 19.592 10.116C19.612 10.114 19.63 10.113 19.647 10.113C19.902 10.113 20.116 10.304 20.144 10.557C20.396 12.814 19.754 15.033 18.336 16.806C16.919 18.58 14.895 19.695 12.639 19.947C12.326 19.982 12.009 20 11.697 20Z" fill="#3E3F42"/>
<path d="M11.69 22.9991C11.058 22.9991 10.419 22.9461 9.791 22.8411C9.659 22.8191 9.544 22.7471 9.467 22.6381C9.389 22.5291 9.359 22.3971 9.381 22.2651C9.422 22.0231 9.628 21.8471 9.872 21.8471C9.901 21.8471 9.93 21.8501 9.959 21.8551C10.529 21.9501 11.113 21.9991 11.691 21.9991C12.299 21.9991 12.913 21.9451 13.516 21.8391C16.28 21.3511 18.688 19.8171 20.297 17.5181C21.906 15.2191 22.524 12.4311 22.037 9.66708C22.014 9.53608 22.043 9.40308 22.12 9.29308C22.197 9.18408 22.311 9.11108 22.443 9.08708C22.471 9.08308 22.5 9.08008 22.529 9.08008C22.772 9.08008 22.979 9.25408 23.021 9.49308C23.555 12.5191 22.878 15.5731 21.115 18.0911C19.352 20.6091 16.715 22.2891 13.688 22.8231C13.03 22.9401 12.357 22.9991 11.69 22.9991Z" fill="#3E3F42"/>
</svg>
