<svg width="24" height="24" viewBox="0 0 24 24" fill="none" xmlns="http://www.w3.org/2000/svg">
<path d="M18.5 21.751C18.366 21.751 18.241 21.699 18.146 21.605L13.5 16.958L8.854 21.604C8.76 21.698 8.634 21.75 8.5 21.75C8.366 21.75 8.241 21.698 8.146 21.604C7.951 21.409 7.951 21.092 8.146 20.897L12.792 16.251L7.292 10.751H0.5C0.224 10.751 0 10.527 0 10.251V6.09298C0.121 4.66998 0.773 3.40198 1.837 2.50198C2.009 2.34298 2.246 2.25098 2.497 2.25098C2.749 2.25098 2.989 2.34398 3.174 2.51198C4.228 3.40498 4.879 4.66398 4.998 6.04998L5 9.75098H6V8.75098C6 8.19998 6.449 7.75098 7 7.75098H22.5C23.327 7.75098 24 8.42398 24 9.25098C24 10.078 23.327 10.751 22.5 10.751H19.707L14.207 16.251L18.853 20.897C19.048 21.092 19.048 21.409 18.853 21.604C18.759 21.699 18.634 21.751 18.5 21.751ZM13.5 15.544L18.293 10.751H8.707L13.5 15.544ZM22.5 9.75098C22.776 9.75098 23 9.52698 23 9.25098C23 8.97498 22.776 8.75098 22.5 8.75098H7V9.75098H22.5ZM4 9.75098V6.09298C3.904 5.00498 3.377 3.99298 2.517 3.26598L2.499 3.25098C1.625 3.99098 1.095 5.01298 0.998 6.13598L1 9.75098H4Z" fill="#3E3F42"/>
</svg>
