<svg width="24" height="24" viewBox="0 0 24 24" fill="none" xmlns="http://www.w3.org/2000/svg">
<path d="M5 7.5C3.346 7.5 2 6.154 2 4.5C2 2.846 3.346 1.5 5 1.5C6.654 1.5 8 2.846 8 4.5C8 6.154 6.654 7.5 5 7.5ZM5 2.5C3.897 2.5 3 3.397 3 4.5C3 5.603 3.897 6.5 5 6.5C6.103 6.5 7 5.603 7 4.5C7 3.397 6.103 2.5 5 2.5Z" fill="#3E3F42"/>
<path d="M9.49999 22.5C4.47299 22.5 0.306986 18.569 0.0159856 13.551C0.00398557 13.279 0.0969856 13.022 0.276986 12.825C0.456986 12.628 0.702986 12.513 0.969986 12.501C0.986986 12.5 1.00799 12.5 1.02699 12.5H2.99999V10.5C2.99999 9.397 3.89699 8.5 4.99999 8.5C5.39599 8.5 5.77999 8.616 6.10899 8.836L8.88599 10.684C9.05099 10.793 9.24299 10.851 9.43899 10.851C9.64699 10.851 9.84799 10.787 10.021 10.665L11.132 9.867C11.474 9.623 11.875 9.494 12.294 9.494C12.94 9.494 13.55 9.807 13.924 10.331C14.565 11.229 14.356 12.481 13.459 13.121L12.345 13.92C11.483 14.53 10.479 14.852 9.43899 14.852C8.45699 14.852 7.49799 14.562 6.66699 14.013L5.85499 13.5H1.02099C1.27499 17.984 5.00199 21.5 9.49999 21.5H14.5C18.998 21.5 22.725 17.983 22.986 13.493L15.5 13.5C15.224 13.5 15 13.276 15 13C15 12.724 15.224 12.5 15.5 12.5H22.979C23.252 12.502 23.495 12.6 23.683 12.784C23.874 12.971 23.982 13.221 23.985 13.488V13.531C23.693 18.566 19.527 22.501 14.5 22.501H9.49999V22.5ZM6.21499 12.552C6.23199 12.559 6.25099 12.567 6.26399 12.575L7.20799 13.174C7.87999 13.618 8.64999 13.852 9.43699 13.852C10.269 13.852 11.073 13.594 11.762 13.106L12.874 12.308C13.323 11.987 13.428 11.361 13.108 10.912C12.921 10.65 12.616 10.494 12.292 10.494C12.083 10.494 11.882 10.558 11.712 10.68L10.599 11.479C10.254 11.723 9.85199 11.851 9.43699 11.851C9.04499 11.851 8.66299 11.736 8.33199 11.518L5.55499 9.668C5.38999 9.558 5.19799 9.5 4.99999 9.5C4.44899 9.5 3.99999 9.949 3.99999 10.5V12.5H5.99999C6.01699 12.5 6.03899 12.503 6.05799 12.507C6.09099 12.511 6.11799 12.518 6.13899 12.525C6.16499 12.531 6.19099 12.541 6.21499 12.552Z" fill="#3E3F42"/>
</svg>
