<svg width="24" height="24" viewBox="0 0 24 24" fill="none" xmlns="http://www.w3.org/2000/svg">
<path d="M18.5 19.8049C17.397 19.8049 16.5 18.9079 16.5 17.8049C16.5 16.7019 17.397 15.8049 18.5 15.8049C19.603 15.8049 20.5 16.7019 20.5 17.8049C20.5 18.9079 19.603 19.8049 18.5 19.8049ZM18.5 16.8049C17.948 16.8049 17.5 17.2529 17.5 17.8049C17.5 18.3569 17.948 18.8049 18.5 18.8049C19.052 18.8049 19.5 18.3569 19.5 17.8049C19.5 17.2529 19.052 16.8049 18.5 16.8049Z" fill="#3E3F42"/>
<path d="M5.5 19.8049C4.397 19.8049 3.5 18.9079 3.5 17.8049C3.5 16.7019 4.397 15.8049 5.5 15.8049C6.603 15.8049 7.5 16.7019 7.5 17.8049C7.5 18.9079 6.603 19.8049 5.5 19.8049ZM5.5 16.8049C4.949 16.8049 4.5 17.2529 4.5 17.8049C4.5 18.3569 4.949 18.8049 5.5 18.8049C6.051 18.8049 6.5 18.3569 6.5 17.8049C6.5 17.2529 6.051 16.8049 5.5 16.8049Z" fill="#3E3F42"/>
<path d="M1.5 21.8049C0.673 21.8049 0 21.1319 0 20.3049V15.3049C0 14.4779 0.673 13.8049 1.5 13.8049H2V13.3049C2 12.4779 2.673 11.8049 3.5 11.8049C3.776 11.8049 4 12.0289 4 12.3049C4 12.5809 3.776 12.8049 3.5 12.8049C3.224 12.8049 3 13.0289 3 13.3049V13.8049H5V12.3049C5 12.0289 5.224 11.8049 5.5 11.8049C5.776 11.8049 6 12.0289 6 12.3049V13.8049H8V13.3049C8 13.0289 7.776 12.8049 7.5 12.8049C7.224 12.8049 7 12.5799 7 12.3049C7 12.0289 7.224 11.8049 7.5 11.8049C8.327 11.8049 9 12.4779 9 13.3049V13.8049H15V13.3049C15 12.4779 15.673 11.8049 16.5 11.8049C16.776 11.8049 17 12.0289 17 12.3049C17 12.5809 16.776 12.8049 16.5 12.8049C16.224 12.8049 16 13.0289 16 13.3049V13.8049H18V12.3049C18 12.0289 18.224 11.8049 18.5 11.8049C18.776 11.8049 19 12.0289 19 12.3049V13.8049H21V13.3049C21 13.0289 20.776 12.8049 20.5 12.8049C20.224 12.8049 20 12.5809 20 12.3049C20 12.0289 20.224 11.8049 20.5 11.8049C21.327 11.8049 22 12.4779 22 13.3049V13.8049H22.5C23.327 13.8049 24 14.4779 24 15.3049V20.3049C24 21.1319 23.327 21.8049 22.5 21.8049H1.5ZM1.5 14.8049C1.224 14.8049 1 15.0289 1 15.3049V20.3049C1 20.5809 1.224 20.8049 1.5 20.8049H22.5C22.776 20.8049 23 20.5809 23 20.3049V15.3049C23 15.0289 22.776 14.8049 22.5 14.8049H1.5Z" fill="#3E3F42"/>
<path d="M18.5 10.803C16.638 10.803 15.122 9.28797 15.121 7.42597C15.102 6.20597 15.811 5.08697 16.927 4.57897C16.927 4.57897 16.955 4.56597 16.984 4.55497C17.07 4.52397 17.157 4.50797 17.245 4.50797C17.559 4.50797 17.843 4.70597 17.951 4.99997C18.043 4.42997 17.933 3.83497 17.631 3.33597C17.498 3.12497 17.483 2.85897 17.591 2.62697C17.676 2.44497 17.827 2.30697 18.016 2.23897C18.098 2.20897 18.184 2.19397 18.271 2.19397C18.381 2.19397 18.488 2.21797 18.589 2.26497C20.591 3.22797 21.85 5.20197 21.879 7.41797C21.878 9.28497 20.363 10.801 18.502 10.802C18.501 10.803 18.5 10.803 18.5 10.803ZM17.141 5.60797C16.503 5.97697 16.11 6.66397 16.121 7.41697C16.122 8.73397 17.189 9.80197 18.5 9.80197C19.812 9.80097 20.878 8.73497 20.879 7.42397C20.858 5.85197 20.085 4.42497 18.818 3.54997C19.097 4.42497 19.02 5.39297 18.583 6.21897C18.515 6.34597 18.397 6.43797 18.258 6.47097C18.221 6.47997 18.181 6.48497 18.141 6.48497C18.037 6.48497 17.938 6.45297 17.853 6.39297C17.559 6.18697 17.317 5.91897 17.141 5.60797Z" fill="#3E3F42"/>
<path d="M5.499 10.8059C3.636 10.8049 2.121 9.28895 2.121 7.42595C2.102 6.20595 2.811 5.08695 3.927 4.57895C3.93 4.57695 3.957 4.56495 3.985 4.55495C4.07 4.52295 4.157 4.50795 4.245 4.50795C4.355 4.50795 4.462 4.53195 4.562 4.57895C4.744 4.66295 4.882 4.81295 4.951 4.99995C5.043 4.42995 4.933 3.83495 4.631 3.33595C4.498 3.12495 4.483 2.85795 4.592 2.62595C4.677 2.44495 4.827 2.30795 5.016 2.23995C5.098 2.20995 5.184 2.19495 5.271 2.19495C5.381 2.19495 5.489 2.21895 5.589 2.26595C7.591 3.22895 8.85 5.20295 8.879 7.41895C8.878 9.28795 7.363 10.8059 5.499 10.8059ZM4.141 5.60795C3.503 5.97695 3.11 6.66395 3.121 7.41695C3.121 8.73495 4.187 9.80395 5.499 9.80495C6.811 9.80495 7.878 8.73795 7.879 7.42695C7.859 5.85395 7.085 4.42595 5.818 3.55095C6.097 4.42595 6.021 5.39495 5.583 6.21995C5.515 6.34695 5.397 6.43895 5.257 6.47195C5.22 6.48095 5.18 6.48595 5.141 6.48595C5.037 6.48595 4.938 6.45395 4.853 6.39395C4.559 6.18695 4.317 5.91895 4.141 5.60795Z" fill="#3E3F42"/>
</svg>
