<svg width="24" height="24" viewBox="0 0 24 24" fill="none" xmlns="http://www.w3.org/2000/svg">
<path d="M0.5 13C0.224 13 0 12.776 0 12.5C0 12.224 0.224 12 0.5 12H2.088C2.03 11.84 2 11.672 2 11.5V9.5C2 9.224 2.224 9 2.5 9H5.5C5.776 9 6 9.224 6 9.5V11.5C6 11.672 5.97 11.84 5.912 12H10.5C10.776 12 11 12.224 11 12.5C11 12.776 10.776 13 10.5 13H0.5ZM3 11.5C3 11.776 3.224 12 3.5 12H4.5C4.776 12 5 11.776 5 11.5V10H3V11.5Z" fill="#3E3F42"/>
<path d="M13.5 10C13.224 10 13 9.776 13 9.5C13 9.224 13.224 9 13.5 9H16.191L17.053 7.276C17.138 7.106 17.31 7 17.5 7C17.577 7 17.654 7.018 17.724 7.053C17.843 7.113 17.932 7.215 17.974 7.342C18.016 7.469 18.007 7.604 17.947 7.724L17.309 9H19.191L20.053 7.276C20.138 7.106 20.31 7 20.5 7C20.577 7 20.654 7.018 20.724 7.053C20.843 7.113 20.932 7.215 20.974 7.342C21.016 7.469 21.007 7.604 20.947 7.724L20.309 9H23.5C23.776 9 24 9.224 24 9.5C24 9.776 23.776 10 23.5 10H13.5Z" fill="#3E3F42"/>
<path d="M0.5 5C0.224 5 0 4.776 0 4.5V1.5C0 0.673 0.673 0 1.5 0H22.5C23.327 0 24 0.673 24 1.5V4.5C24 4.776 23.776 5 23.5 5H0.5ZM23 4V1.5C23 1.224 22.776 1 22.5 1H16V4H23ZM15 4V1H9V4H15ZM8 4V1H1.5C1.224 1 1 1.224 1 1.5V4H8Z" fill="#3E3F42"/>
<path d="M1.5 24C0.673 24 0 23.327 0 22.5V16.5C0 15.673 0.673 15 1.5 15H22.5C23.327 15 24 15.673 24 16.5V22.5C24 23.327 23.327 24 22.5 24H1.5ZM22.5 23C22.776 23 23 22.776 23 22.5V18H16V23H22.5ZM15 23V18H9V23H15ZM1 22.5C1 22.776 1.224 23 1.5 23H8V18H1V22.5ZM23 17V16.5C23 16.224 22.776 16 22.5 16H1.5C1.224 16 1 16.224 1 16.5V17H23Z" fill="#3E3F42"/>
</svg>
