<svg xmlns="http://www.w3.org/2000/svg" version="1.1" xmlns:xlink="http://www.w3.org/1999/xlink" xmlns:svgjs="http://svgjs.com/svgjs" viewBox="0 0 24 24" width="24" height="24"><g transform="matrix(1,0,0,1,0,0)"><path d="M23.5,21.851c-2.5.52-4.06-1.98-4.06-1.98h0a4.4,4.4,0,0,1-3.621,2.057A4.607,4.607,0,0,1,12.2,19.871h0a4.4,4.4,0,0,1-3.62,2.057A4.6,4.6,0,0,1,4.96,19.871h0s-2,2.542-4.455,2.021" fill="none" stroke="currentColor" stroke-linecap="round" stroke-linejoin="round"></path><path d="M23.5,16.924c-2.5.519-4.06-1.981-4.06-1.981h0A4.4,4.4,0,0,1,15.814,17,4.607,4.607,0,0,1,12.2,14.943h0A4.4,4.4,0,0,1,8.575,17,4.6,4.6,0,0,1,4.96,14.943h0s-2,2.542-4.455,2.022" fill="none" stroke="currentColor" stroke-linecap="round" stroke-linejoin="round"></path><path d="M19.102 9.037L20.494 9.037" fill="none" stroke="currentColor" stroke-linecap="round" stroke-linejoin="round"></path><path d="M17.364 5.148L18.407 4.104" fill="none" stroke="currentColor" stroke-linecap="round" stroke-linejoin="round"></path><path d="M12.494 3.429L12.494 2.037" fill="none" stroke="currentColor" stroke-linecap="round" stroke-linejoin="round"></path><path d="M7.625 5.148L6.581 4.104" fill="none" stroke="currentColor" stroke-linecap="round" stroke-linejoin="round"></path><path d="M5.885 9.037L4.494 9.037" fill="none" stroke="currentColor" stroke-linecap="round" stroke-linejoin="round"></path><path d="M9.43,13.958A5,5,0,1,1,15.587,14" fill="none" stroke="currentColor" stroke-linecap="round" stroke-linejoin="round"></path></g></svg>