<svg xmlns="http://www.w3.org/2000/svg" version="1.1" xmlns:xlink="http://www.w3.org/1999/xlink" xmlns:svgjs="http://svgjs.com/svgjs" viewBox="0 0 24 24" width="24" height="24"><g transform="matrix(1,0,0,1,0,0)"><path d="M4,23.4l.93-5.582a.5.5,0,0,1,.494-.418H18.576a.5.5,0,0,1,.494.418L20,23.4" fill="none" stroke="currentColor" stroke-linecap="round" stroke-linejoin="round"></path><path d="M18,17.4l-.955-9.549a.5.5,0,0,0-.5-.451H7.453a.5.5,0,0,0-.5.451L6,17.4" fill="none" stroke="currentColor" stroke-linecap="round" stroke-linejoin="round"></path><path d="M16 7.396L16 4.396 8 4.396 8 7.396" fill="none" stroke="currentColor" stroke-linecap="round" stroke-linejoin="round"></path><path d="M16,4.4,12.354.75a.5.5,0,0,0-.708,0L8,4.4" fill="none" stroke="currentColor" stroke-linecap="round" stroke-linejoin="round"></path><path d="M9.5 11.893L9.5 10.393" fill="none" stroke="currentColor" stroke-linecap="round" stroke-linejoin="round"></path><path d="M12 11.893L12 10.393" fill="none" stroke="currentColor" stroke-linecap="round" stroke-linejoin="round"></path><path d="M14.5 11.893L14.5 10.393" fill="none" stroke="currentColor" stroke-linecap="round" stroke-linejoin="round"></path><path d="M9.5 15.393L9.5 13.893" fill="none" stroke="currentColor" stroke-linecap="round" stroke-linejoin="round"></path><path d="M12 15.393L12 13.893" fill="none" stroke="currentColor" stroke-linecap="round" stroke-linejoin="round"></path><path d="M14.5 15.393L14.5 13.893" fill="none" stroke="currentColor" stroke-linecap="round" stroke-linejoin="round"></path><path d="M9.5 21.393L9.5 19.893" fill="none" stroke="currentColor" stroke-linecap="round" stroke-linejoin="round"></path><path d="M7 21.393L7 19.893" fill="none" stroke="currentColor" stroke-linecap="round" stroke-linejoin="round"></path><path d="M17 21.393L17 19.893" fill="none" stroke="currentColor" stroke-linecap="round" stroke-linejoin="round"></path><path d="M12 21.393L12 19.893" fill="none" stroke="currentColor" stroke-linecap="round" stroke-linejoin="round"></path><path d="M14.5 21.393L14.5 19.893" fill="none" stroke="currentColor" stroke-linecap="round" stroke-linejoin="round"></path></g></svg>