<svg width="24" height="24" viewBox="0 0 24 24" fill="none" xmlns="http://www.w3.org/2000/svg">
<path d="M7.5 24C6.673 24 6 23.327 6 22.5V18C6 13.944 8.523 11 12 11C14.757 11 17 8.757 17 6C17 3.243 14.757 1 12 1C9.243 1 7 3.243 7 6C7 6.276 6.776 6.5 6.5 6.5C6.224 6.5 6 6.276 6 6C6 2.692 8.692 0 12 0C15.308 0 18 2.692 18 6V22.5C18 23.327 17.327 24 16.5 24H7.5ZM17 9.314C15.899 10.972 14.027 12 12 12C9.056 12 7 14.467 7 18V22.5C7 22.776 7.224 23 7.5 23H16.5C16.776 23 17 22.776 17 22.5V9.314Z" fill="#3E3F42"/>
<path d="M9.5 21C9.224 21 9 20.776 9 20.5C9 20.224 9.224 20 9.5 20H14.5C14.776 20 15 20.224 15 20.5C15 20.776 14.776 21 14.5 21H9.5Z" fill="#3E3F42"/>
</svg>
