<svg width="24" height="24" viewBox="0 0 24 24" fill="none" xmlns="http://www.w3.org/2000/svg">
<path d="M11.518 19C7.383 19 4.018 15.635 4.018 11.5C4.018 7.365 7.382 4 11.518 4C15.654 4 19.018 7.365 19.018 11.5C19.018 11.776 18.794 12 18.518 12C18.242 12 18.018 11.776 18.018 11.5C18.018 7.916 15.102 5 11.518 5C7.934 5 5.018 7.916 5.018 11.5C5.018 15.084 7.934 18 11.518 18C11.794 18 12.018 18.224 12.018 18.5C12.018 18.776 11.794 19 11.518 19Z" fill="#3E3F42"/>
<path d="M11.518 23C11.242 23 11.018 22.776 11.018 22.5V20.5C11.018 20.224 11.242 20 11.518 20C11.794 20 12.018 20.224 12.018 20.5V22.5C12.018 22.776 11.794 23 11.518 23Z" fill="#3E3F42"/>
<path d="M20.518 12C20.242 12 20.018 11.776 20.018 11.5C20.018 11.224 20.242 11 20.518 11H22.518C22.794 11 23.018 11.224 23.018 11.5C23.018 11.776 22.794 12 22.518 12H20.518Z" fill="#3E3F42"/>
<path d="M11.518 3C11.242 3 11.018 2.776 11.018 2.5V0.5C11.018 0.224 11.242 0 11.518 0C11.794 0 12.018 0.224 12.018 0.5V2.5C12.018 2.776 11.794 3 11.518 3Z" fill="#3E3F42"/>
<path d="M0.517998 12C0.241998 12 0.0179977 11.776 0.0179977 11.5C0.0179977 11.224 0.241998 11 0.517998 11H2.518C2.794 11 3.018 11.224 3.018 11.5C3.018 11.776 2.794 12 2.518 12H0.517998Z" fill="#3E3F42"/>
<path d="M3.741 19.779C3.607 19.779 3.482 19.727 3.387 19.633C3.293 19.539 3.241 19.413 3.241 19.28C3.241 19.147 3.293 19.021 3.387 18.926L4.801 17.511C4.896 17.417 5.021 17.365 5.155 17.365C5.289 17.365 5.414 17.417 5.509 17.511C5.603 17.605 5.655 17.731 5.655 17.864C5.655 17.997 5.603 18.123 5.509 18.218L4.095 19.633C4 19.727 3.875 19.779 3.741 19.779Z" fill="#3E3F42"/>
<path d="M17.883 5.63712C17.749 5.63712 17.624 5.58512 17.529 5.49112C17.334 5.29612 17.334 4.97912 17.529 4.78412L18.943 3.37012C19.037 3.27612 19.163 3.22412 19.297 3.22412C19.431 3.22412 19.556 3.27612 19.651 3.37012C19.846 3.56512 19.846 3.88212 19.651 4.07712L18.236 5.49012C18.142 5.58512 18.016 5.63712 17.883 5.63712Z" fill="#3E3F42"/>
<path d="M5.155 5.63712C5.021 5.63712 4.896 5.58512 4.801 5.49112L3.387 4.07712C3.192 3.88212 3.192 3.56512 3.387 3.37012C3.481 3.27612 3.607 3.22412 3.741 3.22412C3.875 3.22412 4 3.27512 4.094 3.37012L5.508 4.78412C5.703 4.97912 5.703 5.29612 5.508 5.49112C5.414 5.58512 5.288 5.63712 5.155 5.63712Z" fill="#3E3F42"/>
<path d="M14.518 24.0001C14.478 24.0001 14.438 23.9951 14.398 23.9861C14.268 23.9541 14.158 23.8731 14.089 23.7591C14.021 23.6441 14 23.5101 14.032 23.3801C14.223 22.6101 14.518 21.8671 14.912 21.1691C14.334 20.4331 14.018 19.5251 14.018 18.5911C14.018 16.2851 15.894 14.4091 18.2 14.4091C19.707 14.3131 21.172 13.9101 22.54 13.2131C22.687 13.1431 22.831 13.1101 22.98 13.1101C23.365 13.1101 23.72 13.3341 23.885 13.6821C23.959 13.8371 23.991 14.0101 23.979 14.1821C23.434 21.9371 19.756 22.7741 18.2 22.7741C17.278 22.7741 16.386 22.4671 15.655 21.9031C15.368 22.4551 15.15 23.0321 15.004 23.6211C14.948 23.8441 14.748 24.0001 14.518 24.0001ZM16.174 21.0391C16.746 21.5141 17.457 21.7731 18.2 21.7731C19.475 21.7731 22.495 21.0261 22.981 14.1101C21.501 14.8651 19.899 15.3031 18.231 15.4081C16.452 15.4091 15.018 16.8371 15.018 18.5911C15.018 19.1881 15.182 19.7591 15.496 20.2621C16.457 18.9521 17.742 17.9361 19.234 17.3111C19.296 17.2851 19.36 17.2721 19.427 17.2721C19.629 17.2721 19.811 17.3921 19.889 17.5791C19.995 17.8331 19.875 18.1271 19.621 18.2331C18.227 18.8181 17.039 19.7851 16.174 21.0391Z" fill="#3E3F42"/>
</svg>
