<svg width="24" height="24" viewBox="0 0 24 24" fill="none" xmlns="http://www.w3.org/2000/svg">
<path d="M5.5 24C4.121 24 3 22.878 3 21.5V20H2.5C2.224 20 2 19.776 2 19.5C2 19.224 2.224 19 2.5 19H3V17H2.5C2.224 17 2 16.776 2 16.5C2 16.224 2.224 16 2.5 16H3V14H2.5C2.224 14 2 13.776 2 13.5C2 13.224 2.224 13 2.5 13H3V11H2.5C2.224 11 2 10.776 2 10.5C2 10.224 2.224 10 2.5 10H3V8H2.5C2.224 8 2 7.776 2 7.5C2 7.224 2.224 7 2.5 7H3V5H2.5C2.224 5 2 4.776 2 4.5C2 4.224 2.224 4 2.5 4H3V2.5C3 1.121 4.121 0 5.5 0H19.5C20.878 0 22 1.121 22 2.5V21.5C22 22.878 20.878 24 19.5 24H5.5ZM4 21.5C4 22.327 4.673 23 5.5 23H19.5C20.327 23 21 22.327 21 21.5V2.5C21 1.673 20.327 1 19.5 1H5.5C4.673 1 4 1.673 4 2.5V4H4.5C4.776 4 5 4.224 5 4.5C5 4.776 4.776 5 4.5 5H4V7H4.5C4.776 7 5 7.224 5 7.5C5 7.776 4.776 8 4.5 8H4V10H4.5C4.776 10 5 10.224 5 10.5C5 10.776 4.776 11 4.5 11H4V13H4.5C4.776 13 5 13.224 5 13.5C5 13.776 4.776 14 4.5 14H4V16H4.5C4.776 16 5 16.224 5 16.5C5 16.776 4.776 17 4.5 17H4V19H4.5C4.776 19 5 19.224 5 19.5C5 19.776 4.776 20 4.5 20H4V21.5Z" fill="#3E3F42"/>
<path d="M8.854 16.284C8.72 16.284 8.595 16.232 8.5 16.138C8.405 16.044 8.354 15.918 8.354 15.784C8.354 15.65 8.406 15.525 8.5 15.43L12.508 11.423L11.514 10.429C11.116 10.691 10.657 10.829 10.173 10.829H10.142C9.488 10.821 8.876 10.558 8.419 10.09L6.124 7.79498C5.929 7.59998 5.929 7.28298 6.124 7.08798C6.218 6.99398 6.344 6.94198 6.478 6.94198C6.612 6.94198 6.737 6.99398 6.832 7.08798L9.132 9.38798C9.41 9.67198 9.778 9.82798 10.173 9.82798C10.386 9.82798 10.592 9.78298 10.781 9.69498L7.501 6.41698C7.407 6.32298 7.355 6.19698 7.355 6.06298C7.355 5.92898 7.407 5.80398 7.501 5.70898C7.595 5.61398 7.721 5.56298 7.855 5.56298C7.989 5.56298 8.114 5.61498 8.209 5.70898L11.488 8.98798C11.74 8.45098 11.64 7.80598 11.211 7.36598L8.881 5.03598C8.787 4.94198 8.735 4.81598 8.735 4.68198C8.735 4.54798 8.786 4.42398 8.88 4.32898C8.974 4.23398 9.1 4.18298 9.234 4.18298C9.368 4.18298 9.493 4.23498 9.588 4.32898L11.924 6.66498C12.733 7.49398 12.844 8.76998 12.221 9.71998L13.216 10.715L14.261 9.66998C13.645 8.72998 13.749 7.46198 14.54 6.63498L15.466 5.70798C15.928 5.24498 16.544 4.98998 17.198 4.98998C17.852 4.98998 18.467 5.24498 18.93 5.70798C19.393 6.17098 19.648 6.78598 19.648 7.43998C19.648 8.09398 19.393 8.70998 18.93 9.17198L18.012 10.092C17.548 10.535 16.945 10.777 16.31 10.777C15.835 10.777 15.367 10.636 14.97 10.376L13.924 11.422L17.878 15.376C17.972 15.47 18.024 15.596 18.024 15.73C18.024 15.864 17.972 15.989 17.878 16.084C17.784 16.179 17.658 16.23 17.524 16.23C17.39 16.23 17.265 16.178 17.17 16.084L13.216 12.13L9.208 16.137C9.113 16.232 8.988 16.284 8.854 16.284ZM17.197 5.99198C16.81 5.99198 16.446 6.14298 16.172 6.41598L15.254 7.33498C14.723 7.89098 14.725 8.76898 15.261 9.33098C15.537 9.61998 15.909 9.77898 16.31 9.77898C16.685 9.77898 17.04 9.63698 17.311 9.37898L18.221 8.46698C18.495 8.19298 18.646 7.82898 18.646 7.44198C18.646 7.05498 18.495 6.69098 18.221 6.41698C17.948 6.14298 17.584 5.99198 17.197 5.99198Z" fill="#3E3F42"/>
</svg>
