<svg width="24" height="24" viewBox="0 0 24 24" fill="none" xmlns="http://www.w3.org/2000/svg">
<path d="M21.5 22C21.224 22 21 21.776 21 21.5V19H3V21.5C3 21.776 2.776 22 2.5 22C2.224 22 2 21.776 2 21.5V18.949C0.845 18.715 0 17.699 0 16.5V4.5C0 3.121 1.121 2 2.5 2H21.5C22.878 2 24 3.121 24 4.5V16.5C24 17.699 23.155 18.715 22 18.949V21.5C22 21.776 21.776 22 21.5 22ZM21.5 18C22.327 18 23 17.327 23 16.5V4.5C23 3.673 22.327 3 21.5 3H17V18H21.5ZM2.5 3C1.673 3 1 3.673 1 4.5V16.5C1 17.327 1.673 18 2.5 18H16V3H2.5Z" fill="#3E3F42"/>
<path d="M4.5 17C3.121 17 2 15.878 2 14.5V6.5C2 5.121 3.121 4 4.5 4H12.5C13.878 4 15 5.121 15 6.5V14.5C15 15.878 13.878 17 12.5 17H4.5ZM4.5 5C3.673 5 3 5.673 3 6.5V14.5C3 15.327 3.673 16 4.5 16H12.5C13.327 16 14 15.327 14 14.5V6.5C14 5.673 13.327 5 12.5 5H4.5Z" fill="#3E3F42"/>
<path d="M19 17C18.448 17 18 16.552 18 16V15C18 14.448 18.448 14 19 14H21C21.552 14 22 14.448 22 15V16C22 16.552 21.552 17 21 17H19ZM19 16H21V15H19V16Z" fill="#3E3F42"/>
<path d="M5 14C4.724 14 4.5 13.776 4.5 13.5C4.5 13.224 4.724 13 5 13H6.286C5.677 12.427 5.275 11.663 5.153 10.821C5.131 10.73 5.117 10.615 5.118 10.499C5.118 9.672 5.791 9 6.617 9H10.382C10.502 9 10.622 9.014 10.739 9.043C11.539 9.239 12.031 10.045 11.843 10.845C11.723 11.677 11.324 12.432 10.718 13.001H12C12.276 13.001 12.5 13.225 12.5 13.501C12.5 13.777 12.276 14 12 14H5ZM6.618 10C6.342 10 6.118 10.224 6.118 10.5C6.118 10.541 6.123 10.58 6.132 10.619C6.134 10.627 6.14 10.659 6.141 10.666C6.313 11.887 7.281 12.841 8.5 12.996C9.719 12.84 10.687 11.887 10.859 10.668C10.933 10.358 10.774 10.081 10.502 10.014C10.463 10.005 10.423 10 10.382 10H6.618Z" fill="#3E3F42"/>
<path d="M19 13C18.448 13 18 12.552 18 12V5C18 4.449 18.448 4 19 4H21C21.552 4 22 4.449 22 5V12C22 12.552 21.552 13 21 13H19ZM19 12H21V5H19V12Z" fill="#3E3F42"/>
</svg>
