<svg width="24" height="24" viewBox="0 0 24 24" fill="none" xmlns="http://www.w3.org/2000/svg">
<g clip-path="url(#clip0)">
<path d="M16.989 18.293C15.335 18.293 13.989 16.947 13.989 15.293C13.989 13.639 15.335 12.293 16.989 12.293C18.643 12.293 19.989 13.639 19.989 15.293C19.989 16.947 18.643 18.293 16.989 18.293ZM16.989 13.293C15.886 13.293 14.989 14.19 14.989 15.293C14.989 16.396 15.886 17.293 16.989 17.293C18.092 17.293 18.989 16.396 18.989 15.293C18.989 14.19 18.092 13.293 16.989 13.293Z" fill="#3E3F42"/>
<path d="M1.18002 24.0019C0.91702 24.0019 0.65402 23.9739 0.39602 23.9199C0.12602 23.8619 -0.0469803 23.5959 0.0110197 23.3259C0.0600197 23.0969 0.26602 22.9299 0.50002 22.9299C0.53502 22.9299 0.56902 22.9339 0.60302 22.9409C0.78802 22.9799 0.97702 22.9999 1.16702 22.9999C3.02402 22.9999 4.54802 21.1179 4.56302 21.0989C4.65902 20.9779 4.80202 20.9099 4.96502 20.9099C5.13602 20.9169 5.28402 21.0009 5.37202 21.1339C6.09002 22.2189 7.29502 22.9039 8.59402 22.9669C9.95902 22.8979 11.247 22.2199 12.104 21.1059C12.198 20.9839 12.346 20.9109 12.5 20.9109C12.508 20.9109 12.538 20.9119 12.545 20.9129C12.715 20.9279 12.865 21.0279 12.944 21.1799C13.505 22.2579 14.609 22.9419 15.823 22.9669C17.117 22.9359 18.313 22.2549 19.011 21.1449C19.103 20.9989 19.258 20.9109 19.426 20.9109C19.608 20.9109 19.767 20.9989 19.859 21.1459C19.87 21.1639 21.027 22.9599 22.822 22.9599C23.011 22.9599 23.203 22.9399 23.393 22.8999C23.428 22.8929 23.462 22.8899 23.495 22.8899C23.731 22.8899 23.937 23.0569 23.985 23.2879C24.041 23.5579 23.867 23.8229 23.598 23.8799C23.332 23.9349 23.064 23.9629 22.802 23.9629C21.179 23.9629 20.011 22.9029 19.442 22.2459C18.539 23.3109 17.238 23.9339 15.826 23.9669C14.474 23.9399 13.233 23.3019 12.438 22.2449C11.426 23.2729 10.043 23.8959 8.59602 23.9669C7.15202 23.8999 5.83702 23.2579 4.92202 22.1939C4.25402 22.8639 2.87402 24.0019 1.18002 24.0019Z" fill="#3E3F42"/>
<path d="M0.5 21.2509C0.224 21.2509 0 21.0269 0 20.7509V15.5709C0 15.4499 0.015 15.3279 0.044 15.2099C0.211 14.5399 0.81 14.0719 1.501 14.0719C1.622 14.0719 1.743 14.0869 1.861 14.1159L23.621 19.5159C23.888 19.5819 24.052 19.8539 23.986 20.1219C23.93 20.3459 23.73 20.5009 23.5 20.5009C23.46 20.5009 23.421 20.4959 23.382 20.4869L1.622 15.0869C1.582 15.0769 1.541 15.0719 1.5 15.0719C1.27 15.0719 1.071 15.2279 1.016 15.4519C1.005 15.4909 1 15.5309 1 15.5709V20.7509C1 21.0269 0.776 21.2509 0.5 21.2509Z" fill="#3E3F42"/>
<path d="M23.5 12.772C23.46 12.772 23.42 12.767 23.381 12.758L10.674 9.60495C7.46303 8.80895 5.27203 6.10995 5.57803 3.32795C5.58303 3.28395 5.59103 3.23995 5.60103 3.19795C5.71203 2.74895 6.11103 2.43695 6.57203 2.43695C6.65303 2.43695 6.73303 2.44695 6.81203 2.46595L10.911 3.48295L15.199 0.108953C15.287 0.0399531 15.397 0.00195312 15.508 0.00195312C15.663 0.00195312 15.806 0.0719531 15.901 0.192953C16.071 0.409953 16.034 0.724953 15.817 0.894953L12.14 3.78695L23.62 6.63495C23.887 6.70195 24.051 6.97295 23.985 7.24095C23.929 7.46495 23.729 7.62095 23.498 7.62095C23.458 7.62095 23.419 7.61595 23.38 7.60695L6.57203 3.43595C6.32103 5.72395 8.18803 7.95895 10.915 8.63395L23.621 11.787C23.888 11.854 24.052 12.125 23.986 12.393C23.93 12.616 23.73 12.772 23.5 12.772Z" fill="#3E3F42"/>
<path d="M23.5 15.863C23.46 15.863 23.42 15.858 23.381 15.849L21.185 15.304C20.918 15.237 20.754 14.966 20.82 14.698C20.875 14.475 21.075 14.318 21.306 14.318C21.346 14.318 21.386 14.323 21.425 14.332L23.62 14.877C23.887 14.944 24.051 15.215 23.985 15.483C23.93 15.707 23.73 15.863 23.5 15.863Z" fill="#3E3F42"/>
<path d="M13.371 13.35C13.331 13.35 13.291 13.345 13.252 13.336L0.380027 10.143C0.112027 10.076 -0.0509728 9.80498 0.0150272 9.53698C0.0700272 9.31298 0.270027 9.15698 0.500027 9.15698C0.540027 9.15698 0.581027 9.16198 0.620027 9.17198L13.491 12.365C13.758 12.431 13.922 12.703 13.856 12.971C13.801 13.194 13.601 13.35 13.371 13.35Z" fill="#3E3F42"/>
</g>
<defs>
<clipPath id="clip0">
<rect width="24" height="24" fill="white"/>
</clipPath>
</defs>
</svg>
