<svg xmlns="http://www.w3.org/2000/svg" version="1.1" xmlns:xlink="http://www.w3.org/1999/xlink" xmlns:svgjs="http://svgjs.com/svgjs" viewBox="0 0 24 24" width="24" height="24"><g transform="matrix(1,0,0,1,0,0)"><path d="M5.545,22.955a.5.5,0,0,0,.5.545H16.5s-.5-10-5.5-10C6.712,13.5,5.735,20.867,5.545,22.955Z" fill="none" stroke="currentColor" stroke-linecap="round" stroke-linejoin="round"></path><path d="M12.479,13.836C13.29,10.007,14.778,6.5,17.5,6.5c5.378,0,5.936,13.657,5.994,16.49a.5.5,0,0,1-.5.51H19" fill="none" stroke="currentColor" stroke-linecap="round" stroke-linejoin="round"></path><path d="M13.467 10.464L15.503 12.5 17.503 10.5 19.503 12.5 21.55 10.453" fill="none" stroke="currentColor" stroke-linecap="round" stroke-linejoin="round"></path><path d="M8.567,6.5A2.206,2.206,0,0,0,10.5,4.349,2.147,2.147,0,0,0,8.274,2.2,2.988,2.988,0,0,0,5.556.5,3.087,3.087,0,0,0,2.449,3.308,1.614,1.614,0,0,0,.5,4.887,1.634,1.634,0,0,0,2.224,6.5Z" fill="none" stroke="currentColor" stroke-linecap="round" stroke-linejoin="round"></path></g></svg>