<svg width="24" height="24" viewBox="0 0 24 24" fill="none" xmlns="http://www.w3.org/2000/svg">
<path d="M4 19C3.449 19 3 18.552 3 18V9C3 8.449 3.449 8 4 8H20C20.552 8 21 8.449 21 9V18C21 18.552 20.552 19 20 19H4ZM4 18H20V9H4V18Z" fill="#3E3F42"/>
<path d="M6.5 12C6.224 12 6 11.776 6 11.5C6 11.224 6.224 11 6.5 11H17.5C17.776 11 18 11.224 18 11.5C18 11.776 17.776 12 17.5 12H6.5Z" fill="#3E3F42"/>
<path d="M15.5 7C14.673 7 14 6.327 14 5.5C14 4.673 14.673 4 15.5 4C16.327 4 17 4.673 17 5.5C17 6.327 16.327 7 15.5 7ZM15.5 5C15.224 5 15 5.224 15 5.5C15 5.776 15.224 6 15.5 6C15.776 6 16 5.776 16 5.5C16 5.224 15.776 5 15.5 5Z" fill="#3E3F42"/>
<path d="M19.5 7C18.673 7 18 6.327 18 5.5C18 4.673 18.673 4 19.5 4C20.327 4 21 4.673 21 5.5C21 6.327 20.327 7 19.5 7ZM19.5 5C19.224 5 19 5.224 19 5.5C19 5.776 19.224 6 19.5 6C19.776 6 20 5.776 20 5.5C20 5.224 19.776 5 19.5 5Z" fill="#3E3F42"/>
<path d="M4 7C3.449 7 3 6.551 3 6V5C3 4.449 3.449 4 4 4H12C12.552 4 13 4.449 13 5V6C13 6.551 12.552 7 12 7H4ZM4 6H12V5H4V6Z" fill="#3E3F42"/>
<path d="M1.5 24C0.673 24 0 23.327 0 22.5V21C0 20.448 0.449 20 1 20V3C0.449 3 0 2.551 0 2V1.5C0 0.673 0.673 0 1.5 0H22.5C23.327 0 24 0.673 24 1.5V2C24 2.551 23.552 3 23 3V20C23.552 20 24 20.448 24 21V22.5C24 23.327 23.327 24 22.5 24H1.5ZM1 22.5C1 22.776 1.224 23 1.5 23H22.5C22.776 23 23 22.776 23 22.5V21H1V22.5ZM22 20V3H2V20H22ZM1.5 1C1.224 1 1 1.224 1 1.5V2H23V1.5C23 1.224 22.776 1 22.5 1H1.5Z" fill="#3E3F42"/>
</svg>
