<svg width="24" height="24" viewBox="0 0 24 24" fill="none" xmlns="http://www.w3.org/2000/svg">
<path d="M12 24C5.383 24 0 18.617 0 12C0 5.383 5.383 0 12 0C18.617 0 24 5.383 24 12C24 18.617 18.617 24 12 24ZM12 1C5.935 1 1 5.935 1 12C1 18.065 5.935 23 12 23C18.065 23 23 18.065 23 12C23 5.935 18.065 1 12 1Z" fill="#3E3F42"/>
<path d="M10.5 17C10.224 17 10 16.776 10 16.5V8.5C10 8.224 10.224 8 10.5 8H12.5C13.878 8 15 9.121 15 10.5C15 11.879 13.878 13 12.5 13H11V16.5C11 16.776 10.776 17 10.5 17ZM12.5 12C13.327 12 14 11.327 14 10.5C14 9.673 13.327 9 12.5 9H11V12H12.5Z" fill="#3E3F42"/>
</svg>
