<svg width="24" height="24" viewBox="0 0 24 24" fill="none" xmlns="http://www.w3.org/2000/svg">
<path d="M3.145 14.4789C1.491 14.4789 0.145 12.4729 0.145 10.0079C0.145 7.54287 1.491 5.53687 3.145 5.53687C4.799 5.53687 6.145 7.54287 6.145 10.0079C6.145 12.4739 4.799 14.4789 3.145 14.4789ZM3.145 6.53687C2.061 6.53687 1.145 8.12587 1.145 10.0079C1.145 11.8899 2.061 13.4789 3.145 13.4789C4.229 13.4789 5.145 11.8889 5.145 10.0079C5.145 8.12687 4.229 6.53687 3.145 6.53687Z" fill="#3E3F42"/>
<path d="M8.774 8.4359C7.239 8.4359 6.012 6.7179 5.92 4.4399C5.878 3.3829 6.102 2.3729 6.55 1.5939C7.041 0.7419 7.743 0.2559 8.527 0.2249C8.555 0.2239 8.583 0.2229 8.611 0.2229C9.362 0.2229 10.071 0.6529 10.607 1.4339C11.115 2.1749 11.418 3.1639 11.46 4.2199C11.502 5.2759 11.278 6.2869 10.83 7.0649C10.339 7.9169 9.637 8.4029 8.853 8.4339C8.827 8.4349 8.8 8.4359 8.774 8.4359ZM8.566 1.2239C8.138 1.2409 7.729 1.5499 7.417 2.0929C7.061 2.7099 6.885 3.5289 6.92 4.3989C6.987 6.0729 7.819 7.4349 8.775 7.4349L8.814 7.4339C9.242 7.4179 9.65 7.1089 9.963 6.5659C10.318 5.9489 10.495 5.1299 10.461 4.2589C10.426 3.3889 10.185 2.5869 9.782 1.9999C9.438 1.4989 9.02 1.2229 8.605 1.2229L8.566 1.2239Z" fill="#3E3F42"/>
<path d="M20.855 14.4789C19.201 14.4789 17.855 12.4729 17.855 10.0079C17.855 7.54287 19.201 5.53687 20.855 5.53687C22.509 5.53687 23.855 7.54287 23.855 10.0079C23.855 12.4739 22.509 14.4789 20.855 14.4789ZM20.855 6.53687C19.771 6.53687 18.855 8.12587 18.855 10.0079C18.855 11.8899 19.771 13.4789 20.855 13.4789C21.939 13.4789 22.855 11.8889 22.855 10.0079C22.855 8.12687 21.939 6.53687 20.855 6.53687Z" fill="#3E3F42"/>
<path d="M15.146 8.4339C14.363 8.4029 13.661 7.9169 13.17 7.0649C12.722 6.2869 12.498 5.2759 12.54 4.2199C12.582 3.1639 12.885 2.1739 13.393 1.4339C13.929 0.6529 14.636 0.2229 15.385 0.2229C15.414 0.2229 15.444 0.2239 15.473 0.2249C16.256 0.2559 16.958 0.7419 17.449 1.5939C17.897 2.3729 18.121 3.3829 18.079 4.4389C17.987 6.7169 16.761 8.4349 15.225 8.4349C15.199 8.4359 15.173 8.4349 15.146 8.4339ZM15.395 1.2229C14.979 1.2229 14.562 1.4989 14.218 1.9989C13.815 2.5859 13.574 3.3879 13.54 4.2589C13.506 5.1289 13.682 5.9489 14.038 6.5659C14.351 7.1089 14.759 7.4179 15.187 7.4349L15.225 7.4359C16.181 7.4359 17.013 6.0739 17.081 4.3999C17.116 3.5299 16.939 2.7109 16.584 2.0939C16.271 1.5509 15.862 1.2419 15.433 1.2249L15.395 1.2229Z" fill="#3E3F42"/>
<path d="M12 23.7748C10.135 23.7748 8.387 23.4048 7.08 22.7338C5.507 21.9258 4.676 20.7498 4.676 19.3318C4.676 17.5548 5.784 16.3828 6.761 15.3488C7.383 14.6908 7.971 14.0688 8.098 13.4338C8.501 11.4258 9.737 9.27979 12 9.27979C14.261 9.27979 15.498 11.4258 15.902 13.4328C16.029 14.0678 16.616 14.6878 17.237 15.3448C18.216 16.3798 19.324 17.5508 19.324 19.3308C19.324 22.3848 15.527 23.7748 12 23.7748ZM12 10.2798C9.913 10.2798 9.236 12.8438 9.078 13.6298C8.895 14.5458 8.211 15.2698 7.488 16.0348C6.597 16.9778 5.676 17.9518 5.676 19.3318C5.676 20.9898 7.655 22.7748 12 22.7748C16.345 22.7748 18.324 20.9898 18.324 19.3318C18.324 17.9488 17.403 16.9758 16.512 16.0338C15.789 15.2688 15.105 14.5458 14.922 13.6298C14.764 12.8448 14.086 10.2798 12 10.2798Z" fill="#3E3F42"/>
</svg>
