<svg width="24" height="24" viewBox="0 0 24 24" fill="none" xmlns="http://www.w3.org/2000/svg">
<path d="M21 23.814C20.724 23.814 20.5 23.59 20.5 23.314V16.814H3.5V23.314C3.5 23.59 3.276 23.814 3 23.814C2.724 23.814 2.5 23.59 2.5 23.314V16.728C1.91 16.519 1.5 15.954 1.5 15.314V10.814H1C0.724 10.814 0.5 10.59 0.5 10.314C0.5 10.038 0.724 9.81396 1 9.81396H1.86L17.385 0.405965C17.619 0.263965 17.887 0.188965 18.16 0.188965C18.682 0.188965 19.175 0.465965 19.445 0.910965L20.745 3.04797C21.173 3.75597 20.947 4.67996 20.24 5.10796C20.007 5.24996 19.928 5.54696 20.06 5.78596L22.294 9.81396H23C23.276 9.81396 23.5 10.038 23.5 10.314C23.5 10.59 23.276 10.814 23 10.814H22.5V15.314C22.5 15.954 22.09 16.519 21.5 16.728V23.314C21.5 23.59 21.276 23.814 21 23.814ZM2.5 15.314C2.5 15.59 2.724 15.814 3 15.814H21C21.276 15.814 21.5 15.59 21.5 15.314V14.814H2.5V15.314ZM21.5 13.814V10.814H17C16.724 10.814 16.5 10.59 16.5 10.314C16.5 10.038 16.724 9.81396 17 9.81396H18.648L15.712 4.55796C15.647 4.44096 15.631 4.30596 15.668 4.17796C15.704 4.04896 15.789 3.94296 15.905 3.87796C15.979 3.83596 16.063 3.81497 16.148 3.81497C16.329 3.81497 16.496 3.91297 16.585 4.07097L19.793 9.81496H21.151L19.186 6.27196C18.791 5.56196 19.027 4.67596 19.722 4.25396C19.958 4.11096 20.034 3.80296 19.891 3.56696L18.591 1.42996C18.499 1.27896 18.339 1.18896 18.162 1.18896C18.071 1.18896 17.982 1.21396 17.904 1.26096L3.79 9.81396H6.5C6.776 9.81396 7 10.038 7 10.314C7 10.59 6.776 10.814 6.5 10.814H2.5V13.814H8.5V8.81396C8.5 8.26296 8.949 7.81396 9.5 7.81396H14.5C15.052 7.81396 15.5 8.26296 15.5 8.81396V13.814H21.5ZM14.5 13.814V8.81396H9.5V13.814H14.5Z" fill="#3E3F42"/>
<path d="M11 23.814C10.724 23.814 10.5 23.59 10.5 23.314C10.5 23.038 10.724 22.814 11 22.814H11.5V20.814H10.5C9.673 20.814 9 20.141 9 19.314C9 18.487 9.673 17.814 10.5 17.814H13.5C14.327 17.814 15 18.487 15 19.314C15 20.141 14.327 20.814 13.5 20.814H12.5V22.814H13C13.276 22.814 13.5 23.038 13.5 23.314C13.5 23.59 13.276 23.814 13 23.814H11ZM10.5 18.814C10.224 18.814 10 19.038 10 19.314C10 19.59 10.224 19.814 10.5 19.814H13.5C13.776 19.814 14 19.59 14 19.314C14 19.038 13.776 18.814 13.5 18.814H10.5Z" fill="#3E3F42"/>
<path d="M11 10.814C10.724 10.814 10.5 10.59 10.5 10.314C10.5 10.038 10.724 9.81396 11 9.81396H13C13.276 9.81396 13.5 10.038 13.5 10.314C13.5 10.59 13.276 10.814 13 10.814H11Z" fill="#3E3F42"/>
<path d="M11 12.814C10.724 12.814 10.5 12.59 10.5 12.314C10.5 12.038 10.724 11.814 11 11.814H13C13.276 11.814 13.5 12.038 13.5 12.314C13.5 12.59 13.276 12.814 13 12.814H11Z" fill="#3E3F42"/>
</svg>
