<svg width="24" height="24" viewBox="0 0 24 24" fill="none" xmlns="http://www.w3.org/2000/svg">
<g clip-path="url(#clip0)">
<path d="M10.999 6.24512C9.34502 6.24512 7.99902 4.89912 7.99902 3.24512C7.99902 1.59112 9.34502 0.245117 10.999 0.245117C12.653 0.245117 13.999 1.59112 13.999 3.24512C13.999 4.89912 12.654 6.24512 10.999 6.24512ZM10.999 1.24512C9.89602 1.24512 8.99902 2.14212 8.99902 3.24512C8.99902 4.34812 9.89602 5.24512 10.999 5.24512C12.102 5.24512 12.999 4.34812 12.999 3.24512C12.999 2.14212 12.102 1.24512 10.999 1.24512Z" fill="#3E3F42"/>
<path d="M9.98601 23.781C9.75501 23.781 9.52701 23.741 9.30901 23.662C8.80601 23.481 8.40501 23.114 8.17801 22.631C7.95101 22.148 7.92601 21.605 8.10701 21.102L8.95101 18.57L7.53701 18.146L5.29001 22.641C4.94901 23.323 4.26201 23.746 3.49801 23.746C3.18601 23.746 2.88601 23.675 2.60601 23.535C1.61901 23.042 1.21801 21.838 1.71101 20.851L6.76401 10.746H5.16101L3.73301 13.239C3.71701 13.271 3.68801 13.322 3.65701 13.371C3.28901 13.953 2.65601 14.3 1.96401 14.3C1.58601 14.3 1.21801 14.193 0.89801 13.991C0.44601 13.706 0.13301 13.262 0.0160099 12.74C-0.10099 12.219 -0.00899005 11.683 0.27701 11.232L1.68601 8.76303C2.39801 7.52103 3.72901 6.74903 5.16001 6.74603H10C10.475 6.75803 10.932 6.92604 11.292 7.21904L13.231 8.88004L13.939 7.99403C14.32 7.51903 14.889 7.24603 15.501 7.24603C15.822 7.24603 16.135 7.32204 16.417 7.46704L16.844 6.94503C16.136 5.99703 16.257 4.52104 17.163 3.41404C17.792 2.64504 18.695 2.18604 19.58 2.18604C20.117 2.18604 20.607 2.35504 20.997 2.67404C22.064 3.54704 22.08 5.29903 21.034 6.57903C20.405 7.34803 19.501 7.80704 18.617 7.80704C18.262 7.80704 17.919 7.73004 17.615 7.58204L17.16 8.13803C17.627 8.85103 17.594 9.80604 17.056 10.483L16.347 11.369C15.674 12.208 14.675 12.749 13.605 12.854C13.478 12.867 13.348 12.873 13.22 12.873C12.275 12.873 11.36 12.536 10.642 11.924L9.35101 14.51L10.101 14.738C10.14 14.75 10.179 14.762 10.218 14.775C11.231 15.113 12.052 15.826 12.53 16.782C13.008 17.738 13.084 18.823 12.745 19.836C12.745 19.836 11.881 22.429 11.87 22.459C11.584 23.25 10.827 23.781 9.98601 23.781ZM9.05201 21.43C8.95801 21.691 8.97001 21.964 9.08301 22.206C9.19701 22.448 9.39701 22.631 9.64901 22.722C9.75801 22.761 9.87201 22.781 9.98701 22.781C10.408 22.781 10.787 22.515 10.929 22.12L11.796 19.519C12.05 18.759 11.992 17.946 11.635 17.228C11.277 16.511 10.661 15.977 9.90101 15.723C9.87101 15.713 9.84101 15.704 9.81101 15.695L8.49301 15.295C8.35201 15.252 8.23701 15.149 8.17901 15.014C8.12101 14.879 8.12501 14.725 8.19101 14.593L10.034 10.906C10.103 10.768 10.23 10.671 10.381 10.64C10.415 10.633 10.448 10.63 10.481 10.63C10.6 10.63 10.715 10.672 10.805 10.749L11.275 11.149C11.816 11.616 12.508 11.873 13.223 11.873C13.318 11.873 13.413 11.868 13.508 11.859C14.311 11.78 15.061 11.374 15.567 10.744L16.275 9.85904C16.575 9.48104 16.555 8.93604 16.232 8.57504C16.217 8.56704 16.201 8.55604 16.184 8.54204C16.148 8.51204 16.115 8.47704 16.088 8.43704C15.917 8.31204 15.714 8.24604 15.501 8.24604C15.195 8.24604 14.91 8.38204 14.72 8.62004L14.012 9.50603C13.844 9.71603 13.594 9.85104 13.326 9.87604C13.294 9.87904 13.265 9.88004 13.237 9.88004C12.995 9.88004 12.77 9.79804 12.585 9.64404L10.652 7.98703C10.47 7.84003 10.232 7.75303 9.98701 7.74603H5.16101C4.08701 7.74803 3.08801 8.32804 2.55401 9.25904L1.13401 11.747C0.97901 11.992 0.93201 12.256 0.99201 12.521C1.05101 12.781 1.20701 13.004 1.43301 13.147C1.59301 13.248 1.77701 13.302 1.96601 13.302C2.31201 13.302 2.62901 13.128 2.81301 12.837C2.82901 12.812 2.84401 12.786 2.85701 12.76L4.29201 10.252C4.46801 9.94004 4.80101 9.74604 5.16001 9.74604H7.57301C7.74701 9.74604 7.90601 9.83504 7.99801 9.98304C8.09001 10.132 8.09801 10.313 8.02001 10.469L2.60601 21.299C2.35901 21.792 2.56001 22.394 3.05301 22.641C3.19301 22.711 3.34301 22.746 3.49801 22.746C3.88101 22.746 4.22401 22.534 4.39501 22.193L6.83101 17.321C6.91601 17.151 7.08801 17.045 7.27801 17.045C7.32601 17.045 7.37401 17.052 7.42101 17.066L9.23701 17.61C9.49201 17.686 9.70301 17.857 9.83001 18.092C9.95701 18.327 9.98601 18.597 9.91001 18.853C9.91001 18.853 9.05201 21.43 9.05201 21.43ZM19.574 3.18503C18.99 3.18503 18.378 3.50803 17.935 4.04903C17.237 4.90303 17.19 6.02304 17.83 6.54704C18.042 6.72004 18.315 6.81203 18.619 6.81203C19.203 6.81203 19.815 6.48904 20.258 5.94804C20.956 5.09404 21.003 3.97404 20.363 3.45004C20.15 3.27604 19.877 3.18503 19.574 3.18503Z" fill="#3E3F42"/>
<path d="M16.5 23.7451C16.224 23.7451 16 23.5211 16 23.2451V15.2451H15C14.724 15.2451 14.5 15.0211 14.5 14.7451C14.5 14.4691 14.724 14.2451 15 14.2451H23.5C23.776 14.2451 24 14.4691 24 14.7451C24 15.0211 23.776 15.2451 23.5 15.2451H17V23.2451C17 23.5211 16.776 23.7451 16.5 23.7451Z" fill="#3E3F42"/>
<path d="M20.749 10.7501C20.335 10.7501 19.999 10.4141 19.999 10.0001C19.999 9.98909 20 9.97609 20.002 9.96409C20.008 9.57609 20.343 9.24609 20.751 9.24609C20.788 9.24609 20.817 9.25309 20.835 9.25709C21.215 9.30009 21.499 9.61609 21.499 10.0001C21.499 10.0011 21.499 10.0031 21.499 10.0041C21.494 10.3811 21.202 10.6991 20.831 10.7401C20.812 10.7441 20.784 10.7501 20.749 10.7501Z" fill="#3E3F42"/>
</g>
<defs>
<clipPath id="clip0">
<rect width="24" height="24" fill="white"/>
</clipPath>
</defs>
</svg>
