<svg width="24" height="24" viewBox="0 0 24 24" fill="none" xmlns="http://www.w3.org/2000/svg">
<path d="M22 22C21.857 22 21.721 21.939 21.626 21.832L17.331 17H13.414C13.205 17.59 12.64 18 12 18C11.36 18 10.795 17.59 10.586 17H2.914C2.705 17.59 2.14 18 1.5 18C0.673 18 0 17.327 0 16.5C0 15.86 0.41 15.295 1 15.086V4.914C0.41 4.705 0 4.14 0 3.5C0 2.673 0.673 2 1.5 2C2.14 2 2.705 2.41 2.914 3H10.585C10.795 2.41 11.36 2 12 2C12.64 2 13.205 2.41 13.414 3H21.085C21.294 2.41 21.859 2 22.499 2C23.327 2 24 2.673 24 3.5C24 4.14 23.59 4.705 23 4.914V15.085C23.59 15.294 24 15.859 24 16.499C24 17.326 23.327 17.999 22.5 17.999C21.86 17.999 21.295 17.589 21.086 16.999H18.669L22.374 21.167C22.463 21.267 22.508 21.395 22.499 21.528C22.491 21.662 22.432 21.784 22.332 21.872C22.241 21.955 22.123 22 22 22ZM21.5 16C21.776 16 22 16.224 22 16.5C22 16.776 22.224 17 22.5 17C22.776 17 23 16.776 23 16.5C23 16.224 22.776 16 22.5 16C22.224 16 22 15.776 22 15.5V4.5C22 4.224 22.224 4 22.5 4C22.776 4 23 3.776 23 3.5C23 3.224 22.776 3 22.5 3C22.224 3 22 3.224 22 3.5C22 3.776 21.776 4 21.5 4H13C12.724 4 12.5 3.776 12.5 3.5C12.5 3.224 12.276 3 12 3C11.724 3 11.5 3.224 11.5 3.5C11.5 3.776 11.276 4 11 4H2.5C2.224 4 2 3.776 2 3.5C2 3.224 1.776 3 1.5 3C1.224 3 1 3.224 1 3.5C1 3.776 1.224 4 1.5 4C1.776 4 2 4.224 2 4.5V15.5C2 15.776 1.776 16 1.5 16C1.224 16 1 16.224 1 16.5C1 16.776 1.224 17 1.5 17C1.776 17 2 16.776 2 16.5C2 16.224 2.224 16 2.5 16H11C11.276 16 11.5 16.224 11.5 16.5C11.5 16.776 11.724 17 12 17C12.276 17 12.5 16.776 12.5 16.5C12.5 16.224 12.724 16 13 16H16.442L9.626 8.332C9.443 8.126 9.462 7.809 9.668 7.626C9.76 7.545 9.878 7.5 10 7.5C10.143 7.5 10.279 7.561 10.374 7.667L17.78 16H21.5Z" fill="#3E3F42"/>
<path d="M7.25 9C7.66421 9 8 8.66421 8 8.25C8 7.83579 7.66421 7.5 7.25 7.5C6.83579 7.5 6.5 7.83579 6.5 8.25C6.5 8.66421 6.83579 9 7.25 9Z" fill="#3E3F42"/>
<path d="M17.75 9C18.1642 9 18.5 8.66421 18.5 8.25C18.5 7.83579 18.1642 7.5 17.75 7.5C17.3358 7.5 17 7.83579 17 8.25C17 8.66421 17.3358 9 17.75 9Z" fill="#3E3F42"/>
<path d="M6.25 11C6.66421 11 7 10.6642 7 10.25C7 9.83579 6.66421 9.5 6.25 9.5C5.83579 9.5 5.5 9.83579 5.5 10.25C5.5 10.6642 5.83579 11 6.25 11Z" fill="#3E3F42"/>
<path d="M4.75 9C5.16421 9 5.5 8.66421 5.5 8.25C5.5 7.83579 5.16421 7.5 4.75 7.5C4.33579 7.5 4 7.83579 4 8.25C4 8.66421 4.33579 9 4.75 9Z" fill="#3E3F42"/>
</svg>
