<svg xmlns="http://www.w3.org/2000/svg" version="1.1" xmlns:xlink="http://www.w3.org/1999/xlink" xmlns:svgjs="http://svgjs.com/svgjs" viewBox="0 0 24 24" width="24" height="24"><g transform="matrix(1,0,0,1,0,0)"><path d="M23.5,22.442c-2.5.521-4.06-1.979-4.06-1.979h0a4.4,4.4,0,0,1-3.621,2.055A4.607,4.607,0,0,1,12.2,20.463h0a4.4,4.4,0,0,1-3.62,2.055A4.6,4.6,0,0,1,4.96,20.463h0S2.952,23,.5,22.483" fill="none" stroke="currentColor" stroke-linecap="round" stroke-linejoin="round"></path><path d="M23.5,18.442c-2.5.521-4.06-1.979-4.06-1.979h0a4.4,4.4,0,0,1-3.621,2.055A4.607,4.607,0,0,1,12.2,16.463h0a4.4,4.4,0,0,1-3.62,2.055A4.6,4.6,0,0,1,4.96,16.463h0S2.952,19,.5,18.483" fill="none" stroke="currentColor" stroke-linecap="round" stroke-linejoin="round"></path><path d="M9,15.727V3.947a2.5,2.5,0,0,1,5,0v1" fill="none" stroke="currentColor" stroke-linecap="round" stroke-linejoin="round"></path><path d="M16,15.942V3.947a2.5,2.5,0,0,1,5,0v1" fill="none" stroke="currentColor" stroke-linecap="round" stroke-linejoin="round"></path><path d="M8.998 10.447L15.998 10.447" fill="none" stroke="currentColor" stroke-linecap="round" stroke-linejoin="round"></path><path d="M8.998 7.447L15.998 7.447" fill="none" stroke="currentColor" stroke-linecap="round" stroke-linejoin="round"></path><path d="M8.998 13.447L15.998 13.447" fill="none" stroke="currentColor" stroke-linecap="round" stroke-linejoin="round"></path></g></svg>