<svg width="24" height="24" viewBox="0 0 24 24" fill="none" xmlns="http://www.w3.org/2000/svg">
<g clip-path="url(#clip0)">
<path d="M10.5 24.0001C10.224 24.0001 10 23.7761 10 23.5001V16.4941C9.916 16.4991 9.837 16.5001 9.76 16.5001H9.2C7.3 16.5001 6.145 15.7061 5.511 15.0401C4.98 14.4821 4.584 13.7491 4.47 13.1261C3.054 12.5991 2.09 11.3031 1.998 9.78208C1.997 9.76308 1.997 9.74408 1.998 9.72508C2.084 8.22908 3.023 6.94208 4.407 6.40208C4.506 5.64408 4.863 4.94208 5.421 4.41108C6.047 3.81608 6.863 3.48808 7.719 3.48808C7.747 3.48808 7.775 3.48808 7.803 3.48908C7.903 2.53708 8.346 1.66008 9.057 1.01108C9.781 0.350084 10.717 -0.013916 11.692 -0.013916C11.754 -0.013916 11.815 -0.012916 11.877 -0.00991601C11.929 -0.00791601 11.981 -0.00391602 12.033 8.39848e-05C14.319 0.00408398 16.196 1.52808 16.35 3.49108C16.359 3.49108 16.368 3.49108 16.378 3.49108C17.999 3.49108 19.373 4.68508 19.607 6.28208L19.781 6.47508C21.075 7.04308 21.945 8.31508 22.001 9.73008C21.956 10.6451 21.602 11.4921 21.001 12.1491V20.0001H21.501C21.777 20.0001 22.001 20.2241 22.001 20.5001C22.001 20.7761 21.776 21.0001 21.5 21.0001H13.5C13.224 21.0001 13 20.7761 13 20.5001C13 20.2241 13.224 20.0001 13.5 20.0001H14V16.3991C13.463 16.2851 12.945 16.0741 12.483 15.7821C12.016 16.0471 11.518 16.2401 11 16.3601V23.5001C11 23.7761 10.776 24.0001 10.5 24.0001ZM20 20.0001V12.9291C19.861 13.0041 19.718 13.0701 19.572 13.1271C19.071 15.0931 17.265 16.5061 15.225 16.5061C15.15 16.5061 15.075 16.5041 15 16.5001V20.0001H20ZM15.011 15.5001C15.077 15.5031 15.142 15.5051 15.207 15.5051C16.898 15.5051 18.346 14.3061 18.652 12.6531C18.686 12.4671 18.82 12.3191 19.001 12.2651C19.407 12.1441 19.787 11.9291 20.099 11.6411C20.129 11.5991 20.166 11.5631 20.208 11.5321C20.685 11.0421 20.966 10.4011 21.001 9.72408C20.958 8.69308 20.289 7.75408 19.297 7.35708C19.227 7.32908 19.163 7.28508 19.112 7.22908L18.757 6.83508C18.685 6.75608 18.64 6.65308 18.63 6.54708C18.522 5.39408 17.532 4.49108 16.375 4.49108C16.316 4.49108 16.257 4.49308 16.198 4.49808C16.191 4.49808 16.169 4.49908 16.162 4.49908C16.042 4.49908 15.927 4.45808 15.838 4.38308L15.539 4.13408C15.424 4.03908 15.359 3.89908 15.359 3.75008C15.359 2.23408 13.852 1.00008 12 1.00008C11.993 1.00008 11.964 0.999084 11.957 0.998084C11.914 0.994084 11.872 0.992084 11.83 0.990084C11.786 0.988084 11.741 0.987084 11.697 0.987084C10.134 0.987084 8.854 2.21108 8.783 3.77308C8.777 3.91308 8.711 4.04508 8.603 4.13408L8.303 4.38408C8.215 4.45808 8.101 4.50008 7.982 4.50008C7.976 4.50008 7.949 4.49908 7.943 4.49908C7.89 4.49408 7.841 4.49108 7.791 4.48908H7.726C7.123 4.48908 6.549 4.71908 6.11 5.13708C5.655 5.57008 5.395 6.15408 5.379 6.78308C5.374 7.00208 5.228 7.19008 5.017 7.25008C3.887 7.57508 3.077 8.57908 2.998 9.75108C3.082 10.9451 3.912 11.9561 5.069 12.2691C5.294 12.3301 5.449 12.5421 5.438 12.7751C5.427 12.9951 5.613 13.6971 6.235 14.3501C6.735 14.8741 7.655 15.4991 9.2 15.4991L9.768 15.5001C9.842 15.5001 9.919 15.4981 10 15.4931V10.9611C8.3 10.7161 7 9.23808 7 7.50008C7 7.22408 7.224 7.00008 7.5 7.00008C7.776 7.00008 8 7.22408 8 7.50008C8 8.68708 8.859 9.71308 10 9.94808V7.00008C10 6.72408 10.224 6.50008 10.5 6.50008C10.776 6.50008 11 6.72408 11 7.00008V11.8201L18.351 9.52308C18.399 9.50808 18.45 9.50008 18.5 9.50008C18.72 9.50008 18.912 9.64108 18.977 9.85108C19.06 10.1141 18.912 10.3951 18.649 10.4781L11 12.8671V15.3291C11.431 15.2051 11.843 15.0171 12.229 14.7681C12.309 14.7161 12.403 14.6881 12.5 14.6881C12.607 14.6881 12.713 14.7231 12.798 14.7861C13.418 15.2471 14.176 15.5001 14.933 15.5001C14.934 15.5001 15.007 15.5001 15.011 15.5001Z" fill="#3E3F42"/>
</g>
<defs>
<clipPath id="clip0">
<rect width="24" height="24" fill="white"/>
</clipPath>
</defs>
</svg>
