<svg width="24" height="24" viewBox="0 0 24 24" fill="none" xmlns="http://www.w3.org/2000/svg">
<path d="M20.25 23.25C20.116 23.25 19.991 23.198 19.896 23.104L18.194 21.402C17.836 21.63 17.428 21.749 17 21.75H6.25C6.155 21.75 6.062 21.745 5.968 21.739L4.603 23.104C4.509 23.198 4.383 23.25 4.249 23.25C4.115 23.25 3.99 23.198 3.895 23.104C3.7 22.909 3.7 22.592 3.895 22.397L4.767 21.524C2.705 20.882 1.25 18.941 1.25 16.75C1.25 13.993 3.493 11.75 6.25 11.75H7.627L4.027 7.75002H2.25C1.147 7.75002 0.25 6.85302 0.25 5.75002C0.25 4.64702 1.147 3.75002 2.25 3.75002C2.379 3.75002 2.646 3.75002 7.763 5.27402L7.856 5.30202C8.384 5.46402 8.74 5.94002 8.745 6.48902C8.75 7.17902 8.194 7.74402 7.504 7.75002H5.373L8.973 11.75H11.75C12.026 11.75 12.25 11.974 12.25 12.25V14.25C12.25 14.839 12.506 15.388 12.946 15.765L17.309 7.51602C17.32 7.49402 17.335 7.47102 17.351 7.45002C17.819 6.82802 18.489 6.74202 19.144 6.74202C19.243 6.74202 19.342 6.74402 19.44 6.74502C19.542 6.74702 19.646 6.74902 19.752 6.74902H20.252C21.63 6.74902 22.752 5.62802 22.752 4.24902C22.752 2.87002 21.63 1.74902 20.252 1.74902H15.752C15.476 1.74902 15.252 1.52502 15.252 1.24902C15.252 0.973023 15.476 0.749023 15.752 0.749023H20.252C22.182 0.749023 23.752 2.31902 23.752 4.24902C23.752 6.17902 22.182 7.74902 20.252 7.74902H19.752C19.645 7.74902 19.539 7.74702 19.436 7.74502C19.332 7.74302 19.245 7.74202 19.162 7.74202C18.592 7.74202 18.347 7.81002 18.173 8.02202L13.844 16.208C13.86 16.211 13.876 16.215 13.892 16.218C13.911 16.221 13.931 16.226 13.951 16.232L17.362 17.279C18.437 17.455 19.247 18.404 19.249 19.495C19.25 19.924 19.131 20.334 18.904 20.693L20.606 22.395C20.801 22.59 20.801 22.907 20.606 23.102C20.509 23.198 20.384 23.25 20.25 23.25ZM6.25 12.75C4.044 12.75 2.25 14.544 2.25 16.75C2.25 18.956 4.044 20.75 6.25 20.75H17C17.689 20.749 18.249 20.187 18.247 19.498C18.246 18.882 17.786 18.352 17.176 18.263C17.153 18.26 17.127 18.254 17.103 18.247L13.681 17.196C13.42 17.145 13.165 17.059 12.922 16.939C12.912 16.935 12.902 16.93 12.894 16.926C12.889 16.923 12.884 16.92 12.879 16.917C11.873 16.4 11.25 15.38 11.25 14.25V12.75H6.25ZM2.235 4.75002C1.691 4.75802 1.25 5.20402 1.25 5.75002C1.25 6.30102 1.699 6.75002 2.25 6.75002H7.5C7.635 6.74902 7.746 6.63502 7.745 6.49702C7.744 6.38702 7.673 6.29102 7.568 6.25902L7.478 6.23202C3.707 5.10902 2.415 4.77402 2.235 4.75002Z" fill="#3E3F42"/>
<path d="M8.75 19.75C8.474 19.75 8.25 19.526 8.25 19.25C8.25 18.974 8.474 18.75 8.75 18.75H9.042L8.763 18.472C8.456 18.654 8.11 18.75 7.75 18.75C6.647 18.75 5.75 17.853 5.75 16.75C5.75 15.647 6.647 14.75 7.75 14.75C8.853 14.75 9.75 15.647 9.75 16.75C9.75 17.11 9.654 17.457 9.471 17.765L10.457 18.75H11.25C11.526 18.75 11.75 18.974 11.75 19.25C11.75 19.526 11.526 19.75 11.25 19.75H8.75ZM7.75 15.75C7.199 15.75 6.75 16.198 6.75 16.75C6.75 17.302 7.199 17.75 7.75 17.75C8.301 17.75 8.75 17.302 8.75 16.75C8.75 16.198 8.301 15.75 7.75 15.75Z" fill="#3E3F42"/>
</svg>
