<svg width="24" height="24" viewBox="0 0 24 24" fill="none" xmlns="http://www.w3.org/2000/svg">
<path d="M19 20C18.448 20 18 19.552 18 19V18H6V19C6 19.552 5.551 20 5 20H3C2.449 20 2 19.552 2 19V18C1.449 18 1 17.552 1 17V13.707C1 13.569 1.029 13.432 1.087 13.302C1.089 13.298 1.091 13.293 1.094 13.288C1.144 13.179 1.211 13.082 1.292 13.001L3.293 11H2C1.449 11 1 10.551 1 10V9C1 8.449 1.449 8 2 8H4.806L5.911 4.684C6.048 4.275 6.429 4 6.86 4H17.14C17.571 4 17.952 4.275 18.089 4.684L19.194 8H22C22.552 8 23 8.449 23 9V10C23 10.551 22.552 11 22 11H20.707L22.707 13C22.789 13.082 22.855 13.179 22.906 13.289C22.911 13.298 22.915 13.308 22.918 13.317C22.971 13.433 23 13.569 23 13.707V17C23 17.552 22.552 18 22 18V19C22 19.552 21.552 20 21 20H19ZM19 19H21V18H19V19ZM3 19H5V18H3V19ZM2 17H22V16H19C18.448 16 18 15.552 18 15V14C18 13.448 18.448 13 19 13H21.293L19.293 11H4.707L2.707 13H5C5.551 13 6 13.448 6 14V15C6 15.552 5.551 16 5 16H2V17ZM19 15H22V14H19V15ZM5 15V14H2V15H5ZM22 10V9H19.527L19.86 10H22ZM18.806 10L17.14 5H6.86L5.193 10H18.806ZM2 10H4.14L4.473 9H2V10Z" fill="#3E3F42"/>
</svg>
