<svg width="24" height="24" viewBox="0 0 24 24" fill="none" xmlns="http://www.w3.org/2000/svg">
<g clip-path="url(#clip0)">
<path d="M1.186 19.6269C0.923 19.6269 0.659 19.5989 0.402 19.5449C0.132 19.4869 -0.04 19.2209 0.017 18.9519C0.066 18.7229 0.272 18.5559 0.506 18.5559C0.54 18.5559 0.575 18.5599 0.609 18.5669C0.796 18.6069 0.986 18.6269 1.177 18.6269C3.04 18.6269 4.552 16.7459 4.567 16.7269C4.662 16.6069 4.806 16.5359 4.954 16.5359C4.96 16.5359 4.983 16.5369 4.99 16.5369C5.141 16.5429 5.289 16.6259 5.377 16.7599C6.095 17.8449 7.3 18.5299 8.599 18.5929C9.962 18.5229 11.248 17.8449 12.104 16.7319C12.199 16.6089 12.346 16.5359 12.499 16.5359C12.508 16.5359 12.54 16.5379 12.548 16.5379C12.716 16.5529 12.865 16.6529 12.944 16.8049C13.506 17.8849 14.612 18.5689 15.829 18.5919C17.123 18.5609 18.319 17.8799 19.017 16.7699C19.109 16.6239 19.267 16.5359 19.44 16.5359C19.613 16.5359 19.772 16.6239 19.864 16.7699C19.875 16.7869 21.042 18.5849 22.828 18.5849C23.016 18.5849 23.208 18.5649 23.398 18.5249C23.431 18.5179 23.466 18.5139 23.502 18.5139C23.736 18.5139 23.941 18.6809 23.99 18.9119C24.017 19.0419 23.992 19.1759 23.919 19.2879C23.846 19.3999 23.733 19.4759 23.603 19.5039C23.337 19.5599 23.068 19.5879 22.805 19.5879C21.186 19.5879 20.017 18.5269 19.449 17.8699C18.545 18.9349 17.245 19.5579 15.833 19.5919C14.479 19.5669 13.235 18.9289 12.438 17.8699C11.428 18.8969 10.047 19.5199 8.602 19.5919C7.158 19.5249 5.842 18.8829 4.928 17.8189C4.26 18.4899 2.882 19.6269 1.186 19.6269Z" fill="#3E3F42"/>
<path d="M1.186 15.6269C0.923 15.6269 0.659 15.5989 0.402 15.5449C0.132 15.4869 -0.04 15.2209 0.017 14.9519C0.066 14.7229 0.272 14.5559 0.507 14.5559C0.541 14.5559 0.575 14.5589 0.609 14.5659C0.796 14.6059 0.987 14.6259 1.177 14.6259C3.041 14.6259 4.553 12.7449 4.568 12.7259C4.663 12.6059 4.807 12.5349 4.954 12.5349C4.961 12.5349 4.984 12.5359 4.991 12.5359C5.141 12.5419 5.289 12.6249 5.378 12.7589C6.096 13.8439 7.301 14.5289 8.6 14.5919C9.963 14.5219 11.249 13.8439 12.105 12.7309C12.2 12.6079 12.347 12.5349 12.5 12.5349C12.508 12.5349 12.54 12.5369 12.548 12.5369C12.717 12.5519 12.866 12.6519 12.945 12.8039C13.507 13.8839 14.613 14.5679 15.83 14.5909C17.124 14.5599 18.32 13.8789 19.018 12.7689C19.11 12.6229 19.268 12.5349 19.441 12.5349C19.614 12.5349 19.773 12.6229 19.865 12.7689C19.876 12.7859 21.043 14.5839 22.828 14.5839C23.017 14.5839 23.209 14.5639 23.399 14.5239C23.432 14.5169 23.467 14.5129 23.503 14.5129C23.738 14.5129 23.943 14.6799 23.991 14.9109C24.018 15.0409 23.993 15.1749 23.92 15.2869C23.847 15.3989 23.734 15.4749 23.604 15.5029C23.338 15.5589 23.069 15.5869 22.806 15.5869C21.187 15.5869 20.018 14.5259 19.45 13.8689C18.546 14.9339 17.246 15.5569 15.834 15.5909C14.48 15.5659 13.236 14.9279 12.439 13.8689C11.429 14.8959 10.048 15.5189 8.603 15.5909C7.159 15.5239 5.843 14.8819 4.929 13.8179C4.26 14.4899 2.882 15.6269 1.186 15.6269Z" fill="#3E3F42"/>
<path d="M18.501 10.376C16.847 10.376 15.501 9.02998 15.501 7.37598C15.501 5.72198 16.847 4.37598 18.501 4.37598C20.155 4.37598 21.501 5.72198 21.501 7.37598C21.501 9.02998 20.156 10.376 18.501 10.376ZM18.501 5.37598C17.398 5.37598 16.501 6.27298 16.501 7.37598C16.501 8.47898 17.398 9.37598 18.501 9.37598C19.604 9.37598 20.501 8.47898 20.501 7.37598C20.501 6.27298 19.604 5.37598 18.501 5.37598Z" fill="#3E3F42"/>
<path d="M16.101 11.833C15.931 11.833 15.774 11.748 15.681 11.605L11.981 5.89301C11.803 5.64401 11.502 5.49001 11.183 5.49001C11.006 5.49001 10.831 5.53801 10.676 5.62801C10.2 5.90501 10.037 6.51901 10.315 6.99501L10.56 7.37701C10.584 7.41301 10.606 7.45401 10.626 7.49701C10.739 7.73901 10.75 8.01101 10.659 8.26201C10.568 8.51301 10.383 8.71301 10.141 8.82601L4.211 11.58C4.145 11.611 4.074 11.627 4 11.627C3.806 11.627 3.628 11.513 3.547 11.338C3.491 11.217 3.485 11.081 3.531 10.956C3.577 10.831 3.669 10.73 3.79 10.674L9.719 7.91901L9.461 7.51601C9.183 7.04001 9.109 6.49801 9.245 5.98101C9.381 5.46401 9.711 5.03201 10.173 4.76301C10.481 4.58401 10.83 4.48901 11.182 4.48901C11.824 4.48901 12.432 4.80401 12.808 5.33101L16.52 11.062C16.593 11.174 16.617 11.307 16.59 11.438C16.562 11.568 16.485 11.68 16.373 11.753C16.291 11.806 16.197 11.833 16.101 11.833Z" fill="#3E3F42"/>
</g>
<defs>
<clipPath id="clip0">
<rect width="24" height="24" fill="white"/>
</clipPath>
</defs>
</svg>
