<svg width="24" height="24" viewBox="0 0 24 24" fill="none" xmlns="http://www.w3.org/2000/svg">
<g clip-path="url(#clip0)">
<path d="M1.766 24C0.939 24 0.266 23.327 0.266 22.5C0.266 22.383 0.28 22.265 0.307 22.15L2.525 12.883C2.579 12.658 2.779 12.5 3.012 12.5C3.05 12.5 3.089 12.504 3.126 12.513C3.396 12.578 3.562 12.848 3.497 13.116L1.279 22.383C1.27 22.422 1.265 22.461 1.266 22.5C1.266 22.776 1.49 23 1.766 23H4.087L6.064 12.903C6.11 12.669 6.316 12.499 6.554 12.499C6.586 12.499 6.619 12.502 6.652 12.509C6.921 12.562 7.098 12.825 7.046 13.095L6.476 16H16.522L15.954 13.096C15.901 12.825 16.079 12.563 16.349 12.51C16.381 12.504 16.413 12.5 16.446 12.5C16.684 12.5 16.89 12.67 16.936 12.904L18.91 23H21.235C21.274 23 21.313 22.995 21.35 22.986C21.481 22.955 21.59 22.875 21.66 22.761C21.73 22.647 21.751 22.513 21.72 22.384L19.504 13.116C19.44 12.848 19.606 12.578 19.874 12.513C19.913 12.504 19.952 12.5 19.99 12.5C20.223 12.5 20.423 12.658 20.477 12.884L22.693 22.151C22.885 22.955 22.388 23.766 21.584 23.959C21.469 23.986 21.352 24 21.235 24H1.766ZM17.891 23L16.718 17H12.002V23H17.891ZM11.002 23V17H6.28L5.105 23H11.002Z" fill="#3E3F42"/>
<path d="M18.199 6.005C17.967 6.005 17.768 5.847 17.713 5.622L16.698 1.384C16.645 1.158 16.445 1 16.212 1H14.609L15.471 5.409C15.524 5.68 15.346 5.943 15.076 5.996C15.044 6.002 15.012 6.005 14.98 6.005C14.742 6.005 14.536 5.835 14.49 5.601L14.177 4H8.826L8.513 5.596C8.467 5.83 8.26 6 8.022 6C7.991 6 7.958 5.997 7.926 5.991C7.655 5.938 7.478 5.674 7.531 5.404L8.394 1H6.791C6.558 1 6.358 1.158 6.304 1.383L5.291 5.616C5.238 5.842 5.038 6 4.805 6C4.766 6 4.728 5.995 4.69 5.987C4.421 5.922 4.255 5.652 4.319 5.384L5.332 1.151C5.494 0.473 6.094 0 6.791 0H16.213C16.909 0 17.509 0.473 17.671 1.15L18.686 5.388C18.75 5.656 18.584 5.926 18.316 5.991C18.278 6 18.239 6.005 18.199 6.005ZM13.981 3L13.59 1H12.002V3H13.981ZM11.002 3V1H9.414L9.021 3H11.002Z" fill="#3E3F42"/>
<path d="M23.5 12.5C23.224 12.5 23 12.276 23 12V11H1V12C1 12.276 0.776 12.5 0.5 12.5C0.224 12.5 1.45053e-07 12.276 1.45053e-07 12V10.53C-0.000999855 10.52 -0.00199986 10.509 -0.00199986 10.5C-0.00199986 10.49 -0.000999855 10.479 1.45053e-07 10.469V8C1.45053e-07 7.449 0.449 7 1 7H23C23.552 7 24 7.449 24 8V10.47C24.001 10.48 24.002 10.491 24.002 10.5C24.002 10.511 24.001 10.523 23.999 10.535L24 12C24 12.276 23.776 12.5 23.5 12.5ZM23 10V8H1V10H23Z" fill="#3E3F42"/>
</g>
<defs>
<clipPath id="clip0">
<rect width="24" height="24" fill="white"/>
</clipPath>
</defs>
</svg>
