<svg width="24" height="24" viewBox="0 0 24 24" fill="none" xmlns="http://www.w3.org/2000/svg">
<path d="M19.354 7.74512C19.24 7.74512 19.129 7.70512 19.04 7.63412C18.826 7.46112 18.792 7.14612 18.965 6.93112C19.288 6.53212 19.473 6.05112 19.501 5.54012C19.5 5.12112 19.354 4.64712 19.2 4.14512C19.03 3.59112 18.854 3.02112 18.854 2.42212C18.895 1.67712 19.156 0.993117 19.611 0.430117C19.707 0.312117 19.848 0.245117 20 0.245117C20.114 0.245117 20.226 0.285117 20.314 0.356117C20.528 0.529117 20.562 0.844117 20.389 1.05912C20.067 1.45812 19.881 1.93912 19.853 2.45112C19.854 2.87112 20 3.34612 20.155 3.84912C20.325 4.40312 20.5 4.97112 20.5 5.56712C20.46 6.31212 20.198 6.99612 19.743 7.55912C19.647 7.67712 19.505 7.74512 19.354 7.74512Z" fill="#3E3F42"/>
<path d="M16.354 7.74512C16.24 7.74512 16.129 7.70512 16.04 7.63412C15.826 7.46112 15.792 7.14612 15.965 6.93112C16.288 6.53212 16.473 6.05112 16.501 5.54012C16.5 5.12112 16.354 4.64712 16.2 4.14512C16.03 3.59112 15.854 3.02112 15.854 2.42212C15.895 1.67712 16.156 0.993117 16.611 0.430117C16.707 0.312117 16.849 0.245117 17 0.245117C17.114 0.245117 17.226 0.285117 17.314 0.356117C17.528 0.529117 17.562 0.844117 17.389 1.05912C17.067 1.45812 16.881 1.93912 16.853 2.45112C16.854 2.87112 17 3.34612 17.155 3.84912C17.325 4.40312 17.5 4.97112 17.5 5.56712C17.46 6.31212 17.198 6.99612 16.743 7.55912C16.647 7.67712 16.505 7.74512 16.354 7.74512Z" fill="#3E3F42"/>
<path d="M22.354 7.74512C22.24 7.74512 22.129 7.70512 22.04 7.63412C21.826 7.46112 21.792 7.14612 21.965 6.93112C22.288 6.53212 22.473 6.05112 22.501 5.54012C22.5 5.12112 22.354 4.64712 22.2 4.14512C22.03 3.59112 21.854 3.02112 21.854 2.42212C21.895 1.67712 22.156 0.993117 22.611 0.430117C22.707 0.312117 22.848 0.245117 23 0.245117C23.114 0.245117 23.226 0.285117 23.314 0.356117C23.528 0.529117 23.562 0.844117 23.389 1.05912C23.067 1.45812 22.881 1.93912 22.853 2.45112C22.854 2.87112 23 3.34612 23.155 3.84912C23.325 4.40312 23.5 4.97112 23.5 5.56712C23.46 6.31212 23.198 6.99612 22.743 7.55912C22.647 7.67712 22.505 7.74512 22.354 7.74512Z" fill="#3E3F42"/>
<path d="M13 18.7461C12.724 18.7461 12.5 18.5221 12.5 18.2461V16.2461C12.5 15.9701 12.724 15.7461 13 15.7461C13.276 15.7461 13.5 15.9701 13.5 16.2461V18.2461C13.5 18.5211 13.276 18.7461 13 18.7461Z" fill="#3E3F42"/>
<path d="M6 23.7461C5.173 23.7461 4.5 23.0731 4.5 22.2461V12.8181L1.294 15.1501C1.208 15.2121 1.106 15.2441 0.999997 15.2441C0.840997 15.2441 0.688997 15.1671 0.595997 15.0381C0.516997 14.9301 0.485997 14.7981 0.505997 14.6661C0.525997 14.5341 0.597997 14.4181 0.705997 14.3401L11.706 6.34012C11.792 6.27812 11.894 6.24512 12 6.24512C12.106 6.24512 12.208 6.27812 12.294 6.34012L23.294 14.3401C23.402 14.4181 23.473 14.5341 23.494 14.6661C23.515 14.7981 23.483 14.9301 23.404 15.0381C23.311 15.1671 23.159 15.2441 22.999 15.2441C22.893 15.2441 22.792 15.2111 22.706 15.1491L19.5 12.8171V22.2451C19.5 23.0721 18.827 23.7451 18 23.7451H6V23.7461ZM18 22.7461C18.276 22.7461 18.5 22.5221 18.5 22.2461V12.0901L12 7.36312L5.5 12.0901V22.2451C5.5 22.5211 5.724 22.7451 6 22.7451H8.5V13.7451C8.5 13.1931 8.949 12.7451 9.5 12.7451H14.5C15.052 12.7451 15.5 13.1931 15.5 13.7451V22.7451H18V22.7461ZM14.5 22.7461V13.7461H9.5V22.7461H14.5Z" fill="#3E3F42"/>
</svg>
