<svg xmlns="http://www.w3.org/2000/svg" version="1.1" xmlns:xlink="http://www.w3.org/1999/xlink" xmlns:svgjs="http://svgjs.com/svgjs" viewBox="0 0 24 24" width="24" height="24"><g transform="matrix(1,0,0,1,0,0)"><path d="M10.000 3.000 A2.500 2.500 0 1 0 15.000 3.000 A2.500 2.500 0 1 0 10.000 3.000 Z" fill="none" stroke="currentColor" stroke-linecap="round" stroke-linejoin="round"></path><path d="M1 23.5L2 19" fill="none" stroke="currentColor" stroke-linecap="round" stroke-linejoin="round"></path><path d="M4 23.5L5 19" fill="none" stroke="currentColor" stroke-linecap="round" stroke-linejoin="round"></path><path d="M23 23.5L22 19" fill="none" stroke="currentColor" stroke-linecap="round" stroke-linejoin="round"></path><path d="M20 23.5L19 19" fill="none" stroke="currentColor" stroke-linecap="round" stroke-linejoin="round"></path><path d="M19.939,11.9a1.5,1.5,0,0,0-1.859-1.02,2.469,2.469,0,0,1-2.619-1.182,5.81,5.81,0,0,0-3.743-2.581h-.005c-.026-.006-.052-.011-.079-.015q-.268-.051-.542-.076A5.782,5.782,0,0,0,6.321,8.876l-2.3,2.52a1.5,1.5,0,0,0,2.215,2.023l2.3-2.52a2.779,2.779,0,0,1,.973-.682L7.034,21.681a1.5,1.5,0,1,0,2.931.632l1.016-4.706.422.316a3.522,3.522,0,0,1,1.373,2.365l.236,1.894a1.5,1.5,0,0,0,2.977-.372l-.236-1.895a6.539,6.539,0,0,0-2.55-4.394l-1.525-1.144.786-3.641a2.745,2.745,0,0,1,.459.552,5.428,5.428,0,0,0,6,2.462A1.489,1.489,0,0,0,19.939,11.9Z" fill="none" stroke="currentColor" stroke-linecap="round" stroke-linejoin="round"></path></g></svg>