<svg width="24" height="24" viewBox="0 0 24 24" fill="none" xmlns="http://www.w3.org/2000/svg">
<path d="M12 24C11.724 24 11.5 23.776 11.5 23.5V19.707L8.854 22.353C8.759 22.448 8.634 22.5 8.5 22.5C8.366 22.5 8.241 22.448 8.146 22.354C7.951 22.159 7.951 21.842 8.146 21.647L11.5 18.293V13.207L4.222 20.486C4.128 20.58 4.002 20.632 3.868 20.632C3.734 20.632 3.609 20.58 3.514 20.486C3.419 20.392 3.368 20.266 3.368 20.132C3.368 19.998 3.42 19.873 3.514 19.778L10.793 12.499H5.707L2.353 15.853C2.259 15.948 2.134 16 2 16C1.866 16 1.741 15.948 1.646 15.854C1.451 15.659 1.451 15.342 1.646 15.147L4.293 12.5H0.5C0.224 12.5 0 12.276 0 12C0 11.724 0.224 11.5 0.5 11.5H4.293L1.646 8.854C1.451 8.659 1.451 8.342 1.646 8.147C1.741 8.052 1.866 8 2 8C2.134 8 2.259 8.052 2.354 8.146L5.707 11.5H10.793L3.515 4.222C3.42 4.127 3.368 4.002 3.368 3.868C3.368 3.734 3.42 3.609 3.515 3.515C3.61 3.421 3.735 3.369 3.869 3.369C4.003 3.369 4.127 3.42 4.222 3.515L11.5 10.793V5.707L8.146 2.354C7.951 2.159 7.951 1.842 8.146 1.647C8.241 1.552 8.366 1.5 8.5 1.5C8.634 1.5 8.759 1.552 8.854 1.646L11.5 4.293V0.5C11.5 0.224 11.724 0 12 0C12.276 0 12.5 0.224 12.5 0.5V4.293L15.146 1.647C15.241 1.552 15.366 1.5 15.5 1.5C15.634 1.5 15.759 1.552 15.854 1.646C16.049 1.841 16.049 2.158 15.854 2.353L12.5 5.707V10.793L19.779 3.514C19.873 3.42 19.999 3.368 20.133 3.368C20.267 3.368 20.392 3.42 20.487 3.514C20.682 3.709 20.682 4.026 20.487 4.221L13.207 11.5H18.293L21.647 8.146C21.741 8.052 21.866 8 22 8C22.134 8 22.259 8.052 22.354 8.146C22.549 8.341 22.549 8.658 22.354 8.853L19.707 11.5H23.5C23.776 11.5 24 11.724 24 12C24 12.276 23.776 12.5 23.5 12.5H19.707L22.353 15.146C22.548 15.341 22.548 15.658 22.353 15.853C22.259 15.948 22.134 16 22 16C21.866 16 21.741 15.948 21.646 15.854L18.293 12.5H13.207L20.486 19.779C20.681 19.974 20.681 20.291 20.486 20.486C20.392 20.58 20.266 20.632 20.132 20.632C19.998 20.632 19.873 20.58 19.778 20.486L12.5 13.207V18.293L15.854 21.647C16.049 21.842 16.049 22.159 15.854 22.354C15.76 22.448 15.634 22.5 15.5 22.5C15.366 22.5 15.241 22.448 15.146 22.354L12.5 19.707V23.5C12.5 23.776 12.276 24 12 24Z" fill="#3E3F42"/>
</svg>
