<svg width="24" height="24" viewBox="0 0 24 24" fill="none" xmlns="http://www.w3.org/2000/svg">
<path d="M14.5 22C14.224 22 14 21.776 14 21.5V18.5C14 18.224 14.224 18 14.5 18C14.776 18 15 18.224 15 18.5V21.5C15 21.776 14.776 22 14.5 22Z" fill="#3E3F42"/>
<path d="M17.5 22C17.224 22 17 21.776 17 21.5V20C17 19.724 17.224 19.5 17.5 19.5C17.776 19.5 18 19.724 18 20V21.5C18 21.776 17.776 22 17.5 22Z" fill="#3E3F42"/>
<path d="M11.5 22C11.224 22 11 21.776 11 21.5V20C11 19.724 11.224 19.5 11.5 19.5C11.776 19.5 12 19.724 12 20V21.5C12 21.776 11.776 22 11.5 22Z" fill="#3E3F42"/>
<path d="M8.5 22C8.224 22 8 21.776 8 21.5V18.5C8 18.224 8.224 18 8.5 18C8.776 18 9 18.224 9 18.5V21.5C9 21.776 8.776 22 8.5 22Z" fill="#3E3F42"/>
<path d="M5.5 22C5.224 22 5 21.776 5 21.5V20C5 19.724 5.224 19.5 5.5 19.5C5.776 19.5 6 19.724 6 20V21.5C6 21.776 5.776 22 5.5 22Z" fill="#3E3F42"/>
<path d="M4.5 24C4.224 24 4 23.776 4 23.5C4 23.224 4.224 23 4.5 23H18.5C18.776 23 19 23.224 19 23.5C19 23.776 18.776 24 18.5 24H4.5Z" fill="#3E3F42"/>
<path d="M8.5 16C7.121 16 6 14.878 6 13.5V11H4.5C4.224 11 4 10.776 4 10.5C4 10.224 4.224 10 4.5 10H6V6H4.5C4.224 6 4 5.776 4 5.5C4 5.224 4.224 5 4.5 5H6V3H5.5C5.224 3 5 2.776 5 2.5C5 2.224 5.224 2 5.5 2H9.551C9.785 0.845 10.801 0 12 0C13.199 0 14.215 0.845 14.449 2H18.5C18.776 2 19 2.224 19 2.5C19 2.776 18.776 3 18.5 3H18V5H19.5C19.776 5 20 5.224 20 5.5C20 5.776 19.776 6 19.5 6H18V10H19.5C19.776 10 20 10.224 20 10.5C20 10.776 19.776 11 19.5 11H18V13.5C18 14.878 16.878 16 15.5 16H8.5ZM7 13.5C7 14.327 7.673 15 8.5 15H15.5C16.327 15 17 14.327 17 13.5V9H7V13.5ZM17 8V3H7V8H17ZM13.412 2C13.203 1.414 12.64 1 12 1C11.36 1 10.797 1.414 10.588 2H13.412Z" fill="#3E3F42"/>
</svg>
