<svg xmlns="http://www.w3.org/2000/svg" version="1.1" xmlns:xlink="http://www.w3.org/1999/xlink" xmlns:svgjs="http://svgjs.com/svgjs" viewBox="0 0 24 24" width="24" height="24"><g transform="matrix(1,0,0,1,0,0)"><path d="M12,.5C5.783.5,4.376,4.967,2.083,7.919" fill="none" stroke="currentColor" stroke-linecap="round" stroke-linejoin="round"></path><path d="M12,.5c6.217,0,7.624,4.467,9.917,7.419" fill="none" stroke="currentColor" stroke-linecap="round" stroke-linejoin="round"></path><path d="M5.501 3.176L5.501 9.5" fill="none" stroke="currentColor" stroke-linecap="round" stroke-linejoin="round"></path><path d="M9.501 0.783L9.501 9.5" fill="none" stroke="currentColor" stroke-linecap="round" stroke-linejoin="round"></path><path d="M14.501 0.784L14.501 9.5" fill="none" stroke="currentColor" stroke-linecap="round" stroke-linejoin="round"></path><path d="M18.501 3.177L18.501 9.495" fill="none" stroke="currentColor" stroke-linecap="round" stroke-linejoin="round"></path><path d="M2.5,17.5c0-4.5,2.485-6.964,5-8h-6a1,1,0,0,0-1,1v7" fill="none" stroke="currentColor" stroke-linecap="round" stroke-linejoin="round"></path><path d="M21.5,17.5c0-4.5-2.485-6.964-5-8h6a1,1,0,0,1,1,1v7" fill="none" stroke="currentColor" stroke-linecap="round" stroke-linejoin="round"></path><path d="M23.5,19.8c-2.5.521-4.06-1.979-4.06-1.979h0a4.4,4.4,0,0,1-3.621,2.056A4.607,4.607,0,0,1,12.2,17.819h0a4.4,4.4,0,0,1-3.62,2.056,4.6,4.6,0,0,1-3.615-2.056h0s-2,2.541-4.455,2.02" fill="none" stroke="currentColor" stroke-linecap="round" stroke-linejoin="round"></path><path d="M23.5,23.388c-2.5.521-4.06-1.979-4.06-1.979h0a4.4,4.4,0,0,1-3.621,2.056A4.607,4.607,0,0,1,12.2,21.409h0a4.4,4.4,0,0,1-3.62,2.056,4.6,4.6,0,0,1-3.615-2.056h0s-2,2.542-4.455,2.02" fill="none" stroke="currentColor" stroke-linecap="round" stroke-linejoin="round"></path><path d="M7.5 9.5L16.5 9.5" fill="none" stroke="currentColor" stroke-linecap="round" stroke-linejoin="round"></path></g></svg>