<svg width="24" height="24" viewBox="0 0 24 24" fill="none" xmlns="http://www.w3.org/2000/svg">
<g clip-path="url(#clip0)">
<path d="M2.5 13C1.121 13 0 11.879 0 10.5V2.5C0 1.121 1.121 0 2.5 0H15.5C16.878 0 18 1.121 18 2.5V3.457C18.002 3.472 18.004 3.488 18.004 3.5C18.004 3.519 18.002 3.536 17.999 3.55L18 9C18 9.276 17.776 9.5 17.5 9.5C17.224 9.5 17 9.276 17 9V4H1V10.5C1 11.327 1.673 12 2.5 12H11C11.276 12 11.5 12.224 11.5 12.5C11.5 12.776 11.276 13 11 13H2.5ZM17 3V2.5C17 1.673 16.327 1 15.5 1H2.5C1.673 1 1 1.673 1 2.5V3H17Z" fill="#3E3F42"/>
<path d="M3.504 6C3.228 6 3.004 5.776 3.004 5.5C3.004 5.224 3.228 5 3.504 5H8.504C8.78 5 9.004 5.224 9.004 5.5C9.004 5.776 8.78 6 8.504 6H3.504Z" fill="#3E3F42"/>
<path d="M13.504 6C13.228 6 13.004 5.776 13.004 5.5C13.004 5.224 13.228 5 13.504 5H15.504C15.78 5 16.004 5.224 16.004 5.5C16.004 5.776 15.78 6 15.504 6H13.504Z" fill="#3E3F42"/>
<path d="M3.504 8C3.228 8 3.004 7.776 3.004 7.5C3.004 7.224 3.228 7 3.504 7H6.504C6.78 7 7.004 7.224 7.004 7.5C7.004 7.776 6.78 8 6.504 8H3.504Z" fill="#3E3F42"/>
<path d="M18.504 24C15.471 24 13.004 21.533 13.004 18.5C13.004 15.467 15.471 13 18.504 13C21.537 13 24.004 15.467 24.004 18.5C24.004 21.533 21.537 24 18.504 24ZM18.504 14C16.023 14 14.004 16.019 14.004 18.5C14.004 20.981 16.023 23 18.504 23C20.985 23 23.004 20.981 23.004 18.5C23.004 16.019 20.985 14 18.504 14Z" fill="#3E3F42"/>
<path d="M17.936 20.729C17.669 20.729 17.418 20.625 17.229 20.437L16.146 19.354C15.951 19.159 15.951 18.842 16.146 18.647C16.24 18.553 16.366 18.501 16.5 18.501C16.634 18.501 16.759 18.553 16.854 18.647L17.937 19.73L20.094 16.71C20.188 16.579 20.34 16.501 20.501 16.501C20.606 16.501 20.706 16.533 20.792 16.595C20.9 16.672 20.972 16.787 20.994 16.919C21.016 17.051 20.985 17.183 20.908 17.292L18.751 20.312C18.72 20.356 18.684 20.398 18.645 20.437C18.455 20.625 18.204 20.729 17.936 20.729Z" fill="#3E3F42"/>
</g>
<defs>
<clipPath id="clip0">
<rect width="24" height="24" fill="white"/>
</clipPath>
</defs>
</svg>
