<svg width="24" height="24" viewBox="0 0 24 24" fill="none" xmlns="http://www.w3.org/2000/svg">
<path d="M10.001 14.4991C9.86701 14.4991 9.74201 14.4471 9.64701 14.3521L7.14701 11.8521C7.05301 11.7581 7.00101 11.6321 7.00101 11.4981C7.00101 11.3641 7.05301 11.2391 7.14701 11.1441C7.24101 11.0491 7.36701 10.9981 7.50101 10.9981C7.63501 10.9981 7.76001 11.0501 7.85501 11.1441L10.013 13.3021L17.16 6.63207C17.253 6.54507 17.375 6.49707 17.502 6.49707C17.64 6.49707 17.773 6.55507 17.867 6.65607C18.055 6.85707 18.044 7.17407 17.843 7.36207L10.343 14.3621C10.249 14.4511 10.128 14.4991 10.001 14.4991Z" fill="#3E3F42"/>
<path d="M12 24C11.919 24 11.838 23.98 11.767 23.942C5.741 20.772 1.998 14.573 2 7.763V1.5C2 0.673 2.673 0 3.5 0H20.5C21.327 0 22 0.673 22 1.5V7.763C22 14.572 18.258 20.771 12.233 23.942C12.162 23.98 12.081 24 12 24ZM3.5 1C3.224 1 3 1.224 3 1.5V7.763C2.998 14.102 6.443 19.902 12 22.933C17.555 19.901 21 14.101 21 7.763V1.5C21 1.224 20.776 1 20.5 1H3.5Z" fill="#3E3F42"/>
</svg>
