<svg width="24" height="24" viewBox="0 0 24 24" fill="none" xmlns="http://www.w3.org/2000/svg">
<path d="M2.929 21.0829C2.764 21.0829 2.61 21.0019 2.517 20.8669C1.64 19.5939 1.009 18.1869 0.642998 16.6849C0.514998 16.1459 0.848998 15.6049 1.385 15.4779C1.463 15.4589 1.531 15.4509 1.597 15.4509C1.6 15.4509 8.971 15.4479 8.971 15.4479L1.991 12.6909C1.743 12.5939 1.547 12.4049 1.441 12.1589C1.335 11.9139 1.33 11.6419 1.428 11.3939C1.467 11.2939 1.522 11.2019 1.591 11.1189L10.231 0.798895C10.422 0.571895 10.701 0.441895 10.998 0.441895C11.232 0.441895 11.461 0.524895 11.64 0.674895C11.867 0.864895 11.997 1.14389 11.997 1.43989L12 15.4459H13L12.999 4.51589C12.999 4.20589 13.139 3.91789 13.384 3.72789C13.561 3.58989 13.774 3.51589 13.999 3.51589C14.309 3.51589 14.597 3.65589 14.788 3.89989L20.506 11.2059C20.537 11.2459 20.564 11.2859 20.588 11.3289C20.72 11.5629 20.753 11.8329 20.682 12.0899C20.611 12.3469 20.443 12.5609 20.211 12.6929L15.34 15.4449L22.396 15.4419C22.947 15.4419 23.396 15.8899 23.397 16.4399C23.397 16.5149 23.389 16.5899 23.372 16.6629C23.021 18.1549 22.403 19.5479 21.534 20.8049C21.441 20.9399 21.287 21.0209 21.123 21.0209C21.021 21.0209 20.922 20.9899 20.839 20.9319C20.73 20.8569 20.656 20.7419 20.632 20.6109C20.608 20.4799 20.637 20.3469 20.713 20.2369C21.51 19.0829 22.078 17.8059 22.398 16.4399L1.616 16.4509C1.952 17.8309 2.532 19.1269 3.34 20.2989C3.496 20.5259 3.439 20.8379 3.212 20.9939C3.128 21.0519 3.03 21.0829 2.929 21.0829ZM2.358 11.7609L11 15.1739L10.998 1.44089L2.358 11.7609ZM14 15.0519L19.717 11.8219L14 4.51689V15.0519Z" fill="#3E3F42"/>
<path d="M1.184 23.5659C0.918999 23.5659 0.653999 23.5379 0.395999 23.4829C0.125999 23.4249 -0.0460006 23.1589 0.0109994 22.8899C0.0599994 22.6609 0.265999 22.4939 0.500999 22.4939C0.533999 22.4939 0.567999 22.4969 0.601999 22.5039C0.789999 22.5439 0.981999 22.5639 1.174 22.5639C3.038 22.5639 4.598 20.6959 4.613 20.6769C4.707 20.5609 4.849 20.4939 5.003 20.4939C5.008 20.4939 5.024 20.4939 5.029 20.4949C5.189 20.5039 5.336 20.5899 5.422 20.7259C6.097 21.7859 7.251 22.4389 8.507 22.4729C9.746 22.4699 10.924 21.8039 11.573 20.7349C11.663 20.5859 11.827 20.4939 12 20.4939C12.176 20.4939 12.339 20.5879 12.429 20.7369C13.071 21.8069 14.246 22.4719 15.494 22.4729C16.742 22.4369 17.898 21.7829 18.58 20.7229C18.666 20.5889 18.813 20.5029 18.973 20.4939C18.978 20.4939 18.997 20.4929 19.002 20.4929C19.15 20.4929 19.294 20.5619 19.388 20.6779C19.403 20.6959 20.961 22.5639 22.827 22.5639C23.019 22.5639 23.21 22.5439 23.395 22.5039C23.432 22.4959 23.466 22.4929 23.499 22.4929C23.737 22.4929 23.938 22.6559 23.988 22.8889C24.045 23.1589 23.873 23.4249 23.603 23.4819C23.345 23.5369 23.08 23.5649 22.814 23.5649C21.116 23.5649 19.718 22.4379 19.042 21.7729C18.159 22.8169 16.886 23.4319 15.506 23.4719C14.15 23.4709 12.863 22.8679 11.997 21.8459C11.126 22.8669 9.839 23.4689 8.493 23.4719C7.104 23.4339 5.832 22.8189 4.954 21.7739C4.278 22.4399 2.881 23.5659 1.184 23.5659Z" fill="#3E3F42"/>
</svg>
