<svg xmlns="http://www.w3.org/2000/svg" version="1.1" xmlns:xlink="http://www.w3.org/1999/xlink" xmlns:svgjs="http://svgjs.com/svgjs" viewBox="0 0 24 24" width="24" height="24"><g transform="matrix(1,0,0,1,0,0)"><path d="M23.5,18s-3,3-6,3c-4.8,0-6.2-3-11-3-3,0-6,3-6,3" fill="none" stroke="currentColor" stroke-linecap="round" stroke-linejoin="round"></path><path d="M23.5,14.5s-3,3.5-6,3.5c-4.8,0-6.2-3-11-3-3,0-6,2.5-6,2.5" fill="none" stroke="currentColor" stroke-linecap="round" stroke-linejoin="round"></path><path d="M12.476,13.858A4.5,4.5,0,0,0,9,6.5a4.551,4.551,0,0,0-.99.109.768.768,0,0,1-.741-1.26A6.981,6.981,0,0,1,12.5,3a8,8,0,0,1,8,8,3.327,3.327,0,0,0,3,3.5" fill="none" stroke="currentColor" stroke-linecap="round" stroke-linejoin="round"></path></g></svg>