<svg width="24" height="24" viewBox="0 0 24 24" fill="none" xmlns="http://www.w3.org/2000/svg">
<g clip-path="url(#clip0)">
<path d="M5.99399 8.99512C4.33999 8.99512 2.99399 7.64912 2.99399 5.99512C2.99399 4.34112 4.33999 2.99512 5.99399 2.99512C7.64799 2.99512 8.99399 4.34112 8.99399 5.99512C8.99399 7.64912 7.64799 8.99512 5.99399 8.99512ZM5.99399 3.99512C4.89099 3.99512 3.99399 4.89212 3.99399 5.99512C3.99399 7.09812 4.89099 7.99512 5.99399 7.99512C7.09699 7.99512 7.99399 7.09812 7.99399 5.99512C7.99399 4.89212 7.09699 3.99512 5.99399 3.99512Z" fill="#3E3F42"/>
<path d="M10.978 23.9899C9.87498 23.9899 8.97798 23.0929 8.97798 21.9899V18.9899C8.97798 18.7139 8.75398 18.4899 8.47798 18.4899H8.16098C7.36299 18.4899 6.64398 18.0189 6.32598 17.2899L5.47998 15.3399L3.55698 17.7449C3.17598 18.2219 2.60498 18.4949 1.99298 18.4949C1.54098 18.4949 1.09798 18.3399 0.745984 18.0579C0.328984 17.7239 0.0659843 17.2479 0.00698434 16.7169C-0.0520157 16.1859 0.0989844 15.6639 0.432984 15.2469L4.43298 10.2469C4.63598 9.9919 4.90098 9.7899 5.19998 9.6599C5.45398 9.5499 5.72098 9.4939 5.99398 9.4939C6.24598 9.4939 6.49398 9.5419 6.72998 9.6349C7.22698 9.8319 7.61698 10.2099 7.82898 10.6999L9.47298 14.4929H12.086C13.368 14.4929 14.545 15.1919 15.159 16.3179L17.732 21.0359C18.259 22.0029 17.902 23.2189 16.936 23.7479C16.645 23.9039 16.319 23.9849 15.991 23.9849C15.255 23.9849 14.578 23.5889 14.223 22.9529L12.977 20.6699V21.9899C12.978 23.0919 12.081 23.9899 10.978 23.9899ZM5.60798 13.8789C5.62898 13.8789 5.65098 13.8799 5.67198 13.8829C5.84598 13.9059 5.99598 14.0189 6.06598 14.1799L7.24198 16.8909C7.40098 17.2549 7.75998 17.4899 8.15798 17.4899H8.47698C9.30398 17.4899 9.97698 18.1629 9.97698 18.9899V21.9899C9.97698 22.5419 10.426 22.9899 10.977 22.9899C11.528 22.9899 11.977 22.5419 11.977 21.9899V18.7099C11.977 18.4809 12.132 18.2819 12.354 18.2249C12.393 18.2149 12.435 18.2089 12.478 18.2089C12.66 18.2089 12.828 18.3089 12.916 18.4689L15.099 22.4689C15.276 22.7869 15.617 22.9849 15.989 22.9849C16.153 22.9849 16.317 22.9439 16.461 22.8669C16.94 22.6049 17.118 21.9969 16.854 21.5129L14.281 16.7949C13.843 15.9909 13.001 15.4919 12.086 15.4919H9.14598C8.94698 15.4919 8.76599 15.3739 8.68699 15.1909L6.91198 11.0969C6.80598 10.8519 6.61098 10.6619 6.36198 10.5639C6.24298 10.5169 6.11898 10.4929 5.99298 10.4929C5.85698 10.4929 5.72298 10.5209 5.59598 10.5759C5.44698 10.6409 5.31398 10.7419 5.21198 10.8689L1.21198 15.8689C1.04598 16.0799 0.970984 16.3409 0.999984 16.6059C1.02998 16.8709 1.16098 17.1089 1.36898 17.2759C1.54798 17.4199 1.76398 17.4949 1.99298 17.4949C2.02998 17.4949 2.06798 17.4929 2.10498 17.4889C2.36998 17.4589 2.60798 17.3279 2.77498 17.1199L5.21698 14.0669C5.31298 13.9469 5.45598 13.8789 5.60798 13.8789Z" fill="#3E3F42"/>
<path d="M0.493988 20.9951C0.217988 20.9951 -0.00601196 20.7711 -0.00601196 20.4951C-0.00601196 20.2191 0.217988 19.9951 0.493988 19.9951H7.49399C7.76999 19.9951 7.99399 20.2191 7.99399 20.4951C7.99399 20.7711 7.76999 20.9951 7.49399 20.9951H0.493988Z" fill="#3E3F42"/>
<path d="M22.828 10.979C22.694 10.979 22.569 10.927 22.474 10.833C22.279 10.638 22.279 10.321 22.474 10.126C23.063 9.538 23.115 8.604 22.594 7.954L22.321 7.612C21.481 6.565 21.564 5.059 22.513 4.109C23.084 3.539 23.149 2.623 22.666 1.977L21.785 0.8C21.705 0.693 21.671 0.562 21.69 0.429C21.709 0.297 21.778 0.18 21.885 0.1C21.972 0.035 22.075 0 22.185 0C22.341 0 22.491 0.075 22.585 0.2L23.468 1.377C24.248 2.419 24.142 3.897 23.222 4.816C22.634 5.405 22.583 6.338 23.104 6.988L23.377 7.33C24.216 8.378 24.133 9.884 23.182 10.834C23.086 10.927 22.961 10.979 22.828 10.979Z" fill="#3E3F42"/>
<path d="M18.637 10.979C18.503 10.979 18.378 10.927 18.283 10.833C18.189 10.739 18.137 10.613 18.137 10.479C18.137 10.345 18.189 10.22 18.283 10.125C18.871 9.536 18.923 8.603 18.403 7.953L18.131 7.611C17.291 6.564 17.374 5.058 18.323 4.108C18.894 3.538 18.959 2.622 18.476 1.976L17.594 0.8C17.429 0.579 17.473 0.265 17.694 0.1C17.782 0.034 17.886 0 17.994 0C18.15 0 18.3 0.075 18.394 0.2L19.277 1.377C20.057 2.419 19.951 3.897 19.031 4.816C18.443 5.405 18.392 6.338 18.913 6.988L19.186 7.33C20.024 8.378 19.941 9.884 18.991 10.833C18.896 10.927 18.77 10.979 18.637 10.979Z" fill="#3E3F42"/>
<path d="M14.446 10.979C14.312 10.979 14.187 10.927 14.092 10.833C13.998 10.739 13.946 10.613 13.946 10.479C13.946 10.345 13.998 10.22 14.092 10.125C14.68 9.536 14.732 8.603 14.212 7.953L13.94 7.611C13.101 6.564 13.183 5.058 14.133 4.108C14.704 3.538 14.769 2.622 14.286 1.976L13.403 0.8C13.238 0.579 13.282 0.265 13.503 0.1C13.591 0.034 13.695 0 13.803 0C13.959 0 14.109 0.075 14.203 0.2L15.086 1.377C15.866 2.419 15.76 3.897 14.84 4.816C14.252 5.405 14.201 6.338 14.722 6.988L14.995 7.33C15.833 8.378 15.749 9.884 14.8 10.833C14.705 10.927 14.579 10.979 14.446 10.979Z" fill="#3E3F42"/>
</g>
<defs>
<clipPath id="clip0">
<rect width="24" height="24" fill="white"/>
</clipPath>
</defs>
</svg>
