<svg width="24" height="24" viewBox="0 0 24 24" fill="none" xmlns="http://www.w3.org/2000/svg">
<g clip-path="url(#clip0)">
<path d="M5.994 8.99512C4.34 8.99512 2.994 7.64912 2.994 5.99512C2.994 4.34112 4.34 2.99512 5.994 2.99512C7.648 2.99512 8.994 4.34112 8.994 5.99512C8.994 7.64912 7.648 8.99512 5.994 8.99512ZM5.994 3.99512C4.891 3.99512 3.994 4.89212 3.994 5.99512C3.994 7.09812 4.891 7.99512 5.994 7.99512C7.097 7.99512 7.994 7.09812 7.994 5.99512C7.994 4.89212 7.097 3.99512 5.994 3.99512Z" fill="#3E3F42"/>
<path d="M10.978 23.9899C9.875 23.9899 8.978 23.0929 8.978 21.9899V18.9899C8.978 18.7139 8.754 18.4899 8.478 18.4899H8.161C7.363 18.4899 6.644 18.0189 6.326 17.2899L5.48 15.3399L3.557 17.7449C3.176 18.2219 2.605 18.4949 1.993 18.4949C1.541 18.4949 1.098 18.3399 0.746 18.0579C0.329 17.7239 0.0659996 17.2479 0.0069996 16.7169C-0.0520004 16.1859 0.0989996 15.6639 0.433 15.2469L4.433 10.2469C4.636 9.9919 4.901 9.7899 5.2 9.6599C5.454 9.5499 5.721 9.4939 5.994 9.4939C6.246 9.4939 6.494 9.5419 6.73 9.6349C7.227 9.8319 7.617 10.2099 7.829 10.6999L9.473 14.4929H12.086C13.368 14.4929 14.545 15.1919 15.159 16.3179L17.732 21.0359C18.259 22.0029 17.902 23.2189 16.936 23.7479C16.645 23.9039 16.319 23.9849 15.991 23.9849C15.255 23.9849 14.578 23.5889 14.223 22.9529L12.977 20.6699V21.9899C12.978 23.0919 12.081 23.9899 10.978 23.9899ZM5.608 13.8789C5.629 13.8789 5.651 13.8799 5.672 13.8829C5.846 13.9059 5.996 14.0189 6.066 14.1799L7.242 16.8909C7.401 17.2549 7.76 17.4899 8.158 17.4899H8.477C9.304 17.4899 9.977 18.1629 9.977 18.9899V21.9899C9.977 22.5419 10.426 22.9899 10.977 22.9899C11.528 22.9899 11.977 22.5419 11.977 21.9899V18.7099C11.977 18.4809 12.132 18.2819 12.354 18.2249C12.393 18.2149 12.435 18.2089 12.478 18.2089C12.66 18.2089 12.828 18.3089 12.916 18.4689L15.099 22.4689C15.276 22.7869 15.617 22.9849 15.989 22.9849C16.153 22.9849 16.317 22.9439 16.461 22.8669C16.94 22.6049 17.118 21.9969 16.854 21.5129L14.281 16.7949C13.843 15.9909 13.001 15.4919 12.086 15.4919H9.146C8.947 15.4919 8.766 15.3739 8.687 15.1909L6.912 11.0969C6.806 10.8519 6.611 10.6619 6.362 10.5639C6.243 10.5169 6.119 10.4929 5.993 10.4929C5.857 10.4929 5.723 10.5209 5.596 10.5759C5.447 10.6409 5.314 10.7419 5.212 10.8689L1.212 15.8689C1.046 16.0799 0.971 16.3409 1 16.6059C1.03 16.8709 1.161 17.1089 1.369 17.2759C1.548 17.4199 1.764 17.4949 1.993 17.4949C2.03 17.4949 2.068 17.4929 2.105 17.4889C2.37 17.4589 2.608 17.3279 2.775 17.1199L5.217 14.0669C5.313 13.9469 5.456 13.8789 5.608 13.8789Z" fill="#3E3F42"/>
<path d="M0.494003 20.9951C0.218003 20.9951 -0.0059967 20.7711 -0.0059967 20.4951C-0.0059967 20.2191 0.218003 19.9951 0.494003 19.9951H7.494C7.77 19.9951 7.994 20.2191 7.994 20.4951C7.994 20.7711 7.77 20.9951 7.494 20.9951H0.494003Z" fill="#3E3F42"/>
<path d="M22.828 10.979C22.694 10.979 22.569 10.927 22.474 10.833C22.279 10.638 22.279 10.321 22.474 10.126C23.063 9.538 23.115 8.604 22.594 7.954L22.321 7.612C21.481 6.565 21.564 5.059 22.513 4.109C23.084 3.539 23.149 2.623 22.666 1.977L21.785 0.8C21.705 0.693 21.671 0.562 21.69 0.429C21.709 0.297 21.778 0.18 21.885 0.1C21.972 0.035 22.075 0 22.185 0C22.341 0 22.491 0.075 22.585 0.2L23.468 1.377C24.248 2.419 24.142 3.897 23.222 4.816C22.634 5.405 22.583 6.338 23.104 6.988L23.377 7.33C24.216 8.378 24.133 9.884 23.182 10.834C23.086 10.927 22.961 10.979 22.828 10.979Z" fill="#3E3F42"/>
<path d="M18.637 10.979C18.503 10.979 18.378 10.927 18.283 10.833C18.189 10.739 18.137 10.613 18.137 10.479C18.137 10.345 18.189 10.22 18.283 10.125C18.871 9.536 18.923 8.603 18.403 7.953L18.131 7.611C17.291 6.564 17.374 5.058 18.323 4.108C18.894 3.538 18.959 2.622 18.476 1.976L17.594 0.8C17.429 0.579 17.473 0.265 17.694 0.1C17.782 0.034 17.886 0 17.994 0C18.15 0 18.3 0.075 18.394 0.2L19.277 1.377C20.057 2.419 19.951 3.897 19.031 4.816C18.443 5.405 18.392 6.338 18.913 6.988L19.186 7.33C20.024 8.378 19.941 9.884 18.991 10.833C18.896 10.927 18.77 10.979 18.637 10.979Z" fill="#3E3F42"/>
<path d="M14.446 10.979C14.312 10.979 14.187 10.927 14.092 10.833C13.998 10.739 13.946 10.613 13.946 10.479C13.946 10.345 13.998 10.22 14.092 10.125C14.68 9.536 14.732 8.603 14.212 7.953L13.94 7.611C13.101 6.564 13.183 5.058 14.133 4.108C14.704 3.538 14.769 2.622 14.286 1.976L13.403 0.8C13.238 0.579 13.282 0.265 13.503 0.1C13.591 0.034 13.695 0 13.803 0C13.959 0 14.109 0.075 14.203 0.2L15.086 1.377C15.866 2.419 15.76 3.897 14.84 4.816C14.252 5.405 14.201 6.338 14.722 6.988L14.995 7.33C15.833 8.378 15.749 9.884 14.8 10.833C14.705 10.927 14.579 10.979 14.446 10.979Z" fill="#3E3F42"/>
</g>
<defs>
<clipPath id="clip0">
<rect width="24" height="24" fill="white"/>
</clipPath>
</defs>
</svg>
