<svg width="24" height="24" viewBox="0 0 24 24" fill="none" xmlns="http://www.w3.org/2000/svg">
<g clip-path="url(#clip0)">
<path d="M1.176 23.0549C0.915 23.0549 0.653 23.0279 0.397 22.9739C0.127 22.9169 -0.0460004 22.6509 0.0109996 22.3819C0.0589996 22.1519 0.265 21.9849 0.5 21.9849C0.535 21.9849 0.569 21.9889 0.604 21.9959C0.787 22.0349 0.976 22.0539 1.164 22.0539C3.026 22.0539 4.554 20.1729 4.569 20.1539C4.664 20.0339 4.809 19.9649 4.967 19.9649C5.142 19.9719 5.29 20.0559 5.378 20.1889C6.097 21.2739 7.303 21.9589 8.604 22.0199C9.886 21.9889 11.079 21.3079 11.777 20.1979C11.867 20.0539 12.023 19.9659 12.194 19.9639C12.194 19.9639 12.194 19.9639 12.195 19.9639C12.373 19.9639 12.523 20.0459 12.617 20.1879C13.337 21.2729 14.543 21.9579 15.843 22.0199C17.125 21.9889 18.319 21.3079 19.017 20.1979C19.109 20.0519 19.267 19.9639 19.44 19.9639C19.613 19.9639 19.772 20.0519 19.864 20.1979C19.875 20.2149 21.042 22.0129 22.827 22.0129C23.016 22.0129 23.208 21.9929 23.398 21.9529C23.431 21.9459 23.466 21.9419 23.502 21.9419C23.737 21.9419 23.942 22.1089 23.99 22.3399C24.017 22.4699 23.992 22.6039 23.919 22.7159C23.846 22.8279 23.733 22.9039 23.603 22.9319C23.337 22.9879 23.069 23.0159 22.805 23.0159C21.187 23.0159 20.017 21.9549 19.448 21.2979C18.544 22.3629 17.244 22.9859 15.832 23.0189C14.421 22.9529 13.124 22.3289 12.21 21.2949C11.307 22.3609 10.005 22.9849 8.592 23.0189C7.156 22.9529 5.841 22.3109 4.926 21.2449C4.257 21.9169 2.874 23.0549 1.176 23.0549Z" fill="#3E3F42"/>
<path d="M1.176 19.0549C0.915 19.0549 0.653 19.0279 0.397 18.9739C0.127 18.9169 -0.0460004 18.6509 0.0109996 18.3819C0.0589996 18.1519 0.265 17.9849 0.501 17.9849C0.535 17.9849 0.57 17.9889 0.603 17.9949C0.787 18.0339 0.975 18.0539 1.163 18.0539C3.025 18.0539 4.554 16.1729 4.569 16.1539C4.664 16.0339 4.81 15.9649 4.969 15.9649C5.141 15.9719 5.289 16.0559 5.377 16.1889C6.096 17.2739 7.302 17.9589 8.603 18.0199C9.885 17.9889 11.078 17.3079 11.776 16.1979C11.866 16.0539 12.022 15.9659 12.193 15.9639C12.194 15.9639 12.194 15.9639 12.195 15.9639C12.375 15.9639 12.522 16.0459 12.616 16.1869C13.336 17.2719 14.542 17.9569 15.843 18.0189C17.125 17.9879 18.319 17.3069 19.017 16.1969C19.109 16.0509 19.267 15.9629 19.44 15.9629C19.613 15.9629 19.772 16.0509 19.864 16.1969C19.875 16.2139 21.042 18.0119 22.828 18.0119C23.016 18.0119 23.208 17.9919 23.398 17.9519C23.431 17.9449 23.466 17.9409 23.502 17.9409C23.737 17.9409 23.942 18.1079 23.99 18.3389C24.017 18.4689 23.992 18.6029 23.919 18.7149C23.846 18.8269 23.733 18.9029 23.603 18.9309C23.337 18.9869 23.068 19.0149 22.805 19.0149C21.187 19.0149 20.017 17.9539 19.448 17.2969C18.544 18.3619 17.244 18.9849 15.832 19.0179C14.421 18.9519 13.124 18.3279 12.21 17.2939C11.307 18.3599 10.005 18.9839 8.592 19.0179C7.156 18.9519 5.841 18.3099 4.926 17.2439C4.257 17.9169 2.874 19.0549 1.176 19.0549Z" fill="#3E3F42"/>
<path d="M16 16.443C15.724 16.443 15.5 16.219 15.5 15.943V13.948H9.5V15.728C9.5 16.004 9.276 16.228 9 16.228C8.724 16.228 8.5 16.004 8.5 15.728V13.478C8.499 13.468 8.498 13.457 8.498 13.448C8.498 13.438 8.499 13.427 8.5 13.417V10.478C8.499 10.468 8.498 10.457 8.498 10.448C8.498 10.438 8.499 10.427 8.5 10.417V7.47897C8.499 7.46897 8.498 7.45797 8.498 7.44897C8.498 7.43897 8.499 7.42797 8.5 7.41797V3.94897C8.5 2.29497 9.846 0.948975 11.5 0.948975C13.154 0.948975 14.5 2.29497 14.5 3.94897V4.94897C14.5 5.22497 14.276 5.44897 14 5.44897C13.724 5.44897 13.5 5.22497 13.5 4.94897V3.94897C13.5 2.84597 12.603 1.94897 11.5 1.94897C10.397 1.94897 9.5 2.84597 9.5 3.94897V6.94897H15.5V3.94897C15.5 2.29497 16.846 0.948975 18.5 0.948975C20.154 0.948975 21.5 2.29497 21.5 3.94897V4.94897C21.5 5.22497 21.276 5.44897 21 5.44897C20.724 5.44897 20.5 5.22497 20.5 4.94897V3.94897C20.5 2.84597 19.603 1.94897 18.5 1.94897C17.397 1.94897 16.5 2.84597 16.5 3.94897V15.944C16.5 16.219 16.276 16.443 16 16.443ZM15.5 12.949V10.949H9.5V12.949H15.5ZM15.5 9.94797V7.94797H9.5V9.94797H15.5Z" fill="#3E3F42"/>
</g>
<defs>
<clipPath id="clip0">
<rect width="24" height="24" fill="white"/>
</clipPath>
</defs>
</svg>
