<svg width="24" height="24" viewBox="0 0 24 24" fill="none" xmlns="http://www.w3.org/2000/svg">
<path d="M20 24C19.724 24 19.5 23.776 19.5 23.5V6C19.5 3.243 17.257 1 14.5 1C11.743 1 9.5 3.243 9.5 6V6.033C11.761 6.284 13.5 8.202 13.5 10.5V11C13.5 11.551 13.052 12 12.5 12H5.5C4.949 12 4.5 11.551 4.5 11V10.5C4.5 8.202 6.239 6.284 8.5 6.033V6C8.5 2.692 11.192 0 14.5 0C17.808 0 20.5 2.692 20.5 6V23.5C20.5 23.776 20.275 24 20 24ZM9 7C7.07 7 5.5 8.57 5.5 10.5V11H12.5V10.5C12.5 8.57 10.93 7 9 7Z" fill="#3E3F42"/>
<path d="M9 17.25C8.724 17.25 8.5 17.026 8.5 16.75V14.75C8.5 14.474 8.724 14.25 9 14.25C9.276 14.25 9.5 14.474 9.5 14.75V16.75C9.5 17.026 9.275 17.25 9 17.25Z" fill="#3E3F42"/>
<path d="M9 23.25C8.724 23.25 8.5 23.026 8.5 22.75V20.75C8.5 20.474 8.724 20.25 9 20.25C9.276 20.25 9.5 20.474 9.5 20.75V22.75C9.5 23.026 9.275 23.25 9 23.25Z" fill="#3E3F42"/>
<path d="M12.704 16.957C12.501 16.957 12.32 16.836 12.242 16.648L11.477 14.8C11.426 14.676 11.426 14.54 11.477 14.417C11.528 14.293 11.624 14.198 11.748 14.146C11.809 14.121 11.873 14.108 11.939 14.108C12.142 14.108 12.324 14.229 12.401 14.417L13.166 16.265C13.271 16.52 13.15 16.813 12.895 16.918C12.834 16.944 12.77 16.957 12.704 16.957Z" fill="#3E3F42"/>
<path d="M15 22.5C14.797 22.5 14.616 22.379 14.538 22.191L13.773 20.343C13.668 20.088 13.789 19.795 14.044 19.69C14.105 19.665 14.169 19.652 14.235 19.652C14.438 19.652 14.62 19.773 14.697 19.961L15.462 21.809C15.567 22.064 15.446 22.357 15.191 22.462C15.13 22.487 15.066 22.5 15 22.5Z" fill="#3E3F42"/>
<path d="M5.29499 16.957C5.22899 16.957 5.16499 16.944 5.10399 16.919C4.98099 16.868 4.88499 16.772 4.83299 16.648C4.78199 16.525 4.78199 16.389 4.83299 16.265L5.59799 14.417C5.67599 14.229 5.85699 14.108 6.05999 14.108C6.12599 14.108 6.18999 14.121 6.25199 14.146C6.37499 14.197 6.47099 14.293 6.52199 14.417C6.57299 14.54 6.57299 14.676 6.52199 14.8L5.75699 16.648C5.67999 16.836 5.49899 16.957 5.29499 16.957Z" fill="#3E3F42"/>
<path d="M2.999 22.5C2.933 22.5 2.869 22.487 2.808 22.462C2.685 22.411 2.589 22.315 2.537 22.191C2.486 22.068 2.486 21.932 2.537 21.808L3.302 19.96C3.379 19.773 3.561 19.651 3.764 19.651C3.83 19.651 3.894 19.664 3.955 19.689C4.079 19.74 4.175 19.836 4.226 19.96C4.277 20.083 4.277 20.219 4.226 20.343L3.461 22.191C3.384 22.379 3.203 22.5 2.999 22.5Z" fill="#3E3F42"/>
</svg>
