<svg width="24" height="24" viewBox="0 0 24 24" fill="none" xmlns="http://www.w3.org/2000/svg">
<path d="M12 11C9.016 11 6.922 9.482 6.561 8H6.5C5.995 7.975 5.563 7.686 5.36 7.245L3.722 3.15C3.586 2.778 3.513 2.399 3.5 2.016V1C3.5 0.449 3.949 0 4.5 0H19.5C20.052 0 20.5 0.449 20.5 1V2C20.488 2.395 20.415 2.774 20.284 3.135L18.65 7.222C18.439 7.682 18.01 7.975 17.525 8H17.439C17.079 9.482 14.984 11 12 11ZM7.628 8C8.054 8.897 9.558 10 12 10C13.595 10 15.898 9.246 16.4 8C16.4 8 9.003 8 9 8V7.75V8H7.628ZM6.278 6.85C6.316 6.931 6.415 6.995 6.525 7H8.41L8.076 5H5.538L6.278 6.85ZM11.5 7V5H9.09L9.423 7H11.5ZM14.576 7L14.909 5H12.5V7H14.576ZM15.59 7H17.5C17.59 6.995 17.686 6.927 17.732 6.827L18.462 5H15.924L15.59 7ZM18.861 4L19.349 2.778C19.44 2.53 19.491 2.26 19.5 1.984V1H4.5V2C4.509 2.263 4.561 2.533 4.656 2.793L5.139 4H18.861Z" fill="#3E3F42"/>
<path d="M7.04999 24C6.96299 24 6.87699 23.977 6.80199 23.934C6.68699 23.868 6.60299 23.761 6.56799 23.632C6.53299 23.503 6.54999 23.368 6.61599 23.252L7.43799 21.813C7.98499 20.857 7.73299 19.637 6.85099 18.976C5.47699 17.945 5.17199 15.97 6.16999 14.573L7.14299 13.21C7.23699 13.078 7.38899 13 7.54999 13C7.65499 13 7.75499 13.032 7.84099 13.094C7.94999 13.171 8.02199 13.287 8.04399 13.418C8.06599 13.549 8.03499 13.682 7.95799 13.791L6.98499 15.154C6.29999 16.113 6.50899 17.469 7.45199 18.176C8.73599 19.139 9.10399 20.916 8.30699 22.309L7.48499 23.748C7.39499 23.903 7.22899 24 7.04999 24Z" fill="#3E3F42"/>
<path d="M11.9 24C11.813 24 11.727 23.977 11.652 23.934C11.536 23.868 11.453 23.761 11.418 23.632C11.383 23.503 11.4 23.368 11.466 23.252L12.288 21.813C12.835 20.856 12.582 19.637 11.7 18.976C10.325 17.945 10.019 15.97 11.018 14.572L11.993 13.208C12.087 13.078 12.239 13 12.4 13C12.505 13 12.605 13.032 12.691 13.093C12.8 13.171 12.872 13.286 12.894 13.418C12.916 13.55 12.885 13.682 12.807 13.791L11.832 15.154C11.147 16.113 11.357 17.468 12.3 18.176C13.585 19.138 13.953 20.915 13.156 22.309L12.334 23.748C12.245 23.903 12.079 24 11.9 24Z" fill="#3E3F42"/>
<path d="M16.747 24C16.66 24 16.574 23.977 16.499 23.934C16.26 23.797 16.177 23.491 16.313 23.252L17.136 21.813C17.683 20.856 17.431 19.637 16.549 18.976C15.174 17.946 14.868 15.971 15.867 14.573L16.84 13.21C16.934 13.078 17.086 13 17.247 13C17.352 13 17.452 13.032 17.538 13.094C17.646 13.171 17.718 13.286 17.74 13.418C17.762 13.55 17.731 13.682 17.654 13.791L16.681 15.154C15.995 16.113 16.205 17.469 17.149 18.176C18.433 19.139 18.801 20.916 18.004 22.31L17.181 23.749C17.093 23.903 16.926 24 16.747 24Z" fill="#3E3F42"/>
</svg>
