<svg width="24" height="24" viewBox="0 0 24 24" fill="none" xmlns="http://www.w3.org/2000/svg">
<path d="M4 20C3.449 20 3 19.552 3 19V16C3 15.448 3.449 15 4 15H23C23.552 15 24 15.448 24 16V19C24 19.552 23.552 20 23 20H4ZM23 19V16H19V19H23ZM4 19H18V16H4V19Z" fill="#3E3F42"/>
<path d="M1.5 20C1.224 20 1 19.776 1 19.5V15.5C1 15.224 1.224 15 1.5 15C1.776 15 2 15.224 2 15.5V19.5C2 19.776 1.776 20 1.5 20Z" fill="#3E3F42"/>
<path d="M0.5 13C0.224 13 0 12.776 0 12.5V10.5C0 8.57 1.57 7 3.5 7C4.879 7 6 5.879 6 4.5C6 4.224 6.224 4 6.5 4C6.776 4 7 4.224 7 4.5C7 6.43 5.43 8 3.5 8C2.121 8 1 9.121 1 10.5V12.5C1 12.776 0.776 13 0.5 13Z" fill="#3E3F42"/>
<path d="M2.5 13C2.224 13 2 12.776 2 12.5C2 10.57 3.57 9 5.5 9C6.879 9 8 7.879 8 6.5C8 6.224 8.224 6 8.5 6C8.776 6 9 6.224 9 6.5C9 8.43 7.43 10 5.5 10C4.121 10 3 11.121 3 12.5C3 12.776 2.776 13 2.5 13Z" fill="#3E3F42"/>
</svg>
