<svg width="24" height="24" viewBox="0 0 24 24" fill="none" xmlns="http://www.w3.org/2000/svg">
<g clip-path="url(#clip0)">
<path d="M4 16C3.449 16 3 15.552 3 15V12C3 11.449 3.449 11 4 11H9.5C9.776 11 10 11.224 10 11.5C10 11.776 9.776 12 9.5 12H4V15H5.5C5.776 15 6 15.224 6 15.5C6 15.776 5.776 16 5.5 16H4Z" fill="#3E3F42"/>
<path d="M11.5 16C11.224 16 11 15.776 11 15.5C11 15.224 11.224 15 11.5 15H18V12H15.5C15.224 12 15 11.776 15 11.5C15 11.224 15.224 11 15.5 11H23C23.552 11 24 11.449 24 12V15C24 15.552 23.552 16 23 16H11.5ZM23 15V12H19V15H23Z" fill="#3E3F42"/>
<path d="M1.5 16C1.224 16 1 15.776 1 15.5V11.5C1 11.224 1.224 11 1.5 11C1.776 11 2 11.224 2 11.5V15.5C2 15.776 1.776 16 1.5 16Z" fill="#3E3F42"/>
<path d="M0.5 9C0.224 9 0 8.776 0 8.5V6.5C0 4.57 1.57 3 3.5 3C4.879 3 6 1.879 6 0.5C6 0.224 6.224 0 6.5 0C6.776 0 7 0.224 7 0.5C7 2.43 5.43 4 3.5 4C2.121 4 1 5.121 1 6.5V8.5C1 8.776 0.776 9 0.5 9Z" fill="#3E3F42"/>
<path d="M2.5 9C2.224 9 2 8.776 2 8.5C2 6.57 3.57 5 5.5 5C6.879 5 8 3.879 8 2.5C8 2.224 8.224 2 8.5 2C8.776 2 9 2.224 9 2.5C9 4.43 7.43 6 5.5 6C4.121 6 3 7.121 3 8.5C3 8.776 2.776 9 2.5 9Z" fill="#3E3F42"/>
<path d="M0.499998 24C0.365998 24 0.240998 23.948 0.145998 23.854C-0.0490018 23.659 -0.0490018 23.342 0.145998 23.147L23.146 0.147C23.241 0.052 23.366 0 23.5 0C23.634 0 23.759 0.052 23.854 0.146C24.049 0.341 24.049 0.658 23.854 0.853L0.853998 23.853C0.758998 23.948 0.633998 24 0.499998 24Z" fill="#3E3F42"/>
</g>
<defs>
<clipPath id="clip0">
<rect width="24" height="24" fill="white"/>
</clipPath>
</defs>
</svg>
