<svg width="24" height="24" viewBox="0 0 24 24" fill="none" xmlns="http://www.w3.org/2000/svg">
<path d="M1.50501 24C1.10401 24 0.728006 23.844 0.444006 23.562C0.160006 23.279 0.00400598 22.903 0.00300598 22.502C0.00300598 22.476 0.00400598 22.45 0.00500598 22.425C0.072006 21.092 0.321006 18.537 1.24401 16.404C2.22201 14.145 3.65601 13 5.50501 13C7.35401 13 8.78601 14.145 9.76201 16.404C10.682 18.534 10.932 21.09 10.999 22.425C11.019 22.825 10.882 23.209 10.614 23.506C10.345 23.803 9.97701 23.978 9.57701 23.998C9.55201 24 9.52801 24 9.50401 24H1.50501ZM5.50501 14C3.53401 14 1.31701 16.226 1.00401 22.475V22.507C1.00401 22.634 1.05601 22.76 1.15101 22.854C1.24501 22.948 1.37001 23 1.50301 23H9.52101C9.66001 22.993 9.78201 22.935 9.87201 22.836C9.96201 22.737 10.007 22.609 10.001 22.475C9.68601 16.226 7.47201 14 5.50501 14Z" fill="#3E3F42"/>
<path d="M13.5 24C12.673 24 12 23.327 12 22.5V15.5C12.079 14.317 12.89 13.354 14 13.075V8.891C13.436 8.669 13.043 8.146 13.001 7.534L13 6C11.897 6 11 5.103 11 4C11 2.897 11.897 2 13 2H17V1H16.5C16.224 1 16 0.776 16 0.5C16 0.224 16.224 0 16.5 0H18.5C18.775 0 19 0.224 19 0.5C19 0.776 18.775 1 18.5 1H18V2H22C23.103 2 24 2.897 24 4C24 5.103 23.103 6 22 6V7.5C21.958 8.139 21.565 8.672 21 8.894V13.079C22.11 13.36 22.92 14.315 22.999 15.466C22.999 15.472 23 15.494 23 15.5V22.5C23 23.327 22.327 24 21.5 24H13.5ZM14.509 14C13.703 14.06 13.054 14.718 12.999 15.534L13 22.5C13 22.776 13.224 23 13.5 23H21.5C21.776 23 22 22.776 22 22.5V15.509C21.942 14.713 21.283 14.057 20.47 13.999L14.509 14ZM20 13V9H15V13H20ZM14 7.5C14.018 7.753 14.252 7.98 14.531 8.001L20.5 8C20.754 7.982 20.982 7.747 21.001 7.466L21 6H14V7.5ZM13 3C12.448 3 12 3.449 12 4C12 4.551 12.448 5 13 5H22C22.552 5 23 4.551 23 4C23 3.449 22.552 3 22 3H13Z" fill="#3E3F42"/>
<path d="M4.25 17C4.66421 17 5 16.6642 5 16.25C5 15.8358 4.66421 15.5 4.25 15.5C3.83579 15.5 3.5 15.8358 3.5 16.25C3.5 16.6642 3.83579 17 4.25 17Z" fill="#3E3F42"/>
<path d="M6.75 17C7.16421 17 7.5 16.6642 7.5 16.25C7.5 15.8358 7.16421 15.5 6.75 15.5C6.33579 15.5 6 15.8358 6 16.25C6 16.6642 6.33579 17 6.75 17Z" fill="#3E3F42"/>
</svg>
