<svg width="24" height="24" viewBox="0 0 24 24" fill="none" xmlns="http://www.w3.org/2000/svg">
<g clip-path="url(#clip0)">
<path d="M3.5 19.793C2.673 19.793 2 19.12 2 18.293C2 17.466 2.673 16.793 3.5 16.793C4.327 16.793 5 17.466 5 18.293C5 19.12 4.327 19.793 3.5 19.793ZM3.5 17.793C3.224 17.793 3 18.017 3 18.293C3 18.569 3.224 18.793 3.5 18.793C3.776 18.793 4 18.569 4 18.293C4 18.017 3.776 17.793 3.5 17.793Z" fill="#3E3F42"/>
<path d="M3.5 14.793C2.673 14.793 2 14.12 2 13.293C2 12.466 2.673 11.793 3.5 11.793C4.327 11.793 5 12.466 5 13.293C5 14.12 4.327 14.793 3.5 14.793ZM3.5 12.793C3.224 12.793 3 13.017 3 13.293C3 13.569 3.224 13.793 3.5 13.793C3.776 13.793 4 13.569 4 13.293C4 13.017 3.776 12.793 3.5 12.793Z" fill="#3E3F42"/>
<path d="M1.5 22.793C0.673 22.793 0 22.12 0 21.293V9.29297C0 8.46597 0.673 7.79297 1.5 7.79297H5.5C6.327 7.79297 7 8.46597 7 9.29297V11.793H17V9.29297C17 8.46597 17.673 7.79297 18.5 7.79297H22.5C23.327 7.79297 24 8.46597 24 9.29297V21.293C24 22.12 23.327 22.793 22.5 22.793H1.5ZM22.5 21.793C22.776 21.793 23 21.569 23 21.293V9.29297C23 9.01697 22.776 8.79297 22.5 8.79297H18.5C18.224 8.79297 18 9.01697 18 9.29297V21.793H22.5ZM17 21.793V12.793H7V21.793H17ZM1.5 8.79297C1.224 8.79297 1 9.01697 1 9.29297V21.293C1 21.569 1.224 21.793 1.5 21.793H6V9.29297C6 9.01697 5.776 8.79297 5.5 8.79297H1.5Z" fill="#3E3F42"/>
<path d="M20.5 19.793C19.673 19.793 19 19.12 19 18.293C19 17.466 19.673 16.793 20.5 16.793C21.327 16.793 22 17.466 22 18.293C22 19.12 21.327 19.793 20.5 19.793ZM20.5 17.793C20.224 17.793 20 18.017 20 18.293C20 18.569 20.224 18.793 20.5 18.793C20.776 18.793 21 18.569 21 18.293C21 18.017 20.776 17.793 20.5 17.793Z" fill="#3E3F42"/>
<path d="M20.5 14.793C19.673 14.793 19 14.12 19 13.293C19 12.466 19.673 11.793 20.5 11.793C21.327 11.793 22 12.466 22 13.293C22 14.12 21.327 14.793 20.5 14.793ZM20.5 12.793C20.224 12.793 20 13.017 20 13.293C20 13.569 20.224 13.793 20.5 13.793C20.776 13.793 21 13.569 21 13.293C21 13.017 20.776 12.793 20.5 12.793Z" fill="#3E3F42"/>
<path d="M9.49999 16.793C8.67399 16.792 8.00199 16.12 8.00099 15.294C8.00099 14.894 8.15699 14.517 8.43999 14.233C8.72299 13.949 9.09999 13.793 9.49999 13.792H14.5C15.327 13.792 16 14.465 16 15.292C16 16.119 15.327 16.792 14.5 16.792H9.49999V16.793ZM9.49999 14.793C9.36699 14.793 9.24199 14.845 9.14699 14.94C9.05199 15.035 9.00099 15.16 9.00099 15.294C9.00099 15.569 9.22499 15.793 9.50099 15.794H14.5C14.776 15.794 15 15.57 15 15.294C15 15.018 14.776 14.794 14.5 14.794H9.49999V14.793Z" fill="#3E3F42"/>
<path d="M8.75 20.793C9.16421 20.793 9.5 20.4572 9.5 20.043C9.5 19.6288 9.16421 19.293 8.75 19.293C8.33579 19.293 8 19.6288 8 20.043C8 20.4572 8.33579 20.793 8.75 20.793Z" fill="#3E3F42"/>
<path d="M15.25 20.793C15.6642 20.793 16 20.4572 16 20.043C16 19.6288 15.6642 19.293 15.25 19.293C14.8358 19.293 14.5 19.6288 14.5 20.043C14.5 20.4572 14.8358 20.793 15.25 20.793Z" fill="#3E3F42"/>
<path d="M10.5 18.793C10.224 18.793 10 18.569 10 18.293C10 18.017 10.224 17.793 10.5 17.793H13.5C13.776 17.793 14 18.017 14 18.293C14 18.569 13.776 18.793 13.5 18.793H10.5Z" fill="#3E3F42"/>
<path d="M4.743 4.79301C4.666 4.79301 4.589 4.77501 4.52 4.74001C4.458 4.70901 4.402 4.66401 4.357 4.61001C4.099 4.35601 3.731 4.20601 3.335 4.20601C2.931 4.20601 2.551 4.36301 2.267 4.64701C2.173 4.74101 2.047 4.79301 1.913 4.79301C1.779 4.79301 1.655 4.74101 1.56 4.64701C1.466 4.55301 1.414 4.42701 1.414 4.29301C1.414 4.15901 1.466 4.03401 1.56 3.93901C2.032 3.46701 2.66 3.20801 3.328 3.20801C3.994 3.20801 4.62 3.46601 5.091 3.93501C5.248 4.08301 5.289 4.31901 5.19 4.51701C5.105 4.68701 4.934 4.79301 4.743 4.79301Z" fill="#3E3F42"/>
<path d="M0.499998 3.37901C0.365998 3.37901 0.240998 3.32701 0.145998 3.23301C-0.0490018 3.03801 -0.0490018 2.72101 0.145998 2.52601C0.995998 1.67601 2.126 1.20801 3.328 1.20801C4.53 1.20801 5.66 1.67601 6.51 2.52601C6.705 2.72101 6.705 3.03801 6.51 3.23301C6.416 3.32701 6.29 3.37901 6.157 3.37901C6.024 3.37901 5.898 3.32701 5.803 3.23301C5.143 2.57301 4.264 2.21001 3.328 2.21001C2.392 2.21001 1.513 2.57401 0.852998 3.23401C0.758998 3.32701 0.633998 3.37901 0.499998 3.37901Z" fill="#3E3F42"/>
<path d="M22.086 4.79303C21.952 4.79303 21.827 4.74103 21.732 4.64703C21.449 4.36403 21.072 4.20803 20.671 4.20703C20.272 4.20703 19.896 4.36203 19.614 4.64303C19.525 4.73703 19.393 4.79303 19.257 4.79303C18.981 4.79303 18.757 4.56903 18.757 4.29303C18.757 4.16103 18.81 4.03203 18.904 3.93903C19.376 3.46703 20.004 3.20703 20.671 3.20703C21.339 3.20703 21.967 3.46703 22.439 3.94003C22.533 4.03403 22.585 4.16003 22.585 4.29403C22.585 4.42803 22.533 4.55303 22.439 4.64803C22.345 4.74303 22.219 4.79303 22.086 4.79303Z" fill="#3E3F42"/>
<path d="M23.5 3.37901C23.366 3.37901 23.241 3.32701 23.146 3.23301C22.485 2.57201 21.606 2.20801 20.671 2.20801C19.736 2.20801 18.857 2.57201 18.196 3.23301C18.102 3.32701 17.976 3.37901 17.842 3.37901C17.708 3.37901 17.583 3.32701 17.488 3.23301C17.293 3.03801 17.293 2.72101 17.488 2.52601C18.338 1.67601 19.468 1.20801 20.67 1.20801C21.872 1.20801 23.002 1.67601 23.852 2.52601C24.047 2.72101 24.047 3.03801 23.852 3.23301C23.759 3.32701 23.634 3.37901 23.5 3.37901Z" fill="#3E3F42"/>
</g>
<defs>
<clipPath id="clip0">
<rect width="24" height="24" fill="white"/>
</clipPath>
</defs>
</svg>
