<svg width="24" height="24" viewBox="0 0 24 24" fill="none" xmlns="http://www.w3.org/2000/svg">
<path d="M4 11.5C2.208 11.5 0.75 10.042 0.75 8.25C0.75 6.458 2.208 5 4 5C5.792 5 7.25 6.458 7.25 8.25C7.25 10.042 5.792 11.5 4 11.5ZM4 6C2.76 6 1.75 7.01 1.75 8.25C1.75 9.49 2.76 10.5 4 10.5C5.24 10.5 6.25 9.491 6.25 8.25C6.25 7.009 5.241 6 4 6Z" fill="#3E3F42"/>
<path d="M2.5 24C2.242 24 2.023 23.799 2.002 23.542L1.623 19H0.5C0.224 19 0 18.776 0 18.5V15.5C0 13.294 1.794 11.5 4 11.5C6.206 11.5 8 13.294 8 15.5V18.5C8 18.776 7.776 19 7.5 19H6.377L5.998 23.542C5.977 23.799 5.758 24 5.5 24H2.5ZM5.04 23L5.419 18.458C5.44 18.202 5.659 18 5.917 18H7V15.5C7 13.846 5.654 12.5 4 12.5C2.346 12.5 1 13.846 1 15.5V18H2.083C2.341 18 2.56 18.201 2.581 18.458L2.96 23H5.04Z" fill="#3E3F42"/>
<path d="M19 11.5C17.208 11.5 15.75 10.042 15.75 8.25C15.75 6.458 17.208 5 19 5C20.792 5 22.25 6.458 22.25 8.25C22.25 10.042 20.792 11.5 19 11.5ZM19 6C17.759 6 16.75 7.009 16.75 8.25C16.75 9.491 17.759 10.5 19 10.5C20.241 10.5 21.25 9.491 21.25 8.25C21.25 7.009 20.241 6 19 6Z" fill="#3E3F42"/>
<path d="M17.5 24C17.252 24 17.039 23.814 17.005 23.569L16.648 21H14.5C14.357 21 14.22 20.938 14.125 20.831C14.03 20.722 13.986 20.579 14.004 20.437L14.669 15.247C15.055 13.145 16.87 11.581 18.985 11.517C21.125 11.58 22.945 13.138 23.327 15.22C23.328 15.224 23.331 15.242 23.331 15.247L23.996 20.437C24.014 20.58 23.97 20.723 23.876 20.831C23.78 20.939 23.643 21 23.5 21H21.352L20.995 23.569C20.961 23.815 20.748 24 20.5 24H17.5ZM20.065 23L20.422 20.431C20.456 20.186 20.669 20 20.917 20H22.932L22.34 15.38C22.043 13.778 20.635 12.568 18.993 12.516C17.358 12.57 15.955 13.782 15.657 15.401L15.068 20H17.083C17.331 20 17.544 20.186 17.578 20.431L17.935 23H20.065Z" fill="#3E3F42"/>
<path d="M8.5 5C7.673 5 7 4.327 7 3.5C7 2.673 7.673 2 8.5 2C8.672 2 8.84 2.03 9 2.088V1C9 0.733 9.104 0.482 9.293 0.293C9.482 0.104 9.733 0 10 0C10.268 0 10.519 0.104 10.708 0.294L11.354 0.94C11.549 1.135 11.549 1.452 11.354 1.647C11.259 1.741 11.134 1.793 11 1.793C10.866 1.793 10.741 1.741 10.646 1.647L10 1.001V3.501C10 4.327 9.327 5 8.5 5ZM8.5 3C8.224 3 8 3.224 8 3.5C8 3.776 8.224 4 8.5 4C8.776 4 9 3.776 9 3.5C9 3.224 8.776 3 8.5 3Z" fill="#3E3F42"/>
<path d="M11 13.5C9.897 13.5 9 12.603 9 11.5C9 10.397 9.897 9.5 11 9.5C11.357 9.5 11.699 9.593 12 9.768V7C12.001 6.449 12.449 6 13 6C13.198 6 13.389 6.058 13.554 6.167L14.654 6.899C14.765 6.973 14.841 7.086 14.867 7.217C14.893 7.348 14.867 7.482 14.793 7.593C14.7 7.732 14.544 7.816 14.376 7.816C14.277 7.816 14.182 7.787 14.1 7.733L13 7V11.5C13 12.603 12.103 13.5 11 13.5ZM11 10.5C10.449 10.5 10 10.949 10 11.5C10 12.051 10.449 12.5 11 12.5C11.551 12.5 12 12.051 12 11.5C12 10.949 11.552 10.5 11 10.5Z" fill="#3E3F42"/>
</svg>
