<svg width="24" height="24" viewBox="0 0 24 24" fill="none" xmlns="http://www.w3.org/2000/svg">
<path d="M18.5 8.94806C17.131 8.93706 16.011 7.81806 16 6.45206V5.40306C14.676 5.28706 13.331 5.22806 11.999 5.22806C10.667 5.22806 9.323 5.28706 8 5.40306V6.44706C7.989 7.81606 6.87 8.93606 5.504 8.94706H2.5C1.131 8.93706 0.01 7.81806 0 6.45106V4.44806C0.059 2.75206 1.249 1.32106 2.893 0.960058C5.904 0.345058 8.967 0.0340576 12.002 0.0340576C15.035 0.0340576 18.096 0.345058 21.101 0.959058C22.751 1.32006 23.941 2.74806 24 4.43006V6.44806C23.99 7.81706 22.87 8.93806 21.504 8.94806C21.503 8.94806 21.503 8.94806 21.502 8.94806H18.5ZM12 4.22806C13.516 4.22806 15.047 4.30306 16.549 4.45006C16.806 4.47506 17 4.68906 17 4.94806V6.44806C17.007 7.26806 17.681 7.94206 18.504 7.94806H21.5C22.32 7.94206 22.994 7.26706 23 6.44406V4.44806C22.957 3.23706 22.091 2.20106 20.894 1.93706C17.96 1.33706 14.966 1.03306 12 1.03306C9.033 1.03306 6.039 1.33706 3.1 1.93806C1.908 2.19906 1.043 3.23906 1 4.46506V6.44706C1.006 7.26706 1.681 7.94106 2.504 7.94706H5.5C6.32 7.94106 6.994 7.26606 7 6.44406V4.94806C7 4.68906 7.194 4.47506 7.451 4.45006C8.953 4.30206 10.484 4.22806 12 4.22806Z" fill="#3E3F42"/>
<path d="M5.5 13.948C4.673 13.948 4 13.275 4 12.448C4 11.621 4.673 10.948 5.5 10.948H6.5C7.327 10.948 8 11.621 8 12.448C8 13.275 7.327 13.948 6.5 13.948H5.5ZM5.5 11.948C5.224 11.948 5 12.172 5 12.448C5 12.724 5.224 12.948 5.5 12.948H6.5C6.776 12.948 7 12.724 7 12.448C7 12.172 6.776 11.948 6.5 11.948H5.5Z" fill="#3E3F42"/>
<path d="M11.5 13.948C10.673 13.948 10 13.275 10 12.448C10 11.621 10.673 10.948 11.5 10.948H12.5C13.327 10.948 14 11.621 14 12.448C14 13.275 13.327 13.948 12.5 13.948H11.5ZM11.5 11.948C11.224 11.948 11 12.172 11 12.448C11 12.724 11.224 12.948 11.5 12.948H12.5C12.776 12.948 13 12.724 13 12.448C13 12.172 12.776 11.948 12.5 11.948H11.5Z" fill="#3E3F42"/>
<path d="M17.5 13.948C16.673 13.948 16 13.275 16 12.448C16 11.621 16.673 10.948 17.5 10.948H18.5C19.327 10.948 20 11.621 20 12.448C20 13.275 19.327 13.948 18.5 13.948H17.5ZM17.5 11.948C17.224 11.948 17 12.172 17 12.448C17 12.724 17.224 12.948 17.5 12.948H18.5C18.776 12.948 19 12.724 19 12.448C19 12.172 18.776 11.948 18.5 11.948H17.5Z" fill="#3E3F42"/>
<path d="M5.5 18.948C4.673 18.948 4 18.275 4 17.448C4 16.621 4.673 15.948 5.5 15.948H6.5C7.327 15.948 8 16.621 8 17.448C8 18.275 7.327 18.948 6.5 18.948H5.5ZM5.5 16.948C5.224 16.948 5 17.172 5 17.448C5 17.724 5.224 17.948 5.5 17.948H6.5C6.776 17.948 7 17.724 7 17.448C7 17.172 6.776 16.948 6.5 16.948H5.5Z" fill="#3E3F42"/>
<path d="M11.5 18.948C10.673 18.948 10 18.275 10 17.448C10 16.621 10.673 15.948 11.5 15.948H12.5C13.327 15.948 14 16.621 14 17.448C14 18.275 13.327 18.948 12.5 18.948H11.5ZM11.5 16.948C11.224 16.948 11 17.172 11 17.448C11 17.724 11.224 17.948 11.5 17.948H12.5C12.776 17.948 13 17.724 13 17.448C13 17.172 12.776 16.948 12.5 16.948H11.5Z" fill="#3E3F42"/>
<path d="M17.5 18.948C16.673 18.948 16 18.275 16 17.448C16 16.621 16.673 15.948 17.5 15.948H18.5C19.327 15.948 20 16.621 20 17.448C20 18.275 19.327 18.948 18.5 18.948H17.5ZM17.5 16.948C17.224 16.948 17 17.172 17 17.448C17 17.724 17.224 17.948 17.5 17.948H18.5C18.776 17.948 19 17.724 19 17.448C19 17.172 18.776 16.948 18.5 16.948H17.5Z" fill="#3E3F42"/>
<path d="M5.5 23.948C4.673 23.948 4 23.275 4 22.448C4 21.621 4.673 20.948 5.5 20.948H6.5C7.327 20.948 8 21.621 8 22.448C8 23.275 7.327 23.948 6.5 23.948H5.5ZM5.5 21.948C5.224 21.948 5 22.172 5 22.448C5 22.724 5.224 22.948 5.5 22.948H6.5C6.776 22.948 7 22.724 7 22.448C7 22.172 6.776 21.948 6.5 21.948H5.5Z" fill="#3E3F42"/>
<path d="M11.5 23.948C10.673 23.948 10 23.275 10 22.448C10 21.621 10.673 20.948 11.5 20.948H12.5C13.327 20.948 14 21.621 14 22.448C14 23.275 13.327 23.948 12.5 23.948H11.5ZM11.5 21.948C11.224 21.948 11 22.172 11 22.448C11 22.724 11.224 22.948 11.5 22.948H12.5C12.776 22.948 13 22.724 13 22.448C13 22.172 12.776 21.948 12.5 21.948H11.5Z" fill="#3E3F42"/>
<path d="M17.5 23.948C16.673 23.948 16 23.275 16 22.448C16 21.621 16.673 20.948 17.5 20.948H18.5C19.327 20.948 20 21.621 20 22.448C20 23.275 19.327 23.948 18.5 23.948H17.5ZM17.5 21.948C17.224 21.948 17 22.172 17 22.448C17 22.724 17.224 22.948 17.5 22.948H18.5C18.776 22.948 19 22.724 19 22.448C19 22.172 18.776 21.948 18.5 21.948H17.5Z" fill="#3E3F42"/>
</svg>
