<svg width="24" height="24" viewBox="0 0 24 24" fill="none" xmlns="http://www.w3.org/2000/svg">
<path d="M2.5 24C1.121 24 0 22.878 0 21.5V10.5C0 9.121 1.121 8 2.5 8H4V3.937C3.114 3.71 2.496 2.912 2.498 1.997C2.499 1.463 2.708 0.961 3.086 0.584C3.463 0.207 3.965 0 4.497 0H15.5C16.417 0 17.213 0.618 17.44 1.503C17.714 2.571 17.067 3.663 15.999 3.937L16 8H19.5C20.878 8 22 9.121 22 10.5V19H23.5C23.776 19 24 19.224 24 19.5C24 19.776 23.776 20 23.5 20H22V21.5C22 22.878 20.878 24 19.5 24H2.5ZM1 21.5C1 22.327 1.673 23 2.5 23H19.5C20.327 23 21 22.327 21 21.5V21H1V21.5ZM21 20V10.5C21 9.673 20.327 9 19.5 9H2.5C1.673 9 1 9.673 1 10.5V20H21ZM15 8V3.937C15 3.481 15.308 3.083 15.75 2.969C16.285 2.832 16.608 2.286 16.471 1.752C16.358 1.309 15.959 1 15.502 1H4.497C4.231 1 3.98 1.104 3.792 1.292C3.602 1.48 3.498 1.731 3.498 1.998C3.497 2.456 3.806 2.855 4.249 2.968C4.691 3.083 5 3.481 5 3.937V8H15Z" fill="#3E3F42"/>
<path d="M18 14.25C18.4142 14.25 18.75 13.9142 18.75 13.5C18.75 13.0858 18.4142 12.75 18 12.75C17.5858 12.75 17.25 13.0858 17.25 13.5C17.25 13.9142 17.5858 14.25 18 14.25Z" fill="#3E3F42"/>
<path d="M18 17.25C18.4142 17.25 18.75 16.9142 18.75 16.5C18.75 16.0858 18.4142 15.75 18 15.75C17.5858 15.75 17.25 16.0858 17.25 16.5C17.25 16.9142 17.5858 17.25 18 17.25Z" fill="#3E3F42"/>
</svg>
