<svg width="24" height="24" viewBox="0 0 24 24" fill="none" xmlns="http://www.w3.org/2000/svg">
<path d="M1.5 5.5C0.673 5.5 0 4.827 0 4C0 3.173 0.673 2.5 1.5 2.5C2.327 2.5 3 3.173 3 4C3 4.827 2.327 5.5 1.5 5.5ZM1.5 3.5C1.224 3.5 1 3.724 1 4C1 4.276 1.224 4.5 1.5 4.5C1.776 4.5 2 4.276 2 4C2 3.724 1.776 3.5 1.5 3.5Z" fill="#3E3F42"/>
<path d="M4 23.5C3.449 23.5 3 23.052 3 22.5V3.5C3 1.846 4.346 0.5 6 0.5H18C18.946 0.5 19.846 0.953 20.409 1.712C20.573 1.933 20.527 2.247 20.306 2.412C20.219 2.476 20.116 2.511 20.008 2.511C19.851 2.511 19.7 2.436 19.606 2.309C19.231 1.802 18.631 1.5 18 1.5C16.897 1.5 16 2.397 16 3.5V22.5C16 23.052 15.552 23.5 15 23.5H4ZM4 22.5H15V20.5H4V22.5ZM15 19.5V17.5H4V19.5H15ZM15 16.5V3.5C15 2.756 15.278 2.045 15.766 1.5H6C4.897 1.5 4 2.397 4 3.5V16.5H15Z" fill="#3E3F42"/>
<path d="M22.5 5.5C21.86 5.5 21.295 5.09 21.086 4.5H17.5C17.224 4.5 17 4.276 17 4C17 3.724 17.224 3.5 17.5 3.5H21.086C21.295 2.91 21.86 2.5 22.5 2.5C23.327 2.5 24 3.173 24 4C24 4.827 23.327 5.5 22.5 5.5ZM22.5 3.5C22.224 3.5 22 3.724 22 4C22 4.276 22.224 4.5 22.5 4.5C22.776 4.5 23 4.276 23 4C23 3.724 22.776 3.5 22.5 3.5Z" fill="#3E3F42"/>
<path d="M17.5 15.5C17.224 15.5 17 15.276 17 15C17 14.724 17.224 14.5 17.5 14.5H20V6C20 5.724 20.224 5.5 20.5 5.5C20.776 5.5 21 5.724 21 6V14.5C21 15.052 20.552 15.5 20 15.5H17.5Z" fill="#3E3F42"/>
</svg>
