<svg width="24" height="24" viewBox="0 0 24 24" fill="none" xmlns="http://www.w3.org/2000/svg">
<g clip-path="url(#clip0)">
<path d="M16.002 24C15.726 24 15.502 23.776 15.502 23.5C15.502 23.224 15.726 23 16.002 23H17.502V22H14.002C12.895 21.988 11.999 21.081 12.002 19.978V14C12.002 12.897 12.899 12 14.002 12H22.002C23.105 12 24.002 12.897 24.002 14V19.979C24.005 21.081 23.11 21.988 22.007 22H18.502V23H20.002C20.278 23 20.502 23.224 20.502 23.5C20.502 23.776 20.278 24 20.002 24H16.002ZM13.002 19.979C13.001 20.536 13.452 20.994 14.008 21H22.002C22.554 20.994 23.003 20.536 23.002 19.98V19H13.002V19.979V19.979ZM23.002 18V14C23.002 13.448 22.554 13 22.002 13H14.002C13.45 13 13.002 13.448 13.002 14V18H23.002Z" fill="#3E3F42"/>
<path d="M1.00201 12C0.678006 12 0.414006 11.851 0.296006 11.603C0.251006 11.509 0.130006 11.174 0.436006 10.797L3.19001 7.433C1.38201 5.395 1.24701 2.388 2.89401 0.2C2.98801 0.075 3.13701 0 3.29401 0C3.40201 0 3.50601 0.035 3.59301 0.1L7.38601 2.939L8.52601 1.416C8.62001 1.291 8.77001 1.216 8.92701 1.216C9.03601 1.216 9.13901 1.25 9.22601 1.315C9.44701 1.48 9.49201 1.794 9.32701 2.015L8.18701 3.538L11.981 6.377C12.2 6.541 12.246 6.853 12.085 7.073L12.064 7.1C10.973 8.55 9.30301 9.38 7.48301 9.38C6.96301 9.38 6.43901 9.306 5.93401 9.163L7.27201 10.796C7.58001 11.171 7.45901 11.506 7.41401 11.6C7.37001 11.694 7.18801 12 6.70201 12H1.00201ZM6.14701 11L3.85401 8.201L1.56201 11H6.14701ZM4.64901 7.432C5.47401 8.053 6.45401 8.38 7.48501 8.38C8.81801 8.38 10.07 7.83 10.962 6.862L7.20501 4.052C7.20001 4.049 7.19401 4.045 7.18901 4.041C7.18101 4.035 7.17401 4.029 7.16701 4.023L3.41401 1.215C2.17701 3.275 2.68301 5.953 4.62701 7.416C4.63401 7.422 4.64201 7.427 4.64901 7.432Z" fill="#3E3F42"/>
<path d="M18.508 10.456C18.232 10.456 18.008 10.232 18.008 9.956V4H12.003C11.727 4 11.503 3.776 11.503 3.5C11.503 3.224 11.727 3 12.003 3H18.508C18.784 3 19.008 3.224 19.008 3.5V9.956C19.008 10.232 18.783 10.456 18.508 10.456Z" fill="#3E3F42"/>
<path d="M3.507 21.0001C3.231 21.0001 3.007 20.7761 3.007 20.5001V13.9561C3.007 13.6801 3.231 13.4561 3.507 13.4561C3.783 13.4561 4.007 13.6801 4.007 13.9561V20.0001H10.002C10.278 20.0001 10.502 20.2241 10.502 20.5001C10.502 20.7761 10.278 21.0001 10.002 21.0001H3.507Z" fill="#3E3F42"/>
</g>
<defs>
<clipPath id="clip0">
<rect width="24" height="24" fill="white"/>
</clipPath>
</defs>
</svg>
