<svg width="24" height="24" viewBox="0 0 24 24" fill="none" xmlns="http://www.w3.org/2000/svg">
<path d="M2.5 24C1.121 24 0 22.878 0 21.5V7.5C0 6.121 1.121 5 2.5 5H8.294L4.147 0.854C3.952 0.659 3.952 0.342 4.147 0.147C4.242 0.052 4.367 0 4.501 0C4.635 0 4.76 0.052 4.854 0.146L9.708 5H10.294L15.147 0.146C15.241 0.052 15.366 0 15.5 0C15.634 0 15.759 0.052 15.854 0.146C15.948 0.241 16 0.366 16 0.5C16 0.634 15.948 0.759 15.854 0.854L11.708 5H21.5C22.878 5 24 6.121 24 7.5V21.5C24 22.878 22.878 24 21.5 24H2.5ZM2.5 6C1.673 6 1 6.673 1 7.5V21.5C1 22.327 1.673 23 2.5 23H21.5C22.327 23 23 22.327 23 21.5V7.5C23 6.673 22.327 6 21.5 6H2.5Z" fill="#3E3F42"/>
<path d="M6.5 22C4.019 22 2 19.981 2 17.5V11.5C2 9.019 4.019 7 6.5 7H13.5C15.981 7 18 9.019 18 11.5V17.5C18 19.981 15.981 22 13.5 22H6.5ZM6.5 8C4.57 8 3 9.57 3 11.5V17.5C3 19.43 4.57 21 6.5 21H13.5C15.43 21 17 19.43 17 17.5V11.5C17 9.57 15.43 8 13.5 8H6.5Z" fill="#3E3F42"/>
<path d="M20 17C19.448 17 19 16.552 19 16V9C19 8.449 19.448 8 20 8H21C21.552 8 22 8.449 22 9V16C22 16.552 21.552 17 21 17H20ZM20 16H21V9H20V16Z" fill="#3E3F42"/>
<path d="M20.498 21.495C19.671 21.495 18.998 20.822 18.998 19.995C18.998 19.168 19.671 18.495 20.498 18.495C21.325 18.495 21.998 19.168 21.998 19.995C21.998 20.822 21.325 21.495 20.498 21.495ZM20.498 19.495C20.222 19.495 19.998 19.719 19.998 19.995C19.998 20.271 20.222 20.495 20.498 20.495C20.774 20.495 20.998 20.271 20.998 19.995C20.998 19.719 20.774 19.495 20.498 19.495Z" fill="#3E3F42"/>
</svg>
