<svg width="24" height="24" viewBox="0 0 24 24" fill="none" xmlns="http://www.w3.org/2000/svg">
<g clip-path="url(#clip0)">
<path d="M3.1 24C2.738 24 2.389 23.869 2.117 23.632C1.815 23.369 1.633 23.004 1.605 22.605C1.577 22.205 1.706 21.819 1.969 21.516L7.199 15.488C3.381 11.331 3.179 4.95202 6.756 0.554023C6.787 0.516023 6.82 0.479023 6.855 0.444023C7.138 0.158023 7.514 2.34375e-05 7.915 -0.000976562C8.319 -0.000976562 8.695 0.154023 8.977 0.434023L12.07 3.49902H16.712C17.108 2.59502 18.006 1.99902 19 1.99902C20.378 1.99902 21.5 3.12002 21.5 4.49902C21.5 5.49302 20.904 6.39202 20 6.78702V11.357L23.057 14.386C23.091 14.419 23.125 14.456 23.157 14.495C23.413 14.805 23.532 15.194 23.495 15.593C23.457 15.992 23.266 16.352 22.957 16.607C20.899 18.311 18.308 19.25 15.661 19.25C14.033 19.25 12.428 18.899 10.952 18.227L13.828 21.51C14.068 21.784 14.2 22.135 14.2 22.499C14.2 22.899 14.044 23.275 13.761 23.559C13.478 23.843 13.1 24 12.7 24H3.1ZM2.724 22.172C2.636 22.273 2.593 22.402 2.602 22.535C2.611 22.668 2.672 22.79 2.773 22.878C2.864 22.956 2.98 23 3.101 23H12.7C12.833 23 12.959 22.948 13.053 22.853C13.147 22.759 13.199 22.633 13.199 22.5C13.199 22.378 13.155 22.261 13.075 22.17L7.874 16.233L2.724 22.172ZM8.303 15.197C10.281 17.166 12.894 18.251 15.661 18.251C18.076 18.251 20.441 17.394 22.319 15.838C22.422 15.753 22.486 15.633 22.499 15.5C22.512 15.367 22.472 15.237 22.386 15.134C22.377 15.123 22.366 15.112 22.355 15.101L8.273 1.14402C8.179 1.05002 8.054 0.999023 7.921 0.999023L7.918 0.749023L7.919 0.999023C7.785 1.00002 7.66 1.05202 7.566 1.14702C7.554 1.15802 7.543 1.17102 7.532 1.18502C4.123 5.37602 4.452 11.397 8.298 15.192C8.3 15.193 8.301 15.195 8.303 15.197ZM19 10.367V6.99902C18.504 6.99902 18.032 6.85602 17.623 6.58302L16.408 7.79802L19 10.367ZM15.698 7.09402L16.916 5.87602C16.643 5.46702 16.5 4.99502 16.5 4.49902H13.079L15.698 7.09402ZM19 2.99902C18.173 2.99902 17.5 3.67202 17.5 4.49902C17.5 5.32602 18.173 5.99902 19 5.99902C19.827 5.99902 20.5 5.32602 20.5 4.49902C20.5 3.67202 19.827 2.99902 19 2.99902Z" fill="#3E3F42"/>
</g>
<defs>
<clipPath id="clip0">
<rect width="24" height="24" fill="white"/>
</clipPath>
</defs>
</svg>
