<svg width="24" height="24" viewBox="0 0 24 24" fill="none" xmlns="http://www.w3.org/2000/svg">
<g clip-path="url(#clip0)">
<path d="M13 6C11.346 6 10 4.654 10 3C10 1.346 11.346 0 13 0C14.654 0 16 1.346 16 3C16 4.654 14.654 6 13 6ZM13 1C11.897 1 11 1.897 11 3C11 4.103 11.897 5 13 5C14.103 5 15 4.103 15 3C15 1.897 14.103 1 13 1Z" fill="#3E3F42"/>
<path d="M15 24C14.425 24 13.877 23.747 13.5 23.321C13.123 23.747 12.575 24 12 24C10.897 24 10 23.103 10 22V11.922L9.224 13.848C9.148 14.038 8.965 14.161 8.76 14.161C8.696 14.161 8.634 14.149 8.574 14.126C8.317 14.022 8.193 13.73 8.296 13.475L9.302 10.98C9.379 10.762 9.554 10.57 9.779 10.463C9.908 10.402 10.044 10.371 10.185 10.371C10.293 10.371 10.399 10.389 10.501 10.426C10.633 10.473 10.755 10.55 10.853 10.648C10.948 10.741 11 10.866 11 11V22C11 22.552 11.449 23 12 23C12.552 23 13 22.552 13 22V17C13 16.724 13.224 16.5 13.5 16.5C13.776 16.5 14 16.724 14 17V22C14 22.552 14.448 23 15 23C15.552 23 16 22.552 16 22V16C16 15.724 16.224 15.5 16.5 15.5C16.776 15.5 17 15.724 17 16C17 16.552 17.448 17 18 17C18.552 17 19 16.552 19 16V10.5C19 9.121 17.878 8 16.5 8H10.086C9.047 8 8.105 8.654 7.743 9.628L6.373 12.921C6.295 13.108 6.114 13.229 5.911 13.229C5.845 13.229 5.78 13.216 5.718 13.19C5.596 13.139 5.5 13.043 5.449 12.92C5.398 12.796 5.398 12.661 5.449 12.537L6.812 9.262C7.314 7.913 8.631 7 10.086 7H16.5C18.43 7 20 8.57 20 10.5V16C20 17.103 19.103 18 18 18C17.643 18 17.301 17.907 17 17.733V22C17 23.103 16.103 24 15 24Z" fill="#3E3F42"/>
<path d="M4.5 24C4.224 24 4 23.776 4 23.5V16C4 14.897 4.897 14 6 14C7.103 14 8 14.897 8 16V16.5C8 16.776 7.776 17 7.5 17C7.224 17 7 16.776 7 16.5V16C7 15.448 6.551 15 6 15C5.449 15 5 15.448 5 16V23.5C5 23.776 4.776 24 4.5 24Z" fill="#3E3F42"/>
<path d="M22.4176 3.4094L1.70711 24.1199L0.999999 23.4128L21.7105 2.70229L22.4176 3.4094Z" fill="#3E3F42"/>
</g>
<defs>
<clipPath id="clip0">
<rect width="24" height="24" fill="white"/>
</clipPath>
</defs>
</svg>
