<svg width="24" height="24" viewBox="0 0 24 24" fill="none" xmlns="http://www.w3.org/2000/svg">
<path d="M3.5 20.5C3.91421 20.5 4.25 20.1642 4.25 19.75C4.25 19.3358 3.91421 19 3.5 19C3.08579 19 2.75 19.3358 2.75 19.75C2.75 20.1642 3.08579 20.5 3.5 20.5Z" fill="#3E3F42"/>
<path d="M18.5 23.25C17.673 23.25 17 22.577 17 21.75V4.75002C17 3.09602 15.654 1.75002 14 1.75002C13.667 1.75002 13.341 1.80802 13.03 1.92202C12.321 2.18102 11.755 2.70002 11.437 3.38502C11.119 4.06902 11.086 4.83602 11.345 5.54502C11.996 7.19502 12.385 8.93802 12.498 10.719C12.499 10.742 12.499 10.765 12.498 10.788C12.397 12.234 11.947 13.654 11.195 14.908C12.981 16.341 14 18.458 14 20.75C14 22.128 12.878 23.25 11.5 23.25H3.5C1.57 23.25 0 21.68 0 19.75V15.75C0 14.372 1.121 13.25 2.5 13.25H6.5C6.843 13.25 7.196 13.275 7.55 13.325C7.553 13.325 7.58 13.329 7.583 13.33C8.573 13.473 9.513 13.81 10.374 14.332C11.018 13.238 11.406 12.005 11.499 10.748C11.389 9.08302 11.023 7.45102 10.411 5.89902C10.057 4.93002 10.1 3.88902 10.531 2.96202C10.962 2.03502 11.727 1.33202 12.687 0.981023C13.108 0.827023 13.55 0.749023 13.999 0.749023C16.206 0.749023 18 2.54302 18 4.74902V19.249H20.5C22.43 19.249 24 20.819 24 22.749C24 23.025 23.776 23.249 23.5 23.249H18.5V23.25ZM18 21.75C18 22.026 18.224 22.25 18.5 22.25H22.949C22.714 21.109 21.688 20.25 20.5 20.25H18V21.75ZM11.5 22.25C12.327 22.25 13 21.577 13 20.75C13 20.587 12.993 20.42 12.98 20.25H11C10.244 20.25 9.495 20.056 8.832 19.692C7.779 19.112 7.015 18.157 6.681 17.002C6.42 16.099 6.449 15.137 6.76 14.256C6.672 14.252 6.586 14.25 6.5 14.25H2.5C1.673 14.25 1 14.923 1 15.75V17.305C1.652 16.635 2.545 16.25 3.5 16.25C5.43 16.25 7 17.82 7 19.75C7 20.706 6.615 21.598 5.945 22.25H11.5ZM3.5 17.25C2.121 17.25 1 18.372 1 19.75C1 21.128 2.121 22.25 3.5 22.25C4.879 22.25 6 21.128 6 19.75C6 18.372 4.879 17.25 3.5 17.25ZM7.787 14.38C7.469 15.122 7.417 15.947 7.641 16.724C7.901 17.622 8.495 18.365 9.314 18.816C9.83 19.099 10.413 19.25 11 19.25H12.823C12.242 16.798 10.263 14.88 7.787 14.38Z" fill="#3E3F42"/>
</svg>
