<svg width="24" height="24" viewBox="0 0 24 24" fill="none" xmlns="http://www.w3.org/2000/svg">
<path d="M1.5 24C0.673 24 0 23.327 0 22.5V1.5C0 0.673 0.673 0 1.5 0H22.5C23.327 0 24 0.673 24 1.5V22.5C24 23.327 23.327 24 22.5 24H1.5ZM1 22.5C1 22.776 1.224 23 1.5 23H22.5C22.776 23 23 22.776 23 22.5V7H18.616C18.321 6.998 18.037 6.91 17.795 6.746C16.069 5.601 14.065 4.995 12.001 4.995C9.936 4.995 7.93 5.601 6.202 6.748C5.962 6.911 5.68 6.998 5.388 7H1V22.5ZM12 3.996C14.262 3.996 16.458 4.66 18.351 5.916C18.433 5.97 18.525 5.999 18.62 6H23V1.5C23 1.224 22.776 1 22.5 1H1.5C1.224 1 1 1.224 1 1.5V6H5.384C5.476 5.999 5.566 5.971 5.645 5.918C7.541 4.66 9.738 3.996 12 3.996Z" fill="#3E3F42"/>
<path d="M12 21C8.416 21 5.5 18.084 5.5 14.5C5.5 10.916 8.416 8 12 8C15.584 8 18.5 10.916 18.5 14.5C18.5 18.084 15.584 21 12 21ZM12 9C8.967 9 6.5 11.467 6.5 14.5C6.5 17.533 8.967 20 12 20C15.033 20 17.5 17.533 17.5 14.5C17.5 11.467 15.033 9 12 9Z" fill="#3E3F42"/>
<path d="M20.75 3.75C21.1642 3.75 21.5 3.41421 21.5 3C21.5 2.58579 21.1642 2.25 20.75 2.25C20.3358 2.25 20 2.58579 20 3C20 3.41421 20.3358 3.75 20.75 3.75Z" fill="#3E3F42"/>
<path d="M17.75 3.75C18.1642 3.75 18.5 3.41421 18.5 3C18.5 2.58579 18.1642 2.25 17.75 2.25C17.3358 2.25 17 2.58579 17 3C17 3.41421 17.3358 3.75 17.75 3.75Z" fill="#3E3F42"/>
<path d="M12 19C9.519 19 7.5 16.981 7.5 14.5C7.5 12.019 9.519 10 12 10C14.481 10 16.5 12.019 16.5 14.5C16.5 16.981 14.481 19 12 19ZM12 11C10.07 11 8.5 12.57 8.5 14.5C8.5 16.43 10.07 18 12 18C13.93 18 15.5 16.43 15.5 14.5C15.5 12.57 13.93 11 12 11Z" fill="#3E3F42"/>
</svg>
