<svg width="24" height="24" viewBox="0 0 24 24" fill="none" xmlns="http://www.w3.org/2000/svg">
<g clip-path="url(#clip0)">
<path d="M19.523 10.993C18.696 10.993 18.023 10.32 18.023 9.49304C18.023 9.44404 18.03 9.39504 18.044 9.34804C18.278 8.57304 18.64 7.84904 19.12 7.19704C19.214 7.06904 19.364 6.99304 19.523 6.99304C19.682 6.99304 19.832 7.06904 19.926 7.19704C20.405 7.84904 20.767 8.57304 21.001 9.34804C21.015 9.39504 21.022 9.44404 21.022 9.49304C21.023 10.32 20.35 10.993 19.523 10.993ZM19.027 9.55604C19.058 9.80404 19.269 9.99304 19.523 9.99304C19.777 9.99304 19.988 9.80404 20.019 9.55604C19.893 9.15904 19.726 8.77604 19.523 8.41404C19.319 8.77604 19.153 9.15804 19.027 9.55604Z" fill="#3E3F42"/>
<path d="M12.046 23.992C7.30499 23.992 2.86099 21.469 0.449986 17.406C0.364986 17.261 0.320986 17.097 0.320986 16.932C0.319986 16.415 0.739986 15.993 1.25699 15.992L8.52299 15.993V15.492C8.52299 14.665 7.84999 13.992 7.02299 13.992H4.02299C3.74699 13.992 3.52299 13.768 3.52299 13.492C3.52299 13.216 3.74699 12.992 4.02299 12.992H7.02299C8.40199 12.992 9.52299 14.114 9.52299 15.492V15.993H11.523V4.243C11.524 1.9 13.431 -0.00500488 15.773 -0.00500488C18.116 -0.00400488 20.022 1.902 20.023 4.243V4.993C20.023 5.269 19.799 5.493 19.523 5.493C19.247 5.493 19.023 5.269 19.023 4.993V4.243C19.022 2.453 17.565 0.995995 15.774 0.994995C13.982 0.994995 12.524 2.452 12.523 4.243V15.994H14.523V15.492C14.523 14.114 15.645 12.992 17.023 12.992H20.023C20.299 12.992 20.523 13.216 20.523 13.492C20.523 13.768 20.299 13.992 20.023 13.992H17.023C16.196 13.992 15.523 14.665 15.523 15.492V15.994L22.679 15.995C22.858 15.995 23.035 16.043 23.189 16.135C23.663 16.416 23.821 17.031 23.539 17.505C22.395 19.392 20.791 20.983 18.897 22.107C16.821 23.34 14.452 23.992 12.046 23.992ZM1.36799 16.993C3.61199 20.695 7.69299 22.992 12.045 22.992C14.272 22.992 16.465 22.389 18.386 21.248C20.139 20.207 21.625 18.735 22.681 16.991L1.36799 16.993Z" fill="#3E3F42"/>
</g>
<defs>
<clipPath id="clip0">
<rect width="24" height="24" fill="white"/>
</clipPath>
</defs>
</svg>
