<svg width="24" height="24" viewBox="0 0 24 24" fill="none" xmlns="http://www.w3.org/2000/svg">
<path d="M12.75 12.25C13.1642 12.25 13.5 11.9142 13.5 11.5C13.5 11.0858 13.1642 10.75 12.75 10.75C12.3358 10.75 12 11.0858 12 11.5C12 11.9142 12.3358 12.25 12.75 12.25Z" fill="#3E3F42"/>
<path d="M15.75 12.25C16.1642 12.25 16.5 11.9142 16.5 11.5C16.5 11.0858 16.1642 10.75 15.75 10.75C15.3358 10.75 15 11.0858 15 11.5C15 11.9142 15.3358 12.25 15.75 12.25Z" fill="#3E3F42"/>
<path d="M6.5 24C5.673 24 5 23.327 5 22.5V10.5C5 9.673 5.673 9 6.5 9H9V7.949C7.845 7.715 7 6.699 7 5.5V1.5C7 0.673 7.673 0 8.5 0H15.5C16.327 0 17 0.673 17 1.5V5.5C17 6.699 16.155 7.715 15 7.949V9H17.5C18.327 9 19 9.673 19 10.5V22.5C19 23.327 18.327 24 17.5 24H6.5ZM6 22.5C6 22.776 6.224 23 6.5 23H17.5C17.776 23 18 22.776 18 22.5V22H6V22.5ZM18 21V14H12.5V15C12.5 15.276 12.276 15.5 12 15.5C11.724 15.5 11.5 15.276 11.5 15V14H6V21H9.867L9.504 18.125C9.471 17.86 9.543 17.597 9.707 17.386C9.871 17.175 10.107 17.041 10.373 17.008C10.416 17.003 10.459 17.001 10.5 17C10.501 17 13.501 17 13.501 17C14.053 17 14.501 17.445 14.505 17.992C14.505 18.039 14.503 18.082 14.497 18.124L14.133 21H18ZM13.125 21L13.504 18H10.499L10.875 21H13.125ZM18 13V10.5C18 10.224 17.776 10 17.5 10H6.5C6.224 10 6 10.224 6 10.5V13H18ZM14 9V8H10V9H14ZM8 5.5C8 6.327 8.673 7 9.5 7H14.5C15.327 7 16 6.327 16 5.5V1.5C16 1.224 15.776 1 15.5 1H8.5C8.224 1 8 1.224 8 1.5V2H10C10.276 2 10.5 2.224 10.5 2.5C10.5 2.776 10.276 3 10 3H8V4H10C10.276 4 10.5 4.224 10.5 4.5C10.5 4.776 10.276 5 10 5H8V5.5Z" fill="#3E3F42"/>
</svg>
