<svg width="24" height="24" viewBox="0 0 24 24" fill="none" xmlns="http://www.w3.org/2000/svg">
<path d="M8.5 7C7.673 7 7 6.327 7 5.5V2.5C7 1.121 8.121 0 9.5 0H21.5C21.776 0 22 0.224 22 0.5C22 0.776 21.776 1 21.5 1H9.5C8.673 1 8 1.673 8 2.5V4H11.586C11.795 3.41 12.36 3 13 3H21.5C21.776 3 22 3.224 22 3.5C22 3.776 21.776 4 21.5 4H13C12.724 4 12.5 4.224 12.5 4.5V5.5C12.5 6.327 11.827 7 11 7H8.5ZM8 5.5C8 5.776 8.224 6 8.5 6H11C11.276 6 11.5 5.776 11.5 5.5V5H8V5.5Z" fill="#3E3F42"/>
<path d="M5.75 15.5C6.16421 15.5 6.5 15.1642 6.5 14.75C6.5 14.3358 6.16421 14 5.75 14C5.33579 14 5 14.3358 5 14.75C5 15.1642 5.33579 15.5 5.75 15.5Z" fill="#3E3F42"/>
<path d="M8.25 15.5C8.66421 15.5 9 15.1642 9 14.75C9 14.3358 8.66421 14 8.25 14C7.83579 14 7.5 14.3358 7.5 14.75C7.5 15.1642 7.83579 15.5 8.25 15.5Z" fill="#3E3F42"/>
<path d="M10.75 15.5C11.1642 15.5 11.5 15.1642 11.5 14.75C11.5 14.3358 11.1642 14 10.75 14C10.3358 14 10 14.3358 10 14.75C10 15.1642 10.3358 15.5 10.75 15.5Z" fill="#3E3F42"/>
<path d="M13.25 15.5C13.6642 15.5 14 15.1642 14 14.75C14 14.3358 13.6642 14 13.25 14C12.8358 14 12.5 14.3358 12.5 14.75C12.5 15.1642 12.8358 15.5 13.25 15.5Z" fill="#3E3F42"/>
<path d="M8.25 10.5C8.66421 10.5 9 10.1642 9 9.75C9 9.33579 8.66421 9 8.25 9C7.83579 9 7.5 9.33579 7.5 9.75C7.5 10.1642 7.83579 10.5 8.25 10.5Z" fill="#3E3F42"/>
<path d="M10.75 10.5C11.1642 10.5 11.5 10.1642 11.5 9.75C11.5 9.33579 11.1642 9 10.75 9C10.3358 9 10 9.33579 10 9.75C10 10.1642 10.3358 10.5 10.75 10.5Z" fill="#3E3F42"/>
<path d="M7 13C7.41421 13 7.75 12.6642 7.75 12.25C7.75 11.8358 7.41421 11.5 7 11.5C6.58579 11.5 6.25 11.8358 6.25 12.25C6.25 12.6642 6.58579 13 7 13Z" fill="#3E3F42"/>
<path d="M9.5 13C9.91421 13 10.25 12.6642 10.25 12.25C10.25 11.8358 9.91421 11.5 9.5 11.5C9.08579 11.5 8.75 11.8358 8.75 12.25C8.75 12.6642 9.08579 13 9.5 13Z" fill="#3E3F42"/>
<path d="M12 13C12.4142 13 12.75 12.6642 12.75 12.25C12.75 11.8358 12.4142 11.5 12 11.5C11.5858 11.5 11.25 11.8358 11.25 12.25C11.25 12.6642 11.5858 13 12 13Z" fill="#3E3F42"/>
<path d="M6.19399 24C4.96699 24 3.92999 23.122 3.72799 21.912L2.00699 11.582C1.96199 11.31 2.14599 11.052 2.41799 11.007C2.44499 11.002 2.47299 11 2.50099 11C2.74599 11 2.95199 11.176 2.99299 11.418L4.71399 21.747C4.83499 22.473 5.45799 23 6.19399 23H12.806C13.542 23 14.165 22.473 14.286 21.747L16.007 11.418C16.047 11.176 16.254 11 16.5 11C16.527 11 16.554 11.002 16.582 11.007C16.714 11.029 16.83 11.101 16.907 11.21C16.984 11.319 17.015 11.451 16.993 11.583L15.272 21.912C15.07 23.122 14.033 24 12.806 24H6.19399Z" fill="#3E3F42"/>
</svg>
