<svg width="24" height="24" viewBox="0 0 24 24" fill="none" xmlns="http://www.w3.org/2000/svg">
<g clip-path="url(#clip0)">
<path d="M10.944 6.00195C9.29 6.00195 7.944 4.65595 7.944 3.00195C7.944 1.34795 9.29 0.00195312 10.944 0.00195312C12.598 0.00195312 13.944 1.34795 13.944 3.00195C13.944 4.65595 12.599 6.00195 10.944 6.00195ZM10.944 1.00195C9.841 1.00195 8.944 1.89895 8.944 3.00195C8.944 4.10495 9.841 5.00195 10.944 5.00195C12.047 5.00195 12.944 4.10495 12.944 3.00195C12.944 1.89895 12.047 1.00195 10.944 1.00195Z" fill="#3E3F42"/>
<path d="M19.055 23.003C18.903 23.003 18.751 22.986 18.602 22.951C18.082 22.831 17.639 22.515 17.356 22.062L15.444 19.002H10.944C9.841 19.002 8.944 18.105 8.944 17.002V9.00195C8.944 7.89895 9.841 7.00195 10.944 7.00195C12.047 7.00195 12.944 7.89895 12.944 9.00195V15.002H15.444C16.838 15.003 18.107 15.707 18.837 16.883L20.748 19.942C21.031 20.395 21.121 20.931 21.001 21.452C20.881 21.973 20.565 22.415 20.112 22.698C19.793 22.897 19.428 23.003 19.055 23.003ZM10.944 8.00195C10.393 8.00195 9.944 8.45095 9.944 9.00195V17.002C9.944 17.554 10.393 18.002 10.944 18.002H15.444C15.791 18.002 16.108 18.178 16.292 18.472L18.204 21.531C18.346 21.758 18.567 21.916 18.828 21.976C18.902 21.993 18.979 22.002 19.055 22.002C19.241 22.002 19.423 21.949 19.583 21.85C19.81 21.708 19.968 21.487 20.028 21.227C20.088 20.967 20.043 20.699 19.902 20.472L17.99 17.412C17.442 16.529 16.495 16.002 15.457 16.002H12.946C12.394 16.002 11.946 15.554 11.946 15.002V9.00195C11.944 8.45095 11.496 8.00195 10.944 8.00195Z" fill="#3E3F42"/>
<path d="M9.435 24.0019C8.256 24.0019 7.095 23.6749 6.075 23.0569C4.591 22.1559 3.546 20.7319 3.133 19.0449C2.72 17.3579 2.988 15.6119 3.889 14.1279C4.705 12.7819 5.981 11.7789 7.481 11.3029C7.53 11.2869 7.581 11.2799 7.632 11.2799C7.851 11.2799 8.042 11.4199 8.109 11.6289C8.192 11.8919 8.046 12.1729 7.784 12.2569C6.514 12.6599 5.435 13.5079 4.744 14.6469C3.982 15.9029 3.755 17.3809 4.104 18.8069C4.453 20.2339 5.338 21.4399 6.594 22.2009C7.456 22.7239 8.439 23.0009 9.436 23.0009C9.877 23.0009 10.321 22.9469 10.755 22.8409C12.182 22.4919 13.387 21.6079 14.149 20.3509C14.241 20.1999 14.4 20.1099 14.577 20.1099C14.668 20.1099 14.757 20.1349 14.835 20.1819C15.072 20.3259 15.147 20.6339 15.004 20.8689C14.103 22.3529 12.679 23.3989 10.992 23.8119C10.48 23.9379 9.956 24.0019 9.435 24.0019Z" fill="#3E3F42"/>
</g>
<defs>
<clipPath id="clip0">
<rect width="24" height="24" fill="white"/>
</clipPath>
</defs>
</svg>
