<svg width="24" height="24" viewBox="0 0 24 24" fill="none" xmlns="http://www.w3.org/2000/svg">
<path d="M21.5 22.135C21.224 22.135 21 21.911 21 21.635V15.135H3V21.635C3 21.911 2.776 22.135 2.5 22.135C2.224 22.135 2 21.91 2 21.635V15.135H1.5C0.673 15.135 0 14.462 0 13.635V12.635C0 11.808 0.673 11.135 1.5 11.135H5.566L6.137 7.13501H4.25C3.836 7.13501 3.5 7.47101 3.5 7.88501C3.5 8.29901 3.836 8.63501 4.25 8.63501C4.526 8.63501 4.75 8.85901 4.75 9.13501C4.75 9.41101 4.526 9.63501 4.25 9.63501C3.285 9.63501 2.5 8.85001 2.5 7.88501C2.5 6.92001 3.285 6.13501 4.25 6.13501H6.281L6.502 4.58801C6.527 3.09601 7.756 1.88501 9.25 1.88501C10.744 1.88501 11.973 3.09601 11.998 4.58801L12.219 6.13501H12.852C13.144 6.12701 13.397 5.97201 13.523 5.72101L14.083 4.60201C14.381 4.00601 14.981 3.63501 15.648 3.63501H16.125C16.401 3.63501 16.625 3.85901 16.625 4.13501C16.625 4.41101 16.401 4.63501 16.125 4.63501H15.648C15.362 4.63501 15.105 4.79401 14.977 5.04901L14.417 6.16801C14.119 6.76401 13.52 7.13501 12.853 7.13501H12.362L12.933 11.135H15.258C15.089 10.611 15 10.058 15 9.51701V8.13501C15 7.58401 15.448 7.13501 16 7.13501H19C19.552 7.13501 20 7.58401 20 8.13501V9.51701C20 10.058 19.911 10.611 19.741 11.135H22.5C23.327 11.135 24 11.808 24 12.635V13.635C24 14.462 23.327 15.135 22.5 15.135H22V21.635C22 21.91 21.776 22.135 21.5 22.135ZM1.5 12.135C1.224 12.135 1 12.359 1 12.635V13.635C1 13.911 1.224 14.135 1.5 14.135H22.5C22.776 14.135 23 13.911 23 13.635V12.635C23 12.359 22.776 12.135 22.5 12.135H1.5ZM18.679 11.135C18.889 10.624 19 10.068 19 9.51701V8.13501H16V9.51701C16 10.068 16.111 10.624 16.321 11.135H18.679ZM11.924 11.135L11.067 5.13501H7.434L6.577 11.135H11.924ZM10.926 4.13501C10.709 3.40601 10.033 2.88501 9.25 2.88501C8.467 2.88501 7.792 3.40601 7.574 4.13501H10.926Z" fill="#3E3F42"/>
<path d="M5.5 22.135C4.673 22.135 4 21.462 4 20.635C4 19.808 4.673 19.135 5.5 19.135H9.5C10.327 19.135 11 19.808 11 20.635C11 21.462 10.327 22.135 9.5 22.135H5.5ZM5.5 20.135C5.224 20.135 5 20.359 5 20.635C5 20.911 5.224 21.135 5.5 21.135H9.5C9.776 21.135 10 20.911 10 20.635C10 20.359 9.776 20.135 9.5 20.135H5.5Z" fill="#3E3F42"/>
<path d="M14.5 22.135C13.673 22.135 13 21.462 13 20.635C13 19.808 13.673 19.135 14.5 19.135H18.5C19.327 19.135 20 19.808 20 20.635C20 21.462 19.327 22.135 18.5 22.135H14.5ZM14.5 20.135C14.224 20.135 14 20.359 14 20.635C14 20.911 14.224 21.135 14.5 21.135H18.5C18.776 21.135 19 20.911 19 20.635C19 20.359 18.776 20.135 18.5 20.135H14.5Z" fill="#3E3F42"/>
</svg>
