<svg xmlns="http://www.w3.org/2000/svg" version="1.1" viewBox="0 0 140 140" width="20"><g transform="matrix(10,0,0,10,0,0)"><path d="M8.5.5h-7a1,1,0,0,0-1,1v11a1,1,0,0,0,1,1h11a1,1,0,0,0,1-1v-7Z" fill="none" stroke="currentColor" stroke-linecap="round" stroke-linejoin="round"></path><path d="M8.5,5V.5l5,5H9A.5.5,0,0,1,8.5,5Z" fill="none" stroke="currentColor" stroke-linecap="round" stroke-linejoin="round"></path><path d="M4.5 4.5L4.5 3" fill="none" stroke="currentColor" stroke-linecap="round" stroke-linejoin="round"></path><path d="M3,8.5c0,.75.672,1,1.5,1S6,9.5,6,8.5C6,7,3,7,3,5.5c0-1,.672-1,1.5-1S6,4.879,6,5.5" fill="none" stroke="currentColor" stroke-linecap="round" stroke-linejoin="round"></path><path d="M4.5 9.5L4.5 11" fill="none" stroke="currentColor" stroke-linecap="round" stroke-linejoin="round"></path><path d="M8.5 9.5L11.5 9.5" fill="none" stroke="currentColor" stroke-linecap="round" stroke-linejoin="round"></path></g></svg>
