<svg xmlns="http://www.w3.org/2000/svg" width="140px" height="50px" viewBox="0 0 140 50" version="1.1">
    <g id="Login-illustration" stroke="none" stroke-width="1" fill="none" fill-rule="evenodd">
        <g id="Sign-in-1" transform="translate(-164.000000, -25.000000)">
            <g id="Logo" transform="translate(164.000000, 25.000000)">
                <path d="M25.0445692,14.8911403 C27.7988147,14.8911403 30.3809447,16.0044687 32.26275,17.9385282 C33.0627658,18.7607589 33.0441508,20.0752602 32.2211723,20.874549 C31.3981937,21.6738378 30.0824969,21.6552397 29.2824811,20.833009 C28.1754151,19.6952018 26.6644321,19.0437163 25.0445692,19.0437163 C21.7807889,19.0437163 19.1349722,21.6871288 19.1349722,24.9479434 C19.1349722,26.5769311 19.7957067,28.0956221 20.9477737,29.2031475 C22.0426984,30.25574 23.4939876,30.8521704 25.0445692,30.8521704 C26.5935373,30.8521704 28.0434296,30.2569926 29.1380193,29.2063612 C29.965693,28.4119265 31.2812575,28.4382624 32.0764147,29.265184 C32.871572,30.0921057 32.8452121,31.4064747 32.0175384,32.2009094 C30.1563617,33.987342 27.6778977,35.0047464 25.0445692,35.0047464 C22.4084889,35.0047464 19.927653,33.9852073 18.0659212,32.1954543 C16.107701,30.3129433 14.9786194,27.7177619 14.9786194,24.9479434 C14.9786194,19.3937244 19.4852987,14.8911403 25.0445692,14.8911403 Z M60.708575,19.617887 C63.0196636,19.617887 64.794553,20.1684181 66.0332965,21.2694968 C67.27204,22.3705755 67.8914024,24.0314214 67.8914024,26.2520844 L67.8914024,32.7493323 C67.8914024,33.8674347 66.9850014,34.7738358 65.866899,34.7738358 L65.7021914,34.7738358 C64.6750545,34.7738358 63.8423955,33.9411768 63.8423955,32.9140399 C63.0288923,34.3019543 61.5128409,34.995901 59.2941958,34.995901 C58.1478959,34.995901 57.1541427,34.8015959 56.3129064,34.4129799 C55.4716702,34.0243639 54.8291972,33.4877117 54.3854682,32.8030073 C53.9417392,32.1183029 53.719878,31.3410825 53.719878,30.4713229 C53.719878,29.0834085 54.2421762,27.991599 55.2867882,27.1958614 C56.3314003,26.4001239 57.9445159,26.002261 60.1261836,26.002261 L63.5650662,26.002261 C63.5650662,25.0584793 63.2784955,24.3321483 62.7053456,23.8232464 C62.1321956,23.3143445 61.2724835,23.0598973 60.1261836,23.0598973 C59.3311691,23.0598973 58.5500329,23.1848078 57.7827514,23.4346323 C57.6055276,23.4923359 57.411474,23.5705869 57.2005909,23.6693852 C56.4031989,24.0429554 55.4531673,23.7183738 55.0510584,22.9349857 C54.619591,22.0944015 54.9512458,21.0632 55.79183,20.6317326 C55.8139933,20.6203563 55.8364026,20.6094654 55.8590416,20.5990678 C56.3635611,20.3673596 56.8106664,20.1975937 57.20036,20.0897755 C58.3374156,19.7751816 59.5068089,19.617887 60.708575,19.617887 Z M116.344994,19.617887 C117.805602,19.617887 119.127525,19.9324762 120.310802,20.561664 C121.494079,21.1908519 122.423123,22.0929826 123.097961,23.2680835 C123.367405,23.7372684 123.586557,24.5543795 123.755419,25.7194169 C123.950024,27.0620603 123.019354,28.3082455 121.67671,28.5028494 C121.560018,28.5197629 121.44226,28.5282525 121.324349,28.5282525 L112.739714,28.5282525 C112.943089,29.4535287 113.423789,30.184486 114.181826,30.7211462 C114.939863,31.2578064 115.882773,31.5261325 117.010584,31.5261325 C117.78711,31.5261325 118.475804,31.4104747 119.076687,31.1791557 C119.205038,31.129745 119.34968,31.0586453 119.510614,30.9658568 C120.296265,30.5128841 121.290936,30.6648842 121.905445,31.3318255 C122.437714,31.909509 122.400897,32.8093029 121.823214,33.3415714 C121.744671,33.4139395 121.658227,33.4772309 121.565517,33.5302486 C119.85688,34.5073485 118.301593,34.995901 116.899652,34.995901 C115.21718,34.995901 113.728861,34.6674329 112.434651,34.0104868 C111.140442,33.3535406 110.142066,32.4421572 109.439496,31.2763092 C108.736925,30.1104611 108.385644,28.787336 108.385644,27.306894 C108.385644,25.8449576 108.732303,24.5264587 109.425629,23.3513579 C110.118956,22.1762571 111.07111,21.2602474 112.28212,20.6033012 C113.493131,19.9463551 114.847408,19.617887 116.344994,19.617887 Z M37.7933258,14.17729 C38.9880105,14.17729 39.9564939,15.1457733 39.9564939,16.3404581 L39.9564939,21.3944085 C40.5296439,20.8207372 41.22296,20.3812376 42.0364632,20.0758964 C42.8499664,19.7705553 43.7374111,19.617887 44.698824,19.617887 C46.5476949,19.617887 48.0406357,20.1730444 49.1776913,21.2833759 C50.3147469,22.3937073 50.8832661,24.0406743 50.8832661,26.2243262 L50.8832661,32.6106677 C50.8832661,33.8053525 49.9147828,34.7738358 48.720098,34.7738358 C47.5254133,34.7738358 46.5569299,33.8053525 46.5569299,32.6106677 L46.5569299,26.8905218 C46.5569299,25.7061682 46.2980919,24.8225427 45.780408,24.2396186 C45.2627242,23.6566946 44.5139427,23.365237 43.5340411,23.365237 C42.4432073,23.365237 41.574251,23.7029577 40.9271462,24.3784094 C40.2800414,25.053861 39.9564939,26.0577707 39.9564939,27.3901684 L39.9564939,32.6106677 C39.9564939,33.8053525 38.9880105,34.7738358 37.7933258,34.7738358 C36.598641,34.7738358 35.6301577,33.8053525 35.6301577,32.6106677 L35.6301577,16.3404581 C35.6301577,15.1457733 36.598641,14.17729 37.7933258,14.17729 Z M80.767333,19.617887 C82.6162039,19.617887 84.1091447,20.1730444 85.2462003,21.2833759 C86.3832559,22.3937073 86.9517751,24.0406743 86.9517751,26.2243262 L86.9517751,32.6106677 C86.9517751,33.8053525 85.9832918,34.7738358 84.788607,34.7738358 C83.5939223,34.7738358 82.6254389,33.8053525 82.6254389,32.6106677 L82.6254389,26.8905218 C82.6254389,25.7061682 82.3666009,24.8225427 81.848917,24.2396186 C81.3312332,23.6566946 80.5824517,23.365237 79.6025501,23.365237 C78.5117163,23.365237 77.64276,23.7029577 76.9956552,24.3784094 C76.3485504,25.053861 76.0250029,26.0577707 76.0250029,27.3901684 L76.0250029,32.6106677 C76.0250029,33.8053525 75.0565195,34.7738358 73.8618348,34.7738358 C72.66715,34.7738358 71.6986667,33.8053525 71.6986667,32.6106677 L71.6986667,21.9060551 C71.6986667,20.7649779 72.6236924,19.8399522 73.7647695,19.8399522 L74.0821091,19.8399522 C75.0479244,19.8399522 75.8308724,20.6229002 75.8308724,21.5887155 C76.4040224,20.9595277 77.115827,20.4737649 77.9663076,20.1314127 C78.8167882,19.7890605 79.750454,19.617887 80.767333,19.617887 Z M99.3368575,19.617887 C101.185728,19.617887 102.678669,20.1730444 103.815725,21.2833759 C104.95278,22.3937073 105.5213,24.0406743 105.5213,26.2243262 L105.5213,32.6106677 C105.5213,33.8053525 104.552816,34.7738358 103.358132,34.7738358 C102.163447,34.7738358 101.194963,33.8053525 101.194963,32.6106677 L101.194963,26.8905218 C101.194963,25.7061682 100.936125,24.8225427 100.418442,24.2396186 C99.9007577,23.6566946 99.1519762,23.365237 98.1720746,23.365237 C97.0812408,23.365237 96.2122845,23.7029577 95.5651797,24.3784094 C94.9180749,25.053861 94.5945274,26.0577707 94.5945274,27.3901684 L94.5945274,32.6106677 C94.5945274,33.8053525 93.626044,34.7738358 92.4313593,34.7738358 C91.2366745,34.7738358 90.2681911,33.8053525 90.2681911,32.6106677 L90.2681911,21.9060551 C90.2681911,20.7649779 91.1932169,19.8399522 92.334294,19.8399522 L92.6516336,19.8399522 C93.6174489,19.8399522 94.4003969,20.6229002 94.4003969,21.5887155 C94.9735469,20.9595277 95.6853515,20.4737649 96.5358321,20.1314127 C97.3863127,19.7890605 98.3199785,19.617887 99.3368575,19.617887 Z M128.38418,19.8399522 C129.171127,19.8399522 129.910435,20.2169804 130.372537,20.8539626 L132.798472,24.1979814 L135.306513,20.8294284 C135.770069,20.206827 136.500619,19.8399522 137.276838,19.8399522 L138.345056,19.8399522 C138.975755,19.8399522 139.487038,20.3512345 139.487038,20.9819333 C139.487038,21.2314549 139.405313,21.4741095 139.254361,21.6727916 L135.100304,27.1403451 L139.38903,32.8156929 C139.795796,33.3539726 139.689182,34.1200828 139.150902,34.526848 C138.938811,34.6871206 138.680227,34.7738358 138.414389,34.7738358 L137.223948,34.7738358 C136.430751,34.7738358 135.686366,34.3908293 135.225238,33.7454444 L132.68754,30.1937414 L130.040547,33.7769465 C129.577403,34.4038992 128.844193,34.7738358 128.064724,34.7738358 L126.946824,34.7738358 C126.302662,34.7738358 125.780465,34.2516389 125.780465,33.6074763 C125.780465,33.3517742 125.864493,33.1031575 126.019619,32.8998854 L130.330241,27.2513777 L126.237624,21.7827638 C125.835602,21.2455764 125.945175,20.4841969 126.482362,20.0821751 C126.692473,19.9249317 126.947852,19.8399522 127.210287,19.8399522 L128.38418,19.8399522 Z M63.5650662,28.5282525 L60.5976433,28.5282525 C58.8227272,28.5282525 57.9352825,29.1111678 57.9352825,30.2770158 C57.9352825,30.8321816 58.1525216,31.2716812 58.5870063,31.5955279 C59.0214909,31.9193746 59.6177428,32.0812955 60.3757799,32.0812955 C61.1153282,32.0812955 61.7716676,31.9101219 62.3448175,31.5677697 C62.9179675,31.2254175 63.324713,30.7211495 63.5650662,30.0549507 L63.5650662,28.5282525 Z M116.372727,22.8933485 C115.392825,22.8933485 114.57009,23.1709272 113.904496,23.7260929 C113.238903,24.2812586 112.832157,25.0399738 112.684248,26.002261 L120.033473,26.002261 C119.885563,25.0584793 119.478818,24.3043905 118.813224,23.739972 C118.147631,23.1755535 117.33414,22.8933485 116.372727,22.8933485 Z" id="Combined-Shape" fill="#475471"/>
                <path d="M5.15558476,22.0775025 C4.94530361,23.4946042 3.62709304,24.4727705 2.21127905,24.2622981 C0.795465066,24.0518257 -0.181812392,22.7324162 0.0284687579,21.3153145 C1.83644802,9.13119594 12.3032853,0 24.704674,0 C29.5839553,0 34.2612603,1.41031177 38.2688677,4.01897256 C39.4687854,4.80003163 39.8089127,6.40681526 39.0285633,7.60782424 C38.248214,8.80883322 36.6428905,9.14926989 35.4429728,8.36821082 C32.2699899,6.30282982 28.5728899,5.18807172 24.704674,5.18807172 C14.8834668,5.18807172 6.5878911,12.4250741 5.15558476,22.0775025 Z" id="Combined-Shape" fill="#2482D1"/>
                <path d="M23.31075,44.4003493 C24.7392377,44.4908217 25.8239801,45.7232353 25.7335899,47.1530222 C25.6431997,48.5828091 24.411906,49.6685381 22.9834183,49.5780657 C11.9892924,48.8817597 2.77527605,41.0591082 0.27876375,30.4646645 C-0.0498145943,29.0702773 0.813167028,27.6732955 2.20628715,27.3444183 C3.59940728,27.0155411 4.99511965,27.8793076 5.323698,29.2736948 C7.29732279,37.649162 14.5994436,43.8486242 23.31075,44.4003493 Z" id="Combined-Shape" fill="#06BB24"/>
                <path d="M35.4376653,41.5923443 C36.634364,40.8063532 38.2410726,41.1401798 39.0263495,42.3379669 C39.8116263,43.5357539 39.478103,45.1439239 38.2814044,45.9299149 C36.2936182,47.2354919 34.0925492,48.1845193 31.7673325,48.7268637 C30.3733374,49.0520055 28.9799411,48.1845011 28.6550947,46.7892381 C28.3302482,45.3939752 29.1969644,43.9993116 30.5909595,43.6741697 C32.3194005,43.2710201 33.9565684,42.565128 35.4376653,41.5923443 Z" id="Combined-Shape" fill="#E7A11B"/>
            </g>
        </g>
    </g>
</svg>
