<svg width="24" height="24" viewBox="0 0 24 24" fill="none" xmlns="http://www.w3.org/2000/svg">
<path d="M4 23.348C3.449 23.348 3 22.9 3 22.348V11.848C3 11.572 3.224 11.348 3.5 11.348C3.776 11.348 4 11.572 4 11.848V22.348H13C13.276 22.348 13.5 22.572 13.5 22.848C13.5 23.124 13.276 23.348 13 23.348H4Z" fill="#3E3F42"/>
<path d="M0.500009 11.848C0.360009 11.848 0.225009 11.789 0.131009 11.685C0.0410091 11.587 -0.00499094 11.459 0.00100906 11.325C0.00700906 11.192 0.0650091 11.069 0.163009 10.978L11.093 0.99802C11.343 0.77002 11.665 0.64502 12 0.64502C12.335 0.64502 12.657 0.77002 12.906 0.99702L23.836 10.978C23.935 11.068 23.992 11.191 23.999 11.325C24.006 11.459 23.959 11.586 23.868 11.685C23.774 11.788 23.639 11.848 23.499 11.848C23.374 11.848 23.254 11.801 23.162 11.717L12.232 1.73702C12.169 1.67902 12.086 1.64602 12 1.64602C11.914 1.64602 11.831 1.67802 11.766 1.73702L0.837009 11.717C0.745009 11.801 0.625009 11.848 0.500009 11.848Z" fill="#3E3F42"/>
<path d="M11 9.34802C10.449 9.34802 10 8.89902 10 8.34802V6.34802C10 5.79702 10.449 5.34802 11 5.34802H13C13.552 5.34802 14 5.79702 14 6.34802V8.34802C14 8.89902 13.552 9.34802 13 9.34802H11ZM11 8.34802H13V6.34802H11V8.34802Z" fill="#3E3F42"/>
<path d="M16.37 22.167C16.291 22.167 16.211 22.157 16.132 22.138C15.812 22.06 15.551 21.83 15.434 21.523L12.113 12.792C12.018 12.543 12.026 12.271 12.135 12.027C12.244 11.783 12.442 11.597 12.692 11.502C12.805 11.459 12.925 11.436 13.047 11.436C13.168 11.436 13.286 11.457 13.399 11.5L22.175 14.79C22.426 14.884 22.624 15.07 22.734 15.314C22.844 15.557 22.853 15.829 22.759 16.079C22.644 16.386 22.384 16.617 22.066 16.697L18.259 17.649L17.34 21.405C17.277 21.665 17.116 21.884 16.888 22.022C16.73 22.117 16.551 22.167 16.37 22.167ZM16.368 21.167L17.359 17.117C17.404 16.936 17.543 16.796 17.724 16.751L21.824 15.726L13.048 12.436L16.368 21.167Z" fill="#3E3F42"/>
</svg>
