<svg width="24" height="24" viewBox="0 0 24 24" fill="none" xmlns="http://www.w3.org/2000/svg">
<path d="M4 23.4099C3.449 23.4099 3 22.9619 3 22.4099V11.9099C3 11.6339 3.224 11.4099 3.5 11.4099C3.776 11.4099 4 11.6339 4 11.9099V22.4099H12.5C12.776 22.4099 13 22.6339 13 22.9099C13 23.1859 12.776 23.4099 12.5 23.4099H4Z" fill="#3E3F42"/>
<path d="M0.500003 11.911C0.360003 11.911 0.225003 11.852 0.131003 11.749C-0.0549975 11.545 -0.0409975 11.228 0.163003 11.042L10.99 1.15696C11.269 0.902963 11.628 0.761963 12.001 0.761963C12.375 0.761963 12.734 0.901963 13.013 1.15696L22.783 10.078C22.882 10.168 22.939 10.291 22.946 10.425C22.953 10.559 22.906 10.686 22.815 10.785C22.721 10.888 22.586 10.948 22.446 10.948C22.321 10.948 22.201 10.901 22.109 10.817L12.339 1.89596C12.245 1.81096 12.126 1.76396 12.001 1.76396C11.877 1.76396 11.757 1.81096 11.664 1.89596L0.837003 11.78C0.744003 11.864 0.625003 11.911 0.500003 11.911Z" fill="#3E3F42"/>
<path d="M11.001 9.41101C10.45 9.41101 10.001 8.96201 10.001 8.41101V6.41101C10.001 5.86001 10.45 5.41101 11.001 5.41101H13.001C13.553 5.41101 14.001 5.86001 14.001 6.41101V8.41101C14.001 8.96201 13.553 9.41101 13.001 9.41101H11.001ZM11.001 8.41101H13.001V6.41101H11.001V8.41101Z" fill="#3E3F42"/>
<path d="M17.748 18.3779C16.68 18.3779 15.811 17.5089 15.811 16.4409C15.811 15.3729 16.68 14.5039 17.748 14.5039C18.816 14.5039 19.685 15.3729 19.685 16.4409C19.685 17.5089 18.816 18.3779 17.748 18.3779ZM17.748 15.5039C17.231 15.5039 16.811 15.9239 16.811 16.4409C16.811 16.9579 17.231 17.3779 17.748 17.3779C18.265 17.3779 18.685 16.9579 18.685 16.4409C18.685 15.9239 18.264 15.5039 17.748 15.5039Z" fill="#3E3F42"/>
<path d="M17.747 23.411C17.575 23.411 17.404 23.386 17.237 23.336C16.664 23.164 16.22 22.719 16.048 22.147L15.622 20.758C15.565 20.567 15.387 20.435 15.189 20.435C15.155 20.435 15.121 20.439 15.088 20.446L13.678 20.773C13.546 20.803 13.412 20.818 13.279 20.818C12.945 20.818 12.617 20.723 12.332 20.543C11.929 20.29 11.65 19.894 11.544 19.43C11.413 18.854 11.576 18.252 11.979 17.819L12.965 16.756C13.127 16.58 13.127 16.305 12.965 16.129L11.979 15.066C11.308 14.351 11.344 13.221 12.061 12.548C12.393 12.237 12.826 12.065 13.28 12.065C13.415 12.065 13.55 12.08 13.681 12.111L15.093 12.438C15.127 12.446 15.161 12.45 15.195 12.45C15.392 12.45 15.569 12.318 15.625 12.128L16.049 10.734C16.273 9.99202 16.972 9.47302 17.748 9.47302C17.921 9.47302 18.093 9.49902 18.26 9.54902C18.832 9.72102 19.276 10.166 19.448 10.738L19.872 12.129C19.929 12.319 20.108 12.452 20.307 12.452C20.341 12.452 20.375 12.448 20.408 12.441L21.817 12.114C21.949 12.084 22.082 12.069 22.214 12.069C22.55 12.069 22.879 12.165 23.164 12.345C23.567 12.6 23.846 12.996 23.951 13.46C24.081 14.034 23.918 14.635 23.517 15.067L22.531 16.13C22.369 16.306 22.369 16.581 22.531 16.757L23.517 17.821C24.186 18.538 24.147 19.668 23.429 20.338C23.097 20.648 22.666 20.818 22.214 20.818C22.081 20.818 21.947 20.803 21.818 20.773L20.406 20.446C20.372 20.438 20.339 20.434 20.305 20.434C20.107 20.434 19.93 20.566 19.873 20.756L19.449 22.149C19.224 22.891 18.524 23.41 17.747 23.411ZM15.188 19.433C15.824 19.433 16.396 19.858 16.579 20.466L17.005 21.855C17.081 22.107 17.275 22.302 17.525 22.376C17.598 22.398 17.673 22.409 17.748 22.409C18.087 22.409 18.392 22.182 18.49 21.857L18.915 20.464C19.098 19.857 19.67 19.433 20.306 19.433C20.415 19.433 20.524 19.445 20.63 19.47L22.042 19.797C22.098 19.81 22.156 19.816 22.214 19.816C22.412 19.816 22.601 19.741 22.747 19.606C22.899 19.464 22.987 19.27 22.995 19.061C23.002 18.852 22.928 18.653 22.786 18.5L21.798 17.434C21.283 16.877 21.283 16.005 21.798 15.449L22.785 14.385C22.962 14.195 23.034 13.931 22.977 13.678C22.931 13.474 22.809 13.3 22.632 13.188C22.506 13.108 22.362 13.067 22.215 13.067C22.157 13.067 22.098 13.073 22.041 13.086L20.633 13.413C20.526 13.437 20.417 13.45 20.309 13.45C19.672 13.45 19.099 13.025 18.916 12.417C18.916 12.417 18.491 11.023 18.491 11.021C18.415 10.773 18.222 10.58 17.973 10.505C17.9 10.483 17.825 10.472 17.75 10.472C17.411 10.472 17.105 10.699 17.007 11.024L16.583 12.417C16.4 13.024 15.828 13.448 15.191 13.448C15.083 13.448 14.975 13.436 14.869 13.412L13.457 13.085C13.399 13.072 13.34 13.065 13.28 13.065C13.081 13.065 12.891 13.14 12.745 13.277C12.593 13.42 12.505 13.614 12.499 13.823C12.492 14.032 12.567 14.231 12.71 14.384L13.699 15.45C14.214 16.007 14.214 16.879 13.699 17.435L12.711 18.5C12.533 18.691 12.461 18.955 12.519 19.208C12.565 19.412 12.688 19.585 12.865 19.697C12.99 19.776 13.134 19.818 13.28 19.818C13.338 19.818 13.397 19.811 13.455 19.798L14.864 19.471C14.97 19.446 15.079 19.433 15.188 19.433Z" fill="#3E3F42"/>
</svg>
