<svg width="24" height="24" viewBox="0 0 24 24" fill="none" xmlns="http://www.w3.org/2000/svg">
<path d="M9.49901 23.774C4.47501 23.774 0.310013 19.845 0.0160127 14.829C1.27319e-05 14.563 0.0880127 14.307 0.266013 14.107C0.444013 13.907 0.688013 13.788 0.955013 13.772C0.970013 13.771 0.992013 13.77 1.01501 13.77H6.00001V13.274C6.00001 12.447 6.67301 11.774 7.50001 11.774H12.5C13.327 11.774 14 12.447 14 13.274V13.774H20.999V2.73598C21 2.36498 20.865 2.00998 20.62 1.73398C20.354 1.43498 19.987 1.25698 19.587 1.23298C19.558 1.23098 19.528 1.23098 19.499 1.23098C19.126 1.23098 18.781 1.36198 18.502 1.60998L17.962 2.15098C18.753 3.28298 18.621 4.86498 17.621 5.84498C17.621 5.84498 17.407 6.05998 17.402 6.06398C17.225 6.23898 16.976 6.34098 16.712 6.34098C16.444 6.34098 16.193 6.23598 16.004 6.04698L13.36 3.40198C12.97 3.01198 12.97 2.37798 13.36 1.98798L13.602 1.74598C14.143 1.21698 14.856 0.92598 15.612 0.92598C16.202 0.92598 16.778 1.10798 17.257 1.44198L17.817 0.88198C18.292 0.45798 18.886 0.22998 19.501 0.22998C19.549 0.22998 19.597 0.23098 19.646 0.23398C20.313 0.27298 20.925 0.56998 21.368 1.06898C21.777 1.52898 22.002 2.12098 22 2.73698V13.773H22.987C23.539 13.773 23.987 14.221 23.988 14.771C23.988 14.794 23.987 14.817 23.986 14.839C23.691 19.846 19.526 23.772 14.504 23.772H9.49901V23.774ZM1.02301 14.77C1.01401 14.771 1.01001 14.772 1.01001 14.772C1.27601 19.258 5.00401 22.773 9.49901 22.773H14.5C18.994 22.773 22.721 19.259 22.986 14.774H14V18.774C14 19.326 13.552 19.774 13 19.774H7.00001C6.44901 19.774 6.00001 19.326 6.00001 18.774V14.77H1.02301ZM7.50001 12.774C7.22401 12.774 7.00001 12.998 7.00001 13.274V18.774H13V13.274C13 12.998 12.776 12.774 12.5 12.774H7.50001V12.774ZM15.612 1.92598C15.119 1.92598 14.655 2.11498 14.304 2.45898L14.068 2.69598L16.712 5.34098L16.916 5.13698C17.632 4.43598 17.674 3.31998 17.023 2.57198C16.984 2.54998 16.948 2.52298 16.916 2.49098C16.885 2.45998 16.858 2.42398 16.836 2.38598C16.495 2.08798 16.062 1.92598 15.612 1.92598Z" fill="#3E3F42"/>
<path d="M9.59202 4.69296C9.39802 4.69296 9.21902 4.57896 9.13802 4.40196C9.02302 4.15196 9.13302 3.85396 9.38302 3.73896L11.199 2.90196C11.264 2.87196 11.335 2.85596 11.408 2.85596C11.603 2.85596 11.781 2.96996 11.862 3.14696C11.977 3.39696 11.867 3.69496 11.617 3.80996L9.80102 4.64696C9.73502 4.67796 9.66502 4.69296 9.59202 4.69296Z" fill="#3E3F42"/>
<path d="M15.107 10.194C15.039 10.194 14.973 10.18 14.91 10.154C14.787 10.102 14.692 10.004 14.643 9.88096C14.594 9.75796 14.594 9.62096 14.647 9.49796L15.433 7.65896C15.513 7.47396 15.693 7.35596 15.893 7.35596C15.961 7.35596 16.027 7.36896 16.089 7.39596C16.343 7.50396 16.461 7.79896 16.353 8.05196L15.567 9.89096C15.488 10.075 15.307 10.194 15.107 10.194Z" fill="#3E3F42"/>
<path d="M11.789 7.97802C11.654 7.97802 11.528 7.92502 11.434 7.83002C11.24 7.63402 11.242 7.31702 11.438 7.12302L12.86 5.71602C12.954 5.62302 13.079 5.57202 13.211 5.57202C13.346 5.57202 13.472 5.62502 13.567 5.72002C13.761 5.91602 13.759 6.23302 13.563 6.42702L12.14 7.83402C12.046 7.92702 11.921 7.97802 11.789 7.97802Z" fill="#3E3F42"/>
</svg>
