<svg width="24" height="24" viewBox="0 0 24 24" fill="none" xmlns="http://www.w3.org/2000/svg">
<path d="M4 5C2.621 5 1.5 3.879 1.5 2.5C1.5 1.121 2.621 0 4 0C5.379 0 6.5 1.121 6.5 2.5C6.5 3.879 5.379 5 4 5ZM4 1C3.173 1 2.5 1.673 2.5 2.5C2.5 3.327 3.173 4 4 4C4.827 4 5.5 3.327 5.5 2.5C5.5 1.673 4.827 1 4 1Z" fill="#3E3F42"/>
<path d="M6 23.9999C5.866 23.9999 5.741 23.9479 5.646 23.8539L4 22.2069V23.4999C4 23.7759 3.776 23.9999 3.5 23.9999C3.224 23.9999 3 23.7759 3 23.4999V22.2069L1.354 23.8529C1.259 23.9479 1.134 23.9999 1 23.9999C0.866 23.9999 0.741 23.9479 0.646 23.8539C0.551 23.7599 0.5 23.6339 0.5 23.4999C0.5 23.3659 0.552 23.2409 0.646 23.1459L3 20.7929V16.9999H1.5C0.673 16.9999 0 16.3269 0 15.4999V10.9999C0 10.7239 0.224 10.4999 0.5 10.4999C0.776 10.4999 1 10.7239 1 10.9999V15.4999C1 15.7759 1.224 15.9999 1.5 15.9999H2.768C2.279 15.4549 2 14.7439 2 13.9999V7.99995C1.998 6.89795 2.893 5.99895 3.996 5.99695C4.378 5.99695 4.747 6.10395 5.067 6.30495L7.602 7.89095C8.236 8.28995 8.968 8.49995 9.717 8.49995H10.5C11.603 8.49995 12.5 9.39695 12.5 10.4999C12.5 11.6029 11.603 12.4999 10.5 12.4999H9.721C8.423 12.4999 7.145 12.1839 6 11.5819V12.9999H8.28C9.081 12.9999 9.835 13.3119 10.401 13.8789C10.968 14.4459 11.28 15.1989 11.279 15.9999C11.279 16.1969 11.259 16.3949 11.221 16.5889L10.461 20.3889C10.277 21.3219 9.452 21.9999 8.5 21.9999C7.397 21.9999 6.5 21.1039 6.499 20.0009C6.499 19.8689 6.512 19.7369 6.538 19.6069L7.06 16.9999H4V20.7929L6.354 23.1469C6.448 23.2409 6.5 23.3659 6.5 23.4999C6.5 23.6339 6.448 23.7589 6.354 23.8539C6.26 23.9489 6.134 23.9999 6 23.9999ZM3.998 6.99695C3.731 6.99695 3.48 7.10195 3.292 7.29095C3.103 7.48095 2.999 7.73195 3 7.99895V13.9999C3 15.1029 3.897 15.9999 5 15.9999H7.67C7.82 15.9999 7.961 16.0669 8.057 16.1829C8.153 16.2989 8.19 16.4509 8.161 16.5989L7.519 19.8049C7.505 19.8689 7.499 19.9349 7.499 19.9999C7.499 20.5519 7.948 20.9999 8.499 20.9999C8.976 20.9999 9.388 20.6609 9.48 20.1939L10.24 16.3929C10.266 16.2639 10.279 16.1319 10.279 15.9999C10.279 15.4659 10.071 14.9639 9.693 14.5859C9.315 14.2079 8.814 13.9999 8.28 13.9999H5.5C5.224 13.9999 5 13.7759 5 13.4999V10.7059C5 10.5239 5.099 10.3569 5.258 10.2679C5.332 10.2269 5.416 10.2049 5.5 10.2049C5.594 10.2049 5.686 10.2309 5.766 10.2819L6.011 10.4359C7.125 11.1319 8.408 11.4999 9.721 11.4999H10.5C11.051 11.4999 11.5 11.0509 11.5 10.4999C11.5 9.94895 11.051 9.49995 10.5 9.49995H9.721C8.779 9.49995 7.864 9.23695 7.07 8.73895L4.535 7.15195C4.374 7.04995 4.189 6.99695 4 6.99695L3.997 6.74695L3.998 6.99695Z" fill="#3E3F42"/>
<path d="M18.5 24C18.224 24 18 23.776 18 23.5C18 23.224 18.224 23 18.5 23H20V15H15C14.173 15 13.5 14.327 13.5 13.5C13.5 12.673 14.173 12 15 12H15.41L15.007 9.582C14.983 9.437 15.023 9.289 15.119 9.176C15.213 9.064 15.353 9 15.5 9H18.5C18.647 9 18.787 9.064 18.882 9.177C18.977 9.289 19.018 9.437 18.994 9.583L18.59 12H20V8.914C20 8.867 20.007 8.82 20.02 8.774L21.02 5.359C21.082 5.148 21.28 5 21.5 5H22.5C22.72 5 22.918 5.148 22.98 5.359L23.98 8.773C23.993 8.82 24 8.867 24 8.914V12.5C24 12.776 23.776 13 23.5 13H15C14.724 13 14.5 13.224 14.5 13.5C14.5 13.776 14.724 14 15 14H23.5C23.776 14 24 14.224 24 14.5C24 14.776 23.776 15 23.5 15H21V23H22.5C22.776 23 23 23.224 23 23.5C23 23.776 22.776 24 22.5 24H18.5ZM23 12V8.986L22.125 6H21.874L21 8.986V12H23ZM17.576 12L17.909 10H16.09L16.423 12H17.576Z" fill="#3E3F42"/>
</svg>
