<svg width="24" height="24" viewBox="0 0 24 24" fill="none" xmlns="http://www.w3.org/2000/svg">
<path d="M20.5 24C20.224 24 20 23.776 20 23.5V0.5C20 0.224 20.224 0 20.5 0C22.7 0 23.946 8.709 24 14.996C24 15.551 23.552 16 23 16H21V23.5C21 23.776 20.776 24 20.5 24ZM23 15C22.969 11.42 22.603 7.749 21.994 4.931C21.629 3.244 21.271 2.274 21 1.722V15H23Z" fill="#3E3F42"/>
<path d="M3.501 24C3.225 24 3.001 23.776 3.001 23.5V8.961C1.301 8.716 0 7.239 0 5.5V0.5C0 0.224 0.224 0 0.5 0C0.776 0 1 0.224 1 0.5V5.5C1 6.688 1.859 7.714 3.001 7.948V0.5C3.001 0.224 3.225 0 3.501 0C3.777 0 4.001 0.224 4.001 0.5V7.948C5.142 7.713 6 6.687 6 5.5V0.5C6 0.224 6.224 0 6.5 0C6.776 0 7 0.224 7 0.5V5.5C7 7.238 5.7 8.715 4.001 8.961V23.5C4.001 23.776 3.777 24 3.501 24Z" fill="#3E3F42"/>
<path d="M12.001 23C8.14098 23 5.00098 19.86 5.00098 16C5.00098 12.14 8.14098 9 12.001 9C15.861 9 19.001 12.14 19.001 16C19.001 19.86 15.861 23 12.001 23ZM12.001 10C8.69298 10 6.00098 12.692 6.00098 16C6.00098 19.308 8.69298 22 12.001 22C15.309 22 18.001 19.308 18.001 16C18.001 12.692 15.309 10 12.001 10Z" fill="#3E3F42"/>
</svg>
