<svg width="24" height="24" viewBox="0 0 24 24" fill="none" xmlns="http://www.w3.org/2000/svg">
<g clip-path="url(#clip0)">
<path d="M7.5 9.99902C5.846 9.99902 4.5 8.65302 4.5 6.99902C4.5 5.34502 5.846 3.99902 7.5 3.99902C9.154 3.99902 10.5 5.34502 10.5 6.99902C10.5 8.65302 9.154 9.99902 7.5 9.99902ZM7.5 4.99902C6.397 4.99902 5.5 5.89602 5.5 6.99902C5.5 8.10202 6.397 8.99902 7.5 8.99902C8.603 8.99902 9.5 8.10202 9.5 6.99902C9.5 5.89602 8.603 4.99902 7.5 4.99902Z" fill="#3E3F42"/>
<path d="M14.953 24C14.695 24 14.476 23.799 14.455 23.541L14.236 20.913C14.189 20.396 13.759 20.002 13.237 19.999H10.352C8.301 19.99 6.592 18.447 6.374 16.409L6.028 13.325C5.935 12.829 6.049 12.304 6.352 11.863C6.655 11.423 7.111 11.127 7.636 11.029C7.758 11.006 7.881 10.995 8.004 10.995C8.408 10.995 8.798 11.117 9.134 11.348C9.574 11.651 9.87 12.107 9.967 12.633L10.33 15.821C10.337 15.861 10.347 15.924 10.352 15.999L13.239 15.996C15.849 16.01 17.991 17.98 18.222 20.578L18.461 23.446C18.472 23.579 18.431 23.708 18.345 23.81C18.259 23.912 18.138 23.974 18.005 23.985C17.993 23.986 17.975 23.987 17.958 23.987C17.698 23.987 17.487 23.789 17.465 23.528L17.226 20.663C17.041 18.584 15.326 17.007 13.236 16.996H10.352C9.831 16.996 9.393 16.59 9.353 16.072C9.35 16.03 9.345 15.998 9.339 15.961L8.977 12.779C8.933 12.548 8.782 12.32 8.565 12.171C8.397 12.055 8.202 11.994 8.001 11.994C7.94 11.994 7.878 12 7.817 12.011C7.553 12.06 7.325 12.208 7.174 12.428C7.023 12.648 6.966 12.914 7.015 13.177L7.366 16.299C7.53 17.831 8.814 18.991 10.352 18.998H13.237C14.279 19.003 15.135 19.789 15.23 20.825L15.449 23.457C15.46 23.59 15.419 23.719 15.333 23.822C15.247 23.924 15.126 23.986 14.993 23.997C14.988 23.999 14.959 24 14.953 24Z" fill="#3E3F42"/>
<path d="M12.75 24C12.499 24 12.285 23.812 12.254 23.562L12.059 22H8.745C6.629 22 4.778 20.497 4.342 18.427L3.65 14.415C3.609 14.175 3.402 14 3.158 14H1.5C1.224 14 1 13.776 1 13.5C1 13.224 1.224 13 1.5 13H3.158C3.89 13 4.511 13.524 4.636 14.245L5.324 18.239C5.66 19.835 7.1 21 8.745 21H12.5C12.752 21 12.965 21.188 12.996 21.438L13.246 23.438C13.263 23.571 13.226 23.701 13.144 23.807C13.062 23.912 12.944 23.98 12.811 23.996C12.79 23.999 12.77 24 12.75 24Z" fill="#3E3F42"/>
<path d="M16 8.00005C15.448 8.00005 15 7.55105 15 7.00005V6.50005C15 4.48205 16.519 2.78405 18.5 2.53605V0.498047C18.5 0.222047 18.724 -0.00195312 19 -0.00195312C19.276 -0.00195312 19.5 0.222047 19.5 0.498047V2.53605C21.481 2.78405 23 4.48205 23 6.50005V7.00005C23 7.55105 22.552 8.00005 22 8.00005H16ZM19 3.50005C17.346 3.50005 16 4.84605 16 6.50005V7.00005H22V6.50005C22 4.84605 20.654 3.50005 19 3.50005Z" fill="#3E3F42"/>
</g>
<defs>
<clipPath id="clip0">
<rect width="24" height="24" fill="white"/>
</clipPath>
</defs>
</svg>
