<svg width="24" height="24" viewBox="0 0 24 24" fill="none" xmlns="http://www.w3.org/2000/svg">
<g clip-path="url(#clip0)">
<path d="M15.5 6C13.846 6 12.5 4.654 12.5 3C12.5 1.346 13.846 0 15.5 0C17.154 0 18.5 1.346 18.5 3C18.5 4.654 17.154 6 15.5 6ZM15.5 1C14.397 1 13.5 1.897 13.5 3C13.5 4.103 14.397 5 15.5 5C16.603 5 17.5 4.103 17.5 3C17.5 1.897 16.602 1 15.5 1Z" fill="#3E3F42"/>
<path d="M20.025 24.027C19.958 24.027 19.89 24.024 19.822 24.017C19.29 23.963 18.811 23.706 18.473 23.293L16.203 20.645C15.427 19.739 14.999 18.583 14.999 17.391V17.329L14.291 18.037C14.104 18.223 13.998 18.48 13.999 18.743V22C13.999 23.103 13.102 24 11.999 24C10.896 24 9.99903 23.103 9.99903 22V18.743C9.99503 17.427 10.528 16.139 11.461 15.21L12.996 13.675V12.98C12.298 13.334 11.526 13.519 10.74 13.519C9.96803 13.519 9.19403 13.336 8.50303 12.99L8.10303 12.79C7.23403 12.356 6.80803 11.342 7.08303 10.425L4.82303 8.16403C4.45203 8.39203 4.01403 8.51203 3.54003 8.51203C2.67003 8.51203 1.77603 8.11703 1.08703 7.42803C0.494027 6.83603 0.117027 6.09303 0.0230271 5.33603C-0.0769729 4.53303 0.150027 3.80903 0.662027 3.29703C1.09503 2.86403 1.67403 2.63403 2.33603 2.63403C2.45603 2.63403 2.57903 2.64203 2.70103 2.65703C3.45803 2.75103 4.20103 3.12903 4.79303 3.72103C5.89603 4.82403 6.19203 6.38903 5.53003 7.45803L7.62103 9.54903C7.83203 9.34903 8.08503 9.19703 8.36403 9.10303C8.57003 9.03503 8.78403 9.00003 8.99903 9.00003C9.31003 9.00003 9.61003 9.07103 9.89103 9.21203L10.291 9.41203C10.43 9.48103 10.584 9.51803 10.739 9.51803C10.945 9.51803 11.143 9.45503 11.313 9.33703L13.827 7.58003C14.66 6.99903 15.682 6.67903 16.706 6.67903C17.003 6.67903 17.3 6.70603 17.589 6.75803L17.736 6.78503C20.415 7.26903 23.186 7.77103 23.961 11.609C23.964 11.625 23.967 11.641 23.968 11.658C24.056 12.166 23.947 12.681 23.661 13.111C23.364 13.555 22.912 13.857 22.388 13.962C22.257 13.987 22.124 14 21.993 14C21.599 14 21.216 13.883 20.886 13.663C20.442 13.366 20.139 12.914 20.035 12.39L19.935 11.89C19.855 11.485 19.542 11.176 19.137 11.103L19 11.078V17.39C19 17.629 19.085 17.86 19.241 18.042C19.241 18.042 21.55 20.735 21.57 20.76C22.269 21.615 22.142 22.878 21.289 23.576C20.926 23.871 20.49 24.027 20.025 24.027ZM15.5 15.621C15.566 15.621 15.631 15.634 15.692 15.659C15.878 15.737 16 15.918 16 16.121V17.39C16 18.344 16.342 19.269 16.963 19.994L19.241 22.651C19.438 22.891 19.722 23.026 20.025 23.026C20.258 23.026 20.475 22.948 20.655 22.801C21.082 22.452 21.145 21.821 20.796 21.394L18.481 18.692C18.17 18.33 17.999 17.867 18 17.39V10.48C18 10.331 18.065 10.191 18.18 10.096C18.27 10.021 18.384 9.98003 18.501 9.98003C18.531 9.98003 18.56 9.98303 18.59 9.98803L19.317 10.12C20.13 10.266 20.759 10.885 20.918 11.697L21.017 12.195C21.069 12.457 21.221 12.684 21.443 12.832C21.607 12.942 21.798 13 21.994 13C22.06 13 22.127 12.993 22.192 12.98C22.454 12.928 22.68 12.777 22.829 12.554C22.977 12.332 23.03 12.065 22.978 11.803C22.975 11.791 22.973 11.778 22.972 11.764C22.321 8.62803 20.219 8.24803 17.558 7.76703L17.41 7.74103C17.179 7.69903 16.942 7.67803 16.705 7.67803C15.884 7.67803 15.066 7.93403 14.4 8.39903L11.886 10.156C11.548 10.393 11.151 10.518 10.739 10.518C10.43 10.518 10.121 10.445 9.84403 10.306L9.44403 10.106C9.30303 10.036 9.15303 10 8.99803 10C8.89103 10 8.78403 10.018 8.68003 10.052C8.42603 10.137 8.22103 10.315 8.10203 10.554C7.98303 10.793 7.96403 11.064 8.04903 11.318C8.13403 11.572 8.31203 11.777 8.55003 11.896L8.95003 12.096C9.50403 12.373 10.123 12.519 10.74 12.519C11.564 12.519 12.357 12.269 13.034 11.795L13.21 11.672C13.295 11.613 13.394 11.582 13.497 11.582C13.577 11.582 13.657 11.602 13.728 11.639C13.894 11.725 13.997 11.895 13.997 12.082V13.882C13.997 14.016 13.945 14.141 13.851 14.236L12.169 15.918C11.423 16.661 10.998 17.69 11.001 18.742V22C11.001 22.552 11.45 23 12.001 23C12.553 23 13.001 22.552 13.001 22V18.743C12.999 18.217 13.213 17.701 13.587 17.328L15.148 15.767C15.241 15.673 15.366 15.621 15.5 15.621ZM2.34003 3.63403C1.94603 3.63403 1.61103 3.76203 1.36903 4.00303C1.08003 4.29303 0.954027 4.72203 1.01503 5.21303C1.08203 5.75003 1.35803 6.28503 1.79403 6.72103C2.29203 7.21903 2.94403 7.51603 3.53803 7.51603C3.93303 7.51603 4.26903 7.38803 4.51203 7.14603C5.14403 6.51403 4.95303 5.29503 4.08703 4.42803C3.65103 3.99303 3.11503 3.71603 2.57803 3.64903C2.49703 3.63903 2.41803 3.63403 2.34003 3.63403Z" fill="#3E3F42"/>
<path d="M3 15C1.897 15 1 14.103 1 13C1 11.897 1.897 11 3 11C4.103 11 5 11.897 5 13C5 14.103 4.102 15 3 15ZM3 12C2.449 12 2 12.448 2 13C2 13.552 2.449 14 3 14C3.551 14 4 13.552 4 13C4 12.448 3.551 12 3 12Z" fill="#3E3F42"/>
</g>
<defs>
<clipPath id="clip0">
<rect width="24" height="24" fill="white"/>
</clipPath>
</defs>
</svg>
