<svg width="24" height="24" viewBox="0 0 24 24" fill="none" xmlns="http://www.w3.org/2000/svg">
<g clip-path="url(#clip0)">
<path d="M22.5 24C22.224 24 22 23.776 22 23.5V22H16V23.5C16 23.776 15.776 24 15.5 24C15.224 24 15 23.776 15 23.5V22H9V23.5C9 23.776 8.776 24 8.5 24C8.224 24 8 23.776 8 23.5V22H2V23.5C2 23.776 1.776 24 1.5 24C1.224 24 1 23.776 1 23.5V16.5C1 16.224 1.224 16 1.5 16C1.776 16 2 16.224 2 16.5V18H8V16.5C8 16.224 8.224 16 8.5 16C8.776 16 9 16.224 9 16.5V18H15V16.5C15 16.224 15.224 16 15.5 16C15.776 16 16 16.224 16 16.5V18H22V16.5C22 16.224 22.224 16 22.5 16C22.776 16 23 16.224 23 16.5V23.5C23 23.776 22.776 24 22.5 24ZM22 21V19H16V21H22ZM15 21V19H9V21H15ZM8 21V19H2V21H8Z" fill="#3E3F42"/>
<path d="M14 14.5C13.887 14.5 13.776 14.461 13.688 14.391L8.06196 9.89101C7.60996 9.52901 7.06996 9.33801 6.49996 9.33801C5.92996 9.33801 5.38996 9.52901 4.93796 9.89001L0.811964 13.19C0.723964 13.261 0.612964 13.3 0.499964 13.3C0.346964 13.3 0.204964 13.232 0.108964 13.112C-0.0630363 12.897 -0.0280363 12.581 0.186964 12.409L4.31296 9.10901C4.93596 8.61201 5.71196 8.33801 6.49996 8.33801C7.28796 8.33801 8.06396 8.61201 8.68596 9.11001L10.777 10.783L15.241 8.38001C15.747 8.10701 16.321 7.96301 16.899 7.96301C17.549 7.96301 18.183 8.14201 18.733 8.48001L23.761 11.574C23.996 11.719 24.069 12.027 23.925 12.262C23.835 12.411 23.675 12.5 23.5 12.5C23.408 12.5 23.317 12.474 23.239 12.426L18.21 9.33201C17.818 9.09001 17.365 8.96301 16.9 8.96301C16.486 8.96301 16.077 9.06601 15.716 9.26101L11.627 11.462L14.313 13.61C14.528 13.783 14.563 14.098 14.391 14.313C14.294 14.432 14.152 14.5 14 14.5Z" fill="#3E3F42"/>
<path d="M15 6C13.346 6 12 4.654 12 3C12 1.346 13.346 0 15 0C16.654 0 18 1.346 18 3C18 4.654 16.654 6 15 6ZM15 1C13.897 1 13 1.897 13 3C13 4.103 13.897 5 15 5C16.103 5 17 4.103 17 3C17 1.897 16.103 1 15 1Z" fill="#3E3F42"/>
</g>
<defs>
<clipPath id="clip0">
<rect width="24" height="24" fill="white"/>
</clipPath>
</defs>
</svg>
