<svg width="24" height="24" viewBox="0 0 24 24" fill="none" xmlns="http://www.w3.org/2000/svg">
<path d="M8.599 23.998C8.537 23.998 8.476 23.992 8.416 23.981C8.156 23.934 7.928 23.786 7.776 23.566C7.624 23.346 7.567 23.08 7.615 22.817L8.143 19.918C8.259 19.278 7.953 18.641 7.382 18.331C5.77 17.462 4.692 15.818 4.525 14H4.5C4.224 14 4 13.776 4 13.5V12.5C4 11.711 4.371 10.975 4.999 10.503L4.534 4H4C3.449 4 3 3.551 3 3V2.5C3 1.121 4.121 0 5.5 0H18.5C19.878 0 21 1.121 21 2.5V3C21 3.551 20.552 4 20 4H19.466L19.002 10.503C19.629 10.975 20 11.711 20 12.5V13.5C20 13.776 19.776 14 19.5 14H19.475C19.308 15.818 18.229 17.463 16.616 18.332C16.045 18.641 15.74 19.279 15.856 19.919L16.384 22.819C16.395 22.878 16.4 22.938 16.4 22.999C16.4 23.55 15.951 23.999 15.4 23.999H8.599V23.998ZM5.527 14C5.688 15.467 6.545 16.744 7.857 17.452C8.81 17.968 9.32 19.031 9.126 20.097L8.598 22.997L15.398 22.998L14.87 20.097C14.676 19.031 15.186 17.968 16.138 17.452C17.451 16.744 18.309 15.467 18.471 13.999H5.527V14ZM19 13V12.5C19 11.673 18.327 11 17.5 11H6.5C5.673 11 5 11.673 5 12.5V13H19ZM5.969 10.059C6.145 10.02 6.322 10 6.5 10H17.5C17.678 10 17.855 10.02 18.031 10.058L18.463 4H5.537L5.969 10.059ZM5.5 1C4.673 1 4 1.673 4 2.5V3H20V2.5C20 1.673 19.327 1 18.5 1H5.5Z" fill="#3E3F42"/>
</svg>
