<svg width="24" height="24" viewBox="0 0 24 24" fill="none" xmlns="http://www.w3.org/2000/svg">
<path d="M19.5 24C18.673 24 18 23.327 18 22.5V19H5V22.5C5 23.327 4.327 24 3.5 24C2.673 24 2 23.327 2 22.5V19C0.897 19 0 18.103 0 17C0 15.897 0.897 15 2 15H5V13H1.5C0.673 13 0 12.327 0 11.5V4.5C0 3.673 0.673 3 1.5 3H12.5C13.327 3 14 3.673 14 4.5V11.5C14 12.327 13.327 13 12.5 13H9V15H18V12.5C18 12.224 18.224 12 18.5 12H19V10.5C19 10.224 19.224 10 19.5 10C19.776 10 20 10.224 20 10.5V12H20.25L21.6 10.2C21.694 10.075 21.844 10 22 10C22.109 10 22.213 10.035 22.3 10.1C22.406 10.18 22.476 10.297 22.495 10.429C22.514 10.561 22.48 10.693 22.4 10.8L21.5 12C21.776 12 22 12.224 22 12.5V15C23.103 15 24 15.897 24 17C24 18.103 23.103 19 22 19H21V22.5C21 23.327 20.327 24 19.5 24ZM19 22.5C19 22.776 19.224 23 19.5 23C19.776 23 20 22.776 20 22.5V19H19V22.5ZM3 22.5C3 22.776 3.224 23 3.5 23C3.776 23 4 22.776 4 22.5V19H3V22.5ZM22 18C22.552 18 23 17.552 23 17C23 16.448 22.552 16 22 16H12V18H22ZM2 16C1.449 16 1 16.448 1 17C1 17.552 1.449 18 2 18H11V16H2ZM21 15V13H19L21 15ZM8 15V13H6V15H8ZM1.5 4C1.224 4 1 4.224 1 4.5V11.5C1 11.776 1.224 12 1.5 12H12.5C12.776 12 13 11.776 13 11.5V4.5C13 4.224 12.776 4 12.5 4H1.5Z" fill="#3E3F42"/>
<path d="M21 6C20.901 6 20.805 5.971 20.723 5.916L19.223 4.916C19.083 4.823 19 4.668 19 4.5V2.5C19 2.224 19.224 2 19.5 2C19.776 2 20 2.224 20 2.5V4.232L21.277 5.084C21.388 5.158 21.464 5.271 21.49 5.402C21.516 5.533 21.49 5.666 21.416 5.778C21.323 5.917 21.168 6 21 6Z" fill="#3E3F42"/>
<path d="M19.5 9C17.019 9 15 6.981 15 4.5C15 2.019 17.019 0 19.5 0C21.981 0 24 2.019 24 4.5C24 6.981 21.981 9 19.5 9ZM19.5 1C17.57 1 16 2.57 16 4.5C16 6.43 17.57 8 19.5 8C21.43 8 23 6.43 23 4.5C23 2.57 21.43 1 19.5 1Z" fill="#3E3F42"/>
<path d="M6.5 11C6.224 11 6 10.776 6 10.5C6 10.224 6.224 10 6.5 10H7.5C7.776 10 8 10.224 8 10.5C8 10.776 7.776 11 7.5 11H6.5Z" fill="#3E3F42"/>
</svg>
